<?xml version="1.0" encoding="UTF-8"?>
<svg width="40px" height="40px" viewBox="0 0 40 40" version="1.1" xmlns="http://www.w3.org/2000/svg" xmlns:xlink="http://www.w3.org/1999/xlink">
    <title>24 hrs</title>
    <g id="24-hrs" stroke="none" stroke-width="1" fill="none" fill-rule="evenodd">
        <g id="1967981_24-hours_24_7_clock_delivery_non-stop_icon" transform="translate(2.000000, 2.000000)">
            <rect id="Rectangle" x="0" y="0" width="36" height="36"></rect>
            <g id="_200639160" transform="translate(2.530652, 2.520154)">
                <path d="M15.6478118,14.1822289 L24.4188519,7.79726258 C24.6688076,7.61521084 25.019224,7.6703579 25.2012757,7.92031361 C25.3833274,8.17026931 25.3281804,8.52068568 25.0782247,8.70273742 L16.3071846,15.0877038 C16.2634656,14.6828047 16.0050053,14.3420889 15.6478118,14.1822289 L15.6478118,14.1822289 Z" id="_203966600" fill="#84BC42" fill-rule="nonzero"></path>
                <path d="M14.0643604,15.2455705 L7.63035967,11.9615964 C7.35369419,11.8208717 7.24353296,11.482415 7.38425762,11.2057495 C7.52498228,10.929084 7.86343905,10.8189227 8.14010454,10.9596474 L14.5947023,14.2541194 C14.2759125,14.4527817 14.063696,14.8063873 14.063696,15.2096917 L14.0643604,15.2455705 L14.0643604,15.2455705 Z" id="_203968280" fill="#84BC42" fill-rule="nonzero"></path>
                <circle id="_200346272" fill="#84BC42" cx="15.2905519" cy="2.36727055" r="1"></circle>
                <circle id="_203669832" fill="#84BC42" cx="2.35278614" cy="15.3185905" r="1"></circle>
                <path d="M22.3232636,29.5334426 L22.3232636,30.9595588 L14.3378366,30.9595588 C14.3266743,30.6023653 14.3828845,30.2591247 14.5095234,29.9301028 C14.7120393,29.3844791 15.0382707,28.8500177 15.485427,28.3212704 C15.9355067,27.7951807 16.5823884,27.1848423 17.4262048,26.4929128 C18.7397679,25.4156184 19.6286322,24.5634302 20.0898742,23.9334249 C20.5512491,23.3060773 20.7818037,22.7098246 20.7818037,22.1501152 C20.7818037,21.5622342 20.570916,21.0672395 20.1517984,20.6622077 C19.7298901,20.2599663 19.181343,20.0574504 18.5062899,20.0574504 C17.7919029,20.0574504 17.2208983,20.2712615 16.7934089,20.7015415 C16.3629961,21.1290308 16.1465273,21.7226258 16.1408133,22.4791371 L14.6163625,22.3244596 C14.7204111,21.1853738 15.1141478,20.318967 15.794915,19.7227144 C16.4755493,19.1264617 17.3924522,18.828269 18.5400425,18.828269 C19.6989281,18.828269 20.615831,19.1517098 21.2908841,19.7930103 C21.9688607,20.4371013 22.3063873,21.2332123 22.3063873,22.1838678 C22.3063873,22.6677002 22.2079199,23.143028 22.0081945,23.6098512 C21.8112597,24.0768072 21.4822378,24.5690113 21.0237863,25.0838058 C20.565202,25.601258 19.8029766,26.3100638 18.7369773,27.2102232 C17.848113,27.9583629 17.2772413,28.4646527 17.0240964,28.7318834 C16.7709515,28.9963235 16.5627215,29.2634213 16.3967488,29.5334426 L22.3232636,29.5334426 L22.3232636,29.5334426 Z" id="_200348072" fill="#84BC42" fill-rule="nonzero"></path>
                <path d="M27.8221563,30.9595588 L27.8221563,28.0681254 L22.5821226,28.0681254 L22.5821226,26.706724 L28.0949681,18.8788979 L29.3072732,18.8788979 L29.3072732,26.706724 L30.938696,26.706724 L30.938696,28.0681254 L29.3072732,28.0681254 L29.3072732,30.9595588 L27.8221563,30.9595588 Z M27.8221563,26.706724 L27.8221563,21.2612509 L24.0418586,26.706724 L27.8221563,26.706724 Z" id="_2003480721" fill="#84BC42" fill-rule="nonzero"></path>
                <path d="M15.1888288,13.5219259 C15.6547218,13.5219259 16.07663,13.7110206 16.3819986,14.0163891 C16.6873671,14.3217576 16.8764617,14.7437987 16.8764617,15.2096917 C16.8764617,15.6753189 16.6873671,16.0974929 16.3819986,16.4028614 C16.07663,16.70823 15.6544561,16.8973246 15.1888288,16.8973246 C14.7229359,16.8973246 14.3008948,16.70823 13.9955262,16.4028614 C13.6901577,16.0974929 13.5010631,15.6755847 13.5010631,15.2096917 C13.5010631,14.7437987 13.6901577,14.3217576 13.9955262,14.0163891 C14.3008948,13.7110206 14.7229359,13.5219259 15.1888288,13.5219259 Z" id="_200647176" fill="#84BC42" fill-rule="nonzero"></path>
                <path d="M10.6197289,29.6727055 C4.30014174,27.6793055 -1.77635684e-15,21.8160436 -1.77635684e-15,15.188696 C-1.77635684e-15,6.80155918 6.80155918,0 15.188696,0 C23.5758327,0 30.3773919,6.80155918 30.3773919,15.188696" id="_200640960" stroke="#84BC42" stroke-width="2.16" stroke-linecap="round" stroke-linejoin="round"></path>
            </g>
        </g>
    </g>
</svg>