<?xml version="1.0" encoding="UTF-8"?>
<svg width="150px" height="134px" viewBox="0 0 150 134" version="1.1" xmlns="http://www.w3.org/2000/svg" xmlns:xlink="http://www.w3.org/1999/xlink">
    <title>Asset 1</title>
    <defs>
        <linearGradient x1="131.402711%" y1="150.903767%" x2="-24.5935004%" y2="-42.0159981%" id="linearGradient-1">
            <stop stop-color="#FFFFFF" offset="0%"></stop>
            <stop stop-color="#C4E5F5" offset="100%"></stop>
        </linearGradient>
        <linearGradient x1="502.903428%" y1="650.464037%" x2="-440.491074%" y2="-657.424594%" id="linearGradient-2">
            <stop stop-color="#FFFFFF" offset="0%"></stop>
            <stop stop-color="#9BCEE9" offset="100%"></stop>
        </linearGradient>
        <linearGradient x1="1340.7383%" y1="448.164059%" x2="-791.891892%" y2="-215.776423%" id="linearGradient-3">
            <stop stop-color="#FFFFFF" offset="0%"></stop>
            <stop stop-color="#95C3D9" offset="100%"></stop>
        </linearGradient>
        <linearGradient x1="127.975774%" y1="222.680864%" x2="-348.29993%" y2="-977.9303%" id="linearGradient-4">
            <stop stop-color="#FFFFFF" offset="0%"></stop>
            <stop stop-color="#64AED2" offset="100%"></stop>
        </linearGradient>
        <linearGradient x1="282.10374%" y1="250.244988%" x2="-150.092994%" y2="-120.022691%" id="linearGradient-5">
            <stop stop-color="#FFFFFF" offset="0%"></stop>
            <stop stop-color="#9FC7DB" offset="100%"></stop>
        </linearGradient>
        <linearGradient x1="846.895844%" y1="461.264538%" x2="-813.032324%" y2="-434.52302%" id="linearGradient-6">
            <stop stop-color="#FFFFFF" offset="0%"></stop>
            <stop stop-color="#9BCEE9" offset="100%"></stop>
        </linearGradient>
        <linearGradient x1="199.502338%" y1="4537.38938%" x2="-47.5138074%" y2="-2945.35398%" id="linearGradient-7">
            <stop stop-color="#FFFFFF" offset="0%"></stop>
            <stop stop-color="#95C3D9" offset="100%"></stop>
        </linearGradient>
        <linearGradient x1="82.0726347%" y1="67.9384887%" x2="-4.1574207%" y2="18.065359%" id="linearGradient-8">
            <stop stop-color="#F0FAFE" offset="0%"></stop>
            <stop stop-color="#B2D0DD" stop-opacity="0.795328207" offset="100%"></stop>
        </linearGradient>
        <linearGradient x1="103.829018%" y1="80.4830323%" x2="-6.02859182%" y2="17.0164696%" id="linearGradient-9">
            <stop stop-color="#F3FBFE" offset="0%"></stop>
            <stop stop-color="#B9E1F5" stop-opacity="0.9" offset="100%"></stop>
        </linearGradient>
    </defs>
    <g id="Page-1" stroke="none" stroke-width="1" fill="none" fill-rule="evenodd">
        <g id="1-Home" transform="translate(-199.000000, -205.000000)" fill-rule="nonzero">
            <g id="Asset-1" transform="translate(199.000000, 205.000000)">
                <g id="Group">
                    <g>
                        <path d="M50.7642267,1.01100625 C50.6950499,1.08905588 44.334974,4.92344645 37.7392005,8.89010802 L36.9139392,9.38636747 C36.638735,9.55184216 36.3635595,9.71728432 36.0888509,9.8824318 L35.2665637,10.3767281 C28.9968987,14.1452668 23.2033097,17.6208379 23.1718691,17.639699 C24.1934322,18.6064154 24.9612983,19.335875 25.3376333,19.6877556 C26.2504127,20.5412221 31.1151871,25.5687606 36.0423282,30.7937671 L36.7142324,31.5071185 C41.8628602,36.9798033 46.8864139,42.4707552 47.3403866,43.4360842 C46.3694229,43.1160679 40.777456,39.1569781 34.9867387,34.9290233 L34.1962791,34.3511342 C28.1330145,29.9127304 22.0723235,25.3480003 21.0696716,24.5102841 C20.6746579,24.18025 19.8577524,23.5087054 18.7747022,22.6166019 C18.7680032,22.6282868 18.1966368,23.9152456 17.2953231,25.9439238 L17.0275678,26.5465607 C15.8297652,29.2423349 14.1557151,33.0083392 12.4593355,36.8193412 L12.0676735,37.6991353 C8.86923791,44.8830219 5.71550918,51.9466224 5.6448912,52.0273066 C5.50077285,52.1919683 3.80429407,51.3707182 4.39517928,46.7601916 C4.63070983,44.915981 5.57942029,39.4640332 6.63308185,33.5856118 L6.79184219,32.7010477 C6.81840809,32.5532198 6.84502058,32.4052248 6.87167015,32.2571123 L7.03193657,31.3674262 C7.11221625,30.9222763 7.19265862,30.4769642 7.27300709,30.0328322 L7.43350277,29.1465391 C8.60520112,22.6822839 9.72021469,16.6618721 9.97566301,15.2846677 C6.94321668,12.7135674 4.14073423,10.2645197 2.81193634,8.90447482 C-0.560432885,5.44863813 -0.152783858,2.35917364 0.298100672,1.85078075 L0.298100672,1.85078075 C0.748985202,1.34032958 3.76517624,0.558186675 7.60901833,3.4829895 C9.12158288,4.63452586 11.8953948,7.11460442 14.8193263,9.80750199 C16.2424281,9.35910279 22.8129692,7.28508557 29.5609739,5.18690089 L31.2884854,4.6504696 C37.4705154,2.73348274 43.4454031,0.910912544 45.382436,0.416165989 C49.8871636,-0.734407396 50.9104039,0.848402859 50.7642267,1.01100625 Z" id="Combined-Shape" fill="url(#linearGradient-1)"></path>
                        <path d="M27.184407,15.2336576 C25.1173382,16.4747949 24.6767478,18.9858853 26.2146964,20.5563459 L23.1717405,17.6418344 L27.1823481,15.2336576 L27.184407,15.2336576 Z" id="Path" fill="url(#linearGradient-2)"></path>
                        <path d="M17.022005,9.12882634 C17.022005,9.12882634 14.919936,9.89450308 13.8987546,8.96416467 L14.919936,9.89450308 L17.022005,9.12882634 L17.022005,9.12882634 Z" id="Path" fill="url(#linearGradient-3)"></path>
                        <path d="M40.6261035,39.0012182 L44.9301035,41.9882182 L44.9315515,41.9870616 L46.8261035,43.1782182 L46.7425636,43.1270168 C45.2755776,42.2710021 44.3594867,43.3282791 43.8520086,44.3961347 L43.7991931,44.5105016 L43.7971342,44.5105016 L41.1206507,50.4671373 C41.1206507,50.4671373 39.844174,49.9916768 39.9594687,48.7134906 C39.9690765,48.6068036 39.9817155,48.4504322 39.9968136,48.253398 L40.0212337,47.9284774 C40.2000205,45.5112777 40.6078736,39.2835014 40.6259121,39.007905 L40.6261035,39.0012182 Z M53.5580637,36.4050311 L47.9141035,39.8262182 L47.8675007,39.8554162 C46.8344535,40.5140098 45.864958,41.6038802 47.0809736,43.0264884 L45.6081035,41.2242182 L45.6068489,41.2255014 L42.1130085,37.3189034 L42.1130085,37.3168451 C42.1130085,37.3168451 44.5504207,36.8530481 46.9843091,36.3850489 L47.5448021,36.2771837 C49.4054967,35.918779 51.1530031,35.5788069 51.6762899,35.4664597 C52.9321784,35.1968262 53.5580637,36.4050311 53.5580637,36.4050311 Z" id="Combined-Shape" fill="url(#linearGradient-4)"></path>
                        <path d="M20.1411377,2.68026388 L18.1420104,4.94024523 L16.1428831,7.20022659 C19.1796624,10.1353208 24.1043921,12.2224074 24.1043921,12.2224074 L25.1049852,11.0924167 L26.1055782,9.96242602 C26.1055782,9.96242602 23.4311535,5.33131669 20.1431965,2.67820561 L20.1411377,2.68026388 Z" id="Path" fill="url(#linearGradient-5)"></path>
                    </g>
                    <g transform="translate(3.548999, 14.474156)" id="Path">
                        <path d="M13.3268291,12.4154895 C14.304775,10.2131398 16.7465515,9.46804574 18.4924422,10.8018052 L15.2250735,8.14046106 L13.3268291,12.4154895 Z" fill="url(#linearGradient-6)"></path>
                        <path d="M6.0220879,3.07917314 C6.0220879,3.07917314 6.52444327,0.899464345 5.47649703,0 L6.52444327,0.899464345 L6.0220879,3.07917314 L6.0220879,3.07917314 Z" fill="url(#linearGradient-7)"></path>
                        <path d="M0.00205883347,6.96313016 L2.00118613,4.70314881 L4.00031343,2.44316745 C7.28621165,5.09627853 9.96269517,9.72738786 9.96269517,9.72738786 L8.9621021,10.8573785 L7.96150903,11.9873692 C7.96150903,11.9873692 3.03677937,9.90028261 0,6.96518843 L0.00205883347,6.96313016 Z" fill="url(#linearGradient-5)"></path>
                    </g>
                </g>
                <path d="M149.997941,134 L23.8182142,39.7867701 L149.386468,131.458036 C149.582057,132.303985 149.789999,133.151992 150,134 L149.997941,134 Z" id="Path" fill="url(#linearGradient-8)"></path>
                <path d="M143.870853,99.5363135 L40.7294724,22.616675 L143.669087,97.6797532 C143.728793,98.2992928 143.798794,98.9188323 143.870853,99.5363135 L143.870853,99.5363135 Z" id="Path" fill="url(#linearGradient-9)"></path>
            </g>
        </g>
    </g>
</svg>