<?xml version="1.0" encoding="UTF-8"?>
<svg width="24px" height="24px" viewBox="0 0 24 24" version="1.1" xmlns="http://www.w3.org/2000/svg" xmlns:xlink="http://www.w3.org/1999/xlink">
    <title>calendar</title>
    <g id="calendar" stroke="none" stroke-width="1" fill="none" fill-rule="evenodd">
        <g id="4781851_calendar_date_day_event_month_icon" transform="translate(-1.000000, -1.000000)">
            <g id="Layer_2" transform="translate(2.437500, 2.437500)" fill="#8F8F8F" fill-rule="nonzero" stroke="#FFFFFF" stroke-width="0.2">
                <path d="M20.3125,8.125 L0.8125,8.125 C0.363768641,8.125 0,7.76123136 0,7.3125 C0,6.86376864 0.363768641,6.5 0.8125,6.5 L20.3125,6.5 C20.7612314,6.5 21.125,6.86376864 21.125,7.3125 C21.125,7.76123136 20.7612314,8.125 20.3125,8.125 Z" id="Path"></path>
                <path d="M17.0625,21.125 L4.0625,21.125 C1.8188432,21.125 0,19.3061568 0,17.0625 L0,5.6875 C0,3.4438432 1.8188432,1.625 4.0625,1.625 L17.0625,1.625 C19.3061568,1.625 21.125,3.4438432 21.125,5.6875 L21.125,17.0625 C21.125,19.3061568 19.3061568,21.125 17.0625,21.125 Z M4.0625,3.25 C2.71630592,3.25 1.625,4.34130592 1.625,5.6875 L1.625,17.0625 C1.625,18.4086941 2.71630592,19.5 4.0625,19.5 L17.0625,19.5 C18.4086941,19.5 19.5,18.4086941 19.5,17.0625 L19.5,5.6875 C19.5,4.34130592 18.4086941,3.25 17.0625,3.25 L4.0625,3.25 Z" id="Shape"></path>
                <path d="M17.0625,17.875 L13.8125,17.875 C13.3637686,17.875 13,17.5112314 13,17.0625 L13,13.8125 C13,13.3637686 13.3637686,13 13.8125,13 L17.0625,13 C17.5112314,13 17.875,13.3637686 17.875,13.8125 L17.875,17.0625 C17.875,17.5112314 17.5112314,17.875 17.0625,17.875 Z M14.625,16.25 L16.25,16.25 L16.25,14.625 L14.625,14.625 L14.625,16.25 Z" id="Shape"></path>
                <path d="M6.5,4.875 C6.05126864,4.875 5.6875,4.51123136 5.6875,4.0625 L5.6875,0.8125 C5.6875,0.363768641 6.05126864,0 6.5,0 C6.94873136,0 7.3125,0.363768641 7.3125,0.8125 L7.3125,4.0625 C7.3125,4.51123136 6.94873136,4.875 6.5,4.875 Z" id="Path"></path>
                <path d="M14.625,4.875 C14.1762686,4.875 13.8125,4.51123136 13.8125,4.0625 L13.8125,0.8125 C13.8125,0.363768641 14.1762686,0 14.625,0 C15.0737314,0 15.4375,0.363768641 15.4375,0.8125 L15.4375,4.0625 C15.4375,4.51123136 15.0737314,4.875 14.625,4.875 Z" id="Path"></path>
            </g>
            <g id="frame">
                <rect id="Rectangle" x="0" y="0" width="26" height="26"></rect>
            </g>
        </g>
    </g>
</svg>