<?xml version="1.0" encoding="UTF-8"?><svg width="100px" height="100px" viewBox="0 0 100 100" version="1.1" xmlns="http://www.w3.org/2000/svg" xmlns:xlink="http://www.w3.org/1999/xlink"><g id="Gate-to-Gate-Service" stroke="none" stroke-width="1" fill="none" fill-rule="evenodd"><path d="M55.0443096,55.5457639 C57.1367418,55.5457639 58.792261,56.1297543 60.0111069,57.287658 C61.2352314,58.4506002 61.8446544,59.8880227 61.8446544,61.6044841 C61.8446544,62.4780704 61.666866,63.3363011 61.3062507,64.1791763 C60.950674,65.0222914 60.3566066,65.9109932 59.528847,66.8404833 C58.7008475,67.7747719 57.3246073,69.0545602 55.3998863,70.6798481 C53.7949925,72.0306557 52.7642519,72.9447902 52.3071846,73.42729 C51.8501174,73.9047514 51.4741466,74.3870113 51.1744736,74.8745497 L61.8751255,74.8745497 L61.8751255,77.4494818 L47.4569934,77.4494818 C47.4368393,76.8045491 47.5383298,76.1848091 47.7669834,75.5907416 C48.1326372,74.6055878 48.7216661,73.6405881 49.5290316,72.6859054 C50.3416755,71.7360213 51.5096563,70.6340214 53.0332137,69.3847043 C55.4049248,67.4395892 57.0098187,65.9009162 57.8426168,64.7634066 C58.6756548,63.6306956 59.0919339,62.5541283 59.0919339,61.5435418 C59.0919339,60.4820901 58.7111645,59.5883497 57.9544243,58.8570421 C57.1926456,58.1307731 56.2022133,57.7651193 54.9833673,57.7651193 C53.6935019,57.7651193 52.6625214,58.1511672 51.8906656,58.9280615 C51.1135313,59.6999173 50.7226849,60.771686 50.7123679,62.1376093 L47.9598873,61.8583304 C48.1477528,59.8016478 48.8586663,58.2373021 50.0878293,57.1607349 C51.3167523,56.0841676 52.9722714,55.5457639 55.0443096,55.5457639 Z M74.4851428,55.6371774 L74.4851428,69.7707521 L77.4307672,69.7707521 L77.4307672,72.2288381 L74.4851428,72.2288381 L74.4851428,77.4494818 L71.8036816,77.4494818 L71.8036816,72.2288381 L62.3425097,72.2288381 L62.3425097,69.7707521 L72.2962586,55.6371774 L74.4851428,55.6371774 Z M48.9932672,20.0502783 C64.9651357,20.0502783 77.9173016,33.0024442 77.9173016,48.9743127 C77.9173016,49.8027398 77.2457287,50.4743127 76.4173016,50.4743127 C75.5888744,50.4743127 74.9173016,49.8027398 74.9173016,48.9743127 C74.9173016,34.6592984 63.3082815,23.0502783 48.9932672,23.0502783 C34.6782529,23.0502783 23.0692328,34.6592984 23.0692328,48.9743127 C23.0692328,60.284677 30.4078582,70.2928738 41.1949754,73.6954759 C41.9850302,73.9446844 42.4234727,74.7871739 42.1742641,75.5772287 C41.9250555,76.3672835 41.0825661,76.805726 40.2925113,76.5565174 C28.2569297,72.7601097 20.0692328,61.5939746 20.0692328,48.9743127 C20.0692328,33.0024442 33.0213986,20.0502783 48.9932672,20.0502783 Z M71.8036816,59.938648 L64.9781442,69.7707521 L71.8036816,69.7707521 L71.8036816,59.938648 Z M67.0715361,35.8508446 C67.4002407,36.3021535 67.3006696,36.9348497 66.8493607,37.2635542 L51.9128476,48.1367539 C51.9959568,48.4140708 52.040622,48.7079672 52.040622,49.0122217 C52.040622,49.8529375 51.6992012,50.6151961 51.1478414,51.1665559 C50.5964815,51.7179158 49.8342229,52.0593366 48.9935071,52.0593366 C48.1523115,52.0593366 47.3902928,51.7179158 46.8389329,51.1665559 C46.2875731,50.6151961 45.9461523,49.8534173 45.9461523,49.0122217 C45.9461523,48.8633035 45.9568524,48.7168668 45.9775233,48.573641 L35.3462711,43.1476051 C34.8467362,42.8935189 34.647834,42.2824164 34.9019202,41.7828815 C35.1560064,41.2833466 35.7671089,41.0844444 36.2666438,41.3385306 L46.9232328,46.7772783 L46.9810855,46.7242574 C47.5178457,46.2517552 48.2224111,45.9648668 48.9935071,45.9648668 C49.6349849,45.9648668 50.2302797,46.163412 50.7212975,46.5021954 L65.6588265,35.6286691 C66.1101354,35.2999646 66.7428316,35.3995356 67.0715361,35.8508446 Z M25.8173189,48.009193 C26.4798682,48.009193 27.0169705,48.5462953 27.0169705,49.2088446 C27.0169705,49.8713938 26.4798682,50.4084961 25.8173189,50.4084961 C25.1547697,50.4084961 24.6176674,49.8713938 24.6176674,49.2088446 C24.6176674,48.5462953 25.1547697,48.009193 25.8173189,48.009193 Z M49.1771738,24.6248653 C49.839723,24.6248653 50.3768253,25.1619676 50.3768253,25.8245168 C50.3768253,26.4870661 49.839723,27.0241684 49.1771738,27.0241684 C48.5146245,27.0241684 47.9775222,26.4870661 47.9775222,25.8245168 C47.9775222,25.1619676 48.5146245,24.6248653 49.1771738,24.6248653 Z" id="Clock" fill="#892680" fill-rule="nonzero"></path></g></svg>