<?xml version="1.0" encoding="UTF-8"?>
<svg width="40px" height="40px" viewBox="0 0 40 40" version="1.1" xmlns="http://www.w3.org/2000/svg" xmlns:xlink="http://www.w3.org/1999/xlink">
    <title>magic</title>
    <g id="magic" stroke="none" stroke-width="1" fill="none" fill-rule="evenodd">
        <g id="185057_magic-wand_magic_icon" transform="translate(5.000000, 6.000000)" fill="#84BC42" fill-rule="nonzero" stroke="#84BC42" stroke-width="0.6">
            <path d="M0.68996197,29 C0.513375852,29 0.336789734,28.9324009 0.202280777,28.7978926 C-0.0674269258,28.5281861 -0.0674269258,28.0922411 0.202280777,27.8225346 L18.737615,9.28797393 C19.0073227,9.01826745 19.4432697,9.01826745 19.7129774,9.28797393 C19.9826851,9.55768041 19.9826851,9.99362542 19.7129774,10.2633319 L1.17764316,28.7978926 C1.04313421,28.9324009 0.866548088,29 0.68996197,29 Z" id="Path"></path>
            <path d="M19.0473305,1.17263689 L22.3948791,4.52017031 L27.0778602,2.04521669 L24.6015158,6.72817659 L27.825592,9.95223824 L23.5626927,8.95204795 L21.2222369,13.970244 L20.5483125,8.57542458 L15.1527789,7.90081347 L20.1696181,5.55829884 L19.0473305,1.17263689 M19.0473305,0 C18.8486712,0 18.6486322,0.0503544075 18.4672175,0.153822368 C18.0085075,0.415251415 17.780877,0.951905238 17.911937,1.46372675 L18.7941778,4.90645069 L14.6581998,6.83716284 C14.1850042,7.05789449 13.9146067,7.56626707 13.9960019,8.0822273 C14.077397,8.59818753 14.4905809,8.99826364 15.0086129,9.06310356 L19.4991427,9.6245897 L20.0599416,14.1144094 C20.1247818,14.6331288 20.5248597,15.0463108 21.041512,15.1277056 C21.1029033,15.1373626 21.1636048,15.1421911 21.2243063,15.1421911 C21.674049,15.1421911 22.0920615,14.8828315 22.2865821,14.4648209 L24.2242009,10.3109272 L27.5593332,11.0938347 C27.6490059,11.1145283 27.7386785,11.1248751 27.8276614,11.1248751 C28.2463636,11.1248751 28.641613,10.9000048 28.8519988,10.5226916 C29.1065311,10.0646734 29.0272053,9.49353028 28.6567884,9.12311498 L26.0452452,6.51158365 L28.1166832,2.59359688 C28.3574197,2.13902764 28.2732654,1.58030065 27.9090565,1.21609343 C27.6834954,0.990533276 27.3834369,0.872579801 27.0792397,0.872579801 C26.8929966,0.872579801 26.704684,0.916726131 26.5315469,1.00846772 L22.6135424,3.07920651 L19.8778371,0.343513629 C19.6508964,0.117953475 19.3508379,0 19.0473305,0 L19.0473305,0 Z" id="Shape"></path>
        </g>
    </g>
</svg>