<?xml version="1.0" encoding="UTF-8"?>
<svg width="34px" height="34px" viewBox="0 0 34 34" version="1.1" xmlns="http://www.w3.org/2000/svg" xmlns:xlink="http://www.w3.org/1999/xlink">
    <title>Pick Up Point</title>
    <g id="Pick-Up-Point" stroke="none" stroke-width="1" fill="none" fill-rule="evenodd">
        <path d="M17,4 C23.083,4.04386085 27.9987778,8.83654767 28,14.7435371 C28,17.6383532 26.724,20.4347786 24.8478889,22.3883646 L24.8478889,22.3883646 L17.0024444,30 L9.12766667,22.3622851 C7.26622222,20.4086992 6,17.6229426 6,14.7435371 C6,8.83536224 10.9157778,4.04386085 17,4 Z M17,6.37204213 C12.281,6.41471755 8.44444444,10.1665983 8.44444444,14.7435371 C8.44444444,16.863083 9.35866667,19.0940592 10.8925556,20.7216523 L10.8925556,20.7216523 L17.0024444,26.6476086 L23.0866667,20.7453609 C24.6327778,19.1189532 25.5555556,16.8784936 25.5555556,14.7435371 C25.5543333,10.1677837 21.7177778,6.41471755 17,6.37204213 Z M17,9.84890348 C19.7451111,9.84890348 21.9707778,12.0063831 21.9707778,14.6700406 C21.9707778,17.3325127 19.7451111,19.4911777 17,19.4911777 C14.2548889,19.4911777 12.0292222,17.3325127 12.0292222,14.6700406 C12.0292222,12.0075685 14.2548889,9.84890348 17,9.84890348 Z M17,12.2185748 C15.6066667,12.2185748 14.4736667,13.3174668 14.4736667,14.6688551 C14.4736667,16.0202435 15.6066667,17.1191355 17,17.1191355 C18.3933333,17.1191355 19.5263333,16.0202435 19.5263333,14.6688551 C19.5263333,13.3174668 18.3933333,12.2185748 17,12.2185748 Z" id="Combined-Shape" stroke="#892680" stroke-width="0.52" fill="#FFFFFF" fill-rule="nonzero"></path>
    </g>
</svg>