<?xml version="1.0" encoding="UTF-8"?>
<svg width="34px" height="34px" viewBox="0 0 34 34" version="1.1" xmlns="http://www.w3.org/2000/svg" xmlns:xlink="http://www.w3.org/1999/xlink">
    <title>Service Completion</title>
    <g id="Service-Completion" stroke="none" stroke-width="1" fill="none" fill-rule="evenodd">
        <path d="M16.5600072,4.09794216 C17.6668579,4.09794216 18.7941185,4.25902058 19.9096042,4.57713023 L19.4911989,6.13772921 C18.5115184,5.85847265 17.5255578,5.71682077 16.5600072,5.71682077 C10.4998037,5.71682077 5.57000091,10.8000996 5.57000091,17.0489711 C5.57000091,23.2978425 10.4998037,28.3811214 16.5600072,28.3811214 C22.6202107,28.3811214 27.5500136,23.2978425 27.5500136,17.0489711 C27.5500136,16.0533607 27.4126385,15.036705 27.1418134,14.0273341 L28.6552942,13.595903 C28.9637994,14.7453068 29.1200145,15.9076617 29.1200145,17.0489711 C29.1200145,24.1898446 23.4852812,30 16.5600072,30 C9.63473325,30 4,24.1898446 4,17.0489711 C4,9.90809751 9.63473325,4.09794216 16.5600072,4.09794216 Z M26.6700281,4 L30,7.43364154 L14.2050059,23.7203699 L7.83001721,17.1469132 L11.1599891,13.7132717 L14.2050059,16.8530868 L26.6700281,4 Z M26.6700281,6.28909436 L15.3149965,17.9976339 L14.2050059,19.1421811 L13.0950152,17.9976339 L11.1599891,16.0023661 L10.0499985,17.1469132 L14.2050059,21.4312755 L27.7800187,7.43364154 L26.6700281,6.28909436 Z" id="Combined-Shape" stroke="#FFFFFF" stroke-width="0.2" fill="#FFFFFF" fill-rule="nonzero"></path>
    </g>
</svg>