<?xml version="1.0" encoding="UTF-8"?>
<svg width="34px" height="34px" viewBox="0 0 34 34" version="1.1" xmlns="http://www.w3.org/2000/svg" xmlns:xlink="http://www.w3.org/1999/xlink">
    <title>Stay Informed</title>
    <g id="Stay-Informed" stroke="none" stroke-width="1" fill="none" fill-rule="evenodd">
        <path d="M28.1428571,8.00603253 L5.85714286,8.00603253 L5.78857143,8.00603253 C5.72884574,7.99798916 5.66829712,7.99798916 5.60857143,8.00603253 L5.46285714,8.06551142 C5.41622667,8.08777701 5.37295343,8.11637527 5.33428571,8.15048126 C5.28552158,8.18335472 5.24215604,8.22347769 5.20571429,8.26943903 L5.15428571,8.32042093 C5.15105877,8.34581152 5.15105877,8.37150319 5.15428571,8.39689379 C5.12628786,8.44841737 5.10332613,8.50247782 5.08571429,8.55833648 C5.04974613,8.6259868 5.02101825,8.69718272 5,8.77076107 C5,8.77076107 5,8.85573091 5,8.85573091 L5,24.1503016 C5,24.6195771 5.38375593,25 5.85714286,25 L28.1428571,25 C28.6162441,25 29,24.6195771 29,24.1503016 L29,8.85573091 C29,8.38645545 28.6162441,8.00603253 28.1428571,8.00603253 Z M17,15.4918752 L8.6,9.70542928 L26.5057143,9.70542928 L17,15.4918752 Z M6.71428571,23.3006033 L6.71428571,10.4786548 L16.5114286,17.1997689 L16.5114286,17.1997689 C16.5610845,17.2286326 16.6126275,17.2541803 16.6657143,17.2762418 L16.7342857,17.2762418 C16.8185375,17.3146647 16.9080908,17.3404382 17,17.3527146 L17,17.3527146 C17.1219065,17.3494964 17.241717,17.3205282 17.3514286,17.2677448 L17.4114286,17.2677448 L17.4114286,17.2677448 L27.2857143,11.2263894 L27.2857143,23.3006033 L6.71428571,23.3006033 Z" id="Shape" fill="#FFFFFF" fill-rule="nonzero"></path>
    </g>
</svg>