<?xml version="1.0" encoding="UTF-8"?>
<svg width="20px" height="20px" viewBox="0 0 20 20" version="1.1" xmlns="http://www.w3.org/2000/svg" xmlns:xlink="http://www.w3.org/1999/xlink">
    <title>close</title>
    <g id="close" stroke="none" stroke-width="1" fill="none" fill-rule="evenodd">
        <g id="211652_close_icon" transform="translate(4.000000, 4.000000)" fill="#DA595E" fill-rule="nonzero">
            <path d="M11.8640625,10.0853722 L7.7640625,5.97188964 L11.8734375,1.91150442 C12.0421875,1.74284227 12.0421875,1.46798542 11.8734375,1.29932327 L10.7046875,0.12493493 C10.6234375,0.0437272254 10.5140625,0 10.3984375,0 C10.2828125,0 10.1734375,0.0468505986 10.0921875,0.12493493 L6.0015625,4.17282665 L1.9046875,0.128058303 C1.8234375,0.0468505986 1.7140625,0.00312337324 1.5984375,0.00312337324 C1.4828125,0.00312337324 1.3734375,0.0499739719 1.2921875,0.128058303 L0.1265625,1.30244664 C-0.0421875,1.4711088 -0.0421875,1.74596564 0.1265625,1.9146278 L4.2359375,5.97501301 L0.1390625,10.0853722 C0.0578125,10.1665799 0.0109375,10.275898 0.0109375,10.3914628 C0.0109375,10.5070276 0.0546875,10.6163457 0.1390625,10.6975534 L1.3078125,11.8719417 C1.3921875,11.9562728 1.5015625,12 1.6140625,12 C1.7234375,12 1.8359375,11.9593961 1.9203125,11.8719417 L6.0015625,7.774076 L10.0859375,11.8688183 C10.1703125,11.9531494 10.2796875,11.9968766 10.3921875,11.9968766 C10.5015625,11.9968766 10.6140625,11.9562728 10.6984375,11.8688183 L11.8671875,10.69443 C11.9484375,10.6132223 11.9953125,10.5039042 11.9953125,10.3883394 C11.9921875,10.275898 11.9453125,10.1665799 11.8640625,10.0853722 Z" id="Path"></path>
        </g>
    </g>
</svg>