<?xml version="1.0" encoding="UTF-8"?>
<svg width="40px" height="40px" viewBox="0 0 40 40" version="1.1" xmlns="http://www.w3.org/2000/svg" xmlns:xlink="http://www.w3.org/1999/xlink">
    <title>phone</title>
    <g id="phone" stroke="none" stroke-width="1" fill="none" fill-rule="evenodd">
        <path d="M33.8235294,28.1890244 C33.8235294,28.5320122 33.7600267,28.9798018 33.6330214,29.5323933 C33.506016,30.0849848 33.3726604,30.5200711 33.2329545,30.8376524 C32.9662433,31.472815 32.1915107,32.1460874 30.9087567,32.8574695 C29.7149064,33.5053354 28.5337567,33.8292683 27.3653075,33.8292683 C27.022393,33.8292683 26.689004,33.8070376 26.3651404,33.7625762 C26.0412767,33.7181148 25.6761364,33.6387195 25.2697193,33.5243902 C24.8633021,33.410061 24.5616644,33.3179624 24.3648061,33.2480945 C24.1679479,33.1782266 23.815508,33.0480183 23.3074866,32.8574695 C22.7994652,32.6669207 22.4883021,32.5525915 22.3739973,32.5144817 C21.1293449,32.0698679 20.0180481,31.5426829 19.040107,30.9329268 C17.4144385,29.9293699 15.7347928,28.5605945 14.0011698,26.8266006 C12.2675468,25.0926067 10.8990642,23.4126016 9.89572193,21.7865854 C9.28609626,20.808435 8.75902406,19.6969004 8.31450535,18.4519817 C8.27640374,18.3376524 8.16209893,18.0264228 7.97159091,17.5182927 C7.78108289,17.0101626 7.65090241,16.6576474 7.58104947,16.460747 C7.51119652,16.2638465 7.41911765,15.9621443 7.30481283,15.5556402 C7.19050802,15.1491362 7.11112968,14.7839177 7.06667781,14.4599848 C7.02222594,14.1360518 7,13.8025915 7,13.4596037 C7,12.2909045 7.32386364,11.109502 7.97159091,9.91539634 C8.68282086,8.63236789 9.3559492,7.85746951 9.99097594,7.59070122 C10.3084893,7.45096545 10.7434826,7.3175813 11.2959559,7.19054878 C11.8484291,7.06351626 12.296123,7 12.6390374,7 C12.8168449,7 12.9502005,7.01905488 13.0391043,7.05716463 C13.2677139,7.13338415 13.6042781,7.61610772 14.0487968,8.50533537 C14.1885027,8.74669715 14.3790107,9.08968496 14.6203209,9.53429878 C14.861631,9.9789126 15.0838904,10.3822409 15.2870989,10.7442835 C15.4903075,11.1063262 15.6871658,11.4461382 15.8776738,11.7637195 C15.9157754,11.8145325 16.0269051,11.9733232 16.2110628,12.2400915 C16.3952206,12.5068598 16.5317513,12.7323425 16.6206551,12.9165396 C16.7095588,13.1007368 16.7540107,13.2817581 16.7540107,13.4596037 C16.7540107,13.7136687 16.5730281,14.03125 16.2110628,14.4123476 C15.8490976,14.7934451 15.455381,15.1427846 15.0299131,15.4603659 C14.6044452,15.7779472 14.2107286,16.1145833 13.8487634,16.4702744 C13.4867981,16.8259654 13.3058155,17.1181402 13.3058155,17.3467988 C13.3058155,17.461128 13.3375668,17.6040396 13.4010695,17.7755335 C13.4645722,17.9470274 13.5185495,18.0772358 13.5630013,18.1661585 C13.6074532,18.2550813 13.696357,18.4075203 13.8297126,18.6234756 C13.9630682,18.8394309 14.0360963,18.9601118 14.0487968,18.9855183 C15.0140374,20.7258638 16.118984,22.2184959 17.3636364,23.4634146 C18.6082888,24.7083333 20.1006016,25.8135163 21.8405749,26.7789634 C21.8659759,26.7916667 21.986631,26.8647104 22.2025401,26.9980945 C22.4184492,27.1314787 22.5708556,27.2204014 22.6597594,27.2648628 C22.7486631,27.3093242 22.8788436,27.363313 23.0503008,27.4268293 C23.221758,27.4903455 23.364639,27.5221037 23.4789439,27.5221037 C23.7075535,27.5221037 23.9996658,27.3410823 24.3552807,26.9790396 C24.7108957,26.616997 25.0474599,26.2231961 25.3649733,25.7976372 C25.6824866,25.3720783 26.0317513,24.9782774 26.4127674,24.6162348 C26.7937834,24.2541921 27.1112968,24.0731707 27.3653075,24.0731707 C27.543115,24.0731707 27.7240976,24.1176321 27.9082553,24.2065549 C28.0924131,24.2954776 28.3178476,24.4320376 28.5845588,24.6162348 C28.8512701,24.8004319 29.0100267,24.9115854 29.0608289,24.9496951 C29.3783422,25.1402439 29.7180816,25.3371443 30.0800468,25.5403963 C30.442012,25.7436484 30.845254,25.9659553 31.2897727,26.2073171 C31.7342914,26.4486789 32.0772059,26.6392276 32.318516,26.7789634 C33.2075535,27.2235772 33.6901738,27.5602134 33.766377,27.788872 C33.8044786,27.8777947 33.8235294,28.0111789 33.8235294,28.1890244 Z" id="Path" fill="#fff" fill-rule="nonzero"></path>
    </g>
</svg>