<?xml version="1.0" encoding="UTF-8"?>
<svg width="162px" height="48px" viewBox="0 0 162 48" version="1.1" xmlns="http://www.w3.org/2000/svg" xmlns:xlink="http://www.w3.org/1999/xlink">
    <title>appstore</title>
    <g id="Page-1" stroke="none" stroke-width="1" fill="none" fill-rule="evenodd">
        <g id="appstore" fill-rule="nonzero">
            <path d="M149.099331,0 L12.9079527,0 C12.411518,0 11.92104,0 11.4259184,0.00255599169 C11.0114557,0.00495598389 10.6002961,0.0119279612 10.1818532,0.0177959422 C9.2728019,0.0272780757 8.36588834,0.0981671929 7.46899383,0.229847253 C6.57335908,0.364393969 5.70578076,0.61805288 4.89560183,0.982244808 C4.08641378,1.34951767 3.34703552,1.8267511 2.70428993,2.39663221 C2.05817005,2.96491076 1.51957923,3.62176388 1.10922769,4.34193389 C0.697743601,5.0606705 0.412419206,5.830863 0.263109052,6.62591047 C0.112379367,7.41995377 0.0312703526,8.22315393 0.0205099158,9.02830266 C0.00794674625,9.39622146 0.00662003223,9.76536426 0,10.1333311 L0,37.8703529 C0.00662003223,38.2429517 0.00794674625,38.6039105 0.0205099158,38.9766293 C0.0312736523,39.7817381 0.112382668,40.5848982 0.263109052,41.3789015 C0.412006916,42.1744138 0.697348181,42.9450484 1.10922769,43.6640541 C1.51939291,44.3818952 2.05805946,45.0360891 2.70428993,45.6012078 C3.34459843,46.1736228 4.08445461,46.6511809 4.89560183,47.0156432 C5.7057746,47.3808099 6.57325939,47.6359786 7.46899383,47.7726007 C8.36604081,47.903226 9.27286111,47.9741439 10.1818532,47.98476 C10.6002961,47.99292 11.0114557,47.9976 11.4259184,47.9976 C11.9210264,48 12.4115451,48 12.9079527,48 L149.099331,48 C149.585883,48 150.080287,48 150.566839,47.9976 C150.979339,47.9976 151.402398,47.99292 151.814898,47.98476 C152.722171,47.9747085 153.627284,47.9037861 154.522477,47.7726007 C155.421101,47.6350168 156.291696,47.3799157 157.105779,47.0156432 C157.916195,46.6509699 158.655368,46.1734248 159.295128,45.6012078 C159.939691,45.0338758 160.479508,44.3801605 160.894766,43.6640541 C161.303555,42.9445253 161.58618,42.1739523 161.732897,41.3789015 C161.883865,40.5847892 161.967852,39.7818078 161.984161,38.9766293 C161.98944,38.6039105 161.98944,38.2429517 161.98944,37.8703529 C162,37.4343943 162,37.0008357 162,36.5577972 L162,11.4434748 C162,11.0040242 162,10.5680897 161.98944,10.1333311 C161.98944,9.76536426 161.98944,9.39622146 161.984161,9.02825466 C161.967855,8.22303621 161.883868,7.42001469 161.732897,6.62586247 C161.585771,5.83127497 161.303162,5.06114348 160.894766,4.34188589 C160.059104,2.89838188 158.733987,1.72338088 157.105779,0.982136808 C156.291694,0.618834845 155.421006,0.365243305 154.522477,0.229739253 C153.627439,0.097479023 152.722232,0.0265652315 151.814898,0.0176279427 C151.402398,0.0117719617 150.979339,0.0047399846 150.566839,0.0023999922 C150.080287,0 149.585883,0 149.099331,0 L149.099331,0 Z" id="Background-Gray" fill-opacity="0.271426328" fill="#FFFFFF"></path>
            <path d="M11.2740089,46.8998508 C10.8605964,46.8998508 10.4571705,46.8951708 10.0470009,46.8870109 C9.19730144,46.8772198 8.34958791,46.8118012 7.51081268,46.6912915 C6.7286971,46.5721657 5.97103734,46.35057 5.26282454,46.0338136 C4.56110568,45.7196819 3.92108166,45.3077834 3.36727097,44.8138976 C2.80544399,44.3258295 2.33769736,43.7597538 1.98256705,43.1381031 C1.6235235,42.5124121 1.375044,41.8417467 1.24578423,41.1494695 C1.10619491,40.4056098 1.0306713,39.6534503 1.01986464,38.8994768 C1.01126206,38.6463976 1,37.8037604 1,37.8037604 L1,10.0831785 C1,10.0831785 1.01199477,9.25348918 1.01993249,9.00973397 C1.03027977,8.25695487 1.10536421,7.50596257 1.24453591,6.76325727 C1.37403427,6.06908362 1.62270614,5.39648435 1.98194288,4.76874375 C2.33576801,4.14752239 2.8009178,3.58102396 3.35936039,3.0912092 C3.9171753,2.59674051 4.55924663,2.1827211 5.26215967,1.86424919 C5.96874479,1.54851054 6.72497267,1.32847799 7.5055073,1.21152331 C8.3470372,1.08980307 9.19769367,1.02399522 10.0503389,1.01465195 L11.2746738,1 L150.718691,1 L151.957653,1.01523995 C152.802543,1.02411896 153.645472,1.08933972 154.479269,1.21034732 C155.267705,1.32876901 156.031814,1.55033685 156.74647,1.86776518 C158.154659,2.50957835 159.300476,3.52498733 160.023322,4.77167174 C160.376825,5.39507879 160.621661,6.06219166 160.749521,6.75036931 C160.89035,7.49916853 160.969168,8.25606242 160.985346,9.01501395 C160.989281,9.35485285 160.989281,9.71989166 160.989281,10.0831785 C161,10.533177 161,10.9614916 161,11.3933222 L161,36.5076446 C161,36.9436032 161,37.3690018 160.989281,37.7978804 C160.989281,38.1881191 160.989281,38.545598 160.983989,38.9135168 C160.968161,39.6589252 160.890657,40.402309 160.752099,41.1377096 C160.625489,41.8349807 160.378362,42.5108809 160.019387,43.141703 C159.661746,43.7566064 159.196686,44.3177786 158.641345,44.8045376 C158.087036,45.3010776 157.445883,45.7153859 156.742535,46.0315336 C156.029859,46.350725 155.266874,46.5731402 154.479269,46.6912915 C153.640557,46.8124443 152.792762,46.8778671 151.942999,46.8870109 C151.54557,46.8951708 151.129417,46.8998508 150.72534,46.8998508 L149.254488,46.9022508 L11.2740089,46.8998508 Z" id="Background-Black" fill="#000000"></path>
            <g id="Group-85" transform="translate(21.000000, 10.000000)" fill="#FFFFFF">
                <path d="M38.8208808,22.4431071 L33.1372815,22.4431071 L31.7723724,26.470834 L29.3650257,26.470834 L34.7484391,11.5692824 L37.2495878,11.5692824 L42.6330012,26.470834 L40.1846012,26.470834 L38.8208808,22.4431071 Z M33.725922,20.5845171 L38.2311116,20.5845171 L36.0102044,14.0478143 L35.9480539,14.0478143 L33.725922,20.5845171 Z M54.2593442,21.0392076 C54.2593442,24.4153727 52.4511926,26.5844976 49.722551,26.5844976 C48.31214,26.6582309 46.98361,25.9199526 46.3020771,24.6837038 L46.2504451,24.6837038 L46.2504451,30.0649423 L44.0189834,30.0649423 L44.0189834,15.6064053 L46.1789529,15.6064053 L46.1789529,17.4134314 L46.2199943,17.4134314 C46.931805,16.1849329 48.2617676,15.4469724 49.6815096,15.4927296 C52.44059,15.4927416 54.2593442,17.6724146 54.2593442,21.0392076 Z M51.965732,21.0392076 C51.965732,18.8396148 50.8283037,17.3935115 49.0928571,17.3935115 C47.3878974,17.3935115 46.2410913,18.8700707 46.2410913,21.0392076 C46.2410913,23.2282645 47.3878974,24.6942757 49.0928571,24.6942757 C50.8283157,24.6942757 51.965732,23.2587324 51.965732,21.0392076 Z M66.224561,21.0392076 C66.224561,24.4153727 64.4164094,26.5844976 61.6877678,26.5844976 C60.2773568,26.6582309 58.9488268,25.9199526 58.2672939,24.6837038 L58.2156619,24.6837038 L58.2156619,30.0649423 L55.9842002,30.0649423 L55.9842002,15.6064053 L58.1441216,15.6064053 L58.1441216,17.4134314 L58.185163,17.4134314 C58.8969789,16.1849336 60.2269467,15.4469775 61.6466904,15.4927416 C64.4058549,15.4927416 66.224561,17.6724146 66.224561,21.0392076 Z M63.9309608,21.0392076 C63.9309608,18.8396148 62.7935205,17.3935115 61.0580739,17.3935115 C59.3531142,17.3935115 58.2063081,18.8700707 58.2063081,21.0392076 C58.2063081,23.2282645 59.3531142,24.6942757 61.0580739,24.6942757 C62.7935325,24.6942757 63.9309608,23.2587324 63.9309608,21.0392076 L63.9309608,21.0392076 Z M74.1325856,22.3188835 C74.297928,23.7966187 75.7343774,24.7668755 77.6972929,24.7668755 C79.5781495,24.7668755 80.9313273,23.7965707 80.9313273,22.464143 C80.9313273,21.3075028 80.115194,20.614949 78.1827534,20.1403265 L76.2503129,19.6750881 C73.5122935,19.0141542 72.2411865,17.7344664 72.2411865,15.6579091 C72.2411865,13.0868215 74.4832027,11.3208112 77.666806,11.3208112 C80.8175569,11.3208112 82.9775143,13.0868215 83.0502194,15.6579091 L80.7976246,15.6579091 C80.6627811,14.1708019 79.4327154,13.2731569 77.6351184,13.2731569 C75.8375213,13.2731569 74.6074676,14.1813619 74.6074676,15.5032296 C74.6074676,16.5567422 75.3931141,17.1766602 77.3150001,17.6512226 L78.9578094,18.0543493 C82.0171237,18.777395 83.2882307,20.005543 83.2882307,22.1851919 C83.2882307,24.9730708 81.0661468,26.7191612 77.5319265,26.7191612 C74.2251869,26.7191612 71.9925605,25.0140867 71.8483272,22.3187755 L74.1325856,22.3188835 Z M88.1041247,13.0353176 L88.1041247,15.6064053 L90.1714208,15.6064053 L90.1714208,17.3724155 L88.1041247,17.3724155 L88.1041247,23.3618481 C88.1041247,24.292313 88.518057,24.7259076 89.4268157,24.7259076 C89.6722374,24.7216308 89.917262,24.7044069 90.1608662,24.6743078 L90.1608662,26.4297701 C89.7522872,26.5060653 89.3370011,26.5406191 88.9214228,26.5328978 C86.72046,26.5328978 85.8621085,25.7067245 85.8621085,23.5996993 L85.8621085,17.3724155 L84.2814497,17.3724155 L84.2814497,15.6064053 L85.8620844,15.6064053 L85.8620844,13.0353176 L88.1041247,13.0353176 Z M91.3686941,21.0392076 C91.3686941,17.6208627 93.3832175,15.4728217 96.5246266,15.4728217 C99.6765783,15.4728217 101.681724,17.6208147 101.681724,21.0392076 C101.681724,24.4669365 99.6871329,26.6055935 96.5246266,26.6055935 C93.3632371,26.6055935 91.3686941,24.4669245 91.3686941,21.0392076 Z M99.408044,21.0392076 C99.408044,18.6942952 98.3327662,17.3103157 96.5246146,17.3103157 C94.716463,17.3103157 93.642362,18.7048432 93.642362,21.0392076 C93.642362,23.393492 94.716463,24.7669355 96.5246146,24.7669355 C98.3327662,24.7669355 99.408044,23.393492 99.408044,21.0392076 L99.408044,21.0392076 Z M103.521479,15.6064053 L105.649761,15.6064053 L105.649761,17.4555993 L105.701393,17.4555993 C105.998188,16.2651892 107.089611,15.4459077 108.316288,15.4927176 C108.573444,15.4918203 108.829891,15.5197305 109.080825,15.5759254 L109.080825,17.6618546 C108.756182,17.5627149 108.417522,17.5171966 108.078205,17.527095 C107.422176,17.5004977 106.787286,17.7617839 106.340238,18.2423479 C105.89319,18.7229118 105.678647,19.3747419 105.752941,20.0266869 L105.752941,26.47081 L103.521479,26.47081 L103.521479,15.6064053 Z M119.369192,23.2798163 C119.069006,25.2520699 117.147108,26.6055815 114.688165,26.6055815 C111.525659,26.6055815 109.562732,24.4880084 109.562732,21.0907595 C109.562732,17.6829625 111.536214,15.4728097 114.594363,15.4728097 C117.602082,15.4728097 119.493493,17.537643 119.493493,20.8317763 L119.493493,21.5958378 L111.815303,21.5958378 L111.815303,21.7305974 C111.743615,22.5394327 112.023081,23.3400675 112.582614,23.9288461 C113.142146,24.5176248 113.927816,24.8377992 114.739773,24.8079274 C115.822655,24.9093266 116.8436,24.2878943 117.250312,23.2798043 L119.369192,23.2798163 Z M111.825836,20.0372589 L117.260854,20.0372589 C117.30135,19.3104542 117.036623,18.5997273 116.530454,18.0762991 C116.024285,17.552871 115.322567,17.2642004 114.594363,17.2798358 C113.860399,17.2754585 113.155093,17.5642645 112.635213,18.0820611 C112.115333,18.5998578 111.823955,19.3037408 111.825836,20.0372589 L111.825836,20.0372589 Z" id="App-Store"></path>
                <path d="M33.4462568,0.352798853 C34.3935793,0.284860092 35.3214607,0.645054817 35.9745079,1.33424184 C36.6275551,2.02342887 36.9369333,2.9689641 36.8174883,3.91059529 C36.8174883,6.19808786 35.5803983,7.51298358 33.4462568,7.51298358 L30.8583304,7.51298358 L30.8583304,0.352798853 L33.4462568,0.352798853 Z M31.9711194,6.50037887 L33.3219559,6.50037887 C33.9989614,6.54082115 34.6581631,6.27425042 35.1165253,5.77468338 C35.5748875,5.27511635 35.7836116,4.59573836 35.6847429,3.92518724 C35.7764185,3.25741885 35.5646884,2.58364706 35.1074627,2.08815399 C34.650237,1.59266092 33.9953636,1.32729924 33.3219559,1.36464756 L31.9711194,1.36464756 L31.9711194,6.50037887 Z M38.0745106,4.80879237 C37.9817978,3.84025758 38.4465054,2.90292489 39.2737363,2.38990907 C40.1009672,1.87689326 41.1476957,1.87689326 41.9749266,2.38990907 C42.8021576,2.90292489 43.2668651,3.84025758 43.1741523,4.80879237 C43.2686291,5.77836794 42.8043457,6.71751863 41.9763813,7.23163886 C41.1484169,7.74575909 40.100246,7.74575909 39.2722816,7.23163886 C38.4443172,6.71751863 37.9800338,5.77836794 38.0745106,4.80879237 Z M42.0766007,4.80879237 C42.0766007,3.63751218 41.5500867,2.9525544 40.6260905,2.9525544 C39.6985642,2.9525544 39.1767931,3.63751218 39.1767931,4.80880437 C39.1767931,5.98946853 39.6986002,6.66914633 40.6260905,6.66914633 C41.5501107,6.66914633 42.0766007,5.98476455 42.0766007,4.80879237 L42.0766007,4.80879237 Z M49.9529617,7.51287558 L48.8460323,7.51287558 L47.7285484,3.53319652 L47.6441241,3.53319652 L46.531323,7.51287558 L45.4349362,7.51287558 L43.9445613,2.10937714 L45.0268755,2.10937714 L45.9954432,6.23256374 L46.0751846,6.23256374 L47.1868089,2.10937714 L48.2104908,2.10937714 L49.3221151,6.23256374 L49.4065394,6.23256374 L50.3704122,2.10937714 L51.4374769,2.10937714 L49.9529617,7.51287558 Z M52.6909811,2.10937714 L53.7181811,2.10937714 L53.7181811,2.96777035 L53.7979225,2.96777035 C54.075216,2.33576594 54.7231708,1.94916263 55.4114215,2.00507348 C55.9443317,1.96503174 56.4665459,2.16934083 56.8306172,2.56031416 C57.1946886,2.95128749 57.3611085,3.48649718 57.2828884,4.01482695 L57.2828884,7.51281558 L56.2158236,7.51281558 L56.2158236,4.28261808 C56.2158236,3.4142649 55.8382498,2.98242231 55.0490852,2.98242231 C54.6876204,2.9655973 54.3368284,3.10736898 54.088676,3.37056919 C53.8405237,3.63376939 53.7197601,3.99214824 53.7580458,4.35174986 L53.7580458,7.51287558 L52.6909811,7.51287558 L52.6909811,2.10937714 Z M58.9831652,0 L60.0502299,0 L60.0502299,7.51286358 L58.9831652,7.51286358 L58.9831652,0 Z M61.5335684,4.80879237 C61.4409267,3.84019422 61.9057076,2.9028378 62.7329999,2.38981408 C63.5602922,1.87679035 64.6070745,1.87679035 65.4343668,2.38981408 C66.2616592,2.9028378 66.72644,3.84019422 66.6337984,4.80879237 C66.7281552,5.77840265 66.2637867,6.7175268 65.4357812,7.23162439 C64.6077757,7.74572197 63.559591,7.74572197 62.7315855,7.23162439 C61.90358,6.7175268 61.4392115,5.77840265 61.5335684,4.80879237 L61.5335684,4.80879237 Z M65.5356584,4.80879237 C65.5356584,3.63751218 65.0091444,2.9525544 64.0851483,2.9525544 C63.157622,2.9525544 62.6358509,3.63751218 62.6358509,4.80880437 C62.6358509,5.98946853 63.157658,6.66914633 64.0851483,6.66914633 C65.0091564,6.66914633 65.5356584,5.98476455 65.5356584,4.80879237 L65.5356584,4.80879237 Z M67.757154,5.98476455 C67.757154,5.01210771 68.4818267,4.45137353 69.7681592,4.37168179 L71.232742,4.28731007 L71.232742,3.82090758 C71.232742,3.25020144 70.8551682,2.92794248 70.1258126,2.92794248 C69.5301358,2.92794248 69.1173802,3.14649777 68.9989389,3.52852853 L67.9658792,3.52852853 C68.0749307,2.60040355 68.9485197,2.00509748 70.1750551,2.00509748 C71.5305865,2.00509748 72.2951239,2.67949529 72.2951239,3.82090758 L72.2951239,7.51288758 L71.2679238,7.51288758 L71.2679238,6.75351805 L71.1834995,6.75351805 C70.8346218,7.30806785 70.2142037,7.63217107 69.5594459,7.60191529 C69.1004451,7.64962932 68.6426677,7.50106841 68.2992846,7.19295956 C67.9559016,6.8848507 67.7589624,6.44595102 67.757154,5.98476455 L67.757154,5.98476455 Z M71.232742,5.52304205 L71.232742,5.07129152 L69.9123925,5.15566324 C69.1677874,5.20546308 68.8300783,5.45859026 68.8300783,5.93495271 C68.8300783,6.42127513 69.2522117,6.70428221 69.8326991,6.70428221 C70.1763352,6.73904593 70.519376,6.63294851 70.7832922,6.41027787 C71.0472084,6.18760724 71.2094015,5.8674302 71.232742,5.52304205 Z M73.6975442,4.80879237 C73.6975442,3.10137792 74.5758281,2.01973744 75.9419019,2.01973744 C76.6317012,1.9879737 77.2777621,2.35735978 77.5999606,2.96773435 L77.679702,2.96773435 L77.679702,0 L78.7467667,0 L78.7467667,7.51286358 L77.7242615,7.51286358 L77.7242615,6.65915036 L77.6398373,6.65915036 C77.2932837,7.26446077 76.6392632,7.62760298 75.9419139,7.60191529 C74.5664502,7.60197529 73.6975442,6.52031081 73.6975442,4.80879237 Z M74.7998268,4.80879237 C74.7998268,5.95488465 75.3404015,6.64453441 76.2444773,6.64453441 C77.1438342,6.64453441 77.6996703,5.94493668 77.6996703,4.81348436 C77.6996703,3.68731202 77.1379985,2.97774232 76.2444773,2.97774232 C75.3462251,2.97774232 74.7997907,3.67207207 74.7997907,4.80879237 L74.7998268,4.80879237 Z M83.1616123,4.80879237 C83.0688995,3.84025758 83.5336071,2.90292489 84.360838,2.38990907 C85.1880689,1.87689326 86.2347974,1.87689326 87.0620283,2.38990907 C87.8892593,2.90292489 88.3539669,3.84025758 88.261254,4.80879237 C88.3557308,5.77836794 87.8914474,6.71751863 87.063483,7.23163886 C86.2355186,7.74575909 85.1873477,7.74575909 84.3593833,7.23163886 C83.5314189,6.71751863 83.0671355,5.77836794 83.1616123,4.80879237 L83.1616123,4.80879237 Z M87.1636904,4.80879237 C87.1636904,3.63751218 86.6371884,2.9525544 85.7131923,2.9525544 C84.7856659,2.9525544 84.2638949,3.63751218 84.2638949,4.80880437 C84.2638949,5.98946853 84.785702,6.66914633 85.7131923,6.66914633 C86.6372004,6.66914633 87.1636904,5.98476455 87.1636904,4.80879237 Z M89.6929965,2.10937714 L90.7201966,2.10937714 L90.7201966,2.96777035 L90.7999379,2.96777035 C91.0772315,2.33576594 91.7251863,1.94916263 92.413437,2.00507348 C92.9463471,1.96503174 93.4685614,2.16934083 93.8326327,2.56031416 C94.196704,2.95128749 94.3631239,3.48649718 94.2849038,4.01482695 L94.2849038,7.51281558 L93.2178391,7.51281558 L93.2178391,4.28261808 C93.2178391,3.4142649 92.8402653,2.98242231 92.0511007,2.98242231 C91.6896358,2.9655973 91.3388438,3.10736898 91.0906915,3.37056919 C90.8425392,3.63376939 90.7217756,3.99214824 90.7600613,4.35174986 L90.7600613,7.51287558 L89.6929965,7.51287558 L89.6929965,2.10937714 Z M100.314425,0.764073517 L100.314425,2.13398906 L101.485859,2.13398906 L101.485859,3.03223415 L100.314425,3.03223415 L100.314425,5.81074112 C100.314425,6.37675528 100.547778,6.62460247 101.078963,6.62460247 C101.214954,6.62416752 101.350808,6.61595009 101.485859,6.59999055 L101.485859,7.48826366 C101.294231,7.52252441 101.100079,7.54075154 100.905419,7.54275549 C99.7187484,7.54275549 99.2461838,7.12556484 99.2461838,6.08377623 L99.2461838,3.03218615 L98.3878443,3.03218615 L98.3878443,2.13394106 L99.2461838,2.13394106 L99.2461838,0.764073517 L100.314425,0.764073517 Z M102.943393,0 L104.00108,0 L104.00108,2.97773032 L104.085504,2.97773032 C104.376118,2.34019467 105.035413,1.9530987 105.734125,2.00976547 C106.264009,1.9809503 106.779154,2.18975734 107.139246,2.57931224 C107.499338,2.96886714 107.666872,3.49859539 107.596214,4.02421092 L107.596214,7.51287558 L106.528081,7.51287558 L106.528081,4.28728607 C106.528081,3.42420087 106.125832,2.98709029 105.371897,2.98709029 C105.000662,2.95666279 104.634915,3.0915391 104.372437,3.3556613 C104.109958,3.61978349 103.977512,3.98621942 104.010506,4.35700584 L104.010506,7.51287558 L102.943441,7.51287558 L102.943393,0 Z M113.818095,6.05389632 C113.518878,7.07314839 112.531917,7.73169852 111.47524,7.61716724 C110.75427,7.63618742 110.061378,7.33753299 109.580405,6.80044409 C109.099431,6.2633552 108.879,5.54212912 108.977597,4.82812431 C108.881619,4.11213521 109.101224,3.38975346 109.579519,2.84812709 C110.057814,2.30650072 110.747736,1.99892561 111.470545,2.00508548 C112.974993,2.00508548 113.882587,3.03228215 113.882587,4.72907663 L113.882587,5.10118342 L110.064595,5.10118342 L110.064595,5.16094323 C110.030808,5.56191009 110.167835,5.95851793 110.441977,6.25322852 C110.716119,6.5479391 111.101938,6.71340689 111.50455,6.7089382 C112.0266,6.77157161 112.534779,6.51277849 112.790895,6.05386032 L113.818095,6.05389632 Z M110.064571,4.31249798 L112.795554,4.31249798 C112.822754,3.9457797 112.693729,3.58463444 112.440274,3.31806013 C112.186819,3.05148582 111.832506,2.90427403 111.464649,2.91270253 C111.091809,2.90802124 110.732878,3.05401556 110.469277,3.31756788 C110.205676,3.5811202 110.059747,3.93989168 110.064595,4.31249798 L110.064571,4.31249798 Z" id="Download-on-the"></path>
                <path d="M17.7677768,14.2363697 C17.7940214,12.2006113 18.8619458,10.3201898 20.5974009,9.25391392 C19.497607,7.68419035 17.7215626,6.72463217 15.8050415,6.66470634 C13.788705,6.45319503 11.8339546,7.87049842 10.8064664,7.87049842 C9.75909385,7.87049842 8.1771143,6.68570627 6.47358348,6.72073416 C4.23218113,6.79310402 2.19324172,8.03580446 1.10275389,9.99416752 C-1.21948403,14.0122585 0.512696531,19.9174993 2.73720594,23.1654207 C3.85017508,24.7558355 5.15091649,26.5323698 6.85291036,26.46937 C8.51841363,26.4003342 9.14044679,25.4079974 11.1508516,25.4079974 C13.1425969,25.4079974 13.7261943,26.46937 15.4627215,26.4293141 C17.2498841,26.4003222 18.3758813,24.8318313 19.4498023,23.2263565 C20.2494688,22.0931278 20.8648109,20.8406634 21.2730352,19.5153566 C19.1504288,18.618157 17.7702542,16.5395875 17.7677768,14.2363697 L17.7677768,14.2363697 Z M14.4877898,4.52865328 C15.4622251,3.35960737 15.9422924,1.85699691 15.8260425,0.339922895 C14.3373221,0.496186972 12.9621614,1.20725569 11.9745617,2.33144842 C10.9993523,3.44061565 10.5053135,4.89170332 10.6012593,6.36510331 C12.1099417,6.38062738 13.5424038,5.70376532 14.4877898,4.52865328 L14.4877898,4.52865328 Z" id="Icon"></path>
            </g>
        </g>
    </g>
</svg>