<?xml version="1.0" encoding="UTF-8"?>
<svg width="24px" height="24px" viewBox="0 0 24 24" version="1.1" xmlns="http://www.w3.org/2000/svg" xmlns:xlink="http://www.w3.org/1999/xlink">
    <title>cart</title>
    <g id="cart" stroke="none" stroke-width="1" fill="none" fill-rule="evenodd">
        <g transform="translate(11.800407, 11.800153) scale(-1, 1) translate(-11.800407, -11.800153) translate(1.000000, 1.000000)" fill="#fff" fill-rule="nonzero" id="Shape-Copy-4" stroke="#fff" stroke-width="0.2">
            <path d="M4.32081592,15.8403074 C2.73023597,15.8403074 1.44081616,17.1297272 1.44081616,18.7203071 C1.44081616,20.3108871 2.73023597,21.6003069 4.32081592,21.6003069 C5.91139586,21.6003069 7.20081567,20.3108871 7.20081567,18.7203071 C7.20081567,17.1297272 5.91139586,15.8403074 4.32081592,15.8403074 Z M4.32081592,20.160307 C3.52552594,20.160307 2.88081604,19.5155971 2.88081604,18.7203071 C2.88081604,17.9250172 3.52552594,17.2803073 4.32081592,17.2803073 C5.11610589,17.2803073 5.76081579,17.9250172 5.76081579,18.7203071 C5.76081579,19.5155971 5.11610589,20.160307 4.32081592,20.160307 Z M14.400815,15.8403074 C12.8102351,15.8403074 11.5208153,17.1297272 11.5208153,18.7203071 C11.5208153,20.3108871 12.8102351,21.6003069 14.400815,21.6003069 C15.991395,21.6003069 17.2808148,20.3108871 17.2808148,18.7203071 C17.2808148,17.1297272 15.991395,15.8403074 14.400815,15.8403074 Z M14.400815,20.160307 C13.6055251,20.160307 12.9608152,19.5155971 12.9608152,18.7203071 C12.9608152,17.9250172 13.6055251,17.2803073 14.400815,17.2803073 C15.196105,17.2803073 15.8408149,17.9250172 15.8408149,18.7203071 C15.8408149,19.5155971 15.196105,20.160307 14.400815,20.160307 Z M20.8808145,0.000308745801 L18.7208147,0.000308745801 C18.3819127,-0.00956506322 18.0820419,0.218336765 18.0008147,0.547508699 L17.4392148,2.8803085 L0.720816225,2.8803085 C0.511503474,2.87848717 0.311759994,2.96784609 0.173616272,3.12510848 C0.0373310309,3.2839185 -0.0231151559,3.49416611 0.0080162866,3.70110843 L1.44801616,13.7811076 C1.49822848,14.1362347 1.80215669,14.4003429 2.1608161,14.4003429 L16.5608149,14.4003429 C16.9222059,14.4038644 17.2302351,14.1389592 17.2808148,13.7811076 L18.7208147,3.73710842 L19.2824146,1.44030862 L20.8808145,1.44030862 C21.2784595,1.44030862 21.6008144,1.11795367 21.6008144,0.720308684 C21.6008144,0.322663698 21.2784595,0.000308745801 20.8808145,0.000308745801 Z M15.9344149,12.9603076 L2.78721605,12.9603076 L1.54881615,4.32030837 L17.1728148,4.32030837 L15.9344149,12.9603076 Z"></path>
        </g>
    </g>
</svg>