<?xml version="1.0" encoding="UTF-8"?>
<svg width="21px" height="24px" viewBox="0 0 21 24" version="1.1" xmlns="http://www.w3.org/2000/svg" xmlns:xlink="http://www.w3.org/1999/xlink">
    <title>copy paste</title>
    <g id="copy-paste" stroke="none" stroke-width="1" fill="none" fill-rule="evenodd">
        <path d="M15,1 L3,1 C1.895,1 1,1.895 1,3 L1,17 L3,17 L3,3 L15,3 L15,1 Z M18,5 L7,5 C5.895,5 5,5.895 5,7 L5,21 C5,22.105 5.895,23 7,23 L18,23 C19.105,23 20,22.105 20,21 L20,7 C20,5.895 19.105,5 18,5 Z M18,21 L7,21 L7,7 L18,7 L18,21 Z" id="copy-icon" fill="#84BC42" fill-rule="nonzero"></path>
    </g>
</svg>