<?xml version="1.0" encoding="UTF-8"?>
<svg width="24px" height="24px" viewBox="0 0 24 24" version="1.1" xmlns="http://www.w3.org/2000/svg" xmlns:xlink="http://www.w3.org/1999/xlink">
    <title>profile</title>
    <g id="profile" stroke="none" stroke-width="1" fill="none" fill-rule="evenodd">
        <g id="4781818_account_avatar_face_man_people_icon" transform="translate(3.000000, 3.000000)">
            <g id="Layer_2" transform="translate(1.687500, 1.687500)" fill="#0FB3D4" fill-rule="nonzero">
                <path d="M7.3125,14.625 C3.27391777,14.625 0,11.3510822 0,7.3125 C0,3.27391777 3.27391777,0 7.3125,0 C11.3510822,0 14.625,3.27391777 14.625,7.3125 C14.625,9.25189558 13.8545781,11.1118586 12.4832183,12.4832183 C11.1118586,13.8545781 9.25189558,14.625 7.3125,14.625 Z M7.3125,1.125 C3.89523811,1.125 1.125,3.89523811 1.125,7.3125 C1.125,10.7297619 3.89523811,13.5 7.3125,13.5 C10.7297619,13.5 13.5,10.7297619 13.5,7.3125 C13.5,5.67147297 12.8481046,4.09765813 11.6877232,2.93727679 C10.5273419,1.77689545 8.95352703,1.125 7.3125,1.125 Z" id="Shape"></path>
                <path d="M7.3125,7.875 C5.75919914,7.875 4.5,6.61580086 4.5,5.0625 C4.5,3.50919914 5.75919914,2.25 7.3125,2.25 C8.86580086,2.25 10.125,3.50919914 10.125,5.0625 C10.125,6.61580086 8.86580086,7.875 7.3125,7.875 Z M7.3125,3.375 C6.38051948,3.375 5.625,4.13051948 5.625,5.0625 C5.625,5.99448052 6.38051948,6.75 7.3125,6.75 C8.24448052,6.75 9,5.99448052 9,5.0625 C9,4.13051948 8.24448052,3.375 7.3125,3.375 Z" id="Shape"></path>
                <path d="M12.684375,11.8125129 C12.5265139,11.8135682 12.3754694,11.7482517 12.268125,11.6325 C11.0610192,10.3158196 9.35751569,9.56505404 7.57125,9.5625 L7.05375,9.5625 C5.40686561,9.55894572 3.82323771,10.1964316 2.638125,11.34 C2.41099136,11.5274214 2.07775011,11.5079418 1.87400018,11.2953332 C1.67025025,11.0827245 1.66496236,10.7489563 1.861875,10.53 C3.25455617,9.18390643 5.11686813,8.43333216 7.05375,8.43748273 L7.57125,8.43748273 C9.67070094,8.44224613 11.6728942,9.32304805 13.095,10.8675 C13.2468695,11.0312514 13.2874768,11.2693401 13.1984716,11.474174 C13.1094664,11.679008 12.9077096,11.8117837 12.684375,11.8125129 Z" id="Path"></path>
            </g>
            <g id="frame">
                <rect id="Rectangle" x="0" y="0" width="18" height="18"></rect>
            </g>
        </g>
    </g>
</svg>