<?xml version="1.0" encoding="UTF-8"?>
<svg width="24px" height="24px" viewBox="0 0 24 24" version="1.1" xmlns="http://www.w3.org/2000/svg" xmlns:xlink="http://www.w3.org/1999/xlink">
    <title>tick</title>
    <g id="tick" stroke="none" stroke-width="1" fill="none" fill-rule="evenodd">
        <g id="tick-icon" transform="translate(1.000000, 1.000000)" fill="#84BC42" fill-rule="nonzero">
            <path d="M11,0 C4.92486775,0 0,4.92486775 0,11 C0,17.0751322 4.92486775,22 11,22 C17.0751322,22 22,17.0751322 22,11 C22,8.08261861 20.8410748,5.28472557 18.7781746,3.22182541 C16.7152744,1.15892524 13.9173814,0 11,0 L11,0 Z M16.707,8.707 L9.707,15.707 C9.31650015,16.0973819 8.68349985,16.0973819 8.293,15.707 L5.293,12.707 C4.91402779,12.3146211 4.91944763,11.6909152 5.30518142,11.3051814 C5.69091522,10.9194476 6.31462111,10.9140278 6.707,11.293 L9,13.586 L15.293,7.293 C15.6853789,6.91402779 16.3090848,6.91944763 16.6948186,7.30518142 C17.0805524,7.69091522 17.0859722,8.31462111 16.707,8.707 Z" id="Shape"></path>
        </g>
    </g>
</svg>