<?xml version="1.0" encoding="UTF-8"?>
<svg width="30px" height="30px" viewBox="0 0 30 30" version="1.1" xmlns="http://www.w3.org/2000/svg" xmlns:xlink="http://www.w3.org/1999/xlink">
    <title>Upcoming</title>
    <g id="Upcoming" stroke="none" stroke-width="1" fill="none" fill-rule="evenodd">
        <g id="Layer_2" transform="translate(3.000000, 2.000000)" fill="#7E67B0">
            <rect id="Rectangle" x="1.92307692" y="2.88461538" width="21.1538462" height="4.80769231"></rect>
            <path d="M20.1923077,25 L4.80769231,25 C2.15247716,25 0,22.8475228 0,20.1923077 L0,6.73076923 C0,4.07555409 2.15247716,1.92307692 4.80769231,1.92307692 L20.1923077,1.92307692 C22.8475228,1.92307692 25,4.07555409 25,6.73076923 L25,20.1923077 C25,22.8475228 22.8475228,25 20.1923077,25 Z M4.80769231,3.84615385 C3.21456322,3.84615385 1.92307692,5.13764014 1.92307692,6.73076923 L1.92307692,20.1923077 C1.92307692,21.7854368 3.21456322,23.0769231 4.80769231,23.0769231 L20.1923077,23.0769231 C21.7854368,23.0769231 23.0769231,21.7854368 23.0769231,20.1923077 L23.0769231,6.73076923 C23.0769231,5.13764014 21.7854368,3.84615385 20.1923077,3.84615385 L4.80769231,3.84615385 Z" id="Shape" fill-rule="nonzero"></path>
            <path d="M20.1923077,21.1538462 L16.3461538,21.1538462 C15.8151108,21.1538462 15.3846154,20.7233507 15.3846154,20.1923077 L15.3846154,16.3461538 C15.3846154,15.8151108 15.8151108,15.3846154 16.3461538,15.3846154 L20.1923077,15.3846154 C20.7233507,15.3846154 21.1538462,15.8151108 21.1538462,16.3461538 L21.1538462,20.1923077 C21.1538462,20.7233507 20.7233507,21.1538462 20.1923077,21.1538462 Z" id="Shape" fill-rule="nonzero"></path>
            <path d="M24.0384615,9.61538462 L0.961538462,9.61538462 C0.430495433,9.61538462 0,9.18488918 0,8.65384615 C0,8.12280313 0.430495433,7.69230769 0.961538462,7.69230769 L24.0384615,7.69230769 C24.5695046,7.69230769 25,8.12280313 25,8.65384615 C25,9.18488918 24.5695046,9.61538462 24.0384615,9.61538462 Z" id="Path" fill-rule="nonzero"></path>
            <path d="M7.69230769,5.76923077 C7.16126466,5.76923077 6.73076923,5.33873534 6.73076923,4.80769231 L6.73076923,0.961538462 C6.73076923,0.430495433 7.16126466,0 7.69230769,0 C8.22335072,0 8.65384615,0.430495433 8.65384615,0.961538462 L8.65384615,4.80769231 C8.65384615,5.33873534 8.22335072,5.76923077 7.69230769,5.76923077 Z" id="Path" fill-rule="nonzero"></path>
            <path d="M17.3076923,5.76923077 C16.7766493,5.76923077 16.3461538,5.33873534 16.3461538,4.80769231 L16.3461538,0.961538462 C16.3461538,0.430495433 16.7766493,0 17.3076923,0 C17.8387353,0 18.2692308,0.430495433 18.2692308,0.961538462 L18.2692308,4.80769231 C18.2692308,5.33873534 17.8387353,5.76923077 17.3076923,5.76923077 Z" id="Path" fill-rule="nonzero"></path>
        </g>
    </g>
</svg>