<?xml version="1.0" ?><!DOCTYPE svg  PUBLIC '-//W3C//DTD SVG 1.1//EN'  'http://www.w3.org/Graphics/SVG/1.1/DTD/svg11.dtd'><svg enable-background="new 0 0 100 100" height="100px" id="Your_Icon" version="1.1" viewBox="0 0 100 100" width="100px" xml:space="preserve" xmlns="http://www.w3.org/2000/svg" xmlns:xlink="http://www.w3.org/1999/xlink"><g><g><g><g/></g><g/></g></g><g><path d="M73.52,42.241h-2.188c-2.713-9.757-10.768-16.47-19.953-16.47c-7.75,0-14.917,4.903-18.508,12.576h-1.614   c-8.9,0-16.141,7.971-16.141,17.768s7.241,17.767,16.141,17.767H73.52c6.882,0,12.48-7.097,12.48-15.82S80.401,42.241,73.52,42.241   z" fill="#444A54"/><path d="M73.52,70.882H31.256c-7.246,0-13.141-6.624-13.141-14.767s5.895-14.768,13.141-14.768h2.589   c0.605,0,1.15-0.362,1.384-0.92c2.967-7.081,9.306-11.656,16.149-11.656c8.139,0,15.262,6.293,17.323,15.305   c0.156,0.682,0.763,1.165,1.462,1.165h3.355c5.228,0,9.48,5.751,9.48,12.82S78.747,70.882,73.52,70.882z" fill="#52C0E8"/><path d="M56.744,48.462l-8.982,8.981l-3.291-4c-0.525-0.639-1.471-0.732-2.111-0.205   c-0.639,0.527-0.73,1.473-0.205,2.111l4.342,5.275c0.268,0.327,0.662,0.525,1.085,0.545c0.024,0.002,0.049,0.002,0.073,0.002   c0.396,0,0.778-0.156,1.061-0.439l10.15-10.149c0.586-0.585,0.586-1.535,0-2.121S57.33,47.876,56.744,48.462z" fill="#444A54"/></g></svg>