<?xml version="1.0" encoding="UTF-8"?><svg version="1.1" width="26px" height="26px" viewBox="0 0 26.0 26.0" xmlns="http://www.w3.org/2000/svg" xmlns:xlink="http://www.w3.org/1999/xlink"><defs><clipPath id="i0"><path d="M26,0 L26,26 L0,26 L0,0 L26,0 Z"></path></clipPath></defs><g clip-path="url(#i0)"><g transform="translate(3.0 3.000000000000149)"><g transform="translate(2.0315900201239856e-05 0.0)"><polygon points="0,0 19.9999594,0 19.9999594,8.2173913 0,8.2173913 0,0 0,0" stroke="#0FB3D4" stroke-width="1.6" fill="none" stroke-linecap="round" stroke-linejoin="round"></polygon></g><g transform="translate(0.0 8.21739130434753)"><path d="M20,0 L0,0 L0,2.83956522 C-0.00305651627,3.30551296 0.343701057,3.69903377 0.804564136,3.7526087 L7.6227321,4.44195652 C7.88473787,4.48485881 8.11671463,4.63641412 8.26196694,4.85958212 C8.40721925,5.08275011 8.4523637,5.35696831 8.38636691,5.61521739 C8.18182188,6.84782609 7.72727734,9.87 7.72727734,10.5 C7.72727734,11.76065 8.74480994,12.7826087 10,12.7826087 C11.2551901,12.7826087 12.2727227,11.76065 12.2727227,10.5 C12.2727227,9.87 11.8181781,6.84782609 11.6136331,5.61065217 C11.5476363,5.3524031 11.5927807,5.0781849 11.7380331,4.8550169 C11.8832854,4.6318489 12.1152621,4.48029359 12.3772679,4.4373913 L19.1954359,3.74804348 C19.6562989,3.69446856 20.0030565,3.30094774 20,2.835 L20,0 Z" stroke="#0FB3D4" stroke-width="1.6" fill="none" stroke-linecap="round" stroke-linejoin="round"></path></g><g transform="translate(2.954559768020317 0.0)"><path d="M0.227272266,4.10869565 L0.227272266,0" stroke="#0FB3D4" stroke-width="1.6" fill="none" stroke-linecap="round" stroke-linejoin="round"></path></g><g transform="translate(4.772737892402347 0.0)"><path d="M0.227272266,4.10869565 L0.227272266,0" stroke="#0FB3D4" stroke-width="1.6" fill="none" stroke-linecap="round" stroke-linejoin="round"></path></g><g transform="translate(14.77271757650215 0.0)"><path d="M0.227272266,5.02173913 L0.227272266,0" stroke="#0FB3D4" stroke-width="1.6" fill="none" stroke-linecap="round" stroke-linejoin="round"></path></g></g></g></svg>