<?xml version="1.0" encoding="UTF-8"?><svg version="1.1" width="26px" height="26px" viewBox="0 0 26.0 26.0" xmlns="http://www.w3.org/2000/svg" xmlns:xlink="http://www.w3.org/1999/xlink"><defs><clipPath id="i0"><path d="M26,0 L26,26 L0,26 L0,0 L26,0 Z"></path></clipPath><clipPath id="i1"><path d="M17.0625,0 C19.3061568,0 21.125,1.8188432 21.125,4.0625 L21.125,12.1875 C21.125,14.4311568 19.3061568,16.25 17.0625,16.25 L4.0625,16.25 C1.8188432,16.25 0,14.4311568 0,12.1875 L0,0.8125 C0,0.363768641 0.363768641,0 0.8125,0 L17.0625,0 Z M17.0625,1.625 L1.625,1.625 L1.625,12.1875 C1.625,13.5336941 2.71630592,14.625 4.0625,14.625 L17.0625,14.625 C18.4086941,14.625 19.5,13.5336941 19.5,12.1875 L19.5,4.0625 C19.5,2.71630592 18.4086941,1.625 17.0625,1.625 Z"></path></clipPath><clipPath id="i2"><path d="M18.2569658,0.673591678 C19.0726508,1.36586974 19.5299369,2.39102757 19.5000908,3.46046668 L19.5000908,5.69484168 C19.5000908,6.14357304 19.1363222,6.50734168 18.6875908,6.50734168 C18.2388595,6.50734168 17.8750908,6.14357304 17.8750908,5.69484168 L17.8750908,3.46046668 C17.9066294,2.88385756 17.6732662,2.32438432 17.2413408,1.94109168 C16.8531448,1.65026982 16.3526701,1.55437048 15.8844658,1.68109168 L2.25884085,4.77671668 C1.88090437,4.86182942 1.61562552,5.20193052 1.62509085,5.58921668 C1.62509085,6.03794804 1.26132221,6.40171668 0.812590846,6.40171668 C0.363859487,6.40171668 0,6.03794804 0,5.58921668 C-0.00973067581,4.44492792 0.777778643,3.44786677 1.89321585,3.19234168 L15.5269658,0.0967166778 C16.4772098,-0.143559457 17.4851597,0.0694299567 18.2569658,0.673591678 Z"></path></clipPath><clipPath id="i3"><path d="M8.9375,0 C9.38623136,0 9.75,0.363768641 9.75,0.8125 L9.75,5.6875 C9.75,6.13623136 9.38623136,6.5 8.9375,6.5 L3.25,6.5 C1.45507456,6.5 0,5.04492544 0,3.25 C0,1.45507456 1.45507456,0 3.25,0 L8.9375,0 Z M8.125,1.625 L3.25,1.625 C2.35253728,1.625 1.625,2.35253728 1.625,3.25 C1.625,4.14746272 2.35253728,4.875 3.25,4.875 L8.125,4.875 L8.125,1.625 Z"></path></clipPath></defs><g clip-path="url(#i0)"><g transform="translate(2.4374091538975335 2.4301583221567853)"><g transform="translate(9.084610246645752e-05 4.882341677843215)"><g clip-path="url(#i1)"><polygon points="0,0 21.125,0 21.125,16.25 0,16.25 0,0" stroke="none" fill="#0FB3D4"></polygon></g></g><g clip-path="url(#i2)"><polygon points="-8.91824408e-05,-1.2490009e-16 19.501466,-1.2490009e-16 19.501466,6.50734168 -8.91824408e-05,6.50734168 -8.91824408e-05,-1.2490009e-16" stroke="none" fill="#0FB3D4"></polygon></g><g transform="translate(11.375090846102466 9.757341677843215)"><g clip-path="url(#i3)"><polygon points="0,0 9.75,0 9.75,6.5 0,6.5 0,0" stroke="none" fill="#0FB3D4"></polygon></g></g></g></g></svg>