<?xml version="1.0" encoding="UTF-8"?><svg version="1.1" width="26px" height="26px" viewBox="0 0 26.0 26.0" xmlns="http://www.w3.org/2000/svg" xmlns:xlink="http://www.w3.org/1999/xlink"><defs><clipPath id="i0"><path d="M26,0 L26,26 L0,26 L0,0 L26,0 Z"></path></clipPath><clipPath id="i1"><path d="M9.19792384,0 C9.77123844,0.0171445313 10.4152029,0.144834375 11.130783,0.447972689 C11.130783,0.447972689 12.8651444,1.1337047 13.9140567,1.1337047 C13.9832233,1.1337047 14.0493063,1.1308172 14.1118061,1.12440233 C14.1292227,1.12264691 14.1467232,1.121843 14.1642237,1.121843 C14.3283555,1.121843 14.4881056,1.19937894 14.5302553,1.35671481 C14.6691709,1.87454536 14.8417039,2.95215713 14.2560062,3.91843602 C14.3046727,4.1864811 14.3333235,4.46125312 14.3333235,4.7430797 C14.3333235,5.23877822 14.2617066,5.73706868 14.1287395,6.21450682 C13.7797747,7.46723888 13.1484267,8.75266905 12.2462462,9.74729795 C12.4356288,10.3894545 12.9140614,11.3813603 14.087724,11.5877177 C14.087724,11.5877177 18.6824246,12.3107745 18.9067064,15.7525597 C18.9067064,15.7525597 19.1044736,17.7712988 18.9241233,19.693751 C18.8565742,20.4155273 18.1918756,21 17.4514798,21 L1.59264999,21 C0.852252376,21 0.17077143,20.4176114 0.0928050979,19.6967863 C-0.0534259134,18.346043 0.00216667596,17.1326123 0.0634054954,16.4190618 L0.0849341999,16.1885672 C0.113099888,15.9104903 0.137404878,15.7525597 0.137404878,15.7525597 C0.361520743,12.3107745 4.95640511,11.5877176 4.95640511,11.5877176 C5.99635224,11.4049035 6.49033285,10.6049348 6.72136539,9.97801896 C6.68531535,9.94067832 6.64926595,9.90335396 6.61459937,9.86425781 C5.42808636,8.53092206 4.66669002,6.5073915 4.66669002,4.7430797 C4.66669002,4.64518351 4.67197272,4.54856715 4.67800565,4.45211479 C4.615256,3.27852661 4.79412209,1.93798828 5.85133511,1.58968358 L5.8719909,1.56153468 C6.03020053,1.35172218 7.09550356,0.0389143125 9.00782415,0.00191953125 L9.19792384,0 Z M13.5562253,12.1290918 L11.6739813,14.7784386 C11.5759325,14.9865684 11.4207321,15.09375 11.2558665,15.09375 C11.1239509,15.09375 10.9859178,15.025172 10.8660515,14.8848329 L10.5398019,14.3573889 L10.312504,14.765625 L10.3012697,14.765625 L11.1445337,18.1051991 C11.22135,18.3956718 11.0930176,18.7574462 10.8451344,18.9432957 L10.048271,19.540418 C9.91700516,19.6386262 9.75243841,19.687664 9.58797212,19.687664 C9.42342254,19.6878279 9.25895687,19.6386262 9.1277737,19.540418 L8.3309097,18.9434434 C8.0831784,18.7575938 7.95102821,18.4080098 8.0165276,18.1117617 L8.72200956,14.7587344 L8.4763261,14.3314336 L8.13396074,14.8848329 C8.01409447,15.025172 7.8760614,15.09375 7.74414517,15.09375 C7.57927896,15.09375 7.4240798,14.9865684 7.32603035,14.7784386 L5.45160326,12.1401494 C5.33180374,12.1774737 5.2072206,12.2101543 5.07367106,12.2337138 L5.04924407,12.2379133 C4.80093899,12.2815762 0.984507681,13.0028829 0.802685946,15.7945429 L0.800902585,15.8228926 L0.79658595,15.8509306 C0.793985926,15.8675995 0.536170177,17.5990664 0.75573609,19.6272558 C0.796986015,20.0088984 1.18810129,20.34375 1.59264999,20.34375 L17.4514794,20.34375 C17.8468943,20.34375 18.2249092,20.0119337 18.2602255,19.6335068 C18.4328413,17.7938907 18.2450088,15.8350829 18.2431434,15.8155263 L18.2420753,15.8051085 L18.2414255,15.7945429 C18.053359,12.90934 14.0231897,12.2421965 13.9824908,12.2357978 L13.9704568,12.2337137 C13.8235571,12.2079238 13.6865909,12.1717146 13.5562253,12.1290918 Z M9.6142553,14.765625 L9.40137303,14.765625 L8.66862559,18.2481142 C8.65877544,18.2929687 8.69239171,18.3894208 8.73479193,18.421299 L9.53150717,19.0181084 C9.55477292,19.0355809 9.62142181,19.0354169 9.6445388,19.0181084 L10.4412521,18.4211513 C10.4790861,18.3927841 10.5081362,18.3036983 10.498452,18.2670136 L9.6142553,14.765625 Z M12.3006958,11.4077911 L10.5283185,12.8635341 C10.4864854,12.9349823 10.490403,13.0530587 10.5415033,13.1129912 L11.245516,14.2364248 L12.891027,11.9203225 L12.6766787,11.7836584 L12.6034291,11.7368837 L12.5447618,11.6732762 L12.3006958,11.4077911 Z M6.69931587,11.4077911 L6.45524984,11.6732762 L6.39658317,11.7368837 L6.32333361,11.7836584 L6.10898396,11.9203225 L7.75449503,14.2364248 L8.45851025,13.1129912 C8.50960921,13.0530587 8.51352626,12.9349823 8.47169252,12.8635342 L6.69931587,11.4077911 Z M9.8897378,13.2890625 L9.11027385,13.2890625 C9.07740716,13.3778204 9.03142432,13.4619357 8.96892453,13.5351563 L8.87337496,13.6896045 L9.11467471,14.109375 L9.91765493,14.109375 L10.1396543,13.7105879 L10.0310871,13.5351563 C9.96858733,13.4619357 9.92260386,13.3778204 9.8897378,13.2890625 Z M11.7188331,10.2652761 C11.6621151,10.3147901 11.6054658,10.3646158 11.5470324,10.4118818 C10.9193516,10.9199345 10.1779041,11.15625 9.43473943,11.15625 C8.6679752,11.15625 7.89999471,10.9037413 7.25343053,10.4389522 C7.19564698,10.5708098 7.12826376,10.7057177 7.0489978,10.840299 L8.95314128,12.4043389 C9.01417496,12.4719493 9.05982402,12.5501416 9.09465717,12.6328125 L9.90535512,12.6328125 C9.94018826,12.5501416 9.98583859,12.4719493 10.0468875,12.4043389 L11.9811142,10.8154754 C11.8733647,10.6292979 11.7869481,10.4423155 11.7188331,10.2652761 Z M7.51718034,4.56843498 C7.33122975,4.56827106 6.6752325,4.98115068 6.57504936,5.04347803 C6.22495036,5.26122209 5.9277515,5.55728923 5.76791878,5.93748735 C5.71698575,6.05861476 5.61802013,6.3058244 5.59271923,6.52468371 C5.89113497,7.60647896 6.43011679,8.6610235 7.1160644,9.43183825 C7.72014506,10.1106795 8.56527563,10.5 9.43473943,10.5 C10.0586037,10.5 10.64267,10.2942823 11.1236165,9.90494549 C12.178547,9.05131155 13.0395441,7.6429991 13.4858266,6.04099461 C13.605792,5.61016657 13.6666591,5.17341551 13.6666591,4.7430797 C13.6666591,4.6994884 13.662908,4.65655298 13.661208,4.6131422 C13.3643264,4.86691419 12.9859949,5.09699528 12.5056117,5.28637243 C12.5056117,5.28637243 11.5930985,5.64333966 10.4426356,5.64333966 C9.51742206,5.64333966 8.4384927,5.41261864 7.55599603,4.57965711 C7.54769591,4.57196261 7.53442907,4.56843498 7.51718034,4.56843498 Z M9.08969045,0.65625 L8.85772034,0.663812753 C7.27137945,0.767921302 6.43553194,1.91270334 6.39910025,1.96363118 C6.31731659,2.07834378 6.19793414,2.16757729 6.06300113,2.21195623 C5.2603547,2.4764742 5.24448752,3.99902344 5.41896989,5.216843 C5.62273571,4.93821574 5.8931682,4.6913181 6.21893396,4.48865168 L6.22966721,4.48192505 C7.0739808,3.95561252 7.3204965,3.91202121 7.51726299,3.91218519 C7.70492893,3.91218519 7.88102811,3.97948364 8.01311091,4.1018909 C8.63689187,4.69067816 9.45288905,4.98708984 10.4426356,4.98708984 C11.4408329,4.98708984 12.2530135,4.67898075 12.2610625,4.67594538 C14.0156239,3.98443835 14.1118061,2.66409614 13.9464408,1.78979058 L13.9140567,1.7899547 C12.7692776,1.7899547 11.0720165,1.13193286 10.8823173,1.05695625 C10.8772845,1.05487264 10.8722339,1.05295316 10.8671845,1.0507055 C10.2493532,0.788910921 9.65128826,0.65625 9.08969045,0.65625 Z"></path></clipPath></defs><g clip-path="url(#i0)"><g transform="translate(4.0 3.0)"><g clip-path="url(#i1)"><polygon points="-2.77555756e-17,0 19,0 19,21 -2.77555756e-17,21 -2.77555756e-17,0" stroke="none" fill="#0FB3D4"></polygon></g><path d="M18.9067064,15.7525597 C18.6824246,12.3107745 14.087724,11.5877177 14.087724,11.5877177 C12.9140614,11.3813603 12.4356288,10.3894545 12.2462462,9.74729795 C13.1484267,8.75266905 13.7797747,7.46723888 14.1287395,6.21450682 C14.2617066,5.73706868 14.3333235,5.23877822 14.3333235,4.7430797 C14.3333235,4.46125312 14.3046727,4.1864811 14.2560062,3.91843602 C14.8417039,2.95215713 14.6691709,1.87454536 14.5302553,1.35671481 C14.4881056,1.19937894 14.3283555,1.121843 14.1642237,1.121843 C14.1467232,1.121843 14.1292227,1.12264691 14.1118061,1.12440233 C14.0493063,1.1308172 13.9832233,1.1337047 13.9140567,1.1337047 C12.8651444,1.1337047 11.130783,0.447972689 11.130783,0.447972689 C10.4152029,0.144834375 9.77123844,0.0171445313 9.19792384,0.0028875 L9.19792384,0 L9.08969045,0 L9.08944058,0 L9.00782415,0 L9.00782415,0.00191953125 C6.92921481,0.04213125 5.85133511,1.58968358 5.85133511,1.58968358 C4.79412209,1.93798828 4.615256,3.27852661 4.67800565,4.45211479 C4.67197272,4.54856715 4.66669002,4.64518351 4.66669002,4.7430797 C4.66669002,6.5073915 5.42808636,8.53092206 6.61459937,9.86425781 C6.64926595,9.90335396 6.68531535,9.94067832 6.72136539,9.97801896 C6.49033285,10.6049348 5.99635224,11.4049035 4.95640511,11.5877176 C4.95640511,11.5877176 0.361520743,12.3107745 0.137404878,15.7525597 C0.137404878,15.7525597 -0.139444155,17.5514882 0.0928050979,19.6967863 C0.17077143,20.4176114 0.852252376,21 1.59264999,21 L17.4514798,21 C18.1918756,21 18.8565742,20.4155273 18.9241233,19.693751 C19.1044736,17.7712988 18.9067064,15.7525597 18.9067064,15.7525597 Z M12.3006958,11.4077911 L12.5447618,11.6732762 L12.6034291,11.7368837 L12.6766787,11.7836584 L12.891027,11.9203225 L11.245516,14.2364248 L10.5415033,13.1129912 C10.490403,13.0530587 10.4864854,12.9349823 10.5283185,12.8635341 L12.3006958,11.4077911 Z M9.91765493,14.109375 L9.11467471,14.109375 L8.87337496,13.6896045 L8.96892453,13.5351563 C9.03142432,13.4619357 9.07740716,13.3778204 9.11027385,13.2890625 L9.8897378,13.2890625 C9.92260386,13.3778204 9.96858733,13.4619357 10.0310871,13.5351563 L10.1396543,13.7105879 L9.91765493,14.109375 Z M10.498452,18.2670136 C10.5081362,18.3036983 10.4790861,18.3927841 10.4412521,18.4211513 L9.6445388,19.0181084 C9.62142181,19.0354169 9.55477292,19.0355809 9.53150717,19.0181084 L8.73479193,18.421299 C8.69239171,18.3894208 8.65877544,18.2929687 8.66862559,18.2481142 L9.40137303,14.765625 L9.6142553,14.765625 L10.498452,18.2670136 Z M10.0468875,12.4043389 C9.98583859,12.4719493 9.94018826,12.5501416 9.90535512,12.6328125 L9.09465717,12.6328125 C9.05982402,12.5501416 9.01417496,12.4719493 8.95314128,12.4043389 L7.0489978,10.840299 C7.12826376,10.7057177 7.19564698,10.5708098 7.25343053,10.4389522 C7.89999471,10.9037413 8.6679752,11.15625 9.43473943,11.15625 C10.1779041,11.15625 10.9193516,10.9199345 11.5470324,10.4118818 C11.6054658,10.3646158 11.6621151,10.3147901 11.7188331,10.2652761 C11.7869481,10.4423155 11.8733647,10.6292979 11.9811142,10.8154754 L10.0468875,12.4043389 Z M6.06300113,2.21195623 C6.19793414,2.16757729 6.31731659,2.07834378 6.39910025,1.96363118 C6.43726678,1.91027821 7.35279671,0.656414046 9.08944058,0.65625 L9.08944058,0.649999219 L9.08969045,0.649999219 L9.08969045,0.65625 C9.65128826,0.65625 10.2493532,0.788910921 10.8671845,1.0507055 C10.8722339,1.05295316 10.8772845,1.05487264 10.8823173,1.05695625 C11.0720165,1.13193286 12.7692776,1.7899547 13.9140567,1.7899547 C13.9248739,1.7899547 13.9357076,1.7899547 13.9464408,1.78979058 C14.1118061,2.66409614 14.0156239,3.98443835 12.2610625,4.67594538 C12.2530135,4.67898075 11.4408329,4.98708984 10.4426356,4.98708984 C9.45288905,4.98708984 8.63689187,4.69067816 8.01311091,4.1018909 C7.88102811,3.97948364 7.70492893,3.91218519 7.51726299,3.91218519 C7.3204965,3.91202121 7.0739808,3.95561252 6.22966721,4.48192505 L6.21893396,4.48865168 C5.8931682,4.6913181 5.62273571,4.93821574 5.41896989,5.216843 C5.24448752,3.99902344 5.2603547,2.4764742 6.06300113,2.21195623 Z M5.59271923,6.52468371 C5.61802013,6.3058244 5.71698575,6.05861476 5.76791878,5.93748735 C5.9277515,5.55728923 6.22495036,5.26122209 6.57504936,5.04347803 C6.6752325,4.98115068 7.33122975,4.56827106 7.51718034,4.56843498 C7.53442907,4.56843498 7.54769591,4.57196261 7.55599603,4.57965711 C8.4384927,5.41261864 9.51742206,5.64333966 10.4426356,5.64333966 C11.5930985,5.64333966 12.5056117,5.28637243 12.5056117,5.28637243 C12.9859949,5.09699528 13.3643264,4.86691419 13.661208,4.6131422 C13.662908,4.65655298 13.6666591,4.6994884 13.6666591,4.7430797 C13.6666591,5.17341551 13.605792,5.61016657 13.4858266,6.04099461 C13.0395441,7.6429991 12.178547,9.05131155 11.1236165,9.90494549 C10.64267,10.2942823 10.0586037,10.5 9.43473943,10.5 C8.56527563,10.5 7.72014506,10.1106795 7.1160644,9.43183825 C6.43011679,8.6610235 5.89113497,7.60647896 5.59271923,6.52468371 Z M6.32333361,11.7836584 L6.39658317,11.7368837 L6.45524984,11.6732762 L6.69931587,11.4077911 L8.47169252,12.8635342 C8.51352626,12.9349823 8.50960921,13.0530587 8.45851025,13.1129912 L7.75449503,14.2364248 L6.10898396,11.9203225 L6.32333361,11.7836584 Z M18.2602255,19.6335068 C18.2249092,20.0119337 17.8468943,20.34375 17.4514794,20.34375 L1.59264999,20.34375 C1.18810129,20.34375 0.796986015,20.0088984 0.75573609,19.6272558 C0.536170177,17.5990664 0.793985926,15.8675995 0.79658595,15.8509306 L0.800902585,15.8228926 L0.802685946,15.7945429 C0.989702588,12.9231212 5.0219878,12.2420488 5.0616211,12.2357978 L5.06765466,12.2348303 L5.07367106,12.2337138 C5.2072206,12.2101543 5.33180374,12.1774737 5.45160326,12.1401494 L7.32603035,14.7784386 C7.4240798,14.9865684 7.57927896,15.09375 7.74414517,15.09375 C7.8760614,15.09375 8.01409447,15.025172 8.13396074,14.8848329 L8.4763261,14.3314336 L8.72200956,14.7587344 L8.0165276,18.1117617 C7.95102821,18.4080098 8.0831784,18.7575938 8.3309097,18.9434434 L9.1277737,19.540418 C9.25895687,19.6386262 9.42342254,19.6878279 9.58797212,19.687664 C9.75243841,19.687664 9.91700516,19.6386262 10.048271,19.540418 L10.8451344,18.9432957 C11.0930176,18.7574462 11.22135,18.3956718 11.1445337,18.1051991 L10.3012697,14.765625 L10.312504,14.765625 L10.5398019,14.3573889 L10.8660515,14.8848329 C10.9859178,15.025172 11.1239509,15.09375 11.2558665,15.09375 C11.4207321,15.09375 11.5759325,14.9865684 11.6739813,14.7784386 L13.5562253,12.1290918 C13.6865909,12.1717146 13.8235571,12.2079238 13.9704568,12.2337137 L13.9764738,12.2348302 L13.9824908,12.2357978 C14.0231897,12.2421965 18.053359,12.90934 18.2414255,15.7945429 L18.2420753,15.8051085 L18.2431434,15.8155263 C18.2450088,15.8350829 18.4328413,17.7938907 18.2602255,19.6335068 Z" stroke="#0FB3D4" stroke-width="0.5" fill="none" stroke-miterlimit="10"></path></g></g></svg>