<?xml version="1.0" encoding="UTF-8"?><svg version="1.1" width="26px" height="26px" viewBox="0 0 26.0 26.0" xmlns="http://www.w3.org/2000/svg" xmlns:xlink="http://www.w3.org/1999/xlink"><defs><clipPath id="i0"><path d="M26,0 L26,26 L0,26 L0,0 L26,0 Z"></path></clipPath><clipPath id="i1"><path d="M10.12,0 C10.374051,0 10.58,0.205949015 10.58,0.46 L10.58,9.66 L19.78,9.66 C20.034051,9.66 20.24,9.86594902 20.24,10.12 C20.24,15.7091217 15.7091217,20.24 10.12,20.24 C4.53087833,20.24 0,15.7091217 0,10.12 C0,4.53087833 4.53087833,0 10.12,0 Z M9.66,0.92 C4.70805313,1.17445739 0.848616976,5.30755924 0.933469236,10.2653134 C1.0183215,15.2230676 5.0169324,19.2216785 9.97468658,19.3065308 C14.9324408,19.391383 19.0655426,15.5319469 19.32,10.58 L10.12,10.58 C9.86594902,10.58 9.66,10.374051 9.66,10.12 L9.66,0.92 Z"></path></clipPath><clipPath id="i2"><path d="M0.46,0 C6.04912167,0 10.58,4.53087833 10.58,10.12 C10.58,10.374051 10.374051,10.58 10.12,10.58 L0.46,10.58 C0.205949015,10.58 0,10.374051 0,10.12 L0,0.46 C0,0.205949015 0.205949015,0 0.46,0 Z M0.92,0.92 L0.92,9.66 L9.66,9.66 C9.42896134,4.93203544 5.64796456,1.15103866 0.92,0.92 Z"></path></clipPath></defs><g clip-path="url(#i0)"><g transform="translate(1.9999999999999805 2.0000000000000853)"><g transform="translate(0.0 2.7599999999997635)"><g clip-path="url(#i1)"><polygon points="0,0 20.24,0 20.24,20.24 0,20.24 0,0" stroke="none" fill="#8F8F8F"></polygon></g><path d="M10.12,20.24 C4.53087833,20.24 0,15.7091217 0,10.12 C0,4.53087833 4.53087833,0 10.12,0 C10.374051,0 10.58,0.205949015 10.58,0.46 L10.58,9.66 L19.78,9.66 C20.034051,9.66 20.24,9.86594902 20.24,10.12 C20.24,15.7091217 15.7091217,20.24 10.12,20.24 Z M9.66,0.92 C4.70805313,1.17445739 0.848616976,5.30755924 0.933469236,10.2653134 C1.0183215,15.2230676 5.0169324,19.2216785 9.97468658,19.3065308 C14.9324408,19.391383 19.0655426,15.5319469 19.32,10.58 L10.12,10.58 C9.86594902,10.58 9.66,10.374051 9.66,10.12 L9.66,0.92 Z" stroke="#8F8F8F" stroke-width="0.6" fill="none" stroke-miterlimit="10"></path></g><g transform="translate(12.420000000000071 0.0)"><g clip-path="url(#i2)"><polygon points="0,0 10.58,0 10.58,10.58 0,10.58 0,0" stroke="none" fill="#8F8F8F"></polygon></g><path d="M10.12,10.58 L0.46,10.58 C0.205949015,10.58 0,10.374051 0,10.12 L0,0.46 C0,0.205949015 0.205949015,0 0.46,0 C6.04912167,0 10.58,4.53087833 10.58,10.12 C10.58,10.374051 10.374051,10.58 10.12,10.58 Z M0.92,9.66 L9.66,9.66 C9.42896134,4.93203544 5.64796456,1.15103866 0.92,0.92 L0.92,9.66 Z" stroke="#8F8F8F" stroke-width="0.6" fill="none" stroke-miterlimit="10"></path></g></g></g></svg>