<?xml version="1.0" encoding="UTF-8"?><svg version="1.1" width="26px" height="26px" viewBox="0 0 26.0 26.0" xmlns="http://www.w3.org/2000/svg" xmlns:xlink="http://www.w3.org/1999/xlink"><defs><clipPath id="i0"><path d="M26,0 L26,26 L0,26 L0,0 L26,0 Z"></path></clipPath></defs><g clip-path="url(#i0)"><g transform="translate(1.0 1.0)"><g transform="translate(20.85699838846267 16.67478260869575)"><path d="M0.521424931,1.04347826 C0.809399969,1.04347826 1.04284986,0.809887696 1.04284986,0.52173913 C1.04284986,0.233590565 0.809399969,0 0.521424931,0 C0.233449894,0 0,0.233590565 0,0.52173913 C0,0.809887696 0.233449894,1.04347826 0.521424931,1.04347826 Z" stroke="#0FB3D4" stroke-width="1.5" fill="none" stroke-linecap="round" stroke-linejoin="round"></path></g><g transform="translate(14.599899212227683 14.60866250473191)"><path d="M6.25709918,0 C5.19687231,0.0022445753 4.20990766,0.5415925 3.63498504,1.43294345 C3.06006242,2.3242944 2.97542279,3.44634484 3.41011905,4.41394619 L0,7.8261201 L0,9.3913375 L1.56427479,9.3913375 L4.97439385,5.97916358 C6.13951788,6.51029396 7.51048622,6.27746471 8.43522305,5.39141679 C9.35995987,4.50536887 9.65181186,3.14494642 9.171965,1.95720932 C8.69211814,0.769472226 7.53742701,-0.00584098011 6.25709918,0 Z" stroke="#0FB3D4" stroke-width="1.5" fill="none" stroke-linecap="round" stroke-linejoin="round"></path></g><g transform="translate(5.214250447874293 0.0)"><path d="M5.73567424,11.4782609 C8.90339966,11.4782609 11.4713485,8.90876465 11.4713485,5.73913043 C11.4713485,2.56949622 8.90339966,0 5.73567424,0 C2.56794883,0 0,2.56949622 0,5.73913043 C0,8.90876465 2.56794883,11.4782609 5.73567424,11.4782609 Z" stroke="#0FB3D4" stroke-width="1.5" fill="none" stroke-linecap="round" stroke-linejoin="round"></path></g><g transform="translate(0.0 13.565217391304031)"><path d="M18.7295847,1.86782609 C16.2988856,0.69798082 13.6464876,0.0611640034 10.9499247,0 C7.92248201,0.082984472 4.95574219,0.868876232 2.28384233,2.29565217 C0.881789239,3.00751154 -0.00115517313,4.44769918 0,6.02086957 L0,6.7826087 C0,7.19773016 0.164808184,7.59584933 0.458166614,7.88938453 C0.751525044,8.18291973 1.14940446,8.34782609 1.56427593,8.34782609 L15.1213241,8.34782609" stroke="#0FB3D4" stroke-width="1.5" fill="none" stroke-linecap="round" stroke-linejoin="round"></path></g></g></g></svg>