<?xml version="1.0" encoding="UTF-8"?>
<svg width="24px" height="24px" viewBox="0 0 24 24" version="1.1" xmlns="http://www.w3.org/2000/svg" xmlns:xlink="http://www.w3.org/1999/xlink">
    <title>bank</title>
    <g id="bank" stroke="none" stroke-width="1" fill="none" fill-rule="evenodd">
        <g id="5029915_architecture_bank_banking_building_government_icon" transform="translate(3.000000, 4.000000)" fill="#0FB3D4" fill-rule="nonzero" stroke="#0FB3D4" stroke-width="0.7">
            <g id="XMLID_48_" transform="translate(0.401726, 0.000000)">
                <path d="M15.8148505,5.58104902 C15.6771248,5.58104902 15.539399,5.58104902 15.4016733,5.58104902 C15.0278463,5.58104902 14.6559867,5.58104902 14.2821597,5.58104902 C13.7273217,5.58104902 13.1744512,5.58104902 12.6196132,5.58104902 C11.9467246,5.58104902 11.273836,5.58104902 10.5989798,5.58104902 C9.85919581,5.58104902 9.1174443,5.58104902 8.3776603,5.58104902 C7.63000625,5.58104902 6.88235221,5.58104902 6.13469817,5.58104902 C5.44016691,5.58104902 4.74563566,5.58104902 4.05307191,5.58104902 C3.46478623,5.58104902 2.87453304,5.58104902 2.28624736,5.58104902 C1.86520008,5.58104902 1.4421853,5.58104902 1.02113802,5.58104902 C0.820451936,5.58104902 0.619765851,5.57522164 0.419079766,5.58104902 C0.411209723,5.58104902 0.40137217,5.58104902 0.393502128,5.58104902 C0.52532534,5.71119368 0.655181043,5.83939588 0.787004255,5.96954054 C0.787004255,5.42176749 0.787004255,4.87399444 0.787004255,4.32622138 C0.722076404,4.43888393 0.657148553,4.54960401 0.592220702,4.66226655 C0.846029574,4.53212189 1.09983845,4.40003477 1.35364732,4.26989011 C1.96357562,3.95715443 2.57350391,3.64247629 3.1814647,3.32974061 C3.91534617,2.95096138 4.65119515,2.57412459 5.38507662,2.19534535 C6.02451757,1.86512756 6.66395853,1.53685222 7.305367,1.20663442 C7.61229866,1.04735289 7.92906787,0.899726111 8.23206451,0.730732297 C8.23599953,0.728789839 8.24190206,0.726847381 8.24583708,0.722962466 C8.11401387,0.722962466 7.98022315,0.722962466 7.84839994,0.722962466 C8.10614383,0.853107128 8.36192021,0.983251789 8.61966411,1.11339645 C9.23942996,1.42807459 9.85919581,1.74081027 10.4789617,2.05548841 C11.2266157,2.43426764 11.9742697,2.81304688 12.7219238,3.19182612 C13.3712023,3.52010146 14.0185133,3.8483768 14.6677918,4.17665214 C14.980626,4.33399121 15.2895252,4.5088124 15.6082619,4.65255427 C15.6121969,4.65449672 15.6161319,4.65643918 15.6220345,4.65838164 C15.5571066,4.5457191 15.4921788,4.43499901 15.4272509,4.32233647 C15.4272509,4.87010952 15.4272509,5.41788257 15.4272509,5.96565563 C15.4272509,6.16961368 15.6082619,6.36385944 15.820753,6.35414716 C16.0332442,6.34443487 16.2142552,6.18321088 16.2142552,5.96565563 C16.2142552,5.41788257 16.2142552,4.87010952 16.2142552,4.32233647 C16.2142552,4.19219181 16.1414573,4.04844994 16.0194716,3.9862913 C15.7617277,3.85614663 15.5059513,3.72600197 15.2482074,3.59585731 C14.6343441,3.28506409 14.0185133,2.97232841 13.40465,2.66153519 C12.660931,2.28469841 11.9152444,1.90786162 11.1715254,1.52908239 C10.5222469,1.20080704 9.87296838,0.870589246 9.22368987,0.542313906 C8.90298564,0.379147464 8.58621643,0.212096107 8.26157717,0.0547570389 C8.12188391,-0.0132289784 7.98612568,-0.020998809 7.8424974,0.048929666 C7.81298474,0.0625268694 7.7854396,0.0780665305 7.75592694,0.0936061916 C7.60442862,0.171304497 7.4529303,0.249002803 7.30143198,0.326701108 C6.72888638,0.621954669 6.15634079,0.915265772 5.58379519,1.21051933 C4.84204368,1.59124103 4.10225968,1.97390518 3.36050817,2.35462688 C2.69155455,2.69844188 2.02063343,3.04419934 1.35167981,3.38801434 C0.983755319,3.57837519 0.613863319,3.76679358 0.24593883,3.95715443 C0.228231234,3.96492426 0.212491149,3.97463655 0.194783553,3.98240638 C0.0727978936,4.04456503 0,4.18636443 0,4.31845155 C0,4.86622461 0,5.41399766 0,5.96177071 C0,6.17155614 0.181010979,6.35026224 0.393502128,6.35026224 C0.531227872,6.35026224 0.668953617,6.35026224 0.806679362,6.35026224 C1.18050638,6.35026224 1.55236589,6.35026224 1.92619291,6.35026224 C2.48103091,6.35026224 3.0339014,6.35026224 3.5887394,6.35026224 C4.26162804,6.35026224 4.93451668,6.35026224 5.60937283,6.35026224 C6.34915683,6.35026224 7.09090834,6.35026224 7.83069234,6.35026224 C8.57834638,6.35026224 9.32600042,6.35026224 10.0736545,6.35026224 C10.7681857,6.35026224 11.462717,6.35026224 12.1552807,6.35026224 C12.7435664,6.35026224 13.3338196,6.35026224 13.9221053,6.35026224 C14.3431526,6.35026224 14.7661673,6.35026224 15.1872146,6.35026224 C15.3879007,6.35026224 15.5885868,6.35414716 15.7892729,6.35026224 C15.7971429,6.35026224 15.8069805,6.35026224 15.8148505,6.35026224 C16.0214391,6.35026224 16.2181902,6.17155614 16.2083526,5.96177071 C16.1985151,5.75975512 16.0352117,5.58104902 15.8148505,5.58104902 Z" id="XMLID_52_"></path>
            </g>
            <g id="XMLID_42_" transform="translate(0.000000, 15.116789)">
                <path d="M16.6061438,0.00221238938 C16.460548,0.00221238938 16.3149523,0.00221238938 16.171324,0.00221238938 C15.7778219,0.00221238938 15.3843197,0.00221238938 14.9927851,0.00221238938 C14.4123695,0.00221238938 13.8319538,0.00221238938 13.2495707,0.00221238938 C12.5412669,0.00221238938 11.832963,0.00221238938 11.1246592,0.00221238938 C10.345525,0.00221238938 9.56639077,0.00221238938 8.78725655,0.00221238938 C8.00418732,0.00221238938 7.22111809,0.00221238938 6.43608134,0.00221238938 C5.70613489,0.00221238938 4.97422094,0.00221238938 4.24427449,0.00221238938 C3.62647615,0.00221238938 3.00867781,0.00221238938 2.39087947,0.00221238938 C1.94425455,0.00221238938 1.49959715,0.00221238938 1.05297223,0.00221238938 C0.842448596,0.00221238938 0.631924958,-0.00276548673 0.42140132,0.00221238938 C0.411563766,0.00221238938 0.403693724,0.00221238938 0.393856171,0.00221238938 C0.187267554,0.00221238938 -0.00948351015,0.23119469 0.000354043041,0.5 C0.0101915962,0.76880531 0.173494979,0.997787611 0.393856171,0.997787611 C0.539451958,0.997787611 0.685047745,0.997787611 0.828676022,0.997787611 C1.22217815,0.997787611 1.61568028,0.997787611 2.00721489,0.997787611 C2.58763053,0.997787611 3.16804617,0.997787611 3.75042932,0.997787611 C4.45873315,0.997787611 5.16703698,0.997787611 5.87534081,0.997787611 C6.65447502,0.997787611 7.43360923,0.997787611 8.21274345,0.997787611 C8.99581268,0.997787611 9.77888191,0.997787611 10.5639187,0.997787611 C11.2938651,0.997787611 12.0257791,0.997787611 12.7557255,0.997787611 C13.3735239,0.997787611 13.9913222,0.997787611 14.6091205,0.997787611 C15.0557454,0.997787611 15.5004029,0.997787611 15.9470278,0.997787611 C16.1575514,0.997787611 16.368075,1.00276549 16.5785987,0.997787611 C16.5884362,0.997787611 16.5963063,0.997787611 16.6061438,0.997787611 C16.8127324,0.997787611 17.0094835,0.76880531 16.999646,0.5 C16.9898084,0.23119469 16.826505,0.00221238938 16.6061438,0.00221238938 L16.6061438,0.00221238938 Z" id="XMLID_46_"></path>
            </g>
            <g id="XMLID_36_" transform="translate(6.121717, 7.523157)">
                <path d="M0.00440528634,0.388841062 C0.00440528634,0.639418097 0.00440528634,0.89193759 0.00440528634,1.14251463 C0.00440528634,1.74661895 0.00440528634,2.35072328 0.00440528634,2.9548276 C0.00440528634,3.68519167 0.00440528634,4.4174982 0.00440528634,5.14786227 C0.00440528634,5.78110346 0.00440528634,6.41240219 0.00440528634,7.04564338 C0.00440528634,7.35449415 -0.00550660793,7.66334491 0.00440528634,7.97219568 C0.00440528634,7.97608059 0.00440528634,7.97996551 0.00440528634,7.98579288 C0.00440528634,8.18975093 0.232378855,8.3839967 0.5,8.37428441 C0.767621145,8.36457212 0.995594714,8.20334814 0.995594714,7.98579288 C0.995594714,7.73521585 0.995594714,7.48269635 0.995594714,7.23211932 C0.995594714,6.62801499 0.995594714,6.02391067 0.995594714,5.41980634 C0.995594714,4.68944227 0.995594714,3.95713574 0.995594714,3.22677167 C0.995594714,2.59353048 0.995594714,1.96223175 0.995594714,1.32899056 C0.995594714,1.02013979 1.00550661,0.71128903 0.995594714,0.402438266 C0.995594714,0.39855335 0.995594714,0.394668435 0.995594714,0.388841062 C0.995594714,0.18488301 0.767621145,-0.0093627533 0.5,0.000349534888 C0.232378855,0.0100618231 0.00440528634,0.171285807 0.00440528634,0.388841062 L0.00440528634,0.388841062 Z" id="XMLID_40_"></path>
            </g>
            <g id="XMLID_30_" transform="translate(2.161118, 7.521215)">
                <path d="M0.995594714,7.98579288 C0.995594714,7.73521585 0.995594714,7.48269635 0.995594714,7.23211932 C0.995594714,6.62801499 0.995594714,6.02391067 0.995594714,5.41980634 C0.995594714,4.68944227 0.995594714,3.95713574 0.995594714,3.22677167 C0.995594714,2.59353048 0.995594714,1.96223175 0.995594714,1.32899056 C0.995594714,1.02013979 1.00550661,0.71128903 0.995594714,0.402438266 C0.995594714,0.39855335 0.995594714,0.394668435 0.995594714,0.388841062 C0.995594714,0.18488301 0.767621145,-0.0093627533 0.5,0.000349534888 C0.232378855,0.0100618231 0.00440528634,0.171285807 0.00440528634,0.388841062 C0.00440528634,0.639418097 0.00440528634,0.89193759 0.00440528634,1.14251463 C0.00440528634,1.74661895 0.00440528634,2.35072328 0.00440528634,2.9548276 C0.00440528634,3.68519167 0.00440528634,4.4174982 0.00440528634,5.14786227 C0.00440528634,5.78110346 0.00440528634,6.41240219 0.00440528634,7.04564338 C0.00440528634,7.35449415 -0.00550660793,7.66334491 0.00440528634,7.97219568 C0.00440528634,7.97608059 0.00440528634,7.97996551 0.00440528634,7.98579288 C0.00440528634,8.18975093 0.232378855,8.3839967 0.5,8.37428441 C0.767621145,8.36651458 0.995594714,8.20529059 0.995594714,7.98579288 L0.995594714,7.98579288 Z" id="XMLID_34_"></path>
            </g>
            <g id="XMLID_24_" transform="translate(14.044882, 7.523157)">
                <path d="M0.00440528634,0.388841062 C0.00440528634,0.639418097 0.00440528634,0.89193759 0.00440528634,1.14251463 C0.00440528634,1.74661895 0.00440528634,2.35072328 0.00440528634,2.9548276 C0.00440528634,3.68519167 0.00440528634,4.4174982 0.00440528634,5.14786227 C0.00440528634,5.78110346 0.00440528634,6.41240219 0.00440528634,7.04564338 C0.00440528634,7.35449415 -0.00550660793,7.66334491 0.00440528634,7.97219568 C0.00440528634,7.97608059 0.00440528634,7.97996551 0.00440528634,7.98579288 C0.00440528634,8.18975093 0.232378855,8.3839967 0.5,8.37428441 C0.767621145,8.36457212 0.995594714,8.20334814 0.995594714,7.98579288 C0.995594714,7.73521585 0.995594714,7.48269635 0.995594714,7.23211932 C0.995594714,6.62801499 0.995594714,6.02391067 0.995594714,5.41980634 C0.995594714,4.68944227 0.995594714,3.95713574 0.995594714,3.22677167 C0.995594714,2.59353048 0.995594714,1.96223175 0.995594714,1.32899056 C0.995594714,1.02013979 1.00550661,0.71128903 0.995594714,0.402438266 C0.995594714,0.39855335 0.995594714,0.394668435 0.995594714,0.388841062 C0.995594714,0.18488301 0.767621145,-0.0093627533 0.5,0.000349534888 C0.232378855,0.0100618231 0.00440528634,0.171285807 0.00440528634,0.388841062 L0.00440528634,0.388841062 Z" id="XMLID_28_"></path>
            </g>
            <g id="XMLID_18_" transform="translate(10.084283, 7.523157)">
                <path d="M0.00440528634,0.388841062 C0.00440528634,0.639418097 0.00440528634,0.89193759 0.00440528634,1.14251463 C0.00440528634,1.74661895 0.00440528634,2.35072328 0.00440528634,2.9548276 C0.00440528634,3.68519167 0.00440528634,4.4174982 0.00440528634,5.14786227 C0.00440528634,5.78110346 0.00440528634,6.41240219 0.00440528634,7.04564338 C0.00440528634,7.35449415 -0.00550660793,7.66334491 0.00440528634,7.97219568 C0.00440528634,7.97608059 0.00440528634,7.97996551 0.00440528634,7.98579288 C0.00440528634,8.18975093 0.232378855,8.3839967 0.5,8.37428441 C0.767621145,8.36457212 0.995594714,8.20334814 0.995594714,7.98579288 C0.995594714,7.73521585 0.995594714,7.48269635 0.995594714,7.23211932 C0.995594714,6.62801499 0.995594714,6.02391067 0.995594714,5.41980634 C0.995594714,4.68944227 0.995594714,3.95713574 0.995594714,3.22677167 C0.995594714,2.59353048 0.995594714,1.96223175 0.995594714,1.32899056 C0.995594714,1.02013979 1.00550661,0.71128903 0.995594714,0.402438266 C0.995594714,0.39855335 0.995594714,0.394668435 0.995594714,0.388841062 C0.995594714,0.18488301 0.767621145,-0.0093627533 0.5,0.000349534888 C0.229900881,0.0100618231 0.00440528634,0.171285807 0.00440528634,0.388841062 L0.00440528634,0.388841062 Z" id="XMLID_22_"></path>
            </g>
            <g id="XMLID_347_" transform="translate(7.220837, 2.293057)" stroke-linejoin="bevel">
                <g id="XMLID_12_">
                    <path d="M1.7887486,1.27366328 C1.7887486,1.29503032 1.78678108,1.31833981 1.78678108,1.3416493 C1.78678108,1.39798057 1.8084237,1.24452642 1.7887486,1.32999456 C1.78087855,1.36301634 1.77497602,1.39798057 1.76317096,1.43100235 C1.76120345,1.43877218 1.75726842,1.44654201 1.75530091,1.4562543 C1.76120345,1.45042693 1.76317096,1.4426571 1.76710598,1.43488727 C1.75923594,1.45042693 1.7533334,1.46596659 1.74546336,1.48150625 C1.74152834,1.48927608 1.68643804,1.59222634 1.678568,1.59028388 C1.67463298,1.58834142 1.7336583,1.52812524 1.69234057,1.5708593 C1.678568,1.58639896 1.66479542,1.60193863 1.64905534,1.61747829 C1.6411853,1.62524812 1.57625745,1.69711905 1.56445238,1.69323413 C1.56051736,1.69129168 1.63528277,1.64661515 1.58215998,1.67769447 C1.56641989,1.6854643 1.55264732,1.69517659 1.53887474,1.70488888 C1.52116715,1.71654363 1.50149204,1.72431346 1.48181694,1.73402574 C1.47001187,1.73985312 1.45820681,1.74568049 1.44640174,1.74956541 C1.49755702,1.72819837 1.50739457,1.72431346 1.47984942,1.73402574 C1.44246672,1.73791066 1.40311651,1.75733524 1.36573381,1.76510507 C1.36770132,1.76510507 1.31457853,1.77675981 1.31261102,1.77481735 C1.31851355,1.78258719 1.40508402,1.76704752 1.32244857,1.76898998 C1.28900089,1.77093244 1.23194308,1.75733524 1.20046291,1.76704752 C1.24768317,1.75345032 1.26932579,1.78064473 1.22604055,1.77093244 C1.20046291,1.76510507 1.17488528,1.76122015 1.14930764,1.75345032 C1.12963253,1.74762295 1.1060224,1.7359682 1.0863473,1.73402574 C1.03519202,1.72819837 1.16898274,1.77675981 1.09618485,1.73985312 C1.06667219,1.72431346 1.03519202,1.7087738 1.00567936,1.69129168 C0.997809319,1.68740676 0.991906787,1.68157939 0.984036744,1.67769447 C0.987971765,1.68352185 0.995841808,1.68740676 1.00174434,1.69323413 C0.987971765,1.68352185 0.976166702,1.6718671 0.962394127,1.66021235 C0.930913957,1.63301795 0.901401297,1.60193863 0.873856148,1.5708593 C0.822700872,1.51647049 0.891563744,1.58834142 0.887628723,1.59028388 C0.885661212,1.59222634 0.856148553,1.5436649 0.852213531,1.53783752 C0.84827851,1.53006769 0.791220702,1.44654201 0.799090744,1.43682973 C0.803025765,1.43100235 0.826635893,1.51841295 0.810895808,1.45819676 C0.804993276,1.43682973 0.797123234,1.41740515 0.793188212,1.39603812 C0.78728568,1.37467108 0.783350659,1.35330405 0.779415638,1.33193701 C0.781383148,1.29503032 0.781383148,1.25812362 0.781383148,1.22121693 C0.783350659,1.14157617 0.779415638,1.24841134 0.775480617,1.24452642 C0.771545595,1.2406415 0.78531817,1.18819515 0.78728568,1.18042532 C0.789253191,1.17459795 0.812863319,1.06776278 0.820733361,1.06970523 C0.824668382,1.06970523 0.783350659,1.14546108 0.810895808,1.09107227 C0.822700872,1.06776278 0.834505936,1.04639574 0.846311,1.02308625 C0.856148553,1.00560413 0.873856148,0.988122012 0.87975868,0.970639893 C0.897466276,0.92402091 0.81679834,1.03862591 0.871888638,0.978409724 C0.895498765,0.953157774 0.917141382,0.927905825 0.942719021,0.904596333 C0.958459106,0.89099913 0.976166702,0.877401927 0.989939276,0.863804723 C1.02535447,0.826898028 0.90927134,0.912366164 0.982069234,0.871574554 C1.01945194,0.85020752 1.05486713,0.828840486 1.09421734,0.809415909 C1.1611127,0.774451672 1.07257472,0.821070655 1.07257472,0.819128197 C1.07257472,0.815243282 1.12766502,0.801646079 1.13356755,0.799703621 C1.17095025,0.788048875 1.21226798,0.786106418 1.24965068,0.774451672 C1.16701523,0.797761163 1.19456038,0.780279045 1.22604055,0.780279045 C1.24965068,0.780279045 1.2712933,0.778336587 1.29490343,0.778336587 C1.30277347,0.778336587 1.36179879,0.778336587 1.3637663,0.782221502 C1.37360385,0.786106418 1.48968698,0.811358367 1.48968698,0.821070655 C1.48968698,0.82495557 1.41295406,0.78416396 1.46804436,0.811358367 C1.49165449,0.823013113 1.51329711,0.834667859 1.53690723,0.846322604 C1.55067981,0.854092435 1.56641989,0.865747181 1.58019247,0.873517011 C1.61757517,0.904596333 1.64905534,0.937618113 1.68250302,0.970639893 C1.73759332,1.02891362 1.67463298,0.960927605 1.67660049,0.960927605 C1.68053551,0.958985147 1.7159507,1.02114379 1.71791821,1.02502871 C1.72578825,1.04056837 1.73562581,1.05416557 1.74349585,1.06970523 C1.74939838,1.08135998 1.75530091,1.09301472 1.76120345,1.10466947 C1.77300851,1.13186388 1.76907349,1.12020913 1.74546336,1.07164769 C1.75530091,1.07164769 1.77891104,1.18625269 1.78284606,1.19596498 C1.78481357,1.20373481 1.78678108,1.2134471 1.7887486,1.22121693 C1.7887486,1.23869905 1.7887486,1.25618117 1.7887486,1.27366328 C1.79268362,1.47762134 1.96779206,1.6718671 2.18225072,1.66215481 C2.39277436,1.65244252 2.57968787,1.49121854 2.57575285,1.27366328 C2.56788281,0.727832689 2.22160094,0.255815483 1.70414564,0.0693395495 C1.22013802,-0.10353918 0.63185234,0.0557423461 0.307213085,0.448118789 C-0.0390687877,0.865747181 -0.10793166,1.45819676 0.179324893,1.92632905 C0.466581446,2.3964038 1.0135494,2.61395905 1.55264732,2.51877863 C2.14880304,2.41194346 2.56788281,1.85640058 2.57772036,1.27366328 C2.58165538,1.06970523 2.39474187,0.875459469 2.18421823,0.885171757" id="XMLID_16_"></path>
                </g>
            </g>
        </g>
    </g>
</svg>