<?xml version="1.0" encoding="UTF-8"?>
<svg width="510px" height="330px" viewBox="0 0 510 330" version="1.1" xmlns="http://www.w3.org/2000/svg" xmlns:xlink="http://www.w3.org/1999/xlink">
    <title>world@1x</title>
    <defs>
        <radialGradient cx="85.5047309%" cy="49.1567688%" fx="85.5047309%" fy="49.1567688%" r="15.5489555%" gradientTransform="translate(0.855047,0.491568),scale(1.000000,0.999403),translate(-0.855047,-0.491568)" id="radialGradient-1">
            <stop stop-color="#FFFFFF" stop-opacity="0" offset="0%"></stop>
            <stop stop-color="#6AE9FF" offset="100%"></stop>
        </radialGradient>
        <radialGradient cx="14.1153236%" cy="16.7944847%" fx="14.1153236%" fy="16.7944847%" r="694.33528%" gradientTransform="translate(0.141153,0.167945),scale(0.723855,1.000000),translate(-0.141153,-0.167945)" id="radialGradient-2">
            <stop stop-color="#7DD4E3" offset="0%"></stop>
            <stop stop-color="#6396A7" offset="29.1218791%"></stop>
            <stop stop-color="#A5C2CB" offset="41.2064986%"></stop>
            <stop stop-color="#D5E6EA" offset="53.2690942%"></stop>
            <stop stop-color="#82D1ED" offset="66.0740139%"></stop>
            <stop stop-color="#24A9CF" offset="76%"></stop>
            <stop stop-color="#DFECEF" offset="88.8610413%"></stop>
            <stop stop-color="#55AABF" offset="100%"></stop>
        </radialGradient>
        <radialGradient cx="14.1153236%" cy="16.7944847%" fx="14.1153236%" fy="16.7944847%" r="1314.83149%" gradientTransform="translate(0.141153,0.167945),scale(0.382253,1.000000),translate(-0.141153,-0.167945)" id="radialGradient-3">
            <stop stop-color="#E5EFF1" offset="0%"></stop>
            <stop stop-color="#6396A7" offset="29.1218791%"></stop>
            <stop stop-color="#A5C2CB" offset="41.2064986%"></stop>
            <stop stop-color="#D5E6EA" offset="53.2690942%"></stop>
            <stop stop-color="#82D1ED" offset="66.0740139%"></stop>
            <stop stop-color="#24A9CF" offset="76%"></stop>
            <stop stop-color="#DFECEF" offset="88.8610413%"></stop>
            <stop stop-color="#55AABF" offset="100%"></stop>
        </radialGradient>
        <radialGradient cx="14.1153236%" cy="16.7944847%" fx="14.1153236%" fy="16.7944847%" r="791.889827%" gradientTransform="translate(0.141153,0.167945),scale(0.634682,1.000000),translate(-0.141153,-0.167945)" id="radialGradient-4">
            <stop stop-color="#E5EFF1" offset="0%"></stop>
            <stop stop-color="#6396A7" offset="29.1218791%"></stop>
            <stop stop-color="#A5C2CB" offset="41.2064986%"></stop>
            <stop stop-color="#D5E6EA" offset="53.2690942%"></stop>
            <stop stop-color="#82D1ED" offset="66.0740139%"></stop>
            <stop stop-color="#24A9CF" offset="76%"></stop>
            <stop stop-color="#DFECEF" offset="88.8610413%"></stop>
            <stop stop-color="#55AABF" offset="100%"></stop>
        </radialGradient>
        <radialGradient cx="14.1153236%" cy="16.7944847%" fx="14.1153236%" fy="16.7944847%" r="592.972525%" gradientTransform="translate(0.141153,0.167945),scale(1.000000,0.363818),rotate(-20.431878),translate(-0.141153,-0.167945)" id="radialGradient-5">
            <stop stop-color="#65C4D3" offset="0%"></stop>
            <stop stop-color="#43ABCE" offset="29.1218791%"></stop>
            <stop stop-color="#A5C2CB" offset="41.2064986%"></stop>
            <stop stop-color="#D5E6EA" offset="53.2690942%"></stop>
            <stop stop-color="#82D1ED" offset="66.0740139%"></stop>
            <stop stop-color="#24A9CF" offset="76%"></stop>
            <stop stop-color="#DFECEF" offset="88.8610413%"></stop>
            <stop stop-color="#55AABF" offset="100%"></stop>
        </radialGradient>
        <radialGradient cx="-2733.57143%" cy="-248.356546%" fx="-2733.57143%" fy="-248.356546%" r="11782.381%" gradientTransform="translate(-27.335714,-2.483565),scale(1.000000,0.233844),translate(27.335714,2.483565)" id="radialGradient-6">
            <stop stop-color="#B0B0B0" offset="7%"></stop>
            <stop stop-color="#005B8C" offset="29%"></stop>
            <stop stop-color="#004165" offset="40%"></stop>
            <stop stop-color="#002A40" offset="52%"></stop>
            <stop stop-color="#001724" offset="64%"></stop>
            <stop stop-color="#000A10" offset="76%"></stop>
            <stop stop-color="#000204" offset="88%"></stop>
            <stop stop-color="#000000" offset="100%"></stop>
        </radialGradient>
        <radialGradient cx="-4000.71429%" cy="-420.911215%" fx="-4000.71429%" fy="-420.911215%" r="17673.2143%" gradientTransform="translate(-40.007143,-4.209112),scale(1.000000,0.326908),translate(40.007143,4.209112)" id="radialGradient-7">
            <stop stop-color="#B0B0B0" offset="7%"></stop>
            <stop stop-color="#005B8C" offset="29%"></stop>
            <stop stop-color="#004165" offset="40%"></stop>
            <stop stop-color="#002A40" offset="52%"></stop>
            <stop stop-color="#001724" offset="64%"></stop>
            <stop stop-color="#000A10" offset="76%"></stop>
            <stop stop-color="#000204" offset="88%"></stop>
            <stop stop-color="#000000" offset="100%"></stop>
        </radialGradient>
        <radialGradient cx="-11227.3585%" cy="-956.269113%" fx="-11227.3585%" fy="-956.269113%" r="46683.0189%" gradientTransform="translate(-112.273585,-9.562691),scale(1.000000,0.161983),translate(112.273585,9.562691)" id="radialGradient-8">
            <stop stop-color="#B0B0B0" offset="7%"></stop>
            <stop stop-color="#005B8C" offset="29%"></stop>
            <stop stop-color="#004165" offset="40%"></stop>
            <stop stop-color="#002A40" offset="52%"></stop>
            <stop stop-color="#001724" offset="64%"></stop>
            <stop stop-color="#000A10" offset="76%"></stop>
            <stop stop-color="#000204" offset="88%"></stop>
            <stop stop-color="#000000" offset="100%"></stop>
        </radialGradient>
        <radialGradient cx="-621.365618%" cy="232.474875%" fx="-621.365618%" fy="232.474875%" r="1728.79252%" gradientTransform="translate(-6.213656,2.324749),scale(1.000000,0.757851),rotate(-20.102357),translate(6.213656,-2.324749)" id="radialGradient-9">
            <stop stop-color="#E5EFF1" offset="0%"></stop>
            <stop stop-color="#6396A7" offset="29.1218791%"></stop>
            <stop stop-color="#5BC2E2" offset="41.2064986%"></stop>
            <stop stop-color="#D5E6EA" offset="53.2690942%"></stop>
            <stop stop-color="#82D1ED" offset="66.0740139%"></stop>
            <stop stop-color="#24A9CF" offset="76%"></stop>
            <stop stop-color="#DFECEF" offset="88.8610413%"></stop>
            <stop stop-color="#55AABF" offset="100%"></stop>
        </radialGradient>
        <radialGradient cx="14.1153236%" cy="16.7944847%" fx="14.1153236%" fy="16.7944847%" r="892.103374%" gradientTransform="translate(0.141153,0.167945),scale(0.625105,1.000000),rotate(-4.842670),translate(-0.141153,-0.167945)" id="radialGradient-10">
            <stop stop-color="#65C4D3" offset="0%"></stop>
            <stop stop-color="#43ABCE" offset="29.1218791%"></stop>
            <stop stop-color="#A5C2CB" offset="41.2064986%"></stop>
            <stop stop-color="#D5E6EA" offset="53.2690942%"></stop>
            <stop stop-color="#82D1ED" offset="66.0740139%"></stop>
            <stop stop-color="#24A9CF" offset="76%"></stop>
            <stop stop-color="#DFECEF" offset="88.8610413%"></stop>
            <stop stop-color="#55AABF" offset="100%"></stop>
        </radialGradient>
        <radialGradient cx="-621.365618%" cy="232.474875%" fx="-621.365618%" fy="232.474875%" r="1806.77122%" gradientTransform="translate(-6.213656,2.324749),scale(1.000000,0.567890),rotate(-26.031850),translate(6.213656,-2.324749)" id="radialGradient-11">
            <stop stop-color="#E5EFF1" offset="0%"></stop>
            <stop stop-color="#6396A7" offset="29.1218791%"></stop>
            <stop stop-color="#A5C2CB" offset="41.2064986%"></stop>
            <stop stop-color="#D5E6EA" offset="53.2690942%"></stop>
            <stop stop-color="#82D1ED" offset="66.0740139%"></stop>
            <stop stop-color="#24A9CF" offset="76%"></stop>
            <stop stop-color="#DFECEF" offset="88.8610413%"></stop>
            <stop stop-color="#55AABF" offset="100%"></stop>
        </radialGradient>
        <radialGradient cx="14.1153236%" cy="16.7944847%" fx="14.1153236%" fy="16.7944847%" r="986.669567%" gradientTransform="translate(0.141153,0.167945),scale(0.509388,1.000000),translate(-0.141153,-0.167945)" id="radialGradient-12">
            <stop stop-color="#E5EFF1" offset="0%"></stop>
            <stop stop-color="#6396A7" offset="29.1218791%"></stop>
            <stop stop-color="#A5C2CB" offset="41.2064986%"></stop>
            <stop stop-color="#D5E6EA" offset="53.2690942%"></stop>
            <stop stop-color="#82D1ED" offset="66.0740139%"></stop>
            <stop stop-color="#24A9CF" offset="76%"></stop>
            <stop stop-color="#DFECEF" offset="88.8610413%"></stop>
            <stop stop-color="#55AABF" offset="100%"></stop>
        </radialGradient>
        <radialGradient cx="14.1153236%" cy="16.7944847%" fx="14.1153236%" fy="16.7944847%" r="502.598091%" gradientTransform="translate(0.141153,0.167945),scale(1.000000,0.315550),translate(-0.141153,-0.167945)" id="radialGradient-13">
            <stop stop-color="#E5EFF1" offset="0%"></stop>
            <stop stop-color="#6396A7" offset="29.1218791%"></stop>
            <stop stop-color="#A5C2CB" offset="41.2064986%"></stop>
            <stop stop-color="#D5E6EA" offset="53.2690942%"></stop>
            <stop stop-color="#82D1ED" offset="66.0740139%"></stop>
            <stop stop-color="#24A9CF" offset="76%"></stop>
            <stop stop-color="#DFECEF" offset="88.8610413%"></stop>
            <stop stop-color="#55AABF" offset="100%"></stop>
        </radialGradient>
        <radialGradient cx="14.1153236%" cy="16.7944847%" fx="14.1153236%" fy="16.7944847%" r="563.858838%" gradientTransform="translate(0.141153,0.167945),scale(1.000000,0.786434),rotate(-9.778228),translate(-0.141153,-0.167945)" id="radialGradient-14">
            <stop stop-color="#65C4D3" offset="0%"></stop>
            <stop stop-color="#43ABCE" offset="29.1218791%"></stop>
            <stop stop-color="#A5C2CB" offset="41.2064986%"></stop>
            <stop stop-color="#D5E6EA" offset="53.2690942%"></stop>
            <stop stop-color="#82D1ED" offset="66.0740139%"></stop>
            <stop stop-color="#24A9CF" offset="76%"></stop>
            <stop stop-color="#DFECEF" offset="88.8610413%"></stop>
            <stop stop-color="#55AABF" offset="100%"></stop>
        </radialGradient>
        <radialGradient cx="-4026.54576%" cy="342%" fx="-4026.54576%" fy="342%" r="49454.4714%" gradientTransform="translate(-40.265458,3.420000),scale(0.937985,1.000000),translate(40.265458,-3.420000)" id="radialGradient-15">
            <stop stop-color="#B0B0B0" offset="7%"></stop>
            <stop stop-color="#005B8C" offset="29%"></stop>
            <stop stop-color="#004165" offset="40%"></stop>
            <stop stop-color="#002A40" offset="52%"></stop>
            <stop stop-color="#001724" offset="64%"></stop>
            <stop stop-color="#000A10" offset="76%"></stop>
            <stop stop-color="#000204" offset="88%"></stop>
            <stop stop-color="#000000" offset="100%"></stop>
        </radialGradient>
        <radialGradient cx="14.1153236%" cy="16.7944847%" fx="14.1153236%" fy="16.7944847%" r="525.452625%" gradientTransform="translate(0.141153,0.167945),scale(0.956505,1.000000),translate(-0.141153,-0.167945)" id="radialGradient-16">
            <stop stop-color="#E5EFF1" offset="0%"></stop>
            <stop stop-color="#6396A7" offset="29.1218791%"></stop>
            <stop stop-color="#A5C2CB" offset="41.2064986%"></stop>
            <stop stop-color="#D5E6EA" offset="53.2690942%"></stop>
            <stop stop-color="#82D1ED" offset="66.0740139%"></stop>
            <stop stop-color="#24A9CF" offset="76%"></stop>
            <stop stop-color="#DFECEF" offset="88.8610413%"></stop>
            <stop stop-color="#55AABF" offset="100%"></stop>
        </radialGradient>
        <radialGradient cx="-621.365618%" cy="232.474875%" fx="-621.365618%" fy="232.474875%" r="1691.22705%" gradientTransform="translate(-6.213656,2.324749),scale(1.000000,0.950210),rotate(-16.272697),translate(6.213656,-2.324749)" id="radialGradient-17">
            <stop stop-color="#E5EFF1" offset="0%"></stop>
            <stop stop-color="#6396A7" offset="29.1218791%"></stop>
            <stop stop-color="#5BC2E2" offset="41.2064986%"></stop>
            <stop stop-color="#D5E6EA" offset="53.2690942%"></stop>
            <stop stop-color="#82D1ED" offset="66.0740139%"></stop>
            <stop stop-color="#24A9CF" offset="76%"></stop>
            <stop stop-color="#DFECEF" offset="88.8610413%"></stop>
            <stop stop-color="#55AABF" offset="100%"></stop>
        </radialGradient>
        <radialGradient cx="14.1153236%" cy="16.7944847%" fx="14.1153236%" fy="16.7944847%" r="1402.11022%" gradientTransform="translate(0.141153,0.167945),scale(0.358458,1.000000),translate(-0.141153,-0.167945)" id="radialGradient-18">
            <stop stop-color="#7DD4E3" offset="0%"></stop>
            <stop stop-color="#6396A7" offset="29.1218791%"></stop>
            <stop stop-color="#A5C2CB" offset="41.2064986%"></stop>
            <stop stop-color="#D5E6EA" offset="53.2690942%"></stop>
            <stop stop-color="#82D1ED" offset="66.0740139%"></stop>
            <stop stop-color="#24A9CF" offset="76%"></stop>
            <stop stop-color="#DFECEF" offset="88.8610413%"></stop>
            <stop stop-color="#55AABF" offset="100%"></stop>
        </radialGradient>
        <radialGradient cx="14.1153236%" cy="16.7944847%" fx="14.1153236%" fy="16.7944847%" r="502.598091%" gradientTransform="translate(0.141153,0.167945),scale(1.000000,0.609507),translate(-0.141153,-0.167945)" id="radialGradient-19">
            <stop stop-color="#E5EFF1" offset="0%"></stop>
            <stop stop-color="#6396A7" offset="29.1218791%"></stop>
            <stop stop-color="#A5C2CB" offset="41.2064986%"></stop>
            <stop stop-color="#D5E6EA" offset="53.2690942%"></stop>
            <stop stop-color="#82D1ED" offset="66.0740139%"></stop>
            <stop stop-color="#24A9CF" offset="76%"></stop>
            <stop stop-color="#DFECEF" offset="88.8610413%"></stop>
            <stop stop-color="#55AABF" offset="100%"></stop>
        </radialGradient>
        <linearGradient x1="50%" y1="0%" x2="50%" y2="100%" id="linearGradient-20">
            <stop stop-color="#ACEAFF" offset="0%"></stop>
            <stop stop-color="#96B5BA" offset="100%"></stop>
        </linearGradient>
        <linearGradient x1="50%" y1="0%" x2="50%" y2="100%" id="linearGradient-21">
            <stop stop-color="#ACEAFF" offset="0%"></stop>
            <stop stop-color="#96B5BA" offset="100%"></stop>
        </linearGradient>
        <linearGradient x1="50%" y1="0%" x2="50%" y2="100%" id="linearGradient-22">
            <stop stop-color="#ACEAFF" offset="0%"></stop>
            <stop stop-color="#96B5BA" offset="100%"></stop>
        </linearGradient>
        <linearGradient x1="50%" y1="0%" x2="50%" y2="100%" id="linearGradient-23">
            <stop stop-color="#ACEAFF" offset="0%"></stop>
            <stop stop-color="#96B5BA" offset="100%"></stop>
        </linearGradient>
        <linearGradient x1="50%" y1="0%" x2="50%" y2="100%" id="linearGradient-24">
            <stop stop-color="#ACEAFF" offset="0%"></stop>
            <stop stop-color="#96B5BA" offset="100%"></stop>
        </linearGradient>
        <linearGradient x1="50%" y1="0%" x2="50%" y2="100%" id="linearGradient-25">
            <stop stop-color="#ACEAFF" offset="0%"></stop>
            <stop stop-color="#96B5BA" offset="100%"></stop>
        </linearGradient>
    </defs>
    <g id="world" stroke="none" stroke-width="1" fill="none" fill-rule="evenodd" opacity="0.697014218">
        <g id="Group-21" transform="translate(-315.000000, 13.000000)" fill-rule="nonzero">
            <g id="Asset-3" opacity="0.431272961" transform="translate(63.184495, 32.809809)">
                <g id="Group">
                    <path d="M635.800126,318.100314 C635.800126,493.770923 493.465844,636.190191 317.900063,636.190191 C142.334282,636.190191 0,493.770923 0,318.100314 C0,142.429705 142.334282,0.0104367044 317.900063,0.0104367044 C493.465844,0.0104367044 635.800126,142.429705 635.800126,318.100314 Z" id="Path" fill="url(#radialGradient-1)"></path>
                    <g transform="translate(22.184309, 0.000000)">
                        <path d="M238.786213,8.94425569 C237.242503,10.8437359 233.174617,11.9500266 230.984217,12.534482 C230.879912,12.5553554 219.844468,15.7698604 219.364666,16.3960626 C216.318967,20.4872508 223.974936,21.8022755 224.079241,21.8022755 C243.083569,20.4037571 243.31304,20.6124912 244.648141,21.7814021 C244.752446,21.8648958 253.576629,31.6962713 250.697817,37.0189906 C249.529604,39.1898251 249.550465,39.2733187 249.592187,39.5655465 C249.800796,40.7135839 251.177619,40.7970776 251.573977,41.7572544 C252.178945,43.2392664 251.573977,44.9508859 252.387554,46.3911512 C254.890869,45.8066957 256.89352,43.1975196 259.876637,44.5334178 C264.966709,46.8086193 262.630282,50.8998075 262.58856,50.9415543 C260.502465,53.4254899 256.684911,53.3002495 254.807425,56.0972863 C253.764377,57.6210451 252.763052,61.8583471 253.534907,64.3214093 C253.889543,65.4903202 268.742542,90.6427779 275.856127,93.0432199 C272.288904,40.7553308 269.660424,16.9805181 266.07234,5.68800391 C269.305787,15.6237465 271.934267,35.1195104 275.856127,93.0432199 C293.629659,96.466459 294.005156,96.0281174 295.152508,94.7548394 C297.029994,92.6466251 300.242581,76.3862397 300.284303,76.2192524 C300.743244,73.8188104 299.491586,71.2931279 300.847548,68.9761795 C301.577682,67.7655218 301.661125,67.7446484 306.104508,66.4087502 C315.436308,63.5838822 320.227374,61.2808495 320.477705,59.4996519 C320.853202,56.7652353 321.061812,55.2414765 323.585987,53.9681986 C329.698246,50.8789341 336.728388,50.4197191 342.840647,47.2887077 C345.343961,45.9945564 348.055885,45.15962 350.371451,43.5314941 C350.413173,43.4897473 351.560525,42.654811 350.14198,40.817951 C348.055885,38.1252812 344.88502,36.580649 342.882369,33.8044856 C341.609851,32.0302459 341.651572,29.7967911 340.754551,27.8973109 C339.732365,25.6638562 340.191306,25.0585273 341.442963,23.8061228 C343.174422,22.0527564 341.985348,21.3430605 338.418125,19.2348462 C326.798574,12.3674947 326.694269,12.2005075 325.692943,10.6558752 C325.755526,10.5097614 325.83897,10.3219007 325.901553,10.1757868 C326.089301,10.1131666 326.318772,10.0296729 326.506521,9.94617931 C323.106185,6.62730731 316.20121,9.25735682 314.553194,2.93271394 C314.198558,2.76572667 313.739617,2.51524577 313.384981,2.3691319 C313.447564,2.07690418 313.531008,1.68030941 313.635313,1.38808169 C313.781339,1.34633487 313.969088,1.30458805 314.094253,1.26284123 C312.571404,1.05410715 308.169743,0.782752832 308.128021,0.782752832 C305.186627,0.615765561 301.452516,1.24196783 300.743244,1.38808169 C298.198207,1.84729668 296.028668,0.177423975 293.587937,0.0939303398 C290.145879,-0.0313101133 282.573353,-0.0313101133 279.569376,0.0939303398 C275.870034,0.302664428 273.8048,0.553145334 273.373673,0.845373058 L273.352812,0.845373058 C269.319695,1.06802275 266.343532,1.36720828 264.424324,1.74292964 L264.424324,1.74292964 C264.424324,1.74292964 264.299159,1.70118282 264.257437,1.78467646 C264.257437,1.80554986 264.299159,1.78467646 264.299159,1.78467646 C264.361741,1.78467646 264.424324,1.78467646 264.486907,1.80554986 C266.837241,1.98645274 268.367044,2.16039782 269.076317,2.32738509 C268.881615,2.3552163 267.470023,2.34130069 264.841543,2.28563827 C263.214389,2.28563827 262.609421,2.26476486 260.711075,2.43175213 C246.546488,4.0181312 236.366343,8.58940774 236.262038,8.63115456 C236.595813,8.81205743 237.437205,8.90250887 238.786213,8.90250887 L238.786213,8.94425569 Z" id="Path" fill="url(#radialGradient-2)"></path>
                        <path d="M213.940818,11.616052 C213.043797,11.9917734 212.125915,12.3048745 211.208033,12.6388491 C214.128567,11.9500266 223.515995,9.38259727 225.038845,8.94425569 C218.738837,11.0315966 213.77393,12.6805959 208.475248,13.8077599 C207.244452,14.0791143 206.868955,14.371342 206.389153,14.7261899 C206.389153,15.0810379 205.88849,16.8970245 204.970608,17.7110874 C202.175241,16.8552776 194.894768,21.0925796 194.602715,21.3221871 C195.249404,21.6144149 196.000398,21.4891744 196.626227,21.8648958 C196.605366,21.9483894 196.542783,22.0945033 196.521922,22.1779969 C197.460665,22.0527564 197.815301,22.0110096 200.923583,20.8629721 C195.562318,23.7852494 194.93649,23.0964269 194.519271,22.6372119 C190.451385,22.7415789 190.221914,24.2862112 190.11761,25.0167805 C187.802044,26.5405393 184.818928,26.7075266 182.753693,28.7113739 C182.816276,28.7948675 182.878859,28.920108 182.941442,29.0036016 C183.588131,29.0453484 184.047072,29.0662218 188.281846,28.2312855 C191.410989,27.6050832 194.164635,25.3925019 197.606692,26.1439446 C197.439804,26.5474971 197.112983,26.9301763 196.626227,27.2919821 C198.920932,27.7511971 206.222265,24.2027176 205.554715,22.386731 C205.304383,22.3241108 204.991469,22.2406171 204.741138,22.1779969 C205.283523,21.4056808 210.123264,18.3372897 211.208033,18.0868088 C217.737511,16.5213031 220.032216,14.0582409 220.094799,13.5155322 C219.990494,13.4737854 219.865329,13.4320386 219.761024,13.4111652 C225.8107,11.8247861 228.564346,11.1150902 230.441832,9.86268568 C230.121964,9.83485447 229.607394,9.88355909 228.898121,10.0087995 C228.898121,10.0087995 242.582907,5.75062414 243.292179,5.54189005 C239.766678,6.04285186 239.558068,6.06372527 238.222967,6.16809231 C241.602442,5.27053573 245.086221,4.74870051 248.486556,3.89289075 C245.211387,3.89289075 239.745817,4.58171324 239.704095,4.58171324 C239.578929,4.58171324 226.436529,6.8360414 223.599439,7.94233206 C223.703744,8.10931934 223.933215,8.29718001 224.120963,8.38067365 C223.578578,8.54766092 223.098776,8.69377478 221.721953,8.52678751 C220.76235,8.40154706 209.476574,11.156837 208.308361,12.5553554 C208.892467,12.8267097 209.038494,12.88933 213.940818,11.5951786 L213.940818,11.616052 Z" id="Path" fill="url(#radialGradient-3)"></path>
                        <path d="M255.078617,51.6095034 L258.20776,50.9833011 C258.20776,50.9833011 259.021338,50.6284531 259.229947,50.0439977 C259.355113,49.6682763 259.229947,49.4177954 259.08392,49.2090613 C258.812728,48.7498464 258.249482,48.5828591 257.915707,48.1862643 C257.707097,47.9357834 257.686237,47.6853025 257.686237,47.5391886 C257.686237,47.4974418 257.686237,47.4348216 257.644515,47.4139482 C257.644515,47.4139482 257.248157,47.1425939 256.142526,47.2887077 C254.744842,47.5809355 250.739539,49.9187572 252.929939,51.2546554 C253.409741,51.5468831 254.223318,51.797364 255.099478,51.6303768 L255.078617,51.6095034 Z" id="Path" fill="url(#radialGradient-4)"></path>
                        <path d="M613.615817,314.697948 C613.115154,305.82675 612.697935,293.970653 611.780053,285.141201 C611.383695,282.490279 611.029059,280.04809 610.695284,277.772888 C608.567466,270.759423 608.379718,269.632259 604.228388,244.772029 C604.27011,244.855522 604.353554,245.001636 604.395276,245.08513 C597.608512,222.541848 594.159502,210.727499 594.048243,209.642082 C594.048243,209.642082 594.131687,209.746449 594.19427,209.788196 C590.606186,199.205377 588.958171,195.594278 584.076708,185.053206 L573.18729,163.720582 C570.183313,159.754635 566.699534,156.247902 561.567739,152.949903 C566.365758,155.997421 570.204174,159.48328 573.18729,163.720582 C568.994239,156.874104 563.612113,147.585437 559.147869,140.905946 C540.018375,114.793312 539.663739,114.29235 527.814717,101.517824 L515.152119,88.7015509 L515.110397,88.6598041 C514.630595,88.2214625 514.150793,87.7831209 513.670991,87.3656527 C514.213376,88.096222 514.421985,88.3884497 519.678946,93.8364094 C518.719342,93.2937008 517.905765,92.5422581 517.029605,91.9160558 C518.510732,94.6087256 521.180934,96.1324844 523.246169,98.2198253 C523.100142,98.3241923 522.912393,98.4494328 522.766367,98.5537998 C513.921323,91.3524738 506.411379,82.6691357 497.482892,75.5721767 C501.947136,78.3483401 505.451776,82.4604016 510.312378,84.6938564 C509.165025,82.6065155 495.605406,70.8756597 486.676918,65.4903202 C480.272605,61.6078662 479.563333,60.9607905 478.895782,60.3345883 C479.27128,60.4389553 479.751081,60.626816 480.084857,60.7938033 C479.375584,60.2302212 479.000087,59.9171201 477.206045,58.8317028 C477.060019,58.9360699 476.893131,59.0821837 476.747104,59.2074242 C476.183859,58.9986901 475.078228,58.5812219 470.801733,55.6589447 C471.17723,55.8050585 471.677893,55.9929192 472.074251,56.0972863 C471.344117,54.3856667 463.52126,50.7954404 462.937153,50.6284531 C463.173577,51.2268242 463.72987,52.0339293 464.60603,53.0497686 C461.873245,52.1104652 460.517283,49.2299348 457.805359,48.2697579 C458.306022,49.5012891 459.661984,50.0857445 460.183508,51.3172756 C459.529864,52.750583 459.258672,53.9055783 459.36993,54.7822615 C459.620262,56.7443619 465.941131,67.8490154 465.982852,67.9533825 C470.676567,75.1755819 470.488818,77.7012644 470.467957,77.9726187 C469.856036,82.4534438 468.319279,85.5705395 465.857687,87.3239059 C464.501725,88.3049561 464.522586,88.7641711 465.252719,90.5384109 C465.357024,90.7680183 475.224255,113.874882 484.31963,109.658453 C487.240164,108.301682 485.779897,103.459051 485.070625,101.121229 C485.821619,101.663938 502.134884,117.882576 505.180583,123.017435 C506.619989,125.459624 507.996812,127.755699 510.500126,127.755699 C511.000789,126.837269 511.251121,120.429132 509.686549,117.485982 C506.056743,110.743871 506.891181,109.971554 508.726945,108.280808 C508.789528,106.652682 508.60178,106.047354 503.866343,102.916342 C501.682897,101.469119 499.110046,98.3520236 496.147791,93.5650551 C494.458053,90.8306386 497.253421,87.3865261 494.750107,84.77735 C490.383214,80.2408625 488.137185,77.8404205 488.012019,77.576024 C487.907714,77.3255431 487.761687,76.9915685 487.636522,76.7410876 C487.740826,76.5949737 487.865992,76.3862397 487.970297,76.2401258 C490.390168,77.0541887 498.525939,82.4186548 499.110046,84.1094009 C498.901436,84.1302743 498.651105,84.1511477 498.442495,84.1720212 C502.642501,93.5650551 506.731247,100.112348 510.708736,103.813899 C515.903113,108.65653 523.830275,107.92596 529.066374,112.726844 C528.148493,112.601604 527.397498,112.100642 526.56306,111.787541 C526.417033,111.871035 526.208424,111.996275 526.062397,112.100642 C526.375311,112.726844 526.813392,113.290426 527.188889,113.874882 C524.14319,112.998199 521.243517,111.683174 518.093513,111.265706 C521.53557,116.024843 526.479616,119.573323 529.170679,124.937789 C525.770344,124.812548 525.540873,119.86555 521.869346,120.136905 C521.765041,120.303892 521.619014,120.533499 521.514709,120.700487 C521.556431,120.763107 525.666039,128.298407 526.083258,128.841116 C526.646504,129.550812 529.421011,133.120165 529.233262,134.706544 C527.842532,134.581304 527.015047,134.553472 526.750809,134.62305 C526.458755,135.270126 526.354451,135.979822 526.083258,136.626898 C526.187563,136.773011 526.33359,136.960872 526.437894,137.106986 L526.375311,137.106986 C519.977953,136.647771 516.751458,136.731265 516.695829,137.357467 C516.299471,137.607948 515.777947,137.921049 515.360728,138.17153 C513.378938,137.023492 510.854762,136.313796 508.205421,135.771088 L512.836553,136.585151 C512.064698,136.000695 509.978602,134.43519 506.223631,134.62305 C504.951113,134.685671 504.659059,134.706544 501.091836,130.594482 C498.463356,127.588712 495.375935,123.205296 495.542823,119.448082 C495.605406,117.90345 493.268979,111.349199 491.516659,111.161339 C491.308049,111.161339 486.322282,111.119592 487.177581,113.561781 C487.532217,114.605451 493.93653,125.772725 498.463356,131.011951 C500.29912,133.141038 500.382564,133.412393 500.445147,133.558506 C500.215676,133.808987 500.173954,133.871608 498.797132,134.122089 C497.837528,134.289076 496.544149,134.49781 495.584545,134.664797 C495.292491,135.061392 494.916994,135.583227 494.645802,135.979822 C491.25242,135.882413 489.096788,136.285965 488.178907,137.19048 C488.450099,138.588998 488.929901,141.177301 490.619638,145.915565 C490.369307,146.353906 490.056392,146.917488 489.806061,147.35583 C486.968971,147.286252 484.750757,147.550648 483.151417,148.149019 C483.165324,148.302091 483.777245,149.874554 484.987181,152.86641 C484.006716,153.534359 482.546449,154.264928 481.399097,154.619776 C481.378236,155.663446 481.086182,157.082838 480.648102,158.043015 C475.745778,157.792534 474.973923,157.208079 472.825245,155.642573 C473.346769,156.581876 474.139485,157.792534 474.765314,158.648344 C474.619287,159.128432 474.410678,159.775508 474.264651,160.255596 C473.284186,160.673065 471.928224,161.174026 470.906037,161.424507 C469.320605,160.408668 467.255371,159.865959 464.710334,159.796381 C464.501725,160.234723 464.230532,160.840052 464.021923,161.299267 C464.981527,162.134203 466.254045,163.261367 467.213649,164.117177 C466.817291,164.409405 466.295767,164.785126 465.899409,165.05648 C488.846457,171.443744 485.237512,194.50886 485.112346,194.717594 C474.410678,193.945278 464.126228,190.751647 453.487142,189.666229 C454.008665,190.584659 454.843104,191.732697 455.552376,192.525886 C455.552376,192.797241 456.720589,221.310317 460.392117,222.395735 C459.738474,228.254205 459.349069,231.454794 459.223904,231.997503 C466.650403,231.413047 468.194114,231.30868 471.385839,232.018376 C472.20637,235.372037 472.637496,237.083657 472.679218,237.153235 L490.077253,231.3713 C494.875272,230.765971 496.085208,224.670936 493.49845,220.579748 C496.272956,209.120246 496.398122,209.0785 503.57429,206.239716 C503.643826,200.075103 503.93588,196.784062 504.45045,196.366594 C507.767341,193.611304 510.3541,198.015593 513.462382,198.036466 C516.299471,193.005975 518.635898,189.749723 523.05842,193.569557 C523.28789,193.757418 547.57004,221.665165 549.969049,229.492694 C551.763091,235.399868 550.949514,235.525109 540.685925,236.923627 C542.688577,240.325993 548.905141,245.711332 548.946863,245.732206 C549.823023,242.956042 548.091564,240.263372 548.613087,237.508083 C549.072028,237.570703 549.676996,237.654196 550.135937,237.716817 C551.429316,235.796463 551.929979,233.521261 553.139914,231.559161 C552.124681,228.010681 551.630972,225.596324 551.658787,224.316088 C552.117728,224.190848 552.743556,224.02386 553.202497,223.919493 C553.828326,224.775303 554.641903,225.902467 555.288592,226.737404 C554.94091,225.067531 552.02733,220.941554 546.547853,214.359472 C546.673019,213.879384 546.819045,213.253181 546.92335,212.773093 C543.064074,211.0406 539.997514,209.683829 529.713064,188.622559 C530.192866,187.850243 531.215053,186.994433 532.070352,186.660459 L555.413758,214.108991 C555.469387,214.192485 557.812768,220.906765 562.443899,234.251831 L569.849538,251.221912 C569.974703,250.240862 570.058147,248.925837 570.058147,247.923914 C570.058147,243.895346 568.514437,240.159005 567.72172,236.276551 C566.038937,227.885441 565.60781,223.376785 566.428341,222.750582 C568.681324,223.230671 573.3959,226.048581 574.397225,229.722301 C574.877027,228.866491 575.419412,227.655834 575.753187,226.737404 C576.25385,226.695657 576.921401,226.65391 577.422064,226.633037 C578.944913,215.152662 570.76742,205.237792 572.185964,193.799164 C573.020402,193.506937 574.334643,193.59043 575.14822,193.945278 C574.960471,194.362746 574.689279,194.947202 574.480669,195.36467 C575.920075,197.055416 576.504182,197.493758 578.193919,198.495681 C578.513787,199.845495 578.499879,201.564072 578.152197,203.651413 C579.654186,205.342159 580.342597,207.533867 581.635976,209.349854 C587.164129,206.156222 578.924052,200.499529 580.551207,195.844758 C583.012799,195.322923 583.430018,196.136986 584.13929,198.036466 C583.888959,198.474808 583.576045,199.080137 583.325713,199.518478 C583.895913,200.436908 584.605185,202.538165 585.45353,205.822248 C585.182338,206.218843 584.827702,206.761551 584.535649,207.158146 C588.520091,216.968648 597.532022,224.629189 597.156525,236.339172 C596.760167,236.568779 596.196921,236.88188 595.779702,237.111488 C591.023405,233.917856 591.273736,223.355911 583.534323,225.380632 C583.47174,226.299062 582.991938,227.530593 582.366109,228.198542 C581.448227,227.885441 580.19657,227.530593 579.257827,227.321859 C579.445576,228.198542 580.092266,229.304833 580.738955,229.931035 C578.965774,231.433921 576.566764,230.515491 574.647557,231.475667 C574.480669,232.519338 574.397225,233.959603 574.438947,235.003273 C574.877027,235.128514 575.461134,235.316375 575.899214,235.441615 C576.671069,241.307043 578.110475,252.223836 585.328365,258.318871 C585.66214,257.984897 586.10022,257.525682 586.454856,257.191707 C586.454856,256.711619 586.413134,256.085416 586.392273,255.605328 C588.749561,257.567428 589.521416,260.865427 592.254201,262.5353 C592.587976,261.61687 592.88003,260.343592 592.984335,259.362542 C593.631024,260.030491 594.715794,260.781933 595.591954,261.136781 C596.781028,283.346088 596.968777,286.769327 594.548906,292.759996 C591.35718,292.488641 590.835656,291.799819 589.81347,288.668808 C588.93731,288.689681 587.706513,289.169769 587.101546,289.816845 C576.483321,289.044529 577.463785,273.598206 566.386619,273.431219 C564.321385,277.125812 565.948539,281.383988 564.529995,285.162075 C564.071054,285.349936 563.466086,285.600416 563.028006,285.767404 C560.733301,284.076658 536.388569,261.929971 534.65711,259.028567 C534.114725,258.13101 534.844858,256.502885 535.408104,255.605328 C536.298171,254.199852 536.402476,249.120656 535.721018,240.36774 C533.071677,238.635247 532.529293,238.343019 530.94386,237.466336 C529.511408,238.551753 525.825973,238.412597 519.887555,237.048868 C519.157422,237.758563 518.23954,238.823107 517.697155,239.720664 C506.140187,235.212008 496.79448,247.882167 485.300095,243.916219 C484.027577,243.811852 483.818967,243.790979 483.589497,243.790979 C480.335188,244.458928 479.229558,244.667662 475.704057,240.451233 C475.078228,240.012892 475.036506,240.012892 475.036506,240.012892 C474.598426,240.388613 473.972597,240.868701 473.5971,241.327916 C471.427561,243.978839 473.075577,247.715179 470.96862,250.386976 C468.34014,253.705848 463.396094,253.643228 460.955363,257.233454 C460.225229,258.297998 460.579866,260.197478 460.496422,261.491629 C460.009666,270.80117 458.514631,276.068226 456.011317,277.2928 C452.631843,278.920926 446.811637,283.429582 446.102364,284.577619 C444.016269,287.938238 428.600025,314.697948 428.600025,314.718822 C427.974196,321.857528 432.688771,327.889943 432.813937,334.882535 C432.918242,340.747963 424.553,343.524126 427.202341,350.328857 C431.165922,360.515081 436.652353,369.949862 441.346067,379.781237 C443.327857,383.914172 458.139134,398.066343 460.934502,397.794989 C474.869618,396.479964 488.345794,391.219865 502.614686,392.764497 C503.073627,392.806244 503.616012,393.202839 503.970648,393.495067 C506.536545,395.645028 504.700781,399.548355 507.224957,401.71919 C509.686549,403.869151 512.899136,402.804607 515.673643,403.68129 C516.897485,407.382841 516.751458,411.014815 515.235563,414.57721 C539.24652,419.023246 554.391571,423.051814 565.322711,428.395406 C554.558459,423.156181 538.996188,418.981499 515.235563,414.57721 C511.02165,424.499037 509.234562,430.879342 509.874298,433.718126 C511.397147,440.41849 513.504103,449.60279 504.909391,469.766503 C500.966671,479.05517 493.415006,485.859901 488.199767,494.292758 C483.360026,502.120286 482.796781,511.638561 478.311676,519.612203 C460.871919,550.650962 460.371256,551.172797 457.575888,554.053328 C455.677542,555.994555 454.634494,557.079972 452.673564,561.567755 C461.602052,564.343918 472.115973,557.184339 475.55803,554.825644 L489.388842,545.077762 L506.891181,531.113451 C510.833901,526.980516 513.191189,521.61605 517.425963,517.712723 C522.265704,513.245813 528.711738,511.074979 533.488896,506.524576 C544.878977,495.607783 555.476341,473.941184 556.581971,471.248515 C560.983633,460.456962 576.086963,443.966969 580.572067,439.207832 C587.602209,431.401177 597.05222,410.90349 599.388647,402.867227 C598.192619,402.47759 596.551557,402.505422 594.465462,402.950721 C593.992614,402.296688 594.249899,397.690622 595.237317,389.132524 C595.779702,384.373387 594.715794,379.697744 594.63235,374.980353 C594.382018,362.706789 596.781028,350.495845 595.675397,338.201407 L592.421089,299.481233 C592.935659,300.288339 593.464136,302.556582 594.006521,306.285965 C594.840959,305.597142 595.50851,304.219497 595.758841,303.175827 C603.686003,332.398599 595.279039,361.704865 596.217782,390.948511 C598.345599,389.946587 599.88931,389.549993 600.848914,389.758727 C606.495278,377.568656 609.457534,370.687389 609.73568,369.114925 C609.652236,369.63676 609.547931,370.325583 609.464487,370.847418 C609.652236,369.887241 609.881706,368.59309 610.048594,367.632913 L610.215482,366.568369 L611.154225,359.805385 L611.154225,359.805385 C611.529722,356.71612 612.009524,352.85454 612.739657,342.334342 C612.739657,342.897924 612.718796,343.419759 612.697935,343.920721 C613.115154,334.819915 613.699261,323.443907 613.657539,314.718822 L613.615817,314.697948 Z M611.634027,348.575491 C611.216807,347.698808 611.161178,343.593704 611.467139,336.26018 C611.258529,338.584086 611.091642,340.260916 610.966476,341.290671 C610.132038,317.474112 610.486674,315.303277 610.966476,312.276633 C612.343299,314.384847 612.927406,331.981131 612.718796,342.125608 C612.259855,346.279416 612.092967,346.926492 611.634027,348.575491 Z" id="Shape" fill="url(#radialGradient-5)"></path>
                        <path d="M604.729051,244.500674 C604.833356,244.897269 604.958522,245.419104 605.041965,245.815699 L606.627398,252.912658 C606.606537,252.808291 606.564815,252.662177 606.543954,252.55781 C607.1072,256.774239 607.941638,260.948921 608.776076,265.102729 C606.356205,249.510293 605.459184,246.295788 601.85024,233.312527 C601.20355,231.30868 600.598582,229.4092 600.014476,227.63496 C603.748586,240.388613 603.873752,240.910448 605.438323,247.610812 C605.208853,246.567142 604.979382,245.502598 604.729051,244.458928 L604.729051,244.500674 Z" id="Path" fill="url(#radialGradient-6)"></path>
                        <path d="M599.054872,224.378708 C599.200899,224.796177 599.367786,225.192771 599.534674,225.589366 C599.054872,224.065607 598.429043,222.583595 598.116129,220.997216 C598.303878,221.498178 598.470765,221.99914 598.637653,222.500102 L594.86182,211.311954 L594.903542,211.458068 C594.444601,210.226537 594.340296,209.976056 594.19427,209.788196 C595.675397,214.192485 597.4903,219.786558 600.035337,227.655834 C599.743283,226.633037 599.430369,225.547619 599.075733,224.357835 L599.054872,224.378708 Z" id="Path" fill="url(#radialGradient-7)"></path>
                        <path d="M610.987337,278.774812 C610.507535,274.182662 609.652236,269.653132 608.776076,265.123602 C609.318461,268.630335 609.944289,272.76327 610.695284,277.772888 C610.799588,278.106863 610.883032,278.419964 610.987337,278.774812 Z" id="Path" fill="url(#radialGradient-8)"></path>
                        <path d="M429.768238,129.342078 C429.768238,129.342078 429.705655,129.529939 429.643072,129.613432 C428.453998,131.951254 427.577838,136.39729 427.577838,136.439037 C427.285785,138.23415 427.390089,139.08996 427.974196,139.820529 C428.996383,141.05206 433.731819,140.530225 437.173876,138.317644 C438.050036,137.754062 438.842753,137.106986 439.781495,136.647771 C440.866265,136.105062 442.305671,136.501657 443.140109,135.332746 C443.619911,134.664797 443.411301,133.141038 442.576863,130.782343 C442.138783,129.571685 441.63812,128.841116 441.074875,128.047927 C440.177854,126.712028 440.115271,126.252813 440.720238,124.854295 C440.97057,124.26984 441.387789,123.267916 441.074875,122.036385 C440.741099,120.825727 439.823217,119.969917 439.072223,119.489829 C438.717587,119.239348 438.196063,118.94712 437.778844,118.75926 C436.694074,118.237424 435.484139,117.986943 434.39937,117.485982 C433.606653,117.11026 433.3146,116.818033 433.189434,116.671919 C433.08513,116.567552 433.08513,116.567552 432.980825,116.567552 C432.688771,116.651045 425.533465,118.425285 430.018569,120.930094 C430.310623,121.097081 430.456649,121.180575 431.103339,121.243195 C430.936451,121.410183 430.644398,121.535423 430.456649,121.63979 C427.494394,123.100929 426.785122,123.810625 426.117571,124.499447 C425.637769,124.979535 425.116246,125.835345 425.324855,127.129497 C425.512604,127.588712 425.762935,128.256661 426.931148,128.820243 C427.828169,129.279458 428.850356,129.091597 429.789099,129.342078 L429.768238,129.342078 Z" id="Path" fill="url(#radialGradient-9)"></path>
                        <path d="M580.697233,264.163426 C580.697233,264.163426 580.801538,264.121679 580.84326,264.100805 C580.84326,264.059059 580.84326,264.017312 580.822399,263.975565 C580.801538,263.954692 578.089614,260.447959 578.089614,260.447959 C577.609812,259.90525 577.088288,259.759136 576.90054,259.696516 C576.02438,259.487782 575.085637,259.508655 574.230338,259.195554 C573.201197,258.805917 572.644905,258.611099 572.561461,258.611099 C571.852189,258.652846 571.664441,259.237301 572.08166,259.96787 C572.978681,261.533376 579.070079,264.706134 580.697233,264.163426 L580.697233,264.163426 Z" id="Path" fill="url(#radialGradient-10)"></path>
                        <path d="M523.079281,221.456431 C523.642527,222.06176 524.831601,221.769532 525.061071,222.85495 C525.269681,223.836 524.873323,224.837923 525.144515,225.818974 C525.373986,226.612163 525.937231,226.758277 526.166702,226.820897 C526.813392,226.987884 530.130283,225.923341 530.213727,223.251544 C530.213727,222.959317 530.172005,222.562722 530.130283,222.249621 C529.963395,221.14333 529.546176,220.09966 529.379289,218.972495 C529.212401,217.782711 529.295845,216.572053 529.108096,215.403143 C528.836904,213.524536 528.169353,213.315802 527.501803,213.232308 C526.437894,213.253181 523.851136,214.234232 522.933254,215.945851 C522.390869,216.947775 522.244843,220.579748 523.05842,221.435558 L523.079281,221.456431 Z" id="Path" fill="url(#radialGradient-11)"></path>
                        <path d="M506.578267,220.913722 C506.578267,220.913722 507.934229,219.410837 507.934229,219.327343 C508.059395,218.784635 507.120652,218.346293 505.472637,218.158433 C503.678595,217.991445 500.820644,218.367167 501.926275,219.661318 C502.552103,220.371014 504.88853,221.372937 505.848134,221.310317 C506.181909,221.310317 506.348797,221.14333 506.578267,220.913722 Z" id="Path" fill="url(#radialGradient-12)"></path>
                        <path d="M523.05842,205.905742 C522.787228,206.156222 522.516035,206.38583 522.62034,206.970285 C522.662062,207.179019 522.870671,207.596488 523.100142,207.867842 C523.121003,207.888715 525.6869,210.91536 525.874649,210.998853 C526.458755,210.727499 525.916371,206.156222 525.415708,203.776654 C525.415708,203.734907 524.60213,200.144681 524.080607,199.810706 C524.080607,199.810706 524.038885,199.810706 524.018024,199.810706 C523.997163,199.852453 523.913719,199.935947 523.871997,200.165554 C523.871997,200.228174 523.830275,200.332541 523.830275,200.395162 C523.621666,201.543199 524.018024,202.64949 524.018024,203.797527 C524.018024,205.070805 523.475639,205.53002 523.100142,205.884868 L523.05842,205.905742 Z" id="Path" fill="url(#radialGradient-13)"></path>
                        <path d="M591.336319,272.304055 C591.336319,272.304055 592.838308,272.596283 592.984335,272.450169 C593.213805,272.220561 593.526719,268.797322 593.526719,268.755576 C593.526719,268.692955 593.526719,268.609462 593.526719,268.546841 C593.526719,268.17112 593.443275,268.150247 593.359832,268.129373 C592.921752,268.129373 592.546254,268.421601 592.108174,268.421601 C591.816121,268.421601 591.482346,268.317234 591.169432,268.1085 C590.773073,267.858019 590.522742,267.440551 590.084662,267.25269 C589.730026,267.106576 589.583999,267.294437 589.521416,267.398804 C589.104197,267.941513 589.542277,270.571562 590.585325,271.761346 C590.898239,272.137068 591.211154,272.262308 591.35718,272.304055 L591.336319,272.304055 Z" id="Path" fill="url(#radialGradient-14)"></path>
                        <path d="M450.357999,128.152294 C450.045084,128.19404 450.086806,128.361028 450.191111,128.674129 L452.339789,128.841116 C451.192437,128.298407 450.712635,128.152294 450.357999,128.13142 L450.357999,128.152294 Z" id="Path" fill="url(#radialGradient-15)"></path>
                        <path d="M242.624628,150.841689 C244.669002,148.169893 245.566023,146.395653 245.29483,145.560717 C245.190526,145.51897 245.044499,145.477223 244.919333,145.498096 C243.813703,145.873818 240.830586,148.3995 238.535882,151.238284 C235.740514,154.661523 233.863028,158.690091 231.130243,162.155077 C229.669977,163.991937 227.646464,165.306961 226.269641,167.227315 C225.748117,167.978758 226.165336,168.187492 226.394807,168.291859 C226.631231,168.417099 229.510043,168.702369 235.031242,169.147669 C239.766678,169.52339 243.229596,169.940858 246.921985,170.942782 C247.339204,171.047149 247.90245,171.255883 248.319669,171.276756 C249.65477,171.36025 251.052453,170.024352 252.366693,171.381123 C253.013383,172.069946 253.075966,173.32235 253.117688,174.157287 C253.15941,175.054843 253.59749,175.138337 253.847821,175.117463 C255.182922,174.97135 256.810076,172.40392 256.976964,170.253959 C257.227296,166.7681 254.598815,161.38276 251.949474,158.523103 C251.031592,157.535095 248.952451,157.395939 245.712049,158.105635 C244.230922,158.418736 243.918008,158.105635 243.563371,156.874104 C242.916682,154.536282 242.353436,154.118814 241.456415,153.659599 C240.976613,153.409118 240.976613,153.242131 241.206084,152.782916 C241.539859,152.13584 242.186548,151.405271 242.645489,150.841689 L242.624628,150.841689 Z" id="Path" fill="url(#radialGradient-16)"></path>
                        <path d="M435.817914,107.758973 C436.089107,109.449719 434.795728,111.036098 435.463278,112.747718 C435.984802,112.935579 437.069572,112.810338 439.364276,111.077845 C440.198715,110.430769 440.928848,109.888061 441.492094,110.201162 C443.849381,111.495313 441.116596,114.041869 441.930174,115.899603 C443.557328,119.635943 445.497397,120.157778 447.938128,120.804854 C451.755683,121.806777 452.235484,121.932018 452.944757,122.412106 C453.069923,123.017435 452.715286,123.643637 453.049062,124.228093 C454.071248,126.064953 455.886151,127.296484 456.783172,129.216837 C457.262974,131.199811 454.863965,130.051774 453.090784,129.216837 C452.590121,128.980272 451.623563,128.806327 450.191111,128.695002 C451.04641,131.199811 453.862639,132.389596 454.425885,135.082265 C454.738799,136.522531 453.382837,137.294847 451.442768,138.23415 C450.942105,138.484631 450.149389,138.860352 450.441442,139.444808 C450.587469,139.757909 451.442768,140.738959 456.094761,140.613719 C458.05569,140.551098 462.144437,140.446731 462.269603,141.78263 C462.373908,143.014161 461.435165,142.993287 460.01662,142.972414 C458.639797,142.95154 458.222578,143.327262 457.701054,143.80735 C456.699728,144.704907 456.553702,146.124299 455.677542,147.105349 C454.592772,148.316007 453.132505,149.067449 452.026875,150.257234 C452.026875,150.361601 452.068597,150.528588 452.068597,150.632955 C452.485816,150.730364 455.642773,150.410305 461.539469,149.672778 C466.024574,149.109196 470.551401,149.464044 475.015645,148.816968 C475.057367,148.816968 475.11995,148.816968 475.182533,148.796095 L482.880224,146.186919 C482.880224,146.186919 482.942807,145.999058 482.963668,145.915565 C481.357375,144.329185 479.333862,145.727704 477.581542,145.122375 C476.747104,142.805427 478.895782,140.676339 478.019622,138.359391 C476.455051,134.226456 474.807036,134.309949 473.513657,134.372569 C470.53054,134.539557 468.507028,130.364875 468.507028,130.302255 C468.527889,130.239634 468.569611,130.177014 468.590472,130.114394 C468.715637,130.072647 469.557029,130.225719 471.114647,130.573609 C472.178556,130.94933 473.617961,131.450292 473.513657,130.907584 C473.513657,130.88671 473.492796,130.844963 473.492796,130.82409 C473.346769,130.615356 473.075577,130.218761 472.261999,129.592559 C468.632194,126.774649 464.105367,125.397004 460.809336,122.119878 C459.223904,120.554373 458.076551,118.550526 456.157344,117.339868 C452.819591,115.21078 449.753031,114.772439 448.209321,114.688945 C448.209321,114.688945 448.18846,114.688945 448.167599,114.688945 C450.128528,112.935579 452.694425,104.314861 447.437465,104.106127 C446.477861,104.06438 445.393092,104.210494 444.683819,104.293987 C441.366928,104.732329 440.76196,104.794949 440.741099,103.939139 C440.699377,102.206646 443.661633,98.9295212 441.220901,98.7834073 C441.158318,98.7834073 434.670562,98.9086478 433.710958,101.225596 C433.627514,101.43433 433.731819,101.768305 433.773541,101.997912 C434.086455,104.043506 435.505,105.713379 435.838775,107.7381 L435.817914,107.758973 Z" id="Path" fill="url(#radialGradient-17)"></path>
                        <path d="M393.365875,64.4675232 C393.365875,64.3631562 393.386736,64.2170423 393.365875,64.0918018 C392.990378,63.4447262 391.94733,62.2131951 390.695673,61.7122332 C390.487063,61.6287396 390.19501,61.5243726 389.986401,61.4617523 C388.108915,60.9399171 386.106263,61.3991321 384.249639,60.6476894 C382.935398,60.1258542 381.975795,58.8108294 380.390362,58.894323 C378.59632,59.3326646 376.885722,60.0841074 375.09168,60.5015755 C373.33936,60.9190437 371.503596,60.8146767 369.772137,61.3991321 C368.666507,61.7748535 369.459223,63.131625 368.603924,63.6325869 C367.665181,64.1752955 366.705577,63.1524985 365.787695,63.6952071 C365.641668,63.7787007 365.45392,63.9039412 365.328754,63.9874348 C364.974118,65.5320671 366.371802,67.3271802 364.682065,68.6839518 C364.160541,68.4752177 360.217821,65.2189659 359.55027,63.9874348 C358.069142,61.1695246 351.789996,59.4370317 350.037676,60.8355501 C350.538338,62.2549419 352.269798,61.9627141 353.041653,62.9855112 C352.561851,65.0519787 350.100258,64.7180041 349.119794,66.1791427 C349.7039,66.5966109 351.66483,66.3043832 352.77046,66.0956491 C354.73139,65.7408011 360.86451,67.8698888 357.443314,70.7086725 C358.903581,72.5037856 360.86451,70.9800268 362.512525,71.4601152 C364.243985,71.9402036 364.264846,72.5872792 364.264846,74.1110381 C364.661204,74.4450126 365.01584,74.6119999 368.478758,74.2362785 C370.731741,74.006671 371.524457,73.9440508 372.23373,73.9857976 C373.881745,74.0901647 375.425455,74.820734 377.073471,74.925101 C377.28208,74.925101 377.553273,74.9459744 377.761882,74.925101 C378.345989,74.925101 379.159566,74.9042276 383.728115,73.7770636 C387.858583,72.7751399 394.179452,68.18299 393.866538,66.8470918 C393.678789,65.9704086 392.927795,65.3859532 392.656603,64.5510168 C392.781768,64.4257764 393.018192,64.370114 393.365875,64.3840296 L393.365875,64.4675232 Z" id="Path" fill="url(#radialGradient-18)"></path>
                        <path d="M346.282704,443.11116 C345.865485,440.898578 348.82774,437.851061 346.011512,436.410795 C344.00886,435.387998 342.02707,436.890884 340.045279,436.452542 C333.599245,435.054024 329.385332,429.439077 323.21049,427.539597 C314.01081,424.700813 304.519076,423.072687 295.19423,420.734865 C289.791243,418.751891 289.29058,412.489869 285.973689,408.878769 C280.278649,405.163302 276.023014,399.151761 270.098504,395.770268 C262.317368,391.345106 252.763052,392.847991 245.044499,388.172348 C238.953101,384.477754 234.864354,378.194858 228.314015,375.042973 C227.354411,374.583758 225.998449,374.16629 224.955401,373.999303 C193.330196,369.240166 168.359636,365.482952 165.522546,390.551916 C156.135117,383.872425 132.019855,394.43437 134.251977,378.841934 C135.607939,369.407153 131.581775,362.456308 131.519193,362.435434 C124.196998,358.719968 116.749638,362.581548 109.344,362.080586 C110.971154,356.695247 111.193671,352.743215 110.01155,350.22449 C112.139367,345.242703 113.599634,340.483566 114.39235,335.947079 C112.994666,334.715547 100.686704,324.779805 98.058224,352.604059 C93.8234505,352.332705 91.0906656,358.281626 86.2300636,355.505463 C74.8399832,348.972086 70.959846,340.685342 69.6456059,336.3228 C68.0393126,330.916587 72.5870003,326.700158 72.4618346,321.607047 C72.3992517,318.350795 68.0184516,316.764416 69.1449431,313.048949 C70.6260707,308.227192 79.5336977,299.147259 81.619793,297.540006 C85.3539036,294.659476 99.810544,297.936601 99.9148488,297.978348 C100.311207,297.665247 100.81187,297.226905 101.208228,296.913804 C100.102597,295.703146 98.475443,295.285678 97.2237858,294.283755 C97.3280906,293.803666 97.4532563,293.177464 97.5575611,292.697375 C100.457234,291.027503 123.404282,289.023656 123.508587,289.086276 C133.354956,294.346375 127.347002,308.164571 136.797014,313.654278 C147.936763,301.881675 130.038065,291.444971 132.019855,279.609748 C134.064229,267.357057 146.309608,264.518274 153.152001,256.690745 C153.005974,256.690745 152.985113,256.690745 152.985113,256.690745 C152.69306,256.356771 152.275841,255.897556 151.983788,255.563581 C152.04637,255.12524 152.108953,254.519911 152.171536,254.081569 C152.609616,253.956329 153.172862,253.789341 153.610942,253.664101 C153.652664,253.121392 153.736108,252.43257 153.79869,251.889861 C153.36061,251.722874 152.818226,251.51414 152.380146,251.368026 L154.65399,228.908238 C154.820877,232.22711 154.820877,242.350713 154.820877,242.350713 C155.53015,241.891498 156.1977,236.735766 156.823529,226.883517 C157.637106,228.449023 159.055651,229.701428 159.431148,231.538288 C161.45466,228.073302 160.766249,223.522899 163.874531,220.517128 C163.957975,220.433634 177.162958,213.253181 178.143423,213.315802 C178.963953,205.578725 181.536804,199.685466 185.861975,195.636024 C186.585155,195.677771 193.239799,192.052756 205.825907,184.760978 C205.638159,185.157573 205.387827,185.679408 205.200079,186.096877 C206.180543,186.451724 207.536505,186.806572 208.600414,186.785699 L208.600414,188.413825 C201.326895,193.59043 197.64146,196.930176 197.544109,198.433061 C204.949747,198.558302 227.709047,185.32456 223.641161,175.054843 C220.512018,177.163058 220.386853,181.003765 218.509367,183.842548 C216.089496,183.153726 214.107706,182.611017 212.45969,182.110055 C214.086845,181.755207 215.338502,180.001841 215.359363,179.980968 C215.359363,179.960094 215.380224,179.918348 215.380224,179.897474 C215.380224,179.897474 215.359363,179.855727 215.338502,179.855727 C215.192475,179.81398 215.150753,179.81398 214.712673,179.897474 C211.79214,180.356689 210.123264,179.709613 209.518296,179.417386 C208.058029,178.686816 207.84942,177.831007 207.953724,176.620349 C207.995446,176.140261 207.912003,176.119387 207.870281,176.07764 C207.84942,176.07764 207.807698,176.119387 207.786837,176.119387 C207.64081,176.369868 206.722928,178.665943 207.557366,180.377563 C204.720277,179.041664 204.240475,177.601399 203.134844,174.157287 C200.464642,173.176236 200.297755,172.967502 199.150402,171.568984 C203.155705,170.483567 206.034517,169.690377 206.868955,165.682683 C205.506039,164.332869 195.339802,169.592968 176.370242,181.46298 C189.429198,167.881348 202.661996,159.051896 216.068635,154.974624 C220.637184,158.105635 241.206084,147.898538 244.356088,142.200098 C243.688537,140.544141 243.841517,138.491589 244.815028,136.042442 C244.543836,135.624974 244.1892,135.040519 243.897147,134.62305 C242.249131,134.268202 240.601116,133.913354 238.953101,133.57938 C237.555417,133.57938 237.513695,133.57938 237.513695,133.57938 C236.512369,133.683747 233.46667,133.975975 228.084544,137.503581 C227.896796,137.106986 227.646464,136.543404 227.479577,136.146809 C229.127592,133.808987 229.899447,133.495886 235.990845,131.137191 C224.183546,132.139115 212.6683,133.141038 199.98484,134.414316 C211.625252,133.182785 221.742814,132.285229 236.053428,131.116318 C236.366343,130.94933 236.825283,130.740596 237.013032,130.448369 C237.284224,129.717799 232.527927,125.647485 226.561695,127.21299 C225.65772,127.449555 224.976262,127.484345 224.517321,127.317357 C224.100102,126.16932 225.038845,124.875168 224.204407,123.768878 C223.077915,122.265992 220.845793,122.641714 219.719302,121.138828 C219.260361,120.491753 219.573275,119.928171 220.470296,118.696639 C221.346456,117.472066 220.824933,115.14816 218.905725,111.724921 C214.079891,103.097245 210.484853,101.037735 208.120612,105.546392 C207.557366,106.590062 208.95505,107.696353 208.058029,108.740023 C207.014982,109.950681 205.137496,108.84439 204.13617,110.180289 C202.634181,112.239798 201.667624,113.332173 201.236498,113.457414 C197.293778,114.668071 194.560993,111.453567 191.118935,110.702124 C190.513968,109.63758 191.86993,102.582368 193.956025,100.912495 C191.953374,100.244546 189.825556,101.225596 187.822905,100.474153 C187.363964,100.307166 187.071911,99.9731916 186.446082,98.9295212 C186.237472,98.5746733 185.73681,97.7188635 180.792764,96.0907376 C179.687133,95.7150162 179.436802,95.7567631 178.602364,95.8193833 C174.075537,97.030041 169.235796,96.0281174 164.792413,97.8649774 C165.585129,102.060533 160.432474,105.83862 163.916253,110.242909 C163.248702,112.288503 160.5785,112.998199 160.432474,115.398641 C160.265586,118.195678 163.102675,119.823803 163.186119,122.537347 C163.186119,122.641714 163.394729,133.475013 157.157304,134.915278 C155.801342,135.228379 152.69306,136.209429 153.36061,138.505504 C153.068557,138.902099 152.901669,139.02734 151.650012,140.00839 C150.001997,146.291286 154.132466,154.139688 146.956298,159.107559 C144.724176,155.68432 140.739734,154.682396 137.631452,152.469815 C139.321189,147.54369 138.591056,145.727704 137.673174,143.452502 C138.152976,143.076781 138.966553,142.387958 139.425494,142.012237 C139.34205,141.761756 139.425494,141.219048 139.34205,140.947693 C138.799665,140.8642 138.069532,140.822453 137.527147,140.843326 C134.585753,138.004543 131.01853,140.571972 127.847665,139.716162 C124.614217,138.839479 122.987063,135.583227 119.899642,134.476936 C119.357257,134.289076 118.647985,134.101215 118.084739,134.017721 C115.26851,133.537633 113.244998,135.624974 110.804266,136.313796 C110.234067,135.854581 109.594331,133.475013 108.885059,129.175091 C108.634727,127.672205 106.743334,126.781606 103.210879,126.503294 C102.021805,119.656816 118.731428,107.237138 125.865874,101.935292 C125.052297,99.7644576 122.653288,100.724634 121.297326,99.6392171 C130.545681,97.9971756 137.805293,94.3652025 143.076161,88.7432977 C137.694035,89.6826011 136.588404,89.8704618 132.228465,87.3865261 C137.401981,85.5287927 144.056625,88.7850445 147.978485,82.7317559 C147.582126,82.4604016 146.935437,82.2307941 146.455635,82.1890473 C146.476496,82.1473005 149.042393,79.0371626 151.754317,80.7696555 C157.762272,78.598821 161.552011,76.8245812 163.123536,75.4469363 C163.64506,75.0085947 164.250028,74.3197722 164.583803,73.7353167 C165.543407,72.1071908 163.957975,70.3538245 164.834135,68.7048252 C165.647712,67.2019398 167.525198,67.3480536 168.589106,66.2208896 C169.173213,65.4694468 169.277518,64.50927 169.694737,63.6952071 C169.611293,63.6117134 162.038767,55.8676788 159.47287,66.8470918 C154.800016,69.5397616 151.462264,80.4774278 145.788084,75.4051894 C146.288747,72.0445706 153.110279,69.8528627 149.918553,66.5131173 C146.309608,67.8698888 144.849342,71.5227354 142.17914,73.8814306 C141.53245,72.065444 145.224839,67.26456 145.266561,67.2228132 C145.141395,67.1671508 144.000996,67.0975727 141.845364,67.0140791 C145.572521,61.0025373 147.4361,57.6349607 147.4361,56.9113492 C147.185768,56.7234885 146.831132,56.4730076 146.601662,56.2851469 C148.729479,53.001064 154.758294,48.4297874 164.688108,42.5713173 C163.992743,42.4878237 163.088768,42.5504439 161.976184,42.759178 C150.043719,45.5562148 133.918202,67.9533825 133.793036,68.1621166 C133.918202,68.4125975 134.08509,68.746572 134.189395,68.9970529 C135.461913,68.9970529 136.71357,68.7048252 137.986088,68.642205 C138.048671,68.8718125 138.111254,69.1849136 138.173837,69.4145211 C135.524496,70.7295459 135.107277,70.9591534 133.897341,72.1280643 L133.897341,72.7751399 L133.897341,72.7751399 C134.126812,72.8168867 134.439726,72.879507 134.669197,72.9421272 C132.12416,77.3046696 126.575147,78.8075551 124.489051,83.6293125 C123.195672,82.2794988 123.758918,80.3104405 126.178789,77.7221378 C124.788058,77.3603321 121.825803,78.9675846 117.292023,82.5438953 C116.916525,82.836123 114.642682,84.2763882 106.256578,83.8797934 C105.714194,83.0866039 105.818498,82.0429335 105.234392,81.2497439 C98.4545821,83.0031103 96.4310696,86.9273111 92.4049057,94.7965863 C91.6539114,92.8136124 93.4062314,91.1854865 93.1767609,89.2651329 C89.5260942,89.8495884 86.5221169,92.8553592 82.516814,92.2500304 C84.1856902,90.6010311 86.8767531,89.9957022 87.5234427,87.3030325 C87.3148331,87.1986654 87.0436408,87.0316782 86.8350312,86.9273111 C85.9380102,87.4073995 85.7919836,87.4908932 83.2052254,87.2195388 C82.9131721,86.8020707 82.4542311,86.2802354 82.0787339,85.9462609 C80.2221091,86.3428557 79.1790615,87.9083613 77.7396557,88.910285 C78.0108481,88.4093231 78.4280672,87.7622475 78.7618424,87.3030325 C78.0942919,87.7900787 77.2181319,88.555437 76.1333623,89.5991075 C76.7035617,88.416281 77.8439605,86.7742395 79.5545586,84.672983 C76.6062106,87.3865261 72.4409736,91.0324149 67.0588478,95.6106492 L67.0379868,95.6106492 C69.5830231,93.1893338 72.3366689,90.9767524 74.944288,88.5763104 C74.923427,88.5763104 69.1449431,92.9179795 61.9479143,100.119306 C62.1982457,99.6809639 62.5737429,99.1173819 62.8866572,98.7207871 C58.4224132,103.730405 52.4770416,110.409896 48.0127976,115.440388 C28.7164161,140.571972 28.3617799,141.05206 19.8296501,155.204231 L19.892233,155.099864 C20.0173987,154.912004 20.1842863,154.640649 20.330313,154.431915 C16.5197122,164.019768 14.3849414,170.121761 13.9260004,172.737895 C13.5505032,173.885932 13.0707013,175.388818 12.6952042,176.536855 C12.9663966,176.975197 13.3001718,177.538779 13.5713642,177.97712 C12.3614289,181.803912 11.1028181,186.980518 9.7955317,193.506937 C9.31572978,195.844758 9.85811456,197.99472 10.5882479,200.123807 C10.3170555,200.01944 9.85811456,199.915073 9.14884216,199.873326 C8.81506691,199.852453 8.64817928,199.789833 8.52301357,199.664592 C8.4187088,199.560225 8.3769869,199.518478 8.18923832,198.808783 C8.10579451,198.453935 7.73029735,197.285024 7.43824401,197.20153 C7.43824401,197.20153 7.43824401,197.20153 7.41738306,197.20153 C7.41738306,197.222403 6.6872497,200.583022 7.50082687,203.338312 C8.16837737,205.613514 9.77467075,205.300413 9.7955317,205.300413 C10.2127508,205.175172 10.6091089,204.757704 10.8594403,204.152375 C11.0889108,203.609667 11.1097717,203.004338 11.1097717,202.753857 C11.1306327,202.378135 11.0471889,202.023287 11.0263279,201.626693 C11.0263279,201.584946 11.0263279,201.543199 11.0263279,201.522326 C11.8190441,203.734907 12.6117604,205.947488 12.4865946,208.34793 C11.7147394,207.909589 10.6508308,207.346007 9.85811456,206.949412 C0.241215215,218.930749 -3.11739822,279.046166 3.28691436,290.27606 C3.84320644,290.373469 8.76639135,299.940448 18.0564691,318.976997 C17.0551434,318.976997 15.7409033,319.018744 14.7604385,319.081364 C16.4501757,322.60897 28.737277,338.514508 28.8415818,338.639748 C29.9680733,337.011622 31.1154257,335.300003 25.4621074,327.284614 C22.8962102,323.631767 19.9756768,319.498832 15.0524919,299.52298 C21.227334,304.031636 21.8740235,306.974787 22.6876007,310.711127 C23.2717074,313.36205 23.9392579,316.367821 25.1074712,318.246428 C27.6316465,322.274996 30.6982066,325.865222 33.3892696,329.76855 C36.8521878,334.819915 42.7766984,337.658698 45.6763709,343.231898 C48.0336586,347.719681 46.9071671,353.71035 51.7260473,357.112715 C52.3727368,357.57193 53.4157845,357.947652 54.1667788,358.239879 C55.5227407,358.761714 57.2541998,359.742765 58.6936056,360.118486 C63.6585124,361.391764 68.748585,362.184954 73.7343527,363.395611 C78.8452862,364.627142 84.269134,361.704865 89.2757627,364.543649 C96.9108715,368.899233 102.070481,371.22314 104.75459,371.515367 C105.359558,371.577987 106.173135,371.682355 106.757241,371.765848 C124.760244,374.291531 132.207604,396.584331 151.921205,395.874635 C160.682805,381.242376 166.106653,398.796913 168.02586,407.021036 C168.429172,408.760486 166.982813,413.241312 163.686782,420.463511 C163.624199,420.651372 158.847041,440.168009 160.912275,443.820856 C161.246051,444.426184 161.66327,445.219374 162.038767,445.803829 C168.505662,455.405597 195.040795,481.664346 195.270265,481.852206 C201.758021,487.44628 210.540483,488.719558 217.362014,493.645682 C222.577253,497.382023 226.45739,504.729463 228.334876,514.352104 C228.418319,514.790446 238.598464,560.440591 256.288553,585.363441 C278.734938,616.986655 300.472051,613.479923 300.6598,613.417302 C286.710776,606.23685 280.396861,599.689557 281.718054,593.775425 C279.784939,591.701999 276.989572,585.627837 273.331951,575.552939 C273.902151,575.372036 275.50149,575.323331 278.12997,575.406825 C278.102156,575.128513 276.502816,572.790691 273.331951,568.393359 C275.779636,566.208609 276.913082,564.253467 276.732287,562.527932 C277.003479,562.360944 277.378976,562.131337 277.650169,561.96435 C284.137925,563.947323 286.307464,558.582857 284.638588,556.119795 L282.740241,553.427125 C297.509796,553.030531 303.788943,517.274381 303.830665,516.919533 C305.958482,512.348257 311.528356,509.655587 313.823061,508.69541 C319.05916,506.524576 319.142604,500.36692 322.834993,496.985428 C324.503869,495.482542 326.005858,495.440796 327.257515,495.607783 C329.427054,495.879137 329.593942,495.900011 329.865134,493.854416 C330.470102,489.366634 330.052883,484.857977 330.282353,480.370194 C330.407519,477.865385 328.926391,475.277083 330.595267,472.81402 C332.535336,469.99611 333.244608,468.931566 331.888646,467.05296 C331.638315,466.718985 331.367123,466.176276 331.262818,465.779682 C343.612502,461.271025 348.014163,447.870297 348.035024,447.76593 C348.035024,447.619816 348.055885,447.411082 348.035024,447.264968 C347.763832,445.782956 346.553896,444.697539 346.282704,443.215527 L346.282704,443.11116 Z M36.3932468,163.699709 C40.7740469,162.259444 45.3843176,160.902672 50.1406149,159.587647 C45.4051785,160.902672 40.7949079,162.259444 36.3932468,163.699709 L36.3932468,163.699709 Z M176.55799,418.751891 C182.127865,418.042196 187.822905,417.374246 193.789137,416.685424 C188.281846,417.3325 182.607667,418.000449 176.55799,418.751891 Z M301.76543,497.048048 C301.53596,494.877214 300.805826,487.759381 299.658474,475.172716 C300.346885,482.520155 301.035297,489.825849 301.807152,497.507263 C301.786291,497.340276 301.76543,497.194162 301.744569,497.027175 L301.76543,497.048048 Z M295.820059,428.625014 C295.84092,429.042482 295.882642,429.439077 295.903502,429.835672 C295.882642,429.439077 295.84092,429.021609 295.820059,428.625014 Z" id="Shape" fill="url(#radialGradient-19)"></path>
                    </g>
                </g>
            </g>
            <g id="Asset-1" opacity="0.9">
                <path d="M314.875298,562.568182 C314.175339,562.568182 313.605002,561.999176 313.579078,561.300851 C308.679364,343.500979 458.003959,126.32184 567.197568,66.5245118 C596.466226,50.488896 620.342606,47.6180035 636.208344,58.222201 C653.629547,69.8350905 660.447667,97.6387792 655.936819,138.581327 C655.859046,139.279652 655.23686,139.79693 654.510977,139.719339 C653.811018,139.641747 653.29253,138.99515 653.370303,138.296824 C657.777453,98.3629683 651.348199,71.4127882 634.782502,60.3689044 C619.772269,50.3595765 596.829168,53.2563329 568.44194,68.8005347 C459.792743,128.287497 311.271805,344.406215 316.145594,561.249123 C316.145594,561.973312 315.601181,562.542318 314.875298,562.568182 L314.849374,562.568182 L314.875298,562.568182 Z" id="Path" fill="url(#linearGradient-20)" opacity="0.408886864" style="mix-blend-mode: screen;"></path>
                <path d="M569.904812,509.643649 C569.697535,509.643649 569.490258,509.591916 569.28298,509.488449 C568.661148,509.152184 568.427961,508.350319 568.764787,507.72952 C656.365348,349.400024 636.751735,155.736744 568.350233,67.0918851 C534.330849,22.9893217 485.361591,-0.963155537 437.325081,2.9944352 C399.833803,6.09842793 368.794031,25.6535821 352.160029,56.6935095 C351.823203,57.314308 351.045913,57.5471075 350.398172,57.2367082 C349.77634,56.9004423 349.517243,56.1244441 349.854069,55.477779 C366.928535,23.6618535 398.719688,3.58936714 437.117804,0.433641193 C486.035242,-3.60154936 535.859519,20.7130604 570.423005,65.5140222 C639.316791,154.805546 659.163591,349.73629 571.044837,508.971117 C570.81165,509.41085 570.371186,509.643649 569.904812,509.643649 Z" id="Path" fill="url(#linearGradient-21)" opacity="0.408886864" style="mix-blend-mode: screen;"></path>
                <path d="M498.266355,496.902558 C497.904041,496.902558 497.515847,496.746876 497.257051,496.435514 C423.086169,406.55549 296.974966,299.62836 182.380177,263.354609 C81.6827232,231.465882 21.2280196,252.275287 5.95906624,287.044119 C-2.45179792,306.244817 5.28619711,326.872593 25.2393548,338.418959 C25.8604648,338.782216 26.0675015,339.560622 25.7051873,340.183348 C25.3428732,340.806073 24.5664857,341.013648 23.9453757,340.650392 C2.80175723,328.429407 -5.37619069,306.452392 3.60402428,285.980296 C19.3129306,250.147642 80.9580949,228.507937 183.182444,260.863708 C298.268945,297.319087 424.87186,404.609473 499.275659,494.774913 C499.741491,495.319798 499.663853,496.150098 499.094502,496.591195 C498.861585,496.79877 498.55103,496.876611 498.266355,496.876611 L498.266355,496.902558 Z" id="Path" fill="url(#linearGradient-22)" opacity="0.408886864" style="mix-blend-mode: screen;"></path>
                <path d="M47.3389841,501.802978 C47.158018,501.802978 46.9770519,501.7771 46.7960859,501.673591 C46.1497785,501.363064 45.8654032,500.612624 46.1497785,499.965693 C65.564852,457.682261 103.826248,426.50017 138.158096,400.59704 C266.307922,303.919622 408.805772,235.112005 539.411566,206.854044 C645.302566,183.926798 734.673949,189.982075 767.066875,222.276887 C783.043593,238.191398 782.629956,259.28136 765.903522,281.665184 C765.489885,282.234483 764.662611,282.36387 764.093861,281.923956 C763.52511,281.484043 763.395849,280.681848 763.835338,280.112549 C779.915465,258.582674 780.406659,239.200611 765.257214,224.088295 C733.458891,192.38866 645.044043,186.618032 539.980316,209.364138 C409.736454,237.570344 267.600537,306.19682 139.735086,402.641343 C105.661761,428.363333 67.6847402,459.28665 48.5281896,501.000783 C48.3213713,501.466573 47.8301777,501.751223 47.3648363,501.751223 L47.3389841,501.802978 Z" id="Path" fill="url(#linearGradient-23)" opacity="0.408886864" style="mix-blend-mode: screen;"></path>
                <path d="M712.799933,388.11324 C712.154475,388.11324 711.61229,387.648259 711.509017,387.00245 C693.43619,253.940141 595.378197,180.033858 509.661362,155.234825 C416.999399,128.446703 325.137803,149.29339 275.566622,208.397751 C275.101892,208.94023 274.301524,209.017727 273.759339,208.552745 C273.217154,208.087763 273.139699,207.286961 273.604429,206.744482 C323.821069,146.865151 416.767034,125.656812 510.384276,152.754922 C561.45292,167.531012 607.022261,195.1716 642.186818,232.731802 C681.198305,274.399343 706.061351,327.639766 714.090849,386.640798 C714.194123,387.338271 713.703574,388.009911 712.980661,388.087408 C712.929025,388.087408 712.85157,388.087408 712.799933,388.087408 L712.799933,388.11324 Z" id="Path" fill="url(#linearGradient-24)" opacity="0.408886864" style="mix-blend-mode: screen;"></path>
                <path d="M740.103449,452.79878 C739.635681,452.79878 739.193901,452.565051 738.960017,452.123561 C738.622185,451.500281 738.830082,450.695212 739.479759,450.357602 C810.996186,410.935169 821.157132,360.163853 806.812267,325.779596 C791.843713,289.86311 751.407826,270.177863 714.792039,280.929436 C714.090388,281.137196 713.388737,280.747646 713.18084,280.046457 C712.972943,279.371237 713.36275,278.644078 714.064401,278.436318 C751.927567,267.321165 793.740769,287.655662 809.203078,324.766767 C823.963736,360.189823 813.750816,412.363518 740.727138,452.616991 C740.519242,452.720871 740.311345,452.772811 740.103449,452.772811 L740.103449,452.79878 Z" id="Path" fill="url(#linearGradient-25)" opacity="0.408886864" style="mix-blend-mode: screen;"></path>
            </g>
        </g>
    </g>
</svg>