<?xml version="1.0" encoding="UTF-8"?>
<svg width="24px" height="24px" viewBox="0 0 24 24" version="1.1" xmlns="http://www.w3.org/2000/svg" xmlns:xlink="http://www.w3.org/1999/xlink">
    <title>edit</title>
    <g id="edit" stroke="none" stroke-width="1" fill="none" fill-rule="evenodd">
        <g id="4733205_basic_edit_outline_pencil_ui_icon" transform="translate(4.000000, 4.000000)" fill="#fff" fill-rule="nonzero" stroke="#fff" stroke-width="0.4">
            <path d="M0.567411836,16 L4.41899408,16 C4.43815618,16 4.45696343,15.9989259 4.47577068,15.9971358 C4.48960997,15.9957037 4.50344927,15.9931975 4.51728856,15.9910493 C4.52190166,15.9903332 4.52651476,15.9899752 4.53112786,15.9889011 C4.54745113,15.9856789 4.56341955,15.9813825 4.57938796,15.9767282 C4.58116223,15.9763702 4.5829365,15.9760121 4.58471077,15.9752961 C4.60067919,15.9702837 4.6166476,15.9645552 4.63190631,15.9581107 C4.63332573,15.9573947 4.6351,15.9570366 4.63687427,15.9563206 C4.65177812,15.9502341 4.66597227,15.9430736 4.67981157,15.935913 C4.68229554,15.9348389 4.68477952,15.9337648 4.68690864,15.9323327 C4.70003823,15.9251722 4.71245811,15.9176536 4.72487799,15.9094189 C4.72807167,15.9072708 4.73162021,15.9054806 4.73481389,15.9033325 C4.74652406,15.8954558 4.75787938,15.8865051 4.76887985,15.8779125 C4.77242839,15.8750482 4.77597692,15.8729001 4.77917061,15.8700359 C4.79371961,15.8582209 4.8075589,15.8453319 4.82068849,15.8320849 L13.5848656,6.9895109 C13.5855753,6.98879484 13.586285,6.98807879 13.5873496,6.98736273 C13.5884141,6.98664668 13.588769,6.98593062 13.5894787,6.98485654 L15.6802768,4.87535593 L15.6802768,4.87535593 C15.8864468,4.6673417 16.0000004,4.39094413 16.0000004,4.09664517 C16.0000004,3.80270423 15.8864468,3.52594863 15.6802768,3.31829243 L12.7101512,0.321956623 C12.2846816,-0.107318874 11.592362,-0.107318874 11.1668924,0.321956623 L9.07467485,2.43288934 C9.07432,2.43324737 9.07396515,2.43324737 9.07396515,2.4336054 C9.07396515,2.43396343 9.07361029,2.43432145 9.07325544,2.43432145 L0.166072281,11.4208227 C0.152942694,11.4340697 0.140522814,11.4480328 0.128812641,11.4623539 C0.125618958,11.4659342 0.123134982,11.4702305 0.120296152,11.4738108 C0.111779663,11.4849097 0.103263173,11.4956505 0.0958112454,11.5074654 C0.0933272694,11.5110457 0.0915530008,11.514626 0.0894238785,11.5182063 C0.0816170967,11.5303792 0.0741651686,11.5429102 0.0670680943,11.5557992 C0.0656486794,11.5583054 0.0645841183,11.5611696 0.0635195571,11.5636758 C0.0564224828,11.5776389 0.0493254084,11.59196 0.0432928952,11.6066392 C0.0425831878,11.6084293 0.0418734804,11.6102195 0.0411637729,11.6120096 C0.0351312597,11.6274048 0.0290987465,11.643158 0.0244856482,11.6592693 C0.0237759408,11.6610594 0.0234210871,11.6632076 0.0230662334,11.6649977 C0.018453135,11.680751 0.0141948904,11.6968622 0.011001207,11.7133315 C0.00993664581,11.7179859 0.00958179209,11.7229983 0.00887208466,11.7276526 C0.00638810864,11.7412577 0.00425898634,11.7548627 0.00283957147,11.7688258 C0.00106530288,11.7878013 3.70476104e-07,11.8067768 3.70476104e-07,11.8261103 L3.70476104e-07,15.4271553 C-0.000354111989,15.743652 0.25372115,16 0.567411836,16 Z M1.13517778,14.8543106 L1.13517778,12.0634828 L9.4753047,3.64911024 L12.3826212,6.58243314 L4.18372607,14.8543106 L1.13517778,14.8543106 Z M11.9383444,1.16403833 L14.8456609,4.09700319 L13.1853003,5.77221591 L10.2779838,2.83889302 L11.9383444,1.16403833 Z" id="Shape"></path>
        </g>
    </g>
</svg>