<?xml version="1.0" encoding="UTF-8"?>
<svg width="24px" height="24px" viewBox="0 0 24 24" version="1.1" xmlns="http://www.w3.org/2000/svg" xmlns:xlink="http://www.w3.org/1999/xlink">
    <title>edit</title>
    <g id="edit" stroke="none" stroke-width="1" fill="none" fill-rule="evenodd">
        <path d="M4.56741184,20 L8.41899408,20 C8.43815618,20 8.45696343,19.9989259 8.47577068,19.9971358 C8.48960997,19.9957037 8.50344927,19.9931975 8.51728856,19.9910493 C8.52190166,19.9903332 8.52651476,19.9899752 8.53112786,19.9889011 C8.54745113,19.9856789 8.56341955,19.9813825 8.57938796,19.9767282 C8.58116223,19.9763702 8.5829365,19.9760121 8.58471077,19.9752961 C8.60067919,19.9702837 8.6166476,19.9645552 8.63190631,19.9581107 C8.63332573,19.9573947 8.6351,19.9570366 8.63687427,19.9563206 C8.65177812,19.9502341 8.66597227,19.9430736 8.67981157,19.935913 C8.68229554,19.9348389 8.68477952,19.9337648 8.68690864,19.9323327 C8.70003823,19.9251722 8.71245811,19.9176536 8.72487799,19.9094189 C8.72807167,19.9072708 8.73162021,19.9054806 8.73481389,19.9033325 C8.74652406,19.8954558 8.75787938,19.8865051 8.76887985,19.8779125 C8.77242839,19.8750482 8.77597692,19.8729001 8.77917061,19.8700359 C8.79371961,19.8582209 8.8075589,19.8453319 8.82068849,19.8320849 L17.5848656,10.9895109 C17.5855753,10.9887948 17.586285,10.9880788 17.5873496,10.9873627 C17.5884141,10.9866467 17.588769,10.9859306 17.5894787,10.9848565 L19.6802768,8.87535593 L19.6802768,8.87535593 C19.8864468,8.6673417 20.0000004,8.39094413 20.0000004,8.09664517 C20.0000004,7.80270423 19.8864468,7.52594863 19.6802768,7.31829243 L16.7101512,4.32195662 C16.2846816,3.89268113 15.592362,3.89268113 15.1668924,4.32195662 L13.0746749,6.43288934 C13.07432,6.43324737 13.0739651,6.43324737 13.0739651,6.4336054 C13.0739651,6.43396343 13.0736103,6.43432145 13.0732554,6.43432145 L4.16607228,15.4208227 C4.15294269,15.4340697 4.14052281,15.4480328 4.12881264,15.4623539 C4.12561896,15.4659342 4.12313498,15.4702305 4.12029615,15.4738108 C4.11177966,15.4849097 4.10326317,15.4956505 4.09581125,15.5074654 C4.09332727,15.5110457 4.091553,15.514626 4.08942388,15.5182063 C4.0816171,15.5303792 4.07416517,15.5429102 4.06706809,15.5557992 C4.06564868,15.5583054 4.06458412,15.5611696 4.06351956,15.5636758 C4.05642248,15.5776389 4.04932541,15.59196 4.0432929,15.6066392 C4.04258319,15.6084293 4.04187348,15.6102195 4.04116377,15.6120096 C4.03513126,15.6274048 4.02909875,15.643158 4.02448565,15.6592693 C4.02377594,15.6610594 4.02342109,15.6632076 4.02306623,15.6649977 C4.01845314,15.680751 4.01419489,15.6968622 4.01100121,15.7133315 C4.00993665,15.7179859 4.00958179,15.7229983 4.00887208,15.7276526 C4.00638811,15.7412577 4.00425899,15.7548627 4.00283957,15.7688258 C4.0010653,15.7878013 4.00000037,15.8067768 4.00000037,15.8261103 L4.00000037,19.4271553 C3.99964589,19.743652 4.25372115,20 4.56741184,20 Z M5.13517778,18.8543106 L5.13517778,16.0634828 L13.4753047,7.64911024 L16.3826212,10.5824331 L8.18372607,18.8543106 L5.13517778,18.8543106 Z M15.9383444,5.16403833 L18.8456609,8.09700319 L17.1853003,9.77221591 L14.2779838,6.83889302 L15.9383444,5.16403833 Z" id="Shape" stroke="#F04F38" stroke-width="0.5" fill="#F04F38" fill-rule="nonzero"></path>
    </g>
</svg>