<?xml version="1.0" encoding="UTF-8"?>
<svg width="24px" height="24px" viewBox="0 0 24 24" version="1.1" xmlns="http://www.w3.org/2000/svg" xmlns:xlink="http://www.w3.org/1999/xlink">
    <title>gst</title>
    <g id="gst" stroke="none" stroke-width="1" fill="none" fill-rule="evenodd" stroke-linecap="round" stroke-linejoin="round">
        <path d="M8.57142857,4.22222222 L6.28571429,4.22222222 C5.02334857,4.22222222 4,5.21714444 4,6.44444444 L4,19.7777778 C4,21.0051111 5.02334857,22 6.28571429,22 L17.7142857,22 C18.9766857,22 20,21.0051111 20,19.7777778 L20,6.44444444 C20,5.21714444 18.9766857,4.22222222 17.7142857,4.22222222 L15.4285714,4.22222222 M8.57142857,4.22222222 C8.57142857,5.44952222 9.59477714,6.44444444 10.8571429,6.44444444 L13.1428571,6.44444444 C14.4052571,6.44444444 15.4285714,5.44952222 15.4285714,4.22222222 M8.57142857,4.22222222 C8.57142857,2.99492222 9.59477714,2 10.8571429,2 L13.1428571,2 C14.4052571,2 15.4285714,2.99492222 15.4285714,4.22222222 M12,12 L15.4285714,12 M12,16.4444444 L15.4285714,16.4444444" id="Shape" stroke="#F04F38" stroke-width="1.6"></path>
    </g>
</svg>