<?xml version="1.0" encoding="UTF-8"?>
<svg width="24px" height="24px" viewBox="0 0 24 24" version="1.1" xmlns="http://www.w3.org/2000/svg" xmlns:xlink="http://www.w3.org/1999/xlink">
    <title>saved passenger</title>
    <g id="" stroke="none" stroke-width="1" fill="none" fill-rule="evenodd">
        <path d="M15.3058851,2 L15.3058851,5.89423077 L21.0282392,5.89423077 C22.1539482,5.89423077 23.0451345,6.80769231 22.9982299,7.96153846 L22.9982299,19.9326923 C22.9982299,21.0865385 22.1070436,22 20.9813346,22 L3.01689528,22 C1.89118629,22 1,21.0865385 1,19.9326923 L1,7.96153846 C1,6.80769231 1.89118629,5.89423077 3.01689528,5.89423077 L8.73924934,5.89423077 L8.73924934,2 L15.3058851,2 Z M8.73924934,7.33653846 L3.01689528,7.33653846 C2.68856349,7.33653846 2.40713624,7.625 2.40713624,7.96153846 L2.40713624,19.9326923 C2.40713624,20.2692308 2.68856349,20.5576923 3.01689528,20.5576923 L21.0282392,20.5576923 C21.356571,20.5576923 21.6379982,20.2692308 21.6379982,19.9326923 L21.6379982,7.96153846 C21.6379982,7.625 21.356571,7.33653846 21.0282392,7.33653846 L15.3058851,7.33653846 L15.3058851,9.59615385 L8.73924934,9.59615385 L8.73924934,7.33653846 Z M8.1294903,10.4615385 C9.58353108,10.4615385 10.7561446,11.6634615 10.7561446,13.1538462 C10.7561446,13.8269231 10.4747174,14.4519231 10.099481,14.9326923 C11.5535218,15.7019231 12.5854217,17.2403846 12.5854217,19.0673077 L11.1782855,19.0673077 C11.1782855,17.2884615 9.81805379,15.8942308 8.08258576,15.8942308 C6.34711772,15.8942308 4.98688602,17.3365385 4.98688602,19.0673077 L3.57974978,19.0673077 C3.57974978,17.2403846 4.61164969,15.7019231 6.11259502,14.9807692 C5.69045414,14.5 5.45593144,13.875 5.45593144,13.2019231 C5.45593144,11.7115385 6.67544951,10.4615385 8.1294903,10.4615385 Z M19.9963393,16.9038462 L19.9963393,18.3461538 L14.602317,18.3461538 L14.602317,16.9038462 L19.9963393,16.9038462 Z M19.9963393,13.875 L19.9963393,15.3173077 L14.602317,15.3173077 L14.602317,13.875 L19.9963393,13.875 Z M8.08258576,11.9519231 C7.42592218,11.9519231 6.86306768,12.4807692 6.86306768,13.2019231 C6.86306768,13.875 7.42592218,14.4519231 8.08258576,14.4519231 C8.73924934,14.4519231 9.30210383,13.875 9.30210383,13.2019231 C9.30210383,12.5288462 8.73924934,11.9519231 8.08258576,11.9519231 Z M13.8987489,3.44230769 L10.1463856,3.44230769 L10.1463856,8.15384615 L13.8987489,8.15384615 L13.8987489,3.44230769 Z" id="saved-passenger" fill="#F04F38" fill-rule="nonzero"></path>
    </g>
</svg>