<?xml version="1.0" encoding="UTF-8"?>
<svg width="90px" height="90px" viewBox="0 0 90 90" version="1.1" xmlns="http://www.w3.org/2000/svg" xmlns:xlink="http://www.w3.org/1999/xlink">
    <title>user@1x</title>
    <g id="user" stroke="none" stroke-width="1" fill="none" fill-rule="evenodd">
        <path d="M44.7471534,47.7402597 C50.1640173,47.7402597 54.555253,43.3212521 54.555253,37.8701299 C54.555253,32.4190077 50.1640173,28 44.7471534,28 C39.3302896,28 34.9390538,32.4190077 34.9390538,37.8701299 C34.9390538,43.3212521 39.3302896,47.7402597 44.7471534,47.7402597 Z M28,55.9231989 C31.9015528,62.6410663 37.4839372,66 44.7471534,66 C52.0103696,66 57.7613185,62.6410663 62,55.9231989 C59.3035313,50.9086521 55.9350702,48.4013787 51.8946168,48.4013787 C50.8343057,48.4013787 50.2430001,50.4056561 45,50.4056561 C39.7569999,50.4056561 38.7573523,48.4013787 37.9238428,48.4013787 C33.8176642,48.5734852 30.5097166,51.0807586 28,55.9231989 Z" id="Combined-Shape" fill="#F04F38"></path>
    </g>
</svg>