<svg width="86" height="86" viewBox="0 0 86 86" fill="none" xmlns="http://www.w3.org/2000/svg">
<g id="user-icon">
<g id="circles">
<mask id="mask0_104_13" style="mask-type:alpha" maskUnits="userSpaceOnUse" x="0" y="0" width="86" height="86">
<g id="mask-2">
<path id="Vector" d="M43 86C66.7482 86 86 66.7482 86 43C86 19.2518 66.7482 0 43 0C19.2518 0 0 19.2518 0 43C0 66.7482 19.2518 86 43 86Z" fill="white"/>
</g>
</mask>
<g mask="url(#mask0_104_13)">
<path id="circle-2" opacity="0.1" d="M43 86C66.7482 86 86 66.7482 86 43C86 19.2518 66.7482 0 43 0C19.2518 0 0 19.2518 0 43C0 66.7482 19.2518 86 43 86Z" fill="#F04F38"/>
</g>
<mask id="mask1_104_13" style="mask-type:alpha" maskUnits="userSpaceOnUse" x="6" y="6" width="74" height="74">
<g id="mask-4">
<path id="Vector_2" d="M43 80C63.4345 80 80 63.4345 80 43C80 22.5655 63.4345 6 43 6C22.5655 6 6 22.5655 6 43C6 63.4345 22.5655 80 43 80Z" fill="white"/>
</g>
</mask>
<g mask="url(#mask1_104_13)">
<path id="circle-1" opacity="0.14" d="M43 80C63.4345 80 80 63.4345 80 43C80 22.5655 63.4345 6 43 6C22.5655 6 6 22.5655 6 43C6 63.4345 22.5655 80 43 80Z" fill="#F04F38"/>
</g>
</g>
<g id="user">
<path id="Combined-Shape" fill-rule="evenodd" clip-rule="evenodd" d="M42.7472 43.7403C48.164 43.7403 52.5553 39.3213 52.5553 33.8701C52.5553 28.419 48.164 24 42.7472 24C37.3303 24 32.9391 28.419 32.9391 33.8701C32.9391 39.3213 37.3303 43.7403 42.7472 43.7403ZM26 51.9232C29.9016 58.6411 35.4839 62 42.7472 62C50.0104 62 55.7613 58.6411 60 51.9232C57.3035 46.9087 53.9351 44.4014 49.8946 44.4014C48.8343 44.4014 48.243 46.4057 43 46.4057C37.757 46.4057 36.7574 44.4014 35.9238 44.4014C31.8177 44.5735 28.5097 47.0808 26 51.9232Z" fill="#F04F38"/>
</g>
</g>
</svg>
