<?xml version="1.0" encoding="UTF-8"?>
<svg width="24px" height="24px" viewBox="0 0 24 24" version="1.1" xmlns="http://www.w3.org/2000/svg" xmlns:xlink="http://www.w3.org/1999/xlink">
    <title>step2</title>
    <g id="step2" stroke="none" stroke-width="1" fill="none" fill-rule="evenodd">
        <g id="309020_finance_wallet_icon" transform="translate(5.000000, 4.000000)" fill="#FFFFFF" fill-rule="nonzero">
            <path d="M13.5,3.75719852 L2.7,3.75719852 C1.8,3.75719852 1.5,3.30748646 1.5,3.00767842 L13.5,1.88339827 L13.5,0.759118125 C13.5,0.309406066 13.05,-0.0653539838 12.6,0.00959802608 L1.275,2.03330229 C0.525,2.18320631 0,2.78282239 0,3.53234249 L0,13.5009598 C0,14.3254319 0.675,15 1.5,15 L13.5,15 C14.325,15 15,14.3254319 15,13.5009598 L15,5.25623872 C15,4.43176661 14.325,3.75719852 13.5,3.75719852 Z M12.375,10.5028794 C11.775,10.5028794 11.25,9.97821534 11.25,9.37859926 C11.25,8.77898318 11.775,8.25431911 12.375,8.25431911 C12.975,8.25431911 13.5,8.77898318 13.5,9.37859926 C13.5,9.97821534 12.975,10.5028794 12.375,10.5028794 Z" id="Shape"></path>
        </g>
    </g>
</svg>