<?xml version="1.0" encoding="UTF-8"?><svg version="1.1" width="36px" height="36px" viewBox="0 0 36.0 36.0" xmlns="http://www.w3.org/2000/svg" xmlns:xlink="http://www.w3.org/1999/xlink"><defs><clipPath id="i0"><path d="M36,0 L36,36 L0,36 L0,0 L36,0 Z"></path></clipPath><clipPath id="i1"><path d="M5.04545,0 C5.20455,0 5.32386,0.017 5.40341,0.0511 C5.60795,0.1193 5.90909,0.5511 6.30682,1.3466 C6.43182,1.5625 6.60227,1.8693 6.81818,2.267 C7.03409,2.6648 7.23295,3.0256 7.41477,3.3494 C7.59659,3.6733 7.77273,3.9773 7.94318,4.2614 C7.95292,4.27437143 7.96799388,4.29523673 7.98840187,4.32399125 L8.0656284,4.43391778 C8.11224306,4.5007102 8.17086,4.58524286 8.24148,4.6875 C8.40625,4.9261 8.52841,5.1278 8.60795,5.2926 C8.6875,5.4574 8.72727,5.6193 8.72727,5.7784 C8.72727,6.0057 8.56534,6.2898 8.24148,6.6307 C7.91761,6.9716 7.56534,7.2841 7.18466,7.5682 C6.80398,7.8523 6.4517,8.1534 6.12784,8.4716 C5.80398,8.7898 5.64205,9.0511 5.64205,9.2557 C5.64205,9.358 5.67045,9.4858 5.72727,9.6392 C5.78409,9.7926 5.83239,9.9091 5.87216,9.9886 C5.91193,10.0682 5.99148,10.2045 6.1108,10.3977 C6.23011,10.5909 6.29545,10.6989 6.30682,10.7216 C7.17045,12.2784 8.15909,13.6136 9.27273,14.7273 C10.38636,15.8409 11.72159,16.8295 13.27841,17.6932 C13.30114,17.7045 13.40909,17.7699 13.60227,17.8892 C13.79545,18.0085 13.93182,18.0881 14.01136,18.1278 C14.09091,18.1676 14.20739,18.2159 14.3608,18.2727 C14.5142,18.3295 14.64205,18.358 14.74432,18.358 C14.94886,18.358 15.21023,18.196 15.52841,17.8722 C15.84659,17.5483 16.14773,17.196 16.43182,16.8153 C16.71591,16.4347 17.02841,16.0824 17.36932,15.7585 C17.71023,15.4347 17.99432,15.2727 18.22159,15.2727 C18.38068,15.2727 18.54261,15.3125 18.70739,15.392 C18.87216,15.4716 19.07386,15.5938 19.3125,15.7585 C19.4147743,15.8291286 19.4993057,15.8877449 19.5660959,15.9343569 L19.6760216,16.0115773 C19.7047788,16.0319837 19.7256514,16.0470571 19.73864,16.0568 C20.02273,16.2273 20.3267,16.4034 20.65057,16.5852 C20.97443,16.767 21.33523,16.9659 21.73295,17.1818 C22.13068,17.3977 22.4375,17.5682 22.65341,17.6932 C23.44886,18.0909 23.88068,18.392 23.94886,18.5966 C23.98295,18.6761 24,18.7955 24,18.9545 C24,19.2614 23.94318,19.6619 23.82955,20.1562 C23.71591,20.6506 23.59659,21.0398 23.47159,21.3239 C23.23295,21.892 22.53977,22.4943 21.39205,23.1307 C20.32386,23.7102 19.26705,24 18.22159,24 C17.91477,24 17.61648,23.9801 17.3267,23.9403 C17.03693,23.9006 16.71023,23.8295 16.34659,23.7273 C15.98295,23.625 15.71307,23.5426 15.53693,23.4801 C15.3608,23.4176 15.04545,23.3011 14.59091,23.1307 C14.13636,22.9602 13.85795,22.858 13.75568,22.8239 C12.64205,22.4261 11.64773,21.9545 10.77273,21.4091 C9.31818,20.5114 7.81534,19.2869 6.2642,17.7358 C4.71307,16.1847 3.48864,14.6818 2.59091,13.2273 C2.04545,12.3523 1.57386,11.358 1.17614,10.2443 C1.14205,10.142 1.03977,9.8636 0.86932,9.4091 C0.69886,8.9545 0.58239,8.6392 0.51989,8.4631 C0.45739,8.2869 0.375,8.017 0.27273,7.6534 C0.17045,7.2898 0.09943,6.9631 0.05966,6.6733 C0.01989,6.3835 0,6.0852 0,5.7784 C0,4.733 0.28977,3.6761 0.86932,2.608 C1.50568,1.4602 2.10795,0.767 2.67614,0.5284 C2.96023,0.4034 3.34943,0.2841 3.84375,0.1705 C4.33807,0.0568 4.73864,0 5.04545,0 Z"></path></clipPath><clipPath id="i2"><path d="M26,0 L26,26 L0,26 L0,0 L26,0 Z"></path></clipPath></defs><g clip-path="url(#i0)"><g transform="translate(6.0 6.0)"><g clip-path="url(#i1)"><g transform="translate(-1.0 -1.0)"><g clip-path="url(#i2)"><polygon points="1,1 25,1 25,25 1,25 1,1" stroke="none" fill="#8A8A8A"></polygon></g></g></g></g></g></svg>