<?xml version="1.0" encoding="UTF-8"?><svg version="1.1" width="36px" height="36px" viewBox="0 0 36.0 36.0" xmlns="http://www.w3.org/2000/svg" xmlns:xlink="http://www.w3.org/1999/xlink"><defs><clipPath id="i0"><path d="M36,0 L36,36 L0,36 L0,0 L36,0 Z"></path></clipPath><clipPath id="i1"><path d="M22.5,0 C23.875,0 25,1.125 25,2.5 L25,17.5 C25,18.875 23.875,20 22.5,20 L2.5,20 C1.125,20 0,18.875 0,17.5 L0,2.5 C0,1.125 1.125,0 2.5,0 L22.5,0 Z M22.5,2.5 L12.5,8.75 L2.5,2.5 L2.5,5 L12.5,11.25 L22.5,5 L22.5,2.5 Z"></path></clipPath><clipPath id="i2"><path d="M27,0 L27,22 L0,22 L0,0 L27,0 Z"></path></clipPath></defs><g clip-path="url(#i0)"><g transform="translate(6.0 8.0)"><g clip-path="url(#i1)"><g transform="translate(-1.0 -1.0)"><g clip-path="url(#i2)"><polygon points="1,1 26,1 26,21 1,21 1,1" stroke="none" fill="#8A8A8A"></polygon></g></g></g></g></g></svg>