<?xml version="1.0" encoding="UTF-8"?><svg version="1.1" width="41px" height="41px" viewBox="0 0 41.0 41.0" xmlns="http://www.w3.org/2000/svg" xmlns:xlink="http://www.w3.org/1999/xlink"><defs><clipPath id="i0"><path d="M41,0 L41,41 L0,41 L0,0 L41,0 Z"></path></clipPath></defs><g clip-path="url(#i0)"><g transform="translate(5.0 11.0)"><path d="M15.9985779,0.00173661671 C10.2645391,-0.0975200509 4.33709027,4.07422288 0.608258508,8.34818536 C-0.202752836,9.28508746 -0.202752836,10.7089749 0.608258508,11.645877 C4.25460658,15.8294715 10.1678341,20.0989897 15.9985779,19.9982515 C21.8293217,20.0989897 27.7425492,15.8294715 31.3917415,11.645877 C32.2027528,10.7089749 32.2027528,9.28508746 31.3917415,8.34818536 C27.6600655,4.07422288 21.7297724,-0.0975200509 15.9985779,0.00173661671 Z" stroke="#8F8F8F" stroke-width="2.12963921" fill="none" stroke-linecap="round" stroke-linejoin="round"></path><g transform="translate(10.664002631419432 4.444583377551051)"><path d="M10.6661505,5.5554107 C10.6661505,7.8024993 9.36665338,9.82829722 7.37367424,10.6880823 C5.3806951,11.5478675 3.08676631,11.0722985 1.56165166,9.48315507 C0.0365370163,7.89401161 -0.419380505,5.50428757 0.406514268,3.42842044 C1.23240904,1.35255331 3.17744982,-0.00059902469 5.33457524,0 C8.27935296,0.000818222951 10.6661505,2.48782065 10.6661505,5.5554107 Z" stroke="#8F8F8F" stroke-width="2.12963921" fill="none" stroke-linecap="round" stroke-linejoin="round"></path></g></g></g></svg>