<?xml version="1.0" encoding="UTF-8"?>
<svg width="427px" height="318px" viewBox="0 0 427 318" version="1.1" xmlns="http://www.w3.org/2000/svg" xmlns:xlink="http://www.w3.org/1999/xlink">
    <title>Artboard 2@1x</title>
    <g id="Artboard" stroke="none" stroke-width="1" fill="none" fill-rule="evenodd">
        <g id="Bad-idea-rafiki-Copy" fill-rule="nonzero">
            <g id="freepik--background-complete--inject-11">
                <rect id="Rectangle" fill="#EBEBEB" x="0" y="279.453511" width="427" height="1"></rect>
                <rect id="Rectangle" fill="#EBEBEB" x="355.93012" y="293.187191" width="28.28448" height="1"></rect>
                <rect id="Rectangle" fill="#EBEBEB" x="275.44062" y="295.508858" width="7.42126" height="1"></rect>
                <rect id="Rectangle" fill="#EBEBEB" x="338.68786" y="285.266212" width="16.38826" height="1"></rect>
                <rect id="Rectangle" fill="#EBEBEB" x="44.80084" y="286.700183" width="36.88426" height="1"></rect>
                <rect id="Rectangle" fill="#EBEBEB" x="89.29424" y="286.700183" width="5.40582" height="1"></rect>
                <rect id="Rectangle" fill="#EBEBEB" x="112.27538" y="290.30218" width="80.00272" height="1"></rect>
                <path d="M202.398,241.385012 L37.49914,241.385012 C34.8093475,241.380304 32.63134,239.199611 32.63134,236.51122 L32.63134,4.83111445 C32.6547443,2.15939873 34.8259291,0.00457678933 37.49914,1.21297289e-14 L202.398,1.21297289e-14 C205.091128,1.21297289e-14 207.27434,2.18207107 207.27434,4.87379214 L207.27434,236.51122 C207.27434,239.202941 205.091128,241.385012 202.398,241.385012 Z M37.49914,0.170710758 C34.9272603,0.175418707 32.84484,2.26057422 32.84484,4.83111445 L32.84484,236.51122 C32.84484,239.08176 34.9272603,241.166915 37.49914,241.171623 L202.398,241.171623 C204.971266,241.166926 207.05614,239.083141 207.06084,236.51122 L207.06084,4.83111445 C207.05614,2.25919288 204.971266,0.175408343 202.398,0.170710758 L37.49914,0.170710758 Z" id="Shape" fill="#EBEBEB"></path>
                <path d="M387.12674,241.385012 L222.21934,241.385012 C219.528161,241.380314 217.347701,239.200992 217.343,236.51122 L217.343,4.83111445 C217.371052,2.15802328 219.544708,0.00452646154 222.21934,0 L387.12674,0 C389.79662,0.00924459517 391.962637,2.16271552 391.986,4.83111445 L391.986,236.51122 C391.986,239.196288 389.813196,241.375607 387.12674,241.385012 Z M222.21934,0.170710758 C219.646074,0.175408343 217.5612,2.25919288 217.5565,4.83111445 L217.5565,236.51122 C217.5612,239.083141 219.646074,241.166926 222.21934,241.171623 L387.12674,241.171623 C389.700006,241.166926 391.78488,239.083141 391.78958,236.51122 L391.78958,4.83111445 C391.78488,2.25919288 389.700006,0.175408343 387.12674,0.170710758 L222.21934,0.170710758 Z" id="Shape" fill="#EBEBEB"></path>
                <polygon id="Path" fill="#F0F0F0" points="377.69858 279.504724 377.69858 237.407451 358.26154 237.407451 358.26154 198.374436 355.5202 198.374436 355.5202 220.746081 348.0477 220.746081 348.0477 214.557816 334.58866 214.557816 334.58866 193.133616 332.10352 193.133616 332.10352 166.955121 330.10516 166.955121 330.10516 192.664161 325.374 192.664161 325.374 230.741196 316.39846 230.741196 316.39846 192.664161 300.19808 192.664161 300.19808 224.868746 283.19494 224.868746 283.19494 185.835731 280.4536 185.835731 280.4536 208.207376 272.9811 208.207376 272.9811 202.019111 259.52206 202.019111 259.52206 180.594911 257.03692 180.594911 257.03692 154.416416 255.03856 154.416416 255.03856 180.116921 250.3074 180.116921 250.3074 218.202491 241.33186 218.202491 241.33186 180.116921 225.14002 180.116921 225.14002 216.956302 214.21736 216.956302 214.21736 195.532102 211.72368 195.532102 211.72368 169.353607 209.72532 169.353607 209.72532 195.062648 204.99416 195.062648 204.99416 233.139682 196.01862 233.139682 196.01862 195.062648 179.82678 195.062648 179.82678 233.139682 171.85042 233.139682 171.85042 237.407451 157.87898 237.407451 157.87898 198.374436 155.13764 198.374436 155.13764 220.746081 147.66514 220.746081 147.66514 214.557816 134.2061 214.557816 134.2061 193.133616 131.71242 193.133616 131.71242 166.955121 129.7226 166.955121 129.7226 192.664161 125.37574 192.664161 125.37574 190.513206 109.17536 190.513206 109.17536 192.664161 100.20836 192.664161 100.20836 190.513206 95.4772 190.513206 95.4772 164.812701 93.47884 164.812701 93.47884 190.991196 90.98516 190.991196 90.98516 212.415396 77.53466 212.415396 77.53466 218.603661 70.05362 218.603661 70.05362 196.232016 67.31228 196.232016 67.31228 235.265031 47.87524 235.265031 47.87524 279.504724"></polygon>
                <circle id="Oval" fill="#FAFAFA" transform="translate(118.121732, 61.730568) rotate(-45.000000) translate(-118.121732, -61.730568) " cx="118.121732" cy="61.7305682" r="23.7264607"></circle>
                <path d="M105.810648,61.4558729 C105.810648,60.1537104 105.195781,58.9279214 104.15129,58.1495857 C103.106799,57.37125 101.755794,57.1318723 100.50726,57.5039188 C100.880313,54.9935698 100.139953,52.4453942 98.4796315,50.5252153 C96.8193097,48.6050364 94.4039895,47.5036361 91.86478,47.508804 C91.3230454,47.5075239 90.7824738,47.55898 90.25072,47.6624436 C88.4831093,44.7539877 85.0022545,43.3668754 81.7173711,44.2619246 C78.4324877,45.1569737 76.1375869,48.117836 76.0914,51.5205068 L76.006,51.5205068 C73.4919363,51.5205067 71.1688455,52.8610428 69.9118136,55.0371483 C68.6547817,57.2132537 68.6547817,59.8943262 69.9118136,62.0704317 C71.1688455,64.2465371 73.4919363,65.5870732 76.006,65.5870732 L101.8395,65.5870732 C104.062609,65.5086823 105.821213,63.6791772 105.810648,61.4558729 L105.810648,61.4558729 Z" id="Path" fill="#F5F5F5"></path>
                <path d="M365.67435,118.584228 C365.682908,117.279529 365.069297,116.048723 364.021941,115.269937 C362.974585,114.491152 361.618729,114.257517 360.37092,114.64081 C360.429667,114.219453 360.458206,113.794438 360.45632,113.369014 C360.456321,111.053967 359.535607,108.833861 357.896965,107.197676 C356.258322,105.561491 354.036157,104.643429 351.7199,104.645695 C351.181474,104.646244 350.644171,104.694805 350.11438,104.790799 C348.346769,101.882343 344.865915,100.495231 341.581031,101.39028 C338.296148,102.285329 336.001247,105.246191 335.95506,108.648862 L335.82696,108.648862 C331.940554,108.648862 328.79,111.79777 328.79,115.682145 C328.79,119.56652 331.940554,122.715428 335.82696,122.715428 L361.669,122.715428 C363.901614,122.646239 365.675333,120.816748 365.67435,118.584228 Z" id="Path" fill="#F5F5F5"></path>
                <path d="M243.500989,55.967522 C243.500989,52.3659898 246.422165,49.4463711 250.02558,49.4463711 C250.659473,49.4477406 251.28969,49.5426552 251.89584,49.7280438 C251.799858,49.06372 251.751342,48.3934067 251.75066,47.7221924 C251.743437,43.6029614 253.57745,39.6958045 256.751566,37.068329 C259.925683,34.4408535 264.108101,33.3677185 268.156,34.1421516 C270.957388,29.5496717 276.459686,27.3621514 281.651759,28.7767121 C286.843833,30.1912728 290.474314,34.8669844 290.55642,40.2450612 L290.75284,40.2450612 C296.903171,40.2450612 301.889,45.2282848 301.889,51.3754026 C301.889,57.5225204 296.903171,62.505744 290.75284,62.505744 L249.8377,62.505744 C246.301222,62.4039355 243.490292,59.5036023 243.500989,55.967522 Z" id="Path" fill="#F5F5F5"></path>
                <path d="M122.882007,127.000268 C122.882007,124.519174 124.056291,122.184303 126.048647,120.704271 C128.041003,119.22424 130.616473,118.773554 132.99342,119.488995 C132.880414,118.688752 132.823343,117.881612 132.82262,117.073438 C132.82262,112.665887 134.574428,108.438857 137.692667,105.322248 C140.810905,102.205638 145.040145,100.454746 149.45,100.454746 C150.478519,100.452574 151.504973,100.546878 152.51586,100.736418 C155.864426,95.1681138 162.508062,92.5030234 168.779126,94.2124199 C175.05019,95.9218164 179.420185,101.589055 179.47664,108.085516 L179.71576,108.085516 C187.115967,108.085516 193.11502,114.081435 193.11502,121.477775 C193.11502,128.874116 187.115967,134.870034 179.71576,134.870034 L130.51682,134.870034 C126.255975,134.75417 122.866569,131.260435 122.882007,127.000268 L122.882007,127.000268 Z" id="Path" fill="#F5F5F5"></path>
                <path d="M157.57154,73.8153318 C157.57154,72.4011175 156.424494,71.2546704 155.00954,71.2546704 C154.761052,71.2530331 154.513648,71.2875366 154.2751,71.3570968 C154.312284,71.0969392 154.332254,70.834613 154.33488,70.5718274 C154.33488,69.1320726 153.762641,67.7512864 152.744048,66.733226 C151.725455,65.7151656 150.343947,65.1432253 148.90344,65.1432253 C148.565387,65.1440698 148.228104,65.1754949 147.89572,65.2371162 C146.800356,63.4250567 144.634997,62.5594042 142.59147,63.1166188 C140.547943,63.6738335 139.122421,65.5186222 139.09952,67.6356023 L139.01412,67.6356023 C136.599266,67.6356023 134.64164,69.5922054 134.64164,72.0057977 C134.64164,74.41939 136.599266,76.3759931 139.01412,76.3759931 L155.07786,76.3759931 C156.466063,76.3389807 157.572034,75.2033029 157.57154,73.8153318 L157.57154,73.8153318 Z" id="Path" fill="#F5F5F5"></path>
                <path d="M64.1695422,151.659437 C64.1679633,150.84943 64.5499115,150.08643 65.1994668,149.602041 C65.849022,149.117652 66.6895819,148.968998 67.466,149.201202 C67.4288164,148.941045 67.4088463,148.678719 67.40622,148.415933 C67.40622,145.417799 69.8379585,142.987331 72.83766,142.987331 C73.175713,142.988175 73.5129956,143.019601 73.84538,143.081222 C74.9407442,141.269162 77.1061031,140.40351 79.1496302,140.960724 C81.1931573,141.517939 82.6186792,143.362728 82.64158,145.479708 L82.71844,145.479708 C84.3282226,145.408619 85.8471166,146.226491 86.673244,147.609232 C87.4993715,148.991973 87.4993715,150.716369 86.673244,152.09911 C85.8471166,153.481851 84.3282226,154.299723 82.71844,154.228634 L66.66324,154.228634 C65.2717132,154.191543 64.1644252,153.050722 64.1695422,151.659437 L64.1695422,151.659437 Z" id="Path" fill="#F5F5F5"></path>
                <path d="M304.562002,160.024265 C304.560423,159.214257 304.942372,158.451258 305.591927,157.966869 C306.241482,157.48248 307.082042,157.333826 307.85846,157.56603 C307.821276,157.305872 307.801306,157.043546 307.79868,156.78076 C307.79868,153.782626 310.230419,151.352158 313.23012,151.352158 C313.568173,151.353003 313.905456,151.384428 314.23784,151.446049 C315.333204,149.63399 317.498563,148.768337 319.54209,149.325552 C321.585617,149.882766 323.011139,151.727555 323.03404,153.844535 L323.1109,153.844535 C324.720683,153.773447 326.239577,154.591318 327.065704,155.974059 C327.891831,157.3568 327.891831,159.081196 327.065704,160.463937 C326.239577,161.846679 324.720683,162.66455 323.1109,162.593461 L307.0557,162.593461 C305.664173,162.55637 304.556885,161.415549 304.562002,160.024265 L304.562002,160.024265 Z" id="Path" fill="#F5F5F5"></path>
                <polygon id="Path" fill="#E0E0E0" points="353.2571 265.625939 348.79922 233.822525 344.35842 243.023835 301.69258 179.775499 231.02408 157.207537 207.21456 105.68703 98.95298 31.1717844 99.24334 53.8080309 81.82174 64.2896715 177.83696 120.393762 206.1129 172.281297 288.93382 198.707322 331.80462 253.360371 322.57288 256.091744"></polygon>
            </g>
            <g id="freepik--Shadow--inject-11" transform="translate(47.917940, 298.675542)" fill="#F5F5F5">
                <ellipse id="freepik--path--inject-11" cx="165.58206" cy="9.6622289" rx="165.58206" ry="9.6622289"></ellipse>
            </g>
            <g id="freepik--Plant--inject-11" transform="translate(303.989840, 225.902944)">
                <path d="M15.02186,62.000749 C15.02186,62.000749 19.07836,53.1579318 14.44114,44.4346121 C9.80392,35.7112923 8.46314,33.6627632 11.41798,31.8703003 C14.37282,30.0778373 15.73068,38.8523703 15.73068,38.8523703 C17.1917136,34.8900913 17.3413917,30.5636641 16.15768,26.5099825 C14.10808,20.20222 12.81854,9.92543232 15.6282,8.82434793 C18.43786,7.72326354 16.15768,21.6276548 18.60012,26.3904849 C19.8388045,23.056738 20.6397032,19.5765139 20.98278,16.0368775 C21.31584,10.9667679 20.7949,2.87507802 23.00676,0.800942307 C25.21862,-1.2731934 26.6448,0.160776964 24.4671,11.3508672 C23.1581074,18.0324614 22.4351568,24.8155064 22.30648,31.6227697 C22.30648,31.6227697 27.1145,16.95018 30.35116,16.5234031 C33.58782,16.0966262 33.57928,20.8423853 30.81232,24.9650501 C28.04536,29.0877149 22.70786,36.4709552 21.83678,40.2692696 C21.83678,40.2692696 27.12304,29.2242835 31.87128,32.5872854 C36.61952,35.9502874 27.73792,42.6336136 23.77536,45.0491708 C19.8128,47.464728 17.06292,62.5982367 17.06292,62.5982367 L15.02186,62.000749 Z" id="Path" fill="#07B3D2"></path>
                <path d="M15.02186,62.000749 C15.02186,62.000749 19.07836,53.1579318 14.44114,44.4346121 C9.80392,35.7112923 8.46314,33.6627632 11.41798,31.8703003 C14.37282,30.0778373 15.73068,38.8523703 15.73068,38.8523703 C17.1917136,34.8900913 17.3413917,30.5636641 16.15768,26.5099825 C14.10808,20.20222 12.81854,9.92543232 15.6282,8.82434793 C18.43786,7.72326354 16.15768,21.6276548 18.60012,26.3904849 C19.8388045,23.056738 20.6397032,19.5765139 20.98278,16.0368775 C21.31584,10.9667679 20.7949,2.87507802 23.00676,0.800942307 C25.21862,-1.2731934 26.6448,0.160776964 24.4671,11.3508672 C23.1581074,18.0324614 22.4351568,24.8155064 22.30648,31.6227697 C22.30648,31.6227697 27.1145,16.95018 30.35116,16.5234031 C33.58782,16.0966262 33.57928,20.8423853 30.81232,24.9650501 C28.04536,29.0877149 22.70786,36.4709552 21.83678,40.2692696 C21.83678,40.2692696 27.12304,29.2242835 31.87128,32.5872854 C36.61952,35.9502874 27.73792,42.6336136 23.77536,45.0491708 C19.8128,47.464728 17.06292,62.5982367 17.06292,62.5982367 L15.02186,62.000749 Z" id="Path" fill="#000000" opacity="0.2"></path>
                <path d="M18.22436,65.6283527 C18.22436,65.6283527 14.27034,56.7257866 19.01004,48.0707512 C23.74974,39.4157158 25.11614,37.3842577 22.18692,35.5576526 C19.2577,33.7310475 17.78882,42.4714383 17.78882,42.4714383 C16.3735952,38.4938669 16.2747978,34.1670089 17.507,30.1290505 C19.642,23.8468946 21.0511,13.5871781 18.25852,12.443416 C15.46594,11.2996539 17.56678,25.2467229 15.0731,29.9668753 C13.8848885,26.6148921 13.1356868,23.123313 12.84416,19.5791257 C12.57088,14.5090162 13.1943,6.42586178 10.99952,4.31758392 C8.80474,2.20930606 7.37002,3.62620535 9.41962,14.8419022 C10.6469841,21.539215 11.2870669,28.33083 11.33258,35.1394113 C11.33258,35.1394113 6.6612,20.3985373 3.45016,19.9205472 C0.23912,19.4425571 0.1708,24.1883162 2.88652,28.3536586 C5.60224,32.5190011 10.8458,39.9790613 11.67418,43.7859112 C11.67418,43.7859112 6.55018,32.6897119 1.73362,35.9844295 C-3.08294,39.2791472 5.74742,46.0905064 9.67582,48.5658124 C13.60422,51.0411184 16.1833,66.1746271 16.1833,66.1746271 L18.22436,65.6283527 Z" id="Path" fill="#07B3D2"></path>
                <polygon id="Path" fill="#263238" points="0 59.2779125 32.63988 59.2779125 29.99248 82.6226086 2.6474 82.6226086"></polygon>
            </g>
            <g id="freepik--Character--inject-11" transform="translate(215.371123, 56.780443)">
                <path d="M48.0024774,64.4839437 C53.3997574,68.8968168 60.3086174,75.2557925 66.0731174,78.9943581 L66.1926774,79.0711779 C66.2439174,79.0711779 66.1926774,79.0711779 66.1926774,79.0711779 C66.1926774,79.0711779 66.3293174,79.2162821 66.8075574,79.1906755 C71.1287974,78.2688374 75.2706974,74.4278453 78.8916574,71.5086914 C79.6927387,70.7412546 80.9419818,70.6953466 81.7972873,71.4019135 C82.6525929,72.1084803 82.8426474,73.3433902 82.2393374,74.2742056 C80.1297125,77.6388966 77.5175812,80.6612833 74.4935574,83.2365204 C72.7277307,84.7757718 70.6509913,85.916945 68.4045374,86.5824513 C66.4849611,87.1173643 64.4382833,86.9602423 62.6229574,86.1386033 L61.6920974,85.6606132 C54.5014174,81.6574459 48.3355374,76.4593033 42.1952774,71.0819145 C38.0448374,67.1214249 43.5275174,60.8904822 47.9853974,64.5010147 L48.0024774,64.4839437 Z" id="Path" fill="#EBC0BB"></path>
                <path d="M47.4046774,77.3982125 C49.1090251,78.1526254 50.7584316,79.0253844 52.3407974,80.0100871 C56.4058374,82.4171088 61.1369974,85.5240446 61.1369974,85.5240446 L65.0141574,77.2531084 C57.5928974,69.6394086 46.4567374,63.647461 46.4567374,63.647461 C46.4567374,63.647461 46.0211974,66.2081223 45.8247774,69.0675275 C45.5685774,72.6353824 45.6795974,76.7665827 47.4046774,77.3982125 Z" id="Path" fill="#07B3D2"></path>
                <polygon id="Path" fill="#07B3D2" points="60.5818974 85.387476 65.0141574 75.8020669 67.2345574 78.9858226 62.6912774 86.9409439"></polygon>
                <polygon id="Path" fill="#FFFFFF" opacity="0.6" points="60.5818974 85.387476 65.0141574 75.8020669 67.2345574 78.9858226 62.6912774 86.9409439"></polygon>
                <path d="M47.4046774,75.5630719 C49.098031,76.207724 50.7469854,76.9633375 52.3407974,77.8249894 C51.4267654,73.9956493 49.3578697,70.5393596 46.4140374,67.9237654 C46.2094604,68.0513279 46.01269,68.1909904 45.8247774,68.3420068 C45.5685774,71.4318715 45.6795974,75.0167974 47.4046774,75.5630719 Z" id="Path" fill="#000000" opacity="0.2"></path>
                <path d="M25.4568774,108.996774 C25.4568774,108.996774 25.8667974,115.927631 29.2486374,128.065165 C31.3696229,135.57701 33.9507262,142.951403 36.9773374,150.146602 C38.6853374,154.209518 40.6324574,158.511429 42.8186974,163.052335 C43.8264174,165.117936 44.8939174,167.217678 46.0211974,169.368633 C47.3192774,206.139731 67.9604574,243.516851 67.9604574,243.516851 C69.1048174,244.105803 73.0844574,243.457102 73.0844574,242.296269 C70.0271374,237.448084 64.0149774,190.34045 60.1378174,167.994412 C59.8986974,164.95576 59.5485574,161.70372 59.1215574,158.340718 C57.9857374,149.32719 56.3118974,139.511322 54.6807574,130.881893 C52.1187574,117.293317 49.6763174,106.640965 49.6763174,106.640965 L42.8443174,107.298202 L25.4568774,108.996774 Z" id="Path" fill="#EEC1BB"></path>
                <path d="M17.3267974,159.894186 L17.3267974,159.894186 C17.8961308,163.837605 18.6049508,168.065541 19.4532574,172.577996 C12.0746974,197.16888 27.2417374,245.130068 27.2417374,245.130068 C29.8037374,245.633665 32.0753774,245.300779 33.2197374,244.447225 C30.3588374,229.988024 32.4169774,192.380444 34.6373774,169.923443 C34.8337974,167.891985 35.0814574,165.655674 35.3547374,163.248653 C35.8158974,159.202808 36.3624574,154.713115 36.9431774,150.120995 C37.9167374,142.396334 39.0183974,134.261966 40.0090374,127.075043 C41.2217174,118.360259 42.2806774,110.99409 42.8186974,107.289666 C43.0578174,105.659378 43.1859174,104.729005 43.1859174,104.729005 L21.8956974,107.0336 C21.8956974,107.0336 16.4813374,113.102368 15.6614974,132.051262 C15.3774143,141.36341 15.934775,150.682182 17.3267974,159.894186 L17.3267974,159.894186 Z" id="Path" fill="#EEC1BB"></path>
                <path d="M17.3267974,159.894186 L17.3267974,159.894186 C23.1506384,161.865837 29.2214189,163.015006 35.3632774,163.308401 C35.8244374,159.262557 36.3709974,154.772864 36.9517174,150.180744 C38.6597174,154.24366 40.6068374,158.545571 42.7930774,163.086477 C48.4815723,162.561251 54.0146774,160.941026 59.0873974,158.315112 C57.9515774,149.301584 56.2777374,139.485715 54.6465974,130.856286 C52.3911062,129.537244 49.9539548,128.556566 47.4132174,127.945668 C44.9922074,127.376325 42.5132392,127.089889 40.0261174,127.092114 C36.4047063,127.071261 32.7897426,127.399982 29.2315574,128.073701 C24.5868515,128.93317 20.0445834,130.274828 15.6785774,132.076868 C15.3903864,141.379973 15.9420263,150.690103 17.3267974,159.894186 Z" id="Path" fill="#000000" opacity="0.2"></path>
                <path d="M17.2072374,64.2790908 C17.2072374,64.2790908 18.1551774,67.7957324 19.1799774,73.6681824 C19.4447174,75.1192239 19.7094574,76.7324406 19.9571174,78.4566192 C20.1364574,79.7113433 20.3072574,81.0172806 20.4780574,82.4000377 C20.6659374,83.9620412 20.8452774,85.6094 21.0075374,87.307972 C21.6325935,93.8320795 21.8692838,100.387541 21.7163574,106.939709 L49.7531774,106.939709 C49.7531774,106.939709 54.1768974,74.1632436 46.8751974,63.5962477 C46.8751974,63.664532 32.5023774,56.8958505 17.2072374,64.2790908 Z" id="Path" fill="#07B3D2"></path>
                <path d="M19.1799774,73.7023246 C19.4447174,75.153366 19.7094574,76.7665827 19.9571174,78.4907614 C20.1364574,79.7454854 20.3072574,81.0514227 20.4780574,82.4341799 C21.6878241,78.2477979 21.6581617,73.8007618 20.3926574,69.630873 L19.1799774,73.7023246 Z" id="Path" fill="#000000" opacity="0.2"></path>
                <path d="M31.7081574,58.9017019 C22.9119574,58.9017019 21.8102974,66.1313025 21.8102974,66.1313025 L25.9180374,64.3644461 L38.0021374,72.439065 L40.9655174,64.2876263 L44.6889574,64.9790049 C44.6889574,64.9790049 39.3429174,58.9102374 31.7081574,58.9017019 Z" id="Path" fill="#07B3D2"></path>
                <path d="M31.7081574,58.9017019 C22.9119574,58.9017019 21.8102974,66.1313025 21.8102974,66.1313025 L25.9180374,64.3644461 L38.0021374,72.439065 L40.9655174,64.2876263 L44.6889574,64.9790049 C44.6889574,64.9790049 39.3429174,58.9102374 31.7081574,58.9017019 Z" id="Path" fill="#FFFFFF" opacity="0.6"></path>
                <path d="M26.2596374,62.9048692 L37.6605374,71.4404071 C37.6605374,71.3721228 39.4283174,62.9048692 39.4283174,62.9048692 C36.7382174,62.315917 35.6365574,61.0099797 35.3461974,59.4394408 C35.189706,58.1542893 35.3239553,56.8504179 35.7390374,55.6240553 L29.4279774,50.6307657 L27.7199774,49.2906862 C28.5141974,53.1828915 29.2571774,60.3100656 26.2596374,62.9048692 Z" id="Path" fill="#EEC1BB"></path>
                <path d="M29.3767374,53.5072419 C29.6158574,55.9569413 32.6219374,58.5090671 35.3547374,59.4394408 C35.198246,58.1542893 35.3324953,56.8504179 35.7475774,55.6240553 L29.4365174,50.6307657 C29.2887041,51.5826684 29.2686001,52.5500254 29.3767374,53.5072419 L29.3767374,53.5072419 Z" id="Path" fill="#000000" opacity="0.2"></path>
                <path d="M48.0964174,40.6271152 L47.4986174,40.4137268 L49.4371974,35.0619445 C49.162973,34.7809864 48.8627314,34.5266289 48.5404974,34.3022817 L48.9077174,33.7816138 C49.3426323,34.071661 49.7313017,34.4255969 50.0606174,34.831485 L50.1460174,34.9595181 L48.0964174,40.6271152 Z" id="Path" fill="#07B3D2"></path>
                <path d="M46.8068774,46.8068447 C46.8068774,46.8068447 52.3749574,35.4801859 41.1790174,28.8395374 C29.9830774,22.1988889 21.8786174,36.069138 23.0058974,43.0256014 C23.4841374,46.0215752 24.6114174,49.6747854 27.4979374,51.4757839 C28.6593774,52.1927691 28.7447774,48.9151225 28.7447774,48.9151225 C28.7447774,48.9151225 39.6247374,52.7646501 46.8068774,46.8068447 Z" id="Path" fill="#263238"></path>
                <path d="M28.3006974,39.2785003 C27.3015174,46.1666793 26.7378774,49.0516911 29.3767374,53.413351 C33.3392974,59.9771797 41.8109774,60.1137483 44.7999774,53.7718436 C47.4815374,48.0530332 48.6600574,37.7591745 42.7162174,33.3377659 C40.183246,31.3187372 36.7537871,30.8319619 33.7585491,32.0663199 C30.763311,33.300678 28.673763,36.0618738 28.3006974,39.2785003 L28.3006974,39.2785003 Z" id="Path" fill="#EEC1BB"></path>
                <path d="M35.4657574,36.5044504 C30.3417574,39.9186656 35.8415174,47.6945406 28.6337574,44.8863487 C21.4259974,42.0781567 27.9249374,32.7317427 33.0830974,31.8696534 C38.2412574,31.007564 35.4657574,36.5044504 35.4657574,36.5044504 Z" id="Path" fill="#263238"></path>
                <path d="M42.8699374,46.1752149 C43.1102456,47.6149637 43.5350454,49.0177916 44.1338574,50.3490929 C43.4729617,50.6226567 42.7226392,50.5753922 42.1013374,50.2210598 L42.8699374,46.1752149 Z" id="Path" fill="#D4827D"></path>
                <path d="M40.8288774,39.671135 C40.7404408,39.6588766 40.6508577,39.6835762 40.5812174,39.7394193 C39.9404967,40.2861676 39.0681269,40.475296 38.2583374,40.243016 C38.1757257,40.2137963 38.0846832,40.2201784 38.0069611,40.2606375 C37.929239,40.3010966 37.8718183,40.3719988 37.8484174,40.4564045 C37.8019876,40.6391649 37.9016696,40.8273546 38.0789974,40.8917169 C39.0974382,41.2065424 40.206253,40.9778078 41.0167574,40.2856937 C41.1469558,40.1529342 41.1469558,39.9404631 41.0167574,39.8077036 C40.9705676,39.7430592 40.9046406,39.6951374 40.8288774,39.671135 L40.8288774,39.671135 Z" id="Path" fill="#263238"></path>
                <path d="M45.5771174,40.5246888 C45.4973207,40.494534 45.4092542,40.494534 45.3294574,40.5246888 C45.1650704,40.6148137 45.1040872,40.8205244 45.1928174,40.9856078 C45.6481434,42.0009977 46.5513749,42.7459322 47.6352574,42.9999948 C47.7232073,43.0146492 47.8132581,42.9914828 47.8831995,42.9362092 C47.9531408,42.8809356 47.9964617,42.7987005 48.0024774,42.7097865 C48.0112285,42.5237992 47.8852563,42.3583224 47.7035774,42.3171517 C46.8468871,42.107406 46.1366545,41.5111224 45.7820774,40.7039351 C45.7392699,40.6201378 45.665899,40.5559718 45.5771174,40.5246888 L45.5771174,40.5246888 Z" id="Path" fill="#263238"></path>
                <path d="M38.4974574,33.5596899 C38.4974574,33.5596899 35.3547374,38.8602589 30.6577374,40.1235185 C25.9607374,41.3867781 25.6362174,39.0821829 25.6362174,39.0821829 C25.6362174,39.0821829 25.9863574,32.3391079 32.1778574,30.9392797 C32.1778574,30.9392797 33.0916374,28.9419639 38.4803774,29.3943474 C43.8691174,29.8467309 50.0862374,34.2852106 48.0195574,40.6697929 C46.8517183,39.8558618 45.503658,39.3374227 44.0911574,39.1590027 C43.5482034,36.9609959 42.2289031,35.0330958 40.3762574,33.7304006 C41.6155999,35.1741378 42.3869351,36.9600812 42.5881174,38.8517234 C42.5881174,38.8517234 41.3754374,34.942447 38.4974574,33.5596899 Z" id="Path" fill="#263238"></path>
                <path d="M39.7015974,44.3230031 L41.1021574,44.2717899 C41.1021574,44.2717899 40.2225374,45.1680214 39.7015974,44.3230031 Z" id="Path" fill="#263238"></path>
                <path d="M39.7015974,44.3230031 C38.9878933,44.8829499 37.9980519,44.9308757 37.2335374,44.4425007 C37.2335374,44.4425007 38.4547574,45.4496942 39.2318974,45.2960545 C39.7014369,45.2192871 40.1068845,44.9248579 40.3250174,44.5022494 L39.7015974,44.3230031 Z" id="Path" fill="#263238"></path>
                <path d="M45.3892374,45.2021636 L46.7812574,45.1509503 C46.7812574,45.1509503 45.9016374,46.0471818 45.3892374,45.2021636 Z" id="Path" fill="#263238"></path>
                <path d="M45.3892374,45.2021636 C45.3892374,45.2021636 45.0134774,46.0557173 43.5275174,45.2960545 C43.5275174,45.2960545 44.1338574,46.3288546 44.9109974,46.209357 C45.3805369,46.1325896 45.7859845,45.8381605 46.0041174,45.415552 L45.3892374,45.2021636 Z" id="Path" fill="#263238"></path>
                <path d="M40.9740574,52.9951097 C40.870988,52.9971871 40.7811546,52.9253579 40.7605574,52.8243989 C40.7605574,52.8243989 40.3847974,51.0063293 37.7886374,49.8711028 C37.7364201,49.8486098 37.6953371,49.8062273 37.6744963,49.7533515 C37.6536555,49.7004756 37.6547789,49.6414751 37.6776174,49.58943 C37.7278167,49.4842021 37.8509191,49.4357326 37.9594374,49.478468 C40.7776374,50.716121 41.1704774,52.6622237 41.1790174,52.7475791 C41.1997947,52.8629771 41.1235232,52.9735129 41.0082174,52.9951097 L40.9740574,52.9951097 Z" id="Path" fill="#263238"></path>
                <path d="M38.3778974,32.8427047 C36.4905574,32.8427047 35.0558374,32.0745063 35.0558374,31.0587773 C35.0558374,30.0430482 36.4905574,29.2663143 38.3778974,29.2663143 C40.2652374,29.2663143 41.6999574,30.0345127 41.6999574,31.0587773 C41.6999574,32.0830418 40.2737774,32.8427047 38.3778974,32.8427047 Z M38.3778974,29.9064796 C36.7979974,29.9064796 35.6963374,30.5125028 35.6963374,31.0587773 C35.6963374,31.6050517 36.7979974,32.2025393 38.3778974,32.2025393 C39.9577974,32.2025393 41.0594574,31.5965161 41.0594574,31.0587773 C41.0594574,30.5210384 39.9748774,29.9235507 38.3778974,29.9235507 L38.3778974,29.9064796 Z" id="Shape" fill="#07B3D2"></path>
                <path d="M47.6608774,34.831485 C46.8133995,34.7923477 45.9901171,34.5366757 45.2696774,34.0888932 C43.6299974,33.149984 42.7759974,31.7672269 43.2883974,30.879531 L43.2883974,30.879531 C43.8007974,30.0259772 45.4148574,30.0259772 47.0545374,30.9904929 C48.6942174,31.9550087 49.5482174,33.3206948 49.0358174,34.1998552 C48.7283544,34.64681 48.2004732,34.8893119 47.6608774,34.831485 L47.6608774,34.831485 Z M43.8434974,31.2038814 C43.5702174,31.673336 44.2192574,32.7488138 45.5514974,33.5340832 C46.8837374,34.3193527 48.1732774,34.387637 48.4465574,33.8840403 C48.7198374,33.3804436 48.0707974,32.3391079 46.7385574,31.5453029 C45.4063174,30.7514979 44.1167774,30.7344268 43.8434974,31.2038814 L43.8434974,31.2038814 Z" id="Shape" fill="#07B3D2"></path>
                <path d="M43.1773774,31.6050517 C42.9479388,31.3138631 42.6199149,31.1165444 42.2550574,31.0502417 C42.0091785,31.036851 41.7694833,31.13019 41.5974774,31.3063079 L41.1619374,30.8368533 C41.4645577,30.5372357 41.8812743,30.3818257 42.3062974,30.4100764 C42.8462947,30.4977764 43.3354327,30.7801743 43.6812374,31.2038814 L43.1773774,31.6050517 Z" id="Path" fill="#07B3D2"></path>
                <path d="M29.1888574,43.606018 L28.5910574,43.384094 L32.7927374,31.673336 L32.8610574,31.6135872 C33.6234957,31.1849414 34.4564205,30.8958825 35.3205774,30.7600334 L35.4401374,31.3916632 C34.706982,31.5087038 33.9957905,31.736051 33.3307574,32.0659707 L29.1888574,43.606018 Z" id="Path" fill="#07B3D2"></path>
                <path d="M25.5422774,45.30459 C25.6819306,46.6429422 26.3834641,47.8591257 27.4723174,48.6505209 C28.8387174,49.5638234 30.0855574,48.0615687 30.1709574,46.1666793 C30.2478174,44.4595718 29.6329374,41.8989104 28.0274174,41.8050195 C26.4218974,41.7111286 25.3031574,43.5291981 25.5422774,45.30459 Z" id="Path" fill="#EEC1BB"></path>
                <path d="M26.7122574,251.43783 L27.8993174,251.43783 L28.2323774,249.969718 L32.1522374,251.74511 L42.1098774,251.74511 C42.1098774,251.74511 43.6897774,250.148964 38.9500774,248.885704 C38.717409,248.822435 38.4914565,248.736675 38.2754174,248.629638 C35.7561174,247.443199 32.1522374,243.448567 32.1522374,243.448567 L26.6951774,243.448567 C26.5309412,243.700829 26.3826259,243.963096 26.2510974,244.233836 C25.6532974,245.428812 24.6028774,247.93826 26.7122574,251.43783 Z" id="Path" fill="#263238"></path>
                <path d="M26.2510974,244.233836 L26.2510974,244.233836 C26.9684574,243.431496 30.2478174,246.956673 32.6560974,248.160184 C34.7996374,249.227126 37.2079174,249.696581 38.2754174,248.612567 C35.7561174,247.426127 31.7764774,242.253592 31.7764774,242.253592 L27.3869174,242.253592 C27.3869174,242.253592 26.5072974,243.721704 26.2510974,244.233836 Z" id="Path" fill="#FFC2BC"></path>
                <path d="M68.1568774,251.43783 L69.3439374,251.43783 L69.6684574,249.969718 L73.5968574,251.74511 L83.5288774,251.74511 C83.5288774,251.74511 85.1173174,250.148964 80.3776174,248.885704 C80.1444692,248.823919 79.9183701,248.738103 79.7029574,248.629638 C77.1409574,247.443199 73.5797774,243.448567 73.5797774,243.448567 L68.1568774,243.448567 C67.9926412,243.700829 67.8443259,243.963096 67.7127974,244.233836 C67.1064574,245.428812 66.0731174,247.93826 68.1568774,251.43783 Z" id="Path" fill="#263238"></path>
                <path d="M67.7042574,244.233836 L67.7042574,244.233836 C68.4216174,243.431496 71.7009774,246.956673 74.1007174,248.160184 C76.2527974,249.227126 78.6610774,249.696581 79.7285774,248.612567 C77.1665774,247.426127 73.2296374,242.253592 73.2296374,242.253592 L68.8400774,242.253592 C68.8400774,242.253592 67.9604574,243.721704 67.7042574,244.233836 Z" id="Path" fill="#FFC2BC"></path>
                <path d="M50.0264574,104.754611 L21.7590574,104.754611 L20.9989974,108.390751 C20.9989974,108.390751 10.6143574,122.756061 15.8749974,158.579713 C15.8749974,158.579713 38.6170174,161.200124 60.0353374,156.608004 C60.0353374,156.608004 55.2273174,119.8113 50.1972574,107.801799 L50.0264574,104.754611 Z" id="Path" fill="#263238"></path>
                <polygon id="Path" fill="#263238" points="30.1880374 107.878618 20.7000974 107.878618 21.2722774 105.181388 30.1880374 105.181388"></polygon>
                <polygon id="Path" fill="#263238" points="47.4132174 105.181388 50.2570374 105.181388 50.4961574 107.878618 47.4132174 107.878618"></polygon>
                <rect id="Rectangle" fill="#263238" x="31.1103574" y="105.181388" width="15.36346" height="2.70576551"></rect>
                <polygon id="Path" fill="#FFFFFF" opacity="0.6" points="30.1880374 107.878618 20.7000974 107.878618 21.2722774 105.181388 30.1880374 105.181388"></polygon>
                <polygon id="Path" fill="#FFFFFF" opacity="0.6" points="47.4132174 105.181388 50.2570374 105.181388 50.4961574 107.878618 47.4132174 107.878618"></polygon>
                <rect id="Rectangle" fill="#FFFFFF" opacity="0.6" x="31.1103574" y="105.181388" width="15.36346" height="2.70576551"></rect>
                <rect id="Rectangle" fill="#FFFFFF" transform="translate(40.060277, 106.525736) rotate(180.000000) translate(-40.060277, -106.525736) " x="37.4641174" y="104.968" width="5.19232" height="3.11547133" rx="0.460988619"></rect>
                <path d="M87.1412974,66.8482877 L87.2523174,69.0077788 C87.2890081,69.8167845 86.9406399,70.5954554 86.3129174,71.1075211 L83.3324574,73.4804006 C82.1476887,74.4314106 80.5752519,74.7495514 79.1136974,74.3339544 L78.2084574,74.0778883 C77.7729174,70.5100334 79.9164574,66.3276199 79.9164574,66.3276199 L80.3946974,65.0728958 C80.5782715,64.5441451 80.9662454,64.1110068 81.4718223,63.8703816 C81.9773992,63.6297565 82.5583832,63.6017275 83.0847974,63.7925651 L85.5955574,64.7229387 C86.4877638,65.06121 87.0946657,65.895683 87.1412974,66.8482877 L87.1412974,66.8482877 Z" id="Path" fill="#EEC1BB"></path>
                <path d="M19.2482974,74.0864238 C15.4821574,78.1408043 11.0157374,82.9975254 7.35207744,87.1457968 L7.79615744,86.4373471 C7.88155744,86.2239587 7.84739744,86.1044612 7.79615744,86.1642099 C7.89863744,88.6053738 9.50415744,90.9270401 10.8278574,93.1889576 C12.7749774,96.3215 15.0978574,99.4369714 17.2926374,102.398803 C17.9400559,103.275115 17.8428129,104.494182 17.0646519,105.256897 C16.2864909,106.019612 15.0651205,106.092985 14.2011574,105.428919 C12.5870974,104.174195 11.1352974,102.868258 9.66641744,101.4855 C6.59798167,98.6713092 3.94923525,95.4318114 1.80107744,91.8659493 C0.280957438,89.1687193 -0.991502562,85.2509074 1.09225744,82.2634691 C4.63648903,77.1221921 8.63807788,72.3113673 13.0482574,67.8896233 C17.2584774,64.0913089 23.0485974,69.8784036 19.2482974,74.0864238 L19.2482974,74.0864238 Z" id="Path" fill="#EBC0BB"></path>
                <path d="M17.2072374,64.2705552 C17.2072374,64.2705552 10.8449374,67.5652729 2.08289744,79.7881631 L9.04299744,85.4642958 L19.6582174,76.5446587 C20.7248526,74.0375338 21.0851429,71.2865899 20.7000974,68.5895374 C19.9400374,64.5778346 17.2072374,64.2705552 17.2072374,64.2705552 Z" id="Path" fill="#07B3D2"></path>
                <polygon id="Path" fill="#07B3D2" points="10.0336374 85.05459 1.42531744 78.2603018 0.110157438 82.0244741 8.30855744 86.9409439"></polygon>
                <polygon id="Path" fill="#FFFFFF" opacity="0.6" points="10.0336374 85.05459 1.42531744 78.2603018 0.110157438 82.0244741 8.30855744 86.9409439"></polygon>
                <path d="M21.5370174,109.363802 L21.7078174,107.212846 C21.7631598,106.402339 21.4304138,105.613668 20.8111174,105.087497 L17.8989774,102.646334 C16.7321985,101.673766 15.1673835,101.324091 13.6972974,101.707424 L12.7835174,101.94642 C12.2625774,105.497203 14.3121774,109.73083 14.3121774,109.73083 L14.7647974,111.002625 C14.9384327,111.53482 15.3174953,111.975687 15.8177925,112.227308 C16.3180896,112.478928 16.8982003,112.520469 17.4292774,112.342705 L19.9912774,111.489151 C20.8834838,111.15088 21.4903857,110.316407 21.5370174,109.363802 L21.5370174,109.363802 Z" id="Path" fill="#EEC1BB"></path>
                <path d="M30.1794974,29.3260631 C30.1794974,29.3260631 27.8907774,19.8345449 19.1799774,21.5245814 C10.4691774,23.2146179 15.8835374,37.6311414 14.0559774,43.0256014 C12.2284174,48.4200613 11.8697374,56.8531728 19.1799774,58.3895696 C17.1551481,56.5756006 16.5491838,53.6546482 17.6854774,51.1855756 C17.447674,52.5082948 17.729068,53.8717311 18.4711574,54.9924255 C17.6149473,53.2245461 17.8936427,51.1169644 19.1799774,49.6321077 C21.4003774,47.1397307 25.8240974,37.861601 26.2596374,34.9595181 C26.6951774,32.0574352 30.1794974,29.3260631 30.1794974,29.3260631 Z" id="Path" fill="#263238"></path>
                <path d="M79.3791313,31.2260971 L80.2331178,31.2260971 C80.8415382,31.2260971 81.3348045,31.7192524 81.3348591,32.3273742 L81.3389188,77.609195 L78.298727,77.609195 L78.2946703,32.3612444 C78.2946158,31.7531227 78.7877938,31.2601868 79.3962141,31.2602413 L79.3791313,31.2260971 Z" id="Path" fill="#263238" transform="translate(79.816795, 54.417646) rotate(169.970000) translate(-79.816795, -54.417646) "></path>
                <ellipse id="Oval" fill="#07B3D2" transform="translate(72.568848, 22.151642) rotate(-10.030000) translate(-72.568848, -22.151642) " cx="72.5688476" cy="22.1516418" rx="18.0191144" ry="19.0089443"></ellipse>
                <ellipse id="Oval" fill="#FFFFFF" opacity="0.6" transform="translate(72.568848, 22.151642) rotate(-10.030000) translate(-72.568848, -22.151642) " cx="72.5688476" cy="22.1516418" rx="18.0191144" ry="19.0089443"></ellipse>
                <ellipse id="Oval" fill="#07B3D2" transform="translate(74.250318, 21.854815) rotate(-10.030000) translate(-74.250318, -21.854815) " cx="74.2503177" cy="21.8548154" rx="18.0191144" ry="19.0089443"></ellipse>
                <ellipse id="Oval" fill="#FFFFFF" opacity="0.7" transform="translate(74.250318, 21.854815) rotate(-10.030000) translate(-74.250318, -21.854815) " cx="74.2503177" cy="21.8548154" rx="18.0191144" ry="19.0089443"></ellipse>
                <polygon id="Path" fill="#07B3D2" points="66.0304174 31.5538385 72.5976774 22.1647468 63.2036774 15.6009181 64.5615374 13.663351 73.9555374 20.2271797 80.5227974 10.838088 82.4613774 12.1952385 75.8941174 21.5843302 85.2881174 28.1481588 83.9302574 30.0857259 74.5362574 23.5218973 67.9689974 32.910989"></polygon>
            </g>
            <g id="freepik--light-bulb--inject-11" transform="translate(69.865740, 211.681340)">
                <path d="M80.94212,0 L80.94212,8.93670818 L71.32608,7.02474769 L68.99466,8.45871806 L71.32608,12.6752738 L66.97068,9.30373631 L62.41032,9.97804381 L60.55714,23.8568284 L55.49292,19.5890595 L47.07248,26.4174898 L49.32704,30.5742968 L44.37384,25.342012 L34.02336,35.0981318 L34.02336,26.2894567 L27.77208,32.0936225 L25.78226,48.652566 L37.73826,64.8018037 L62.06018,65.6553575 L92.47112,53.6373202 C92.47112,53.6373202 96.18602,30.847434 96.18602,30.3438372 L96.18602,13.2727614 L87.73996,4.41287309 L80.94212,0 Z" id="Path" fill="#07B3D2"></path>
                <path d="M80.94212,0 L80.94212,8.93670818 L71.32608,7.02474769 L68.99466,8.45871806 L71.32608,12.6752738 L66.97068,9.30373631 L62.41032,9.97804381 L60.55714,23.8568284 L55.49292,19.5890595 L47.07248,26.4174898 L49.32704,30.5742968 L44.37384,25.342012 L34.02336,35.0981318 L34.02336,26.2894567 L27.77208,32.0936225 L25.78226,48.652566 L37.73826,64.8018037 L62.06018,65.6553575 L92.47112,53.6373202 C92.47112,53.6373202 96.18602,30.847434 96.18602,30.3438372 L96.18602,13.2727614 L87.73996,4.41287309 L80.94212,0 Z" id="Path" fill="#FFFFFF" opacity="0.3"></path>
                <path d="M130.82426,93.0373631 C136.24716,95.3504939 143.8136,89.7853232 147.71638,80.6096199 C151.61916,71.4339167 150.40648,62.1387159 144.98358,59.8255851 C139.56068,57.5124544 131.99424,63.0861606 128.08292,72.2533283 C124.1716,81.420496 125.41844,90.7242323 130.82426,93.0373631 Z" id="Path" fill="#263238"></path>
                <path d="M109.89272,92.3033068 C108.662416,92.8359799 107.274345,92.8757056 106.01556,92.4142688 C100.69514,90.1523513 101.199,76.9990874 107.15138,63.0434829 C113.10376,49.0878785 122.24156,39.6048959 127.56198,41.8753489 C128.751319,42.4689347 129.66809,43.4951812 130.12398,44.7432897 C130.764876,44.697686 131.407685,44.7998977 132.00278,45.0420335 C133.205503,45.6222069 134.127457,46.6573269 134.56478,47.9185098 C135.224956,47.8567854 135.890249,47.9563808 136.50336,48.2087181 C137.696864,48.8008819 138.59955,49.8508993 139.00558,51.1193365 C139.67705,51.0330092 140.359447,51.1212041 140.98686,51.3754026 C142.18393,51.9726379 143.075956,53.043748 143.44638,54.3286987 C144.127791,54.2110392 144.828509,54.2849161 145.47036,54.5420872 C149.89408,56.4284411 149.47562,67.345394 144.53096,78.9622611 C139.5863,90.5791282 131.9857,98.4488941 127.56198,96.5625403 C126.933666,96.2745886 126.394017,95.8236422 125.99916,95.256603 C124.814326,95.8755886 123.425388,95.9745257 122.1647,95.5297402 C121.548285,95.2504021 121.013333,94.8185516 120.61042,94.2750161 C119.41476,94.8654083 118.029806,94.9424812 116.77596,94.4884046 C116.170085,94.223438 115.639102,93.8129476 115.23022,93.2934292 C114.018895,93.8442215 112.640687,93.9023821 111.38722,93.4556045 C110.808219,93.1895038 110.297212,92.7955043 109.89272,92.3033068 L109.89272,92.3033068 Z" id="Path" fill="#263238"></path>
                <path d="M109.89272,92.3033068 C108.662416,92.8359799 107.274345,92.8757056 106.01556,92.4142688 C100.69514,90.1523513 101.199,76.9990874 107.15138,63.0434829 C113.10376,49.0878785 122.24156,39.6048959 127.56198,41.8753489 C128.751319,42.4689347 129.66809,43.4951812 130.12398,44.7432897 C130.764876,44.697686 131.407685,44.7998977 132.00278,45.0420335 C133.205503,45.6222069 134.127457,46.6573269 134.56478,47.9185098 C135.224956,47.8567854 135.890249,47.9563808 136.50336,48.2087181 C137.696864,48.8008819 138.59955,49.8508993 139.00558,51.1193365 C139.67705,51.0330092 140.359447,51.1212041 140.98686,51.3754026 C142.18393,51.9726379 143.075956,53.043748 143.44638,54.3286987 C144.127791,54.2110392 144.828509,54.2849161 145.47036,54.5420872 C149.89408,56.4284411 149.47562,67.345394 144.53096,78.9622611 C139.5863,90.5791282 131.9857,98.4488941 127.56198,96.5625403 C126.933666,96.2745886 126.394017,95.8236422 125.99916,95.256603 C124.814326,95.8755886 123.425388,95.9745257 122.1647,95.5297402 C121.548285,95.2504021 121.013333,94.8185516 120.61042,94.2750161 C119.41476,94.8654083 118.029806,94.9424812 116.77596,94.4884046 C116.170085,94.223438 115.639102,93.8129476 115.23022,93.2934292 C114.018895,93.8442215 112.640687,93.9023821 111.38722,93.4556045 C110.808219,93.1895038 110.297212,92.7955043 109.89272,92.3033068 L109.89272,92.3033068 Z" id="Path" fill="#FFFFFF" opacity="0.3"></path>
                <path d="M53.96426,92.6276573 C67.3341163,98.3353523 82.5602803,97.7495546 95.45158,91.0315117 C97.8246429,89.7690068 100.670577,89.7690068 103.04364,91.0315117 C103.153099,91.0968305 103.267282,91.1538926 103.38524,91.2022225 C108.79106,93.4982822 118.07404,83.8787309 124.11182,69.7012025 C130.1496,55.523674 130.67054,42.1740928 125.26472,39.8694975 C125.145091,39.8192423 125.022447,39.7764819 124.8975,39.7414645 C122.366056,38.9178031 120.414242,36.8837243 119.69664,34.3213979 C115.428412,19.6625735 104.507789,7.86548386 90.21656,2.47530599 C87.2248509,1.34112569 84.1261896,0.511816126 80.96774,0 L77.87626,1.29740176 L87.04822,8.38189822 L85.56226,9.56833799 L87.08238,12.4362787 L84.05068,10.584067 L80.63468,12.4362787 L87.05676,26.2894567 L74.17844,28.4745544 L72.53022,31.0352158 L76.50986,36.813775 L71.1809,32.1192291 L66.27894,37.4539403 L64.92962,54.3372343 L60.5486,48.9342388 L51.9232,38.2989586 L44.82646,38.2989586 L43.11846,44.7091475 L43.11846,38.1282478 L37.37104,36.813775 L29.53132,48.1233627 L27.91726,50.4535645 L29.11286,45.1700666 L29.11286,45.1700666 L31.80296,33.2203135 L30.55612,33.5446639 L27.91726,34.2360425 L29.96686,28.1672751 L28.71148,27.8429246 C23.3067249,39.7618496 22.9392137,53.3555418 27.6920859,65.5487957 C32.4449581,77.7420495 41.9165825,87.5045003 53.96426,92.6276573 L53.96426,92.6276573 Z" id="Path" fill="#07B3D2"></path>
                <path d="M103.1632,90.1694224 C107.97976,92.2862358 116.71618,83.0251772 122.66856,69.4792785 C128.62094,55.9333799 129.54326,43.241035 124.7267,41.1242216 C119.91014,39.0074082 111.18226,48.2684668 105.20426,61.8143655 C99.22626,75.3602641 98.37226,88.052609 103.1632,90.1694224 Z" id="Path" fill="#000000" opacity="0.2"></path>
                <path d="M78.10684,76.879777 C78.1837629,76.8821679 78.259205,76.858039 78.32034,76.8113056 C89.49066,68.5062272 112.48034,74.5408525 112.75362,74.6006012 C112.843152,74.6265126 112.939389,74.6147324 113.020018,74.5679919 C113.100647,74.5212514 113.158665,74.4436104 113.18062,74.3530706 C113.229498,74.1669525 113.118867,73.976308 112.93296,73.9262938 C112.0021,73.6787632 90.6094,68.0794503 78.90106,75.565117 L82.01816,68.250161 C82.0695081,68.1222549 82.0429483,67.9762524 81.94984,67.8745974 L77.29554,63.0434829 L90.50692,62.4630664 C90.6427398,62.4593761 90.7634589,62.3755872 90.81436,62.2496779 C90.8644393,62.1257621 90.8413972,61.9842917 90.75458,61.8826498 L81.95838,51.8960704 L93.91438,50.7693794 C94.0424903,50.7555425 94.1533298,50.6740855 94.20474,50.555991 C94.2583945,50.4394738 94.2383096,50.3022986 94.1535,50.2060339 L86.74078,40.8596199 L93.49592,40.8596199 C93.6359607,40.8561775 93.7618429,40.7734035 93.82044,40.6462315 L97.07418,33.0069251 C98.5943,36.6003865 105.61418,51.4949002 119.97846,57.6063453 C120.157692,57.6779741 120.361498,57.5949855 120.43962,57.4185635 C120.476121,57.3338106 120.476746,57.2379001 120.441353,57.152679 C120.40596,57.067458 120.337562,57.0001836 120.25174,56.9661799 C104.23924,50.1377496 97.47556,32.1533713 97.40724,31.974125 C97.3628954,31.8370665 97.2353813,31.7436296 97.09126,31.7436296 C96.947481,31.7416383 96.8163878,31.8256285 96.7582,31.9570539 L93.24826,40.1597058 L85.9978,40.1597058 C85.8640951,40.1611629 85.7423012,40.2368331 85.68182,40.3560232 C85.6144083,40.4690895 85.6144083,40.609985 85.68182,40.7230513 L93.14578,50.112143 L81.18978,51.2559051 C81.0595225,51.2640313 80.9460166,51.347448 80.89942,51.4692935 C80.8487699,51.5903446 80.8720074,51.7296969 80.9592,51.8277861 L89.74686,61.7972944 L76.49278,62.377711 C76.3556193,62.3850115 76.2353975,62.471793 76.18534,62.599635 C76.1354328,62.7263497 76.1656381,62.8705887 76.2622,62.9666631 L81.28372,68.1904123 L77.79086,76.3930642 C77.7454431,76.5001078 77.7561839,76.6227068 77.819523,76.7202323 C77.8828621,76.8177578 77.9905278,76.8774735 78.10684,76.879777 L78.10684,76.879777 Z" id="Path" fill="#263238"></path>
                <path d="M53.96426,92.6276573 C67.3341163,98.3353523 82.5602803,97.7495546 95.45158,91.0315117 C97.8246429,89.7690068 100.670577,89.7690068 103.04364,91.0315117 C103.153099,91.0968305 103.267282,91.1538926 103.38524,91.2022225 C108.79106,93.4982822 118.07404,83.8787309 124.11182,69.7012025 C130.1496,55.523674 130.67054,42.1740928 125.26472,39.8694975 C125.145091,39.8192423 125.022447,39.7764819 124.8975,39.7414645 C122.366056,38.9178031 120.414242,36.8837243 119.69664,34.3213979 C115.428412,19.6625735 104.507789,7.86548386 90.21656,2.47530599 C87.2248509,1.34112569 84.1261896,0.511816126 80.96774,0 L77.87626,1.29740176 L87.04822,8.38189822 L85.56226,9.56833799 L87.08238,12.4362787 L84.05068,10.584067 L80.63468,12.4362787 L87.05676,26.2894567 L74.17844,28.4745544 L72.53022,31.0352158 L76.50986,36.813775 L71.1809,32.1192291 L66.27894,37.4539403 L64.92962,54.3372343 L60.5486,48.9342388 L51.9232,38.2989586 L44.82646,38.2989586 L43.11846,44.7091475 L43.11846,38.1282478 L37.37104,36.813775 L29.53132,48.1233627 L27.91726,50.4535645 L29.11286,45.1700666 L29.11286,45.1700666 L31.80296,33.2203135 L30.55612,33.5446639 L27.91726,34.2360425 L29.96686,28.1672751 L28.71148,27.8429246 C23.3067249,39.7618496 22.9392137,53.3555418 27.6920859,65.5487957 C32.4449581,77.7420495 41.9165825,87.5045003 53.96426,92.6276573 L53.96426,92.6276573 Z" id="Path" fill="#FFFFFF" opacity="0.6"></path>
                <path d="M37.39666,36.7881683 L29.55694,48.0977561 C30.62444,53.3556474 33.42556,57.5465965 37.72118,59.4329504 C45.09974,62.6764548 54.51936,58.0587288 60.55714,48.9086322 L51.93174,38.2733519 L44.835,38.2733519 L43.127,44.6835409 L43.127,38.1026412 L37.39666,36.7881683 Z" id="Path" fill="#FFFFFF" opacity="0.2"></path>
                <path d="M29.13848,45.1273889 L31.82858,33.1776358 L30.58174,33.5019863 C29.3715156,37.2514928 28.881821,41.1959633 29.13848,45.1273889 L29.13848,45.1273889 Z" id="Path" fill="#FFFFFF" opacity="0.2"></path>
                <path d="M45.42426,71.3144192 C46.66256,73.5763367 50.32622,73.9689714 53.59704,72.1679729 C56.86786,70.3669744 58.51608,67.0893279 57.27778,64.8188748 C56.03948,62.5484217 52.37582,62.1643225 49.105,63.965321 C45.83418,65.7663195 44.1518,69.0439661 45.42426,71.3144192 Z" id="Path" fill="#FFFFFF" opacity="0.2"></path>
                <g id="Group" opacity="0.2" transform="translate(112.813400, 47.466126)" fill="#FFFFFF">
                    <path d="M19.52244,0 C19.310527,4.17258338 18.7390776,8.31913779 17.81444,12.393601 C17.31912,14.3994524 16.84942,16.4053038 16.16622,18.3684776 C15.85878,19.3500644 15.48302,20.3060447 15.14142,21.2705604 C14.79982,22.2350762 14.37282,23.1739854 13.94582,24.104359 C13.09182,25.9907129 12.23782,27.8429246 11.19594,29.6353876 C10.15406,31.4278505 9.10364,33.1861714 7.99344,34.9274211 C5.68928558,38.4036876 3.00860379,41.61539 0,44.5042946 C1.87350661,43.4758885 3.61674635,42.2264553 5.19232,40.7828001 C6.7823048,39.3456756 8.25845211,37.7875416 9.6075,36.1223964 C10.9561264,34.4512252 12.1914864,32.6918282 13.30532,30.8559695 C14.4091439,28.9887654 15.4098224,27.0625396 16.30286,25.0859459 C18.0434482,21.1456665 19.216552,16.9787259 19.78718,12.7094159 C20.0826812,10.5887396 20.2168592,8.44871975 20.18856,6.30776251 C20.1706954,4.18861716 19.9476149,2.07617701 19.52244,0 L19.52244,0 Z" id="Path"></path>
                </g>
                <g id="Group" opacity="0.2" transform="translate(117.997180, 49.873148)" fill="#FFFFFF">
                    <path d="M19.54806,0 C19.1756939,4.16812093 18.5050101,8.30422015 17.54116,12.37653 C17.02876,14.3909169 16.54198,16.3967683 15.91856,18.3514065 L14.9877,21.3132381 C14.63756,22.2862895 14.32158,23.2849474 13.93728,24.2323921 C13.55298,25.1798368 13.22846,26.1528881 12.77584,27.0661907 L12.14388,28.4660189 L11.43506,29.8231694 C10.99952,30.7535431 10.45296,31.6241679 9.9491,32.5118639 C9.68436,32.9557118 9.394,33.3654177 9.0951,33.8092656 C8.7962,34.2531136 8.54854,34.6628194 8.2411,35.1066674 C7.07709657,36.816438 5.80488711,38.4500594 4.43226,39.9975306 C3.0638327,41.5845387 1.58256286,43.0707398 0,44.4445458 C1.9106142,43.4848606 3.69484351,42.2921731 5.31188,40.8937621 C6.95711963,39.5068506 8.47214903,37.9726134 9.83808,36.3101782 C12.5921108,32.9626744 14.7762179,29.1850188 16.30286,25.1286236 C17.7917519,21.1119617 18.8509234,16.9490179 19.46266,12.7094159 C20.1372893,8.50190803 20.1660869,4.21618474 19.54806,0 L19.54806,0 Z" id="Path"></path>
                </g>
                <g id="Group" opacity="0.2" transform="translate(123.889780, 53.347112)" fill="#FFFFFF">
                    <path d="M18.03648,0 C17.9531686,3.88934763 17.4201484,7.75602103 16.44804,11.5229762 C15.5168217,15.2597653 14.3035119,18.9206198 12.81854,22.4740713 C12.09778,24.2504902 11.2853904,25.9883804 10.38464,27.6807494 C9.53064,29.387857 8.48876,31.0096092 7.48104,32.6398969 C5.3591808,35.8955265 2.84684414,38.8795173 0,41.5253919 C1.78477946,40.6273124 3.44425179,39.4995756 4.93612,38.1709255 C6.4421208,36.8420984 7.83337261,35.3887571 9.0951,33.8263367 C9.71852,33.0410672 10.35048,32.2472622 10.89704,31.4022439 L11.75104,30.1475199 L12.52818,28.8586536 C15.5360907,23.6240043 17.5321386,17.8706298 18.41224,11.8985398 C19.0869042,7.94732758 18.9591142,3.90082171 18.03648,0 Z" id="Path"></path>
                </g>
                <g id="Group" opacity="0.2" transform="translate(129.346840, 57.905089)" fill="#FFFFFF">
                    <path d="M17.28496,0 C16.8985797,3.54964808 16.2187498,7.0612189 15.25244,10.4987116 C14.3069927,13.8932583 13.1285255,17.2186211 11.72542,20.4511488 C10.333574,23.6833037 8.69771325,26.8049382 6.832,29.7890273 C4.96196724,32.8202212 2.66051535,35.5632686 0,37.9319304 C1.68826204,37.1972968 3.24802836,36.1973779 4.62014,34.9700988 C6.00981667,33.752084 7.28477202,32.4092232 8.42898,30.958396 C10.7103343,28.0591281 12.5970322,24.8703515 14.03976,21.4754134 C15.4991645,18.0976274 16.5540537,14.5592919 17.18248,10.934024 C17.8577383,7.32354037 17.8924267,3.62249356 17.28496,0 L17.28496,0 Z" id="Path"></path>
                </g>
                <polyline id="Path" fill="#07B3D2" points="14.6461 96.5283981 25.73956 96.5283981 20.18856 93.5494954 13.51882 96.5283981"></polyline>
                <polygon id="Path" fill="#07B3D2" points="40.0953 96.5283981 44.98018 95.0432145 50.0871 95.3590294 48.65238 96.6564312"></polygon>
                <polygon id="Path" fill="#07B3D2" points="29.55694 91.9448143 37.38812 90.4937728 41.44462 91.2192935 40.0953 93.5494954"></polygon>
                <polygon id="Path" fill="#07B3D2" points="0 93.5494954 5.6364 92.0216341 11.81936 92.6959416 8.78766 95.0432145"></polygon>
                <polygon id="Path" fill="#07B3D2" points="94.1535 96.844213 100.07172 96.844213 98.2954 94.8810393 94.1535 94.8810393"></polygon>
                <g id="Group" opacity="0.6" transform="translate(0.000000, 90.493773)" fill="#FFFFFF">
                    <polyline id="Path" points="14.6461 6.0346253 25.73956 6.0346253 20.18856 3.05572257 13.51882 6.0346253"></polyline>
                    <polygon id="Path" points="40.0953 6.0346253 44.98018 4.5494417 50.0871 4.8652566 48.65238 6.16265836"></polygon>
                    <polygon id="Path" points="29.55694 1.45104144 37.38812 0 41.44462 0.725520721 40.0953 3.05572257"></polygon>
                    <polygon id="Path" points="0 3.05572257 5.6364 1.52786128 11.81936 2.20216878 8.78766 4.5494417"></polygon>
                    <polygon id="Path" points="94.1535 6.3504402 100.07172 6.3504402 98.2954 4.38726648 94.1535 4.38726648"></polygon>
                </g>
            </g>
            <g id="freepik--speech-bubble--inject-11" transform="translate(73.871000, 101.359513)">
                <polygon id="Path" fill="#263238" points="13.75794 26.2979923 0.52948 12.6752738 15.66236 23.310554 18.4037 19.0342495 7.8568 8.16850977 19.92382 16.6528344 28.98476 2.5009126 80.7457 7.20399399 83.24792 10.4218918 93.99124 0 85.03278 12.726487 88.42316 17.0881469 98.49182 7.32349152 90.097 19.2561735 113.24894 49.0878785 100.19982 66.1760253 110.54176 76.8283766 98.51744 68.3781941 95.05874 72.9191003 103.22298 81.3266051 93.7265 74.66035 82.53056 89.3244041 57.57668 87.1307709 62.62382 104.364022 51.67554 104.184776 63.95606 137.695297 39.84764 97.7575156 51.03504 98.5854627 45.63776 86.0808997 31.46136 84.8347112 20.94862 72.4581812 8.85598 84.1945458 18.84778 69.9828752 15.50864 66.0479923 4.34686 76.8710543 13.57006 63.7690037 0 47.7904767"></polygon>
                <polygon id="Path" fill="#FFFFFF" opacity="0.3" points="13.75794 26.2979923 0.52948 12.6752738 15.66236 23.310554 18.4037 19.0342495 7.8568 8.16850977 19.92382 16.6528344 28.98476 2.5009126 80.7457 7.20399399 83.24792 10.4218918 93.99124 0 85.03278 12.726487 88.42316 17.0881469 98.49182 7.32349152 90.097 19.2561735 113.24894 49.0878785 100.19982 66.1760253 110.54176 76.8283766 98.51744 68.3781941 95.05874 72.9191003 103.22298 81.3266051 93.7265 74.66035 82.53056 89.3244041 57.57668 87.1307709 62.62382 104.364022 51.67554 104.184776 63.95606 137.695297 39.84764 97.7575156 51.03504 98.5854627 45.63776 86.0808997 31.46136 84.8347112 20.94862 72.4581812 8.85598 84.1945458 18.84778 69.9828752 15.50864 66.0479923 4.34686 76.8710543 13.57006 63.7690037 0 47.7904767"></polygon>
                <path d="M59.48964,58.8269272 C55.36482,61.4644084 53.7166,62.2411424 50.40308,70.7766803 C50.40308,70.7766803 48.5072,72.4837878 47.59342,68.804971 C46.67964,65.1261542 50.88132,58.9720314 51.24,56.4028344 C51.59868,53.8336375 41.846,53.9275285 39.69392,52.9886193 C37.54184,52.0497101 36.70492,48.2428602 39.86472,47.0137428 C39.86472,47.0137428 34.43328,43.812916 41.1201,40.7059802 C41.1201,40.7059802 37.51622,36.6942774 42.69146,34.6713549 C42.69146,34.6713549 41.44462,31.3595662 47.43116,30.0707 C51.87196,29.1061842 66.93652,33.7580524 69.02028,36.813775 L65.96296,53.031297 C64.75028,56.4967254 62.32492,57.0003221 59.48964,58.8269272 Z" id="Path" fill="#FFFFFF"></path>
                <path d="M68.1431471,36.2059834 L75.2150903,36.2052704 C75.9741664,36.2049167 76.5895813,36.8202075 76.5896579,37.5792837 C76.5896579,37.5793761 76.5896579,37.5794685 76.5893807,37.5795608 L76.5875176,56.0504796 C76.5871638,56.8094475 75.9719178,57.4246935 75.2129499,57.4250472 L68.1410067,57.4257602 C67.3819305,57.4261139 66.7665157,56.8108231 66.7664391,56.0517469 C66.7664391,56.0516545 66.7664391,56.0515621 66.7667163,56.0514698 L66.7685794,37.580551 C66.7689332,36.821583 67.3841792,36.2063371 68.1431471,36.2059834 Z" id="Rectangle" fill="#07B3D2" transform="translate(71.678048, 46.815515) rotate(-168.650000) translate(-71.678048, -46.815515) "></path>
                <path d="M68.1431471,36.2059834 L75.2150903,36.2052704 C75.9741664,36.2049167 76.5895813,36.8202075 76.5896579,37.5792837 C76.5896579,37.5793761 76.5896579,37.5794685 76.5893807,37.5795608 L76.5875176,56.0504796 C76.5871638,56.8094475 75.9719178,57.4246935 75.2129499,57.4250472 L68.1410067,57.4257602 C67.3819305,57.4261139 66.7665157,56.8108231 66.7664391,56.0517469 C66.7664391,56.0516545 66.7664391,56.0515621 66.7667163,56.0514698 L66.7685794,37.580551 C66.7689332,36.821583 67.3841792,36.2063371 68.1431471,36.2059834 Z" id="Rectangle" fill="#FFFFFF" opacity="0.5" transform="translate(71.678048, 46.815515) rotate(-168.650000) translate(-71.678048, -46.815515) "></path>
                <path d="M72.163,38.3928495 C72.2985315,37.7284552 72.946783,37.2992615 73.6117383,37.43367 C74.2766937,37.5680786 74.7071377,38.2153109 74.5737119,38.8801308 C74.4402862,39.5449507 73.7933979,39.9761941 73.12802,39.8438909 C72.8060002,39.7822168 72.5223197,39.5937119 72.3408162,39.3207962 C72.1593127,39.0478804 72.095234,38.7134811 72.163,38.3928495 L72.163,38.3928495 Z" id="Path" fill="#FFFFFF"></path>
            </g>
        </g>
    </g>
</svg>