<?xml version="1.0" encoding="UTF-8"?><svg version="1.1" width="41px" height="41px" viewBox="0 0 41.0 41.0" xmlns="http://www.w3.org/2000/svg" xmlns:xlink="http://www.w3.org/1999/xlink"><defs><clipPath id="i0"><path d="M41,0 L41,41 L0,41 L0,0 L41,0 Z"></path></clipPath><clipPath id="i1"><path d="M15.7166667,0 C19.8849858,0 23.8825815,1.65585834 26.8300282,4.60330509 C29.777475,7.55075184 31.4333333,11.5483475 31.4333333,15.7166667 C31.4333333,24.396742 24.396742,31.4333333 15.7166667,31.4333333 C7.03659135,31.4333333 0,24.396742 0,15.7166667 C0,7.03659135 7.03659135,0 15.7166667,0 Z M15.7166667,20.690991 C11.8227087,20.690991 8.18943084,22.6479574 6.0467807,25.8994123 C11.4567692,31.0695378 19.9765641,31.0695378 25.3865526,25.8994123 C23.2439025,22.6479574 19.6106246,20.690991 15.7166667,20.690991 Z M25.3342863,5.45319558 C19.9228733,0.371939965 11.4939162,0.371939965 6.08250322,5.45319558 C0.671090291,10.5344512 0.141171843,18.9467342 4.87216667,24.6668947 C6.61402244,22.2043953 9.13930658,20.4052032 12.0356579,19.563114 C9.61221826,17.9435925 8.53379313,14.9291267 9.37999933,12.1398894 C10.2262055,9.35065216 12.7977563,7.44352573 15.7125307,7.44352573 C18.6273051,7.44352573 21.1988559,9.35065216 22.0450621,12.1398894 C22.8912683,14.9291267 21.8128431,17.9435925 19.3894035,19.563114 C22.2857548,20.4052032 24.811039,22.2043953 26.5528947,24.6668947 L26.548,24.661 L26.7625364,24.3968134 C31.1865115,18.7753326 30.6788064,10.7156797 25.5843695,5.69379618 Z M15.7166667,9.09912281 C12.9755903,9.09912281 10.7535088,11.3212043 10.7535088,14.0622807 C10.7535088,16.8033571 12.9755903,19.0254386 15.7166667,19.0254386 C18.4577431,19.0254386 20.6798246,16.8033571 20.6798246,14.0622807 C20.6798246,11.3212043 18.4577431,9.09912281 15.7166667,9.09912281 Z"></path></clipPath></defs><g clip-path="url(#i0)"><g transform="translate(5.466666666666665 5.466666666666665)"><g clip-path="url(#i1)"><polygon points="0,0 31.4333333,0 31.4333333,31.4333333 0,31.4333333 0,0" stroke="none" fill="#8F8F8F"></polygon></g><path d="M15.7166667,0 C7.03659135,0 0,7.03659135 0,15.7166667 C0,24.396742 7.03659135,31.4333333 15.7166667,31.4333333 C24.396742,31.4333333 31.4333333,24.396742 31.4333333,15.7166667 C31.4333333,11.5483475 29.777475,7.55075184 26.8300282,4.60330509 C23.8825815,1.65585834 19.8849858,0 15.7166667,0 Z M6.0467807,25.8994123 C8.18943084,22.6479574 11.8227087,20.690991 15.7166667,20.690991 C19.6106246,20.690991 23.2439025,22.6479574 25.3865526,25.8994123 C19.9765641,31.0695378 11.4567692,31.0695378 6.0467807,25.8994123 L6.0467807,25.8994123 Z M10.7535088,14.0622807 C10.7535088,11.3212043 12.9755903,9.09912281 15.7166667,9.09912281 C18.4577431,9.09912281 20.6798246,11.3212043 20.6798246,14.0622807 C20.6798246,16.8033571 18.4577431,19.0254386 15.7166667,19.0254386 C12.9755903,19.0254386 10.7535088,16.8033571 10.7535088,14.0622807 Z M26.5528947,24.6668947 C24.811039,22.2043953 22.2857548,20.4052032 19.3894035,19.563114 C21.8128431,17.9435925 22.8912683,14.9291267 22.0450621,12.1398894 C21.1988559,9.35065216 18.6273051,7.44352573 15.7125307,7.44352573 C12.7977563,7.44352573 10.2262055,9.35065216 9.37999933,12.1398894 C8.53379313,14.9291267 9.61221826,17.9435925 12.0356579,19.563114 C9.13930658,20.4052032 6.61402244,22.2043953 4.87216667,24.6668947 C0.141171843,18.9467342 0.671090291,10.5344512 6.08250322,5.45319558 C11.4939162,0.371939965 19.9228733,0.371939965 25.3342863,5.45319558 C30.7456992,10.5344512 31.2756176,18.9467342 26.5446228,24.6668947 L26.5528947,24.6668947 Z" stroke="#8E8E8E" stroke-width="0.5" fill="none" stroke-miterlimit="10"></path></g></g></svg>