<?xml version="1.0" encoding="UTF-8"?><svg version="1.1" width="36px" height="36px" viewBox="0 0 36.0 36.0" xmlns="http://www.w3.org/2000/svg" xmlns:xlink="http://www.w3.org/1999/xlink"><defs><clipPath id="i0"><path d="M36,0 L36,36 L0,36 L0,0 L36,0 Z"></path></clipPath><clipPath id="i1"><path d="M13.29107,0 C16.75177,0 20.11215,1.35211 22.6199,3.85602 C25.12765,6.35993 26.48184,9.6651 26.48184,13.17057 C26.48184,20.3281864 20.6826991,26.2206983 13.5517853,26.387595 L13.24092,26.39123 C10.83348,26.39123 8.52635,25.74021 6.46999,24.53834 L5.96844,24.23787 L0.95294,25.5399 L2.30713,20.68231 L2.0062,20.18153 C0.70217,18.07824 0,15.67449 0,13.17057 C0,5.90923 5.96844,0 13.29107,0 Z M8.62666,5.40845 L7.87433,5.40845 C7.62356,5.40845 7.17216,5.5086 6.82108,5.90923 C6.46999,6.30985 5.41674,7.26134 5.41674,9.21439 C5.41674,11.16744 6.87123,13.02034 7.07185,13.32081 C7.27247,13.5712 9.93069,17.57746 13.94309,19.28012 C14.89603,19.68075 15.64836,19.93114 16.25022,20.13145 C17.20316,20.43192 18.10595,20.38184 18.80812,20.28169 C19.56045,20.18153 21.21556,19.3302 21.51649,18.42879 C21.86758,17.52738 21.86758,16.72613 21.76727,16.5759 C21.56665,16.37558 21.31587,16.27543 20.91463,16.07511 C20.51339,15.8748 18.50719,14.92331 18.15611,14.77308 C17.80502,14.62284 17.50409,14.57277 17.25332,14.97339 C17.00254,15.37402 16.20006,16.27543 15.99944,16.52582 C15.74867,16.77621 15.54805,16.82629 15.14681,16.62597 C14.74557,16.42566 13.44154,16.02503 11.88673,14.67292 C10.68301,13.62128 9.88053,12.31924 9.62976,11.91862 C9.37898,11.51799 9.62976,11.31768 9.83038,11.11737 C10.031,10.91705 10.23162,10.66666 10.43224,10.41627 C10.63286,10.16588 10.68301,10.01564 10.83348,9.76525 C10.98394,9.51486 10.88363,9.26447 10.78332,9.06416 C10.68301,8.86385 9.88053,6.91079 9.52945,6.10954 C9.17836,5.35837 8.87743,5.45852 8.62666,5.40845 Z"></path></clipPath><clipPath id="i2"><path d="M600,0 L600,1580 L0,1580 L0,0 L600,0 Z"></path></clipPath><linearGradient id="i3" x1="70.11044px" y1="1523.71369px" x2="70.11044px" y2="2547.71323px" gradientUnits="userSpaceOnUse"><stop stop-color="#61FA7F" offset="0%"></stop><stop stop-color="#05B824" offset="100%"></stop></linearGradient><linearGradient id="i4" x1="70.11044px" y1="1523.71369px" x2="70.11044px" y2="1550.07419px" gradientUnits="userSpaceOnUse"><stop stop-color="#61FA7F" offset="0%"></stop><stop stop-color="#05B824" offset="100%"></stop></linearGradient><clipPath id="i5"><path d="M16.09976,0 C20.36293,0 24.37533,1.65258 27.38463,4.65728 C30.39393,7.66197 32.04905,11.66823 31.99889,15.8748 C31.99889,24.6385 24.82673,31.74961 16.0496,31.74961 L15.5805755,31.7423627 C13.0798731,31.6652216 10.5974565,30.9748659 8.42604,29.79656 L0,32 L2.25698,23.78717 C0.90279,21.38341 0.15047,18.67919 0.15047,15.8748 C0.15047,7.11111 7.32263,0 16.09976,0 Z M16.14991,2.70423 C8.82728,2.70423 2.85884,8.61346 2.85884,15.8748 C2.85884,18.37872 3.56101,20.78247 4.86504,22.88576 L5.16597,23.38654 L3.81178,28.24413 L8.82728,26.9421 L9.32883,27.24257 C11.38519,28.44444 13.69232,29.09546 16.09976,29.09546 L16.4106253,29.091825 C23.5415391,28.9249283 29.34068,23.0324164 29.34068,15.8748 C29.34068,12.36933 27.98649,9.06416 25.47874,6.56025 C22.97099,4.05634 19.61061,2.70423 16.14991,2.70423 Z M11.4855,8.11268 C11.73627,8.16275 12.0372,8.0626 12.38829,8.81377 C12.73937,9.61502 13.54185,11.56808 13.64216,11.76839 C13.74247,11.9687 13.84278,12.21909 13.69232,12.46948 C13.54185,12.71987 13.4917,12.87011 13.29108,13.1205 C13.09046,13.37089 12.88984,13.62128 12.68922,13.8216 C12.4886,14.02191 12.23782,14.22222 12.4886,14.62285 C12.73937,15.02347 13.54185,16.32551 14.74557,17.37715 C16.30038,18.72926 17.60441,19.12989 18.00565,19.3302 C18.40689,19.53052 18.60751,19.48044 18.85828,19.23005 C19.0589,18.97966 19.86138,18.07825 20.11216,17.67762 C20.36293,17.277 20.66386,17.32707 21.01495,17.47731 C21.36603,17.62754 23.37223,18.57903 23.77347,18.77934 C24.17471,18.97966 24.42549,19.07981 24.62611,19.28013 C24.72642,19.43036 24.72642,20.23161 24.37533,21.13302 C24.0744,22.03443 22.41929,22.88576 21.66696,22.98592 C20.96479,23.08607 20.062,23.13615 19.10906,22.83568 C18.5072,22.63537 17.75487,22.38498 16.80193,21.98435 C12.78953,20.28169 10.13131,16.27543 9.93069,16.02504 C9.73007,15.72457 8.27558,13.87167 8.27558,11.91862 C8.27558,9.96557 9.32883,9.01408 9.67992,8.61346 C10.031,8.21283 10.4824,8.11268 10.73317,8.11268 L11.4855,8.11268 Z"></path></clipPath><clipPath id="i6"><path d="M34.04905,0 L34.04905,34 L0,34 L0,0 L34.04905,0 Z"></path></clipPath></defs><g clip-path="url(#i0)"><g transform="translate(2.0 2.0)"><path d="M23.77347,18.77934 C23.37223,18.57903 21.36603,17.62754 21.01495,17.47731 C20.66386,17.32707 20.36293,17.277 20.11216,17.67762 C19.86138,18.07825 19.0589,18.97966 18.85828,19.23005 C18.60751,19.48044 18.40689,19.53052 18.00565,19.3302 C17.60441,19.12989 16.30038,18.72926 14.74557,17.37715 C13.54185,16.32551 12.73937,15.02347 12.4886,14.62285 C12.23782,14.22222 12.4886,14.02191 12.68922,13.8216 C12.88984,13.62128 13.09046,13.37089 13.29108,13.1205 C13.4917,12.87011 13.54185,12.71987 13.69232,12.46948 C13.84278,12.21909 13.74247,11.9687 13.64216,11.76839 C13.54185,11.56808 12.73937,9.615023 12.38829,8.813772 C12.0372,8.062598 11.73627,8.162754 11.4855,8.112676 C11.23472,8.112676 10.98395,8.112676 10.73317,8.112676 C10.4824,8.112676 10.031,8.212833 9.679916,8.613459 C9.328831,9.014085 8.275576,9.965571 8.275576,11.91862 C8.275576,13.87167 9.730071,15.72457 9.930691,16.02504 C10.13131,16.27543 12.78953,20.28169 16.80193,21.98435 C17.75487,22.38498 18.5072,22.63537 19.10906,22.83568 C20.062,23.13615 20.96479,23.08607 21.66696,22.98592 C22.41929,22.88576 24.0744,22.03443 24.37533,21.13302 C24.72642,20.23161 24.72642,19.43036 24.62611,19.28013 C24.42549,19.07981 24.17471,18.97966 23.77347,18.77934 M16.09976,29.09546 L16.09976,29.09546 C13.69232,29.09546 11.38519,28.44444 9.328831,27.24257 L8.827281,26.9421 L3.81178,28.24413 L5.165965,23.38654 L4.865035,22.88576 C3.561005,20.78247 2.858835,18.37872 2.858835,15.8748 C2.858835,8.613459 8.827281,2.704225 16.14991,2.704225 C19.61061,2.704225 22.97099,4.056338 25.47874,6.56025 C27.98649,9.064163 29.34068,12.36933 29.34068,15.8748 C29.34068,23.13615 23.37223,29.09546 16.09976,29.09546 M27.38463,4.657277 C24.37533,1.652582 20.36293,0 16.09976,0 C7.322631,0 0.150465,7.111111 0.150465,15.8748 C0.150465,18.67919 0.9027901,21.38341 2.256975,23.78717 L0,32 L8.426041,29.79656 C10.73317,31.04851 13.39139,31.74961 16.0496,31.74961 L16.0496,31.74961 L16.0496,31.74961 C24.82673,31.74961 31.99889,24.6385 31.99889,15.8748 C32.04905,11.66823 30.39393,7.661972 27.38463,4.657277" stroke="#EEEEEE" stroke-width="1.4" fill="none" stroke-miterlimit="10"></path><g transform="translate(2.858839999999871 2.704229999999825)"><g clip-path="url(#i1)"><g transform="translate(-56.8588400000001 -1523.70423)"><g clip-path="url(#i2)"><polygon points="56.85884,1523.70423 83.34068,1523.70423 83.34068,1550.09546 56.85884,1550.09546 56.85884,1523.70423" stroke="none" fill="url(#i3)"></polygon></g></g></g><g transform=""><g clip-path="url(#i1)"><g transform="translate(-56.8588400000001 -1523.70423)"><g clip-path="url(#i2)"><polygon points="56.85884,1523.70423 83.34068,1523.70423 83.34068,1550.09546 56.85884,1550.09546 56.85884,1523.70423" stroke="none" fill="url(#i4)"></polygon></g></g></g></g></g><g clip-path="url(#i5)"><g transform="translate(-1.0 -1.0)"><g clip-path="url(#i6)"><polygon points="1,1 32.9999977,1 32.9999977,33 1,33 1,1" stroke="none" fill="#FFFFFF"></polygon></g></g></g></g></g></svg>