<?xml version="1.0" encoding="UTF-8"?>
<svg width="24px" height="24px" viewBox="0 0 24 24" version="1.1" xmlns="http://www.w3.org/2000/svg" xmlns:xlink="http://www.w3.org/1999/xlink">
    <title>view</title>
    <g id="view" stroke="none" stroke-width="1" fill="none" fill-rule="evenodd" stroke-linecap="round" stroke-linejoin="round">
        <g id="7830589_view_icon" transform="translate(2.000000, 6.000000)" stroke="#8F8F8F" stroke-width="1.27778353">
            <path d="M9.49915561,0.00104197003 C6.09457008,-0.0585120306 2.57514735,2.44453373 0.361153489,5.00891121 C-0.120384496,5.57105248 -0.120384496,6.42538495 0.361153489,6.98752622 C2.52617266,9.4976829 6.03715148,12.0593938 9.49915561,11.9989509 C12.9611597,12.0593938 16.4721386,9.4976829 18.6388465,6.98752622 C19.1203845,6.42538495 19.1203845,5.57105248 18.6388465,5.00891121 C16.4231639,2.44453373 12.9020524,-0.0585120306 9.49915561,0.00104197003 Z" id="Path"></path>
            <path d="M12.6647784,5.99999645 C12.6647784,7.34824961 11.893202,8.56372836 10.7098706,9.07959943 C9.52653928,9.5954705 8.16451906,9.31012914 7.25898224,8.35664307 C6.35344542,7.40315699 6.08274439,5.96932257 6.57311941,4.72380229 C7.06349443,3.47828201 8.21836239,2.66639061 9.49915561,2.66675003 C11.2476174,2.66724096 12.6647784,4.15944242 12.6647784,5.99999645 Z" id="Path"></path>
        </g>
    </g>
</svg>