<?xml version="1.0" ?><svg viewBox="0 0 64 64" xmlns="http://www.w3.org/2000/svg"><defs><style>.cls-1{fill:#222;}</style></defs><title/><g id="Airplane"><path class="cls-1" d="M57.17,12.83C53.85,16.8,47,25.59,47,25.59L54.2,52.78a1,1,0,0,1-.2.9l-3.37,4A1,1,0,0,1,49,57.47L37,33.78l-13.43,12,1,10.37a1,1,0,0,1-.29.8l-1.47,1.47A1,1,0,0,1,21.18,58L16.8,47.2,6,42.82a1,1,0,0,1-.34-1.63l1.47-1.47a1,1,0,0,1,.8-.29l10.37,1L30.22,27,6.53,15a1,1,0,0,1-.19-1.66l4-3.37a1,1,0,0,1,.9-.2L38.41,17S47.2,10.15,51.17,6.83a9,9,0,0,1,8-2A9,9,0,0,1,57.17,12.83Z"/></g></svg>