<?xml version="1.0" encoding="UTF-8"?>
<svg width="18px" height="18px" viewBox="0 0 18 18" version="1.1" xmlns="http://www.w3.org/2000/svg" xmlns:xlink="http://www.w3.org/1999/xlink">
    <!-- Generator: Sketch 57.1 (83088) - https://sketch.com -->
    <title>Attachment@1x</title>
    <desc>Created with Sketch.</desc>
    <g id="Attachment" stroke="none" stroke-width="1" fill="none" fill-rule="evenodd">
        <path d="M5.83605845,16.9998304 C4.58985457,17.0101126 3.38630569,16.5525701 2.46936138,15.719943 L2.41097935,15.6687475 C1.51181658,14.8543053 1,13.7052507 1,12.5010262 C1,11.2968016 1.51181658,10.147747 2.41097935,9.33330482 L10.7271752,1.90995787 C12.0785349,0.69668071 14.1436813,0.69668071 15.495041,1.90995787 C16.162507,2.49116745 16.5510328,3.32278578 16.5653782,4.20095633 C16.5627147,5.06219492 16.1959341,5.88328376 15.553423,6.46635703 L7.73023099,13.4225451 C6.92608344,14.1509633 5.6897398,14.1481787 4.88897218,13.4161456 C4.49682707,13.0632913 4.27337918,12.5638749 4.27337918,12.0402667 C4.27337918,11.5166585 4.49682707,11.0172421 4.88897218,10.6643877 L12.1996997,4.20095633 L13.0624564,5.15447244 L5.76470264,11.605105 C5.64573137,11.7143413 5.57767711,11.8671353 5.57658276,12.0274678 C5.57898917,12.1938792 5.65191744,12.3516942 5.77767642,12.4626295 C6.08250896,12.7375967 6.54966799,12.7375967 6.85450053,12.4626295 L14.6776926,5.55123754 C15.0580347,5.2104121 15.2748986,4.72705484 15.2748986,4.22015464 C15.2748986,3.71325444 15.0580347,3.22989717 14.6776926,2.88907173 C13.8297038,2.09359013 12.5036797,2.07685478 11.6353401,2.85067511 L3.2867098,10.2548238 C2.64516662,10.8274599 2.27914293,11.641124 2.27914293,12.4946267 C2.27914293,13.3481295 2.64516662,14.1617935 3.2867098,14.7344297 L3.34509183,14.7856252 C4.7457954,16.0505582 6.89388704,16.0505582 8.29459061,14.7856252 L16.1307564,7.842236 L17,8.79575211 L9.18329485,15.719943 C8.27266953,16.55024 7.07603337,17.0077995 5.83605845,16.9998304 Z" id="Path-Copy" fill="#00B9F5" fill-rule="nonzero"></path>
    </g>
</svg>