<?xml version="1.0" encoding="UTF-8"?>
<svg width="126px" height="120px" viewBox="0 0 126 120" version="1.1" xmlns="http://www.w3.org/2000/svg" xmlns:xlink="http://www.w3.org/1999/xlink">
    <!-- Generator: Sketch 57.1 (83088) - https://sketch.com -->
    <title>Banner Management@3x</title>
    <desc>Created with Sketch.</desc>
    <g id="Banner-Management" stroke="none" stroke-width="1" fill="none" fill-rule="evenodd">
        <g id="1010866_drawing_image_photo_picture_icon-copy" transform="translate(1.000000, 1.000000)">
            <g id="circle_back" transform="translate(0.000000, 11.021979)" fill="#89DAF6" fill-rule="nonzero">
                <path d="M109.031735,69.9188693 C108.28101,69.1691873 108.28101,67.9399293 109.031735,67.1902473 L109.031735,67.1902473 C109.782459,66.4405654 111.013427,66.4405654 111.764152,67.1902473 L114.248168,69.6708127 C115.515016,65.0376678 116.19674,60.1592226 116.19674,55.1236749 C116.19674,24.6788693 91.4835428,0 60.9963886,0 C50.5497221,0 40.7820198,2.8995053 32.4550468,7.93229682 L35.9630291,11.4354064 C37.6935601,13.1635336 37.6935601,15.9941343 35.9630291,17.7222615 L35.9630291,17.7222615 C34.2324981,19.4503887 31.39796,19.4503887 29.667429,17.7222615 L25.1492802,13.2103887 C22.8971059,15.1342049 20.8022525,17.2371731 18.8840403,19.4944876 L20.7829324,21.390742 C22.5134634,23.1188693 22.5134634,25.94947 20.7829324,27.6775972 C19.0524014,29.4057244 16.2178633,29.4057244 14.4873323,27.6775972 L13.6289668,26.820424 C8.65541514,35.0944876 5.79603693,44.7769611 5.79603693,55.1264311 C5.79603693,72.2009894 13.5710065,87.4592226 25.7758042,97.5716608 L96.216973,97.5716608 C103.732501,91.3481979 109.561658,83.1678445 112.93716,73.8188693 L109.031735,69.9188693 Z" id="Path"></path>
                <path d="M17.6254723,40.4800707 L17.6254723,40.4800707 C14.9427352,43.1590813 10.5515472,43.1590813 7.86605011,40.4800707 L2.01205282,34.6342049 C-0.670684273,31.9551943 -0.670684273,27.570106 2.01205282,24.8883392 L2.01205282,24.8883392 C4.69478991,22.2093286 9.08597789,22.2093286 11.771475,24.8883392 L17.6254723,30.7342049 C20.3082094,33.4159717 20.3082094,37.8010601 17.6254723,40.4800707 Z" id="Path"></path>
                <path d="M36.0679098,30.3621201 L36.0679098,30.3621201 C34.3373788,32.0902473 31.5028407,32.0902473 29.7723097,30.3621201 L16.5518255,17.16 C14.8212944,15.4318728 14.8212944,12.6012721 16.5518255,10.8731449 L16.5518255,10.8731449 C18.2823565,9.14501767 21.1168945,9.14501767 22.8474256,10.8731449 L36.0679098,24.075265 C37.8012008,25.8061484 37.8012008,28.6339929 36.0679098,30.3621201 Z" id="Path"></path>
                <path d="M14.3244913,8.64890459 L14.3244913,8.64890459 C12.5939602,10.3770318 9.75942218,10.3770318 8.02889115,8.64890459 L7.1567256,7.77795053 C5.42619457,6.04982332 5.42619457,3.21922261 7.1567256,1.49109541 L7.1567256,1.49109541 C8.88725662,-0.237031802 11.7217947,-0.237031802 13.4523257,1.49109541 L14.3244913,2.36204947 C16.0577823,4.09293286 16.0577823,6.92077739 14.3244913,8.64890459 Z" id="Path"></path>
                <path d="M39.2226099,11.9177385 L39.2226099,11.9177385 C38.4718851,12.6674205 37.2409173,12.6674205 36.4901925,11.9177385 L28.6848628,4.12325088 C27.934138,3.3735689 27.934138,2.14431095 28.6848628,1.39462898 L28.6848628,1.39462898 C29.4355875,0.644946996 30.6665554,0.644946996 31.4172802,1.39462898 L39.2226099,9.18911661 C39.9733347,9.93879859 39.9733347,11.1653004 39.2226099,11.9177385 Z" id="Path"></path>
                <path d="M122.702102,71.7792933 L122.702102,71.7792933 C120.971571,73.5074205 118.137033,73.5074205 116.406502,71.7792933 L103.186017,58.5771731 C101.455486,56.8490459 101.455486,54.0184452 103.186017,52.290318 L103.186017,52.290318 C104.916548,50.5621908 107.751086,50.5621908 109.481618,52.290318 L122.702102,65.4924382 C124.432633,67.2205654 124.432633,70.0484099 122.702102,71.7792933 Z" id="Path"></path>
                <path d="M115.647497,86.2327208 L115.647497,86.2327208 C112.96476,88.9117314 108.573572,88.9117314 105.888075,86.2327208 L100.034077,80.3868551 C97.3513402,77.7078445 97.3513402,73.3227562 100.034077,70.6409894 L100.034077,70.6409894 C102.716814,67.9619788 107.108002,67.9619788 109.793499,70.6409894 L115.647497,76.4868551 C118.332994,79.1686219 118.332994,83.5537102 115.647497,86.2327208 Z" id="Path"></path>
            </g>
            <g id="bottom_lines" transform="translate(17.388111, 109.007067)" stroke="#151440" stroke-linecap="round" stroke-width="1.65371025">
                <path d="M22.3561424,0.137809187 L0,0.137809187" id="Path"></path>
                <path d="M81.9725222,0.137809187 L74.5204748,0.137809187" id="Path"></path>
                <path d="M87.7685592,0.137809187 L85.2845433,0.137809187" id="Path"></path>
                <path d="M14.904095,3.99646643 L30.3601934,3.99646643" id="Path"></path>
                <path d="M33.6722145,3.99646643 L33.6722145,3.99646643" id="Path"></path>
                <path d="M36.9842356,3.99646643 L53.2683394,3.99646643" id="Path"></path>
                <path d="M53.2683394,7.85512367 L69.2764414,7.85512367" id="Path"></path>
                <path d="M73.140466,7.85512367 L80.3165117,7.85512367" id="Path"></path>
                <path d="M69.2764414,7.85512367 C69.2764414,6.78848057 70.1403269,5.92579505 71.2084537,5.92579505 C72.2765805,5.92579505 73.140466,6.78848057 73.140466,7.85512367" id="Path"></path>
                <path d="M49.9563183,7.85512367 L49.4043148,7.85512367" id="Path"></path>
            </g>
            <path d="M87.2165557,109.144876 L37.2602374,109.144876 C36.0403096,109.144876 35.0522233,108.158163 35.0522233,106.939929 L35.0522233,56.2261484 C35.0522233,55.0079152 36.0403096,54.0212014 37.2602374,54.0212014 L87.2165557,54.0212014 C88.4364834,54.0212014 89.4245697,55.0079152 89.4245697,56.2261484 L89.4245697,106.939929 C89.4245697,108.158163 88.4364834,109.144876 87.2165557,109.144876 Z" id="fill_photo" fill="#F2ECE8" fill-rule="nonzero"></path>
            <g id="shadow" transform="translate(36.708234, 100.738516)">
                <rect id="Rectangle" fill="#B9BDC9" fill-rule="nonzero" x="0" y="5.3745583" width="52.1643323" height="2.48056537"></rect>
                <path d="M52.1643323,3.72084806 L52.1643323,5.3745583" id="Path" stroke="#B9BDC9" stroke-width="1.65371025" stroke-linecap="round"></path>
                <path d="M48.8523112,3.72084806 L48.8523112,5.3745583" id="Path" stroke="#B9BDC9" stroke-width="1.65371025" stroke-linecap="round"></path>
                <path d="M50.5083218,5.3745583 L50.5083218,5.3745583" id="Path" stroke="#F2ECE8" stroke-width="1.65371025" stroke-linecap="round"></path>
                <path d="M45.5402901,2.34275618 L45.5402901,5.3745583" id="Path" stroke="#B9BDC9" stroke-width="1.65371025" stroke-linecap="round"></path>
                <path d="M47.1963007,5.3745583 L47.1963007,5.3745583" id="Path" stroke="#F2ECE8" stroke-width="1.65371025" stroke-linecap="round"></path>
                <path d="M42.228269,5.3745583 L42.228269,5.3745583" id="Path" stroke="#B9BDC9" stroke-width="1.65371025" stroke-linecap="round"></path>
                <path d="M43.8842796,5.3745583 L43.8842796,5.3745583" id="Path" stroke="#F2ECE8" stroke-width="1.65371025" stroke-linecap="round"></path>
                <path d="M38.9162479,7.30388693 L38.9162479,3.44522968" id="Path" stroke="#B9BDC9" stroke-width="1.65371025" stroke-linecap="round"></path>
                <path d="M40.5722585,5.3745583 L40.5722585,5.3745583" id="Path" stroke="#F2ECE8" stroke-width="1.65371025" stroke-linecap="round"></path>
                <path d="M35.6042268,7.30388693 L35.6042268,4.82332155" id="Path" stroke="#B9BDC9" stroke-width="1.65371025" stroke-linecap="round"></path>
                <path d="M37.2602374,5.3745583 L37.2602374,5.3745583" id="Path" stroke="#F2ECE8" stroke-width="1.65371025" stroke-linecap="round"></path>
                <path d="M32.2922057,7.30388693 L32.2922057,2.61837456" id="Path" stroke="#B9BDC9" stroke-width="1.65371025" stroke-linecap="round"></path>
                <path d="M33.9482163,5.3745583 L33.9482163,5.3745583" id="Path" stroke="#F2ECE8" stroke-width="1.65371025" stroke-linecap="round"></path>
                <path d="M28.9801846,7.30388693 L28.9801846,5.09893993" id="Path" stroke="#B9BDC9" stroke-width="1.65371025" stroke-linecap="round"></path>
                <path d="M30.6361952,5.3745583 L30.6361952,5.3745583" id="Path" stroke="#F2ECE8" stroke-width="1.65371025" stroke-linecap="round"></path>
                <path d="M25.6681635,7.30388693 L25.6681635,3.44522968" id="Path" stroke="#B9BDC9" stroke-width="1.65371025" stroke-linecap="round"></path>
                <path d="M27.3241741,5.3745583 L27.3241741,5.3745583" id="Path" stroke="#F2ECE8" stroke-width="1.65371025" stroke-linecap="round"></path>
                <path d="M22.3561424,7.30388693 L22.3561424,2.34275618" id="Path" stroke="#B9BDC9" stroke-width="1.65371025" stroke-linecap="round"></path>
                <path d="M24.012153,5.3745583 L24.012153,5.3745583" id="Path" stroke="#F2ECE8" stroke-width="1.65371025" stroke-linecap="round"></path>
                <path d="M19.0441213,7.30388693 L19.0441213,5.65017668" id="Path" stroke="#B9BDC9" stroke-width="1.65371025" stroke-linecap="round"></path>
                <path d="M20.7001319,5.3745583 L20.7001319,5.3745583" id="Path" stroke="#F2ECE8" stroke-width="1.65371025" stroke-linecap="round"></path>
                <path d="M15.7321002,7.30388693 L15.7321002,4.82332155" id="Path" stroke="#B9BDC9" stroke-width="1.65371025" stroke-linecap="round"></path>
                <path d="M17.3881108,5.3745583 L17.3881108,5.3745583" id="Path" stroke="#F2ECE8" stroke-width="1.65371025" stroke-linecap="round"></path>
                <path d="M12.4200791,7.30388693 L12.4200791,3.16961131" id="Path" stroke="#B9BDC9" stroke-width="1.65371025" stroke-linecap="round"></path>
                <path d="M14.0760897,5.3745583 L14.0760897,5.3745583" id="Path" stroke="#F2ECE8" stroke-width="1.65371025" stroke-linecap="round"></path>
                <path d="M9.10805803,7.30388693 L9.10805803,0.689045936" id="Path" stroke="#B9BDC9" stroke-width="1.65371025" stroke-linecap="round"></path>
                <path d="M10.7640686,5.3745583 L10.7640686,5.3745583" id="Path" stroke="#F2ECE8" stroke-width="1.65371025" stroke-linecap="round"></path>
                <path d="M5.79603693,7.30388693 L5.79603693,4.82332155" id="Path" stroke="#B9BDC9" stroke-width="1.65371025" stroke-linecap="round"></path>
                <path d="M7.45204748,5.3745583 L7.45204748,5.3745583" id="Path" stroke="#F2ECE8" stroke-width="1.65371025" stroke-linecap="round"></path>
                <path d="M2.48401583,7.30388693 L2.48401583,5.3745583" id="Path" stroke="#B9BDC9" stroke-width="1.65371025" stroke-linecap="round"></path>
                <path d="M4.14002638,5.3745583 L4.14002638,5.3745583" id="Path" stroke="#F2ECE8" stroke-width="1.65371025" stroke-linecap="round"></path>
                <path d="M0.828005275,5.3745583 L0.828005275,5.3745583" id="Path" stroke="#F2ECE8" stroke-width="1.65371025" stroke-linecap="round"></path>
                <path d="M32.2922057,0.137809187 L32.2922057,0.137809187" id="Path" stroke="#B9BDC9" stroke-width="1.65371025" stroke-linecap="round"></path>
                <path d="M12.4200791,0.689045936 L12.4200791,0.689045936" id="Path" stroke="#B9BDC9" stroke-width="1.65371025" stroke-linecap="round"></path>
                <path d="M2.48401583,2.89399293 L2.48401583,2.89399293" id="Path" stroke="#B9BDC9" stroke-width="1.65371025" stroke-linecap="round"></path>
            </g>
            <path d="M39.7442532,109.144876 L38.0882427,109.144876 C36.8683149,109.144876 35.8802286,108.158163 35.8802286,106.939929 L35.8802286,56.2261484 C35.8802286,55.0079152 36.8683149,54.0212014 38.0882427,54.0212014 L40.2962567,54.0212014" id="border_left" stroke="#89DAF6" stroke-width="1.65371025" stroke-linecap="round" stroke-linejoin="round"></path>
            <g id="border" transform="translate(34.086217, 54.021201)" stroke="#151440" stroke-linecap="round" stroke-linejoin="round" stroke-width="1.65371025">
                <path d="M0.138000879,13.7809187 L0.138000879,13.5053004" id="Path"></path>
                <path d="M0.138000879,44.6501767 L0.138000879,17.0883392" id="Path"></path>
                <path d="M55.3383526,46.8551237 L55.3383526,52.9187279 C55.3383526,54.1369611 54.3502663,55.1236749 53.1303385,55.1236749 L2.34601495,55.1236749 C1.12608717,55.1236749 0.138000879,54.1369611 0.138000879,52.9187279 L0.138000879,47.9575972" id="Path"></path>
                <path d="M55.3383526,43.2720848 L55.3383526,43.5477032" id="Path"></path>
                <path d="M44.2982822,0 L53.1303385,0 C54.3502663,0 55.3383526,0.986713781 55.3383526,2.204947 L55.3383526,39.9646643" id="Path"></path>
                <path d="M0.138000879,10.1978799 L0.138000879,2.204947 C0.138000879,0.986713781 1.12608717,0 2.34601495,0 L40.9862611,0" id="Path"></path>
            </g>
            <rect id="fill_sky" fill="#9FE0F0" fill-rule="nonzero" x="37.8122409" y="57.6042403" width="48.024306" height="36.9328622"></rect>
            <polyline id="border_frame" stroke="#151440" stroke-width="1.65371025" stroke-linecap="round" stroke-linejoin="round" points="85.8365469 66.1484099 85.8365469 94.5371025 37.8122409 94.5371025 37.8122409 78.5512367"></polyline>
            <polyline id="border_frame_1_" stroke="#151440" stroke-width="1.65371025" stroke-linecap="round" stroke-linejoin="round" points="37.8122409 75.2438163 37.8122409 57.6042403 85.8365469 57.6042403 85.8365469 62.8409894"></polyline>
            <polygon id="fill_mountains" fill="#8E787F" fill-rule="nonzero" opacity="0.8" points="37.8122409 85.9929329 53.5443411 68.3533569 69.2764414 85.9929329 75.34848 78.8268551 85.8365469 90.6784452 85.8365469 94.5371025 37.8122409 94.5371025"></polygon>
            <polygon id="fill_snow" fill="#F2ECE8" fill-rule="nonzero" points="59.8923816 75.4698233 53.5443411 68.3533569 49.128313 73.3034629 51.8883306 76.0706714 53.5443411 74.1413428 57.132364 78"></polygon>
            <path d="M37.8122409,88.4734982 L54.3723464,69.7314488" id="border_left_mountains" stroke="#9FE0F0" stroke-width="1.65371025"></path>
            <path d="M43.6082778,79.4525088 L47.8117846,74.6925795" id="border_left_mountains_1_" stroke="#9FE0F0" stroke-width="1.65371025"></path>
            <g id="border_mountains" transform="translate(37.812241, 68.353357)" stroke="#151440" stroke-linecap="round" stroke-linejoin="round" stroke-width="1.65371025">
                <path d="M8.00405099,8.6654417 L8.11169168,8.54416961" id="Path"></path>
                <polyline id="Path" points="30.0841917 16.0933569 31.4642005 17.639576 37.5362391 10.4734982 48.024306 22.3250883 48.024306 26.1837456 0 26.1837456 0 17.639576 5.89815758 11.024735"></polyline>
                <polyline id="Path" points="10.0795842 6.33922261 15.7321002 0 28.0224585 13.7809187"></polyline>
            </g>
            <polygon id="border_snow" stroke="#151440" stroke-width="1.65371025" stroke-linecap="round" stroke-linejoin="round" points="59.8923816 75.4698233 53.5443411 68.3533569 49.128313 73.3034629 51.8883306 76.0706714 53.5443411 74.1413428 57.132364 78"></polygon>
            <polygon id="snow_1_" stroke="#151440" stroke-width="1.65371025" fill="#F2ECE8" fill-rule="nonzero" stroke-linecap="round" stroke-linejoin="round" points="78.5197402 82.409894 75.34848 78.8268551 72.3124607 82.409894 75.34848 85.4416961"></polygon>
            <ellipse id="fill_sun" fill="#FEE176" fill-rule="nonzero" cx="77.0044906" cy="66.4240283" rx="3.86402462" ry="3.85865724"></ellipse>
            <path d="M75.9004836,62.7252297 C76.2510058,62.6204947 76.6208481,62.565371 77.0044906,62.565371 C79.1379842,62.565371 80.8685152,64.2934982 80.8685152,66.4240283 C80.8685152,68.5545583 79.1379842,70.2826855 77.0044906,70.2826855 C74.870997,70.2826855 73.140466,68.5545583 73.140466,66.4240283 C73.140466,65.9389399 73.2315466,65.4731449 73.3943876,65.0459364" id="border_sun" stroke="#151440" stroke-width="1.65371025" stroke-linecap="round" stroke-linejoin="round"></path>
            <g id="circles_x2C__stars" transform="translate(16.559024, 0.000000)">
                <ellipse id="Oval" stroke="#FFFFFF" stroke-width="1.65371025" cx="18.7692009" cy="42.1696113" rx="2.20801407" ry="2.204947"></ellipse>
                <ellipse id="Oval" stroke="#FFFFFF" stroke-width="1.65371025" cx="83.0776106" cy="51.2650177" rx="2.20801407" ry="2.204947"></ellipse>
                <ellipse id="Oval" stroke="#FFFFFF" stroke-width="1.1024735" cx="83.3536124" cy="71.6607774" rx="1.38000879" ry="1.37809187"></ellipse>
                <path d="M47.4209434,33.6254417 L47.4209434,33.6254417 C46.8385797,33.6254417 46.3693767,33.1541343 46.3693767,32.5753357 L46.3693767,32.5753357 C46.3693767,31.9992933 45.9526141,31.4838869 45.3785304,31.4260071 C44.7216462,31.3598587 44.1613627,31.8780212 44.1613627,32.5229682 L44.1613627,32.5753357 C44.1613627,33.1541343 43.6893997,33.6254417 43.109796,33.6254417 L43.109796,33.6254417 C42.5329523,33.6254417 42.016829,34.0416254 41.9588686,34.6149117 C41.8926282,35.2708834 42.4115115,35.8303887 43.0573556,35.8303887 L43.109796,35.8303887 C43.6893997,35.8303887 44.1613627,36.3016961 44.1613627,36.8804947 L44.1613627,36.8804947 C44.1613627,37.4565371 44.5781253,37.9719435 45.152209,38.0298233 C45.8090932,38.0959717 46.3693767,37.5778092 46.3693767,36.9328622 L46.3693767,36.8804947 C46.3693767,36.3016961 46.8413397,35.8303887 47.4209434,35.8303887 L47.4733838,35.8303887 C48.1192279,35.8303887 48.6381112,35.2708834 48.5718708,34.6149117 C48.5139104,34.0416254 47.9977871,33.6254417 47.4209434,33.6254417 Z" id="Path" fill="#FFFFFF" fill-rule="nonzero"></path>
                <path d="M4.10246745,63.6678445 L4.10246745,63.6678445 C3.66638467,63.6678445 3.31310242,63.315053 3.31310242,62.879576 L3.31310242,62.879576 C3.31310242,62.4496113 2.99846042,62.0609894 2.57065769,62.0168905 C2.07661454,61.9700353 1.65709187,62.3586572 1.65709187,62.8409894 L1.65709187,62.879576 C1.65709187,63.315053 1.30380962,63.6678445 0.867726843,63.6678445 L0.867726843,63.6678445 C0.4371641,63.6678445 0.0480016203,63.9820495 0.00384133898,64.409258 C-0.0430789599,64.9026148 0.346083519,65.3215548 0.829086597,65.3215548 L0.867726843,65.3215548 C1.30380962,65.3215548 1.65709187,65.6743463 1.65709187,66.1098233 L1.65709187,66.1098233 C1.65709187,66.539788 1.97173388,66.9284099 2.3995366,66.9725088 C2.89357975,67.0221201 3.31310242,66.6334982 3.31310242,66.1511661 L3.31310242,66.1125795 C3.31310242,65.6771025 3.66638467,65.324311 4.10246745,65.324311 L4.1411077,65.324311 C4.62411077,65.324311 5.01327325,64.905371 4.96359294,64.4120141 C4.92219267,63.9820495 4.53303019,63.6678445 4.10246745,63.6678445 Z" id="Path" fill="#FFFFFF" fill-rule="nonzero"></path>
                <path d="M73.1029071,33.6254417 L73.1029071,33.6254417 C72.6668243,33.6254417 72.313542,33.2726502 72.313542,32.8371731 L72.313542,32.8371731 C72.313542,32.4072085 71.9989,32.0185866 71.5710973,31.9744876 C71.0770541,31.9248763 70.6575315,32.3134982 70.6575315,32.7958304 L70.6575315,32.834417 C70.6575315,33.269894 70.3042492,33.6226855 69.8681664,33.6226855 L69.8681664,33.6226855 C69.4376037,33.6226855 69.0484412,33.9368905 69.0042809,34.3640989 C68.9546006,34.8574558 69.3437631,35.2763958 69.8267662,35.2763958 L69.8654064,35.2763958 C70.3014892,35.2763958 70.6547715,35.6291873 70.6547715,36.0646643 L70.6547715,36.0646643 C70.6547715,36.494629 70.9694135,36.8832509 71.3972162,36.9273498 C71.8912593,36.9769611 72.310782,36.5883392 72.310782,36.1060071 L72.310782,36.0674205 C72.310782,35.6319435 72.6640643,35.2791519 73.100147,35.2791519 L73.1415473,35.2791519 C73.6245504,35.2791519 74.0137129,34.860212 73.9640325,34.3668551 C73.9226323,33.9396466 73.5334698,33.6254417 73.1029071,33.6254417 Z" id="Path" fill="#FFFFFF" fill-rule="nonzero"></path>
                <ellipse id="Oval" stroke="#89DAF6" stroke-width="1.65371025" cx="58.7894559" cy="2.204947" rx="2.20801407" ry="2.204947"></ellipse>
                <path d="M29.770631,3.62162544 L29.770631,3.62162544 C29.3345482,3.62162544 28.981266,3.26883392 28.981266,2.83335689 L28.981266,2.83335689 C28.981266,2.40339223 28.6666239,2.01477032 28.2388212,1.97067138 C27.7447781,1.92106007 27.3252554,2.30968198 27.3252554,2.79201413 L27.3252554,2.83060071 C27.3252554,3.26607774 26.9719732,3.61886926 26.5358904,3.61886926 L26.5358904,3.61886926 C26.1053276,3.61886926 25.7161652,3.9330742 25.6720049,4.36028269 C25.6223246,4.85363958 26.011487,5.27257951 26.4944901,5.27257951 L26.5331304,5.27257951 C26.9692131,5.27257951 27.3224954,5.62537102 27.3224954,6.06084806 L27.3224954,6.06084806 C27.3224954,6.49081272 27.6371374,6.87943463 28.0649401,6.92353357 C28.5589833,6.97314488 28.9785059,6.58452297 28.9785059,6.10219081 L28.9785059,6.06360424 C28.9785059,5.62812721 29.3317882,5.27533569 29.767871,5.27533569 L29.8092712,5.27533569 C30.2922743,5.27533569 30.6814368,4.85639576 30.6317565,4.36303887 C30.5903562,3.93583039 30.2011937,3.62162544 29.770631,3.62162544 Z" id="Path" fill="#89DAF6" fill-rule="nonzero"></path>
                <path d="M85.2331843,11.8515901 L85.2331843,11.8515901 C84.6508206,11.8515901 84.1816176,11.3802827 84.1816176,10.8014841 L84.1816176,10.8014841 C84.1816176,10.2254417 83.764855,9.71003534 83.1907713,9.65215548 C82.5338871,9.58600707 81.9736036,10.1041696 81.9736036,10.7491166 L81.9736036,10.8014841 C81.9736036,11.3802827 81.5016406,11.8515901 80.9220369,11.8515901 L80.9220369,11.8515901 C80.3451932,11.8515901 79.8290699,12.2677739 79.7711095,12.8410601 C79.7048691,13.4970318 80.2237524,14.0565371 80.8695965,14.0565371 L80.9220369,14.0565371 C81.5044006,14.0565371 81.9736036,14.5278445 81.9736036,15.1066431 L81.9736036,15.1066431 C81.9736036,15.6826855 82.3903662,16.1980919 82.9644499,16.2559717 C83.6213341,16.3221201 84.1816176,15.8039576 84.1816176,15.1590106 L84.1816176,15.1066431 C84.1816176,14.5278445 84.6535806,14.0565371 85.2331843,14.0565371 L85.2856247,14.0565371 C85.9314688,14.0565371 86.4503521,13.4970318 86.3841117,12.8410601 C86.3261513,12.2677739 85.810028,11.8515901 85.2331843,11.8515901 Z" id="Path" fill="#89DAF6" fill-rule="nonzero"></path>
            </g>
        </g>
    </g>
</svg>