<?xml version="1.0" encoding="UTF-8"?>
<svg width="39px" height="26px" viewBox="0 0 39 26" version="1.1" xmlns="http://www.w3.org/2000/svg" xmlns:xlink="http://www.w3.org/1999/xlink">
    <!-- Generator: Sketch 57.1 (83088) - https://sketch.com -->
    <title>banner list@1x</title>
    <desc>Created with Sketch.</desc>
    <g id="banner-list" stroke="none" stroke-width="1" fill="none" fill-rule="evenodd">
        <g id="3191474_ad_banner_carrousel_images_promotion_icon-copy" transform="translate(1.000000, 1.000000)" fill="#AC6BEC" fill-rule="nonzero">
            <path d="M7.38483582,20.2094328 L29.4103881,20.2094328 L29.4103881,0.0193432836 L7.38483582,0.0193432836 L7.38483582,20.2094328 Z M9.22029851,1.85480597 L27.5749254,1.85480597 L27.5749254,11.0636704 L20.3710567,15.3859057 C18.61632,13.6758734 14.7375188,10.1143881 12.8912239,10.1143881 C11.822443,10.1143881 10.4247403,10.9580131 9.22029851,11.8756585 L9.22029851,1.85480597 Z M19.3154293,22.9626269 C19.3154293,23.4698507 18.9049218,23.8804442 18.3976119,23.8804442 C17.8903021,23.8804442 17.4798806,23.4698507 17.4798806,22.9626269 C17.4798806,22.455403 17.8903881,22.0448955 18.3976119,22.0448955 C18.9048358,22.0448955 19.3154293,22.455317 19.3154293,22.9626269 Z M13.8089552,22.9626269 C13.8089552,23.4698507 13.3985337,23.8804442 12.8912239,23.8804442 C12.383914,23.8804442 11.9734925,23.4698507 11.9734925,22.9626269 C11.9734925,22.455403 12.383914,22.0448955 12.8912239,22.0448955 C13.3985337,22.0448955 13.8089552,22.455317 13.8089552,22.9626269 Z M24.8217313,22.9626269 C24.8217313,23.4698507 24.4113958,23.8804442 23.904086,23.8804442 C23.3967761,23.8804442 22.9862687,23.4698507 22.9862687,22.9626269 C22.9862687,22.455403 23.3967761,22.0448955 23.904086,22.0448955 C24.4113958,22.0448955 24.8217313,22.455317 24.8217313,22.9626269 Z M16.5621493,7.36119403 C16.5621493,5.33212657 18.2058125,3.69026866 20.2329887,3.69026866 C22.2603367,3.69026866 23.904,5.33221254 23.904,7.36119403 C23.904,9.39017552 22.2603367,11.0321194 20.2329887,11.0321194 C18.2058985,11.0321194 16.5621493,9.39026149 16.5621493,7.36119403 Z M0.0429850746,3.69026866 L1.87844776,3.69026866 L1.87844776,16.5385075 L0.0429850746,16.5385075 L0.0429850746,3.69026866 Z M36.7522388,3.69026866 L36.7522388,16.5385075 L34.9167761,16.5385075 L34.9167761,3.69026866 L36.7522388,3.69026866 Z M3.71391045,1.85480597 L5.54937313,1.85480597 L5.54937313,18.3738842 L3.71391045,18.3738842 L3.71391045,1.85480597 Z M31.2458507,1.85480597 L33.0813134,1.85480597 L33.0813134,18.3738842 L31.2458507,18.3738842 L31.2458507,1.85480597 Z" id="Shape"></path>
        </g>
    </g>
</svg>