<?xml version="1.0" encoding="UTF-8"?>
<svg width="32px" height="32px" viewBox="0 0 32 32" version="1.1" xmlns="http://www.w3.org/2000/svg" xmlns:xlink="http://www.w3.org/1999/xlink">
    <!-- Generator: Sketch 57.1 (83088) - https://sketch.com -->
    <title>Beneficiaries List@1x</title>
    <desc>Created with Sketch.</desc>
    <g id="Beneficiaries-List" stroke="none" stroke-width="1" fill="none" fill-rule="evenodd">
        <g id="4574987_compassion_charity_volunteer_icon-copy" transform="translate(3.000000, 1.000000)" fill="#6BB5EC" fill-rule="nonzero">
            <path d="M15.5291861,22.9324643 C15.3977359,22.8825459 15.2581099,22.8570124 15.1173028,22.8571399 C14.6723699,22.8836778 14.2505591,23.0621896 13.9239389,23.3621786 L13,24.1225 L12.0760611,23.3621786 C11.7494409,23.0621896 11.3276301,22.8836778 10.8826972,22.8571399 C10.7408912,22.8568221 10.6002634,22.8826064 10.4679972,22.9331786 C9.80218056,23.1828929 9.38888889,23.9795 9.38888889,25.0125714 C9.38888889,27.0745 11.1606083,29.0714286 13,30 C14.8408361,29.0701786 16.6111111,27.0737857 16.6111111,25.0125714 C16.6111111,23.9795 16.1978194,23.1828929 15.5291861,22.9324643 Z" id="Path"></path>
            <ellipse id="Oval" cx="13" cy="7.14285714" rx="7.22222222" ry="7.14285714"></ellipse>
            <path d="M15.8888889,15.7142857 L10.1111111,15.7142857 C4.52689864,15.7142857 0,20.1914382 0,25.7142857 C0,27.2922421 1.29339961,28.5714286 2.88888889,28.5714286 L9.20833333,28.5714286 C8.42173318,27.5447149 7.97977787,26.3002576 7.94444444,25.0125714 C7.94444444,23.37125 8.71462222,22.0625714 9.95583333,21.5973929 C10.2518078,21.4857397 10.5659231,21.4285259 10.8826972,21.4285714 C11.6656858,21.4524517 12.4152169,21.7480314 13,22.2635357 L13,22.2642857 C13.5845385,21.7482905 14.3341649,21.4524077 15.1173028,21.4285714 C15.4345342,21.4284448 15.749096,21.4858964 16.0453583,21.5980714 C17.2839694,22.0619286 18.0555556,23.3714286 18.0555556,25.0125714 C18.0202302,26.3002003 17.5784125,27.5446256 16.7920278,28.5714286 L23.1111111,28.5714286 C24.7066004,28.5714286 26,27.2922421 26,25.7142857 C26,20.1914382 21.4731014,15.7142857 15.8888889,15.7142857 Z" id="Path"></path>
        </g>
    </g>
</svg>