<?xml version="1.0" encoding="UTF-8"?>
<svg width="32px" height="32px" viewBox="0 0 32 32" version="1.1" xmlns="http://www.w3.org/2000/svg" xmlns:xlink="http://www.w3.org/1999/xlink">
    <!-- Generator: Sketch 57.1 (83088) - https://sketch.com -->
    <title>Blocked Volunteer List@1x</title>
    <desc>Created with Sketch.</desc>
    <g id="Blocked-Volunteer-List" stroke="none" stroke-width="1" fill="none" fill-rule="evenodd">
        <g id="4129495_ban_banned_block_blocked_prohibited_icon-copy" transform="translate(5.000000, 5.000000)" fill="#EC6B86" fill-rule="nonzero">
            <path d="M11,0 C4.92525,0 0,4.92525 0,11 C0,17.07475 4.92525,22 11,22 C17.07475,22 22,17.07475 22,11 C22,4.92525 17.07475,0 11,0 Z M11,2.75 C12.782,2.75 14.4265,3.320625 15.775375,4.280375 L4.28175,15.774 C3.320625,14.4265 2.75,12.780625 2.75,11 C2.75,6.444625 6.444625,2.75 11,2.75 Z M11,19.25 C9.218,19.25 7.5735,18.679375 6.224625,17.719625 L17.71825,6.226 C18.679375,7.5735 19.25,9.219375 19.25,11 C19.25,15.555375 15.555375,19.25 11,19.25 Z" id="Shape"></path>
        </g>
    </g>
</svg>