<?xml version="1.0" encoding="UTF-8"?>
<svg width="126px" height="120px" viewBox="0 0 126 120" version="1.1" xmlns="http://www.w3.org/2000/svg" xmlns:xlink="http://www.w3.org/1999/xlink">
    <!-- Generator: Sketch 57.1 (83088) - https://sketch.com -->
    <title>Campaign &amp; Pot Management@3x</title>
    <desc>Created with Sketch.</desc>
    <g id="Campaign-&amp;-Pot-Management" stroke="none" stroke-width="1" fill="none" fill-rule="evenodd">
        <g id="1010859_heart_like_love_valentine_icon-copy" transform="translate(1.000000, 2.000000)">
            <g id="circle_back" transform="translate(0.000000, 11.021979)" fill="#FEE176" fill-rule="nonzero">
                <path d="M109.031735,69.9188693 C108.28101,69.1691873 108.28101,67.9399293 109.031735,67.1902473 L109.031735,67.1902473 C109.782459,66.4405654 111.013427,66.4405654 111.764152,67.1902473 L114.248168,69.6708127 C115.515016,65.0376678 116.19674,60.1592226 116.19674,55.1236749 C116.19674,24.6788693 91.4835428,0 60.9963886,0 C50.5497221,0 40.7820198,2.8995053 32.4550468,7.93229682 L35.9630291,11.4354064 C37.6935601,13.1635336 37.6935601,15.9941343 35.9630291,17.7222615 L35.9630291,17.7222615 C34.2324981,19.4503887 31.39796,19.4503887 29.667429,17.7222615 L25.1492802,13.2103887 C22.8971059,15.1342049 20.8022525,17.2371731 18.8840403,19.4944876 L20.7829324,21.390742 C22.5134634,23.1188693 22.5134634,25.94947 20.7829324,27.6775972 C19.0524014,29.4057244 16.2178633,29.4057244 14.4873323,27.6775972 L13.6289668,26.820424 C8.65541514,35.0944876 5.79603693,44.7769611 5.79603693,55.1264311 C5.79603693,72.2009894 13.5710065,87.4592226 25.7758042,97.5716608 L96.216973,97.5716608 C103.732501,91.3481979 109.561658,83.1678445 112.93716,73.8188693 L109.031735,69.9188693 Z" id="Path"></path>
                <path d="M17.6254723,40.4800707 L17.6254723,40.4800707 C14.9427352,43.1590813 10.5515472,43.1590813 7.86605011,40.4800707 L2.01205282,34.6342049 C-0.670684273,31.9551943 -0.670684273,27.570106 2.01205282,24.8883392 L2.01205282,24.8883392 C4.69478991,22.2093286 9.08597789,22.2093286 11.771475,24.8883392 L17.6254723,30.7342049 C20.3082094,33.4159717 20.3082094,37.8010601 17.6254723,40.4800707 Z" id="Path"></path>
                <path d="M36.0679098,30.3621201 L36.0679098,30.3621201 C34.3373788,32.0902473 31.5028407,32.0902473 29.7723097,30.3621201 L16.5518255,17.16 C14.8212944,15.4318728 14.8212944,12.6012721 16.5518255,10.8731449 L16.5518255,10.8731449 C18.2823565,9.14501767 21.1168945,9.14501767 22.8474256,10.8731449 L36.0679098,24.075265 C37.8012008,25.8061484 37.8012008,28.6339929 36.0679098,30.3621201 Z" id="Path"></path>
                <path d="M14.3244913,8.64890459 L14.3244913,8.64890459 C12.5939602,10.3770318 9.75942218,10.3770318 8.02889115,8.64890459 L7.1567256,7.77795053 C5.42619457,6.04982332 5.42619457,3.21922261 7.1567256,1.49109541 L7.1567256,1.49109541 C8.88725662,-0.237031802 11.7217947,-0.237031802 13.4523257,1.49109541 L14.3244913,2.36204947 C16.0577823,4.09293286 16.0577823,6.92077739 14.3244913,8.64890459 Z" id="Path"></path>
                <path d="M39.2226099,11.9177385 L39.2226099,11.9177385 C38.4718851,12.6674205 37.2409173,12.6674205 36.4901925,11.9177385 L28.6848628,4.12325088 C27.934138,3.3735689 27.934138,2.14431095 28.6848628,1.39462898 L28.6848628,1.39462898 C29.4355875,0.644946996 30.6665554,0.644946996 31.4172802,1.39462898 L39.2226099,9.18911661 C39.9733347,9.93879859 39.9733347,11.1653004 39.2226099,11.9177385 Z" id="Path"></path>
                <path d="M122.702102,71.7792933 L122.702102,71.7792933 C120.971571,73.5074205 118.137033,73.5074205 116.406502,71.7792933 L103.186017,58.5771731 C101.455486,56.8490459 101.455486,54.0184452 103.186017,52.290318 L103.186017,52.290318 C104.916548,50.5621908 107.751086,50.5621908 109.481618,52.290318 L122.702102,65.4924382 C124.432633,67.2205654 124.432633,70.0484099 122.702102,71.7792933 Z" id="Path"></path>
                <path d="M115.647497,86.2327208 L115.647497,86.2327208 C112.96476,88.9117314 108.573572,88.9117314 105.888075,86.2327208 L100.034077,80.3868551 C97.3513402,77.7078445 97.3513402,73.3227562 100.034077,70.6409894 L100.034077,70.6409894 C102.716814,67.9619788 107.108002,67.9619788 109.793499,70.6409894 L115.647497,76.4868551 C118.332994,79.1686219 118.332994,83.5537102 115.647497,86.2327208 Z" id="Path"></path>
            </g>
            <g id="bottom_lines" transform="translate(17.388111, 109.007067)" stroke="#151440" stroke-linecap="round" stroke-width="1.65601055">
                <path d="M58.7883745,0.137809187 L33.0788107,0.137809187" id="Path"></path>
                <path d="M29.8081899,0.137809187 L0,0.137809187" id="Path"></path>
                <path d="M81.9725222,0.137809187 L62.1003956,0.137809187" id="Path"></path>
                <path d="M87.7685592,0.137809187 L85.2845433,0.137809187" id="Path"></path>
                <path d="M14.904095,3.99646643 L30.3601934,3.99646643" id="Path"></path>
                <path d="M33.6722145,3.99646643 L33.6722145,3.99646643" id="Path"></path>
                <path d="M37.2602374,3.99646643 L53.2683394,3.99646643" id="Path"></path>
                <path d="M53.2683394,7.85512367 L69.2764414,7.85512367" id="Path"></path>
                <path d="M73.140466,7.85512367 L80.3165117,7.85512367" id="Path"></path>
                <path d="M69.2764414,7.85512367 C69.2764414,6.78848057 70.1403269,5.92579505 71.2084537,5.92579505 C72.2765805,5.92579505 73.140466,6.78848057 73.140466,7.85512367" id="Path"></path>
                <path d="M49.9563183,7.85512367 L49.4043148,7.85512367" id="Path"></path>
            </g>
            <path d="M95.4910884,73.8243816 C95.4966084,73.620424 95.4993684,73.4164664 95.4966084,73.2125088 C95.4414081,62.8189399 87.0040343,54.2499647 76.598768,54.0267138 C70.7337306,53.9026855 65.448297,56.3887633 61.8243939,60.4017668 C58.2004908,56.3887633 52.9150571,53.9026855 47.0500198,54.0267138 C36.6419934,54.2472085 28.2073797,62.8161837 28.1521794,73.2125088 C28.1521794,73.4164664 28.1521794,73.620424 28.1576994,73.8243816 C28.2984603,79.2127208 30.8514766,84.2537809 34.9749428,87.7320848 C40.0837354,92.0372438 53.3262997,103.194276 59.0008959,107.90735 C60.6375863,109.266148 63.0084414,109.266148 64.6451319,107.90735 C70.319728,103.194276 83.5650524,92.0372438 88.6710849,87.7320848 C92.7973112,84.2537809 95.3503275,79.2099647 95.4910884,73.8243816 Z" id="fill_like" fill="#F46B85" fill-rule="nonzero"></path>
            <g id="shadow" transform="translate(61.548392, 55.123675)">
                <path d="M10.2120651,0 C8.86517648,0.294911661 7.57348825,0.821342756 6.34804044,1.37809187" id="Path" stroke="#C1526D" stroke-width="1.10400703"></path>
                <path d="M9.66006154,46.5795053 C11.4733931,45.0580919 14.6888136,42.3542756 16.5601055,40.7777385" id="Path" stroke="#C1526D" stroke-width="1.10400703"></path>
                <path d="M1.10400703,6.40261484 C4.4270682,2.72310954 9.08597789,0.556749117 14.6501733,0.556749117 C24.332315,0.556749117 32.2977258,8.5634629 32.2977258,18.1935689 C32.2977258,18.3809894 32.2977258,18.5684099 32.2922057,18.7558304 C32.1624849,23.6949117 29.7253894,28.275689 25.9441653,31.4645936 C21.2604154,35.4114488 5.20263315,48.8754064 0,53.1971025" id="Path" stroke="#C1526D" stroke-width="1.65601055" stroke-linecap="round" stroke-linejoin="round"></path>
                <path d="M28.9801846,9.92226148 L29.8081899,9.92226148" id="Path" stroke="#C1526D" stroke-width="1.65601055" stroke-linecap="round"></path>
                <path d="M30.3601934,13.229682 L31.1881987,13.229682" id="Path" stroke="#C1526D" stroke-width="1.65601055" stroke-linecap="round"></path>
                <path d="M29.2561864,11.5759717 L30.3601934,11.5759717" id="Path" stroke="#F46B85" stroke-width="1.65601055" stroke-linecap="round"></path>
                <path d="M29.8081899,16.5371025 L31.4642005,16.5371025" id="Path" stroke="#C1526D" stroke-width="1.65601055" stroke-linecap="round"></path>
                <path d="M30.0841917,14.8833922 L31.1881987,14.8833922" id="Path" stroke="#F46B85" stroke-width="1.65601055" stroke-linecap="round"></path>
                <path d="M27.8761776,19.844523 L31.4642005,19.844523" id="Path" stroke="#C1526D" stroke-width="1.65601055" stroke-linecap="round"></path>
                <path d="M29.5321881,18.1908127 L31.4642005,18.1908127" id="Path" stroke="#F46B85" stroke-width="1.65601055" stroke-linecap="round"></path>
                <path d="M29.5321881,23.1519435 L30.9121969,23.1519435" id="Path" stroke="#C1526D" stroke-width="1.65601055" stroke-linecap="round"></path>
                <path d="M29.5321881,21.4982332 L31.1881987,21.4982332" id="Path" stroke="#F46B85" stroke-width="1.65601055" stroke-linecap="round"></path>
                <path d="M29.8081899,26.459364 L28.1521794,26.459364" id="Path" stroke="#C1526D" stroke-width="1.65601055" stroke-linecap="round"></path>
                <path d="M30.0841917,24.8056537 L27.8761776,24.8056537" id="Path" stroke="#F46B85" stroke-width="1.65601055" stroke-linecap="round"></path>
            </g>
            <path d="M34.5002198,59.0539929 C32.1404048,61.2010601 30.3077531,63.9159011 29.2313462,66.975265" id="border_left_2_" stroke="#FEE176" stroke-width="1.65601055"></path>
            <path d="M48.3003077,98.9469965 L44.9882866,96.1908127" id="border_left_1_" stroke="#FEE176" stroke-width="1.65601055" stroke-linecap="round" stroke-linejoin="round"></path>
            <path d="M60.7203868,61.5262898 C57.3973257,57.8467845 52.738416,55.680424 47.1742205,55.680424 C37.4920789,55.680424 29.8109499,63.6871378 29.8109499,73.3172438 C29.8109499,73.5046643 29.8109499,73.6920848 29.81647,73.8795053 C29.9461908,78.8185866 32.3225659,83.399364 36.10379,86.5882686 C40.7875399,90.5351237 56.9005225,103.999081 62.1031557,108.320777" id="border_left" stroke="#FEE176" stroke-width="1.65601055" stroke-linecap="round" stroke-linejoin="round"></path>
            <g id="border" transform="translate(28.152179, 54.019681)" stroke="#151440" stroke-linecap="round" stroke-linejoin="round" stroke-width="1.65601055">
                <path d="M39.7442532,1.8591887 C37.4285985,2.95890601 35.3696253,4.50236891 33.6722145,6.38208623 C30.0483114,2.36908269 24.7628778,-0.116995046 18.8978404,0.00703322269 C13.5268462,0.120036756 8.68301532,2.45728057 5.24403341,6.12024877" id="Path"></path>
                <path d="M49.1614332,43.2736057 C53.6657819,39.4866092 58.0486898,35.793323 60.5216656,33.7096481 C64.6451319,30.2341004 67.1981481,25.1902841 67.338909,19.8019449 C67.344429,19.5979873 67.3471891,19.3940297 67.344429,19.1900721 C67.2892287,8.79650319 58.8518549,0.227527922 48.4465887,0.00427703895 C46.5808168,-0.0343095335 44.7702452,0.18894135 43.0562743,0.643711668" id="Path"></path>
                <path d="M46.5366565,45.4785527 C46.5725367,45.4482346 46.6084169,45.4179166 46.6415372,45.3903548" id="Path"></path>
                <path d="M20.1508884,44.9273159 C24.2936748,48.408376 28.3233004,51.7874573 30.8514766,53.8849131 C32.488167,55.2437117 34.8590221,55.2437117 36.4957125,53.8849131 C38.3449243,52.3497187 41.0000612,50.1282346 43.9118798,47.6834997" id="Path"></path>
                <path d="M1.39380888,12.1287293 C0.507843235,14.3171392 0.0138000879,16.7012382 0,19.1900721 C0,19.3940297 0,19.5979873 0.00552003517,19.8019449 C0.146280932,25.1902841 2.6992972,30.2313442 6.82276347,33.7096481 C9.17429845,35.6941004 13.2563645,39.1310615 17.5261117,42.7223689" id="Path"></path>
                <path d="M3.12157989,8.82130884 C3.0608595,8.9122629 3.00289913,9.00321697 2.94493876,9.09692722" id="Path"></path>
            </g>
            <g id="shine_2_" transform="translate(35.052223, 60.636042)" stroke="#FFFFFF" stroke-linecap="round" stroke-linejoin="round" stroke-width="1.65601055">
                <path d="M17.3881108,1.03081272 C17.6696326,1.15484099 17.9456343,1.28713781 18.2161161,1.43045936" id="shine_1_"></path>
                <path d="M1.58425009,18.4664311 C0.576843675,16.6749117 0,14.6050177 0,12.4028269 C0,5.55371025 5.56143543,0 12.4200791,0 C12.9803627,0 13.5351262,0.0385865724 14.0760897,0.11024735" id="shine"></path>
            </g>
            <g id="circles_x2C__stars" transform="translate(16.283022, 0.000000)">
                <ellipse id="Oval" stroke="#FFFFFF" stroke-width="2.20801407" cx="42.5053521" cy="37.4840989" rx="2.76001758" ry="2.75618375"></ellipse>
                <ellipse id="Oval" stroke="#FFFFFF" stroke-width="1.65601055" cx="15.181178" cy="44.0989399" rx="2.20801407" ry="2.204947"></ellipse>
                <ellipse id="Oval" stroke="#FFFFFF" stroke-width="1.65601055" cx="83.3536124" cy="46.5795053" rx="2.20801407" ry="2.204947"></ellipse>
                <ellipse id="Oval" stroke="#FFFFFF" stroke-width="1.10400703" cx="86.6656335" cy="72.4876325" rx="1.38000879" ry="1.37809187"></ellipse>
                <path d="M69.3382431,26.4648763 L69.3382431,26.4648763 C68.7558794,26.4648763 68.2866764,25.9935689 68.2866764,25.4147703 L68.2866764,25.4147703 C68.2866764,24.8387279 67.8699137,24.3233216 67.2958301,24.2654417 C66.6389459,24.1992933 66.0786623,24.7174558 66.0786623,25.3624028 L66.0786623,25.4147703 C66.0786623,25.9935689 65.6066993,26.4648763 65.0270956,26.4648763 L65.0270956,26.4648763 C64.4502519,26.4648763 63.9341286,26.8810601 63.8761683,27.4543463 C63.8099278,28.110318 64.3288112,28.6698233 64.9746553,28.6698233 L65.0270956,28.6698233 C65.6094593,28.6698233 66.0786623,29.1411307 66.0786623,29.7199293 L66.0786623,29.7199293 C66.0786623,30.2959717 66.495425,30.8113781 67.0695086,30.869258 C67.7263928,30.9354064 68.2866764,30.4172438 68.2866764,29.7722968 L68.2866764,29.7199293 C68.2866764,29.1411307 68.7586394,28.6698233 69.3382431,28.6698233 L69.3906834,28.6698233 C70.0365275,28.6698233 70.5554108,28.110318 70.4891704,27.4543463 C70.43121,26.8838163 69.9150867,26.4648763 69.3382431,26.4648763 Z" id="Path" fill="#FFFFFF" fill-rule="nonzero"></path>
                <path d="M4.10246745,64.4946996 L4.10246745,64.4946996 C3.66638467,64.4946996 3.31310242,64.1419081 3.31310242,63.7064311 L3.31310242,63.7064311 C3.31310242,63.2764664 2.99846042,62.8878445 2.57065769,62.8437456 C2.07661454,62.7968905 1.65709187,63.1855124 1.65709187,63.6678445 L1.65709187,63.7064311 C1.65709187,64.1419081 1.30380962,64.4946996 0.867726843,64.4946996 L0.867726843,64.4946996 C0.4371641,64.4946996 0.0480016203,64.8089046 0.00384133898,65.2361131 C-0.0430789599,65.72947 0.346083519,66.1484099 0.829086597,66.1484099 L0.867726843,66.1484099 C1.30380962,66.1484099 1.65709187,66.5012014 1.65709187,66.9366784 L1.65709187,66.9366784 C1.65709187,67.3666431 1.97173388,67.755265 2.3995366,67.799364 C2.89357975,67.8489753 3.31310242,67.4603534 3.31310242,66.9780212 L3.31310242,66.9394346 C3.31310242,66.5039576 3.66638467,66.1511661 4.10246745,66.1511661 L4.1411077,66.1511661 C4.62411077,66.1511661 5.01327325,65.7322261 4.96359294,65.2388693 C4.92219267,64.8089046 4.53303019,64.4946996 4.10246745,64.4946996 Z" id="Path" fill="#FFFFFF" fill-rule="nonzero"></path>
                <ellipse id="Oval" stroke="#FEE176" stroke-width="1.65601055" cx="59.0654576" cy="2.204947" rx="2.20801407" ry="2.204947"></ellipse>
                <path d="M30.0466327,3.58303887 L30.0466327,3.58303887 C29.61055,3.58303887 29.2572677,3.23024735 29.2572677,2.79477032 L29.2572677,2.79477032 C29.2572677,2.36480565 28.9426257,1.97618375 28.514823,1.93208481 C28.0207798,1.88522968 27.6012572,2.27385159 27.6012572,2.75618375 L27.6012572,2.79477032 C27.6012572,3.23024735 27.2479749,3.58303887 26.8118921,3.58303887 L26.8118921,3.58303887 C26.3813294,3.58303887 25.9921669,3.89724382 25.9480066,4.3244523 C25.9010863,4.81780919 26.2902488,5.23674912 26.7732519,5.23674912 L26.8118921,5.23674912 C27.2479749,5.23674912 27.6012572,5.58954064 27.6012572,6.02501767 L27.6012572,6.02501767 C27.6012572,6.45498233 27.9158992,6.84360424 28.3437019,6.88770318 C28.837745,6.93731449 29.2572677,6.54869258 29.2572677,6.06636042 L29.2572677,6.02777385 C29.2572677,5.59229682 29.61055,5.2395053 30.0466327,5.2395053 L30.085273,5.2395053 C30.5682761,5.2395053 30.9574385,4.82056537 30.9077582,4.32720848 C30.866358,3.89724382 30.4771955,3.58303887 30.0466327,3.58303887 Z" id="Path" fill="#FEE176" fill-rule="nonzero"></path>
                <path d="M85.5091861,11.8515901 L85.5091861,11.8515901 C84.9268224,11.8515901 84.4576194,11.3802827 84.4576194,10.8014841 L84.4576194,10.8014841 C84.4576194,10.2254417 84.0408567,9.71003534 83.4667731,9.65215548 C82.8098889,9.58600707 82.2496053,10.1041696 82.2496053,10.7491166 L82.2496053,10.8014841 C82.2496053,11.3802827 81.7776423,11.8515901 81.1980386,11.8515901 L81.1980386,11.8515901 C80.6211949,11.8515901 80.1050717,12.2677739 80.0471113,12.8410601 C79.9808709,13.4970318 80.4997542,14.0565371 81.1455983,14.0565371 L81.1980386,14.0565371 C81.7804023,14.0565371 82.2496053,14.5278445 82.2496053,15.1066431 L82.2496053,15.1066431 C82.2496053,15.6826855 82.666368,16.1980919 83.2404516,16.2559717 C83.8973358,16.3221201 84.4576194,15.8039576 84.4576194,15.1590106 L84.4576194,15.1066431 C84.4576194,14.5278445 84.9295824,14.0565371 85.5091861,14.0565371 L85.5616264,14.0565371 C86.2074705,14.0565371 86.7263538,13.4970318 86.6601134,12.8410601 C86.6021531,12.2677739 86.0860298,11.8515901 85.5091861,11.8515901 Z" id="Path" fill="#FEE176" fill-rule="nonzero"></path>
            </g>
        </g>
    </g>
</svg>