<?xml version="1.0" encoding="UTF-8"?>
<svg width="126px" height="120px" viewBox="0 0 126 120" version="1.1" xmlns="http://www.w3.org/2000/svg" xmlns:xlink="http://www.w3.org/1999/xlink">
    <!-- Generator: Sketch 57.1 (83088) - https://sketch.com -->
    <title>Commission Management@3x</title>
    <desc>Created with Sketch.</desc>
    <g id="Commission-Management" stroke="none" stroke-width="1" fill="none" fill-rule="evenodd">
        <g id="1077264_cash_coin_finance_hand_money_icon-copy-2" transform="translate(1.000000, 2.000000)">
            <g id="circle_back" transform="translate(0.000000, 11.021979)" fill="#B7EDAD" fill-rule="nonzero">
                <path d="M109.031735,69.9188693 C108.28101,69.1691873 108.28101,67.9399293 109.031735,67.1902473 L109.031735,67.1902473 C109.782459,66.4405654 111.013427,66.4405654 111.764152,67.1902473 L114.248168,69.6708127 C115.515016,65.0376678 116.19674,60.1592226 116.19674,55.1236749 C116.19674,24.6788693 91.4835428,0 60.9963886,0 C50.5497221,0 40.7820198,2.8995053 32.4550468,7.93229682 L35.9630291,11.4354064 C37.6935601,13.1635336 37.6935601,15.9941343 35.9630291,17.7222615 L35.9630291,17.7222615 C34.2324981,19.4503887 31.39796,19.4503887 29.667429,17.7222615 L25.1492802,13.2103887 C22.8971059,15.1342049 20.8022525,17.2371731 18.8840403,19.4944876 L20.7829324,21.390742 C22.5134634,23.1188693 22.5134634,25.94947 20.7829324,27.6775972 C19.0524014,29.4057244 16.2178633,29.4057244 14.4873323,27.6775972 L13.6289668,26.820424 C8.65541514,35.0944876 5.79603693,44.7769611 5.79603693,55.1264311 C5.79603693,72.2009894 13.5710065,87.4592226 25.7758042,97.5716608 L96.216973,97.5716608 C103.732501,91.3481979 109.561658,83.1678445 112.93716,73.8188693 L109.031735,69.9188693 Z" id="Path"></path>
                <path d="M17.6254723,40.4800707 L17.6254723,40.4800707 C14.9427352,43.1590813 10.5515472,43.1590813 7.86605011,40.4800707 L2.01205282,34.6342049 C-0.670684273,31.9551943 -0.670684273,27.570106 2.01205282,24.8883392 L2.01205282,24.8883392 C4.69478991,22.2093286 9.08597789,22.2093286 11.771475,24.8883392 L17.6254723,30.7342049 C20.3082094,33.4159717 20.3082094,37.8010601 17.6254723,40.4800707 Z" id="Path"></path>
                <path d="M36.0679098,30.3621201 L36.0679098,30.3621201 C34.3373788,32.0902473 31.5028407,32.0902473 29.7723097,30.3621201 L16.5518255,17.16 C14.8212944,15.4318728 14.8212944,12.6012721 16.5518255,10.8731449 L16.5518255,10.8731449 C18.2823565,9.14501767 21.1168945,9.14501767 22.8474256,10.8731449 L36.0679098,24.075265 C37.8012008,25.8061484 37.8012008,28.6339929 36.0679098,30.3621201 Z" id="Path"></path>
                <path d="M14.3244913,8.64890459 L14.3244913,8.64890459 C12.5939602,10.3770318 9.75942218,10.3770318 8.02889115,8.64890459 L7.1567256,7.77795053 C5.42619457,6.04982332 5.42619457,3.21922261 7.1567256,1.49109541 L7.1567256,1.49109541 C8.88725662,-0.237031802 11.7217947,-0.237031802 13.4523257,1.49109541 L14.3244913,2.36204947 C16.0577823,4.09293286 16.0577823,6.92077739 14.3244913,8.64890459 Z" id="Path"></path>
                <path d="M39.2226099,11.9177385 L39.2226099,11.9177385 C38.4718851,12.6674205 37.2409173,12.6674205 36.4901925,11.9177385 L28.6848628,4.12325088 C27.934138,3.3735689 27.934138,2.14431095 28.6848628,1.39462898 L28.6848628,1.39462898 C29.4355875,0.644946996 30.6665554,0.644946996 31.4172802,1.39462898 L39.2226099,9.18911661 C39.9733347,9.93879859 39.9733347,11.1653004 39.2226099,11.9177385 Z" id="Path"></path>
                <path d="M122.702102,71.7792933 L122.702102,71.7792933 C120.971571,73.5074205 118.137033,73.5074205 116.406502,71.7792933 L103.186017,58.5771731 C101.455486,56.8490459 101.455486,54.0184452 103.186017,52.290318 L103.186017,52.290318 C104.916548,50.5621908 107.751086,50.5621908 109.481618,52.290318 L122.702102,65.4924382 C124.432633,67.2205654 124.432633,70.0484099 122.702102,71.7792933 Z" id="Path"></path>
                <path d="M115.647497,86.2327208 L115.647497,86.2327208 C112.96476,88.9117314 108.573572,88.9117314 105.888075,86.2327208 L100.034077,80.3868551 C97.3513402,77.7078445 97.3513402,73.3227562 100.034077,70.6409894 L100.034077,70.6409894 C102.716814,67.9619788 107.108002,67.9619788 109.793499,70.6409894 L115.647497,76.4868551 C118.332994,79.1686219 118.332994,83.5537102 115.647497,86.2327208 Z" id="Path"></path>
            </g>
            <g id="bottom_lines" transform="translate(17.388111, 109.007067)" stroke="#151440" stroke-linecap="round" stroke-width="1.65490494">
                <path d="M25.6681635,0.137809187 L0,0.137809187" id="Path"></path>
                <path d="M81.9725222,0.137809187 L28.9801846,0.137809187" id="Path"></path>
                <path d="M87.7685592,0.137809187 L85.2845433,0.137809187" id="Path"></path>
                <path d="M14.904095,3.99646643 L30.3601934,3.99646643" id="Path"></path>
                <path d="M33.6722145,3.99646643 L33.6722145,3.99646643" id="Path"></path>
                <path d="M36.9842356,3.99646643 L53.2683394,3.99646643" id="Path"></path>
                <path d="M53.2683394,7.85512367 L69.2764414,7.85512367" id="Path"></path>
                <path d="M73.140466,7.85512367 L80.3165117,7.85512367" id="Path"></path>
                <path d="M69.2764414,7.85512367 C69.2764414,6.78848057 70.1403269,5.92579505 71.2084537,5.92579505 C72.2765805,5.92579505 73.140466,6.78848057 73.140466,7.85512367" id="Path"></path>
                <path d="M49.9563183,7.85512367 L49.4043148,7.85512367" id="Path"></path>
            </g>
            <g id="hand_13_" transform="translate(28.348141, 74.844578)" fill="#F2ECE8" fill-rule="nonzero">
                <path d="M47.4667824,22.1730903 C47.6185834,21.9498394 47.7510642,21.7128076 47.869745,21.4592387 L47.869745,21.4592387 C49.0123923,18.9731609 47.9277053,16.0323129 45.4409295,14.8829843 L15.0117356,0.818178596 C12.8920421,-0.160266633 10.4715067,-0.262245432 8.28005275,0.534291671 L0,3.54404432 L7.97921084,25.4584613 L11.9701963,24.0087086 C13.3060448,23.5236203 14.7826542,23.5870125 16.0715824,24.1878606 L36.7137539,33.8014295 C38.0026821,34.4022775 39.4792915,34.4656698 40.81514,33.9805814 L68.0454735,24.0831256 C68.5615968,23.8957051 69.0390798,23.6200867 69.4586025,23.2700514 L75.8949635,17.9037616 C77.2142519,16.8040443 77.702775,14.9959878 77.1148913,13.3808641 L77.1148913,13.3808641 C76.1488851,10.7266592 72.836864,9.83641181 70.6647302,11.6472245 L66.2790623,15.3019242 C65.9975405,15.5361998 65.6801384,15.7181079 65.3351362,15.8448924 L51.7696498,20.7757051 L47.4667824,22.1730903 Z" id="hand_8_"></path>
            </g>
            <g id="hand_1_" transform="translate(28.348141, 74.847334)" stroke="#151440" stroke-linecap="round" stroke-linejoin="round" stroke-width="1.65490494">
                <path d="M51.7724098,20.7701927 L65.3378963,15.83938 C65.6801384,15.7153517 66.0003005,15.5306874 66.2818223,15.2964118 L70.6674902,11.6417122 C72.8396241,9.83089944 76.1488851,10.7211468 77.1176513,13.3753517 L77.1176513,13.3753517 C77.7055351,14.9877192 77.2170119,16.7957758 75.8977235,17.8982493 L69.4613625,23.264539 C69.0418399,23.6145744 68.5615968,23.8901927 68.0482335,24.0776132 L40.8179,33.9750691 C39.4820515,34.4601574 38.0054421,34.3967652 36.7165139,33.7959171 L20.7332521,26.354221" id="hand_6_"></path>
                <path d="M0,3.54128814 L7.97921084,25.4557051 L11.9701963,24.0059524 C13.3060448,23.5208641 14.7826542,23.5842563 16.0715824,24.1851044 L17.2942702,24.7528782" id="hand_5_"></path>
                <path d="M35.7311876,10.3931609 L15.0117356,0.815422413 C12.8920421,-0.163022817 10.4715067,-0.265001616 8.28005275,0.531535487 L3.1077798,2.4112528" id="hand_4_"></path>
                <path d="M39.1646495,11.9807228 L38.9631682,11.8870125" id="hand_3_"></path>
                <path d="M18.8895603,13.469062 L41.2539828,23.8819242 C43.7517987,25.0450337 46.7188176,23.9563411 47.869745,21.4564825 L47.869745,21.4564825 C49.0123923,18.9704047 47.9277053,16.0295567 45.4409295,14.8802281 L42.1923888,13.3781079" id="hand_2_"></path>
            </g>
            <g id="cuff_4_" transform="translate(17.849415, 75.991123)" fill="#FEE176" fill-rule="nonzero">
                <path d="M9.33951808,29.6451315 C9.51891923,30.1357322 10.0626427,30.3893011 10.5539258,30.2101491 L18.5662569,27.2996191 C19.05754,27.1204672 19.3114616,26.577499 19.1320605,26.0868983 L9.85012134,0.622516634 C9.67072019,0.131915928 9.12699673,-0.121652977 8.6357136,0.0574989666 L0.623382552,2.968029 C0.132099422,3.14718095 -0.121822196,3.69014914 0.0575789474,4.18074985 L9.33951808,29.6451315 Z" id="cuff_6_"></path>
            </g>
            <g id="border_left" transform="translate(19.320123, 79.378092)" stroke="#B7EDAD" stroke-linecap="round" stroke-linejoin="round" stroke-width="1.65490494">
                <path d="M1.10400703,5.51236749 L4.14002638,13.7809187" id="Path"></path>
                <path d="M0,0 L9.66006154,26.459364" id="Path"></path>
            </g>
            <g id="cuff_7_" transform="translate(17.849415, 75.991123)" stroke="#151440" stroke-linecap="round" stroke-linejoin="round" stroke-width="1.65490494">
                <path d="M4.59228784,16.6166509 L9.33951808,29.6451315 C9.51891923,30.1357322 10.0626427,30.3893011 10.5539258,30.2101491 L18.5662569,27.2996191 C19.05754,27.1204672 19.3114616,26.577499 19.1320605,26.0868983 L9.85012134,0.622516634 C9.67072019,0.131915928 9.12699673,-0.121652977 8.6357136,0.0574989666 L0.623382552,2.968029 C0.132099422,3.14718095 -0.121822196,3.69014914 0.0575789474,4.18074985 L1.89299064,9.21354137" id="cuff_9_"></path>
                <path d="M3.19019891,12.7662622 L3.29783959,13.0639301" id="cuff_8_"></path>
            </g>
            <ellipse id="button_1_" stroke="#151440" stroke-width="1.65490494" fill="#FCBF5A" fill-rule="nonzero" stroke-linecap="round" stroke-linejoin="round" cx="30.6251551" cy="99.8592933" rx="1.73605106" ry="1.73363958"></ellipse>
            <g id="coin_2_" transform="translate(61.548392, 47.130742)">
                <ellipse id="fill_circle" fill="#FEE176" fill-rule="nonzero" cx="16.5601055" cy="16.5371025" rx="16.5601055" ry="16.5371025"></ellipse>
                <path d="M16.5601055,31.4204947 C8.32973307,31.4204947 1.65601055,24.7560424 1.65601055,16.5371025 C1.65601055,8.31816254 8.32973307,1.65371025 16.5601055,1.65371025" id="arc_border_left" stroke="#B7EDAD" stroke-width="1.65490494" stroke-linecap="round"></path>
                <path d="M4.73343016,28.1130742 C3.98822541,27.3551237 3.31478112,26.5227562 2.72689737,25.6325088" id="arc_border_left_1_" stroke="#B7EDAD" stroke-width="1.65490494" stroke-linecap="round"></path>
                <g id="circle" stroke="#151440" stroke-linecap="round" stroke-width="1.65490494">
                    <path d="M2.76001758,25.6821201 C1.01568647,23.0637456 0,19.9189399 0,16.5371025 C0,7.40310954 7.41340723,0 16.5601055,0 C19.3670434,0 22.0111402,0.697314488 24.326795,1.92932862" id="circle_4_"></path>
                    <path d="M29.5321881,6.2565371 C31.7788425,9.07886926 33.120211,12.6508834 33.120211,16.5371025 C33.120211,25.6710954 25.7068038,33.0742049 16.5601055,33.0742049 C11.926036,33.0742049 7.73908931,31.1751943 4.73343016,28.1130742" id="circle_3_"></path>
                    <path d="M27.0481723,3.74014134 C27.0978526,3.77872792 27.1447729,3.82007067 27.1916932,3.85865724" id="circle_1_"></path>
                </g>
                <path d="M7.72804924,18.4664311 C7.72804924,12.3780212 12.6712407,7.44169611 18.7681196,7.44169611 C21.0202939,7.44169611 23.1151473,8.11696113 24.8622384,9.2745583 C22.8391455,6.97038869 19.8693666,5.51236749 16.5601055,5.51236749 C10.4632267,5.51236749 5.52003517,10.4486926 5.52003517,16.5371025 C5.52003517,20.3764664 7.48516769,23.7555477 10.4659867,25.7289753 C8.76305583,23.7886219 7.72804924,21.2501767 7.72804924,18.4664311 Z" id="shadow" fill="#FCBF5A" fill-rule="nonzero"></path>
                <ellipse id="circle_inner_1_" stroke="#151440" stroke-width="1.65490494" stroke-linecap="round" cx="16.5601055" cy="16.5371025" rx="11.0400703" ry="11.024735"></ellipse>
                <polyline id="_x24__4_" stroke="#151440" stroke-width="1.65490494" stroke-linecap="round" stroke-linejoin="round" points="19.0441213 13.229682 19.0441213 12.4028269 14.0760897 12.4028269 14.0760897 16.5371025 19.0441213 16.5371025 19.0441213 20.6713781 14.0760897 20.6713781 14.0760897 19.844523"></polyline>
                <path d="M16.5601055,11.3003534 L16.5601055,21.7738516" id="_x24__1_" stroke="#151440" stroke-width="1.65490494" stroke-linecap="round" stroke-linejoin="round"></path>
            </g>
            <g id="shadow_finger" transform="translate(51.336327, 92.056537)" stroke="#B9BDC9" stroke-linecap="round" stroke-linejoin="round" stroke-width="1.65490494">
                <path d="M4.41602813,2.05335689 L17.7579531,8.22169611 C20.5704111,9.52261484 23.9127923,8.60204947 25.6626435,6.04982332 L26.220167,5.23674912" id="Path"></path>
                <path d="M0,0 L1.38000879,0.642190813" id="Path"></path>
            </g>
            <g id="circles_x2C__stars" transform="translate(15.731019, 0.000000)">
                <ellipse id="Oval" stroke="#FFFFFF" stroke-width="1.65490494" cx="23.4612308" cy="47.4063604" rx="2.20801407" ry="2.204947"></ellipse>
                <ellipse id="Oval" stroke="#FFFFFF" stroke-width="1.65490494" cx="83.9056159" cy="48.2332155" rx="2.20801407" ry="2.204947"></ellipse>
                <ellipse id="Oval" stroke="#FFFFFF" stroke-width="1.10326996" cx="90.2536563" cy="69.7314488" rx="1.38000879" ry="1.37809187"></ellipse>
                <path d="M41.6249065,26.1837456 L41.6249065,26.1837456 C41.0425428,26.1837456 40.5733398,25.7124382 40.5733398,25.1336396 L40.5733398,25.1336396 C40.5733398,24.5575972 40.1565772,24.0421908 39.5824935,23.984311 C38.9256093,23.9181625 38.3653257,24.4363251 38.3653257,25.0812721 L38.3653257,25.1336396 C38.3653257,25.7151943 37.8933627,26.1837456 37.313759,26.1837456 L37.313759,26.1837456 C36.7369154,26.1837456 36.2207921,26.5999293 36.1628317,27.1732155 C36.0965913,27.8291873 36.6154746,28.3886926 37.2613187,28.3886926 L37.313759,28.3886926 C37.8961227,28.3886926 38.3653257,28.86 38.3653257,29.4387986 L38.3653257,29.4387986 C38.3653257,30.014841 38.7820884,30.5302473 39.3561721,30.5881272 C40.0130562,30.6542756 40.5733398,30.1361131 40.5733398,29.4911661 L40.5733398,29.4387986 C40.5733398,28.86 41.0453028,28.3886926 41.6249065,28.3886926 L41.6773468,28.3886926 C42.323191,28.3886926 42.8420743,27.8291873 42.7758338,27.1732155 C42.7178735,26.5999293 42.2017502,26.1837456 41.6249065,26.1837456 Z" id="Path" fill="#FFFFFF" fill-rule="nonzero"></path>
                <path d="M4.10246745,61.4628975 L4.10246745,61.4628975 C3.66638467,61.4628975 3.31310242,61.110106 3.31310242,60.674629 L3.31310242,60.674629 C3.31310242,60.2446643 2.99846042,59.8560424 2.57065769,59.8119435 C2.07661454,59.7650883 1.65709187,60.1537102 1.65709187,60.6360424 L1.65709187,60.674629 C1.65709187,61.110106 1.30380962,61.4628975 0.867726843,61.4628975 L0.867726843,61.4628975 C0.4371641,61.4628975 0.0480016203,61.7771025 0.00384133898,62.204311 C-0.0430789599,62.6976678 0.346083519,63.1166078 0.829086597,63.1166078 L0.867726843,63.1166078 C1.30380962,63.1166078 1.65709187,63.4693993 1.65709187,63.9048763 L1.65709187,63.9048763 C1.65709187,64.334841 1.97173388,64.7234629 2.3995366,64.7675618 C2.89357975,64.8171731 3.31310242,64.4285512 3.31310242,63.9462191 L3.31310242,63.9076325 C3.31310242,63.4721555 3.66638467,63.119364 4.10246745,63.119364 L4.1411077,63.119364 C4.62411077,63.119364 5.01327325,62.700424 4.96359294,62.2070671 C4.92219267,61.7771025 4.53303019,61.4628975 4.10246745,61.4628975 Z" id="Path" fill="#FFFFFF" fill-rule="nonzero"></path>
                <path d="M65.6508596,29.4911661 L65.6508596,29.4911661 C65.2147768,29.4911661 64.8614945,29.1383746 64.8614945,28.7028975 L64.8614945,28.7028975 C64.8614945,28.2729329 64.5468525,27.884311 64.1190498,27.840212 C63.6250067,27.7906007 63.205484,28.1792226 63.205484,28.6615548 L63.205484,28.7001413 C63.205484,29.1356184 62.8522017,29.4884099 62.416119,29.4884099 L62.416119,29.4884099 C61.9855562,29.4884099 61.5963937,29.8026148 61.5522335,30.2298233 C61.5025531,30.7231802 61.8917156,31.1421201 62.3747187,31.1421201 L62.4133589,31.1421201 C62.8494417,31.1421201 63.202724,31.4949117 63.202724,31.9303887 L63.202724,31.9303887 C63.202724,32.3603534 63.517366,32.7489753 63.9451687,32.7930742 C64.4392119,32.8426855 64.8587345,32.4540636 64.8587345,31.9717314 L64.8587345,31.9331449 C64.8587345,31.4976678 65.2120168,31.1448763 65.6480996,31.1448763 L65.6894998,31.1448763 C66.1725029,31.1448763 66.5616654,30.7259364 66.5119851,30.2325795 C66.4705848,29.805371 66.0814223,29.4911661 65.6508596,29.4911661 Z" id="Path" fill="#FFFFFF" fill-rule="nonzero"></path>
                <ellipse id="Oval" stroke="#B7EDAD" stroke-width="1.65490494" cx="59.6174611" cy="2.204947" rx="2.20801407" ry="2.204947"></ellipse>
                <path d="M30.5986363,3.62162544 L30.5986363,3.62162544 C30.1625535,3.62162544 29.8092712,3.26883392 29.8092712,2.83335689 L29.8092712,2.83335689 C29.8092712,2.40339223 29.4946292,2.01477032 29.0668265,1.97067138 C28.5727834,1.92106007 28.1532607,2.30968198 28.1532607,2.79201413 L28.1532607,2.83060071 C28.1532607,3.26607774 27.7999784,3.61886926 27.3638956,3.61886926 L27.3638956,3.61886926 C26.9333329,3.61886926 26.5441704,3.9330742 26.5000101,4.36028269 C26.4503298,4.85363958 26.8394923,5.27257951 27.3224954,5.27257951 L27.3611356,5.27257951 C27.7972184,5.27257951 28.1505007,5.62537102 28.1505007,6.06084806 L28.1505007,6.06084806 C28.1505007,6.49081272 28.4651427,6.87943463 28.8929454,6.92353357 C29.3869885,6.97314488 29.8065112,6.58452297 29.8065112,6.10219081 L29.8065112,6.06360424 C29.8065112,5.62812721 30.1597935,5.27533569 30.5958762,5.27533569 L30.6372765,5.27533569 C31.1202796,5.27533569 31.5094421,4.85639576 31.4597617,4.36303887 C31.4183615,3.93583039 31.029199,3.62162544 30.5986363,3.62162544 Z" id="Path" fill="#B7EDAD" fill-rule="nonzero"></path>
                <path d="M86.0611896,11.8515901 L86.0611896,11.8515901 C85.4788259,11.8515901 85.0096229,11.3802827 85.0096229,10.8014841 L85.0096229,10.8014841 C85.0096229,10.2254417 84.5928603,9.71003534 84.0187766,9.65215548 C83.3618924,9.58600707 82.8016088,10.1041696 82.8016088,10.7491166 L82.8016088,10.8014841 C82.8016088,11.3802827 82.3296458,11.8515901 81.7500421,11.8515901 L81.7500421,11.8515901 C81.1731985,11.8515901 80.6570752,12.2677739 80.5991148,12.8410601 C80.5328744,13.4970318 81.0517577,14.0565371 81.6976018,14.0565371 L81.7500421,14.0565371 C82.3324059,14.0565371 82.8016088,14.5278445 82.8016088,15.1066431 L82.8016088,15.1066431 C82.8016088,15.6826855 83.2183715,16.1980919 83.7924552,16.2559717 C84.4493393,16.3221201 85.0096229,15.8039576 85.0096229,15.1590106 L85.0096229,15.1066431 C85.0096229,14.5278445 85.4815859,14.0565371 86.0611896,14.0565371 L86.1136299,14.0565371 C86.7594741,14.0565371 87.2783574,13.4970318 87.2121169,12.8410601 C87.1541566,12.2677739 86.6380333,11.8515901 86.0611896,11.8515901 Z" id="Path" fill="#B7EDAD" fill-rule="nonzero"></path>
            </g>
        </g>
    </g>
</svg>