<?xml version="1.0" encoding="UTF-8"?>
<svg width="126px" height="120px" viewBox="0 0 126 120" version="1.1" xmlns="http://www.w3.org/2000/svg" xmlns:xlink="http://www.w3.org/1999/xlink">
    <!-- Generator: Sketch 57.1 (83088) - https://sketch.com -->
    <title>Community Management@3x</title>
    <desc>Created with Sketch.</desc>
    <g id="Community-Management" stroke="none" stroke-width="1" fill="none" fill-rule="evenodd">
        <g id="1077270_contract_cooperation_deal_finance_handshake_icon-copy" transform="translate(1.000000, 1.000000)">
            <g id="circle_back" transform="translate(0.000000, 11.021979)" fill="#B7EDAD" fill-rule="nonzero">
                <path d="M109.031735,69.9188693 C108.28101,69.1691873 108.28101,67.9399293 109.031735,67.1902473 L109.031735,67.1902473 C109.782459,66.4405654 111.013427,66.4405654 111.764152,67.1902473 L114.248168,69.6708127 C115.515016,65.0376678 116.19674,60.1592226 116.19674,55.1236749 C116.19674,24.6788693 91.4835428,0 60.9963886,0 C50.5497221,0 40.7820198,2.8995053 32.4550468,7.93229682 L35.9630291,11.4354064 C37.6935601,13.1635336 37.6935601,15.9941343 35.9630291,17.7222615 L35.9630291,17.7222615 C34.2324981,19.4503887 31.39796,19.4503887 29.667429,17.7222615 L25.1492802,13.2103887 C22.8971059,15.1342049 20.8022525,17.2371731 18.8840403,19.4944876 L20.7829324,21.390742 C22.5134634,23.1188693 22.5134634,25.94947 20.7829324,27.6775972 C19.0524014,29.4057244 16.2178633,29.4057244 14.4873323,27.6775972 L13.6289668,26.820424 C8.65541514,35.0944876 5.79603693,44.7769611 5.79603693,55.1264311 C5.79603693,72.2009894 13.5710065,87.4592226 25.7758042,97.5716608 L96.216973,97.5716608 C103.732501,91.3481979 109.561658,83.1678445 112.93716,73.8188693 L109.031735,69.9188693 Z" id="Path"></path>
                <path d="M17.6254723,40.4800707 L17.6254723,40.4800707 C14.9427352,43.1590813 10.5515472,43.1590813 7.86605011,40.4800707 L2.01205282,34.6342049 C-0.670684273,31.9551943 -0.670684273,27.570106 2.01205282,24.8883392 L2.01205282,24.8883392 C4.69478991,22.2093286 9.08597789,22.2093286 11.771475,24.8883392 L17.6254723,30.7342049 C20.3082094,33.4159717 20.3082094,37.8010601 17.6254723,40.4800707 Z" id="Path"></path>
                <path d="M36.0679098,30.3621201 L36.0679098,30.3621201 C34.3373788,32.0902473 31.5028407,32.0902473 29.7723097,30.3621201 L16.5518255,17.16 C14.8212944,15.4318728 14.8212944,12.6012721 16.5518255,10.8731449 L16.5518255,10.8731449 C18.2823565,9.14501767 21.1168945,9.14501767 22.8474256,10.8731449 L36.0679098,24.075265 C37.8012008,25.8061484 37.8012008,28.6339929 36.0679098,30.3621201 Z" id="Path"></path>
                <path d="M14.3244913,8.64890459 L14.3244913,8.64890459 C12.5939602,10.3770318 9.75942218,10.3770318 8.02889115,8.64890459 L7.1567256,7.77795053 C5.42619457,6.04982332 5.42619457,3.21922261 7.1567256,1.49109541 L7.1567256,1.49109541 C8.88725662,-0.237031802 11.7217947,-0.237031802 13.4523257,1.49109541 L14.3244913,2.36204947 C16.0577823,4.09293286 16.0577823,6.92077739 14.3244913,8.64890459 Z" id="Path"></path>
                <path d="M39.2226099,11.9177385 L39.2226099,11.9177385 C38.4718851,12.6674205 37.2409173,12.6674205 36.4901925,11.9177385 L28.6848628,4.12325088 C27.934138,3.3735689 27.934138,2.14431095 28.6848628,1.39462898 L28.6848628,1.39462898 C29.4355875,0.644946996 30.6665554,0.644946996 31.4172802,1.39462898 L39.2226099,9.18911661 C39.9733347,9.93879859 39.9733347,11.1653004 39.2226099,11.9177385 Z" id="Path"></path>
                <path d="M122.702102,71.7792933 L122.702102,71.7792933 C120.971571,73.5074205 118.137033,73.5074205 116.406502,71.7792933 L103.186017,58.5771731 C101.455486,56.8490459 101.455486,54.0184452 103.186017,52.290318 L103.186017,52.290318 C104.916548,50.5621908 107.751086,50.5621908 109.481618,52.290318 L122.702102,65.4924382 C124.432633,67.2205654 124.432633,70.0484099 122.702102,71.7792933 Z" id="Path"></path>
                <path d="M115.647497,86.2327208 L115.647497,86.2327208 C112.96476,88.9117314 108.573572,88.9117314 105.888075,86.2327208 L100.034077,80.3868551 C97.3513402,77.7078445 97.3513402,73.3227562 100.034077,70.6409894 L100.034077,70.6409894 C102.716814,67.9619788 107.108002,67.9619788 109.793499,70.6409894 L115.647497,76.4868551 C118.332994,79.1686219 118.332994,83.5537102 115.647497,86.2327208 Z" id="Path"></path>
            </g>
            <g id="bottom_lines" transform="translate(17.388111, 109.007067)" stroke="#151440" stroke-linecap="round" stroke-width="1.65673592">
                <path d="M25.6681635,0.137809187 L0,0.137809187" id="Path"></path>
                <path d="M81.9725222,0.137809187 L28.9801846,0.137809187" id="Path"></path>
                <path d="M87.7685592,0.137809187 L85.2845433,0.137809187" id="Path"></path>
                <path d="M14.904095,3.99646643 L30.3601934,3.99646643" id="Path"></path>
                <path d="M33.6722145,3.99646643 L33.6722145,3.99646643" id="Path"></path>
                <path d="M36.9842356,3.99646643 L53.2683394,3.99646643" id="Path"></path>
                <path d="M53.2683394,7.85512367 L69.2764414,7.85512367" id="Path"></path>
                <path d="M73.140466,7.85512367 L80.3165117,7.85512367" id="Path"></path>
                <path d="M69.2764414,7.85512367 C69.2764414,6.78848057 70.1403269,5.92579505 71.2084537,5.92579505 C72.2765805,5.92579505 73.140466,6.78848057 73.140466,7.85512367" id="Path"></path>
                <path d="M49.9563183,7.85512367 L49.4043148,7.85512367" id="Path"></path>
            </g>
            <g id="fill" transform="translate(15.709988, 50.741310)" fill-rule="nonzero">
                <path d="M69.5552356,39.8268875 L71.3630471,40.7915518 C73.3198996,41.918831 75.8232355,41.2490783 76.9548427,39.2949441 L76.9548427,39.2949441 C78.0836899,37.3408098 77.4130057,34.8409511 75.4561532,33.7109158 L45.0048792,15.368513 L35.1129762,10.4294317 L23.1124197,8.08391934 L10.6178201,29.6951561 L15.6852124,34.9456861 L41.1187744,52.7589017 L49.6389487,56.7967109 C51.5958012,57.92399 54.0991371,57.2542374 55.2307443,55.3001031 L55.2307443,55.3001031 C56.3595915,53.3459688 55.6889072,51.0225059 53.7320548,49.8924706 L53.7127347,49.8566402 L57.4083982,51.7225766 C59.3652507,52.8498557 61.8685866,52.1801031 63.0001938,50.2259688 L63.0001938,50.2259688 C64.129041,48.2718345 63.4583567,45.9483716 61.5015043,44.8183363 L61.5677447,44.7852621 L64.9625663,46.5630006 C66.9194188,47.6902798 69.4227547,47.0205271 70.554362,45.0663928 L70.554362,45.0663928 C71.5783285,43.2941667 71.1229256,41.0754388 69.5717957,39.8351561 L69.5552356,39.8268875 Z" id="Path" fill="#F2ECE8"></path>
                <path d="M14.843407,0.882011211 C15.3319301,0.0386189847 16.411097,-0.250780309 17.2556624,0.237064214 L23.5236623,3.8504211 C24.3682277,4.33826563 24.6580296,5.41593347 24.1695064,6.2593257 L9.56349339,31.5225059 C9.07497027,32.3658981 7.9958034,32.6552974 7.15123802,32.1674529 L0.883238084,28.554096 C0.0386727035,28.0662515 -0.251129143,26.9885836 0.23739397,26.1451914 L14.843407,0.882011211 Z" id="Path" fill="#FEE176"></path>
            </g>
            <g id="border_left_5_" transform="translate(17.114163, 51.508584)" stroke="#B7EDAD" stroke-linecap="round" stroke-linejoin="round" stroke-width="1.65673592">
                <path d="M1.6539568,22.0815224 L6.89799021,12.9861161" id="border_left_3_"></path>
                <path d="M1.92995856,29.2476002 L0.737630963,28.4538192 C0.0117463385,27.9687309 -0.214575103,27.0040666 0.221507675,26.2488722 L14.9462015,0.825833377 C15.3850443,0.0678828474 16.3372503,-0.216004078 17.1210953,0.175374013 L17.9380605,0.583289208" id="border_left_4_"></path>
            </g>
            <g id="fill_1_" transform="translate(30.869660, 50.738554)" fill-rule="nonzero">
                <path d="M23.8725286,57.3589723 L22.9534428,57.8881596 C21.101471,58.9548027 18.7140557,58.3153681 17.6459289,56.468725 L17.6459289,56.468725 C16.5778021,54.6193257 17.2181262,52.2352268 19.067338,51.1685836 L19.9864239,50.6393964 C21.8383957,49.5727533 24.2258109,50.2121879 25.2939377,52.058831 L25.2939377,52.058831 C26.3648245,53.9082303 25.7245004,56.2923292 23.8725286,57.3589723 Z" id="Path" fill="#D6CFCC"></path>
                <path d="M19.3985401,51.0059688 L16.9504045,52.4171349 C15.0984327,53.483778 12.7110175,52.8443434 11.6428907,50.9977003 L11.6428907,50.9977003 C10.5747639,49.148301 11.215088,46.764202 13.0642998,45.6975589 L15.5124353,44.2863928 C17.3644071,43.2197497 19.7518224,43.8591844 20.8199492,45.7058275 L20.8199492,45.7058275 C21.888076,47.5524706 21.2477519,49.9365695 19.3985401,51.0059688 Z" id="Path" fill="#D6CFCC"></path>
                <path d="M15.0984327,44.4793257 L11.1212474,46.7724706 C9.26927557,47.8391137 6.88186036,47.1996791 5.81373356,45.3530359 L5.81373356,45.3530359 C4.74560675,43.5036367 5.38593083,41.1195377 7.23514262,40.0528946 L11.212328,37.7597497 C13.0642998,36.6931066 15.451715,37.3325412 16.5198418,39.1791844 L16.5198418,39.1791844 C17.5907286,41.0258275 16.9504045,43.4126826 15.0984327,44.4793257 Z" id="Path" fill="#D6CFCC"></path>
                <path d="M11.3310087,37.6054034 L5.82477363,40.7805271 C3.97280183,41.8471702 1.58538662,41.2077356 0.517259816,39.3610925 L0.517259816,39.3610925 C-0.550866989,37.5116932 0.0894570904,35.1275942 1.93866887,34.0609511 L7.44490395,30.8858275 C9.29687575,29.8191844 11.684291,30.458619 12.7524178,32.3052621 L12.7524178,32.3052621 C13.8205446,34.1546614 13.1802205,36.5387603 11.3310087,37.6054034 Z" id="Path" fill="#D6CFCC"></path>
                <path d="M22.9562028,57.8881596 C21.104231,58.9548027 18.7168158,58.3153681 17.648689,56.468725 L17.648689,56.468725 C16.5805622,54.6193257 17.2208862,52.2352268 19.070098,51.1685836 L19.0562979,51.218195 C18.3083332,54.1342374 20.0471442,57.1054034 22.9562028,57.8881596 L22.9562028,57.8881596 Z" id="shadow_1_" fill="#B7EDAD"></path>
                <path d="M16.9504045,52.4171349 C15.0984327,53.483778 12.7110175,52.8443434 11.6428907,50.9977003 L11.6428907,50.9977003 C10.5747639,49.148301 11.215088,46.764202 13.0642998,45.6975589 L13.0642998,45.6975589 C12.2749347,48.6108451 13.9944257,51.6123292 16.9090042,52.4061102 L16.9504045,52.4171349 Z" id="shadow_2_" fill="#B7EDAD"></path>
                <path d="M11.1212474,46.7724706 C9.26927557,47.8391137 6.88186036,47.1996791 5.81373356,45.3530359 L5.81373356,45.3530359 C4.74560675,43.5036367 5.38593083,41.1195377 7.23514262,40.0528946 L7.19926239,40.1879476 C6.45129762,43.0874529 8.21218884,46.0448381 11.1212474,46.7724706 L11.1212474,46.7724706 Z" id="shadow_3_" fill="#B7EDAD"></path>
                <path d="M5.82477363,40.7805271 C3.97280183,41.8471702 1.58538662,41.2077356 0.517259816,39.3610925 L0.517259816,39.3610925 C-0.550866989,37.5116932 0.0894570904,35.1275942 1.93866887,34.0609511 L1.91658873,34.149149 C1.18242405,37.0541667 2.92399515,40.0087957 5.82477363,40.7805271 L5.82477363,40.7805271 Z" id="shadow_4_" fill="#B7EDAD"></path>
                <path d="M29.7154858,15.1783363 L27.7862335,16.3993257 C26.5442256,17.1848381 25.8017809,18.5601738 25.8293811,20.0264635 L25.8487012,21.0214458 C25.9149416,24.6292904 23.4778461,27.8071702 19.9726238,28.6836367 L19.9726238,28.6836367 C19.0204177,28.9206685 18.0709717,28.28399 17.9302108,27.3138133 L16.3625208,16.4682303 C16.078239,14.5058275 16.9586846,12.5599617 18.6174551,11.4712692 L21.5485938,9.55020909 L25.0814163,7.23777093 L27.380511,5.7328946 C30.5076109,3.68505008 34.3909556,3.15861898 37.9513783,4.29692287 L49.7946138,8.08667552 L62.2892134,29.6979123 L59.2173138,33.0136013 L29.7154858,15.1783363 Z" id="shadow_5_" fill="#D6CFCC"></path>
                <path d="M72.6696395,26.1451914 C73.1581626,26.9885836 72.8683608,28.0662515 72.0237954,28.554096 L65.7557954,32.1674529 C64.9112301,32.6552974 63.8320632,32.3658981 63.3435401,31.5225059 L48.737527,6.2593257 C48.2490039,5.41593347 48.5388058,4.33826563 49.3833711,3.8504211 L55.6513711,0.237064214 C56.4959365,-0.250780309 57.5751033,0.0386189847 58.0636264,0.882011211 L72.6696395,26.1451914 Z" id="Path" fill="#FEE176"></path>
            </g>
            <g id="border_left_8_" transform="translate(48.885008, 52.041357)" stroke="#B7EDAD" stroke-linecap="round" stroke-linejoin="round" stroke-width="1.65673592">
                <path d="M4.10732919,8.59468583 L7.69535205,6.38973883" id="border_left_6_"></path>
                <path d="M2.45131864,27.0611169 L2.1311566,26.8792088 C1.83031469,26.7110816 1.6288334,26.4106576 1.5819131,26.071647 L0.0363032574,14.9201275 C-0.170698061,13.4180074 0.519306335,11.9324243 1.80547453,11.1248625 L10.7396514,5.50776003 C13.187787,3.96705332 16.1879262,3.57016286 18.9562238,4.42182364 L29.1600088,7.55836074 C31.0037005,8.12613459 32.643151,9.21482717 33.8768789,10.697654 L34.1915209,11.0752512" id="border_left_7_"></path>
                <path d="M31.4315033,6.38973883 L31.3017824,6.00111693 C31.0561409,5.26245968 31.3569828,4.45214166 32.0276671,4.0552512 L38.4723081,0.232424346 C39.1816327,-0.189271767 40.0951985,-0.0239007425 40.6113218,0.621046254 L40.8155631,0.877371342" id="Path"></path>
            </g>
            <g id="border" transform="translate(15.709988, 50.741310)" stroke="#151440" stroke-linecap="round" stroke-linejoin="round" stroke-width="1.65673592">
                <path d="M64.7886852,37.2856861 L51.9628835,30.4558628" id="Path"></path>
                <path d="M60.196016,24.519043 L75.4589132,33.713672 C77.4157657,34.8409511 78.0864499,37.3408098 76.9576028,39.2977003 L76.9576028,39.2977003 C75.8287556,41.2518345 73.3254196,41.9215872 71.3658071,40.794308 L69.5579956,39.8296437" id="Path"></path>
                <path d="M56.3099112,22.1762868 L56.4865523,22.283778" id="Path"></path>
                <path d="M45.0076392,15.368513 L52.6197677,19.9548027" id="Path"></path>
                <path d="M69.0584324,39.4878769 C69.1715931,39.5512692 69.2792338,39.6201738 69.3813545,39.6945907 C71.0870454,40.9017992 71.6224888,43.2280183 70.557122,45.0719052 L70.557122,45.0719052 C69.4282748,47.0260395 66.9249388,47.6957921 64.9653263,46.568513 L49.3629469,38.3964282" id="Path"></path>
                <path d="M49.3629469,38.3964282 L61.5042643,44.8238487 C63.4611168,45.9511278 64.131801,48.2745907 63.0029538,50.2314812 L63.0029538,50.2314812 C61.8741067,52.1856155 59.3707707,52.8553681 57.4111582,51.7280889 L50.8340363,48.4068875" id="Path"></path>
                <path d="M50.8340363,48.4206685 L53.7320548,49.8952268 C55.6889072,51.0225059 56.3595915,53.3459688 55.2307443,55.3028593 L55.2307443,55.3028593 C54.1018971,57.2569935 51.5985612,57.9267462 49.6389487,56.799467 L41.1187744,52.7616579" id="Path"></path>
                <path d="M46.9506916,46.4417285 L47.1273327,46.5326826" id="Path"></path>
                <polyline id="Path" points="22.4720956 9.19466139 23.1151797 8.08391934 35.1157362 10.4294317"></polyline>
                <polyline id="Path" points="15.6879724 34.9456861 10.6205801 29.6951561 20.333082 12.8989723"></polyline>
                <path d="M4.83558326,18.1908451 L4.73346261,18.3672409" id="Path"></path>
                <path d="M22.4720956,9.19466139 L24.1695064,6.2593257 C24.6580296,5.41593347 24.3682277,4.33826563 23.5236623,3.8504211 L17.2556624,0.237064214 C16.411097,-0.250780309 15.3319301,0.0386189847 14.843407,0.882011211 L7.20919839,14.0841314" id="Path"></path>
                <path d="M2.59168897,22.0715518 L0.23739397,26.1451914 C-0.251129143,26.9885836 0.0386727035,28.0662515 0.883238084,28.554096 L7.15123802,32.1674529 C7.9958034,32.6552974 9.07497027,32.3658981 9.56349339,31.5225059 L20.330322,12.9017285" id="Path"></path>
                <ellipse id="Oval" fill="#FCBF5A" fill-rule="nonzero" cx="7.03255726" cy="25.4203151" rx="1.58977013" ry="1.58756184"></ellipse>
            </g>
            <g id="border_1_" transform="translate(30.869660, 50.738554)" stroke="#151440" stroke-linecap="round" stroke-linejoin="round" stroke-width="1.65673592">
                <path d="M23.8725286,57.3589723 L22.9534428,57.8881596 C21.101471,58.9548027 18.7140557,58.3153681 17.6459289,56.468725 L17.6459289,56.468725 C16.5778021,54.6193257 17.2181262,52.2352268 19.067338,51.1685836 L19.9864239,50.6393964 C21.8383957,49.5727533 24.2258109,50.2121879 25.2939377,52.058831 L25.2939377,52.058831 C26.3648245,53.9082303 25.7245004,56.2923292 23.8725286,57.3589723 Z" id="Path"></path>
                <path d="M19.3985401,51.0059688 L16.9504045,52.4171349 C15.0984327,53.483778 12.7110175,52.8443434 11.6428907,50.9977003 L11.6428907,50.9977003 C10.5747639,49.148301 11.215088,46.764202 13.0642998,45.6975589 L15.5124353,44.2863928 C17.3644071,43.2197497 19.7518224,43.8591844 20.8199492,45.7058275 L20.8199492,45.7058275 C21.888076,47.5524706 21.2477519,49.9365695 19.3985401,51.0059688 Z" id="Path"></path>
                <path d="M15.0984327,44.4793257 L11.1212474,46.7724706 C9.26927557,47.8391137 6.88186036,47.1996791 5.81373356,45.3530359 L5.81373356,45.3530359 C4.74560675,43.5036367 5.38593083,41.1195377 7.23514262,40.0528946 L11.212328,37.7597497 C13.0642998,36.6931066 15.451715,37.3325412 16.5198418,39.1791844 L16.5198418,39.1791844 C17.5907286,41.0258275 16.9504045,43.4126826 15.0984327,44.4793257 Z" id="Path"></path>
                <path d="M11.3310087,37.6054034 L5.82477363,40.7805271 C3.97280183,41.8471702 1.58538662,41.2077356 0.517259816,39.3610925 L0.517259816,39.3610925 C-0.550866989,37.5116932 0.0894570904,35.1275942 1.93866887,34.0609511 L7.44490395,30.8858275 C9.29687575,29.8191844 11.684291,30.458619 12.7524178,32.3052621 L12.7524178,32.3052621 C13.8205446,34.1546614 13.1802205,36.5387603 11.3310087,37.6054034 Z" id="Path"></path>
                <path d="M21.5458338,9.55296527 L18.6146951,11.4740253 C16.9559245,12.5599617 16.0754789,14.5085836 16.3597607,16.4709865 L17.9274507,27.3165695 C18.0682116,28.2867462 19.0176577,28.9234246 19.9698637,28.6863928 L19.9698637,28.6863928 C23.4778461,27.8099264 25.9121816,24.6348027 25.8459412,21.024202 L25.8266211,20.0292197 C25.7990209,18.5629299 26.5414656,17.1875942 27.7834735,16.4020819 L29.7127258,15.1810925 C30.5821314,14.6326119 31.6474981,14.4892904 32.6300644,14.7924706 L33.3780292,15.0212338" id="Path"></path>
                <path d="M59.2173138,33.0136013 L62.2892134,29.6979123 L49.7946138,8.08667552 L37.9513783,4.29692287 C34.3909556,3.15861898 30.5076109,3.68505008 27.380511,5.7328946 L25.0814163,7.23777093" id="Path"></path>
                <path d="M64.0970249,11.3141667 L72.6723995,26.1451914 C73.1609226,26.9885836 72.8711208,28.0662515 72.0265554,28.554096 L65.7585555,32.1674529 C64.9139901,32.6552974 63.8348232,32.3658981 63.3463001,31.5225059 L48.740287,6.2593257 C48.2517639,5.41593347 48.5415658,4.33826563 49.3861312,3.8504211 L55.6541311,0.237064214 C56.4986965,-0.250780309 57.5778633,0.0386189847 58.0663865,0.882011211 L59.7113569,3.72914902" id="Path"></path>
                <path d="M61.8531306,7.43345997 L61.9552512,7.60985573" id="Path"></path>
                <ellipse id="Oval" fill="#FCBF5A" fill-rule="nonzero" cx="66.0538773" cy="25.7758628" rx="1.58977013" ry="1.58756184"></ellipse>
            </g>
            <g id="circles_x2C__stars" transform="translate(11.866994, 0.000000)">
                <ellipse id="Oval" stroke="#FFFFFF" stroke-width="1.65673592" cx="18.7692009" cy="41.0671378" rx="2.20801407" ry="2.204947"></ellipse>
                <ellipse id="Oval" stroke="#FFFFFF" stroke-width="1.65673592" cx="86.6656335" cy="49.335689" rx="2.20801407" ry="2.204947"></ellipse>
                <ellipse id="Oval" stroke="#FFFFFF" stroke-width="1.10449061" cx="96.8776985" cy="69.7314488" rx="1.38000879" ry="1.37809187"></ellipse>
                <path d="M47.4209434,35.2791519 L47.4209434,35.2791519 C46.8413397,35.2791519 46.3693767,34.8078445 46.3693767,34.2290459 L46.3693767,34.2290459 C46.3693767,33.6530035 45.9526141,33.1375972 45.3785304,33.0797173 C44.7216462,33.0135689 44.1613627,33.5317314 44.1613627,34.1766784 L44.1613627,34.2290459 C44.1613627,34.8078445 43.6893997,35.2791519 43.109796,35.2791519 L43.109796,35.2791519 C42.5329523,35.2791519 42.016829,35.6953357 41.9588686,36.2686219 C41.8926282,36.9245936 42.4115115,37.4840989 43.0573556,37.4840989 L43.109796,37.4840989 C43.6893997,37.4840989 44.1613627,37.9554064 44.1613627,38.5342049 L44.1613627,38.5342049 C44.1613627,39.1102473 44.5781253,39.6256537 45.152209,39.6835336 C45.8090932,39.749682 46.3693767,39.2315194 46.3693767,38.5865724 L46.3693767,38.5342049 C46.3693767,37.9554064 46.8413397,37.4840989 47.4209434,37.4840989 L47.4733838,37.4840989 C48.1192279,37.4840989 48.6381112,36.9245936 48.5718708,36.2686219 C48.5139104,35.6953357 47.9977871,35.2791519 47.4209434,35.2791519 Z" id="Path" fill="#FFFFFF" fill-rule="nonzero"></path>
                <path d="M4.10246745,60.360424 L4.10246745,60.360424 C3.66638467,60.360424 3.31310242,60.0076325 3.31310242,59.5721555 L3.31310242,59.5721555 C3.31310242,59.1421908 2.99846042,58.7535689 2.57065769,58.70947 C2.07661454,58.6626148 1.65709187,59.0512367 1.65709187,59.5335689 L1.65709187,59.5721555 C1.65709187,60.0076325 1.30380962,60.360424 0.867726843,60.360424 L0.867726843,60.360424 C0.4371641,60.360424 0.0480016203,60.674629 0.00384133898,61.1018375 C-0.0430789599,61.5951943 0.346083519,62.0141343 0.829086597,62.0141343 L0.867726843,62.0141343 C1.30380962,62.0141343 1.65709187,62.3669258 1.65709187,62.8024028 L1.65709187,62.8024028 C1.65709187,63.2323675 1.97173388,63.6209894 2.3995366,63.6650883 C2.89357975,63.7146996 3.31310242,63.3260777 3.31310242,62.8437456 L3.31310242,62.805159 C3.31310242,62.369682 3.66638467,62.0168905 4.10246745,62.0168905 L4.1411077,62.0168905 C4.62411077,62.0168905 5.01327325,61.5979505 4.96359294,61.1045936 C4.92219267,60.674629 4.53303019,60.360424 4.10246745,60.360424 Z" id="Path" fill="#FFFFFF" fill-rule="nonzero"></path>
                <path d="M72.8269053,27.5618375 L72.8269053,27.5618375 C72.3908225,27.5618375 72.0375403,27.2090459 72.0375403,26.7735689 L72.0375403,26.7735689 C72.0375403,26.3436042 71.7228983,25.9549823 71.2950955,25.9108834 C70.8010524,25.8612721 70.3815297,26.249894 70.3815297,26.7322261 L70.3815297,26.7708127 C70.3815297,27.2062898 70.0282475,27.5590813 69.5921647,27.5590813 L69.5921647,27.5590813 C69.1616019,27.5590813 68.7724395,27.8732862 68.7282792,28.3004947 C68.6785989,28.7938516 69.0677613,29.2127915 69.5507644,29.2127915 L69.5894047,29.2127915 C70.0254874,29.2127915 70.3787697,29.565583 70.3787697,30.0010601 L70.3787697,30.0010601 C70.3787697,30.4310247 70.6934117,30.8196466 71.1212144,30.8637456 C71.6152576,30.9133569 72.0347802,30.524735 72.0347802,30.0424028 L72.0347802,30.0038163 C72.0347802,29.5683392 72.3880625,29.2155477 72.8241453,29.2155477 L72.8655455,29.2155477 C73.3485486,29.2155477 73.7377111,28.7966078 73.6880308,28.3032509 C73.6466305,27.8760424 73.257468,27.5618375 72.8269053,27.5618375 Z" id="Path" fill="#FFFFFF" fill-rule="nonzero"></path>
                <ellipse id="Oval" stroke="#B7EDAD" stroke-width="1.65673592" cx="63.4814858" cy="2.204947" rx="2.20801407" ry="2.204947"></ellipse>
                <path d="M34.4626609,3.62162544 L34.4626609,3.62162544 C34.0265781,3.62162544 33.6732958,3.26883392 33.6732958,2.83335689 L33.6732958,2.83335689 C33.6732958,2.40339223 33.3586538,2.01477032 32.9308511,1.97067138 C32.436808,1.92106007 32.0172853,2.30968198 32.0172853,2.79201413 L32.0172853,2.83060071 C32.0172853,3.26607774 31.664003,3.61886926 31.2279203,3.61886926 L31.2279203,3.61886926 C30.7973575,3.61886926 30.408195,3.9330742 30.3640348,4.36028269 C30.3143544,4.85363958 30.7035169,5.27257951 31.18652,5.27257951 L31.2251602,5.27257951 C31.661243,5.27257951 32.0145253,5.62537102 32.0145253,6.06084806 L32.0145253,6.06084806 C32.0145253,6.49081272 32.3291673,6.87943463 32.75697,6.92353357 C33.2510132,6.97314488 33.6705358,6.58452297 33.6705358,6.10219081 L33.6705358,6.06360424 C33.6705358,5.62812721 34.0238181,5.27533569 34.4599009,5.27533569 L34.5013011,5.27533569 C34.9843042,5.27533569 35.3734667,4.85639576 35.3237864,4.36303887 C35.2823861,3.93583039 34.8932236,3.62162544 34.4626609,3.62162544 Z" id="Path" fill="#B7EDAD" fill-rule="nonzero"></path>
                <path d="M89.9252142,11.8515901 L89.9252142,11.8515901 C89.3428505,11.8515901 88.8736475,11.3802827 88.8736475,10.8014841 L88.8736475,10.8014841 C88.8736475,10.2254417 88.4568849,9.71003534 87.8828012,9.65215548 C87.225917,9.58600707 86.6656335,10.1041696 86.6656335,10.7491166 L86.6656335,10.8014841 C86.6656335,11.3802827 86.1936705,11.8515901 85.6140668,11.8515901 L85.6140668,11.8515901 C85.0372231,11.8515901 84.5210998,12.2677739 84.4631394,12.8410601 C84.396899,13.4970318 84.9157823,14.0565371 85.5616264,14.0565371 L85.6140668,14.0565371 C86.1964305,14.0565371 86.6656335,14.5278445 86.6656335,15.1066431 L86.6656335,15.1066431 C86.6656335,15.6826855 87.0823961,16.1980919 87.6564798,16.2559717 C88.313364,16.3221201 88.8736475,15.8039576 88.8736475,15.1590106 L88.8736475,15.1066431 C88.8736475,14.5278445 89.3456105,14.0565371 89.9252142,14.0565371 L89.9776546,14.0565371 C90.6234987,14.0565371 91.142382,13.4970318 91.0761416,12.8410601 C91.0181812,12.2677739 90.5020579,11.8515901 89.9252142,11.8515901 Z" id="Path" fill="#B7EDAD" fill-rule="nonzero"></path>
            </g>
        </g>
    </g>
</svg>