<?xml version="1.0" encoding="UTF-8"?>
<svg width="34px" height="34px" viewBox="0 0 34 34" version="1.1" xmlns="http://www.w3.org/2000/svg" xmlns:xlink="http://www.w3.org/1999/xlink">
    <!-- Generator: Sketch 57.1 (83088) - https://sketch.com -->
    <title>Completed Campaigns@1x</title>
    <desc>Created with Sketch.</desc>
    <g id="Completed-Campaigns" stroke="none" stroke-width="1" fill="none" fill-rule="evenodd">
        <g id="1475855_calendar_completed_date_task_icon-copy" transform="translate(7.000000, 7.000000)" fill="#31A47B" fill-rule="nonzero">
            <path d="M17.13375,6.63875 L8.7725,15 L3.90125,10.13 C3.4125,9.64125 3.4125,8.85125 3.90125,8.3625 C4.39,7.87375 5.18,7.87375 5.66875,8.3625 L8.7725,11.465 L15.36625,4.87125 C15.855,4.3825 16.645,4.3825 17.13375,4.87125 C17.6225,5.36 17.6225,6.15 17.13375,6.63875 M15.59375,0 L4.40625,0 C1.9725,0 0,1.9725 0,4.40625 L0,15.595 C0,18.0275 1.9725,20 4.40625,20 L15.59375,20 C18.0275,20 20,18.0275 20,15.595 L20,4.40625 C20,1.9725 18.0275,0 15.59375,0" id="Fill-37"></path>
        </g>
    </g>
</svg>