<svg xmlns="http://www.w3.org/2000/svg" viewBox="0 0 512 512"><path fill-rule="evenodd" d="M265.751 16.17c60.021 0 108.862 48.846 108.862 108.867 0 60.016-48.849 108.853-108.862 108.853s-108.862-48.836-108.862-108.853C156.888 65.015 205.73 16.17 265.751 16.17zm4.842 147.519c0 15.122 12.322 27.42 27.424 27.42 15.15 0 27.424-12.298 27.424-27.42 0-15.117-12.274-27.424-27.424-27.424-15.102 0-27.424 12.307-27.424 27.424zm38.595 0c0-6.151-4.986-11.161-11.171-11.161-6.137 0-11.171 5.01-11.171 11.161s5.034 11.162 11.171 11.162c6.185 0 11.171-5.011 11.171-11.162zm-91.046 13.233c-2.829 3.893-1.918 9.311 1.966 12.106 3.883 2.805 9.301 1.923 12.082-1.97l81.266-113.086c2.781-3.879 1.918-9.311-1.966-12.106-3.883-2.805-9.301-1.923-12.13 1.975l-81.218 113.081zm15.342-63.129c15.102 0 27.424-12.298 27.424-27.419 0-15.117-12.322-27.424-27.424-27.424-15.103 0-27.424 12.307-27.424 27.424 0 15.122 12.322 27.419 27.424 27.419zm0-38.58c-6.137 0-11.171 5.01-11.171 11.161 0 6.146 5.034 11.157 11.171 11.157s11.171-5.01 11.171-11.157c0-6.151-5.034-11.161-11.171-11.161zM131.422 475.297c-.457 1.601-1.473 2.937-2.896 3.745l-28.253 15.987c-2.947 1.681-6.758.635-8.435-2.348L8.806 345.963c-1.677-2.973-.66-6.768 2.338-8.461l28.253-15.981a6.037 6.037 0 0 1 2.998-.788c.559 0 1.118.077 1.677.224 1.626.452 2.948 1.479 3.76 2.912l83.031 146.717a6.094 6.094 0 0 1 .559 4.711zm364.193-130.57c8.486-5.204 11.077-20.479 5.234-30.26-8.486-14.167-30.946-12.495-60.113 4.482l-79.631 46.381c-15.346 8.964-31.912 11.865-50.56 8.878a339.242 339.242 0 0 1-10.061-1.769c-.711-.051-62.756-16.179-69.87-18.095-4.624-1.23-7.368-5.955-6.098-10.544 1.22-4.604 5.946-7.327 10.519-6.098 7.266 1.946 51.272 14.421 67.787 17.633 8.435.539 18.242-1.809 21.596-14.228 2.744-10.184-3.252-20.524-13.974-24.239-30.133-5.518-59.25-16.032-82.625-24.497-8.181-2.953-15.244-5.503-21.342-7.485-19.208-6.23-37.451 1.946-54.27 11.707L76.9 340.223l50.103 88.55 20.427-11.789a8.602 8.602 0 0 1 6.555-.859l132.474 35.505c16.972 4.538 32.928 2.297 47.512-6.667l161.644-100.236zm-449.562 2.476c-.763-5.508-5.895-9.319-11.434-8.521-5.488.808-9.299 5.935-8.486 11.438.813 5.513 5.895 9.329 11.433 8.521 5.489-.807 9.3-5.924 8.487-11.438z" clip-rule="evenodd"/></svg>