<?xml version="1.0" encoding="UTF-8"?>
<svg width="126px" height="120px" viewBox="0 0 126 120" version="1.1" xmlns="http://www.w3.org/2000/svg" xmlns:xlink="http://www.w3.org/1999/xlink">
    <!-- Generator: Sketch 57.1 (83088) - https://sketch.com -->
    <title>Donation Management@3x</title>
    <desc>Created with Sketch.</desc>
    <g id="Donation-Management" stroke="none" stroke-width="1" fill="none" fill-rule="evenodd">
        <g id="1077241_bank_cash_coin_finance_money_icon-copy" transform="translate(1.000000, 1.000000)">
            <g id="circle_back" transform="translate(0.000000, 11.021979)" fill="#B7EDAD" fill-rule="nonzero">
                <path d="M109.031735,69.9188693 C108.28101,69.1691873 108.28101,67.9399293 109.031735,67.1902473 L109.031735,67.1902473 C109.782459,66.4405654 111.013427,66.4405654 111.764152,67.1902473 L114.248168,69.6708127 C115.515016,65.0376678 116.19674,60.1592226 116.19674,55.1236749 C116.19674,24.6788693 91.4835428,0 60.9963886,0 C50.5497221,0 40.7820198,2.8995053 32.4550468,7.93229682 L35.9630291,11.4354064 C37.6935601,13.1635336 37.6935601,15.9941343 35.9630291,17.7222615 L35.9630291,17.7222615 C34.2324981,19.4503887 31.39796,19.4503887 29.667429,17.7222615 L25.1492802,13.2103887 C22.8971059,15.1342049 20.8022525,17.2371731 18.8840403,19.4944876 L20.7829324,21.390742 C22.5134634,23.1188693 22.5134634,25.94947 20.7829324,27.6775972 C19.0524014,29.4057244 16.2178633,29.4057244 14.4873323,27.6775972 L13.6289668,26.820424 C8.65541514,35.0944876 5.79603693,44.7769611 5.79603693,55.1264311 C5.79603693,72.2009894 13.5710065,87.4592226 25.7758042,97.5716608 L96.216973,97.5716608 C103.732501,91.3481979 109.561658,83.1678445 112.93716,73.8188693 L109.031735,69.9188693 Z" id="Path"></path>
                <path d="M17.6254723,40.4800707 L17.6254723,40.4800707 C14.9427352,43.1590813 10.5515472,43.1590813 7.86605011,40.4800707 L2.01205282,34.6342049 C-0.670684273,31.9551943 -0.670684273,27.570106 2.01205282,24.8883392 L2.01205282,24.8883392 C4.69478991,22.2093286 9.08597789,22.2093286 11.771475,24.8883392 L17.6254723,30.7342049 C20.3082094,33.4159717 20.3082094,37.8010601 17.6254723,40.4800707 Z" id="Path"></path>
                <path d="M36.0679098,30.3621201 L36.0679098,30.3621201 C34.3373788,32.0902473 31.5028407,32.0902473 29.7723097,30.3621201 L16.5518255,17.16 C14.8212944,15.4318728 14.8212944,12.6012721 16.5518255,10.8731449 L16.5518255,10.8731449 C18.2823565,9.14501767 21.1168945,9.14501767 22.8474256,10.8731449 L36.0679098,24.075265 C37.8012008,25.8061484 37.8012008,28.6339929 36.0679098,30.3621201 Z" id="Path"></path>
                <path d="M14.3244913,8.64890459 L14.3244913,8.64890459 C12.5939602,10.3770318 9.75942218,10.3770318 8.02889115,8.64890459 L7.1567256,7.77795053 C5.42619457,6.04982332 5.42619457,3.21922261 7.1567256,1.49109541 L7.1567256,1.49109541 C8.88725662,-0.237031802 11.7217947,-0.237031802 13.4523257,1.49109541 L14.3244913,2.36204947 C16.0577823,4.09293286 16.0577823,6.92077739 14.3244913,8.64890459 Z" id="Path"></path>
                <path d="M39.2226099,11.9177385 L39.2226099,11.9177385 C38.4718851,12.6674205 37.2409173,12.6674205 36.4901925,11.9177385 L28.6848628,4.12325088 C27.934138,3.3735689 27.934138,2.14431095 28.6848628,1.39462898 L28.6848628,1.39462898 C29.4355875,0.644946996 30.6665554,0.644946996 31.4172802,1.39462898 L39.2226099,9.18911661 C39.9733347,9.93879859 39.9733347,11.1653004 39.2226099,11.9177385 Z" id="Path"></path>
                <path d="M122.702102,71.7792933 L122.702102,71.7792933 C120.971571,73.5074205 118.137033,73.5074205 116.406502,71.7792933 L103.186017,58.5771731 C101.455486,56.8490459 101.455486,54.0184452 103.186017,52.290318 L103.186017,52.290318 C104.916548,50.5621908 107.751086,50.5621908 109.481618,52.290318 L122.702102,65.4924382 C124.432633,67.2205654 124.432633,70.0484099 122.702102,71.7792933 Z" id="Path"></path>
                <path d="M115.647497,86.2327208 L115.647497,86.2327208 C112.96476,88.9117314 108.573572,88.9117314 105.888075,86.2327208 L100.034077,80.3868551 C97.3513402,77.7078445 97.3513402,73.3227562 100.034077,70.6409894 L100.034077,70.6409894 C102.716814,67.9619788 107.108002,67.9619788 109.793499,70.6409894 L115.647497,76.4868551 C118.332994,79.1686219 118.332994,83.5537102 115.647497,86.2327208 Z" id="Path"></path>
            </g>
            <g id="bottom_lines" transform="translate(17.388111, 109.007067)" stroke="#151440" stroke-linecap="round" stroke-width="1.65371025">
                <path d="M25.6681635,0.137809187 L0,0.137809187" id="Path"></path>
                <path d="M81.9725222,0.137809187 L28.9801846,0.137809187" id="Path"></path>
                <path d="M87.7685592,0.137809187 L85.2845433,0.137809187" id="Path"></path>
                <path d="M14.904095,3.99646643 L30.3601934,3.99646643" id="Path"></path>
                <path d="M33.6722145,3.99646643 L33.6722145,3.99646643" id="Path"></path>
                <path d="M36.9842356,3.99646643 L53.2683394,3.99646643" id="Path"></path>
                <path d="M53.2683394,7.85512367 L69.2764414,7.85512367" id="Path"></path>
                <path d="M73.140466,7.85512367 L80.3165117,7.85512367" id="Path"></path>
                <path d="M69.2764414,7.85512367 C69.2764414,6.78848057 70.1403269,5.92579505 71.2084537,5.92579505 C72.2765805,5.92579505 73.140466,6.78848057 73.140466,7.85512367" id="Path"></path>
                <path d="M49.9563183,7.85512367 L49.4043148,7.85512367" id="Path"></path>
            </g>
            <path d="M92.7172707,77.4983746 L86.4658309,76.6577385 C84.9478212,72.74947 82.1712435,69.3262898 78.6605011,66.6996466 L78.6605011,56.4190813 C78.6605011,55.5260777 77.6530947,55.005159 76.9216901,55.5178092 L67.8826325,61.8542756 C66.9083463,61.650318 65.9119799,61.4959717 64.8962935,61.3912367 C61.6284326,64.8281979 57.0109232,66.975265 51.8883306,66.975265 C49.8017573,66.975265 47.8007445,66.6169611 45.9404927,65.9609894 C39.7801334,70.1173145 35.8084681,76.635689 35.8084681,83.9643816 C35.8084681,90.0913781 38.5822858,95.6506007 43.0949146,99.7407774 L40.8482602,103.62424 C40.489458,104.244382 40.7019793,105.040919 41.3257433,105.399223 L47.5219828,108.971237 C48.1429867,109.329541 48.9406318,109.117314 49.2994341,108.494417 L51.4301677,104.806643 C54.615228,106.019364 58.1287303,106.694629 61.8243939,106.694629 C65.5172974,106.694629 69.0307998,106.019364 72.2131001,104.806643 L74.3438336,108.491661 C74.7026359,109.111802 75.497521,109.326784 76.121285,108.968481 L82.3175244,105.396466 C82.9385284,105.038163 83.1538098,104.244382 82.7950075,103.621484 L80.5511132,99.7407774 C83.1814099,97.3566784 85.2210629,94.4737102 86.4658309,91.2682686 L92.6731104,90.5874912 C93.6529167,90.48 94.3953614,89.6531449 94.3953614,88.6691873 L94.3953614,79.4056537 C94.3926014,78.4465018 93.6777568,77.6279152 92.7172707,77.4983746 Z" id="fill_body" fill="#FEE176" fill-rule="nonzero"></path>
            <path d="M47.4723024,66.6996466 C41.3119432,70.8559717 37.2602374,76.635689 37.2602374,83.9643816 C37.2602374,89.804735 40.183096,94.9091873 44.3645226,98.9166784 C44.728845,99.2667138 44.8061255,99.8179505 44.5577239,100.256184 L41.6762655,105.286219" id="border_left_1_" stroke="#B7EDAD" stroke-width="1.65371025" stroke-linecap="round" stroke-linejoin="round"></path>
            <path d="M45.9404927,65.9609894 C39.7801334,70.1173145 35.8084681,76.635689 35.8084681,83.9643816 C35.8084681,90.0913781 38.5822858,95.6506007 43.0949146,99.7407774" id="border_left_2_" stroke="#B7EDAD" stroke-width="1.65371025" stroke-linecap="round" stroke-linejoin="round"></path>
            <g id="shadow" transform="translate(86.526551, 77.448763)">
                <path d="M5.65803605,13.229682 L4.55402901,13.229682 L4.55402901,0 L5.65803605,0 C6.87796382,0 7.86605011,0.986713781 7.86605011,2.204947 L7.86605011,11.024735 C7.86605011,12.2429682 6.87796382,13.229682 5.65803605,13.229682 Z" id="Path" fill="#FCBF5A" fill-rule="nonzero"></path>
                <path d="M4.55402901,1.92932862 L4.55402901,1.92932862" id="Path" stroke="#FCBF5A" stroke-width="1.65371025" stroke-linecap="round"></path>
                <path d="M4.55402901,0.275618375 L4.55402901,0.275618375" id="Path" stroke="#FEE176" stroke-width="1.65371025" stroke-linecap="round"></path>
                <path d="M6.48604132,5.23674912 L2.6220167,5.23674912" id="Path" stroke="#FCBF5A" stroke-width="1.65371025" stroke-linecap="round"></path>
                <path d="M4.55402901,3.58303887 L4.55402901,3.58303887" id="Path" stroke="#FEE176" stroke-width="1.65371025" stroke-linecap="round"></path>
                <path d="M6.48604132,8.54416961 L4.0020255,8.54416961" id="Path" stroke="#FCBF5A" stroke-width="1.65371025" stroke-linecap="round"></path>
                <path d="M4.55402901,6.89045936 L4.55402901,6.89045936" id="Path" stroke="#FEE176" stroke-width="1.65371025" stroke-linecap="round"></path>
                <path d="M6.48604132,11.8515901 L1.79401143,11.8515901" id="Path" stroke="#FCBF5A" stroke-width="1.65371025" stroke-linecap="round"></path>
                <path d="M4.55402901,10.1978799 L4.55402901,10.1978799" id="Path" stroke="#FEE176" stroke-width="1.65371025" stroke-linecap="round"></path>
                <path d="M0.138000879,5.23674912 L0.138000879,5.23674912" id="Path" stroke="#FCBF5A" stroke-width="1.65371025" stroke-linecap="round"></path>
            </g>
            <g id="body_2_" transform="translate(35.808468, 55.315577)" stroke="#151440" stroke-linecap="round" stroke-linejoin="round" stroke-width="1.65371025">
                <path d="M58.5841332,25.1649879 L58.5841332,24.0955886 C58.5841332,23.1309243 57.8692887,22.3123377 56.9088026,22.1827971 L50.6573627,21.3421611 C49.1393531,17.4338925 46.3627754,14.0107123 42.852033,11.3840692 L42.852033,1.10350381 C42.852033,0.21050028 41.8446266,-0.310418448 41.1132219,0.202231729 L32.0741643,6.53869816 C31.0998781,6.33474056 30.1035118,6.18039427 29.0878253,6.07565929 C25.8199645,9.51262042 21.2024551,11.6596876 16.0798624,11.6596876 C13.9932892,11.6596876 11.9922764,11.3013837 10.1320246,10.6454119 C9.41718,11.1277441 8.72993562,11.6431505 8.07581145,12.1861187" id="body_4_"></path>
                <path d="M58.5841332,28.4724084 L58.5841332,28.4724084" id="body_7_"></path>
                <path d="M4.08206601,40.8752353 C5.01495195,42.1513483 6.09135881,43.3392635 7.28644642,44.4251999 L5.03979211,48.3086628 C4.68098982,48.9288042 4.89351118,49.7253413 5.51727515,50.0836452 L11.7135146,53.6556593 C12.3345186,54.0139632 13.1321637,53.801737 13.490966,53.1788395 L15.6216995,49.4910657 C18.8067598,50.7037865 22.3202622,51.3790515 26.0159257,51.3790515 C29.7088293,51.3790515 33.2223317,50.7037865 36.4046319,49.4910657 L38.5353655,53.1760833 C38.8941678,53.7962247 39.6890529,54.011207 40.3128168,53.6529031 L46.5090563,50.080889 C47.1300603,49.7225851 47.3453416,48.9288042 46.9865393,48.3059066 L44.7426451,44.4251999 C47.3729418,42.041101 49.4125948,39.1581328 50.6573627,35.9526911 L56.8646423,35.2719137 C57.8444485,35.1644225 58.5868933,34.3375674 58.5868933,33.3536098 L58.5868933,31.7798289" id="body_6_"></path>
                <path d="M3.74258384,16.8964367 C1.3662087,20.3251293 0,24.3491575 0,28.6488042 C0,32.0278854 0.844565381,35.2360833 2.35981503,38.1190515" id="body_5_"></path>
                <path d="M5.86779738,14.2697936 C5.82087708,14.3194049 5.7767168,14.36626 5.73255652,14.4158713" id="body_3_"></path>
            </g>
            <path d="M35.8084681,83.9643816 C32.2176853,83.9643816 29.3031067,81.0566078 29.3031067,77.4680565 C29.3031067,75.6159011 30.0814316,73.9428975 31.3261996,72.7604947 L31.4145201,72.6915901 C31.7843625,72.435265 32.2314853,72.2836749 32.7144884,72.2836749 C33.9730564,72.2836749 34.9915029,73.3007067 34.9915029,74.5575265 C34.9915029,75.8143463 33.9730564,76.8313781 32.7144884,76.8313781 C32.3667262,76.8313781 32.0355241,76.7542049 31.7402022,76.6136396" id="pig_tail" stroke="#151440" stroke-width="1.65371025" stroke-linecap="round" stroke-linejoin="round"></path>
            <path d="M76.4580071,59.2827562 L74.5066747,62.5322968" id="line_ear" stroke="#151440" stroke-width="1.65371025" stroke-linecap="round" stroke-linejoin="round"></path>
            <g id="shine" transform="translate(40.385957, 70.282686)" stroke="#151440" stroke-linecap="round" stroke-linejoin="round" stroke-width="1.65371025">
                <path d="M0.139380888,13.695477 C0.13662087,13.800212 0.13662087,13.904947 0.13662087,14.009682" id="Path"></path>
                <path d="M7.47274761,0 C4.0972461,2.55222615 1.65187052,6.0195053 0.647224123,9.95809187" id="Path"></path>
            </g>
            <ellipse id="eye" stroke="#151440" stroke-width="1.65371025" fill="#F2ECE8" fill-rule="nonzero" stroke-linecap="round" stroke-linejoin="round" cx="76.7284888" cy="75.795053" rx="2.76001758" ry="2.75618375"></ellipse>
            <g id="coin_1_" transform="translate(37.536239, 34.727915)">
                <ellipse id="fill_circle_1_" fill="#FEE176" fill-rule="nonzero" cx="14.3520914" cy="14.3321555" rx="14.3520914" ry="14.3321555"></ellipse>
                <path d="M3.73706381,23.9787986 C2.83729808,22.9920848 2.07553322,21.8813428 1.47660941,20.6741343" id="arc_left_1_" stroke="#B7EDAD" stroke-width="1.65371025"></path>
                <path d="M14.3520914,27.0106007 C7.33888676,27.0106007 1.65601055,21.3356184 1.65601055,14.3321555 C1.65601055,7.32869258 7.33888676,1.65371025 14.3520914,1.65371025" id="arc_left" stroke="#B7EDAD" stroke-width="1.65371025" stroke-linecap="round"></path>
                <g id="circle_5_" stroke="#151440" stroke-linecap="round" stroke-width="1.65371025">
                    <path d="M1.92097224,21.4982332 C0.701044466,19.3897527 0,16.9422615 0,14.3321555 C0,6.41639576 6.42532094,0 14.3520914,0 C17.5178316,0 20.4434502,1.02254417 22.8143053,2.75618375" id="circle_8_"></path>
                    <path d="M26.9405316,7.44169611 C28.0638588,9.48678445 28.7041829,11.835053 28.7041829,14.3321555 C28.7041829,22.2479152 22.2788619,28.664311 14.3520914,28.664311 C10.0657841,28.664311 6.21831962,26.7873498 3.58802286,23.8134276" id="circle_7_"></path>
                    <path d="M25.11616,4.85363958 C25.1492802,4.88946996 25.1796404,4.92530035 25.2100006,4.96113074" id="circle_6_"></path>
                </g>
                <path d="M6.34804044,14.3321555 C6.34804044,9.07335689 10.3362659,4.74339223 15.4560985,4.19491166 C15.0945362,4.15632509 14.7246938,4.13427562 14.3520914,4.13427562 C8.71337551,4.13427562 4.14002638,8.70127208 4.14002638,14.3321555 C4.14002638,19.9630389 8.71337551,24.5300353 14.3520914,24.5300353 C14.7246938,24.5300353 15.0945362,24.5079859 15.4560985,24.4693993 C10.3362659,23.9209187 6.34804044,19.5909541 6.34804044,14.3321555 Z" id="Path" fill="#FCBF5A" fill-rule="nonzero"></path>
                <ellipse id="circle_center_2_" stroke="#151440" stroke-width="1.65371025" stroke-linecap="round" cx="14.3520914" cy="14.3321555" rx="10.2120651" ry="10.1978799"></ellipse>
                <path d="M16.5601055,11.3003534 L16.5601055,10.4734982 L12.6960809,10.4734982 C12.392479,10.4734982 12.1440774,10.7215548 12.1440774,11.024735 L12.1440774,13.7809187 C12.1440774,14.0840989 12.392479,14.3321555 12.6960809,14.3321555 L16.008102,14.3321555 C16.3117039,14.3321555 16.5601055,14.580212 16.5601055,14.8833922 L16.5601055,17.639576 C16.5601055,17.9427562 16.3117039,18.1908127 16.008102,18.1908127 L12.1440774,18.1908127 L12.1440774,17.3639576" id="_x24__3_" stroke="#151440" stroke-width="1.65371025" stroke-linecap="round" stroke-linejoin="round"></path>
                <path d="M14.3520914,9.37102473 L14.3520914,19.2932862" id="_x24__2_" stroke="#151440" stroke-width="1.65371025" stroke-linecap="round" stroke-linejoin="round"></path>
            </g>
            <g id="circles_x2C__stars" transform="translate(15.731019, 0.000000)">
                <ellipse id="Oval" stroke="#FFFFFF" stroke-width="1.65371025" cx="13.2491657" cy="40.5159011" rx="2.20801407" ry="2.204947"></ellipse>
                <ellipse id="Oval" stroke="#FFFFFF" stroke-width="1.65371025" cx="78.6615825" cy="49.0600707" rx="2.20801407" ry="2.204947"></ellipse>
                <ellipse id="Oval" stroke="#FFFFFF" stroke-width="1.1024735" cx="86.1136299" cy="70.2826855" rx="1.38000879" ry="1.37809187"></ellipse>
                <path d="M41.6249065,22.3250883 L41.6249065,22.3250883 C41.0425428,22.3250883 40.5733398,21.8537809 40.5733398,21.2749823 L40.5733398,21.2749823 C40.5733398,20.6989399 40.1565772,20.1835336 39.5824935,20.1256537 C38.9256093,20.0595053 38.3653257,20.5776678 38.3653257,21.2226148 L38.3653257,21.2749823 C38.3653257,21.8537809 37.8933627,22.3250883 37.313759,22.3250883 L37.313759,22.3250883 C36.7369154,22.3250883 36.2207921,22.7412721 36.1628317,23.3145583 C36.0965913,23.97053 36.6154746,24.5300353 37.2613187,24.5300353 L37.313759,24.5300353 C37.8961227,24.5300353 38.3653257,25.0013428 38.3653257,25.5801413 L38.3653257,25.5801413 C38.3653257,26.1561837 38.7820884,26.6715901 39.3561721,26.72947 C40.0130562,26.7956184 40.5733398,26.2774558 40.5733398,25.6325088 L40.5733398,25.5801413 C40.5733398,25.0013428 41.0453028,24.5300353 41.6249065,24.5300353 L41.6773468,24.5300353 C42.323191,24.5300353 42.8420743,23.97053 42.7758338,23.3145583 C42.7178735,22.7412721 42.2017502,22.3250883 41.6249065,22.3250883 Z" id="Path" fill="#FFFFFF" fill-rule="nonzero"></path>
                <path d="M4.10246745,61.4628975 L4.10246745,61.4628975 C3.66638467,61.4628975 3.31310242,61.110106 3.31310242,60.674629 L3.31310242,60.674629 C3.31310242,60.2446643 2.99846042,59.8560424 2.57065769,59.8119435 C2.07661454,59.7650883 1.65709187,60.1537102 1.65709187,60.6360424 L1.65709187,60.674629 C1.65709187,61.110106 1.30380962,61.4628975 0.867726843,61.4628975 L0.867726843,61.4628975 C0.4371641,61.4628975 0.0480016203,61.7771025 0.00384133898,62.204311 C-0.0430789599,62.6976678 0.346083519,63.1166078 0.829086597,63.1166078 L0.867726843,63.1166078 C1.30380962,63.1166078 1.65709187,63.4693993 1.65709187,63.9048763 L1.65709187,63.9048763 C1.65709187,64.334841 1.97173388,64.7234629 2.3995366,64.7675618 C2.89357975,64.8171731 3.31310242,64.4285512 3.31310242,63.9462191 L3.31310242,63.9076325 C3.31310242,63.4721555 3.66638467,63.119364 4.10246745,63.119364 L4.1411077,63.119364 C4.62411077,63.119364 5.01327325,62.700424 4.96359294,62.2070671 C4.92219267,61.7771025 4.53303019,61.4628975 4.10246745,61.4628975 Z" id="Path" fill="#FFFFFF" fill-rule="nonzero"></path>
                <path d="M65.6508596,29.4911661 L65.6508596,29.4911661 C65.2147768,29.4911661 64.8614945,29.1383746 64.8614945,28.7028975 L64.8614945,28.7028975 C64.8614945,28.2729329 64.5468525,27.884311 64.1190498,27.840212 C63.6250067,27.7906007 63.205484,28.1792226 63.205484,28.6615548 L63.205484,28.7001413 C63.205484,29.1356184 62.8522017,29.4884099 62.416119,29.4884099 L62.416119,29.4884099 C61.9855562,29.4884099 61.5963937,29.8026148 61.5522335,30.2298233 C61.5025531,30.7231802 61.8917156,31.1421201 62.3747187,31.1421201 L62.4133589,31.1421201 C62.8494417,31.1421201 63.202724,31.4949117 63.202724,31.9303887 L63.202724,31.9303887 C63.202724,32.3603534 63.517366,32.7489753 63.9451687,32.7930742 C64.4392119,32.8426855 64.8587345,32.4540636 64.8587345,31.9717314 L64.8587345,31.9331449 C64.8587345,31.4976678 65.2120168,31.1448763 65.6480996,31.1448763 L65.6894998,31.1448763 C66.1725029,31.1448763 66.5616654,30.7259364 66.5119851,30.2325795 C66.4705848,29.805371 66.0814223,29.4911661 65.6508596,29.4911661 Z" id="Path" fill="#FFFFFF" fill-rule="nonzero"></path>
                <ellipse id="Oval" stroke="#B7EDAD" stroke-width="1.65371025" cx="59.6174611" cy="2.204947" rx="2.20801407" ry="2.204947"></ellipse>
                <path d="M30.5986363,3.62162544 L30.5986363,3.62162544 C30.1625535,3.62162544 29.8092712,3.26883392 29.8092712,2.83335689 L29.8092712,2.83335689 C29.8092712,2.40339223 29.4946292,2.01477032 29.0668265,1.97067138 C28.5727834,1.92106007 28.1532607,2.30968198 28.1532607,2.79201413 L28.1532607,2.83060071 C28.1532607,3.26607774 27.7999784,3.61886926 27.3638956,3.61886926 L27.3638956,3.61886926 C26.9333329,3.61886926 26.5441704,3.9330742 26.5000101,4.36028269 C26.4503298,4.85363958 26.8394923,5.27257951 27.3224954,5.27257951 L27.3611356,5.27257951 C27.7972184,5.27257951 28.1505007,5.62537102 28.1505007,6.06084806 L28.1505007,6.06084806 C28.1505007,6.49081272 28.4651427,6.87943463 28.8929454,6.92353357 C29.3869885,6.97314488 29.8065112,6.58452297 29.8065112,6.10219081 L29.8065112,6.06360424 C29.8065112,5.62812721 30.1597935,5.27533569 30.5958762,5.27533569 L30.6372765,5.27533569 C31.1202796,5.27533569 31.5094421,4.85639576 31.4597617,4.36303887 C31.4183615,3.93583039 31.029199,3.62162544 30.5986363,3.62162544 Z" id="Path" fill="#B7EDAD" fill-rule="nonzero"></path>
                <path d="M86.0611896,11.8515901 L86.0611896,11.8515901 C85.4788259,11.8515901 85.0096229,11.3802827 85.0096229,10.8014841 L85.0096229,10.8014841 C85.0096229,10.2254417 84.5928603,9.71003534 84.0187766,9.65215548 C83.3618924,9.58600707 82.8016088,10.1041696 82.8016088,10.7491166 L82.8016088,10.8014841 C82.8016088,11.3802827 82.3296458,11.8515901 81.7500421,11.8515901 L81.7500421,11.8515901 C81.1731985,11.8515901 80.6570752,12.2677739 80.5991148,12.8410601 C80.5328744,13.4970318 81.0517577,14.0565371 81.6976018,14.0565371 L81.7500421,14.0565371 C82.3324059,14.0565371 82.8016088,14.5278445 82.8016088,15.1066431 L82.8016088,15.1066431 C82.8016088,15.6826855 83.2183715,16.1980919 83.7924552,16.2559717 C84.4493393,16.3221201 85.0096229,15.8039576 85.0096229,15.1590106 L85.0096229,15.1066431 C85.0096229,14.5278445 85.4815859,14.0565371 86.0611896,14.0565371 L86.1136299,14.0565371 C86.7594741,14.0565371 87.2783574,13.4970318 87.2121169,12.8410601 C87.1541566,12.2677739 86.6380333,11.8515901 86.0611896,11.8515901 Z" id="Path" fill="#B7EDAD" fill-rule="nonzero"></path>
            </g>
        </g>
    </g>
</svg>