<?xml version="1.0" encoding="UTF-8"?>
<svg width="126px" height="120px" viewBox="0 0 126 120" version="1.1" xmlns="http://www.w3.org/2000/svg" xmlns:xlink="http://www.w3.org/1999/xlink">
    <!-- Generator: Sketch 57.1 (83088) - https://sketch.com -->
    <title>Donor Management@1x</title>
    <desc>Created with Sketch.</desc>
    <g id="Donor-Management" stroke="none" stroke-width="1" fill="none" fill-rule="evenodd">
        <g id="1077252_male_manager_person_profile_user_icon-copy" transform="translate(1.000000, 2.000000)">
            <g id="circle_back" transform="translate(0.000000, 11.021979)" fill="#89DAF6" fill-rule="nonzero">
                <path d="M109.031735,69.9188693 C108.28101,69.1691873 108.28101,67.9399293 109.031735,67.1902473 L109.031735,67.1902473 C109.782459,66.4405654 111.013427,66.4405654 111.764152,67.1902473 L114.248168,69.6708127 C115.515016,65.0376678 116.19674,60.1592226 116.19674,55.1236749 C116.19674,24.6788693 91.4835428,0 60.9963886,0 C50.5497221,0 40.7820198,2.8995053 32.4550468,7.93229682 L35.9630291,11.4354064 C37.6935601,13.1635336 37.6935601,15.9941343 35.9630291,17.7222615 L35.9630291,17.7222615 C34.2324981,19.4503887 31.39796,19.4503887 29.667429,17.7222615 L25.1492802,13.2103887 C22.8971059,15.1342049 20.8022525,17.2371731 18.8840403,19.4944876 L20.7829324,21.390742 C22.5134634,23.1188693 22.5134634,25.94947 20.7829324,27.6775972 C19.0524014,29.4057244 16.2178633,29.4057244 14.4873323,27.6775972 L13.6289668,26.820424 C8.65541514,35.0944876 5.79603693,44.7769611 5.79603693,55.1264311 C5.79603693,72.2009894 13.5710065,87.4592226 25.7758042,97.5716608 L96.216973,97.5716608 C103.732501,91.3481979 109.561658,83.1678445 112.93716,73.8188693 L109.031735,69.9188693 Z" id="Path"></path>
                <path d="M17.6254723,40.4800707 L17.6254723,40.4800707 C14.9427352,43.1590813 10.5515472,43.1590813 7.86605011,40.4800707 L2.01205282,34.6342049 C-0.670684273,31.9551943 -0.670684273,27.570106 2.01205282,24.8883392 L2.01205282,24.8883392 C4.69478991,22.2093286 9.08597789,22.2093286 11.771475,24.8883392 L17.6254723,30.7342049 C20.3082094,33.4159717 20.3082094,37.8010601 17.6254723,40.4800707 Z" id="Path"></path>
                <path d="M36.0679098,30.3621201 L36.0679098,30.3621201 C34.3373788,32.0902473 31.5028407,32.0902473 29.7723097,30.3621201 L16.5518255,17.16 C14.8212944,15.4318728 14.8212944,12.6012721 16.5518255,10.8731449 L16.5518255,10.8731449 C18.2823565,9.14501767 21.1168945,9.14501767 22.8474256,10.8731449 L36.0679098,24.075265 C37.8012008,25.8061484 37.8012008,28.6339929 36.0679098,30.3621201 Z" id="Path"></path>
                <path d="M14.3244913,8.64890459 L14.3244913,8.64890459 C12.5939602,10.3770318 9.75942218,10.3770318 8.02889115,8.64890459 L7.1567256,7.77795053 C5.42619457,6.04982332 5.42619457,3.21922261 7.1567256,1.49109541 L7.1567256,1.49109541 C8.88725662,-0.237031802 11.7217947,-0.237031802 13.4523257,1.49109541 L14.3244913,2.36204947 C16.0577823,4.09293286 16.0577823,6.92077739 14.3244913,8.64890459 Z" id="Path"></path>
                <path d="M39.2226099,11.9177385 L39.2226099,11.9177385 C38.4718851,12.6674205 37.2409173,12.6674205 36.4901925,11.9177385 L28.6848628,4.12325088 C27.934138,3.3735689 27.934138,2.14431095 28.6848628,1.39462898 L28.6848628,1.39462898 C29.4355875,0.644946996 30.6665554,0.644946996 31.4172802,1.39462898 L39.2226099,9.18911661 C39.9733347,9.93879859 39.9733347,11.1653004 39.2226099,11.9177385 Z" id="Path"></path>
                <path d="M122.702102,71.7792933 L122.702102,71.7792933 C120.971571,73.5074205 118.137033,73.5074205 116.406502,71.7792933 L103.186017,58.5771731 C101.455486,56.8490459 101.455486,54.0184452 103.186017,52.290318 L103.186017,52.290318 C104.916548,50.5621908 107.751086,50.5621908 109.481618,52.290318 L122.702102,65.4924382 C124.432633,67.2205654 124.432633,70.0484099 122.702102,71.7792933 Z" id="Path"></path>
                <path d="M115.647497,86.2327208 L115.647497,86.2327208 C112.96476,88.9117314 108.573572,88.9117314 105.888075,86.2327208 L100.034077,80.3868551 C97.3513402,77.7078445 97.3513402,73.3227562 100.034077,70.6409894 L100.034077,70.6409894 C102.716814,67.9619788 107.108002,67.9619788 109.793499,70.6409894 L115.647497,76.4868551 C118.332994,79.1686219 118.332994,83.5537102 115.647497,86.2327208 Z" id="Path"></path>
            </g>
            <g id="bottom_lines" transform="translate(17.388111, 109.007067)" stroke="#151440" stroke-linecap="round" stroke-width="1.65904043">
                <path d="M14.6280932,0.137809187 L0,0.137809187" id="Path"></path>
                <path d="M81.9725222,0.137809187 L17.9401143,0.137809187" id="Path"></path>
                <path d="M87.7685592,0.137809187 L85.2845433,0.137809187" id="Path"></path>
                <path d="M14.904095,3.99646643 L30.3601934,3.99646643" id="Path"></path>
                <path d="M33.6722145,3.99646643 L33.6722145,3.99646643" id="Path"></path>
                <path d="M36.9842356,3.99646643 L53.2683394,3.99646643" id="Path"></path>
                <path d="M53.2683394,7.85512367 L69.2764414,7.85512367" id="Path"></path>
                <path d="M73.140466,7.85512367 L80.3165117,7.85512367" id="Path"></path>
                <path d="M69.2764414,7.85512367 C69.2764414,6.78848057 70.1403269,5.92579505 71.2084537,5.92579505 C72.2765805,5.92579505 73.140466,6.78848057 73.140466,7.85512367" id="Path"></path>
                <path d="M49.9563183,7.85512367 L49.4043148,7.85512367" id="Path"></path>
            </g>
            <path d="M66.240422,85.4416961 L72.5884625,85.4416961 C77.1618116,85.4416961 80.8685152,89.1432509 80.8685152,93.7102473 L80.8685152,100.876325 C80.8685152,105.443322 77.1618116,109.144876 72.5884625,109.144876 L51.0603253,109.144876 C46.4869762,109.144876 42.7802726,105.443322 42.7802726,100.876325 L42.7802726,93.7102473 C42.7802726,89.1432509 46.4869762,85.4416961 51.0603253,85.4416961 L57.4083657,85.4416961 L66.240422,85.4416961 Z" id="body_3_" fill="#F46B85" fill-rule="nonzero"></path>
            <g id="shadow_2_" transform="translate(47.748304, 100.462898)">
                <path d="M0,7.02826855 L0,5.3745583 L30.9121969,5.3745583 L30.9121969,5.3745583 C30.9121969,7.20190813 29.4300675,8.6819788 27.6001758,8.6819788 L1.65601055,8.6819788 C0.74244473,8.6819788 0,7.94056537 0,7.02826855 Z" id="Path" fill="#C1526D" fill-rule="nonzero"></path>
                <path d="M28.4281811,5.3745583 L28.4281811,5.3745583" id="Path" stroke="#C1526D" stroke-width="1.65904043" stroke-linecap="round"></path>
                <path d="M30.0841917,5.3745583 L30.0841917,5.3745583" id="Path" stroke="#F46B85" stroke-width="1.65904043" stroke-linecap="round"></path>
                <path d="M25.11616,7.30388693 L25.11616,3.44522968" id="Path" stroke="#C1526D" stroke-width="1.65904043" stroke-linecap="round"></path>
                <path d="M26.7721706,5.3745583 L26.7721706,5.3745583" id="Path" stroke="#F46B85" stroke-width="1.65904043" stroke-linecap="round"></path>
                <path d="M21.8041389,7.30388693 L21.8041389,4.82332155" id="Path" stroke="#C1526D" stroke-width="1.65904043" stroke-linecap="round"></path>
                <path d="M23.4601495,5.3745583 L23.4601495,5.3745583" id="Path" stroke="#F46B85" stroke-width="1.65904043" stroke-linecap="round"></path>
                <path d="M18.4921178,7.30388693 L18.4921178,2.61837456" id="Path" stroke="#C1526D" stroke-width="1.65904043" stroke-linecap="round"></path>
                <path d="M20.1481284,5.3745583 L20.1481284,5.3745583" id="Path" stroke="#F46B85" stroke-width="1.65904043" stroke-linecap="round"></path>
                <path d="M15.1800967,7.30388693 L15.1800967,5.09893993" id="Path" stroke="#C1526D" stroke-width="1.65904043" stroke-linecap="round"></path>
                <path d="M16.8361073,5.3745583 L16.8361073,5.3745583" id="Path" stroke="#F46B85" stroke-width="1.65904043" stroke-linecap="round"></path>
                <path d="M11.8680756,7.30388693 L11.8680756,3.44522968" id="Path" stroke="#C1526D" stroke-width="1.65904043" stroke-linecap="round"></path>
                <path d="M13.5240862,5.3745583 L13.5240862,5.3745583" id="Path" stroke="#F46B85" stroke-width="1.65904043" stroke-linecap="round"></path>
                <path d="M8.55605451,7.30388693 L8.55605451,2.34275618" id="Path" stroke="#C1526D" stroke-width="1.65904043" stroke-linecap="round"></path>
                <path d="M10.2120651,5.3745583 L10.2120651,5.3745583" id="Path" stroke="#F46B85" stroke-width="1.65904043" stroke-linecap="round"></path>
                <path d="M5.24403341,7.30388693 L5.24403341,5.65017668" id="Path" stroke="#C1526D" stroke-width="1.65904043" stroke-linecap="round"></path>
                <path d="M6.90004396,5.3745583 L6.90004396,5.3745583" id="Path" stroke="#F46B85" stroke-width="1.65904043" stroke-linecap="round"></path>
                <path d="M1.93201231,7.30388693 L1.93201231,4.82332155" id="Path" stroke="#C1526D" stroke-width="1.65904043" stroke-linecap="round"></path>
                <path d="M3.58802286,5.3745583 L3.58802286,5.3745583" id="Path" stroke="#F46B85" stroke-width="1.65904043" stroke-linecap="round"></path>
                <path d="M0.276001758,5.3745583 L0.276001758,5.3745583" id="Path" stroke="#F46B85" stroke-width="1.65904043" stroke-linecap="round"></path>
                <path d="M18.4921178,0.137809187 L18.4921178,0.137809187" id="Path" stroke="#C1526D" stroke-width="1.65904043" stroke-linecap="round"></path>
                <path d="M5.24403341,3.16961131 L5.24403341,3.16961131" id="Path" stroke="#C1526D" stroke-width="1.65904043" stroke-linecap="round"></path>
            </g>
            <path d="M52.4403341,85.4416961 L52.4403341,85.4416961 C48.0187859,85.4416961 44.4362831,89.0192226 44.4362831,93.434629 L44.4362831,100.876325 C44.4362831,105.443322 48.1429867,109.144876 52.7163359,109.144876 L52.9923376,109.144876" id="border_left" stroke="#89DAF6" stroke-width="1.65904043" stroke-linecap="round" stroke-linejoin="round"></path>
            <path d="M42.7802726,93.9858657 L42.7802726,93.7102473 C42.7802726,89.1432509 46.4869762,85.4416961 51.0603253,85.4416961 L51.3363271,85.4416961" id="border_left_6_" stroke="#89DAF6" stroke-width="1.65904043" stroke-linecap="round" stroke-linejoin="round"></path>
            <g id="body" transform="translate(42.780273, 85.441696)" stroke="#151440" stroke-linecap="round" stroke-linejoin="round" stroke-width="1.65904043">
                <path d="M5.52003517,0.47130742 C6.38392067,0.165371025 7.31128658,0 8.28005275,0 L14.6280932,0" id="body_4_"></path>
                <path d="M2.48401583,2.36480565 C2.53921618,2.31243816 2.59441653,2.25731449 2.64961688,2.204947" id="body_6_"></path>
                <path d="M38.0882427,15.1590106 L38.0882427,15.434629 C38.0882427,20.0016254 34.381539,23.7031802 29.8081899,23.7031802 L8.28005275,23.7031802 C3.70670362,23.7031802 0,20.0016254 0,15.434629 L0,8.26855124 C0,7.09166078 0.245641565,5.97265018 0.690004396,4.96113074" id="body_5_"></path>
                <path d="M23.4601495,0 L29.8081899,0 C34.381539,0 38.0882427,3.70155477 38.0882427,8.26855124 L38.0882427,11.8515901" id="body_1_"></path>
            </g>
            <g id="tie" transform="translate(58.217693, 89.225936)" fill-rule="nonzero" stroke="#151440" stroke-linecap="round" stroke-linejoin="round" stroke-width="1.65904043">
                <path d="M6.77520082,13.9269965 L3.67018104,17.0277032 L0.56516126,13.9269965 C0.0959582707,13.4584452 -0.100002978,12.780424 0.0490379717,12.1327208 L1.7022885,4.93908127 C1.91204984,4.02402827 2.72901505,3.3735689 3.67018104,3.3735689 L3.67018104,3.3735689 C4.61134704,3.3735689 5.42831224,4.02402827 5.63807358,4.93908127 L7.29132411,12.1327208 C7.44036506,12.780424 7.24440381,13.4584452 6.77520082,13.9269965 Z" id="Path" fill="#8E787F"></path>
                <path d="M3.67018104,0 L3.67018104,0 C2.78145538,0 2.06109079,0.719363958 2.06109079,1.60685512 L2.06109079,1.76671378 C2.06109079,2.65420495 2.78145538,3.3735689 3.67018104,3.3735689 L3.67018104,3.3735689 C4.5589067,3.3735689 5.27927129,2.65420495 5.27927129,1.76671378 L5.27927129,1.60685512 C5.27651128,0.719363958 4.55614669,0 3.67018104,0 Z" id="Path" fill="#6E5C6D"></path>
            </g>
            <path d="M77.5564941,54.434629 L77.5564941,65.3215548 C77.5564941,73.9980212 70.5129292,81.0318021 61.8243939,81.0318021 L61.8243939,81.0318021 C53.1358585,81.0318021 46.0922937,73.9980212 46.0922937,65.3215548 L46.0922937,54.434629 C46.0922937,48.5749823 50.850564,43.8233216 56.7183614,43.8233216 L66.9304264,43.8233216 C72.7982238,43.8233216 77.5564941,48.5749823 77.5564941,54.434629 Z" id="fill_head_2_" fill="#F2ECE8" fill-rule="nonzero"></path>
            <path d="M47.7483042,53.745583 L47.7483042,66.975265 C47.7483042,74.7394346 54.0494243,81.0318021 61.8243939,81.0318021 L61.8243939,81.0318021" id="border_left_head" stroke="#89DAF6" stroke-width="1.65904043" stroke-linecap="round" stroke-linejoin="round"></path>
            <path d="M45.3332888,54.1838163 C45.3332888,54.1838163 43.2494755,47.6351237 50.7153231,43.2334982 C54.8608695,40.7887633 65.141935,40.4442403 70.6619702,39.0799293 C76.4828473,37.6412014 77.4433334,35.2488339 77.4433334,35.2488339 C77.4433334,35.2488339 79.6679076,40.9072792 79.8721489,45.5238869 C80.0736301,50.0715901 78.2520185,53.5774558 78.2520185,53.5774558 C78.2520185,53.5774558 77.5012938,51.7942049 76.6650084,50.4050883 C76.0081242,49.3136396 75.2215192,48.5419081 75.2215192,48.5419081 C75.2215192,48.5419081 73.9657112,51.2264311 71.3795748,52.5659364 C68.5257166,54.0404947 64.3166898,54.1810601 64.3166898,54.1810601 C64.3166898,54.1810601 64.7224123,53.3156184 64.9266536,52.6596466 C65.1281349,52.0091873 65.1253749,51.5626855 65.1253749,51.5626855 C65.1253749,51.5626855 62.5861587,52.7037456 59.326578,53.1364664 C56.348519,53.5306007 52.9730175,52.9876325 50.1798797,53.1530035 C47.4943826,53.3128622 45.3332888,54.1838163 45.3332888,54.1838163 Z" id="fill_hair_1_" fill="#FEE176"></path>
            <path d="M46.9230589,54.1810601 C46.9230589,54.1810601 44.7895654,47.4780212 52.432054,42.9716608 C53.5995415,42.2826148 55.244512,41.7561837 57.132364,41.3262191" id="border_left_hair" stroke="#89DAF6" stroke-width="1.65904043" stroke-linecap="round" stroke-linejoin="round"></path>
            <g id="hair_1_" transform="translate(45.065854, 35.248834)" stroke="#151440" stroke-linecap="round" stroke-linejoin="round" stroke-width="1.65904043">
                <path d="M20.3465625,4.76819788 C22.2978949,4.48982332 24.1167465,4.19766784 25.5961159,3.83109541 C31.416993,2.39236749 32.3774791,0 32.3774791,0 C32.3774791,0 34.6020533,5.65844523 34.8062946,10.275053 C35.0077759,14.8227562 33.1861643,18.3286219 33.1861643,18.3286219 C33.1861643,18.3286219 32.4354395,16.545371 31.5991542,15.1562544 C30.94227,14.0648057 30.155665,13.2930742 30.155665,13.2930742 C30.155665,13.2930742 28.899857,15.9775972 26.3137205,17.3171025 C23.4598623,18.7916608 19.2508355,18.9322261 19.2508355,18.9322261 C19.2508355,18.9322261 19.6565581,18.0667845 19.8607994,17.4108127 C20.0622807,16.7603534 20.0595207,16.3138516 20.0595207,16.3138516 C20.0595207,16.3138516 17.5203045,17.4549117 14.2607237,17.8876325 C11.2826647,18.2817668 7.90716324,17.7387986 5.11402544,17.9041696 C2.42852833,18.0612721 0.267434565,18.9322261 0.267434565,18.9322261 C0.267434565,18.9322261 -1.81637871,12.3835336 5.64946885,7.98190813 C7.31099944,7.00070671 9.96061632,6.3585159 12.894515,5.85137809 M16.4825379,5.30565371 C16.5736185,5.29187279 16.667459,5.28084806 16.7585396,5.26706714" id="Shape"></path>
                <path d="M9.03049039,11.5236042 C12.0444296,10.1868551 18.1551085,9.93328622 21.5416501,9.09540636 C21.8535321,9.01823322 22.146094,8.9355477 22.4165757,8.85286219 M6.16559214,13.7065018 C6.21251244,13.6486219 6.26219276,13.5934982 6.31187307,13.5356184" id="Shape"></path>
            </g>
            <path d="M66.240422,80.4805654 L66.240422,84.8904594 C66.240422,87.3269258 64.2642494,89.3003534 61.8243939,89.3003534 L61.8243939,89.3003534 C59.3845383,89.3003534 57.4083657,87.3269258 57.4083657,84.8904594 L57.4083657,80.4805654 L66.240422,80.4805654 Z" id="fill_neck_2_" fill="#F2ECE8" fill-rule="nonzero"></path>
            <path d="M61.8243939,81.0318021 L61.8243939,81.0318021 C60.0883428,81.0318021 58.4212922,80.7479152 56.8591222,80.2297527 C57.5601667,82.2968905 59.5142592,83.7879859 61.8243939,83.7879859 C64.1345286,83.7879859 66.088621,82.2968905 66.7896655,80.2297527 C65.2274956,80.7479152 63.5604449,81.0318021 61.8243939,81.0318021 Z" id="shadow_3_" fill="#B9BDC9" fill-rule="nonzero"></path>
            <path d="M66.240422,80.4805654 L66.240422,84.8904594 C66.240422,87.3269258 64.2642494,89.3003534 61.8243939,89.3003534 L61.8243939,89.3003534 C59.3845383,89.3003534 57.4083657,87.3269258 57.4083657,84.8904594 L57.4083657,80.4805654" id="neck_1_" stroke="#151440" stroke-width="1.65904043" stroke-linecap="round" stroke-linejoin="round"></path>
            <g id="head" transform="translate(46.092294, 52.091873)" stroke="#151440" stroke-linecap="round" stroke-linejoin="round" stroke-width="1.65904043">
                <path d="M25.11616,25.8392226 C22.4969033,27.7878445 19.2483626,28.9399293 15.7321002,28.9399293 L15.7321002,28.9399293 C7.04356487,28.9399293 0,21.9061484 0,13.229682 L0,1.92932862" id="head_3_"></path>
                <path d="M27.8761776,23.2180919 C27.8182172,23.2897527 27.7602569,23.3586572 27.6995365,23.4275618" id="head_1_"></path>
                <path d="M31.4642005,0 L31.4642005,13.229682 C31.4642005,15.7543463 30.8680367,18.1384452 29.8081899,20.2524382" id="head_2_"></path>
            </g>
            <g id="ears" transform="translate(43.056274, 56.777385)" fill="#B9BDC9" fill-rule="nonzero" stroke="#151440" stroke-linecap="round" stroke-linejoin="round" stroke-width="1.65904043">
                <path d="M3.03601934,7.44169611 L3.03601934,7.44169611 C1.35792865,7.44169611 0,6.08565371 0,4.40989399 L0,2.204947 C0,0.986713781 0.988086295,0 2.20801407,0 L3.03601934,0 L3.03601934,7.44169611 Z" id="Path"></path>
                <path d="M34.5002198,7.44169611 L34.5002198,7.44169611 C36.1783105,7.44169611 37.5362391,6.08565371 37.5362391,4.40989399 L37.5362391,2.204947 C37.5362391,0.986713781 36.5481528,0 35.3282251,0 L34.5002198,0 L34.5002198,7.44169611 Z" id="Path"></path>
            </g>
            <g id="mouth" transform="translate(59.340378, 73.314488)" stroke="#151440" stroke-linecap="round" stroke-linejoin="round" stroke-width="1.65904043">
                <path d="M2.48401583,3.30742049 L2.48401583,3.30742049" id="Path"></path>
                <path d="M0,0 L0,0 C0.516123288,0.686289753 1.41864904,1.1024735 2.39017523,1.1024735 L2.57785642,1.1024735 C3.54938261,1.1024735 4.45190836,0.686289753 4.96803165,0 L4.96803165,0" id="Path"></path>
            </g>
            <g id="nose" transform="translate(60.720387, 64.494700)" stroke="#151440" stroke-linecap="round" stroke-linejoin="round" stroke-width="1.65904043">
                <path d="M1.38000879,4.13427562 C0.618243939,4.13427562 0,3.51689046 0,2.75618375 C0,1.99547703 0.618243939,1.37809187 1.38000879,1.37809187" id="Path"></path>
                <path d="M1.38000879,1.37809187 L1.38000879,0" id="Path"></path>
            </g>
            <g id="eyes" transform="translate(54.372346, 60.911661)" stroke="#151440" stroke-linecap="round" stroke-linejoin="round" stroke-width="1.65904043">
                <ellipse id="Oval" cx="0.552003517" cy="0.551236749" rx="1" ry="1"></ellipse>
                <ellipse id="Oval" cx="14.3520914" cy="0.551236749" rx="1" ry="1"></ellipse>
            </g>
            <g id="eyebrows" transform="translate(53.268339, 58.155477)" stroke="#151440" stroke-linecap="round" stroke-linejoin="round" stroke-width="1.65904043">
                <path d="M0,1.04464286 C0.416762655,0.4021875 1.0046464,0 1.65601055,0 C2.3073747,0 2.89525845,0.4021875 3.3120211,1.04464286" id="Path"></path>
                <path d="M13.8000879,1.04464286 C14.2168506,0.4021875 14.8047343,0 15.4560985,0 C16.1074626,0 16.6953464,0.4021875 17.112109,1.04464286" id="Path"></path>
            </g>
            <g id="circles_x2C__stars" transform="translate(22.906623, 0.000000)">
                <ellipse id="Oval" stroke="#FFFFFF" stroke-width="2.21205391" cx="28.9817075" cy="23.1519435" rx="2.76001758" ry="2.75618375"></ellipse>
                <ellipse id="Oval" stroke="#FFFFFF" stroke-width="1.65904043" cx="5.24555629" cy="48.5088339" rx="2.20801407" ry="2.204947"></ellipse>
                <ellipse id="Oval" stroke="#FFFFFF" stroke-width="1.65904043" cx="70.1059695" cy="73.0388693" rx="2.20801407" ry="2.204947"></ellipse>
                <path d="M60.9454711,26.7349823 L60.9454711,26.7349823 C60.3631074,26.7349823 59.8939045,26.2636749 59.8939045,25.6848763 L59.8939045,25.6848763 C59.8939045,25.1088339 59.4771418,24.5934276 58.9030581,24.5355477 C58.246174,24.4693993 57.6858904,24.9875618 57.6858904,25.6325088 L57.6858904,25.6848763 C57.6858904,26.2664311 57.2139274,26.7349823 56.6343237,26.7349823 L56.6343237,26.7349823 C56.05748,26.7349823 55.5413567,27.1511661 55.4833964,27.7244523 C55.4171559,28.380424 55.9360392,28.9399293 56.5818833,28.9399293 L56.6343237,28.9399293 C57.2166874,28.9399293 57.6858904,29.4112367 57.6858904,29.9900353 L57.6858904,29.9900353 C57.6858904,30.5660777 58.102653,31.0814841 58.6767367,31.139364 C59.3336209,31.2055124 59.8939045,30.6873498 59.8939045,30.0424028 L59.8939045,29.9900353 C59.8939045,29.4112367 60.3658675,28.9399293 60.9454711,28.9399293 L60.9979115,28.9399293 C61.6437556,28.9399293 62.1626389,28.380424 62.0963985,27.7244523 C62.0384381,27.1511661 61.5223148,26.7349823 60.9454711,26.7349823 Z" id="Path" fill="#FFFFFF" fill-rule="nonzero"></path>
                <path d="M4.10290901,69.4558304 L4.10290901,69.4558304 C3.66682623,69.4558304 3.31354398,69.1030389 3.31354398,68.6675618 L3.31354398,68.6675618 C3.31354398,68.2375972 2.99890197,67.8489753 2.57109925,67.8048763 C2.0770561,67.755265 1.65753343,68.1438869 1.65753343,68.6262191 L1.65753343,68.6648057 C1.65753343,69.1002827 1.30425118,69.4530742 0.868168399,69.4530742 L0.868168399,69.4530742 C0.437605656,69.4530742 0.0484431765,69.7672792 0.00428289518,70.1944876 C-0.0453974213,70.6878445 0.343765058,71.1067845 0.826768135,71.1067845 L0.865408381,71.1067845 C1.30149116,71.1067845 1.65477341,71.459576 1.65477341,71.895053 L1.65477341,71.895053 C1.65477341,72.3250177 1.96941541,72.7136396 2.39721814,72.7577385 C2.89126129,72.8073498 3.31078396,72.4187279 3.31078396,71.9363958 L3.31078396,71.8978092 C3.31078396,71.4623322 3.66406621,71.1095406 4.10014899,71.1095406 L4.14154925,71.1095406 C4.62455233,71.1095406 5.01371481,70.6906007 4.96403449,70.1972438 C4.92263423,69.7700353 4.53347175,69.4558304 4.10290901,69.4558304 Z" id="Path" fill="#FFFFFF" fill-rule="nonzero"></path>
                <path d="M78.0713803,49.0600707 L78.0713803,49.0600707 C77.6352975,49.0600707 77.2820152,48.7072792 77.2820152,48.2718021 L77.2820152,48.2718021 C77.2820152,47.8418375 76.9673732,47.4532155 76.5395705,47.4091166 C76.0455274,47.3595053 75.6260047,47.7481272 75.6260047,48.2304594 L75.6260047,48.2690459 C75.6260047,48.704523 75.2727224,49.0573145 74.8366396,49.0573145 L74.8366396,49.0573145 C74.4060769,49.0573145 74.0169144,49.3715194 73.9727541,49.7987279 C73.9230738,50.2920848 74.3122363,50.7110247 74.7952394,50.7110247 L74.8338796,50.7110247 C75.2699624,50.7110247 75.6232447,51.0638163 75.6232447,51.4992933 L75.6232447,51.4992933 C75.6232447,51.929258 75.9378867,52.3178799 76.3656894,52.3619788 C76.8597325,52.4115901 77.2792552,52.0229682 77.2792552,51.540636 L77.2792552,51.5020495 C77.2792552,51.0665724 77.6325375,50.7137809 78.0686202,50.7137809 L78.1100205,50.7137809 C78.5930236,50.7137809 78.9821861,50.294841 78.9325057,49.8014841 C78.8911055,49.3742756 78.501943,49.0600707 78.0713803,49.0600707 Z" id="Path" fill="#FFFFFF" fill-rule="nonzero"></path>
                <ellipse id="Oval" stroke="#89DAF6" stroke-width="1.65904043" cx="52.441857" cy="2.204947" rx="2.20801407" ry="2.204947"></ellipse>
                <path d="M23.4230321,3.62162544 L23.4230321,3.62162544 C22.9869493,3.62162544 22.6336671,3.26883392 22.6336671,2.83335689 L22.6336671,2.83335689 C22.6336671,2.40339223 22.3190251,2.01477032 21.8912223,1.97067138 C21.3971792,1.92106007 20.9776565,2.30968198 20.9776565,2.79201413 L20.9776565,2.83060071 C20.9776565,3.26607774 20.6243743,3.61886926 20.1882915,3.61886926 L20.1882915,3.61886926 C19.7577287,3.61886926 19.3685663,3.9330742 19.324406,4.36028269 C19.2747257,4.85363958 19.6638881,5.27257951 20.1468912,5.27257951 L20.1855315,5.27257951 C20.6216142,5.27257951 20.9748965,5.62537102 20.9748965,6.06084806 L20.9748965,6.06084806 C20.9748965,6.49081272 21.2895385,6.87943463 21.7173412,6.92353357 C22.2113844,6.97314488 22.630907,6.58452297 22.630907,6.10219081 L22.630907,6.06360424 C22.630907,5.62812721 22.9841893,5.27533569 23.4202721,5.27533569 L23.4616723,5.27533569 C23.9446754,5.27533569 24.3338379,4.85639576 24.2841576,4.36303887 C24.2427573,3.93583039 23.8535948,3.62162544 23.4230321,3.62162544 Z" id="Path" fill="#89DAF6" fill-rule="nonzero"></path>
                <path d="M78.8855854,11.8515901 L78.8855854,11.8515901 C78.3032217,11.8515901 77.8340187,11.3802827 77.8340187,10.8014841 L77.8340187,10.8014841 C77.8340187,10.2254417 77.4172561,9.71003534 76.8431724,9.65215548 C76.1862882,9.58600707 75.6260047,10.1041696 75.6260047,10.7491166 L75.6260047,10.8014841 C75.6260047,11.3802827 75.1540417,11.8515901 74.574438,11.8515901 L74.574438,11.8515901 C73.9975943,11.8515901 73.481471,12.2677739 73.4235106,12.8410601 C73.3572702,13.4970318 73.8761535,14.0565371 74.5219976,14.0565371 L74.574438,14.0565371 C75.1568017,14.0565371 75.6260047,14.5278445 75.6260047,15.1066431 L75.6260047,15.1066431 C75.6260047,15.6826855 76.0427673,16.1980919 76.616851,16.2559717 C77.2737352,16.3221201 77.8340187,15.8039576 77.8340187,15.1590106 L77.8340187,15.1066431 C77.8340187,14.5278445 78.3059818,14.0565371 78.8855854,14.0565371 L78.9380258,14.0565371 C79.5838699,14.0565371 80.1027532,13.4970318 80.0365128,12.8410601 C79.9785524,12.2677739 79.4624291,11.8515901 78.8855854,11.8515901 Z" id="Path" fill="#89DAF6" fill-rule="nonzero"></path>
            </g>
        </g>
    </g>
</svg>