<?xml version="1.0" encoding="UTF-8"?>
<svg width="24px" height="17px" viewBox="0 0 24 17" version="1.1" xmlns="http://www.w3.org/2000/svg" xmlns:xlink="http://www.w3.org/1999/xlink">
    <!-- Generator: Sketch 57.1 (83088) - https://sketch.com -->
    <title>Email@1x</title>
    <desc>Created with Sketch.</desc>
    <g id="Email" stroke="none" stroke-width="1" fill="none" fill-rule="evenodd">
        <path d="M20.6521875,1 L3.3485,1 C2.0539375,1 1,1.98990478 1,3.20529889 L1,4.48020631 L1,4.83662493 L1,13.7953624 C1,15.0107565 2.0539375,16 3.3485,16 L20.6521875,16 C21.9474375,16 23,15.0107565 23,13.7953624 L23,4.83662493 L23,4.47954505 L23,3.20529889 C23,1.98990478 21.9474375,1 20.6521875,1 Z M2.2945625,3.20529889 C2.2945625,2.6756304 2.7675625,2.24448951 3.3485,2.24448951 L20.6521875,2.24448951 C21.2338125,2.24448951 21.706125,2.6756304 21.706125,3.22844296 L21.706125,4.1429642 L12.0006875,9.91443308 L2.2945625,4.14230294 L2.2945625,3.20529889 Z M21.706125,13.7953624 C21.706125,14.3250309 21.233125,14.7561718 20.6521875,14.7561718 L3.3485,14.7561718 C2.766875,14.7561718 2.2945625,14.3250309 2.2945625,13.7953624 L2.2945625,5.60633045 L12.0006875,11.3777993 L21.706125,5.60699171 L21.706125,13.7953624 Z" id="Shape-Copy" fill="#9DAEBD" fill-rule="nonzero"></path>
    </g>
</svg>