<?xml version="1.0" encoding="UTF-8"?>
<svg width="33px" height="33px" viewBox="0 0 33 33" version="1.1" xmlns="http://www.w3.org/2000/svg" xmlns:xlink="http://www.w3.org/1999/xlink">
    <!-- Generator: Sketch 57.1 (83088) - https://sketch.com -->
    <title>FAQ@1x</title>
    <desc>Created with Sketch.</desc>
    <g id="FAQ" stroke="none" stroke-width="1" fill="none" fill-rule="evenodd">
        <g id="372890_faq_full_question_round_icon-copy" transform="translate(4.000000, 5.000000)" fill="#B96D1B" fill-rule="nonzero">
            <path d="M12.9986087,0 C6.3711087,0 0.998608696,5.3725 0.998608696,12 C0.998608696,18.6275 6.3711087,24 12.9986087,24 C19.6261087,24 24.9986087,18.6275 24.9986087,12 C24.9986087,5.3725 19.6261087,0 12.9986087,0 Z M13.3516087,18.28 C13.1261087,18.523 12.8061087,18.6445 12.3896087,18.6445 C11.9736087,18.6445 11.6541087,18.526 11.4316087,18.2885 C11.2091087,18.051 11.0976087,17.7185 11.0976087,17.291 C11.0976087,16.406 11.5281087,15.964 12.3896087,15.964 C12.8116087,15.964 13.1336087,16.0795 13.3566087,16.311 C13.5796087,16.5425 13.6906087,16.869 13.6906087,17.291 C13.6906087,17.707 13.5771087,18.0365 13.3516087,18.28 Z M16.4856087,9.7015 C16.3566087,10.0445 16.1616087,10.371 15.9006087,10.6815 C15.6396087,10.992 15.1906087,11.3965 14.5521087,11.8945 C14.0071087,12.322 13.6421087,12.6765 13.4576087,12.958 C13.3016087,13.1955 13.2161087,13.506 13.1921087,13.8815 C13.1906087,13.8895 13.1881087,13.892 13.1866087,13.9 C13.0816087,14.4915 12.3946087,14.4875004 12.3946087,14.4875004 L12.0336087,14.4875004 C12.0336087,14.4875004 11.4361087,14.3935 11.4586087,13.925 C11.4586087,13.2805 11.5756087,12.7445 11.8101087,12.3165 C12.0446087,11.8885 12.4551087,11.4465 13.0406087,10.9895 C13.7381087,10.4385 14.1871087,10.011 14.3891087,9.7065 C14.5911087,9.402 14.6926087,9.0385 14.6926087,8.6165 C14.6926087,8.1245 14.5286087,7.7465 14.2006087,7.4825 C13.8726087,7.2185 13.4006087,7.087 12.7856087,7.087 C12.2286087,7.087 11.7131087,7.166 11.2386087,7.3245 C10.9796087,7.411 10.7251087,7.509 10.4726087,7.6145 C10.4671087,7.6165 10.4651087,7.6155 10.4591087,7.618 C9.8761087,7.8435 9.6056087,7.385 9.6056087,7.385 L9.3766087,6.9055 C9.3756087,6.9025 9.1186087,6.317 9.6916087,6.0595 C10.7131087,5.5925 11.7936087,5.3565 12.9346087,5.3565 C14.0826087,5.3565 14.9941087,5.638 15.6676087,6.2005 C16.3411087,6.763 16.6781116,7.5395 16.6781116,8.5295 C16.6786087,8.968 16.6141087,9.359 16.4856087,9.7015 Z" id="Shape"></path>
        </g>
    </g>
</svg>