<?xml version="1.0" encoding="UTF-8"?>
<svg width="21px" height="22px" viewBox="0 0 21 22" version="1.1" xmlns="http://www.w3.org/2000/svg" xmlns:xlink="http://www.w3.org/1999/xlink">
    <!-- Generator: Sketch 57.1 (83088) - https://sketch.com -->
    <title>Fiilter@1x</title>
    <desc>Created with Sketch.</desc>
    <g id="Fiilter" stroke="none" stroke-width="1" fill="none" fill-rule="evenodd">
        <g id="iconfinder_418_2117519-copy" transform="translate(1.000000, 1.000000)" fill="#6C7A86" fill-rule="nonzero">
            <path d="M18.1999989,0.719999957 C17.9599989,0.279999983 17.519999,0 17.039999,0 L1.35999992,0 C0.879999948,0 0.439999974,0.279999983 0.199999988,0.719999957 C-1.38777878e-17,1.15999993 0.0399999976,1.6799999 0.319999981,2.07999988 L6.31999962,10 C6.39999962,10.0799994 6.43999962,10.1999994 6.43999962,10.3199994 L6.43999962,18 C6.43999962,18.6799989 6.99999958,19.1999989 7.63999954,19.1999989 C7.79999954,19.1999989 7.95999953,19.1599989 8.11999952,19.0799989 L11.1999993,17.7199989 C11.6399993,17.519999 11.9199993,17.079999 11.9199993,16.599999 L11.9199993,10.2799994 C11.9199993,10.1599994 11.9599993,10.0799994 12.0399993,9.95999941 L18.0399989,2.03999988 C18.3599989,1.6799999 18.3999989,1.15999993 18.1999989,0.719999957 Z M17.439999,1.5999999 L11.4399993,9.51999943 C11.2799993,9.75999942 11.1599993,10.0399994 11.1599993,10.3199994 L11.1599993,16.639999 C11.1599993,16.8 11.0799993,16.959999 10.9199993,16.999999 L7.83999953,18.3599989 C7.59999955,18.4799989 7.27999957,18.3199989 7.27999957,17.9999989 L7.27999957,10.2799994 C7.27999957,9.9999994 7.19999957,9.71999942 6.99999958,9.47999943 L0.959999943,1.5999999 C0.83999995,1.43999991 0.83999995,1.23999993 0.919999945,1.07999994 C0.99999994,0.919999945 1.15999993,0.799999952 1.35999992,0.799999952 L17.039999,0.799999952 C17.239999,0.799999952 17.399999,0.919999945 17.479999,1.07999994 C17.559999,1.23999993 17.559999,1.43999991 17.439999,1.5999999 Z" id="Shape"></path>
        </g>
    </g>
</svg>