<?xml version="1.0" encoding="UTF-8"?>
<svg width="22px" height="22px" viewBox="0 0 22 22" version="1.1" xmlns="http://www.w3.org/2000/svg" xmlns:xlink="http://www.w3.org/1999/xlink">
    <!-- Generator: Sketch 57.1 (83088) - https://sketch.com -->
    <title>fraud@1x</title>
    <desc>Created with Sketch.</desc>
    <g id="fraud" stroke="none" stroke-width="1" fill="none" fill-rule="evenodd">
        <path d="M11,1 C5.4775,1 1,5.4775 1,11 C1,16.5225 5.4775,21 11,21 C16.5225,21 21,16.5225 21,11 C21,5.4775 16.5225,1 11,1 Z M11,3.5 C12.62,3.5 14.115,4.01875 15.34125,4.89125 L4.8925,15.34 C4.01875,14.115 3.5,12.61875 3.5,11 C3.5,6.85875 6.85875,3.5 11,3.5 Z M11,18.5 C9.38,18.5 7.885,17.98125 6.65875,17.10875 L17.1075,6.66 C17.98125,7.885 18.5,9.38125 18.5,11 C18.5,15.14125 15.14125,18.5 11,18.5 Z" id="Shape-Copy" fill="#FF453A" fill-rule="nonzero"></path>
    </g>
</svg>