<?xml version="1.0" encoding="UTF-8"?>
<svg width="126px" height="120px" viewBox="0 0 126 120" version="1.1" xmlns="http://www.w3.org/2000/svg" xmlns:xlink="http://www.w3.org/1999/xlink">
    <!-- Generator: Sketch 57.1 (83088) - https://sketch.com -->
    <title>Legal and Settings@3x</title>
    <desc>Created with Sketch.</desc>
    <g id="Legal-and-Settings" stroke="none" stroke-width="1" fill="none" fill-rule="evenodd">
        <g id="1077227_auction_business_buy_gavel_hammer_icon-copy" transform="translate(1.000000, 1.000000)">
            <g id="circle_back" transform="translate(0.000000, 11.021979)" fill="#FEE176" fill-rule="nonzero">
                <path d="M109.031735,69.9188693 C108.28101,69.1691873 108.28101,67.9399293 109.031735,67.1902473 L109.031735,67.1902473 C109.782459,66.4405654 111.013427,66.4405654 111.764152,67.1902473 L114.248168,69.6708127 C115.515016,65.0376678 116.19674,60.1592226 116.19674,55.1236749 C116.19674,24.6788693 91.4835428,0 60.9963886,0 C50.5497221,0 40.7820198,2.8995053 32.4550468,7.93229682 L35.9630291,11.4354064 C37.6935601,13.1635336 37.6935601,15.9941343 35.9630291,17.7222615 L35.9630291,17.7222615 C34.2324981,19.4503887 31.39796,19.4503887 29.667429,17.7222615 L25.1492802,13.2103887 C22.8971059,15.1342049 20.8022525,17.2371731 18.8840403,19.4944876 L20.7829324,21.390742 C22.5134634,23.1188693 22.5134634,25.94947 20.7829324,27.6775972 C19.0524014,29.4057244 16.2178633,29.4057244 14.4873323,27.6775972 L13.6289668,26.820424 C8.65541514,35.0944876 5.79603693,44.7769611 5.79603693,55.1264311 C5.79603693,72.2009894 13.5710065,87.4592226 25.7758042,97.5716608 L96.216973,97.5716608 C103.732501,91.3481979 109.561658,83.1678445 112.93716,73.8188693 L109.031735,69.9188693 Z" id="Path"></path>
                <path d="M17.6254723,40.4800707 L17.6254723,40.4800707 C14.9427352,43.1590813 10.5515472,43.1590813 7.86605011,40.4800707 L2.01205282,34.6342049 C-0.670684273,31.9551943 -0.670684273,27.570106 2.01205282,24.8883392 L2.01205282,24.8883392 C4.69478991,22.2093286 9.08597789,22.2093286 11.771475,24.8883392 L17.6254723,30.7342049 C20.3082094,33.4159717 20.3082094,37.8010601 17.6254723,40.4800707 Z" id="Path"></path>
                <path d="M36.0679098,30.3621201 L36.0679098,30.3621201 C34.3373788,32.0902473 31.5028407,32.0902473 29.7723097,30.3621201 L16.5518255,17.16 C14.8212944,15.4318728 14.8212944,12.6012721 16.5518255,10.8731449 L16.5518255,10.8731449 C18.2823565,9.14501767 21.1168945,9.14501767 22.8474256,10.8731449 L36.0679098,24.075265 C37.8012008,25.8061484 37.8012008,28.6339929 36.0679098,30.3621201 Z" id="Path"></path>
                <path d="M14.3244913,8.64890459 L14.3244913,8.64890459 C12.5939602,10.3770318 9.75942218,10.3770318 8.02889115,8.64890459 L7.1567256,7.77795053 C5.42619457,6.04982332 5.42619457,3.21922261 7.1567256,1.49109541 L7.1567256,1.49109541 C8.88725662,-0.237031802 11.7217947,-0.237031802 13.4523257,1.49109541 L14.3244913,2.36204947 C16.0577823,4.09293286 16.0577823,6.92077739 14.3244913,8.64890459 Z" id="Path"></path>
                <path d="M39.2226099,11.9177385 L39.2226099,11.9177385 C38.4718851,12.6674205 37.2409173,12.6674205 36.4901925,11.9177385 L28.6848628,4.12325088 C27.934138,3.3735689 27.934138,2.14431095 28.6848628,1.39462898 L28.6848628,1.39462898 C29.4355875,0.644946996 30.6665554,0.644946996 31.4172802,1.39462898 L39.2226099,9.18911661 C39.9733347,9.93879859 39.9733347,11.1653004 39.2226099,11.9177385 Z" id="Path"></path>
                <path d="M122.702102,71.7792933 L122.702102,71.7792933 C120.971571,73.5074205 118.137033,73.5074205 116.406502,71.7792933 L103.186017,58.5771731 C101.455486,56.8490459 101.455486,54.0184452 103.186017,52.290318 L103.186017,52.290318 C104.916548,50.5621908 107.751086,50.5621908 109.481618,52.290318 L122.702102,65.4924382 C124.432633,67.2205654 124.432633,70.0484099 122.702102,71.7792933 Z" id="Path"></path>
                <path d="M115.647497,86.2327208 L115.647497,86.2327208 C112.96476,88.9117314 108.573572,88.9117314 105.888075,86.2327208 L100.034077,80.3868551 C97.3513402,77.7078445 97.3513402,73.3227562 100.034077,70.6409894 L100.034077,70.6409894 C102.716814,67.9619788 107.108002,67.9619788 109.793499,70.6409894 L115.647497,76.4868551 C118.332994,79.1686219 118.332994,83.5537102 115.647497,86.2327208 Z" id="Path"></path>
            </g>
            <g id="bottom_lines" transform="translate(17.388111, 109.007067)" stroke="#151440" stroke-linecap="round" stroke-width="1.65371025">
                <path d="M61.5483921,0.137809187 L33.0788107,0.137809187" id="Path"></path>
                <path d="M29.8081899,0.137809187 L0,0.137809187" id="Path"></path>
                <path d="M81.9725222,0.137809187 L68.7244378,0.137809187" id="Path"></path>
                <path d="M87.7685592,0.137809187 L85.2845433,0.137809187" id="Path"></path>
                <path d="M14.904095,3.99646643 L30.3601934,3.99646643" id="Path"></path>
                <path d="M33.6722145,3.99646643 L33.6722145,3.99646643" id="Path"></path>
                <path d="M37.2602374,3.99646643 L53.2683394,3.99646643" id="Path"></path>
                <path d="M53.2683394,7.85512367 L69.2764414,7.85512367" id="Path"></path>
                <path d="M73.140466,7.85512367 L80.3165117,7.85512367" id="Path"></path>
                <path d="M69.2764414,7.85512367 C69.2764414,6.78848057 70.1403269,5.92579505 71.2084537,5.92579505 C72.2765805,5.92579505 73.140466,6.78848057 73.140466,7.85512367" id="Path"></path>
                <path d="M49.9563183,7.85512367 L49.4043148,7.85512367" id="Path"></path>
            </g>
            <g id="hammer_1_" transform="translate(36.985616, 38.036714)">
                <path d="M43.6151779,13.1511307 L30.9301371,0.483710247 C30.2842929,-0.161236749 29.2354863,-0.161236749 28.5868821,0.483710247 L0.484383086,28.5471731 C-0.161461029,29.1921201 -0.161461029,30.23947 0.484383086,30.8871731 L13.1694239,43.5545936 C13.815268,44.1995406 14.8640747,44.1995406 15.5126788,43.5545936 L43.6151779,15.4883746 C44.261022,14.8434276 44.261022,13.7960777 43.6151779,13.1511307 Z" id="fill_hammer" fill="#8E787F" fill-rule="nonzero"></path>
                <g id="shadow" transform="translate(26.439588, 1.065265)">
                    <path d="M17.1755894,14.4231095 L16.005342,15.5917314 L2.73517743,2.34 L5.07843235,0 L17.1783494,12.0831095 C17.8214335,12.7308127 17.8214335,13.7781625 17.1755894,14.4231095 Z" id="Path" fill="#6E5C6D" fill-rule="nonzero"></path>
                    <path d="M5.46483482,2.34 L0,7.79724382" id="Path" stroke="#6E5C6D" stroke-width="1.65371025" stroke-linecap="round"></path>
                    <path d="M2.92837866,2.53568905 L2.92837866,2.53568905" id="Path" stroke="#8E787F" stroke-width="1.65371025" stroke-linecap="round"></path>
                    <path d="M7.80808975,4.68 L6.04995854,6.43293286" id="Path" stroke="#6E5C6D" stroke-width="1.65371025" stroke-linecap="round"></path>
                    <path d="M5.26887357,4.87568905 L5.26887357,4.87568905" id="Path" stroke="#8E787F" stroke-width="1.65371025" stroke-linecap="round"></path>
                    <path d="M10.1485847,7.01724382 L4.29458736,12.8658657" id="Path" stroke="#6E5C6D" stroke-width="1.65371025" stroke-linecap="round"></path>
                    <path d="M7.6121285,7.21293286 L7.6121285,7.21293286" id="Path" stroke="#8E787F" stroke-width="1.65371025" stroke-linecap="round"></path>
                    <path d="M12.4918396,9.35724382 L10.9296696,10.9172438" id="Path" stroke="#6E5C6D" stroke-width="1.65371025" stroke-linecap="round"></path>
                    <path d="M9.95538343,9.55293286 L9.95538343,9.55293286" id="Path" stroke="#8E787F" stroke-width="1.65371025" stroke-linecap="round"></path>
                    <path d="M14.8323345,11.6972438 L9.56346093,16.9587986" id="Path" stroke="#6E5C6D" stroke-width="1.65371025" stroke-linecap="round"></path>
                    <path d="M12.2958783,11.8901767 L12.2958783,11.8901767" id="Path" stroke="#8E787F" stroke-width="1.65371025" stroke-linecap="round"></path>
                    <path d="M17.1755894,14.0344876 L13.662087,17.5431095" id="Path" stroke="#6E5C6D" stroke-width="1.65371025" stroke-linecap="round"></path>
                    <path d="M14.6391333,14.2301767 L14.6391333,14.2301767" id="Path" stroke="#8E787F" stroke-width="1.65371025" stroke-linecap="round"></path>
                    <path d="M2.53645616,14.6187986 L2.53645616,14.6187986" id="Path" stroke="#6E5C6D" stroke-width="1.65371025" stroke-linecap="round"></path>
                </g>
                <path d="M2.04379302,32.444417 L1.65463054,32.0557951 C1.00878643,31.4108481 1.00878643,30.3634982 1.65463054,29.7157951 L29.7571296,1.65233216 C30.4029737,1.00738516 31.4517804,1.00738516 32.1003845,1.65233216 L32.8814695,2.43233216" id="border_left_4_" stroke="#FEE176" stroke-width="1.65371025" stroke-linecap="round" stroke-linejoin="round"></path>
                <path d="M18.2423362,11.9825088 L23.5139698,6.71819788" id="border_left_7_" stroke="#FEE176" stroke-width="1.65371025" stroke-linecap="round" stroke-linejoin="round"></path>
                <g id="border" stroke="#151440" stroke-linecap="round" stroke-linejoin="round" stroke-width="1.65371025">
                    <path d="M18.049135,11.0068198 L4.77621043,24.2585512" id="Path"></path>
                    <path d="M20.3896299,8.66957597 L20.3896299,8.66957597" id="Path"></path>
                    <path d="M24.2922948,4.76957597 L22.7328848,6.32957597" id="Path"></path>
                    <path d="M41.6638454,17.4397527 L43.6151779,15.4911307 C44.261022,14.8461837 44.261022,13.7988339 43.6151779,13.1511307 L30.9301371,0.483710247 C30.2842929,-0.161236749 29.2354863,-0.161236749 28.5868821,0.483710247 L26.6355497,2.43233216" id="Path"></path>
                    <path d="M19.8045062,39.2659717 L39.3205905,19.7769965" id="Path"></path>
                    <path d="M11.8032152,42.1902827 L13.1694239,43.5545936 C13.815268,44.1995406 14.8640747,44.1995406 15.5126788,43.5545936 L17.4640113,41.6059717" id="Path"></path>
                    <path d="M2.43571552,26.5985512 L0.484383086,28.5471731 C-0.161461029,29.1921201 -0.161461029,30.23947 0.484383086,30.8871731 L9.46272029,39.8530389" id="Path"></path>
                </g>
                <path d="M39.712513,20.1683746 L23.9031323,4.38095406 C23.2572882,3.73600707 23.2572882,2.68865724 23.9031323,2.04095406 L23.9031323,2.04095406 C24.5489764,1.39600707 25.5977831,1.39600707 26.2463872,2.04095406 L42.0557679,17.8283746 C42.7016121,18.4733216 42.7016121,19.5206714 42.0557679,20.1683746 L42.0557679,20.1683746 C41.4071638,20.8133216 40.3583571,20.8133216 39.712513,20.1683746 Z" id="fill_ringt_right" fill="#CFD9E5" fill-rule="nonzero"></path>
                <path d="M25.269341,5.74526502 L25.0733797,5.54957597 C24.4275356,4.90462898 24.4275356,3.85727915 25.0733797,3.20957597 L25.0733797,3.20957597 C25.7192239,2.56462898 26.7680305,2.56462898 27.4166347,3.20957597 L27.6125959,3.40526502" id="border_left_6_" stroke="#FEE176" stroke-width="1.65371025" stroke-linecap="round" stroke-linejoin="round"></path>
                <path d="M38.3463043,18.8040636 L38.5422656,18.9997527 C39.1881097,19.6446996 40.2369163,19.6446996 40.8855205,18.9997527 L40.8855205,18.9997527 C41.5313646,18.3548057 41.5313646,17.3074558 40.8855205,16.6597527 L40.6895592,16.4640636" id="shadow_1_" stroke="#95A3AF" stroke-width="1.65371025" stroke-linecap="round" stroke-linejoin="round"></path>
                <path d="M39.3205905,15.0997527 L42.0530079,17.8283746 C42.698852,18.4733216 42.698852,19.5206714 42.0530079,20.1683746 L42.0530079,20.1683746 C41.4071638,20.8133216 40.3583571,20.8133216 39.709753,20.1683746 L23.9003723,4.38095406 C23.2545282,3.73600707 23.2545282,2.68865724 23.9003723,2.04095406 L23.9003723,2.04095406 C24.5462164,1.39600707 25.5950231,1.39600707 26.2436272,2.04095406 L36.9773356,12.7597527" id="border_ring_right" stroke="#151440" stroke-width="1.65371025" stroke-linecap="round" stroke-linejoin="round"></path>
                <path d="M17.8531737,41.9945936 L2.04379302,26.2071731 C1.39794891,25.5622261 1.39794891,24.5148763 2.04379302,23.8671731 L2.04379302,23.8671731 C2.68963714,23.2222261 3.73844382,23.2222261 4.38704795,23.8671731 L20.1964287,39.6545936 C20.8422728,40.2995406 20.8422728,41.3468905 20.1964287,41.9945936 L20.1964287,41.9945936 C19.5478245,42.6395406 18.4990179,42.6395406 17.8531737,41.9945936 Z" id="fill__ring_left" fill="#CFD9E5" fill-rule="nonzero"></path>
                <path d="M3.41000173,27.5742403 L3.21404048,27.3785512 C2.56819636,26.7336042 2.56819636,25.6862544 3.21404048,25.0385512 L3.21404048,25.0385512 C3.85988459,24.3936042 4.90869127,24.3936042 5.55729541,25.0385512 L5.75325665,25.2342403" id="border_left_5_" stroke="#FEE176" stroke-width="1.65371025" stroke-linecap="round" stroke-linejoin="round"></path>
                <path d="M16.486965,40.6302827 L16.6829263,40.8259717 C17.3287704,41.4709187 18.3775771,41.4709187 19.0261812,40.8259717 L19.0261812,40.8259717 C19.6720253,40.1810247 19.6720253,39.1336749 19.0261812,38.4859717 L18.83022,38.2902827" id="shadow_2_" stroke="#95A3AF" stroke-width="1.65371025" stroke-linecap="round" stroke-linejoin="round"></path>
                <path d="M17.8531737,41.9945936 L2.04379302,26.2071731 C1.39794891,25.5622261 1.39794891,24.5148763 2.04379302,23.8671731 L2.04379302,23.8671731 C2.68963714,23.2222261 3.73844382,23.2222261 4.38704795,23.8671731 L20.1964287,39.6545936 C20.8422728,40.2995406 20.8422728,41.3468905 20.1964287,41.9945936 L20.1964287,41.9945936 C19.5478245,42.6395406 18.4990179,42.6395406 17.8531737,41.9945936 Z" id="border_ring_left" stroke="#151440" stroke-width="1.65371025" stroke-linecap="round" stroke-linejoin="round"></path>
                <path d="M57.0868237,60.1137456 L28.0072784,31.0745936 L31.1288583,27.9573498 L60.2084036,56.9965018 C61.0695291,57.8564311 61.0695291,59.2538163 60.2084036,60.1137456 L60.2084036,60.1137456 C59.3472781,60.9736749 57.9507092,60.9736749 57.0868237,60.1137456 Z" id="fill_handle" fill="#6E5C6D" fill-rule="nonzero"></path>
                <g id="border_handle" transform="translate(28.007278, 27.957350)" stroke="#151440" stroke-linecap="round" stroke-linejoin="round" stroke-width="1.65371025">
                    <path d="M10.9296696,14.0317314 L10.9296696,14.0317314" id="border_handle_3_"></path>
                    <path d="M27.5173753,24.3591519 L32.2011252,29.0363958 C33.0622506,29.8963251 33.0622506,31.2937102 32.2011252,32.1536396 L32.2011252,32.1536396 C31.3399997,33.0135689 29.9406708,33.0135689 29.0795453,32.1536396 L13.2701645,16.3662191" id="border_handle_4_"></path>
                    <polyline id="border_handle_1_" points="8.58917472 11.6917314 0 3.11724382 3.12433991 0 25.1768804 22.0219081"></polyline>
                </g>
                <path d="M12.9817427,16.0671731 L11.8114953,14.8985512 C10.9503698,14.0386219 10.9503698,12.6412367 11.8114953,11.7813074 L11.8114953,11.7813074 C12.6726207,10.9213781 14.0719497,10.9213781 14.9330751,11.7813074 L16.1033226,12.9499293 L12.9817427,16.0671731 Z" id="fill_handle_top" fill="#6E5C6D" fill-rule="nonzero"></path>
                <path d="M12.9817427,16.0671731 L11.8114953,14.8985512 C10.9503698,14.0386219 10.9503698,12.6412367 11.8114953,11.7813074 L11.8114953,11.7813074 C12.6726207,10.9213781 14.0719497,10.9213781 14.9330751,11.7813074 L16.1033226,12.9499293 L12.9817427,16.0671731 Z" id="border_handle_top" stroke="#151440" stroke-width="1.65371025" stroke-linecap="round" stroke-linejoin="round"></path>
                <g id="diagonal_lines_3_" transform="translate(19.732746, 15.708869)" stroke="#151440" stroke-linecap="round" stroke-width="1.1024735">
                    <path d="M2.89801846,0 L2.89801846,13.7809187" id="Path"></path>
                    <path d="M5.65803605,4.13427562 L5.65803605,10.7491166" id="Path"></path>
                    <path d="M0.138000879,2.75618375 L0.138000879,5.51236749" id="Path"></path>
                    <path d="M0.138000879,8.26855124 L0.138000879,8.26855124" id="Path"></path>
                </g>
            </g>
            <g id="stand" transform="translate(27.048172, 100.600707)">
                <path d="M34.5002198,3.85865724 C35.7201476,3.85865724 36.7082339,4.84537102 36.7082339,6.06360424 L36.7082339,8.54416961 L2.48401583,8.54416961 L2.48401583,6.06360424 C2.48401583,4.84537102 3.47210212,3.85865724 4.69202989,3.85865724 L34.5002198,3.85865724 Z" id="Path" fill="#6E5C6D" fill-rule="nonzero"></path>
                <path d="M30.0841917,0 C31.3041194,0 32.2922057,0.986713781 32.2922057,2.204947 L32.2922057,3.85865724 L6.90004396,3.85865724 L6.90004396,2.204947 C6.90004396,0.986713781 7.88813026,0 9.10805803,0 L30.0841917,0 Z" id="Path" fill="#8E787F" fill-rule="nonzero"></path>
                <path d="M12.4200791,3.85865724 L12.4200791,3.85865724" id="Path" stroke="#151440" stroke-width="1.65371025" stroke-linecap="round" stroke-linejoin="round"></path>
                <path d="M9.10805803,3.85865724 L2.20801407,3.85865724 C0.988086295,3.85865724 0,4.84537102 0,6.06360424 L0,8.54416961 L36.7082339,8.54416961 L36.7082339,6.06360424 C36.7082339,4.84537102 35.7201476,3.85865724 34.5002198,3.85865724 L15.7321002,3.85865724" id="Path" stroke="#151440" stroke-width="1.65371025" stroke-linecap="round" stroke-linejoin="round"></path>
                <path d="M25.6681635,0 L6.6240422,0 C5.40411443,0 4.41602813,0.986713781 4.41602813,2.204947 L4.41602813,3.85865724 L9.10805803,3.85865724" id="Path" stroke="#151440" stroke-width="1.65371025" stroke-linecap="round" stroke-linejoin="round"></path>
                <path d="M15.7321002,3.85865724 L32.2922057,3.85865724 L32.2922057,2.204947 C32.2922057,0.986713781 31.3041194,0 30.0841917,0 L28.9801846,0" id="Path" stroke="#151440" stroke-width="1.65371025" stroke-linecap="round" stroke-linejoin="round"></path>
                <path d="M12.4200791,3.85865724 L12.4200791,3.85865724" id="Path" stroke="#151440" stroke-width="1.65371025" stroke-linecap="round" stroke-linejoin="round"></path>
            </g>
            <g id="circles_x2C__stars" transform="translate(16.835026, 0.000000)">
                <ellipse id="Oval" stroke="#FFFFFF" stroke-width="2.204947" cx="34.5013011" cy="30.3180212" rx="2.76001758" ry="2.75618375"></ellipse>
                <ellipse id="Oval" stroke="#FFFFFF" stroke-width="1.65371025" cx="16.0091833" cy="44.0989399" rx="2.20801407" ry="2.204947"></ellipse>
                <ellipse id="Oval" stroke="#FFFFFF" stroke-width="1.65371025" cx="78.3855807" cy="49.335689" rx="2.20801407" ry="2.204947"></ellipse>
                <ellipse id="Oval" stroke="#FFFFFF" stroke-width="1.1024735" cx="77.5575754" cy="70.0070671" rx="1.38000879" ry="1.37809187"></ellipse>
                <path d="M65.3610577,25.6325088 L65.3610577,25.6325088 C64.778694,25.6325088 64.309491,25.1612014 64.309491,24.5824028 L64.309491,24.5824028 C64.309491,24.0063604 63.8927284,23.4909541 63.3186447,23.4330742 C62.6617605,23.3669258 62.101477,23.8850883 62.101477,24.5300353 L62.101477,24.5824028 C62.101477,25.1639576 61.629514,25.6325088 61.0499103,25.6325088 L61.0499103,25.6325088 C60.4730666,25.6325088 59.9569433,26.0486926 59.8989829,26.6219788 C59.8327425,27.2779505 60.3516258,27.8374558 60.9974699,27.8374558 L61.0499103,27.8374558 C61.632274,27.8374558 62.101477,28.3087633 62.101477,28.8875618 L62.101477,28.8875618 C62.101477,29.4636042 62.5182396,29.9790106 63.0923233,30.0368905 C63.7492075,30.1030389 64.309491,29.5848763 64.309491,28.9399293 L64.309491,28.8875618 C64.309491,28.3087633 64.781454,27.8374558 65.3610577,27.8374558 L65.4134981,27.8374558 C66.0593422,27.8374558 66.5782255,27.2779505 66.5119851,26.6219788 C66.4540247,26.0486926 65.9379014,25.6325088 65.3610577,25.6325088 Z" id="Path" fill="#FFFFFF" fill-rule="nonzero"></path>
                <path d="M4.10246745,62.0141343 L4.10246745,62.0141343 C3.66638467,62.0141343 3.31310242,61.6613428 3.31310242,61.2258657 L3.31310242,61.2258657 C3.31310242,60.7959011 2.99846042,60.4072792 2.57065769,60.3631802 C2.07661454,60.3135689 1.65709187,60.7021908 1.65709187,61.184523 L1.65709187,61.2231095 C1.65709187,61.6585866 1.30380962,62.0113781 0.867726843,62.0113781 L0.867726843,62.0113781 C0.4371641,62.0113781 0.0480016203,62.325583 0.00384133898,62.7527915 C-0.0430789599,63.2489046 0.346083519,63.6678445 0.829086597,63.6678445 L0.867726843,63.6678445 C1.30380962,63.6678445 1.65709187,64.020636 1.65709187,64.4561131 L1.65709187,64.4561131 C1.65709187,64.8860777 1.97173388,65.2746996 2.3995366,65.3187986 C2.89357975,65.3684099 3.31310242,64.979788 3.31310242,64.4974558 L3.31310242,64.4588693 C3.31310242,64.0233922 3.66638467,63.6706007 4.10246745,63.6706007 L4.1411077,63.6706007 C4.62411077,63.6706007 5.01327325,63.2516608 4.96359294,62.7583039 C4.92219267,62.3283392 4.53303019,62.0141343 4.10246745,62.0141343 Z" id="Path" fill="#FFFFFF" fill-rule="nonzero"></path>
                <ellipse id="Oval" stroke="#FEE176" stroke-width="1.65371025" cx="58.5134541" cy="2.204947" rx="2.20801407" ry="2.204947"></ellipse>
                <path d="M29.4946292,3.58303887 L29.4946292,3.58303887 C29.0585464,3.58303887 28.7052642,3.23024735 28.7052642,2.79477032 L28.7052642,2.79477032 C28.7052642,2.36480565 28.3906222,1.97618375 27.9628195,1.93208481 C27.4687763,1.88522968 27.0492536,2.27385159 27.0492536,2.75618375 L27.0492536,2.79477032 C27.0492536,3.23024735 26.6959714,3.58303887 26.2598886,3.58303887 L26.2598886,3.58303887 C25.8293259,3.58303887 25.4401634,3.89724382 25.3960031,4.3244523 C25.3490828,4.81780919 25.7382453,5.23674912 26.2212484,5.23674912 L26.2598886,5.23674912 C26.6959714,5.23674912 27.0492536,5.58954064 27.0492536,6.02501767 L27.0492536,6.02501767 C27.0492536,6.45498233 27.3638956,6.84360424 27.7916984,6.88770318 C28.2857415,6.93731449 28.7052642,6.54869258 28.7052642,6.06636042 L28.7052642,6.02777385 C28.7052642,5.59229682 29.0585464,5.2395053 29.4946292,5.2395053 L29.5332695,5.2395053 C30.0162725,5.2395053 30.405435,4.82056537 30.3557547,4.32720848 C30.3143544,3.89724382 29.925192,3.58303887 29.4946292,3.58303887 Z" id="Path" fill="#FEE176" fill-rule="nonzero"></path>
                <path d="M84.9571826,11.8515901 L84.9571826,11.8515901 C84.3748189,11.8515901 83.9056159,11.3802827 83.9056159,10.8014841 L83.9056159,10.8014841 C83.9056159,10.2254417 83.4888532,9.71003534 82.9147696,9.65215548 C82.2578854,9.58600707 81.6976018,10.1041696 81.6976018,10.7491166 L81.6976018,10.8014841 C81.6976018,11.3802827 81.2256388,11.8515901 80.6460351,11.8515901 L80.6460351,11.8515901 C80.0691914,11.8515901 79.5530681,12.2677739 79.4951078,12.8410601 C79.4288674,13.4970318 79.9477507,14.0565371 80.5935948,14.0565371 L80.6460351,14.0565371 C81.2283988,14.0565371 81.6976018,14.5278445 81.6976018,15.1066431 L81.6976018,15.1066431 C81.6976018,15.6826855 82.1143645,16.1980919 82.6884481,16.2559717 C83.3453323,16.3221201 83.9056159,15.8039576 83.9056159,15.1590106 L83.9056159,15.1066431 C83.9056159,14.5278445 84.3775789,14.0565371 84.9571826,14.0565371 L85.0096229,14.0565371 C85.655467,14.0565371 86.1743503,13.4970318 86.1081099,12.8410601 C86.0501495,12.2677739 85.5340262,11.8515901 84.9571826,11.8515901 Z" id="Path" fill="#FEE176" fill-rule="nonzero"></path>
            </g>
        </g>
    </g>
</svg>