<?xml version="1.0" encoding="UTF-8"?>
<svg width="18px" height="23px" viewBox="0 0 18 23" version="1.1" xmlns="http://www.w3.org/2000/svg" xmlns:xlink="http://www.w3.org/1999/xlink">
    <!-- Generator: Sketch 57.1 (83088) - https://sketch.com -->
    <title>lock@1x</title>
    <desc>Created with Sketch.</desc>
    <g id="lock" stroke="none" stroke-width="1" fill="none" fill-rule="evenodd">
        <path d="M15.8235294,9.64705882 L14.8970588,9.64705882 L14.8970588,6.25 C14.8970588,4.79852941 13.8470588,1 9.02941176,1 C4.21176471,1 3.16176471,4.79852941 3.16176471,6.25 L3.16176471,9.64705882 L2.23529412,9.64705882 C1.55588235,9.64705882 1,10.2029412 1,10.8823529 L1,20.7647059 C1,21.4441176 1.55588235,22 2.23529412,22 L15.8235294,22 C16.5029412,22 17.0588235,21.4441176 17.0588235,20.7647059 L17.0588235,10.8823529 C17.0588235,10.2029412 16.5029412,9.64705882 15.8235294,9.64705882 Z M4.39705882,6.25 C4.39705882,6.25 4.39705882,2.23529412 9.02941176,2.23529412 C13.6617647,2.23529412 13.6617647,6.25 13.6617647,6.25 L13.6617647,9.64705882 L4.39705882,9.64705882 L4.39705882,6.25 Z M15.8235294,20.7647059 L2.23529412,20.7647059 L2.23529412,10.8823529 L15.8235294,10.8823529 L15.8235294,20.7647059 Z" id="Shape-Copy" fill="#9DAEBD" fill-rule="nonzero"></path>
    </g>
</svg>