<?xml version="1.0" encoding="UTF-8"?>
<svg width="33px" height="32px" viewBox="0 0 33 32" version="1.1" xmlns="http://www.w3.org/2000/svg" xmlns:xlink="http://www.w3.org/1999/xlink">
    <!-- Generator: Sketch 57.1 (83088) - https://sketch.com -->
    <title>Manage Volunteer List@1x</title>
    <desc>Created with Sketch.</desc>
    <g id="Manage-Volunteer-List" stroke="none" stroke-width="1" fill="none" fill-rule="evenodd">
        <g id="464570_agreement_business_deal_finance_handshake_icon-copy" transform="translate(1.000000, 1.000000)" fill="#EC926B" fill-rule="nonzero">
            <path d="M15.5000587,0 C12.390199,0 9.86974444,2.55974803 9.86974444,5.71640488 C9.86974444,8.87265031 12.390199,11.4336326 15.5000587,11.4336326 C18.6097157,11.4336326 21.130373,8.87265031 21.130373,5.71640488 C21.130373,2.55974803 18.6097157,0 15.5000587,0 Z M17.2749601,8.68874342 C16.9675942,8.92147272 16.5662153,9.07116278 16.0754834,9.13801931 L16.0754834,9.8763897 L15.1165098,9.8763897 L15.1165098,9.17004187 C14.9413835,9.1605791 14.7583552,9.14419068 14.5681679,9.12046518 C13.7376518,9.01678613 13.0514646,8.81059373 13.0225583,8.80188524 L13.4060397,7.49547433 C14.3567736,7.78148314 15.9369627,8.00173256 16.4729451,7.59551913 C16.5575028,7.53181685 16.634969,7.43924627 16.634969,7.19664277 C16.634969,6.64903635 16.4455922,6.5176547 15.3698452,6.3182508 C14.8886362,6.22897162 14.3904752,6.13660675 13.9663358,5.87967196 C13.4046889,5.53901221 13.1079265,4.97693735 13.1079265,4.25406396 C13.1079265,4.15614486 13.1313622,3.27933002 13.944521,2.67885551 C14.2668804,2.44070911 14.6583988,2.28978478 15.1165098,2.22573965 L15.1165098,1.55703719 L16.0754834,1.55703719 L16.0754834,2.20928266 C16.6174091,2.25618509 17.225117,2.3895553 17.8965133,2.61021614 L17.48291,3.90736999 C15.7528538,3.33850662 15.0305338,3.57555588 14.7540328,3.76727984 C14.4840154,3.95434099 14.4534882,4.2269785 14.4505165,4.26222389 C14.4520699,4.66740876 14.5645884,4.7830877 15.6111589,4.97721164 C16.1167492,5.07081078 16.6394266,5.16797561 17.0890277,5.45055588 C17.6789056,5.82145535 17.9772889,6.40910712 17.9772889,7.1965742 C17.9772214,7.8250256 17.734557,8.34088374 17.2749601,8.68874342 Z" id="Shape"></path>
            <g id="Group" transform="translate(0.000000, 11.878166)">
                <path d="M19.7615782,16.5327058 C19.3174476,16.523243 19.0396633,16.2533484 18.9871862,16.1982174 L16.4303961,13.602264 C16.3313177,13.5014649 16.3313177,13.338335 16.4303961,13.2378788 L16.5200867,13.1468168 C16.6194353,13.046292 16.7800409,13.046292 16.8787141,13.1468168 L19.4479312,15.7551815 C19.4497547,15.7571015 19.5790902,15.888346 19.7830553,15.8889631 C19.9777676,15.8889631 20.188419,15.7743127 20.4109571,15.5483034 C20.6336977,15.321814 20.7468916,15.1074617 20.7460811,14.9109378 C20.7452707,14.7043339 20.6163404,14.5728151 20.6105322,14.5674666 L21.0439242,14.0973452 C21.0778283,14.1284078 21.3704034,14.4158566 21.380264,14.889338 C21.3876932,15.2701116 21.2124318,15.6451939 20.8592075,16.0038192 C20.5134124,16.3548331 20.1522861,16.5327744 19.7850139,16.5327744 C19.7773145,16.5327058 19.7694126,16.5327058 19.7615782,16.5327058 Z" id="Path"></path>
                <path d="M17.6300755,17.6438271 C17.1857423,17.6347072 16.9080256,17.3648125 16.8556836,17.3094073 L14.8370371,15.2597574 C14.7380262,15.1588898 14.7380262,14.9961027 14.8370371,14.8955779 L14.9267277,14.8045159 C15.0258737,14.7037168 15.1865468,14.7037168 15.2856252,14.8045159 L17.3160909,16.866577 C17.3179144,16.8682227 17.4478577,16.9993987 17.6512825,17.0000158 C17.8459948,17.0000158 18.0569163,16.8852969 18.2791843,16.6596304 C18.5024652,16.4328667 18.6152539,16.2185144 18.6143083,16.0221962 C18.613768,15.8156609 18.4845676,15.6838678 18.4794347,15.6784508 L18.9124215,15.2084665 C18.9457178,15.2397348 19.2389683,15.526635 19.2485587,16.0004592 C19.2563931,16.3814386 19.0809967,16.7561095 18.7275022,17.1152148 C18.3823825,17.466023 18.020851,17.6443756 17.6538489,17.6443756 C17.645947,17.6443756 17.638045,17.6438271 17.6300755,17.6438271 Z" id="Path"></path>
                <path d="M15.6138604,18.1218341 C15.6072417,18.1218341 15.6009606,18.1218341 15.594477,18.1215598 C15.2349716,18.1140856 15.0068279,17.8967162 14.9595512,17.8473452 L13.1316999,15.9916136 L13.5804906,15.5363035 L15.419013,17.4034864 C15.4845249,17.467943 15.6845728,17.5934961 16.0271261,17.2460478 C16.1787491,17.0921064 16.2574986,16.9446106 16.2551347,16.820086 C16.2526358,16.7081099 16.1825988,16.6297335 16.1817884,16.6291849 L16.6116009,16.1552235 C16.6391564,16.1809376 16.8810104,16.4182611 16.8891825,16.806989 C16.8955311,17.115489 16.7562675,17.4165149 16.4753765,17.7014265 C16.2004289,17.9805783 15.9107579,18.1218341 15.6138604,18.1218341 Z" id="Path"></path>
                <path d="M11.8912951,7.05615244 C11.7373082,7.54451369 10.3100929,9.13281917 12.0862776,9.41752514 C13.8623272,9.70195682 14.3959457,7.70572364 14.9617125,7.12074614 C15.5276143,6.53576863 15.833832,6.4496437 16.124381,6.45519793 C16.4181717,6.45519793 16.6949429,6.74826954 16.914104,7.08028936 C17.2338294,7.56391923 17.7914916,8.42359137 18.2870862,8.92628391 L22.5679216,13.2727127 C22.5733922,13.2781984 22.7023899,13.4095115 22.7032004,13.6163896 C22.7040109,13.8127078 22.5910871,14.0269916 22.3680088,14.2534809 C22.1455382,14.4796274 21.9348869,14.5941407 21.741863,14.5941407 C21.5364796,14.5935921 21.4068064,14.462279 21.4049829,14.4606333 L18.2083368,11.2148344 C18.1092584,11.1139668 17.9483826,11.1139668 17.8493717,11.2148344 L17.7596811,11.3056222 C17.661008,11.4062155 17.661008,11.5692769 17.7596811,11.6697331 L20.9443055,14.9034636 C20.9967151,14.9588688 21.2746344,15.2284892 21.7186974,15.2378834 C21.7265994,15.2378834 21.7345013,15.2382262 21.7424708,15.2382262 C22.109743,15.2382262 22.4708018,15.0601478 22.8163943,14.7089968 C23.1698212,14.35044 23.345015,13.9752892 23.3373832,13.5942412 C23.3311022,13.2866326 23.2059541,13.060349 23.1096447,12.9291045 L26.4519705,9.90074358 C26.5249792,9.83470989 26.5435522,9.71196816 26.4933714,9.62646037 L22.88866,3.4884822 C22.8387494,3.4032487 22.7400762,3.38912311 22.6615969,3.44836828 C21.0728305,4.64732875 17.8496419,2.82780253 17.0336465,2.8273911 C16.16693,2.83795101 15.6967297,3.28345551 14.7130371,3.68603468 C13.6463403,4.12248783 12.7100595,4.2655951 12.3717611,4.79167029 C11.8802188,5.56425751 12.0456196,6.56785976 11.8912951,7.05615244 Z" id="Path"></path>
                <path d="M9.00201485,13.1565538 L4.60271766,10.2104779 C4.48594427,10.1322386 4.449136,9.96945152 4.5207264,9.84718978 L8.27847911,3.44466546 C8.35006951,3.32226658 8.48602371,3.2689185 8.58172521,3.32521512 L8.75529815,3.42690562 C10.0997792,4.21656697 11.4169074,3.58146421 12.4748918,3.07081745 C13.0437653,2.79625996 13.5355103,2.55900499 13.9665385,2.58211335 L13.9862596,2.5836219 C14.8923508,2.67660391 15.6594486,3.45378538 15.9810651,3.82921052 C16.0729845,3.93638668 16.0502917,4.09745949 15.9381784,4.18241871 L15.6935554,4.3668056 C15.5809018,4.45162768 15.4218496,4.42817647 15.3280391,4.32209744 C15.0260763,3.98027199 14.4652398,3.46715668 13.9154796,3.40503154 C13.6838239,3.39392307 13.2477979,3.61033252 12.8235235,3.81508493 C11.8514476,4.28404064 10.4407116,4.96508584 8.94224363,4.42125082 C8.8103417,4.37304554 8.64845286,4.42467936 8.57672739,4.5469411 L5.63220102,9.56358094 C5.56054309,9.68577411 5.59674351,9.84931547 5.71324675,9.92858332 L9.42122388,12.4484917 C9.53772711,12.5274167 9.57338723,12.6904095 9.50145915,12.8126027 L9.34450059,13.0773545 C9.27236989,13.1992734 9.11919346,13.2347245 9.00201485,13.1565538 Z" id="Path"></path>
                <path d="M11.9666,17.4167891 L11.9666,17.4167891 C11.6261404,17.0712609 11.6261404,16.5104889 11.9666,16.1646177 L12.8803231,15.2369919 C13.2209178,14.8911894 13.7731093,14.8911894 14.113704,15.2369919 L14.113704,15.2369919 C14.4542311,15.5832059 14.4542311,16.1433608 14.113704,16.4892319 L13.200116,17.4167891 C12.8594538,17.7627288 12.3073298,17.7627288 11.9666,17.4167891 Z" id="Path"></path>
                <path d="M10.1579295,16.374513 L10.1579295,16.374513 C9.70549177,15.9148829 9.70549177,15.1695183 10.1579295,14.7100939 L11.560696,13.2857412 C12.0134715,12.826454 12.7473406,12.826454 13.2003862,13.2857412 L13.2003862,13.2857412 C13.6525538,13.7454399 13.6525538,14.490873 13.2003862,14.9502288 L11.7978223,16.374513 C11.3447767,16.8338688 10.6109076,16.8338688 10.1579295,16.374513 Z" id="Path"></path>
                <path d="M8.40342461,14.8662296 L8.40342461,14.8662296 C7.95017638,14.4059824 7.95017638,13.6597949 8.40342461,13.1992734 L9.62539157,11.9586219 C10.0787073,11.4983747 10.8139947,11.4983747 11.2673105,11.9586219 L11.2673105,11.9586219 C11.7206263,12.4188691 11.7206263,13.1651937 11.2673105,13.6254409 L10.0448708,14.8662296 C9.59155498,15.3268197 8.85667284,15.3268197 8.40342461,14.8662296 Z" id="Path"></path>
                <path d="M7.03105028,13.1627252 L7.03105028,13.1627252 C6.58502863,12.7102265 6.52485217,12.0374098 6.89671699,11.6602703 C7.26790642,11.2829252 7.9307254,11.3442275 8.37667952,11.7967948 L8.37667952,11.7967948 C8.82263364,12.2494992 8.88260748,12.9223845 8.5113505,13.2995925 C8.13975584,13.6769376 7.47707194,13.6160468 7.03105028,13.1627252 Z" id="Path"></path>
                <path d="M2.48951784,10.2727402 L0.309792986,8.95412366 C0.00870810613,8.77206818 -0.0898299915,8.37696322 0.0895512198,8.07127459 L4.64161961,0.314476936 C4.8207982,0.00906258537 5.21008785,-0.0911879266 5.51117273,0.0907304101 L7.69089759,1.40934693 C7.99198246,1.59153955 8.09011533,1.98685022 7.91080166,2.29226457 L3.35907096,10.0490622 C3.17989237,10.3549566 2.7904001,10.4549328 2.48951784,10.2727402 Z" id="Path"></path>
                <path d="M28.510532,10.2727402 L30.6899192,8.95412366 C30.9911392,8.77206818 31.0898123,8.37696322 30.9106337,8.07127459 L26.3582276,0.314476936 C26.1789815,0.00906258537 25.7897594,-0.0911879266 25.4887421,0.0907304101 L23.3090172,1.40934693 C23.0079999,1.59153955 22.9097319,1.98685022 23.0889781,2.29226457 L27.6408438,10.0491308 C27.820225,10.3549566 28.2093796,10.4549328 28.510532,10.2727402 Z" id="Path"></path>
            </g>
        </g>
    </g>
</svg>