<?xml version="1.0" encoding="UTF-8"?>
<svg width="34px" height="34px" viewBox="0 0 34 34" version="1.1" xmlns="http://www.w3.org/2000/svg" xmlns:xlink="http://www.w3.org/1999/xlink">
    <!-- Generator: Sketch 57.1 (83088) - https://sketch.com -->
    <title>Manage Campaign@1x</title>
    <desc>Created with Sketch.</desc>
    <g id="Manage-Campaign" stroke="none" stroke-width="1" fill="none" fill-rule="evenodd">
        <g id="Group-Copy" transform="translate(1.000000, 1.000000)">
            <path d="M12,20 C12.6,20 13.3,20.1 13.9,20.2 L16,26.7 C16.1,27 16,27.3 15.9,27.6 C15.6,27.9 15.3,28 15,28 L11.9,28 C11.5,28 11.1,27.7 10.9,27.3 L8.7,20.3 C8.7,20.2 8.7,20.1 8.7,20 L12,20 Z M25,4 L25,24 C25,24.4 24.8,24.7 24.4,24.9 C24.3,25 24.1,25 24,25 C23.8,25 23.6,24.9 23.4,24.8 C22.5,24.1 21.8,23.4 21.1,22.8 C19.1,21 16.5,19.7 14.1,19.3 L14.1,8.8 C16.6,8.3 19.1,7.1 21.1,5.3 C21.8,4.7 22.5,4 23.4,3.3 C23.5,3.1 23.8,3 24,3 C24.1,3 24.3,3 24.4,3.1 C24.8,3.3 25,3.6 25,4 Z" id="Shape" fill="#A2845E" fill-rule="nonzero"></path>
            <path d="M26,9.9 L26,18.1 C28,18 30,16 30,14 C30,12 28,10 26,9.9 Z M13,8.9 L13,19 C12.7,19 12.3,18.9 12,18.9 L7.5,18.9 C5,19 3,16.8 3,14 C3,11.2 5,9 7.5,9 L12,9 C12.3,9 12.7,9 13,8.9 Z" id="Shape" fill="#A2845E" fill-rule="nonzero"></path>
            <rect id="Rectangle" x="0" y="0" width="32" height="32"></rect>
        </g>
    </g>
</svg>