<?xml version="1.0" encoding="UTF-8"?>
<svg width="32px" height="32px" viewBox="0 0 32 32" version="1.1" xmlns="http://www.w3.org/2000/svg" xmlns:xlink="http://www.w3.org/1999/xlink">
    <!-- Generator: Sketch 57.1 (83088) - https://sketch.com -->
    <title>New Volunteer Request@1x</title>
    <desc>Created with Sketch.</desc>
    <g id="New-Volunteer-Request" stroke="none" stroke-width="1" fill="none" fill-rule="evenodd">
        <g id="4574985_charity_community_happy_volunteer_icon-copy" transform="translate(3.000000, 3.000000)" fill="#8F6BEC" fill-rule="nonzero">
            <ellipse id="Oval" cx="13.5004711" cy="6.15789471" rx="6.10243825" ry="6.15789471"></ellipse>
            <path d="M26.1860842,7.66462891 C25.2206445,6.74655523 23.6023457,6.84744207 22.5640836,7.89982628 L19.7856774,10.8590368 C18.1801261,12.6594537 15.8919599,13.686494 13.4917164,13.6840728 C11.0914729,13.6816516 8.80534613,12.6499971 7.20336511,10.8463447 L4.42495888,7.88764733 C3.39991877,6.84665523 1.77897556,6.74641839 0.814858122,7.66449207 C-0.231513156,8.72852537 -0.275613734,10.4308368 0.714235696,11.5485842 L6.7199842,18.724242 L6.7199842,25.3157894 C6.71987618,25.4972867 6.79127857,25.6713816 6.91846078,25.7997196 C7.045643,25.9280576 7.21817011,26 7.39803289,26 L19.6029094,26 C19.7827722,26 19.9552993,25.9280576 20.0824815,25.7997196 C20.2096637,25.6713816 20.2810661,25.4972867 20.2809581,25.3157894 L20.2809581,18.724242 L26.2800956,11.5560763 C27.2751327,10.4385501 27.2339027,8.73190168 26.1860842,7.66462891 L26.1860842,7.66462891 Z" id="Path"></path>
        </g>
    </g>
</svg>