<?xml version="1.0" encoding="UTF-8"?>
<svg width="34px" height="34px" viewBox="0 0 34 34" version="1.1" xmlns="http://www.w3.org/2000/svg" xmlns:xlink="http://www.w3.org/1999/xlink">
    <!-- Generator: Sketch 57.1 (83088) - https://sketch.com -->
    <title>New Campaign Request@1x</title>
    <desc>Created with Sketch.</desc>
    <g id="New-Campaign-Request" stroke="none" stroke-width="1" fill="none" fill-rule="evenodd">
        <g id="3189786_awareness_cancer_charity_pink_red_icon-copy">
            <g id="_x36_4px_boxes">
                <rect id="Rectangle" x="0" y="0" width="34" height="34"></rect>
            </g>
            <g id="Production" transform="translate(7.834539, 3.717103)" fill="#30B0C7" fill-rule="nonzero">
                <path d="M0.114342664,20.4844156 C0.00485203917,20.6072406 -0.0296260858,20.7800562 0.0266864142,20.9368281 L1.94832391,26.2682406 C2.05781454,26.5845469 2.47229579,26.6695469 2.70200829,26.4212406 C2.70652391,26.418 5.36527079,23.5443094 8.29256454,19.9968344 C7.05135204,18.4310281 5.79197079,16.8345156 4.67538954,15.2776875 C2.24391141,18.1086125 0.120080164,20.47735 0.114342664,20.4844156 Z M18.2172177,20.4844156 C18.2102052,20.47735 15.571327,17.5351813 12.8070739,14.2845688 C6.71103329,7.1597625 6.54841766,6.32878125 6.39159266,5.13819688 C7.19223954,4.66873125 8.18121454,4.3760125 9.16546141,4.3760125 C10.1556052,4.3760125 11.144952,4.67590313 11.9360895,5.15025625 C11.7741114,6.37441563 11.3703614,7.00054688 10.0196583,8.77715312 C11.0339208,10.0741469 12.2900614,11.5925656 13.5364802,13.0566375 C14.645677,11.3713 15.9417677,9.19503438 15.9277427,7.54146563 C15.876902,4.78125 13.7638552,1.68029062 11.9323177,0.67946875 C11.132627,0.212659375 10.0831958,0.006109375 9.16546141,0 C7.93359891,0.00818125 7.03525516,0.376178125 7.03525516,0.376178125 C4.21729266,1.52915 2.04352391,5.68878438 2.45242704,8.22810625 C2.87928641,10.7812938 6.16182704,15.2015594 9.35038954,19.1541125 C12.5363489,23.0797313 15.6263114,26.418 15.629552,26.4212406 C15.8589989,26.6692813 16.2694958,26.585025 16.3832364,26.2682406 L18.3042364,20.9368281 C18.3598583,20.7800563 18.3272927,20.6053281 18.2172177,20.4844156 Z" id="Shape"></path>
            </g>
        </g>
    </g>
</svg>