<?xml version="1.0" encoding="UTF-8"?>
<svg width="24px" height="24px" viewBox="0 0 24 24" version="1.1" xmlns="http://www.w3.org/2000/svg" xmlns:xlink="http://www.w3.org/1999/xlink">
    <!-- Generator: Sketch 57.1 (83088) - https://sketch.com -->
    <title>recipt@1x</title>
    <desc>Created with Sketch.</desc>
    <g id="recipt" stroke="none" stroke-width="1" fill="none" fill-rule="evenodd">
        <g id="iconfinder_thin-1136_invoice_bill_paid_1781021-copy-4" transform="translate(1.000000, 1.000000)">
            <g id="Layer_1-2" transform="translate(2.700000, 0.000000)" stroke="#00B9F5" stroke-linecap="round" stroke-linejoin="round">
                <path d="M14.2351286,0.707210981 L13.2646766,2.03201095 C13.2307004,2.07839081 13.1766127,2.10574991 13.1191196,2.10563782 C13.0616264,2.10552573 13.0076458,2.07795594 12.9738507,2.03144395 L12.0066927,0.700343981 C11.9728594,0.653779976 11.9187981,0.626150527 11.8612404,0.626150527 C11.8036826,0.626150527 11.7495703,0.653572831 11.7156507,0.700073981 L10.7489967,2.02528795 C10.7151976,2.07162428 10.66134,2.09907986 10.6039865,2.09921141 C10.546633,2.09934297 10.4926501,2.07213474 10.4586387,2.02595395 L9.49330775,0.715238981 C9.4591882,0.668913052 9.40497885,0.641688891 9.34744497,0.64198609 C9.2899111,0.642283289 9.23598589,0.670066035 9.20234676,0.716741981 L8.23409978,2.06018095 C8.20045606,2.10686348 8.14652091,2.13464719 8.08897897,2.13493729 C8.03143703,2.13522738 7.97722448,2.10798889 7.94311179,2.06164795 L6.94993482,0.712493981 C6.91597268,0.666350403 6.86207179,0.639131288 6.80477735,0.63919171 C6.74748292,0.639252132 6.69363956,0.666584874 6.65977482,0.712799981 L5.69344485,2.03201095 C5.65946902,2.07839443 5.60537909,2.10575608 5.54788325,2.10564399 C5.4903874,2.10553189 5.43640458,2.07795955 5.40260986,2.03144395 L4.43549688,0.700352981 C4.40166361,0.653788976 4.34760233,0.626150527 4.29004459,0.626150527 C4.23248685,0.626150527 4.1783745,0.653581831 4.14445489,0.700082981 L3.17780092,2.02528795 C3.14400177,2.07162428 3.09014418,2.09907986 3.03279072,2.09921141 C2.97543725,2.09934297 2.92145427,2.07213474 2.88744292,2.02595395 L1.91895295,0.710999981 C1.88521977,0.665199612 1.8318227,0.638039252 1.7749411,0.637748506 C1.7180595,0.63745776 1.66438757,0.664070845 1.63018796,0.709523981 L0.463112988,2.26066494 L0.463112988,21.1606644 L15.7368866,21.1606644 L15.7368866,2.26066494 L14.5222826,0.702899981 C14.4875905,0.658408566 14.4340449,0.63275694 14.3776329,0.633603845 C14.3212209,0.63445075 14.2684695,0.661698196 14.2351286,0.707210981 Z" id="Path"></path>
                <path d="M3.14936992,17.5827145 L9.45818975,17.5827145" id="Path"></path>
                <path d="M3.14936992,14.8824446 L9.45818975,14.8824446" id="Path"></path>
                <path d="M12.1493697,17.5827145 L13.0581897,17.5827145" id="Path"></path>
                <path d="M12.1493697,14.8824446 L13.0581897,14.8824446" id="Path"></path>
                <path d="M3.50934291,10.0923387 C3.89569631,10.4269352 4.37930615,10.628587 4.88891687,10.6675827 C5.51786516,10.706919 6.06100217,10.2320296 6.10596884,9.60345875 C6.10596884,9.01575876 5.52414585,8.72505877 4.88891687,8.53934377 C4.23052189,8.33301878 3.6717929,8.06294679 3.6717929,7.4752198 C3.71681136,6.84664507 4.25996011,6.37177347 4.88891687,6.41109583 C5.30886681,6.40187942 5.70561898,6.60322607 5.94611984,6.94761282" id="Path"></path>
                <path d="M4.88891687,5.82954285 L4.88891687,6.41109583" id="Path"></path>
                <path d="M4.88891687,10.6675917 L4.88891687,11.2491447" id="Path"></path>
            </g>
            <g id="Layer_2-2">
                <rect id="Rectangle" x="0" y="0" width="21.5999994" height="21.5999994"></rect>
            </g>
        </g>
    </g>
</svg>