<?xml version="1.0" encoding="UTF-8"?>
<svg width="126px" height="120px" viewBox="0 0 126 120" version="1.1" xmlns="http://www.w3.org/2000/svg" xmlns:xlink="http://www.w3.org/1999/xlink">
    <!-- Generator: Sketch 57.1 (83088) - https://sketch.com -->
    <title>Reports and Analytics@3x</title>
    <desc>Created with Sketch.</desc>
    <g id="Reports-and-Analytics" stroke="none" stroke-width="1" fill="none" fill-rule="evenodd">
        <g id="1077242_economy_fiance_graphic_infographic_report_icon-copy" transform="translate(1.000000, 1.000000)">
            <g id="circle_back" transform="translate(0.000000, 11.021979)" fill="#89DAF6" fill-rule="nonzero">
                <path d="M109.031735,69.9188693 C108.28101,69.1691873 108.28101,67.9399293 109.031735,67.1902473 L109.031735,67.1902473 C109.782459,66.4405654 111.013427,66.4405654 111.764152,67.1902473 L114.248168,69.6708127 C115.515016,65.0376678 116.19674,60.1592226 116.19674,55.1236749 C116.19674,24.6788693 91.4835428,0 60.9963886,0 C50.5497221,0 40.7820198,2.8995053 32.4550468,7.93229682 L35.9630291,11.4354064 C37.6935601,13.1635336 37.6935601,15.9941343 35.9630291,17.7222615 L35.9630291,17.7222615 C34.2324981,19.4503887 31.39796,19.4503887 29.667429,17.7222615 L25.1492802,13.2103887 C22.8971059,15.1342049 20.8022525,17.2371731 18.8840403,19.4944876 L20.7829324,21.390742 C22.5134634,23.1188693 22.5134634,25.94947 20.7829324,27.6775972 C19.0524014,29.4057244 16.2178633,29.4057244 14.4873323,27.6775972 L13.6289668,26.820424 C8.65541514,35.0944876 5.79603693,44.7769611 5.79603693,55.1264311 C5.79603693,72.2009894 13.5710065,87.4592226 25.7758042,97.5716608 L96.216973,97.5716608 C103.732501,91.3481979 109.561658,83.1678445 112.93716,73.8188693 L109.031735,69.9188693 Z" id="Path"></path>
                <path d="M17.6254723,40.4800707 L17.6254723,40.4800707 C14.9427352,43.1590813 10.5515472,43.1590813 7.86605011,40.4800707 L2.01205282,34.6342049 C-0.670684273,31.9551943 -0.670684273,27.570106 2.01205282,24.8883392 L2.01205282,24.8883392 C4.69478991,22.2093286 9.08597789,22.2093286 11.771475,24.8883392 L17.6254723,30.7342049 C20.3082094,33.4159717 20.3082094,37.8010601 17.6254723,40.4800707 Z" id="Path"></path>
                <path d="M36.0679098,30.3621201 L36.0679098,30.3621201 C34.3373788,32.0902473 31.5028407,32.0902473 29.7723097,30.3621201 L16.5518255,17.16 C14.8212944,15.4318728 14.8212944,12.6012721 16.5518255,10.8731449 L16.5518255,10.8731449 C18.2823565,9.14501767 21.1168945,9.14501767 22.8474256,10.8731449 L36.0679098,24.075265 C37.8012008,25.8061484 37.8012008,28.6339929 36.0679098,30.3621201 Z" id="Path"></path>
                <path d="M14.3244913,8.64890459 L14.3244913,8.64890459 C12.5939602,10.3770318 9.75942218,10.3770318 8.02889115,8.64890459 L7.1567256,7.77795053 C5.42619457,6.04982332 5.42619457,3.21922261 7.1567256,1.49109541 L7.1567256,1.49109541 C8.88725662,-0.237031802 11.7217947,-0.237031802 13.4523257,1.49109541 L14.3244913,2.36204947 C16.0577823,4.09293286 16.0577823,6.92077739 14.3244913,8.64890459 Z" id="Path"></path>
                <path d="M39.2226099,11.9177385 L39.2226099,11.9177385 C38.4718851,12.6674205 37.2409173,12.6674205 36.4901925,11.9177385 L28.6848628,4.12325088 C27.934138,3.3735689 27.934138,2.14431095 28.6848628,1.39462898 L28.6848628,1.39462898 C29.4355875,0.644946996 30.6665554,0.644946996 31.4172802,1.39462898 L39.2226099,9.18911661 C39.9733347,9.93879859 39.9733347,11.1653004 39.2226099,11.9177385 Z" id="Path"></path>
                <path d="M122.702102,71.7792933 L122.702102,71.7792933 C120.971571,73.5074205 118.137033,73.5074205 116.406502,71.7792933 L103.186017,58.5771731 C101.455486,56.8490459 101.455486,54.0184452 103.186017,52.290318 L103.186017,52.290318 C104.916548,50.5621908 107.751086,50.5621908 109.481618,52.290318 L122.702102,65.4924382 C124.432633,67.2205654 124.432633,70.0484099 122.702102,71.7792933 Z" id="Path"></path>
                <path d="M115.647497,86.2327208 L115.647497,86.2327208 C112.96476,88.9117314 108.573572,88.9117314 105.888075,86.2327208 L100.034077,80.3868551 C97.3513402,77.7078445 97.3513402,73.3227562 100.034077,70.6409894 L100.034077,70.6409894 C102.716814,67.9619788 107.108002,67.9619788 109.793499,70.6409894 L115.647497,76.4868551 C118.332994,79.1686219 118.332994,83.5537102 115.647497,86.2327208 Z" id="Path"></path>
            </g>
            <g id="bottom_lines" transform="translate(17.388111, 109.007067)" stroke="#151440" stroke-linecap="round" stroke-width="1.66048685">
                <path d="M22.3561424,0.137809187 L0,0.137809187" id="Path"></path>
                <path d="M81.9725222,0.137809187 L74.5204748,0.137809187" id="Path"></path>
                <path d="M87.7685592,0.137809187 L85.2845433,0.137809187" id="Path"></path>
                <path d="M14.904095,3.99646643 L30.3601934,3.99646643" id="Path"></path>
                <path d="M33.6722145,3.99646643 L33.6722145,3.99646643" id="Path"></path>
                <path d="M36.9842356,3.99646643 L53.2683394,3.99646643" id="Path"></path>
                <path d="M53.2683394,7.85512367 L69.2764414,7.85512367" id="Path"></path>
                <path d="M73.140466,7.85512367 L80.3165117,7.85512367" id="Path"></path>
                <path d="M69.2764414,7.85512367 C69.2764414,6.78848057 70.1403269,5.92579505 71.2084537,5.92579505 C72.2765805,5.92579505 73.140466,6.78848057 73.140466,7.85512367" id="Path"></path>
                <path d="M49.9563183,7.85512367 L49.4043148,7.85512367" id="Path"></path>
            </g>
            <g id="fill_frame" transform="translate(28.704183, 42.445230)" fill="#F2ECE8" fill-rule="nonzero">
                <path d="M57.9603693,0 C62.5337184,0 66.240422,3.70155477 66.240422,8.26855124 L66.240422,58.4310954 C66.240422,62.9980919 62.5337184,66.6996466 57.9603693,66.6996466 L8.28005275,66.6996466 C3.70670362,66.6996466 0,62.9980919 0,58.4310954 L0,8.26855124 C0,3.70155477 3.70670362,0 8.28005275,0 L57.9603693,0 Z" id="Path"></path>
            </g>
            <g id="shadow" transform="translate(33.120211, 100.462898)">
                <path d="M0,7.85512367 L0,5.3745583 L59.8923816,5.3745583 L59.8923816,5.3745583 C59.8923816,6.74438163 58.7800945,7.85512367 57.4083657,7.85512367 L0,7.85512367 Z" id="Path" fill="#B9BDC9" fill-rule="nonzero"></path>
                <path d="M58.7883745,3.72084806 L58.7883745,5.3745583" id="Path" stroke="#B9BDC9" stroke-width="1.66048685" stroke-linecap="round"></path>
                <path d="M55.4763534,0.137809187 L55.4763534,5.3745583" id="Path" stroke="#B9BDC9" stroke-width="1.66048685" stroke-linecap="round"></path>
                <path d="M57.132364,5.3745583 L57.132364,5.3745583" id="Path" stroke="#F2ECE8" stroke-width="1.66048685" stroke-linecap="round"></path>
                <path d="M52.1643323,4.82332155 L52.1643323,5.3745583" id="Path" stroke="#B9BDC9" stroke-width="1.66048685" stroke-linecap="round"></path>
                <path d="M53.8203429,5.3745583 L53.8203429,5.3745583" id="Path" stroke="#F2ECE8" stroke-width="1.66048685" stroke-linecap="round"></path>
                <path d="M48.8523112,3.72084806 L48.8523112,5.3745583" id="Path" stroke="#B9BDC9" stroke-width="1.66048685" stroke-linecap="round"></path>
                <path d="M50.5083218,5.3745583 L50.5083218,5.3745583" id="Path" stroke="#F2ECE8" stroke-width="1.66048685" stroke-linecap="round"></path>
                <path d="M45.5402901,2.34275618 L45.5402901,5.3745583" id="Path" stroke="#B9BDC9" stroke-width="1.66048685" stroke-linecap="round"></path>
                <path d="M47.1963007,5.3745583 L47.1963007,5.3745583" id="Path" stroke="#F2ECE8" stroke-width="1.66048685" stroke-linecap="round"></path>
                <path d="M42.228269,5.3745583 L42.228269,5.3745583" id="Path" stroke="#B9BDC9" stroke-width="1.66048685" stroke-linecap="round"></path>
                <path d="M43.8842796,5.3745583 L43.8842796,5.3745583" id="Path" stroke="#F2ECE8" stroke-width="1.66048685" stroke-linecap="round"></path>
                <path d="M38.9162479,7.30388693 L38.9162479,3.44522968" id="Path" stroke="#B9BDC9" stroke-width="1.66048685" stroke-linecap="round"></path>
                <path d="M40.5722585,5.3745583 L40.5722585,5.3745583" id="Path" stroke="#F2ECE8" stroke-width="1.66048685" stroke-linecap="round"></path>
                <path d="M35.6042268,7.30388693 L35.6042268,4.82332155" id="Path" stroke="#B9BDC9" stroke-width="1.66048685" stroke-linecap="round"></path>
                <path d="M37.2602374,5.3745583 L37.2602374,5.3745583" id="Path" stroke="#F2ECE8" stroke-width="1.66048685" stroke-linecap="round"></path>
                <path d="M32.2922057,7.30388693 L32.2922057,2.61837456" id="Path" stroke="#B9BDC9" stroke-width="1.66048685" stroke-linecap="round"></path>
                <path d="M33.9482163,5.3745583 L33.9482163,5.3745583" id="Path" stroke="#F2ECE8" stroke-width="1.66048685" stroke-linecap="round"></path>
                <path d="M28.9801846,7.30388693 L28.9801846,5.09893993" id="Path" stroke="#B9BDC9" stroke-width="1.66048685" stroke-linecap="round"></path>
                <path d="M30.6361952,5.3745583 L30.6361952,5.3745583" id="Path" stroke="#F2ECE8" stroke-width="1.66048685" stroke-linecap="round"></path>
                <path d="M25.6681635,7.30388693 L25.6681635,3.44522968" id="Path" stroke="#B9BDC9" stroke-width="1.66048685" stroke-linecap="round"></path>
                <path d="M27.3241741,5.3745583 L27.3241741,5.3745583" id="Path" stroke="#F2ECE8" stroke-width="1.66048685" stroke-linecap="round"></path>
                <path d="M22.3561424,7.30388693 L22.3561424,2.34275618" id="Path" stroke="#B9BDC9" stroke-width="1.66048685" stroke-linecap="round"></path>
                <path d="M24.012153,5.3745583 L24.012153,5.3745583" id="Path" stroke="#F2ECE8" stroke-width="1.66048685" stroke-linecap="round"></path>
                <path d="M19.0441213,7.30388693 L19.0441213,5.65017668" id="Path" stroke="#B9BDC9" stroke-width="1.66048685" stroke-linecap="round"></path>
                <path d="M20.7001319,5.3745583 L20.7001319,5.3745583" id="Path" stroke="#F2ECE8" stroke-width="1.66048685" stroke-linecap="round"></path>
                <path d="M15.7321002,7.30388693 L15.7321002,4.82332155" id="Path" stroke="#B9BDC9" stroke-width="1.66048685" stroke-linecap="round"></path>
                <path d="M17.3881108,5.3745583 L17.3881108,5.3745583" id="Path" stroke="#F2ECE8" stroke-width="1.66048685" stroke-linecap="round"></path>
                <path d="M12.4200791,7.30388693 L12.4200791,3.16961131" id="Path" stroke="#B9BDC9" stroke-width="1.66048685" stroke-linecap="round"></path>
                <path d="M14.0760897,5.3745583 L14.0760897,5.3745583" id="Path" stroke="#F2ECE8" stroke-width="1.66048685" stroke-linecap="round"></path>
                <path d="M9.10805803,7.30388693 L9.10805803,0.689045936" id="Path" stroke="#B9BDC9" stroke-width="1.66048685" stroke-linecap="round"></path>
                <path d="M10.7640686,5.3745583 L10.7640686,5.3745583" id="Path" stroke="#F2ECE8" stroke-width="1.66048685" stroke-linecap="round"></path>
                <path d="M5.79603693,7.30388693 L5.79603693,4.82332155" id="Path" stroke="#B9BDC9" stroke-width="1.66048685" stroke-linecap="round"></path>
                <path d="M7.45204748,5.3745583 L7.45204748,5.3745583" id="Path" stroke="#F2ECE8" stroke-width="1.66048685" stroke-linecap="round"></path>
                <path d="M2.48401583,7.30388693 L2.48401583,5.3745583" id="Path" stroke="#B9BDC9" stroke-width="1.66048685" stroke-linecap="round"></path>
                <path d="M4.14002638,5.3745583 L4.14002638,5.3745583" id="Path" stroke="#F2ECE8" stroke-width="1.66048685" stroke-linecap="round"></path>
                <path d="M0.828005275,5.3745583 L0.828005275,5.3745583" id="Path" stroke="#F2ECE8" stroke-width="1.66048685" stroke-linecap="round"></path>
                <path d="M32.2922057,0.137809187 L32.2922057,0.137809187" id="Path" stroke="#B9BDC9" stroke-width="1.66048685" stroke-linecap="round"></path>
                <path d="M52.1643323,2.34275618 L52.1643323,2.34275618" id="Path" stroke="#B9BDC9" stroke-width="1.66048685" stroke-linecap="round"></path>
                <path d="M12.4200791,0.689045936 L12.4200791,0.689045936" id="Path" stroke="#B9BDC9" stroke-width="1.66048685" stroke-linecap="round"></path>
                <path d="M2.48401583,2.89399293 L2.48401583,2.89399293" id="Path" stroke="#B9BDC9" stroke-width="1.66048685" stroke-linecap="round"></path>
            </g>
            <path d="M39.1922497,42.4452297 L38.6402462,42.4452297 C34.066897,42.4452297 30.3601934,46.1467845 30.3601934,50.7137809 L30.3601934,100.876325 C30.3601934,105.443322 34.066897,109.144876 38.6402462,109.144876 L39.4682515,109.144876" id="border_left" stroke="#89DAF6" stroke-width="1.66048685" stroke-linecap="round" stroke-linejoin="round"></path>
            <path d="M29.5321881,57.8798587 L29.5321881,66.1484099" id="border_left_1_" stroke="#89DAF6" stroke-width="1.66048685" stroke-linecap="round" stroke-linejoin="round"></path>
            <g id="frame_1_" transform="translate(28.566182, 42.445230)" stroke="#151440" stroke-linecap="round" stroke-linejoin="round" stroke-width="1.66048685">
                <path d="M66.3784229,53.4699647 L66.3784229,58.4310954 C66.3784229,62.9980919 62.6717193,66.6996466 58.0983701,66.6996466 L8.41805363,66.6996466 C3.84470449,66.6996466 0.138000879,62.9980919 0.138000879,58.4310954 L0.138000879,53.1943463" id="Path"></path>
                <path d="M66.3784229,50.1625442 L66.3784229,50.1625442" id="Path"></path>
                <path d="M66.3784229,18.4664311 L66.3784229,46.8551237" id="Path"></path>
                <path d="M51.1983262,0 L58.0983701,0 C62.6717193,0 66.3784229,3.70155477 66.3784229,8.26855124 L66.3784229,11.5759717" id="Path"></path>
                <path d="M0.138000879,16.2614841 L0.138000879,8.26855124 C0.138000879,3.70155477 3.84470449,0 8.41805363,0 L47.8863051,0" id="Path"></path>
                <path d="M0.138000879,19.5689046 L0.138000879,19.5689046" id="Path"></path>
                <path d="M0.138000879,46.3038869 L0.138000879,22.8763251" id="Path"></path>
            </g>
            <ellipse id="point_3_" stroke="#151440" stroke-width="1.66048685" fill="#F46B85" fill-rule="nonzero" stroke-linecap="round" cx="28.7041829" cy="92.3321555" rx="3.3120211" ry="3.30742049"></ellipse>
            <path d="M31.4642005,90.4028269 L52.1643323,75.5194346" id="curve_2_" stroke="#151440" stroke-width="1.66048685" stroke-linecap="round"></path>
            <ellipse id="point_2_" stroke="#151440" stroke-width="1.66048685" fill="#F46B85" fill-rule="nonzero" stroke-linecap="round" cx="55.2003517" cy="74.1413428" rx="3.3120211" ry="3.30742049"></ellipse>
            <path d="M58.236371,75.5194346 L65.4124167,81.3074205" id="curve_1_" stroke="#151440" stroke-width="1.66048685" stroke-linecap="round"></path>
            <ellipse id="point_1_" stroke="#151440" stroke-width="1.66048685" fill="#F46B85" fill-rule="nonzero" stroke-linecap="round" cx="68.4484361" cy="83.2367491" rx="3.3120211" ry="3.30742049"></ellipse>
            <ellipse id="point" stroke="#151440" stroke-width="1.66048685" fill="#F46B85" fill-rule="nonzero" stroke-linecap="round" cx="94.9446049" cy="57.3286219" rx="3.3120211" ry="3.30742049"></ellipse>
            <path d="M71.2084537,81.3074205 L92.4605891,59.5335689" id="curve" stroke="#151440" stroke-width="1.66048685" stroke-linecap="round"></path>
            <g id="vertical_line" transform="translate(41.818406, 79.653710)" stroke="#151440" stroke-linecap="round" stroke-width="1.66048685">
                <path d="M0.142140906,16.2614841 L0.133860853,7.44169611" id="Path"></path>
                <path d="M0.133860853,29.4911661 L0.142140906,19.5689046" id="Path"></path>
                <path d="M13.3819453,29.4911661 L13.3819453,1.92932862" id="Path"></path>
                <path d="M26.6300297,29.4911661 L26.6300297,12.1272085" id="Path"></path>
                <path d="M39.8781141,24.5300353 L39.8781141,0" id="Path"></path>
                <path d="M39.8781141,29.4911661 L39.8781141,27.8374558" id="Path"></path>
            </g>
            <g id="circles_x2C__stars" transform="translate(16.559024, 0.000000)">
                <ellipse id="Oval" stroke="#FFFFFF" stroke-width="1.66048685" cx="10.4891481" cy="39.9646643" rx="2.20801407" ry="2.204947"></ellipse>
                <ellipse id="Oval" stroke="#FFFFFF" stroke-width="1.66048685" cx="87.7696405" cy="51.2650177" rx="2.20801407" ry="2.204947"></ellipse>
                <ellipse id="Oval" stroke="#FFFFFF" stroke-width="1.10699123" cx="85.8376282" cy="71.6607774" rx="1.38000879" ry="1.37809187"></ellipse>
                <path d="M40.7969012,25.3568905 L40.7969012,25.3568905 C40.2145375,25.3568905 39.7453345,24.885583 39.7453345,24.3067845 L39.7453345,24.3067845 C39.7453345,23.730742 39.3285719,23.2153357 38.7544882,23.1574558 C38.097604,23.0913074 37.5373205,23.60947 37.5373205,24.254417 L37.5373205,24.3067845 C37.5373205,24.885583 37.0653575,25.3568905 36.4857538,25.3568905 L36.4857538,25.3568905 C35.9089101,25.3568905 35.3927868,25.7730742 35.3348264,26.3463604 C35.268586,27.0023322 35.7874693,27.5618375 36.4333134,27.5618375 L36.4857538,27.5618375 C37.0681175,27.5618375 37.5373205,28.0331449 37.5373205,28.6119435 L37.5373205,28.6119435 C37.5373205,29.1879859 37.9540831,29.7033922 38.5281668,29.7612721 C39.185051,29.8274205 39.7453345,29.309258 39.7453345,28.664311 L39.7453345,28.6119435 C39.7453345,28.0331449 40.2172975,27.5618375 40.7969012,27.5618375 L40.8493416,27.5618375 C41.4951857,27.5618375 42.014069,27.0023322 41.9478286,26.3463604 C41.8898682,25.7730742 41.3737449,25.3568905 40.7969012,25.3568905 Z" id="Path" fill="#FFFFFF" fill-rule="nonzero"></path>
                <path d="M4.10246745,63.6678445 L4.10246745,63.6678445 C3.66638467,63.6678445 3.31310242,63.315053 3.31310242,62.879576 L3.31310242,62.879576 C3.31310242,62.4496113 2.99846042,62.0609894 2.57065769,62.0168905 C2.07661454,61.9700353 1.65709187,62.3586572 1.65709187,62.8409894 L1.65709187,62.879576 C1.65709187,63.315053 1.30380962,63.6678445 0.867726843,63.6678445 L0.867726843,63.6678445 C0.4371641,63.6678445 0.0480016203,63.9820495 0.00384133898,64.409258 C-0.0430789599,64.9026148 0.346083519,65.3215548 0.829086597,65.3215548 L0.867726843,65.3215548 C1.30380962,65.3215548 1.65709187,65.6743463 1.65709187,66.1098233 L1.65709187,66.1098233 C1.65709187,66.539788 1.97173388,66.9284099 2.3995366,66.9725088 C2.89357975,67.0221201 3.31310242,66.6334982 3.31310242,66.1511661 L3.31310242,66.1125795 C3.31310242,65.6771025 3.66638467,65.324311 4.10246745,65.324311 L4.1411077,65.324311 C4.62411077,65.324311 5.01327325,64.905371 4.96359294,64.4120141 C4.92219267,63.9820495 4.53303019,63.6678445 4.10246745,63.6678445 Z" id="Path" fill="#FFFFFF" fill-rule="nonzero"></path>
                <path d="M71.1708947,32.5229682 L71.1708947,32.5229682 C70.734812,32.5229682 70.3815297,32.1701767 70.3815297,31.7346996 L70.3815297,31.7346996 C70.3815297,31.304735 70.0668877,30.9161131 69.639085,30.8720141 C69.1450418,30.8224028 68.7255192,31.2110247 68.7255192,31.6933569 L68.7255192,31.7319435 C68.7255192,32.1674205 68.3722369,32.520212 67.9361541,32.520212 L67.9361541,32.520212 C67.5055914,32.520212 67.1164289,32.834417 67.0722686,33.2616254 C67.0225883,33.7549823 67.4117508,34.1739223 67.8947539,34.1739223 L67.9333941,34.1739223 C68.3694769,34.1739223 68.7227591,34.5267138 68.7227591,34.9621908 L68.7227591,34.9621908 C68.7227591,35.3921555 69.0374011,35.7807774 69.4652039,35.8248763 C69.959247,35.8744876 70.3787697,35.4858657 70.3787697,35.0035336 L70.3787697,34.964947 C70.3787697,34.52947 70.7320519,34.1766784 71.1681347,34.1766784 L71.209535,34.1766784 C71.6925381,34.1766784 72.0817005,33.7577385 72.0320202,33.2643816 C71.99062,32.8371731 71.6014575,32.5229682 71.1708947,32.5229682 Z" id="Path" fill="#FFFFFF" fill-rule="nonzero"></path>
                <ellipse id="Oval" stroke="#89DAF6" stroke-width="1.66048685" cx="58.7894559" cy="2.204947" rx="2.20801407" ry="2.204947"></ellipse>
                <path d="M29.770631,3.62162544 L29.770631,3.62162544 C29.3345482,3.62162544 28.981266,3.26883392 28.981266,2.83335689 L28.981266,2.83335689 C28.981266,2.40339223 28.6666239,2.01477032 28.2388212,1.97067138 C27.7447781,1.92106007 27.3252554,2.30968198 27.3252554,2.79201413 L27.3252554,2.83060071 C27.3252554,3.26607774 26.9719732,3.61886926 26.5358904,3.61886926 L26.5358904,3.61886926 C26.1053276,3.61886926 25.7161652,3.9330742 25.6720049,4.36028269 C25.6223246,4.85363958 26.011487,5.27257951 26.4944901,5.27257951 L26.5331304,5.27257951 C26.9692131,5.27257951 27.3224954,5.62537102 27.3224954,6.06084806 L27.3224954,6.06084806 C27.3224954,6.49081272 27.6371374,6.87943463 28.0649401,6.92353357 C28.5589833,6.97314488 28.9785059,6.58452297 28.9785059,6.10219081 L28.9785059,6.06360424 C28.9785059,5.62812721 29.3317882,5.27533569 29.767871,5.27533569 L29.8092712,5.27533569 C30.2922743,5.27533569 30.6814368,4.85639576 30.6317565,4.36303887 C30.5903562,3.93583039 30.2011937,3.62162544 29.770631,3.62162544 Z" id="Path" fill="#89DAF6" fill-rule="nonzero"></path>
                <path d="M85.2331843,11.8515901 L85.2331843,11.8515901 C84.6508206,11.8515901 84.1816176,11.3802827 84.1816176,10.8014841 L84.1816176,10.8014841 C84.1816176,10.2254417 83.764855,9.71003534 83.1907713,9.65215548 C82.5338871,9.58600707 81.9736036,10.1041696 81.9736036,10.7491166 L81.9736036,10.8014841 C81.9736036,11.3802827 81.5016406,11.8515901 80.9220369,11.8515901 L80.9220369,11.8515901 C80.3451932,11.8515901 79.8290699,12.2677739 79.7711095,12.8410601 C79.7048691,13.4970318 80.2237524,14.0565371 80.8695965,14.0565371 L80.9220369,14.0565371 C81.5044006,14.0565371 81.9736036,14.5278445 81.9736036,15.1066431 L81.9736036,15.1066431 C81.9736036,15.6826855 82.3903662,16.1980919 82.9644499,16.2559717 C83.6213341,16.3221201 84.1816176,15.8039576 84.1816176,15.1590106 L84.1816176,15.1066431 C84.1816176,14.5278445 84.6535806,14.0565371 85.2331843,14.0565371 L85.2856247,14.0565371 C85.9314688,14.0565371 86.4503521,13.4970318 86.3841117,12.8410601 C86.3261513,12.2677739 85.810028,11.8515901 85.2331843,11.8515901 Z" id="Path" fill="#89DAF6" fill-rule="nonzero"></path>
            </g>
        </g>
    </g>
</svg>