<?xml version="1.0" encoding="UTF-8"?>
<svg width="25px" height="25px" viewBox="0 0 25 25" version="1.1" xmlns="http://www.w3.org/2000/svg" xmlns:xlink="http://www.w3.org/1999/xlink">
    <!-- Generator: Sketch 57.1 (83088) - https://sketch.com -->
    <title>Search@1x</title>
    <desc>Created with Sketch.</desc>
    <g id="Search" stroke="none" stroke-width="1" fill="none" fill-rule="evenodd">
        <g id="iconfinder_search_285296-copy" transform="translate(3.000000, 3.000000)" fill="#909090" fill-rule="nonzero">
            <path d="M19,18.1122146 L18.1128183,19 L12.507299,13.3940343 C11.1825423,14.5167472 9.4715038,15.1968339 7.5989868,15.1968339 C3.40181309,15.1968339 0,11.7951341 0,7.59873354 C0,3.40233294 3.40181309,0 7.5989868,0 C11.7955273,0 15.1979736,3.40233294 15.1979736,7.59873354 C15.1979736,9.47118814 14.5178643,11.1821696 13.3944807,12.5068822 L19,18.1122146 Z M7.5989868,1.26645559 C4.10218638,1.26645559 1.2664978,4.10204966 1.2664978,7.59873354 C1.2664978,11.0954174 4.10218638,13.9310115 7.5989868,13.9310115 C11.0957872,13.9310115 13.9314758,11.0954174 13.9314758,7.59873354 C13.9314758,4.10204966 11.0964205,1.26645559 7.5989868,1.26645559 Z" id="Shape"></path>
        </g>
    </g>
</svg>