<?xml version="1.0" encoding="UTF-8"?>
<svg width="39px" height="26px" viewBox="0 0 39 26" version="1.1" xmlns="http://www.w3.org/2000/svg" xmlns:xlink="http://www.w3.org/1999/xlink">
    <!-- Generator: Sketch 57.1 (83088) - https://sketch.com -->
    <title>Set Commision@1x</title>
    <desc>Created with Sketch.</desc>
    <g id="Set-Commision" stroke="none" stroke-width="1" fill="none" fill-rule="evenodd">
        <g id="1177634_advantage_benefit_coupon_discount_get_icon-copy" transform="translate(5.000000, 1.000000)" fill="#5F7AC0" fill-rule="nonzero">
            <path d="M25.9495856,17.3256741 C25.7087547,17.1688027 25.2805739,17.3838106 24.9925733,17.805382 C24.9663311,17.844681 24.5600742,18.138287 24.5378181,18.1779108 L22.3979107,19.5942997 L17.9722687,20.7342962 L17.0860108,20.748262 L16.9524742,20.7096125 C16.238286,20.3767076 15.2845955,20.0934947 14.2123165,19.9177859 L14.0904062,19.8827091 L16.9896785,19.4023515 L17.8251127,19.3156338 C17.8981924,19.3114116 17.9719365,19.3052407 18.0470093,19.2948476 C18.0576391,19.2932237 19.5996214,19.0567799 19.5996214,19.0567799 C20.3167993,18.9057547 20.8316792,18.4984739 20.7622535,18.1230221 C20.7336859,17.9668003 20.6071251,17.8404588 20.4191109,17.752442 L18.9980423,17.3896568 C18.7827893,17.287999 17.8995211,17.2132983 17.7443928,17.2353837 C17.7115069,17.2399307 17.6799497,17.2461016 17.6477282,17.2519478 L16.391089,17.3448364 L14.5341995,16.8852651 L13.1529926,16.360412 C12.7082028,16.1223444 12.1807,15.9122082 11.5947334,15.7449438 L11.1090854,15.6199014 C10.8097907,15.5500726 10.4978731,15.4916112 10.1766545,15.4464661 C8.19386853,15.1661763 6.81565124,15.4925856 5.88953175,16.1197461 L5.4899185,16.1411819 L1.74225704,15.611457 C1.3064361,15.5500726 0.510199219,15.9446868 0.447417086,16.3708052 L0.00395599403,19.3604542 C-0.0588261381,19.7865726 0.640081831,20.0502983 1.07590277,20.1116827 L6.19048737,20.8346549 L6.18052195,20.9275435 C6.2771865,21.0762952 7.40194999,21.6066696 7.63746603,21.6982591 C7.63746603,21.6982591 14.5391822,24.2156703 14.632525,23.9850727 L15.4084988,23.9870214 L19.1136412,23.3601857 L21.7239163,22.4192826 L23.3971099,21.256551 L24.9766287,19.5858553 L25.6738757,18.6040292 C25.7416406,18.5364738 25.8064158,18.4591749 25.8655439,18.3731068 C25.9103883,18.3071754 25.946596,18.2409192 25.9794819,18.1740134 L25.9838002,18.1675177 L25.9828037,18.1662185 C26.1555376,17.8079803 26.1515514,17.4568873 25.9495856,17.3256741 Z" id="Path"></path>
            <g id="Group" transform="translate(12.390970, 0.000000)">
                <path d="M6.47818593,5.72564079 C6.47818593,5.00916433 5.88225395,4.42649942 5.14946356,4.42649942 C4.41667317,4.42649942 3.82074119,5.00916433 3.82074119,5.72564079 C3.82074119,6.44211725 4.41667317,7.02478216 5.14946356,7.02478216 C5.88225395,7.02478216 6.47818593,6.44211725 6.47818593,5.72564079 Z" id="Path"></path>
                <path d="M11.4595661,9.29795476 C10.7267757,9.29795476 10.1308437,9.88061967 10.1308437,10.5970961 C10.1308437,11.3135726 10.7267757,11.8962375 11.4595661,11.8962375 C12.1923565,11.8962375 12.7882885,11.3135726 12.7882885,10.5970961 C12.7882885,9.88061967 12.1923565,9.29795476 11.4595661,9.29795476 Z" id="Path"></path>
                <path d="M8.30451484,0 C3.71809738,0 0,3.63499755 0,8.11963354 C0,12.6042695 3.71809738,16.2392671 8.30451484,16.2392671 C12.8909323,16.2392671 16.6090297,12.6042695 16.6090297,8.11963354 C16.6090297,3.63499755 12.8909323,0 8.30451484,0 Z M3.15638,5.72564079 C3.15638,4.64930217 4.04861707,3.77692874 5.14946356,3.77692874 C6.25031005,3.77692874 7.14254712,4.64930217 7.14254712,5.72564079 C7.14254712,6.80132984 6.25031005,7.67435284 5.14946356,7.67435284 C4.04861707,7.67435284 3.15638,6.80100506 3.15638,5.72564079 Z M5.15643935,12.4909195 L4.64753868,12.0732455 L11.8389164,3.69345891 L12.347817,4.11080807 L5.15643935,12.4909195 Z M11.4595661,12.5458082 C10.3587196,12.5458082 9.46648255,11.6727852 9.46648255,10.5970961 C9.46648255,9.52140708 10.3587196,8.64838408 11.4595661,8.64838408 C12.5604126,8.64838408 13.4526497,9.52140708 13.4526497,10.5970961 C13.4526497,11.6727852 12.5607448,12.5458082 11.4595661,12.5458082 Z" id="Shape"></path>
            </g>
        </g>
    </g>
</svg>