<?xml version="1.0" encoding="UTF-8"?>
<svg width="33px" height="28px" viewBox="0 0 33 28" version="1.1" xmlns="http://www.w3.org/2000/svg" xmlns:xlink="http://www.w3.org/1999/xlink">
    <!-- Generator: Sketch 57.1 (83088) - https://sketch.com -->
    <title>Testimonial Management icon@1x</title>
    <desc>Created with Sketch.</desc>
    <g id="Testimonial-Management-icon" stroke="none" stroke-width="1" fill="none" fill-rule="evenodd">
        <g id="2634166_business_customer_happy_message_smile_icon-copy" transform="translate(1.000000, 2.000000)" fill="#AC6BEC" fill-rule="nonzero">
            <path d="M5.80113333,24 L11.7762111,24 C14.9798889,24 17.5773444,24.0079375 17.5773444,20.7976761 C17.5773444,17.768255 15.2640556,15.2803197 12.3101,15.0097494 C12.2870222,16.0695981 10.7194556,16.9251386 8.78884444,16.9251386 C6.85788889,16.9251386 5.29032222,16.0695981 5.26724444,15.0097494 C2.31363333,15.2803197 0,17.768255 0,20.7976761 C0,24.0082826 2.59745556,24 5.80113333,24 Z" id="Path"></path>
            <path d="M8.78884444,4.36363633 C6.56614444,4.36363633 4.72474444,6.0864513 4.40027778,8.33522181 C4.36652222,8.56713921 4.34964444,8.80388823 4.34964444,9.04581397 C4.34964444,9.14417179 4.35343333,9.24080404 4.3586,9.33778141 C4.36721111,9.47927863 4.3803,9.61836005 4.40027778,9.75606101 C4.40337778,9.79851017 4.40716667,9.83957888 4.41095556,9.88133782 C4.69098889,13.0553621 6.5441,15.5070604 8.78884444,15.5070604 C11.0332444,15.5070604 12.8867,13.0553621 13.1667333,9.88133782 C13.1701778,9.83957888 13.1739667,9.79816506 13.1770667,9.75606101 C13.1970444,9.61836005 13.2101333,9.47927863 13.2184,9.33778141 C13.2242556,9.24114916 13.2277,9.14417179 13.2277,9.04581397 C13.2277,8.80423334 13.2101333,8.56713921 13.1770667,8.33522181 C12.8526,6.0864513 11.0115444,4.36363633 8.78884444,4.36363633 Z" id="Path"></path>
            <path d="M17.0634333,8.29104707 L17.0634333,9.16384336 L17.0634333,12.7119725 C17.0634333,13.1972045 17.3865222,13.3645853 17.7816,13.0843518 L21.4602667,10.4728652 L29.6935222,10.4728652 C30.4151333,10.4728652 31,9.88651455 31,9.16384336 L31,1.30902188 C31,0.586005575 30.4151333,0 29.6935222,0 L18.3699111,0 C17.6483,0 17.0634333,0.586005575 17.0634333,1.30902188 L17.0634333,8.29104707 Z M25.7289667,1.91953063 C26.2583778,1.91953063 26.6879,2.5873285 26.6879,3.41111843 C26.6879,4.23490837 26.2583778,4.90305135 25.7289667,4.90305135 C25.2005889,4.90305135 24.7710667,4.23490837 24.7710667,3.41111843 C24.7710667,2.5873285 25.2005889,1.91953063 25.7289667,1.91953063 Z M22.3816556,1.91953063 C22.9110667,1.91953063 23.3405889,2.5873285 23.3405889,3.41111843 C23.3405889,4.23490837 22.9110667,4.90305135 22.3816556,4.90305135 C21.8525889,4.90305135 21.4237556,4.23490837 21.4237556,3.41111843 C21.4237556,2.5873285 21.8522444,1.91953063 22.3816556,1.91953063 Z M21.2525667,6.36668483 C21.4306444,6.26246005 21.6579778,6.3228552 21.762,6.50093463 C22.2301,7.30677858 23.1153222,7.8075407 24.0721889,7.8075407 C25.0046,7.8075407 25.8791444,7.32575991 26.3537889,6.54994099 C26.4619444,6.37427736 26.6903111,6.31940405 26.8652889,6.42707999 C27.0409556,6.53510104 27.0957222,6.76460263 26.9882556,6.94026626 C26.3782444,7.93523332 25.2608667,8.55333461 24.0718444,8.55333461 C22.8518222,8.55333461 21.7199778,7.91073014 21.1182333,6.87641995 C21.0152444,6.69834052 21.0751778,6.46987427 21.2525667,6.36668483 Z" id="Shape"></path>
        </g>
    </g>
</svg>