<?xml version="1.0" encoding="UTF-8"?>
<svg width="126px" height="120px" viewBox="0 0 126 120" version="1.1" xmlns="http://www.w3.org/2000/svg" xmlns:xlink="http://www.w3.org/1999/xlink">
    <!-- Generator: Sketch 57.1 (83088) - https://sketch.com -->
    <title>Testimonial Management@3x</title>
    <desc>Created with Sketch.</desc>
    <g id="Testimonial-Management" stroke="none" stroke-width="1" fill="none" fill-rule="evenodd">
        <g id="1077231_best_follow_good_like_social_icon-copy" transform="translate(1.000000, 2.000000)">
            <g id="circle_back" transform="translate(0.000000, 11.021979)" fill="#B7EDAD" fill-rule="nonzero">
                <path d="M109.031735,69.9188693 C108.28101,69.1691873 108.28101,67.9399293 109.031735,67.1902473 L109.031735,67.1902473 C109.782459,66.4405654 111.013427,66.4405654 111.764152,67.1902473 L114.248168,69.6708127 C115.515016,65.0376678 116.19674,60.1592226 116.19674,55.1236749 C116.19674,24.6788693 91.4835428,0 60.9963886,0 C50.5497221,0 40.7820198,2.8995053 32.4550468,7.93229682 L35.9630291,11.4354064 C37.6935601,13.1635336 37.6935601,15.9941343 35.9630291,17.7222615 L35.9630291,17.7222615 C34.2324981,19.4503887 31.39796,19.4503887 29.667429,17.7222615 L25.1492802,13.2103887 C22.8971059,15.1342049 20.8022525,17.2371731 18.8840403,19.4944876 L20.7829324,21.390742 C22.5134634,23.1188693 22.5134634,25.94947 20.7829324,27.6775972 C19.0524014,29.4057244 16.2178633,29.4057244 14.4873323,27.6775972 L13.6289668,26.820424 C8.65541514,35.0944876 5.79603693,44.7769611 5.79603693,55.1264311 C5.79603693,72.2009894 13.5710065,87.4592226 25.7758042,97.5716608 L96.216973,97.5716608 C103.732501,91.3481979 109.561658,83.1678445 112.93716,73.8188693 L109.031735,69.9188693 Z" id="Path"></path>
                <path d="M17.6254723,40.4800707 L17.6254723,40.4800707 C14.9427352,43.1590813 10.5515472,43.1590813 7.86605011,40.4800707 L2.01205282,34.6342049 C-0.670684273,31.9551943 -0.670684273,27.570106 2.01205282,24.8883392 L2.01205282,24.8883392 C4.69478991,22.2093286 9.08597789,22.2093286 11.771475,24.8883392 L17.6254723,30.7342049 C20.3082094,33.4159717 20.3082094,37.8010601 17.6254723,40.4800707 Z" id="Path"></path>
                <path d="M36.0679098,30.3621201 L36.0679098,30.3621201 C34.3373788,32.0902473 31.5028407,32.0902473 29.7723097,30.3621201 L16.5518255,17.16 C14.8212944,15.4318728 14.8212944,12.6012721 16.5518255,10.8731449 L16.5518255,10.8731449 C18.2823565,9.14501767 21.1168945,9.14501767 22.8474256,10.8731449 L36.0679098,24.075265 C37.8012008,25.8061484 37.8012008,28.6339929 36.0679098,30.3621201 Z" id="Path"></path>
                <path d="M14.3244913,8.64890459 L14.3244913,8.64890459 C12.5939602,10.3770318 9.75942218,10.3770318 8.02889115,8.64890459 L7.1567256,7.77795053 C5.42619457,6.04982332 5.42619457,3.21922261 7.1567256,1.49109541 L7.1567256,1.49109541 C8.88725662,-0.237031802 11.7217947,-0.237031802 13.4523257,1.49109541 L14.3244913,2.36204947 C16.0577823,4.09293286 16.0577823,6.92077739 14.3244913,8.64890459 Z" id="Path"></path>
                <path d="M39.2226099,11.9177385 L39.2226099,11.9177385 C38.4718851,12.6674205 37.2409173,12.6674205 36.4901925,11.9177385 L28.6848628,4.12325088 C27.934138,3.3735689 27.934138,2.14431095 28.6848628,1.39462898 L28.6848628,1.39462898 C29.4355875,0.644946996 30.6665554,0.644946996 31.4172802,1.39462898 L39.2226099,9.18911661 C39.9733347,9.93879859 39.9733347,11.1653004 39.2226099,11.9177385 Z" id="Path"></path>
                <path d="M122.702102,71.7792933 L122.702102,71.7792933 C120.971571,73.5074205 118.137033,73.5074205 116.406502,71.7792933 L103.186017,58.5771731 C101.455486,56.8490459 101.455486,54.0184452 103.186017,52.290318 L103.186017,52.290318 C104.916548,50.5621908 107.751086,50.5621908 109.481618,52.290318 L122.702102,65.4924382 C124.432633,67.2205654 124.432633,70.0484099 122.702102,71.7792933 Z" id="Path"></path>
                <path d="M115.647497,86.2327208 L115.647497,86.2327208 C112.96476,88.9117314 108.573572,88.9117314 105.888075,86.2327208 L100.034077,80.3868551 C97.3513402,77.7078445 97.3513402,73.3227562 100.034077,70.6409894 L100.034077,70.6409894 C102.716814,67.9619788 107.108002,67.9619788 109.793499,70.6409894 L115.647497,76.4868551 C118.332994,79.1686219 118.332994,83.5537102 115.647497,86.2327208 Z" id="Path"></path>
            </g>
            <g id="bottom_lines" transform="translate(17.388111, 109.007067)" stroke="#151440" stroke-linecap="round" stroke-width="1.65371025">
                <path d="M2.48401583,0.137809187 L0,0.137809187" id="Path"></path>
                <path d="M81.9725222,0.137809187 L5.79603693,0.137809187" id="Path"></path>
                <path d="M87.7685592,0.137809187 L85.2845433,0.137809187" id="Path"></path>
                <path d="M14.904095,3.99646643 L30.3601934,3.99646643" id="Path"></path>
                <path d="M33.6722145,3.99646643 L33.6722145,3.99646643" id="Path"></path>
                <path d="M36.9842356,3.99646643 L53.2683394,3.99646643" id="Path"></path>
                <path d="M53.2683394,7.85512367 L69.2764414,7.85512367" id="Path"></path>
                <path d="M73.140466,7.85512367 L80.3165117,7.85512367" id="Path"></path>
                <path d="M69.2764414,7.85512367 C69.2764414,6.78848057 70.1403269,5.92579505 71.2084537,5.92579505 C72.2765805,5.92579505 73.140466,6.78848057 73.140466,7.85512367" id="Path"></path>
                <path d="M49.9563183,7.85512367 L49.4043148,7.85512367" id="Path"></path>
            </g>
            <path d="M46.9202989,109.144876 L44.1685614,107.90735 C42.3441898,107.086007 40.3652572,106.664311 38.3642444,106.664311 L38.3642444,106.664311 L38.3642444,74.6925795 L38.3642444,74.6925795 C43.4537168,74.6925795 48.3030677,72.5151943 51.6813293,68.714417 L58.6172534,60.9089046 C60.8390676,58.4090459 61.8685542,55.0740636 61.4462715,51.7611307 C61.2006299,49.8345583 60.9301482,47.7315901 60.7231469,46.1219788 C60.5409857,44.6970318 61.6532728,43.4346971 63.091242,43.4346971 L63.2237228,43.4346971 C66.4722635,43.4319435 69.3040415,45.645159 70.0823665,48.795477 L70.1320468,48.9911661 C71.4761754,54.434629 70.7999711,60.1785159 68.2248747,65.1589399 L66.3177025,68.8467138 C65.6525383,70.1310954 66.5881842,71.6607774 68.0344334,71.6607774 L80.8685152,71.6607774 L80.8685152,109.144876 L46.9202989,109.144876 L46.9202989,109.144876 Z" id="fill_arm" fill="#F2ECE8" fill-rule="nonzero"></path>
            <g id="border_left_3_" transform="translate(38.640246, 43.823322)" stroke="#B7EDAD" stroke-linecap="round" stroke-linejoin="round" stroke-width="1.65371025">
                <path d="M26.7721706,0 L25.900005,0 C24.5696765,0 23.54295,1.16586572 23.7113111,2.48332155 C23.9183124,4.10671378 24.1970742,6.28685512 24.4509958,8.27957597 C24.8732785,11.6007774 23.8382719,14.9385159 21.6081777,17.4383746 L15.6244595,24.1469258 C11.6555543,28.5981625 5.96991803,31.1448763 0,31.1448763 L0,31.1448763" id="arm_2_"></path>
            </g>
            <g id="border_left_4_" transform="translate(38.364244, 43.431943)" stroke="#B7EDAD" stroke-linecap="round" stroke-linejoin="round" stroke-width="1.65371025">
                <path d="M24.8594784,0 L24.7269975,0 C23.2890284,0 22.1767413,1.26233216 22.3589024,2.68727915 C22.5659038,4.29689046 22.8336255,6.39985866 23.0820271,8.3264311 C23.5070698,11.6421201 22.4748232,14.9771025 20.253009,17.4742049 L13.3170848,25.2797173 C9.93882332,29.0832509 5.08947242,31.260636 0,31.260636 L0,31.260636" id="arm_5_"></path>
            </g>
            <g id="arm_3_" transform="translate(38.226244, 43.434697)" stroke="#151440" stroke-linecap="round" stroke-linejoin="round" stroke-width="1.65371025">
                <path d="M0.138000879,55.5122994 L0.138000879,63.2296139 L0.138000879,63.2296139 C2.13901363,63.2296139 4.11794624,63.6540662 5.94231786,64.4726527 L8.69405539,65.7101792 L50.6463227,65.7101792" id="arm_9_"></path>
                <path d="M0.138000879,52.2048789 L0.138000879,52.2048789" id="arm_8_"></path>
                <path d="M15.8701011,22.5621227 L13.4550857,25.2797199 C10.0768242,29.0804973 5.2274733,31.2578824 0.138000879,31.2578824 L0.138000879,31.2578824 L0.138000879,48.8974584" id="arm_6_"></path>
                <path d="M18.1829958,19.9575291 L18.0781152,20.076045" id="arm_4_"></path>
                <path d="M42.6395117,28.2260803 L29.8054299,28.2260803 C28.3591807,28.2260803 27.4235347,26.6963983 28.088699,25.4120167 L29.9958711,21.7242429 C32.5709675,16.7438188 33.2499318,10.9999319 31.9030433,5.556469 L31.8533629,5.36077996 C31.075038,2.21046194 28.2432599,-0.00275361237 24.9947192,0 L24.8622384,0 C23.4242692,0 22.3119821,1.26233473 22.4941433,2.68728172 C22.7011446,4.29689303 22.9688663,6.39986123 23.2172679,8.32643367 C23.6423106,11.6421227 22.610064,14.977105 20.3882499,17.4742075" id="arm_1_"></path>
            </g>
            <g id="fill_fingers" transform="translate(70.104447, 71.660777)" fill="#F2ECE8" fill-rule="nonzero">
                <path d="M21.8041389,9.37102473 L8.55605451,9.37102473 C5.97543807,9.37102473 3.86402462,7.26254417 3.86402462,4.68551237 L3.86402462,4.68551237 C3.86402462,2.10848057 5.97543807,0 8.55605451,0 L21.8041389,0 C24.3847554,0 26.4961688,2.10848057 26.4961688,4.68551237 L26.4961688,4.68551237 C26.4961688,7.26254417 24.3847554,9.37102473 21.8041389,9.37102473 Z" id="Path"></path>
                <path d="M20.1481284,18.7420495 L6.90004396,18.7420495 C4.31942752,18.7420495 2.20801407,16.6335689 2.20801407,14.0565371 L2.20801407,14.0565371 C2.20801407,11.4795053 4.31942752,9.37102473 6.90004396,9.37102473 L20.1481284,9.37102473 C22.7287448,9.37102473 24.8401583,11.4795053 24.8401583,14.0565371 L24.8401583,14.0565371 C24.8401583,16.6335689 22.7287448,18.7420495 20.1481284,18.7420495 Z" id="Path"></path>
                <path d="M19.0441213,28.1130742 L5.79603693,28.1130742 C3.21542049,28.1130742 1.10400703,26.0045936 1.10400703,23.4275618 L1.10400703,23.4275618 C1.10400703,20.85053 3.21542049,18.7420495 5.79603693,18.7420495 L19.0441213,18.7420495 C21.6247378,18.7420495 23.7361512,20.85053 23.7361512,23.4275618 L23.7361512,23.4275618 C23.7361512,26.0045936 21.6247378,28.1130742 19.0441213,28.1130742 Z" id="Path"></path>
                <path d="M17.9401143,37.4840989 L4.69202989,37.4840989 C2.11141345,37.4840989 0,35.3756184 0,32.7985866 L0,32.7985866 C0,30.2215548 2.11141345,28.1130742 4.69202989,28.1130742 L17.9401143,28.1130742 C20.5207307,28.1130742 22.6321442,30.2215548 22.6321442,32.7985866 L22.6321442,32.7985866 C22.6321442,35.3756184 20.5207307,37.4840989 17.9401143,37.4840989 Z" id="Path"></path>
            </g>
            <g id="shadow_fingers" transform="translate(86.388550, 71.660777)" stroke="#B9BDC9" stroke-linecap="round" stroke-width="1.65371025">
                <path d="M3.86402462,9.37102473 C6.45568113,9.37102473 8.55605451,7.2735689 8.55605451,4.68551237 C8.55605451,2.09745583 6.45568113,0 3.86402462,0" id="Path"></path>
                <path d="M2.20801407,18.7420495 C4.79967058,18.7420495 6.90004396,16.6445936 6.90004396,14.0565371 C6.90004396,11.4684806 4.79967058,9.37102473 2.20801407,9.37102473" id="Path"></path>
                <path d="M1.10400703,28.1130742 C3.69566354,28.1130742 5.79603693,26.0156184 5.79603693,23.4275618 C5.79603693,20.8395053 3.69566354,18.7420495 1.10400703,18.7420495" id="Path"></path>
                <path d="M1.93201231,28.1130742 C4.52366882,28.1130742 6.6240422,26.0156184 6.6240422,23.4275618 C6.6240422,20.8395053 4.52366882,18.7420495 1.93201231,18.7420495" id="Path"></path>
                <path d="M0,37.4840989 C2.59165651,37.4840989 4.69202989,35.3866431 4.69202989,32.7985866 C4.69202989,30.21053 2.59165651,28.1130742 0,28.1130742" id="Path"></path>
            </g>
            <g id="fingers_2_" transform="translate(70.104447, 71.660777)" stroke="#151440" stroke-linecap="round" stroke-width="1.65371025">
                <path d="M20.1481284,0 L21.8041389,0 C24.3847554,0 26.4961688,2.10848057 26.4961688,4.68551237 L26.4961688,4.68551237 C26.4961688,7.26254417 24.3847554,9.37102473 21.8041389,9.37102473 L8.55605451,9.37102473 C5.97543807,9.37102473 3.86402462,7.26254417 3.86402462,4.68551237 L3.86402462,4.68551237 C3.86402462,2.10848057 5.97543807,0 8.55605451,0 L16.8361073,0" id="Path"></path>
                <path d="M20.1481284,18.7420495 L6.90004396,18.7420495 C4.31942752,18.7420495 2.20801407,16.6335689 2.20801407,14.0565371 L2.20801407,14.0565371 C2.20801407,11.4795053 4.31942752,9.37102473 6.90004396,9.37102473 L20.1481284,9.37102473 C22.7287448,9.37102473 24.8401583,11.4795053 24.8401583,14.0565371 L24.8401583,14.0565371 C24.8401583,16.6335689 22.7287448,18.7420495 20.1481284,18.7420495 Z" id="Path"></path>
                <path d="M22.6155841,26.459364 C21.7544586,27.4708834 20.4710504,28.1130742 19.0441213,28.1130742 L5.79603693,28.1130742 C3.21542049,28.1130742 1.10400703,26.0045936 1.10400703,23.4275618 L1.10400703,23.4275618 C1.10400703,20.85053 3.21542049,18.7420495 5.79603693,18.7420495 L19.0441213,18.7420495 C21.6247378,18.7420495 23.7361512,20.85053 23.7361512,23.4275618 L23.7361512,23.4275618" id="Path"></path>
                <path d="M17.9401143,37.4840989 L4.69202989,37.4840989 C2.11141345,37.4840989 0,35.3756184 0,32.7985866 L0,32.7985866 C0,30.2215548 2.11141345,28.1130742 4.69202989,28.1130742 L17.9401143,28.1130742 C20.5207307,28.1130742 22.6321442,30.2215548 22.6321442,32.7985866 L22.6321442,32.7985866 C22.6321442,35.3756184 20.5207307,37.4840989 17.9401143,37.4840989 Z" id="Path"></path>
            </g>
            <g id="nails" transform="translate(72.588462, 74.141343)" fill="#FFFFFF" fill-rule="nonzero" stroke="#151440" stroke-linecap="round" stroke-linejoin="round" stroke-width="1.65371025">
                <path d="M6.07203868,4.40989399 L7.72804924,4.40989399 L7.72804924,0 L6.07203868,0 C4.85211091,0 3.86402462,0.986713781 3.86402462,2.204947 L3.86402462,2.204947 C3.86402462,3.42318021 4.85211091,4.40989399 6.07203868,4.40989399 Z" id="Path"></path>
                <path d="M4.41602813,13.7809187 L6.07203868,13.7809187 L6.07203868,9.37102473 L4.41602813,9.37102473 C3.19610036,9.37102473 2.20801407,10.3577385 2.20801407,11.5759717 L2.20801407,11.5759717 C2.20801407,12.7942049 3.19610036,13.7809187 4.41602813,13.7809187 Z" id="Path"></path>
                <path d="M3.3120211,23.1519435 L4.96803165,23.1519435 L4.96803165,18.7420495 L3.3120211,18.7420495 C2.09209333,18.7420495 1.10400703,19.7287633 1.10400703,20.9469965 L1.10400703,20.9469965 C1.10400703,22.1652297 2.09209333,23.1519435 3.3120211,23.1519435 Z" id="Path"></path>
                <path d="M2.20801407,32.5229682 L3.86402462,32.5229682 L3.86402462,28.1130742 L2.20801407,28.1130742 C0.988086295,28.1130742 0,29.099788 0,30.3180212 L0,30.3180212 C0,31.5362544 0.988086295,32.5229682 2.20801407,32.5229682 Z" id="Path"></path>
            </g>
            <g id="folds" transform="translate(81.282518, 74.141343)" stroke="#151440" stroke-linecap="round" stroke-linejoin="round" stroke-width="1.65371025">
                <path d="M4.0020255,0 L4.0020255,4.40989399" id="Path"></path>
                <path d="M7.3140466,0 L7.3140466,4.40989399" id="Path"></path>
                <path d="M2.34601495,9.37102473 L2.34601495,13.7809187" id="Path"></path>
                <path d="M5.65803605,9.37102473 L5.65803605,13.7809187" id="Path"></path>
                <path d="M1.24200791,18.7420495 L1.24200791,23.1519435" id="Path"></path>
                <path d="M4.55402901,18.7420495 L4.55402901,23.1519435" id="Path"></path>
                <path d="M0.138000879,28.1130742 L0.138000879,32.5229682" id="Path"></path>
                <path d="M3.45002198,28.1130742 L3.45002198,32.5229682" id="Path"></path>
            </g>
            <g id="arc_1_" transform="translate(45.957053, 77.286148)" stroke="#151440" stroke-linecap="round" stroke-linejoin="round" stroke-width="1.65371025">
                <path d="M7.36924695,18.0061484 C5.09499246,18.9349823 2.60821662,19.4476325 0,19.4476325" id="Path"></path>
                <path d="M19.4746841,2.84217094e-14 C19.4746841,6.92628975 15.848021,13.0091873 10.3859462,16.4516608" id="Path"></path>
            </g>
            <path d="M38.3642444,107.491166 C38.3642444,108.403463 37.6217997,109.144876 36.7082339,109.144876 L28.4281811,109.144876 C27.5146153,109.144876 26.7721706,108.403463 26.7721706,107.491166 L26.7721706,73.8657244 C26.7721706,72.9534276 27.5146153,72.2120141 28.4281811,72.2120141 L36.7082339,72.2120141 C37.6217997,72.2120141 38.3642444,72.9534276 38.3642444,73.8657244 L38.3642444,107.491166 Z" id="fill_cuffs_1_" fill="#FEE176" fill-rule="nonzero"></path>
            <path d="M31.7402022,72.2120141 L30.0841917,72.2120141 C29.1706258,72.2120141 28.4281811,72.9534276 28.4281811,73.8657244 L28.4281811,107.491166 C28.4281811,108.403463 29.1706258,109.144876 30.0841917,109.144876 L32.2922057,109.144876" id="border_left_2_" stroke="#B7EDAD" stroke-width="1.65371025" stroke-linecap="round" stroke-linejoin="round"></path>
            <path d="M27.6001758,75.2438163 L27.6001758,80.7561837" id="border_left_1_" stroke="#B7EDAD" stroke-width="1.65371025" stroke-linecap="round" stroke-linejoin="round"></path>
            <g id="cuffs_1_" transform="translate(26.772171, 72.212014)" stroke="#151440" stroke-linecap="round" stroke-linejoin="round" stroke-width="1.65371025">
                <path d="M11.5920739,23.4275618 L11.5920739,23.4275618" id="Path"></path>
                <path d="M0,4.13427562 L0,1.65371025 C0,0.741413428 0.74244473,0 1.65601055,0 L9.9360633,0 C10.8496291,0 11.5920739,0.741413428 11.5920739,1.65371025 L11.5920739,20.1201413" id="Path"></path>
                <path d="M11.5920739,26.7349823 L11.5920739,35.2791519 C11.5920739,36.1914488 10.8496291,36.9328622 9.9360633,36.9328622 L1.65601055,36.9328622 C0.74244473,36.9328622 0,36.1914488 0,35.2791519 L0,7.44169611" id="Path"></path>
            </g>
            <ellipse id="button" stroke="#151440" stroke-width="1.65371025" fill="#FCBF5A" fill-rule="nonzero" stroke-linecap="round" stroke-linejoin="round" cx="32.5682075" cy="103.35689" rx="2.20801407" ry="2.204947"></ellipse>
            <g id="circles_x2C__stars" transform="translate(15.731019, 0.000000)">
                <ellipse id="Oval" stroke="#FFFFFF" stroke-width="1.65371025" cx="23.4612308" cy="47.4063604" rx="2.20801407" ry="2.204947"></ellipse>
                <ellipse id="Oval" stroke="#FFFFFF" stroke-width="1.65371025" cx="74.2455543" cy="51.540636" rx="2.20801407" ry="2.204947"></ellipse>
                <ellipse id="Oval" stroke="#FFFFFF" stroke-width="1.1024735" cx="90.2536563" cy="69.7314488" rx="1.38000879" ry="1.37809187"></ellipse>
                <path d="M41.6249065,26.1837456 L41.6249065,26.1837456 C41.0425428,26.1837456 40.5733398,25.7124382 40.5733398,25.1336396 L40.5733398,25.1336396 C40.5733398,24.5575972 40.1565772,24.0421908 39.5824935,23.984311 C38.9256093,23.9181625 38.3653257,24.4363251 38.3653257,25.0812721 L38.3653257,25.1336396 C38.3653257,25.7151943 37.8933627,26.1837456 37.313759,26.1837456 L37.313759,26.1837456 C36.7369154,26.1837456 36.2207921,26.5999293 36.1628317,27.1732155 C36.0965913,27.8291873 36.6154746,28.3886926 37.2613187,28.3886926 L37.313759,28.3886926 C37.8961227,28.3886926 38.3653257,28.86 38.3653257,29.4387986 L38.3653257,29.4387986 C38.3653257,30.014841 38.7820884,30.5302473 39.3561721,30.5881272 C40.0130562,30.6542756 40.5733398,30.1361131 40.5733398,29.4911661 L40.5733398,29.4387986 C40.5733398,28.86 41.0453028,28.3886926 41.6249065,28.3886926 L41.6773468,28.3886926 C42.323191,28.3886926 42.8420743,27.8291873 42.7758338,27.1732155 C42.7178735,26.5999293 42.2017502,26.1837456 41.6249065,26.1837456 Z" id="Path" fill="#FFFFFF" fill-rule="nonzero"></path>
                <path d="M4.10246745,61.4628975 L4.10246745,61.4628975 C3.66638467,61.4628975 3.31310242,61.110106 3.31310242,60.674629 L3.31310242,60.674629 C3.31310242,60.2446643 2.99846042,59.8560424 2.57065769,59.8119435 C2.07661454,59.7650883 1.65709187,60.1537102 1.65709187,60.6360424 L1.65709187,60.674629 C1.65709187,61.110106 1.30380962,61.4628975 0.867726843,61.4628975 L0.867726843,61.4628975 C0.4371641,61.4628975 0.0480016203,61.7771025 0.00384133898,62.204311 C-0.0430789599,62.6976678 0.346083519,63.1166078 0.829086597,63.1166078 L0.867726843,63.1166078 C1.30380962,63.1166078 1.65709187,63.4693993 1.65709187,63.9048763 L1.65709187,63.9048763 C1.65709187,64.334841 1.97173388,64.7234629 2.3995366,64.7675618 C2.89357975,64.8171731 3.31310242,64.4285512 3.31310242,63.9462191 L3.31310242,63.9076325 C3.31310242,63.4721555 3.66638467,63.119364 4.10246745,63.119364 L4.1411077,63.119364 C4.62411077,63.119364 5.01327325,62.700424 4.96359294,62.2070671 C4.92219267,61.7771025 4.53303019,61.4628975 4.10246745,61.4628975 Z" id="Path" fill="#FFFFFF" fill-rule="nonzero"></path>
                <path d="M65.6508596,29.4911661 L65.6508596,29.4911661 C65.2147768,29.4911661 64.8614945,29.1383746 64.8614945,28.7028975 L64.8614945,28.7028975 C64.8614945,28.2729329 64.5468525,27.884311 64.1190498,27.840212 C63.6250067,27.7906007 63.205484,28.1792226 63.205484,28.6615548 L63.205484,28.7001413 C63.205484,29.1356184 62.8522017,29.4884099 62.416119,29.4884099 L62.416119,29.4884099 C61.9855562,29.4884099 61.5963937,29.8026148 61.5522335,30.2298233 C61.5025531,30.7231802 61.8917156,31.1421201 62.3747187,31.1421201 L62.4133589,31.1421201 C62.8494417,31.1421201 63.202724,31.4949117 63.202724,31.9303887 L63.202724,31.9303887 C63.202724,32.3603534 63.517366,32.7489753 63.9451687,32.7930742 C64.4392119,32.8426855 64.8587345,32.4540636 64.8587345,31.9717314 L64.8587345,31.9331449 C64.8587345,31.4976678 65.2120168,31.1448763 65.6480996,31.1448763 L65.6894998,31.1448763 C66.1725029,31.1448763 66.5616654,30.7259364 66.5119851,30.2325795 C66.4705848,29.805371 66.0814223,29.4911661 65.6508596,29.4911661 Z" id="Path" fill="#FFFFFF" fill-rule="nonzero"></path>
                <ellipse id="Oval" stroke="#B7EDAD" stroke-width="1.65371025" cx="59.6174611" cy="2.204947" rx="2.20801407" ry="2.204947"></ellipse>
                <path d="M30.5986363,3.62162544 L30.5986363,3.62162544 C30.1625535,3.62162544 29.8092712,3.26883392 29.8092712,2.83335689 L29.8092712,2.83335689 C29.8092712,2.40339223 29.4946292,2.01477032 29.0668265,1.97067138 C28.5727834,1.92106007 28.1532607,2.30968198 28.1532607,2.79201413 L28.1532607,2.83060071 C28.1532607,3.26607774 27.7999784,3.61886926 27.3638956,3.61886926 L27.3638956,3.61886926 C26.9333329,3.61886926 26.5441704,3.9330742 26.5000101,4.36028269 C26.4503298,4.85363958 26.8394923,5.27257951 27.3224954,5.27257951 L27.3611356,5.27257951 C27.7972184,5.27257951 28.1505007,5.62537102 28.1505007,6.06084806 L28.1505007,6.06084806 C28.1505007,6.49081272 28.4651427,6.87943463 28.8929454,6.92353357 C29.3869885,6.97314488 29.8065112,6.58452297 29.8065112,6.10219081 L29.8065112,6.06360424 C29.8065112,5.62812721 30.1597935,5.27533569 30.5958762,5.27533569 L30.6372765,5.27533569 C31.1202796,5.27533569 31.5094421,4.85639576 31.4597617,4.36303887 C31.4183615,3.93583039 31.029199,3.62162544 30.5986363,3.62162544 Z" id="Path" fill="#B7EDAD" fill-rule="nonzero"></path>
                <path d="M86.0611896,11.8515901 L86.0611896,11.8515901 C85.4788259,11.8515901 85.0096229,11.3802827 85.0096229,10.8014841 L85.0096229,10.8014841 C85.0096229,10.2254417 84.5928603,9.71003534 84.0187766,9.65215548 C83.3618924,9.58600707 82.8016088,10.1041696 82.8016088,10.7491166 L82.8016088,10.8014841 C82.8016088,11.3802827 82.3296458,11.8515901 81.7500421,11.8515901 L81.7500421,11.8515901 C81.1731985,11.8515901 80.6570752,12.2677739 80.5991148,12.8410601 C80.5328744,13.4970318 81.0517577,14.0565371 81.6976018,14.0565371 L81.7500421,14.0565371 C82.3324059,14.0565371 82.8016088,14.5278445 82.8016088,15.1066431 L82.8016088,15.1066431 C82.8016088,15.6826855 83.2183715,16.1980919 83.7924552,16.2559717 C84.4493393,16.3221201 85.0096229,15.8039576 85.0096229,15.1590106 L85.0096229,15.1066431 C85.0096229,14.5278445 85.4815859,14.0565371 86.0611896,14.0565371 L86.1136299,14.0565371 C86.7594741,14.0565371 87.2783574,13.4970318 87.2121169,12.8410601 C87.1541566,12.2677739 86.6380333,11.8515901 86.0611896,11.8515901 Z" id="Path" fill="#B7EDAD" fill-rule="nonzero"></path>
            </g>
        </g>
    </g>
</svg>