<?xml version="1.0" encoding="UTF-8"?>
<svg width="52px" height="52px" viewBox="0 0 52 52" version="1.1" xmlns="http://www.w3.org/2000/svg" xmlns:xlink="http://www.w3.org/1999/xlink">
    <!-- Generator: Sketch 57.1 (83088) - https://sketch.com -->
    <title>Upload image 2@1x</title>
    <desc>Created with Sketch.</desc>
    <g id="Upload-image-2" stroke="none" stroke-width="1" fill="none" fill-rule="evenodd">
        <g id="Group-Copy-2" transform="translate(1.000000, 1.000000)">
            <polygon id="Path" points="0 0 50 0 50 50 0 50"></polygon>
            <path d="M25,26.2208333 L33.8395833,35.0583333 L30.8916667,38.00625 L27.0833333,34.1979167 L27.0833333,45.8333333 L22.9166667,45.8333333 L22.9166667,34.19375 L19.1083333,38.00625 L16.1604167,35.0583333 L25,26.2208333 Z M25,4.16666667 C32.4046068,4.16666667 38.6339766,9.71558355 39.4875,17.0708333 C44.8374236,18.5297776 48.3748503,23.6103865 47.8867065,29.1341458 C47.3985627,34.6579051 43.024954,39.0394026 37.5020833,39.5375 L37.5020833,35.3416667 C40.1114399,34.9690147 42.3165521,33.2171385 43.2695667,30.7596246 C44.2225812,28.3021107 43.7751205,25.5215768 42.0992306,23.4871225 C40.4233407,21.4526682 37.7799459,20.4810438 35.1854167,20.9458333 C36.0782973,16.7889639 34.355238,12.5066459 30.8321324,10.1266194 C27.3090267,7.74659282 22.6930566,7.74659282 19.169951,10.1266194 C15.6468453,12.5066459 13.923786,16.7889639 14.8166667,20.9458333 C10.858626,20.2025502 7.04744999,22.808626 6.30416677,26.7666667 C5.56088356,30.7247074 8.16695935,34.5358834 12.125,35.2791667 L12.5,35.3416667 L12.5,39.5375 C6.97686646,39.0401429 2.60257306,34.6589638 2.11390381,29.1350549 C1.62523457,23.6111459 5.16245617,18.5300794 10.5125,17.0708333 C11.3651289,9.71511862 17.5950345,4.16607702 25,4.16666667 L25,4.16666667 Z" id="Shape" fill="#747176" fill-rule="nonzero"></path>
        </g>
    </g>
</svg>