<?xml version="1.0" encoding="UTF-8"?>
<svg width="126px" height="120px" viewBox="0 0 126 120" version="1.1" xmlns="http://www.w3.org/2000/svg" xmlns:xlink="http://www.w3.org/1999/xlink">
    <!-- Generator: Sketch 57.1 (83088) - https://sketch.com -->
    <title>User Based Roles and Access@3x</title>
    <desc>Created with Sketch.</desc>
    <g id="User-Based-Roles-and-Access" stroke="none" stroke-width="1" fill="none" fill-rule="evenodd">
        <g id="1146599_device_mobile_phone_screen_thumb_icon-copy-2" transform="translate(1.000000, 1.000000)">
            <g id="circle_back" transform="translate(0.000000, 11.021979)" fill="#76A3FE" fill-rule="nonzero">
                <path d="M109.031735,69.9188693 C108.28101,69.1691873 108.28101,67.9399293 109.031735,67.1902473 L109.031735,67.1902473 C109.782459,66.4405654 111.013427,66.4405654 111.764152,67.1902473 L114.248168,69.6708127 C115.515016,65.0376678 116.19674,60.1592226 116.19674,55.1236749 C116.19674,24.6788693 91.4835428,0 60.9963886,0 C50.5497221,0 40.7820198,2.8995053 32.4550468,7.93229682 L35.9630291,11.4354064 C37.6935601,13.1635336 37.6935601,15.9941343 35.9630291,17.7222615 L35.9630291,17.7222615 C34.2324981,19.4503887 31.39796,19.4503887 29.667429,17.7222615 L25.1492802,13.2103887 C22.8971059,15.1342049 20.8022525,17.2371731 18.8840403,19.4944876 L20.7829324,21.390742 C22.5134634,23.1188693 22.5134634,25.94947 20.7829324,27.6775972 C19.0524014,29.4057244 16.2178633,29.4057244 14.4873323,27.6775972 L13.6289668,26.820424 C8.65541514,35.0944876 5.79603693,44.7769611 5.79603693,55.1264311 C5.79603693,72.2009894 13.5710065,87.4592226 25.7758042,97.5716608 L96.216973,97.5716608 C103.732501,91.3481979 109.561658,83.1678445 112.93716,73.8188693 L109.031735,69.9188693 Z" id="Path"></path>
                <path d="M17.6254723,40.4800707 L17.6254723,40.4800707 C14.9427352,43.1590813 10.5515472,43.1590813 7.86605011,40.4800707 L2.01205282,34.6342049 C-0.670684273,31.9551943 -0.670684273,27.570106 2.01205282,24.8883392 L2.01205282,24.8883392 C4.69478991,22.2093286 9.08597789,22.2093286 11.771475,24.8883392 L17.6254723,30.7342049 C20.3082094,33.4159717 20.3082094,37.8010601 17.6254723,40.4800707 Z" id="Path"></path>
                <path d="M36.0679098,30.3621201 L36.0679098,30.3621201 C34.3373788,32.0902473 31.5028407,32.0902473 29.7723097,30.3621201 L16.5518255,17.16 C14.8212944,15.4318728 14.8212944,12.6012721 16.5518255,10.8731449 L16.5518255,10.8731449 C18.2823565,9.14501767 21.1168945,9.14501767 22.8474256,10.8731449 L36.0679098,24.075265 C37.8012008,25.8061484 37.8012008,28.6339929 36.0679098,30.3621201 Z" id="Path"></path>
                <path d="M14.3244913,8.64890459 L14.3244913,8.64890459 C12.5939602,10.3770318 9.75942218,10.3770318 8.02889115,8.64890459 L7.1567256,7.77795053 C5.42619457,6.04982332 5.42619457,3.21922261 7.1567256,1.49109541 L7.1567256,1.49109541 C8.88725662,-0.237031802 11.7217947,-0.237031802 13.4523257,1.49109541 L14.3244913,2.36204947 C16.0577823,4.09293286 16.0577823,6.92077739 14.3244913,8.64890459 Z" id="Path"></path>
                <path d="M39.2226099,11.9177385 L39.2226099,11.9177385 C38.4718851,12.6674205 37.2409173,12.6674205 36.4901925,11.9177385 L28.6848628,4.12325088 C27.934138,3.3735689 27.934138,2.14431095 28.6848628,1.39462898 L28.6848628,1.39462898 C29.4355875,0.644946996 30.6665554,0.644946996 31.4172802,1.39462898 L39.2226099,9.18911661 C39.9733347,9.93879859 39.9733347,11.1653004 39.2226099,11.9177385 Z" id="Path"></path>
                <path d="M122.702102,71.7792933 L122.702102,71.7792933 C120.971571,73.5074205 118.137033,73.5074205 116.406502,71.7792933 L103.186017,58.5771731 C101.455486,56.8490459 101.455486,54.0184452 103.186017,52.290318 L103.186017,52.290318 C104.916548,50.5621908 107.751086,50.5621908 109.481618,52.290318 L122.702102,65.4924382 C124.432633,67.2205654 124.432633,70.0484099 122.702102,71.7792933 Z" id="Path"></path>
                <path d="M115.647497,86.2327208 L115.647497,86.2327208 C112.96476,88.9117314 108.573572,88.9117314 105.888075,86.2327208 L100.034077,80.3868551 C97.3513402,77.7078445 97.3513402,73.3227562 100.034077,70.6409894 L100.034077,70.6409894 C102.716814,67.9619788 107.108002,67.9619788 109.793499,70.6409894 L115.647497,76.4868551 C118.332994,79.1686219 118.332994,83.5537102 115.647497,86.2327208 Z" id="Path"></path>
            </g>
            <g id="bottom_lines" transform="translate(11.316072, 109.007067)" stroke="#151440" stroke-linecap="round" stroke-width="1.66048685">
                <path d="M88.0445609,0.137809187 L9.9360633,0.137809187" id="Path"></path>
                <path d="M3.3120211,0.137809187 L0,0.137809187" id="Path"></path>
                <path d="M93.8405979,0.137809187 L91.356582,0.137809187" id="Path"></path>
                <path d="M40.020255,3.99646643 L65.9644203,3.99646643" id="Path"></path>
                <path d="M69.2764414,3.99646643 L69.2764414,3.99646643" id="Path"></path>
                <path d="M72.5884625,3.99646643 L79.4885064,3.99646643" id="Path"></path>
                <path d="M18.4921178,7.85512367 L34.5002198,7.85512367" id="Path"></path>
                <path d="M14.6280932,7.85512367 L7.45204748,7.85512367" id="Path"></path>
                <path d="M18.4921178,7.85512367 C18.4921178,6.78848057 17.6282323,5.92579505 16.5601055,5.92579505 C15.4919787,5.92579505 14.6280932,6.78848057 14.6280932,7.85512367" id="Path"></path>
                <path d="M37.8122409,7.85512367 L38.3642444,7.85512367" id="Path"></path>
                <path d="M6.6240422,0.137809187 L6.6240422,0.137809187" id="Path"></path>
                <path d="M36.7082339,3.99646643 L27.3241741,3.99646643" id="Path"></path>
            </g>
            <g id="fingers_1_" transform="translate(35.602847, 53.471343)">
                <path d="M7.4561875,26.7666784 L5.70081632,28.5196113 C4.40636807,29.8122615 2.31151473,29.8122615 1.01706648,28.5196113 L1.01706648,28.5196113 C-0.277381767,27.2269611 -0.277381767,25.1350177 1.01706648,23.8423675 L2.77243766,22.0894346 C4.06688591,20.7967845 6.16173926,20.7967845 7.4561875,22.0894346 L7.4561875,22.0894346 C8.75063575,23.3820848 8.75063575,25.4767845 7.4561875,26.7666784 Z" id="fill_finger" fill="#F2ECE8" fill-rule="nonzero"></path>
                <path d="M8.2400325,25.9398233 L6.48466131,27.6927562 C5.19021307,28.9854064 3.09535972,28.9854064 1.80091147,27.6927562 L1.80091147,27.6927562 C0.506463227,26.400106 0.506463227,24.3081625 1.80091147,23.0155124 L3.55628266,21.2625795 C4.8507309,19.9699293 6.94558425,19.9699293 8.2400325,21.2625795 L8.2400325,21.2625795 C9.53448074,22.5552297 9.53448074,24.6499293 8.2400325,25.9398233 Z" id="finger_3_" stroke="#76A3FE" stroke-width="1.66048685" stroke-linecap="round" stroke-linejoin="round"></path>
                <path d="M7.4561875,26.7666784 L5.70081632,28.5196113 C4.40636807,29.8122615 2.31151473,29.8122615 1.01706648,28.5196113 L1.01706648,28.5196113 C-0.277381767,27.2269611 -0.277381767,25.1350177 1.01706648,23.8423675 L2.77243766,22.0894346 C4.06688591,20.7967845 6.16173926,20.7967845 7.4561875,22.0894346 L7.4561875,22.0894346 C8.75063575,23.3820848 8.75063575,25.4767845 7.4561875,26.7666784 Z" id="finger_2_" stroke="#151440" stroke-width="1.66048685" stroke-linecap="round" stroke-linejoin="round"></path>
                <path d="M7.53898803,16.5357244 L5.61525577,18.4567845 C4.37324786,19.6970671 2.3391149,19.6970671 1.09710699,18.4567845 L0.931505935,18.2914134 C-0.310501978,17.0511307 -0.310501978,15.0198233 0.931505935,13.7795406 L2.85523819,11.8584806 C4.0972461,10.6181979 6.13137906,10.6181979 7.37338698,11.8584806 L7.53898803,12.0238516 C8.78099594,13.2668905 8.78099594,15.2954417 7.53898803,16.5357244 Z" id="fill_finger_1_" fill="#F2ECE8" fill-rule="nonzero"></path>
                <path d="M8.36699331,15.3395406 L6.44326105,17.2606007 C5.20125314,18.5008834 3.16712018,18.5008834 1.92511226,17.2606007 L1.75951121,17.0952297 C0.517503297,15.854947 0.517503297,13.8236396 1.75951121,12.5833569 L3.68324347,10.6622968 C4.92525138,9.42201413 6.95938434,9.42201413 8.20139225,10.6622968 L8.36699331,10.8276678 C9.60900122,12.0679505 9.60900122,14.099258 8.36699331,15.3395406 Z" id="finger_1_" stroke="#76A3FE" stroke-width="1.66048685" stroke-linecap="round" stroke-linejoin="round"></path>
                <path d="M7.53898803,16.5357244 L5.61525577,18.4567845 C4.37324786,19.6970671 2.3391149,19.6970671 1.09710699,18.4567845 L0.931505935,18.2914134 C-0.310501978,17.0511307 -0.310501978,15.0198233 0.931505935,13.7795406 L2.85523819,11.8584806 C4.0972461,10.6181979 6.13137906,10.6181979 7.37338698,11.8584806 L7.53898803,12.0238516 C8.78099594,13.2668905 8.78099594,15.2954417 7.53898803,16.5357244 Z" id="finger_4_" stroke="#151440" stroke-width="1.66048685" stroke-linecap="round" stroke-linejoin="round"></path>
                <path d="M7.53898803,6.43431095 L5.61525577,8.35537102 C4.37324786,9.59565371 2.3391149,9.59565371 1.09710699,8.35537102 L0.931505935,8.19 C-0.310501978,6.94971731 -0.310501978,4.91840989 0.931505935,3.67812721 L2.85523819,1.75706714 C4.0972461,0.516784452 6.13137906,0.516784452 7.37338698,1.75706714 L7.53898803,1.92243816 C8.78099594,3.16272085 8.78099594,5.19402827 7.53898803,6.43431095 Z" id="fill_finger_2_" fill="#F2ECE8" fill-rule="nonzero"></path>
                <path d="M8.36699331,5.60745583 L6.44326105,7.5285159 C5.20125314,8.76879859 3.16712018,8.76879859 1.92511226,7.5285159 L1.75951121,7.36314488 C0.517503297,6.12286219 0.517503297,4.09155477 1.75951121,2.85127208 L3.68324347,0.930212014 C4.92525138,-0.310070671 6.95938434,-0.310070671 8.20139225,0.930212014 L8.36699331,1.09558304 C9.60900122,2.33586572 9.60900122,4.36717314 8.36699331,5.60745583 Z" id="finger_5_" stroke="#76A3FE" stroke-width="1.66048685" stroke-linecap="round" stroke-linejoin="round"></path>
                <path d="M7.53898803,6.43431095 L5.61525577,8.35537102 C4.37324786,9.59565371 2.3391149,9.59565371 1.09710699,8.35537102 L0.931505935,8.19 C-0.310501978,6.94971731 -0.310501978,4.91840989 0.931505935,3.67812721 L2.85523819,1.75706714 C4.0972461,0.516784452 6.13137906,0.516784452 7.37338698,1.75706714 L7.53898803,1.92243816 C8.78099594,3.16272085 8.78099594,5.19402827 7.53898803,6.43431095 Z" id="finger" stroke="#151440" stroke-width="1.66048685" stroke-linecap="round" stroke-linejoin="round"></path>
            </g>
            <g id="fingers" transform="translate(62.100396, 55.399293)">
                <path d="M0,34.4522968 L0.168361073,35.5106714 C0.557523552,37.9746996 2.5585363,39.8709541 5.04255213,40.1327915 L8.40149353,40.485583 C10.2865855,40.6840283 12.0474768,41.5219081 13.3888453,42.8614134 C14.5370126,44.0079859 15.7321002,45.2014134 15.7321002,45.2014134 L34.5002198,33.9010601 L34.5002198,33.9010601 C33.2140516,30.2325795 32.2452854,26.4621201 31.6077214,22.6282686 L30.763156,17.5596466 C30.5009543,15.9913781 29.7943898,14.5333569 28.723503,13.3564664 L16.5601055,0 L0,0 L0,34.4522968 Z" id="fill_arm" fill="#F2ECE8" fill-rule="nonzero"></path>
                <path d="M18.2161161,2.204947 L18.2161161,10.1978799" id="shadow_arm" stroke="#D6CFCC" stroke-width="1.66048685" stroke-linecap="round" stroke-linejoin="round"></path>
                <path d="M1.65601055,38.0353357 L12.1440774,38.0353357 C15.4974987,38.0353357 18.2161161,35.3204947 18.2161161,31.9717314 L18.2161161,30.3180212" id="shadow_arm_1_" stroke="#D6CFCC" stroke-width="1.66048685" stroke-linecap="round" stroke-linejoin="round"></path>
                <path d="M15.7348602,30.0424028 C17.0762288,31.4232509 18.7625995,32.4981625 20.6973719,33.1155477" id="shadow_arm_2_" stroke="#D6CFCC" stroke-width="1.66048685" stroke-linecap="round" stroke-linejoin="round"></path>
                <path d="M31.8450829,23.9787986 C31.7595223,23.5295406 31.6822418,23.0802827 31.6049614,22.6282686 L30.760396,17.5596466 C30.4981943,15.9913781 29.7916298,14.5333569 28.720743,13.3564664 L16.5601055,0 L0,0 L0,34.4522968 L0.168361073,35.5106714 C0.557523552,37.9746996 2.5585363,39.8709541 5.04255213,40.1327915 L8.40149353,40.485583 C10.2865855,40.6840283 12.0474768,41.5219081 13.3888453,42.8614134 C14.5370126,44.0079859 15.7321002,45.2014134 15.7321002,45.2014134" id="arm_4_" stroke="#151440" stroke-width="1.66048685" stroke-linecap="round" stroke-linejoin="round"></path>
                <path d="M32.6178878,27.5590813 C32.6013277,27.4874205 32.5847676,27.4185159 32.5654475,27.3468551" id="arm_3_" stroke="#151440" stroke-width="1.66048685" stroke-linecap="round" stroke-linejoin="round"></path>
                <path d="M34.5002198,33.9010601 L34.5002198,33.9010601 C34.1496976,32.8978092 33.8212555,31.8862898 33.5176535,30.869258" id="arm_2_" stroke="#151440" stroke-width="1.66048685" stroke-linecap="round" stroke-linejoin="round"></path>
            </g>
            <g id="cuffs" transform="translate(76.305350, 88.351371)">
                <path d="M25.9753814,7.82014801 C26.6653858,7.40396427 26.8861872,6.50544837 26.4694245,5.81640243 L23.3699248,0.703681581 C22.9531621,0.0146356445 22.0533964,-0.205859055 21.363392,0.21032469 L0.704660399,12.6985932 C0.0146560026,13.114777 -0.206145404,14.0132929 0.210617251,14.7023388 L3.310117,19.8150597 C3.72687965,20.5041056 4.62664539,20.7246003 5.31664978,20.3084166 L25.9753814,7.82014801 Z" id="fill_cuffs" fill="#89DAF6" fill-rule="nonzero"></path>
                <path d="M17.444167,12.9769678 L5.31664978,20.3084166 C4.62664539,20.7246003 3.72963967,20.5041056 3.310117,19.8150597 L0.210617251,14.7023388 C-0.206145404,14.0132929 0.0146560026,13.1175332 0.704660399,12.6985932 L21.363392,0.21032469 C22.0533964,-0.205859055 22.9504021,0.0146356445 23.3699248,0.703681581 L26.4694245,5.81640243 C26.8861872,6.50544837 26.6653858,7.40120808 25.9753814,7.82014801 L23.6459266,9.22855791" id="cuffs_1_" stroke="#151440" stroke-width="1.66048685" stroke-linecap="round" stroke-linejoin="round"></path>
                <path d="M20.6181873,11.0586639 L20.4746664,11.1441056" id="cuffs_2_" stroke="#151440" stroke-width="1.66048685" stroke-linecap="round" stroke-linejoin="round"></path>
                <ellipse id="button" stroke="#151440" stroke-width="1.66048685" fill="#75C7E4" fill-rule="nonzero" stroke-linecap="round" stroke-linejoin="round" cx="5.50709099" cy="14.840148" rx="1.31376837" ry="1.31194346"></ellipse>
            </g>
            <path d="M74.244473,91.7809187 L45.2642884,91.7809187 C42.8244328,91.7809187 40.8482602,89.8074912 40.8482602,87.3710247 L40.8482602,30.869258 C40.8482602,28.4327915 42.8244328,26.459364 45.2642884,26.459364 L74.244473,26.459364 C76.6843286,26.459364 78.6605011,28.4327915 78.6605011,30.869258 L78.6605011,87.3710247 C78.6605011,89.8074912 76.6843286,91.7809187 74.244473,91.7809187 Z" id="fill" fill="#CFD9E5" fill-rule="nonzero"></path>
            <g id="shadow_1_" transform="translate(69.966446, 26.459364)">
                <path d="M6.48604132,64.4946996 L5.38203429,64.4946996 L5.38203429,0 L5.38203429,0 C7.21192595,0 8.69405539,1.48007067 8.69405539,3.30742049 L8.69405539,62.2897527 C8.69405539,63.5079859 7.70596909,64.4946996 6.48604132,64.4946996 Z" id="Path" fill="#B2C0CE" fill-rule="nonzero"></path>
                <path d="M4.0020255,2.48056537 L5.38203429,2.48056537" id="Path" stroke="#B2C0CE" stroke-width="1.66048685" stroke-linecap="round"></path>
                <path d="M5.38203429,0.826855124 L5.38203429,0.826855124" id="Path" stroke="#CFD9E5" stroke-width="1.66048685" stroke-linecap="round"></path>
                <path d="M4.83003077,5.78798587 L5.38203429,5.78798587" id="Path" stroke="#B2C0CE" stroke-width="1.66048685" stroke-linecap="round"></path>
                <path d="M5.38203429,4.13427562 L5.38203429,4.13427562" id="Path" stroke="#CFD9E5" stroke-width="1.66048685" stroke-linecap="round"></path>
                <path d="M5.10603253,9.09540636 L5.38203429,9.09540636" id="Path" stroke="#B2C0CE" stroke-width="1.66048685" stroke-linecap="round"></path>
                <path d="M5.38203429,7.44169611 L5.38203429,7.44169611" id="Path" stroke="#CFD9E5" stroke-width="1.66048685" stroke-linecap="round"></path>
                <path d="M3.72602374,12.4028269 L5.38203429,12.4028269" id="Path" stroke="#B2C0CE" stroke-width="1.66048685" stroke-linecap="round"></path>
                <path d="M5.38203429,10.7491166 L5.38203429,10.7491166" id="Path" stroke="#CFD9E5" stroke-width="1.66048685" stroke-linecap="round"></path>
                <path d="M4.0020255,15.7102473 L5.38203429,15.7102473" id="Path" stroke="#B2C0CE" stroke-width="1.66048685" stroke-linecap="round"></path>
                <path d="M5.38203429,14.0565371 L5.38203429,14.0565371" id="Path" stroke="#CFD9E5" stroke-width="1.66048685" stroke-linecap="round"></path>
                <path d="M5.38203429,19.0176678 L5.38203429,19.0176678" id="Path" stroke="#B2C0CE" stroke-width="1.66048685" stroke-linecap="round"></path>
                <path d="M5.38203429,17.3639576 L5.38203429,17.3639576" id="Path" stroke="#CFD9E5" stroke-width="1.66048685" stroke-linecap="round"></path>
                <path d="M4.55402901,22.3250883 L5.38203429,22.3250883" id="Path" stroke="#B2C0CE" stroke-width="1.66048685" stroke-linecap="round"></path>
                <path d="M5.38203429,20.6713781 L5.38203429,20.6713781" id="Path" stroke="#CFD9E5" stroke-width="1.66048685" stroke-linecap="round"></path>
                <path d="M7.3140466,25.6325088 L3.45002198,25.6325088" id="Path" stroke="#B2C0CE" stroke-width="1.66048685" stroke-linecap="round"></path>
                <path d="M5.38203429,23.9787986 L5.38203429,23.9787986" id="Path" stroke="#CFD9E5" stroke-width="1.66048685" stroke-linecap="round"></path>
                <path d="M7.3140466,28.9399293 L4.83003077,28.9399293" id="Path" stroke="#B2C0CE" stroke-width="1.66048685" stroke-linecap="round"></path>
                <path d="M5.38203429,27.2862191 L5.38203429,27.2862191" id="Path" stroke="#CFD9E5" stroke-width="1.66048685" stroke-linecap="round"></path>
                <path d="M7.3140466,32.2473498 L2.6220167,32.2473498" id="Path" stroke="#B2C0CE" stroke-width="1.66048685" stroke-linecap="round"></path>
                <path d="M5.38203429,30.5936396 L5.38203429,30.5936396" id="Path" stroke="#CFD9E5" stroke-width="1.66048685" stroke-linecap="round"></path>
                <path d="M7.3140466,35.5547703 L5.10603253,35.5547703" id="Path" stroke="#B2C0CE" stroke-width="1.66048685" stroke-linecap="round"></path>
                <path d="M5.38203429,33.9010601 L5.38203429,33.9010601" id="Path" stroke="#CFD9E5" stroke-width="1.66048685" stroke-linecap="round"></path>
                <path d="M7.3140466,38.8621908 L3.45002198,38.8621908" id="Path" stroke="#B2C0CE" stroke-width="1.66048685" stroke-linecap="round"></path>
                <path d="M5.38203429,37.2084806 L5.38203429,37.2084806" id="Path" stroke="#CFD9E5" stroke-width="1.66048685" stroke-linecap="round"></path>
                <path d="M7.3140466,42.1696113 L2.34601495,42.1696113" id="Path" stroke="#B2C0CE" stroke-width="1.66048685" stroke-linecap="round"></path>
                <path d="M5.38203429,40.5159011 L5.38203429,40.5159011" id="Path" stroke="#CFD9E5" stroke-width="1.66048685" stroke-linecap="round"></path>
                <path d="M7.3140466,45.4770318 L5.65803605,45.4770318" id="Path" stroke="#B2C0CE" stroke-width="1.66048685" stroke-linecap="round"></path>
                <path d="M5.38203429,43.8233216 L5.38203429,43.8233216" id="Path" stroke="#CFD9E5" stroke-width="1.66048685" stroke-linecap="round"></path>
                <path d="M7.3140466,48.7844523 L4.83003077,48.7844523" id="Path" stroke="#B2C0CE" stroke-width="1.66048685" stroke-linecap="round"></path>
                <path d="M5.38203429,47.130742 L5.38203429,47.130742" id="Path" stroke="#CFD9E5" stroke-width="1.66048685" stroke-linecap="round"></path>
                <path d="M7.3140466,52.0918728 L3.17402022,52.0918728" id="Path" stroke="#B2C0CE" stroke-width="1.66048685" stroke-linecap="round"></path>
                <path d="M5.38203429,50.4381625 L5.38203429,50.4381625" id="Path" stroke="#CFD9E5" stroke-width="1.66048685" stroke-linecap="round"></path>
                <path d="M7.3140466,55.3992933 L0.690004396,55.3992933" id="Path" stroke="#B2C0CE" stroke-width="1.66048685" stroke-linecap="round"></path>
                <path d="M5.38203429,53.745583 L5.38203429,53.745583" id="Path" stroke="#CFD9E5" stroke-width="1.66048685" stroke-linecap="round"></path>
                <path d="M7.3140466,58.7067138 L4.83003077,58.7067138" id="Path" stroke="#B2C0CE" stroke-width="1.66048685" stroke-linecap="round"></path>
                <path d="M5.38203429,57.0530035 L5.38203429,57.0530035" id="Path" stroke="#CFD9E5" stroke-width="1.66048685" stroke-linecap="round"></path>
                <path d="M7.3140466,62.0141343 L5.38203429,62.0141343" id="Path" stroke="#B2C0CE" stroke-width="1.66048685" stroke-linecap="round"></path>
                <path d="M5.38203429,60.360424 L5.38203429,60.360424" id="Path" stroke="#CFD9E5" stroke-width="1.66048685" stroke-linecap="round"></path>
                <path d="M5.38203429,63.6678445 L5.38203429,63.6678445" id="Path" stroke="#CFD9E5" stroke-width="1.66048685" stroke-linecap="round"></path>
                <path d="M0.138000879,32.2473498 L0.138000879,32.2473498" id="Path" stroke="#B2C0CE" stroke-width="1.66048685" stroke-linecap="round"></path>
                <path d="M0.690004396,52.0918728 L0.690004396,52.0918728" id="Path" stroke="#B2C0CE" stroke-width="1.66048685" stroke-linecap="round"></path>
                <path d="M2.89801846,62.0141343 L2.89801846,62.0141343" id="Path" stroke="#B2C0CE" stroke-width="1.66048685" stroke-linecap="round"></path>
            </g>
            <path d="M48.024306,91.7809187 L46.0922937,91.7809187 C43.6524381,91.7809187 41.6762655,89.8074912 41.6762655,87.3710247 L41.6762655,30.869258 C41.6762655,28.4327915 43.6524381,26.459364 46.0922937,26.459364 L47.7483042,26.459364" id="border_left" stroke="#76A3FE" stroke-width="1.66048685" stroke-linecap="round" stroke-linejoin="round"></path>
            <g id="border" transform="translate(39.882254, 26.459364)" stroke="#151440" stroke-linecap="round" stroke-linejoin="round" stroke-width="1.66048685">
                <path d="M0.138000879,19.2932862 L0.138000879,19.0176678" id="Path"></path>
                <path d="M0.138000879,56.2261484 L0.138000879,22.6007067" id="Path"></path>
                <path d="M38.7782471,52.3674912 L38.7782471,60.9116608 C38.7782471,63.3481272 36.8020745,65.3215548 34.3622189,65.3215548 L4.55402901,65.3215548 C2.11417347,65.3215548 0.138000879,63.3481272 0.138000879,60.9116608 L0.138000879,59.5335689" id="Path"></path>
                <path d="M38.7782471,48.7844523 L38.7782471,49.0600707" id="Path"></path>
                <path d="M33.8102154,0 L34.3622189,0 C36.8020745,0 38.7782471,1.97342756 38.7782471,4.40989399 L38.7782471,45.4770318" id="Path"></path>
                <path d="M0.138000879,15.7102473 L0.138000879,4.40989399 C0.138000879,1.97342756 2.11417347,0 4.55402901,0 L30.4981943,0" id="Path"></path>
            </g>
            <rect id="fill_display" fill="#89DAF6" fill-rule="nonzero" x="43.8842796" y="33.3498233" width="30.9121969" height="46.3038869"></rect>
            <g id="shadow_display" transform="translate(66.102421, 34.176678)">
                <rect id="Rectangle" fill="#75C7E4" fill-rule="nonzero" x="5.38203429" y="0" width="3.3120211" height="44.6501767"></rect>
                <path d="M5.38203429,2.48056537 L5.38203429,2.48056537" id="Path" stroke="#75C7E4" stroke-width="1.66048685" stroke-linecap="round"></path>
                <path d="M5.38203429,0.826855124 L5.38203429,0.826855124" id="Path" stroke="#89DAF6" stroke-width="1.66048685" stroke-linecap="round"></path>
                <path d="M7.3140466,5.78798587 L3.45002198,5.78798587" id="Path" stroke="#75C7E4" stroke-width="1.66048685" stroke-linecap="round"></path>
                <path d="M5.38203429,4.13427562 L5.38203429,4.13427562" id="Path" stroke="#89DAF6" stroke-width="1.66048685" stroke-linecap="round"></path>
                <path d="M7.3140466,9.09540636 L4.83003077,9.09540636" id="Path" stroke="#75C7E4" stroke-width="1.66048685" stroke-linecap="round"></path>
                <path d="M5.38203429,7.44169611 L5.38203429,7.44169611" id="Path" stroke="#89DAF6" stroke-width="1.66048685" stroke-linecap="round"></path>
                <path d="M7.3140466,12.4028269 L2.6220167,12.4028269" id="Path" stroke="#75C7E4" stroke-width="1.66048685" stroke-linecap="round"></path>
                <path d="M5.38203429,10.7491166 L5.38203429,10.7491166" id="Path" stroke="#89DAF6" stroke-width="1.66048685" stroke-linecap="round"></path>
                <path d="M7.3140466,15.7102473 L5.10603253,15.7102473" id="Path" stroke="#75C7E4" stroke-width="1.66048685" stroke-linecap="round"></path>
                <path d="M5.38203429,14.0565371 L5.38203429,14.0565371" id="Path" stroke="#89DAF6" stroke-width="1.66048685" stroke-linecap="round"></path>
                <path d="M7.3140466,19.0176678 L3.45002198,19.0176678" id="Path" stroke="#75C7E4" stroke-width="1.66048685" stroke-linecap="round"></path>
                <path d="M5.38203429,17.3639576 L5.38203429,17.3639576" id="Path" stroke="#89DAF6" stroke-width="1.66048685" stroke-linecap="round"></path>
                <path d="M7.3140466,22.3250883 L2.34601495,22.3250883" id="Path" stroke="#75C7E4" stroke-width="1.66048685" stroke-linecap="round"></path>
                <path d="M5.38203429,20.6713781 L5.38203429,20.6713781" id="Path" stroke="#89DAF6" stroke-width="1.66048685" stroke-linecap="round"></path>
                <path d="M7.3140466,25.6325088 L5.65803605,25.6325088" id="Path" stroke="#75C7E4" stroke-width="1.66048685" stroke-linecap="round"></path>
                <path d="M5.38203429,23.9787986 L5.38203429,23.9787986" id="Path" stroke="#89DAF6" stroke-width="1.66048685" stroke-linecap="round"></path>
                <path d="M7.3140466,28.9399293 L4.83003077,28.9399293" id="Path" stroke="#75C7E4" stroke-width="1.66048685" stroke-linecap="round"></path>
                <path d="M5.38203429,27.2862191 L5.38203429,27.2862191" id="Path" stroke="#89DAF6" stroke-width="1.66048685" stroke-linecap="round"></path>
                <path d="M7.3140466,32.2473498 L3.17402022,32.2473498" id="Path" stroke="#75C7E4" stroke-width="1.66048685" stroke-linecap="round"></path>
                <path d="M5.38203429,30.5936396 L5.38203429,30.5936396" id="Path" stroke="#89DAF6" stroke-width="1.66048685" stroke-linecap="round"></path>
                <path d="M7.3140466,35.5547703 L0.690004396,35.5547703" id="Path" stroke="#75C7E4" stroke-width="1.66048685" stroke-linecap="round"></path>
                <path d="M5.38203429,33.9010601 L5.38203429,33.9010601" id="Path" stroke="#89DAF6" stroke-width="1.66048685" stroke-linecap="round"></path>
                <path d="M7.3140466,38.8621908 L4.83003077,38.8621908" id="Path" stroke="#75C7E4" stroke-width="1.66048685" stroke-linecap="round"></path>
                <path d="M5.38203429,37.2084806 L5.38203429,37.2084806" id="Path" stroke="#89DAF6" stroke-width="1.66048685" stroke-linecap="round"></path>
                <path d="M7.3140466,42.1696113 L5.38203429,42.1696113" id="Path" stroke="#75C7E4" stroke-width="1.66048685" stroke-linecap="round"></path>
                <path d="M5.38203429,40.5159011 L5.38203429,40.5159011" id="Path" stroke="#89DAF6" stroke-width="1.66048685" stroke-linecap="round"></path>
                <path d="M5.38203429,43.8233216 L5.38203429,43.8233216" id="Path" stroke="#89DAF6" stroke-width="1.66048685" stroke-linecap="round"></path>
                <path d="M0.138000879,12.4028269 L0.138000879,12.4028269" id="Path" stroke="#75C7E4" stroke-width="1.66048685" stroke-linecap="round"></path>
                <path d="M0.690004396,32.2473498 L0.690004396,32.2473498" id="Path" stroke="#75C7E4" stroke-width="1.66048685" stroke-linecap="round"></path>
                <path d="M2.89801846,42.1696113 L2.89801846,42.1696113" id="Path" stroke="#75C7E4" stroke-width="1.66048685" stroke-linecap="round"></path>
            </g>
            <g id="border_display" transform="translate(43.884280, 33.349823)" stroke="#151440" stroke-linecap="round" stroke-linejoin="round" stroke-width="1.66048685">
                <polyline id="Path" points="30.9121969 11.8515901 30.9121969 46.3038869 13.8000879 46.3038869"></polyline>
                <path d="M30.9121969,8.26855124 L30.9121969,8.54416961" id="Path"></path>
                <polyline id="Path" points="10.4880668 46.3038869 0 46.3038869 0 0 30.9121969 0 30.9121969 4.96113074"></polyline>
            </g>
            <path d="M59.3403781,87.9222615 L59.3403781,87.9222615 C58.1204503,87.9222615 57.132364,86.9355477 57.132364,85.7173145 L57.132364,85.7173145 C57.132364,84.4990813 58.1204503,83.5123675 59.3403781,83.5123675 L59.3403781,83.5123675 C60.5603058,83.5123675 61.5483921,84.4990813 61.5483921,85.7173145 L61.5483921,85.7173145 C61.5483921,86.9355477 60.5603058,87.9222615 59.3403781,87.9222615 Z" id="button_home" stroke="#151440" stroke-width="1.66048685" fill="#B2C0CE" fill-rule="nonzero" stroke-linecap="round" stroke-linejoin="round"></path>
            <path d="M57.4083657,29.7667845 L61.2723904,29.7667845" id="speaker" stroke="#151440" stroke-width="1.66048685" stroke-linecap="round" stroke-linejoin="round"></path>
            <g id="thumb" transform="translate(68.891591, 53.818347)">
                <path d="M14.7369422,33.2770597 C14.7369422,33.2770597 14.7369422,33.2770597 14.7341822,33.2770597 C8.42754198,31.7418653 4.47243678,25.4880844 5.79724522,19.1405932 L5.79724522,19.1350809 C6.04564681,17.9416533 5.8883258,16.6986144 5.35288239,15.6016533 L0.453851181,5.62702432 C-0.404514288,3.87960383 -0.0153518087,1.77663563 1.4143373,0.453667431 L1.4143373,0.453667431 C2.17886217,-0.254671791 3.39878994,-0.111350236 3.97563362,0.75409146 L16.119711,18.9449042 L14.7369422,33.2770597 Z" id="fill_thumb" fill="#F2ECE8" fill-rule="nonzero"></path>
                <path d="M4.82571903,14.5350102 L5.35012237,15.6016533 C5.8883258,16.6958582 6.04564681,17.9388971 5.79448521,19.1350809 L5.79448521,19.1405932 C4.46967677,25.4880844 8.42478196,31.7418653 14.7314221,33.2770597 C14.7341822,33.2770597 14.7341822,33.2770597 14.7341822,33.2770597" id="thumb_6_" stroke="#151440" stroke-width="1.66048685" stroke-linecap="round" stroke-linejoin="round"></path>
                <path d="M3.20282869,11.2275897 L3.33806956,11.5059643" id="thumb_5_" stroke="#151440" stroke-width="1.66048685" stroke-linecap="round" stroke-linejoin="round"></path>
                <path d="M16.116951,18.9449042 L3.9728736,0.75409146 C3.39326991,-0.11410642 2.17610215,-0.257427975 1.41157728,0.453667431 L1.41157728,0.453667431 C-0.0153518087,1.77663563 -0.407274306,3.87960383 0.451091163,5.62702432 L1.7124192,8.19578757" id="thumb_4_" stroke="#151440" stroke-width="1.66048685" stroke-linecap="round" stroke-linejoin="round"></path>
            </g>
            <g id="gesture" transform="translate(63.342404, 48.922261)" stroke="#151440" stroke-linecap="round" stroke-linejoin="round" stroke-width="1.10699123">
                <path d="M5.10603253,3.06763251 C5.80431698,2.69279152 6.60472208,2.48056537 7.45204748,2.48056537 C8.29937288,2.48056537 9.09977797,2.69279152 9.79806242,3.06763251" id="Path"></path>
                <path d="M3.72602374,10.724311 C2.95321881,9.85060071 2.48401583,8.70127208 2.48401583,7.44169611 C2.48401583,6.47978799 2.75725757,5.58402827 3.23198059,4.82332155" id="Path"></path>
                <path d="M0.218041389,9.23321555 C0.0772804924,8.65992933 0,8.05908127 0,7.44169611 C0,3.33222615 3.33686126,0 7.45204748,0 C8.16965205,0 8.86517648,0.101978799 9.52206066,0.292155477" id="Path"></path>
                <path d="M1.3496486,11.7137809 C1.31376837,11.6614134 1.27788814,11.6090459 1.24200791,11.5566784" id="Path"></path>
                <path d="M7.03804484,24.9434629 L7.03804484,24.9434629" id="Path"></path>
                <path d="M4.83003077,15.0212014 L4.83003077,19.7067138" id="Path"></path>
                <path d="M7.03804484,19.4310954 L7.03804484,23.0141343" id="Path"></path>
            </g>
            <g id="circles_x2C__stars" transform="translate(21.940617, 0.000000)">
                <ellipse id="Oval" stroke="#FFFFFF" stroke-width="2.21398246" cx="38.7797699" cy="18.4664311" rx="2.76001758" ry="2.75618375"></ellipse>
                <ellipse id="Oval" stroke="#FFFFFF" stroke-width="1.66048685" cx="6.4875642" cy="43.5477032" rx="2.20801407" ry="2.204947"></ellipse>
                <ellipse id="Oval" stroke="#FFFFFF" stroke-width="1.66048685" cx="73.1419889" cy="49.335689" rx="2.20801407" ry="2.204947"></ellipse>
                <ellipse id="Oval" stroke="#FFFFFF" stroke-width="1.10699123" cx="80.7320372" cy="73.590106" rx="1.38000879" ry="1.37809187"></ellipse>
                <path d="M67.1555107,28.3886926 L67.1555107,28.3886926 C66.573147,28.3886926 66.103944,27.9173852 66.103944,27.3385866 L66.103944,27.3385866 C66.103944,26.7625442 65.6871814,26.2471378 65.1130977,26.189258 C64.4562135,26.1231095 63.8959299,26.6412721 63.8959299,27.2862191 L63.8959299,27.3385866 C63.8959299,27.9173852 63.4239669,28.3886926 62.8443632,28.3886926 L62.8443632,28.3886926 C62.2675196,28.3886926 61.7513963,28.8048763 61.6934359,29.3781625 C61.6271955,30.0341343 62.1460788,30.5936396 62.7919229,30.5936396 L62.8443632,30.5936396 C63.426727,30.5936396 63.8959299,31.064947 63.8959299,31.6437456 L63.8959299,31.6437456 C63.8959299,32.219788 64.3126926,32.7351943 64.8867763,32.7930742 C65.5436604,32.8592226 66.103944,32.3410601 66.103944,31.6961131 L66.103944,31.6437456 C66.103944,31.064947 66.575907,30.5936396 67.1555107,30.5936396 L67.207951,30.5936396 C67.8537952,30.5936396 68.3726785,30.0341343 68.306438,29.3781625 C68.2484777,28.8048763 67.7323544,28.3886926 67.1555107,28.3886926 Z" id="Path" fill="#FFFFFF" fill-rule="nonzero"></path>
                <path d="M4.10290901,68.3533569 L4.10290901,68.3533569 C3.66682623,68.3533569 3.31354398,68.0005654 3.31354398,67.5650883 L3.31354398,67.5650883 C3.31354398,67.1351237 2.99890197,66.7465018 2.57109925,66.7024028 C2.0770561,66.6527915 1.65753343,67.0414134 1.65753343,67.5237456 L1.65753343,67.5623322 C1.65753343,67.9978092 1.30425118,68.3506007 0.868168399,68.3506007 L0.868168399,68.3506007 C0.437605656,68.3506007 0.0484431765,68.6648057 0.00428289518,69.0920141 C-0.0453974213,69.585371 0.343765058,70.004311 0.826768135,70.004311 L0.865408381,70.004311 C1.30149116,70.004311 1.65477341,70.3571025 1.65477341,70.7925795 L1.65477341,70.7925795 C1.65477341,71.2225442 1.96941541,71.6111661 2.39721814,71.655265 C2.89126129,71.7048763 3.31078396,71.3162544 3.31078396,70.8339223 L3.31078396,70.7953357 C3.31078396,70.3598587 3.66406621,70.0070671 4.10014899,70.0070671 L4.13878924,70.0070671 C4.62179231,70.0070671 5.01095479,69.5881272 4.96127448,69.0947703 C4.92263423,68.6675618 4.53347175,68.3533569 4.10290901,68.3533569 Z" id="Path" fill="#FFFFFF" fill-rule="nonzero"></path>
                <ellipse id="Oval" stroke="#76A3FE" stroke-width="1.66048685" cx="53.2698622" cy="2.204947" rx="2.20801407" ry="2.204947"></ellipse>
                <path d="M24.2510374,3.58303887 L24.2510374,3.58303887 C23.8149546,3.58303887 23.4616723,3.23024735 23.4616723,2.79477032 L23.4616723,2.79477032 C23.4616723,2.36480565 23.1470303,1.97618375 22.7192276,1.93208481 C22.2251845,1.8824735 21.8056618,2.27109541 21.8056618,2.75342756 L21.8056618,2.79201413 C21.8056618,3.22749117 21.4523795,3.58028269 21.0162968,3.58028269 L21.0162968,3.58028269 C20.585734,3.58028269 20.1965715,3.89448763 20.1524113,4.32169611 C20.1027309,4.815053 20.4918934,5.23399293 20.9748965,5.23399293 L21.0135367,5.23399293 C21.4496195,5.23399293 21.8029018,5.58678445 21.8029018,6.02226148 L21.8029018,6.02226148 C21.8029018,6.45222615 22.1175438,6.84084806 22.5453465,6.884947 C23.0393897,6.9345583 23.4589123,6.5459364 23.4589123,6.06360424 L23.4589123,6.02501767 C23.4589123,5.58954064 23.8121946,5.23674912 24.2482774,5.23674912 L24.2869176,5.23674912 C24.7699207,5.23674912 25.1590832,4.81780919 25.1094028,4.3244523 C25.0707626,3.89724382 24.6816001,3.58303887 24.2510374,3.58303887 Z" id="Path" fill="#76A3FE" fill-rule="nonzero"></path>
                <path d="M79.7135907,11.8515901 L79.7135907,11.8515901 C79.131227,11.8515901 78.662024,11.3802827 78.662024,10.8014841 L78.662024,10.8014841 C78.662024,10.2254417 78.2452614,9.71003534 77.6711777,9.65215548 C77.0142935,9.58600707 76.45401,10.1041696 76.45401,10.7491166 L76.45401,10.8014841 C76.45401,11.3802827 75.9820469,11.8515901 75.4024433,11.8515901 L75.4024433,11.8515901 C74.8255996,11.8515901 74.3094763,12.2677739 74.2515159,12.8410601 C74.1852755,13.4970318 74.7041588,14.0565371 75.3500029,14.0565371 L75.4024433,14.0565371 C75.984807,14.0565371 76.45401,14.5278445 76.45401,15.1066431 L76.45401,15.1066431 C76.45401,15.6826855 76.8707726,16.1980919 77.4448563,16.2559717 C78.1017405,16.3221201 78.662024,15.8039576 78.662024,15.1590106 L78.662024,15.1066431 C78.662024,14.5278445 79.133987,14.0565371 79.7135907,14.0565371 L79.7660311,14.0565371 C80.4118752,14.0565371 80.9307585,13.4970318 80.8645181,12.8410601 C80.8065577,12.2677739 80.2904344,11.8515901 79.7135907,11.8515901 Z" id="Path" fill="#76A3FE" fill-rule="nonzero"></path>
            </g>
        </g>
    </g>
</svg>