<?xml version="1.0" encoding="UTF-8"?>
<svg width="32px" height="32px" viewBox="0 0 32 32" version="1.1" xmlns="http://www.w3.org/2000/svg" xmlns:xlink="http://www.w3.org/1999/xlink">
    <!-- Generator: Sketch 57.1 (83088) - https://sketch.com -->
    <title>user role@1x</title>
    <desc>Created with Sketch.</desc>
    <g id="user-role" stroke="none" stroke-width="1" fill="none" fill-rule="evenodd">
        <g id="133142_masks_role_theatre_icon-copy" transform="translate(2.000000, 2.000000)" fill="#A62CBF">
            <path d="M28,18.5744734 C28,22.4785331 24.2038401,28 21.640768,28 C21.460259,28 19.469971,28 19.2855548,28 C16.9233088,28 13.1810672,23.4235788 12.6629828,19.4673196 C13.7116544,18.6321267 14.7595445,17.2920782 15.561286,15.7977684 C15.566756,15.8226996 15.5730074,15.8468516 15.5792588,15.8717827 C15.592543,15.921645 15.6081715,15.96917 15.6253628,16.016695 L19.3730743,15.0155541 C19.3636973,14.966471 19.3535387,14.9181669 19.3402545,14.8683046 C19.066756,13.8484655 18.0024559,13.247781 16.9639428,13.5251398 C16.7849967,13.5726648 16.6185532,13.6427836 16.4661755,13.7339381 C16.7920295,12.7748685 16.9842599,11.815799 16.9842599,10.9377556 C16.9842599,9.82520382 16.4396071,9.18868082 16.067649,8.58799633 C17.2546327,8.1867609 18.6940165,7.94290325 20.3006251,7.94290325 C24.8117883,7.94290325 28,9.78858622 28,11.7869724 C28,13.558641 26.7434695,13.6513537 26.7434695,15.2586327 C26.7434695,16.2917165 28,16.88461 28,18.5744734 Z M16.5193123,22.5042433 C17.6953561,22.1910459 19.0495646,22.0110743 20.4905113,22.0110743 C21.9314579,22.0110743 23.284885,22.1902668 24.4617102,22.5042433 C24.2374414,20.5463702 22.5448761,19.0232338 20.4905113,19.0232338 C18.435365,19.0232338 16.7435812,20.5463702 16.5193123,22.5042433 Z M23.6326189,13.5243607 C22.5941058,13.2470019 21.5305872,13.8476864 21.2563072,14.8675255 C21.243023,14.9166087 21.2328645,14.966471 21.2234874,15.014775 L24.9711989,16.0159159 C24.9876088,15.9683909 25.0040188,15.921645 25.0165215,15.8710036 C25.2908015,14.8527227 24.6711319,13.8017196 23.6326189,13.5243607 Z M9.03951775,20.0586549 C8.85822728,20.0586549 6.8687207,20.0586549 6.68352311,20.0586549 C4.14154945,20.0586549 0,14.7561145 0,10.6331284 C0,8.86847158 1.29482027,8.22883219 1.29482027,7.31417123 C1.29482027,5.37499652 0,5.68897298 0,3.84484822 C0,1.92047636 3.18899308,0 7.69859344,0 C12.2097566,0 15.3979684,1.84646206 15.3979684,3.84484822 C15.3979684,5.61573778 14.1414378,5.70845043 14.1414378,7.31572943 C14.1414378,8.34959236 15.3979684,8.94248588 15.3979684,10.6331284 C15.3987497,14.5379671 11.6025899,20.0586549 9.03951775,20.0586549 Z M4.87608841,5.54717716 C3.80162983,5.54717716 2.92956017,6.40340577 2.92956017,7.45830435 C2.92956017,7.50894571 2.93190444,7.55958708 2.93581157,7.60944934 L6.81558384,7.60944934 C6.81949096,7.55958708 6.82183576,7.50894571 6.82183576,7.45830435 C6.82261666,6.40340577 5.95132842,5.54717716 4.87608841,5.54717716 Z M3.91806207,12.5528256 C4.14233088,14.5114778 5.83489618,16.0338351 7.889261,16.0338351 C9.94362581,16.0338351 11.6361911,14.5114778 11.8604599,12.5528256 C10.6836347,12.866023 9.33020764,13.0452155 7.889261,13.0452155 C6.44831436,13.0452155 5.09488725,12.8668021 3.91806207,12.5528256 Z M10.5179728,5.54717716 C9.44351418,5.54717716 8.57144452,6.40340577 8.57144452,7.45830435 C8.57144452,7.50894571 8.57378879,7.55958708 8.57769591,7.60944934 L12.4574682,7.60944934 C12.4613753,7.55958708 12.464501,7.50894571 12.464501,7.45830435 C12.464501,6.40340577 11.5932128,5.54717716 10.5179728,5.54717716 Z" id="Shape"></path>
        </g>
    </g>
</svg>