<?xml version="1.0" encoding="UTF-8"?>
<svg width="26px" height="26px" viewBox="0 0 26 26" version="1.1" xmlns="http://www.w3.org/2000/svg" xmlns:xlink="http://www.w3.org/1999/xlink">
    <!-- Generator: Sketch 57.1 (83088) - https://sketch.com -->
    <title>Verified@1x</title>
    <desc>Created with Sketch.</desc>
    <g id="Verified" stroke="none" stroke-width="1" fill="none" fill-rule="evenodd">
        <g id="6171275_check_completed_done_interface_mark_icon-copy" transform="translate(1.000000, 1.000000)">
            <path d="M15.5718691,8.47188902 L10.740625,13.8000215 L8.42813094,11.2492354 C8.1310304,10.9228622 7.62579563,10.8986059 7.2987954,11.195016 C6.97179518,11.4914262 6.94647049,11.9966094 7.24218792,12.3242363 L10.1476575,15.528151 C10.2994739,15.6953249 10.5148038,15.7906479 10.740625,15.7906479 C10.9664463,15.7906479 11.1817762,15.6953249 11.3335925,15.528151 L16.7578121,9.54688993 C17.0535295,9.21926303 17.0282048,8.71407984 16.7012046,8.4176697 C16.3742044,8.12125956 15.8689696,8.14551585 15.5718691,8.47188902 Z" id="Path"></path>
            <path d="M22.919519,9.66561803 L21.757808,8.6804652 C21.3990563,8.37567973 21.2089,7.9168721 21.2468644,7.44766416 L21.3718643,5.92969488 C21.4451445,5.03359834 21.1209149,4.15057339 20.4851687,3.51481841 C19.8494225,2.87906342 18.9664029,2.55482263 18.070307,2.6280921 L16.5531243,2.7530922 C16.0825298,2.79750084 15.6205081,2.6058454 15.3195253,2.24137177 L14.3343981,1.08125879 C13.752871,0.395549834 12.8993026,0 12.0002092,0 C11.1011158,0 10.247412,0.394949166 9.66564992,1.08045879 L8.68047473,2.24219577 C8.38058063,2.60760019 7.91813171,2.79926623 7.44767575,2.7531402 L5.929693,2.6281401 C5.03413786,2.55876298 4.15270339,2.88241889 3.51484699,3.51485284 C2.87843689,4.15017338 2.55408486,5.03350659 2.62813572,5.92970288 L2.75313561,7.44688816 C2.79133834,7.91652773 2.60082896,8.3757882 2.24141603,8.6804892 L1.08125699,9.66561803 C0.395549175,10.2471461 0,11.1007159 0,11.9998108 C0,12.8989057 0.394948507,13.752611 1.08045699,14.334374 L2.24216803,15.3195268 C2.60091973,15.6243123 2.79107597,16.0831199 2.75311161,16.5523278 L2.62811172,18.0702971 C2.55484237,18.9663945 2.87908263,19.8494156 3.51483655,20.4851628 C4.15059048,21.1209101 5.03361396,21.4451402 5.929709,21.3718599 L7.44689175,21.2468598 C7.91700554,21.2056057 8.37761455,21.3966751 8.68049073,21.7585802 L9.66564192,22.9187412 C10.247169,23.6044502 11.1007374,24 11.9998308,24 C12.8989242,24 13.752628,23.6050508 14.3343901,22.9195412 L15.3195413,21.7578282 C15.622905,21.3971306 16.0827615,21.206539 16.5523403,21.2468838 L18.070307,21.3718839 C18.9663954,21.4451518 19.8494076,21.1209162 20.4851523,20.4851704 C21.120897,19.8494247 21.445132,18.966411 21.3718643,18.0703211 L21.2468644,16.5531358 C21.2086617,16.0834963 21.399171,15.6242358 21.758584,15.3195348 L22.918743,14.334382 C23.6044508,13.7528539 24,12.8992841 24,12.0001892 C24,11.1010943 23.6050515,10.247389 22.919543,9.66562603 L22.919519,9.66561803 Z M16.7578121,9.54686593 L11.3336005,15.528151 C11.1817842,15.6953249 10.9664543,15.7906479 10.740633,15.7906479 C10.5148118,15.7906479 10.2994819,15.6953249 10.1476655,15.528151 L7.24218792,12.3242363 C6.94647049,11.9966094 6.97179518,11.4914262 7.2987954,11.195016 C7.62579563,10.8986059 8.1310304,10.9228622 8.42813094,11.2492354 L10.740625,13.8000215 L15.5718691,8.47188902 C15.8689696,8.14551585 16.3742044,8.12125956 16.7012046,8.4176697 C17.0282048,8.71407984 17.0535295,9.21926303 16.7578121,9.54688993 L16.7578121,9.54686593 Z" id="Shape" fill="#2F9800" fill-rule="nonzero"></path>
        </g>
    </g>
</svg>