<?xml version="1.0" encoding="UTF-8"?>
<svg width="32px" height="32px" viewBox="0 0 32 32" version="1.1" xmlns="http://www.w3.org/2000/svg" xmlns:xlink="http://www.w3.org/1999/xlink">
    <!-- Generator: Sketch 57.1 (83088) - https://sketch.com -->
    <title>verified_big@1x</title>
    <desc>Created with Sketch.</desc>
    <g id="verified_big" stroke="none" stroke-width="1" fill="none" fill-rule="evenodd">
        <g id="6171275_check_completed_done_interface_mark_icon-copy" transform="translate(1.000000, 1.000000)">
            <path d="M19.4648524,10.5898524 L13.4257924,17.2500124 L10.5351724,14.0615324 C10.1637964,13.6535662 9.53225238,13.6232459 9.12350176,13.9937583 C8.71475115,14.3642706 8.68309526,14.9957491 9.05274235,15.4052824 L12.6845824,19.4101724 C12.8743529,19.6191396 13.1435155,19.7382933 13.4257924,19.7382933 C13.7080692,19.7382933 13.9772318,19.6191396 14.1670024,19.4101724 L20.9472824,11.9336024 C21.3169294,11.5240691 21.2852736,10.8925906 20.8765229,10.5220783 C20.4677723,10.1515659 19.8362283,10.1818862 19.4648524,10.5898524 Z" id="Path"></path>
            <path d="M28.6494224,12.0820124 L27.1972824,10.8505724 C26.7488424,10.4695908 26.5111469,9.89608178 26.5586024,9.30957235 L26.7148524,7.41211235 C26.8064527,6.29199262 26.4011654,5.18821237 25.606482,4.39351931 C24.8117985,3.59882625 23.7080232,3.1935256 22.5879024,3.28511235 L20.6914224,3.44136235 C20.1031788,3.4968731 19.5256512,3.257304 19.1494224,2.80171235 L17.9180124,1.35157235 C17.1911029,0.494436876 16.1241415,0 15.0002739,0 C13.8764062,0 12.8092755,0.493686041 12.0820724,1.35057235 L10.8506024,2.80274235 C10.4757344,3.25949749 9.89767279,3.49907984 9.30960235,3.44142235 L7.41212235,3.28517235 C6.29267751,3.19845103 5.19088351,3.60302057 4.39356235,4.39356235 C3.59804907,5.18771235 3.1926087,6.29187793 3.28517235,7.41212235 L3.44142235,9.30860235 C3.4891758,9.89565131 3.25103887,10.4697264 2.80177235,10.8506024 L1.35157235,12.0820124 C0.494436876,12.8089218 0,13.8758832 0,14.9997508 C0,16.1236185 0.493686041,17.1907492 1.35057235,17.9179524 L2.80271235,19.1493924 C3.25115234,19.5303739 3.48884783,20.1038829 3.44139235,20.6903924 L3.28514235,22.5878524 C3.1935556,23.7079732 3.59885625,24.8117485 4.39354931,25.606432 C5.18824237,26.4011154 6.29202262,26.8064027 7.41214235,26.7148024 L9.30862235,26.5585524 C9.89626508,26.5069847 10.4720268,26.7458213 10.8506224,27.1982024 L12.0820624,28.6484024 C12.8089718,29.5055378 13.8759332,29.9999747 14.9998008,29.9999747 C16.1236685,29.9999747 17.1907992,29.5062887 17.9180024,28.6494024 L19.1494424,27.1972624 C19.5286473,26.7463907 20.1034685,26.5081514 20.6904424,26.5585824 L22.5879024,26.7148324 C23.7080138,26.8064171 24.81178,26.401123 25.6064615,25.6064415 C26.401143,24.81176 26.8064371,23.7079938 26.7148524,22.5878824 L26.5586024,20.6914024 C26.5108489,20.1043534 26.7489858,19.5302783 27.1982524,19.1494024 L28.6484524,17.9179624 C29.5055878,17.1910529 30.0000247,16.1240915 30.0000247,15.0002239 C30.0000247,13.8763562 29.5063387,12.8092255 28.6494524,12.0820224 L28.6494224,12.0820124 Z M20.9472824,11.9335724 L14.1670124,19.4101724 C13.9772418,19.6191396 13.7080792,19.7382933 13.4258024,19.7382933 C13.1435255,19.7382933 12.8743629,19.6191396 12.6845924,19.4101724 L9.05274235,15.4052824 C8.68309526,14.9957491 8.71475115,14.3642706 9.12350176,13.9937583 C9.53225238,13.6232459 10.1637964,13.6535662 10.5351724,14.0615324 L13.4257924,17.2500124 L19.4648524,10.5898524 C19.8362283,10.1818862 20.4677723,10.1515659 20.8765229,10.5220783 C21.2852736,10.8925906 21.3169294,11.5240691 20.9472824,11.9336024 L20.9472824,11.9335724 Z" id="Shape" fill="#31A47B" fill-rule="nonzero"></path>
        </g>
    </g>
</svg>