<?xml version="1.0" encoding="UTF-8"?>
<svg width="18px" height="23px" viewBox="0 0 18 23" version="1.1" xmlns="http://www.w3.org/2000/svg" xmlns:xlink="http://www.w3.org/1999/xlink">
    <!-- Generator: Sketch 57.1 (83088) - https://sketch.com -->
    <title>invoice</title>
    <desc>Created with Sketch.</desc>
    <g id="invoice" stroke="none" stroke-width="1" fill="none" fill-rule="evenodd">
        <g transform="translate(1.000000, 1.000000)" id="Path" stroke="#00B9F5">
            <path d="M13.7720156,0.0810604544 L12.8015637,1.40586042 C12.7675874,1.45224029 12.7134997,1.47959938 12.6560066,1.47948729 C12.5985134,1.4793752 12.5445328,1.45180542 12.5107377,1.40529342 L11.5435797,0.0741934546 C11.5097464,0.0276294493 11.4556851,0 11.3981274,0 C11.3405697,0 11.2864573,0.0274223038 11.2525377,0.0739234546 L10.2858837,1.39913742 C10.2520846,1.44547375 10.198227,1.47292933 10.1408735,1.47306089 C10.0835201,1.47319244 10.0295371,1.44598421 9.99552574,1.39980342 L9.03019476,0.0890884542 C8.99607521,0.0427625255 8.94186586,0.0155383637 8.88433198,0.015835563 C8.82679811,0.0161327624 8.7728729,0.0439155084 8.73923377,0.0905914542 L7.77098679,1.43403042 C7.73734308,1.48071295 7.68340792,1.50849667 7.62586598,1.50878676 C7.56832404,1.50907686 7.51411149,1.48183836 7.4799988,1.43549742 L6.48682183,0.0863434543 C6.4528597,0.0401998766 6.3989588,0.0129807612 6.34166437,0.0130411834 C6.28436993,0.0131016056 6.23052657,0.0404343471 6.19666184,0.0866494543 L5.23033186,1.40586042 C5.19635603,1.4522439 5.1422661,1.47960555 5.08477026,1.47949346 C5.02727442,1.47938137 4.97329159,1.45180902 4.93949687,1.40529342 L3.97238389,0.0742024546 C3.93855062,0.0276384493 3.88448935,0 3.8269316,0 C3.76937386,0 3.71526151,0.0274313038 3.6813419,0.0739324546 L2.71468793,1.39913742 C2.68088879,1.44547375 2.6270312,1.47292933 2.56967773,1.47306089 C2.51232426,1.47319244 2.45834129,1.44598421 2.42432994,1.39980342 L1.45583996,0.0848494543 C1.42210678,0.039049085 1.36870972,0.0118887254 1.31182811,0.0115979795 C1.25494651,0.0113072336 1.20127459,0.0379203183 1.16707497,0.0833734544 L0,1.63451441 L0,20.5345139 L15.2737736,20.5345139 L15.2737736,1.63451441 L14.0591696,0.0767494545 C14.0244775,0.032258039 13.9709319,0.0066064131 13.9145199,0.00745331798 C13.8581079,0.00830022285 13.8053566,0.0355476687 13.7720156,0.0810604544 Z"></path>
            <path d="M2.68625693,16.956564 L8.99507676,16.956564"></path>
            <path d="M2.68625693,14.2562941 L8.99507676,14.2562941"></path>
            <path d="M11.6862567,16.956564 L12.5950767,16.956564"></path>
            <path d="M11.6862567,14.2562941 L12.5950767,14.2562941"></path>
            <path d="M3.04622992,9.46618821 C3.43258333,9.80078466 3.91619317,10.0024365 4.42580388,10.0414322 C5.05475217,10.0807685 5.59788918,9.60587905 5.64285585,8.97730822 C5.64285585,8.38960823 5.06103287,8.09890824 4.42580388,7.91319325 C3.7674089,7.70686825 3.20867991,7.43679626 3.20867991,6.84906928 C3.25369837,6.22049455 3.79684712,5.74562295 4.42580388,5.7849453 C4.84575382,5.77572889 5.24250599,5.97707554 5.48300685,6.32146229"></path>
            <path d="M4.42580388,5.20339232 L4.42580388,5.7849453"></path>
            <path d="M4.42580388,10.0414412 L4.42580388,10.6229942"></path>
        </g>
    </g>
</svg>