<svg width="24" height="5" viewBox="0 0 24 5" fill="none" xmlns="http://www.w3.org/2000/svg">
<path d="M6.33489 1.98776C6.33489 1.98776 5.64687 2.06765 5.1879 2.12106C5.14653 2.12631 5.10995 2.1553 5.09624 2.19936C5.08252 2.24341 5.09624 2.28929 5.12672 2.31828C5.46768 2.64446 5.97999 3.13292 5.97999 3.13292C5.97955 3.13292 5.83934 3.84349 5.74615 4.31757C5.73831 4.36049 5.75312 4.40591 5.78883 4.43307C5.82432 4.46023 5.87004 4.46069 5.90596 4.43946C6.30745 4.20025 6.90881 3.84052 6.90881 3.84052C6.90881 3.84052 7.51039 4.20025 7.91123 4.43969C7.94781 4.46069 7.99353 4.46023 8.02902 4.43307C8.06473 4.40591 8.07953 4.36049 8.07148 4.3178C7.97829 3.84349 7.83829 3.13292 7.83829 3.13292C7.83829 3.13292 8.3506 2.64446 8.69156 2.31896C8.72204 2.28906 8.73554 2.24318 8.72204 2.19936C8.70855 2.15553 8.67197 2.12654 8.6306 2.12152C8.17163 2.06765 7.4834 1.98776 7.4834 1.98776C7.4834 1.98776 7.19817 1.32627 7.0081 0.885284C6.99024 0.845795 6.95279 0.818176 6.90881 0.818176C6.86483 0.818176 6.82717 0.846024 6.81018 0.885284C6.61989 1.32627 6.33489 1.98776 6.33489 1.98776Z" fill="#DCDCDC"/>
<path d="M6.33489 1.98776C6.33489 1.98776 5.64687 2.06765 5.1879 2.12106C5.14653 2.12631 5.10995 2.1553 5.09624 2.19936C5.08252 2.24341 5.09624 2.28929 5.12672 2.31828C5.46768 2.64446 5.97999 3.13292 5.97999 3.13292C5.97955 3.13292 5.83934 3.84349 5.74615 4.31757C5.73831 4.36049 5.75312 4.40591 5.78883 4.43307C5.82432 4.46023 5.87004 4.46069 5.90596 4.43946C6.30745 4.20025 6.90881 3.84052 6.90881 3.84052C6.90881 3.84052 7.51039 4.20025 7.91123 4.43969C7.94781 4.46069 7.99353 4.46023 8.02902 4.43307C8.06473 4.40591 8.07953 4.36049 8.07148 4.3178C7.97829 3.84349 7.83829 3.13292 7.83829 3.13292C7.83829 3.13292 8.3506 2.64446 8.69156 2.31896C8.72204 2.28906 8.73554 2.24318 8.72204 2.19936C8.70855 2.15553 8.67197 2.12654 8.6306 2.12152C8.17163 2.06765 7.4834 1.98776 7.4834 1.98776C7.4834 1.98776 7.19817 1.32627 7.0081 0.885284C6.99024 0.845795 6.95279 0.818176 6.90881 0.818176C6.86483 0.818176 6.82717 0.846024 6.81018 0.885284C6.61989 1.32627 6.33489 1.98776 6.33489 1.98776Z" fill="#F79600"/>
<path d="M11.4258 1.98776C11.4258 1.98776 10.7378 2.06765 10.2788 2.12106C10.2374 2.12631 10.2009 2.1553 10.1871 2.19936C10.1734 2.24341 10.1871 2.28929 10.2176 2.31828C10.5586 2.64446 11.0709 3.13292 11.0709 3.13292C11.0705 3.13292 10.9302 3.84349 10.8371 4.31757C10.8292 4.36049 10.844 4.40591 10.8797 4.43307C10.9152 4.46023 10.9609 4.46069 10.9969 4.43946C11.3984 4.20025 11.9997 3.84052 11.9997 3.84052C11.9997 3.84052 12.6013 4.20025 13.0021 4.43969C13.0387 4.46069 13.0844 4.46023 13.1199 4.43307C13.1556 4.40591 13.1704 4.36049 13.1624 4.3178C13.0692 3.84349 12.9292 3.13292 12.9292 3.13292C12.9292 3.13292 13.4415 2.64446 13.7825 2.31896C13.8129 2.28906 13.8264 2.24318 13.8129 2.19936C13.7994 2.15553 13.7629 2.12654 13.7215 2.12152C13.2625 2.06765 12.5743 1.98776 12.5743 1.98776C12.5743 1.98776 12.2891 1.32627 12.099 0.885284C12.0811 0.845795 12.0437 0.818176 11.9997 0.818176C11.9557 0.818176 11.9181 0.846024 11.9011 0.885284C11.7108 1.32627 11.4258 1.98776 11.4258 1.98776Z" fill="#DCDCDC"/>
<path d="M11.4258 1.98776C11.4258 1.98776 10.7378 2.06765 10.2788 2.12106C10.2374 2.12631 10.2009 2.1553 10.1871 2.19936C10.1734 2.24341 10.1871 2.28929 10.2176 2.31828C10.5586 2.64446 11.0709 3.13292 11.0709 3.13292C11.0705 3.13292 10.9302 3.84349 10.8371 4.31757C10.8292 4.36049 10.844 4.40591 10.8797 4.43307C10.9152 4.46023 10.9609 4.46069 10.9969 4.43946C11.3984 4.20025 11.9997 3.84052 11.9997 3.84052C11.9997 3.84052 12.6013 4.20025 13.0021 4.43969C13.0387 4.46069 13.0844 4.46023 13.1199 4.43307C13.1556 4.40591 13.1704 4.36049 13.1624 4.3178C13.0692 3.84349 12.9292 3.13292 12.9292 3.13292C12.9292 3.13292 13.4415 2.64446 13.7825 2.31896C13.8129 2.28906 13.8264 2.24318 13.8129 2.19936C13.7994 2.15553 13.7629 2.12654 13.7215 2.12152C13.2625 2.06765 12.5743 1.98776 12.5743 1.98776C12.5743 1.98776 12.2891 1.32627 12.099 0.885284C12.0811 0.845795 12.0437 0.818176 11.9997 0.818176C11.9557 0.818176 11.9181 0.846024 11.9011 0.885284C11.7108 1.32627 11.4258 1.98776 11.4258 1.98776Z" fill="#DCDCDC"/>
<path d="M11.4258 1.98776C11.4258 1.98776 10.7378 2.06765 10.2788 2.12106C10.2374 2.12631 10.2009 2.1553 10.1871 2.19936C10.1734 2.24341 10.1871 2.28929 10.2176 2.31828C10.5586 2.64446 11.0709 3.13292 11.0709 3.13292C11.0705 3.13292 10.9302 3.84349 10.8371 4.31757C10.8292 4.36049 10.844 4.40591 10.8797 4.43307C10.9152 4.46023 10.9609 4.46069 10.9969 4.43946C11.3984 4.20025 11.9997 3.84052 11.9997 3.84052C11.9997 3.84052 12.6013 4.20025 13.0021 4.43969C13.0387 4.46069 13.0844 4.46023 13.1199 4.43307C13.1556 4.40591 13.1704 4.36049 13.1624 4.3178C13.0692 3.84349 12.9292 3.13292 12.9292 3.13292C12.9292 3.13292 13.4415 2.64446 13.7825 2.31896C13.8129 2.28906 13.8264 2.24318 13.8129 2.19936C13.7994 2.15553 13.7629 2.12654 13.7215 2.12152C13.2625 2.06765 12.5743 1.98776 12.5743 1.98776C12.5743 1.98776 12.2891 1.32627 12.099 0.885284C12.0811 0.845795 12.0437 0.818176 11.9997 0.818176C11.9557 0.818176 11.9181 0.846024 11.9011 0.885284C11.7108 1.32627 11.4258 1.98776 11.4258 1.98776Z" fill="#F79600"/>
<path d="M16.5167 1.98776C16.5167 1.98776 15.8287 2.06765 15.3697 2.12106C15.3283 2.12631 15.2918 2.1553 15.2781 2.19936C15.2643 2.24341 15.2781 2.28929 15.3085 2.31828C15.6495 2.64446 16.1618 3.13292 16.1618 3.13292C16.1614 3.13292 16.0212 3.84349 15.928 4.31757C15.9201 4.36049 15.9349 4.40591 15.9706 4.43307C16.0061 4.46023 16.0519 4.46069 16.0878 4.43946C16.4893 4.20025 17.0906 3.84052 17.0906 3.84052C17.0906 3.84052 17.6922 4.20025 18.093 4.43969C18.1296 4.46069 18.1753 4.46023 18.2108 4.43307C18.2465 4.40591 18.2613 4.36049 18.2533 4.3178C18.1601 3.84349 18.0201 3.13292 18.0201 3.13292C18.0201 3.13292 18.5324 2.64446 18.8734 2.31896C18.9039 2.28906 18.9174 2.24318 18.9039 2.19936C18.8904 2.15553 18.8538 2.12654 18.8124 2.12152C18.3534 2.06765 17.6652 1.98776 17.6652 1.98776C17.6652 1.98776 17.38 1.32627 17.1899 0.885284C17.1721 0.845795 17.1346 0.818176 17.0906 0.818176C17.0466 0.818176 17.009 0.846024 16.992 0.885284C16.8017 1.32627 16.5167 1.98776 16.5167 1.98776Z" fill="#DCDCDC"/>
<path d="M21.6076 1.98776C21.6076 1.98776 20.9196 2.06765 20.4606 2.12106C20.4193 2.12631 20.3827 2.1553 20.369 2.19936C20.3552 2.24341 20.369 2.28929 20.3994 2.31828C20.7404 2.64446 21.2527 3.13292 21.2527 3.13292C21.2523 3.13292 21.1121 3.84349 21.0189 4.31757C21.011 4.36049 21.0258 4.40591 21.0615 4.43307C21.097 4.46023 21.1428 4.46069 21.1787 4.43946C21.5802 4.20025 22.1815 3.84052 22.1815 3.84052C22.1815 3.84052 22.7831 4.20025 23.1839 4.43969C23.2205 4.46069 23.2663 4.46023 23.3017 4.43307C23.3374 4.40591 23.3523 4.36049 23.3442 4.3178C23.251 3.84349 23.111 3.13292 23.111 3.13292C23.111 3.13292 23.6233 2.64446 23.9643 2.31896C23.9948 2.28906 24.0083 2.24318 23.9948 2.19936C23.9813 2.15553 23.9447 2.12654 23.9033 2.12152C23.4444 2.06765 22.7561 1.98776 22.7561 1.98776C22.7561 1.98776 22.4709 1.32627 22.2808 0.885284C22.263 0.845795 22.2255 0.818176 22.1815 0.818176C22.1376 0.818176 22.0999 0.846024 22.0829 0.885284C21.8926 1.32627 21.6076 1.98776 21.6076 1.98776Z" fill="#DCDCDC"/>
<path d="M1.24397 1.98776C1.24397 1.98776 0.555956 2.06765 0.0969871 2.12106C0.055619 2.12631 0.0190408 2.1553 0.00532399 2.19936C-0.00839282 2.24341 0.00532401 2.28929 0.0358058 2.31828C0.376766 2.64446 0.889078 3.13292 0.889078 3.13292C0.888643 3.13292 0.748426 3.84349 0.655239 4.31757C0.647401 4.36049 0.662207 4.40591 0.697914 4.43307C0.733403 4.46023 0.779126 4.46069 0.815051 4.43946C1.21654 4.20025 1.8179 3.84052 1.8179 3.84052C1.8179 3.84052 2.41948 4.20025 2.82032 4.43969C2.8569 4.46069 2.90262 4.46023 2.93811 4.43307C2.97381 4.40591 2.98862 4.36049 2.98056 4.3178C2.88738 3.84349 2.74738 3.13292 2.74738 3.13292C2.74738 3.13292 3.25969 2.64446 3.60065 2.31896C3.63113 2.28906 3.64463 2.24318 3.63113 2.19936C3.61763 2.15553 3.58106 2.12654 3.53969 2.12152C3.08072 2.06765 2.39248 1.98776 2.39248 1.98776C2.39248 1.98776 2.10726 1.32627 1.91719 0.885284C1.89933 0.845795 1.86188 0.818176 1.8179 0.818176C1.77392 0.818176 1.73625 0.846024 1.71927 0.885284C1.52898 1.32627 1.24397 1.98776 1.24397 1.98776Z" fill="#F79600"/>
</svg>
