<svg width="24" height="5" viewBox="0 0 24 5" fill="none" xmlns="http://www.w3.org/2000/svg">
<path d="M6.33489 1.80594C6.33489 1.80594 5.64687 1.88583 5.1879 1.93924C5.14653 1.94449 5.10995 1.97348 5.09624 2.01753C5.08252 2.06159 5.09624 2.10746 5.12672 2.13645C5.46768 2.46263 5.97999 2.9511 5.97999 2.9511C5.97955 2.9511 5.83934 3.66166 5.74615 4.13575C5.73831 4.17866 5.75312 4.22409 5.78883 4.25125C5.82432 4.27841 5.87004 4.27887 5.90596 4.25764C6.30745 4.01843 6.90881 3.65869 6.90881 3.65869C6.90881 3.65869 7.51039 4.01843 7.91123 4.25787C7.94781 4.27887 7.99353 4.27841 8.02902 4.25125C8.06473 4.22409 8.07953 4.17866 8.07148 4.13598C7.97829 3.66166 7.83829 2.9511 7.83829 2.9511C7.83829 2.9511 8.3506 2.46263 8.69156 2.13714C8.72204 2.10724 8.73554 2.06136 8.72204 2.01753C8.70855 1.97371 8.67197 1.94472 8.6306 1.9397C8.17163 1.88583 7.4834 1.80594 7.4834 1.80594C7.4834 1.80594 7.19817 1.14445 7.0081 0.70346C6.99024 0.663972 6.95279 0.636353 6.90881 0.636353C6.86483 0.636353 6.82717 0.6642 6.81018 0.70346C6.61989 1.14445 6.33489 1.80594 6.33489 1.80594Z" fill="#DCDCDC"/>
<path d="M6.33489 1.80594C6.33489 1.80594 5.64687 1.88583 5.1879 1.93924C5.14653 1.94449 5.10995 1.97348 5.09624 2.01753C5.08252 2.06159 5.09624 2.10746 5.12672 2.13645C5.46768 2.46263 5.97999 2.9511 5.97999 2.9511C5.97955 2.9511 5.83934 3.66166 5.74615 4.13575C5.73831 4.17866 5.75312 4.22409 5.78883 4.25125C5.82432 4.27841 5.87004 4.27887 5.90596 4.25764C6.30745 4.01843 6.90881 3.65869 6.90881 3.65869C6.90881 3.65869 7.51039 4.01843 7.91123 4.25787C7.94781 4.27887 7.99353 4.27841 8.02902 4.25125C8.06473 4.22409 8.07953 4.17866 8.07148 4.13598C7.97829 3.66166 7.83829 2.9511 7.83829 2.9511C7.83829 2.9511 8.3506 2.46263 8.69156 2.13714C8.72204 2.10724 8.73554 2.06136 8.72204 2.01753C8.70855 1.97371 8.67197 1.94472 8.6306 1.9397C8.17163 1.88583 7.4834 1.80594 7.4834 1.80594C7.4834 1.80594 7.19817 1.14445 7.0081 0.70346C6.99024 0.663972 6.95279 0.636353 6.90881 0.636353C6.86483 0.636353 6.82717 0.6642 6.81018 0.70346C6.61989 1.14445 6.33489 1.80594 6.33489 1.80594Z" fill="#F79600"/>
<path d="M11.4258 1.80594C11.4258 1.80594 10.7378 1.88583 10.2788 1.93924C10.2374 1.94449 10.2009 1.97348 10.1871 2.01753C10.1734 2.06159 10.1871 2.10746 10.2176 2.13645C10.5586 2.46263 11.0709 2.9511 11.0709 2.9511C11.0705 2.9511 10.9302 3.66166 10.8371 4.13575C10.8292 4.17866 10.844 4.22409 10.8797 4.25125C10.9152 4.27841 10.9609 4.27887 10.9969 4.25764C11.3984 4.01843 11.9997 3.65869 11.9997 3.65869C11.9997 3.65869 12.6013 4.01843 13.0021 4.25787C13.0387 4.27887 13.0844 4.27841 13.1199 4.25125C13.1556 4.22409 13.1704 4.17866 13.1624 4.13598C13.0692 3.66166 12.9292 2.9511 12.9292 2.9511C12.9292 2.9511 13.4415 2.46263 13.7825 2.13714C13.8129 2.10724 13.8264 2.06136 13.8129 2.01753C13.7994 1.97371 13.7629 1.94472 13.7215 1.9397C13.2625 1.88583 12.5743 1.80594 12.5743 1.80594C12.5743 1.80594 12.2891 1.14445 12.099 0.70346C12.0811 0.663972 12.0437 0.636353 11.9997 0.636353C11.9557 0.636353 11.9181 0.6642 11.9011 0.70346C11.7108 1.14445 11.4258 1.80594 11.4258 1.80594Z" fill="#DCDCDC"/>
<path d="M11.4258 1.80594C11.4258 1.80594 10.7378 1.88583 10.2788 1.93924C10.2374 1.94449 10.2009 1.97348 10.1871 2.01753C10.1734 2.06159 10.1871 2.10746 10.2176 2.13645C10.5586 2.46263 11.0709 2.9511 11.0709 2.9511C11.0705 2.9511 10.9302 3.66166 10.8371 4.13575C10.8292 4.17866 10.844 4.22409 10.8797 4.25125C10.9152 4.27841 10.9609 4.27887 10.9969 4.25764C11.3984 4.01843 11.9997 3.65869 11.9997 3.65869C11.9997 3.65869 12.6013 4.01843 13.0021 4.25787C13.0387 4.27887 13.0844 4.27841 13.1199 4.25125C13.1556 4.22409 13.1704 4.17866 13.1624 4.13598C13.0692 3.66166 12.9292 2.9511 12.9292 2.9511C12.9292 2.9511 13.4415 2.46263 13.7825 2.13714C13.8129 2.10724 13.8264 2.06136 13.8129 2.01753C13.7994 1.97371 13.7629 1.94472 13.7215 1.9397C13.2625 1.88583 12.5743 1.80594 12.5743 1.80594C12.5743 1.80594 12.2891 1.14445 12.099 0.70346C12.0811 0.663972 12.0437 0.636353 11.9997 0.636353C11.9557 0.636353 11.9181 0.6642 11.9011 0.70346C11.7108 1.14445 11.4258 1.80594 11.4258 1.80594Z" fill="#DCDCDC"/>
<path d="M11.4258 1.80594C11.4258 1.80594 10.7378 1.88583 10.2788 1.93924C10.2374 1.94449 10.2009 1.97348 10.1871 2.01753C10.1734 2.06159 10.1871 2.10746 10.2176 2.13645C10.5586 2.46263 11.0709 2.9511 11.0709 2.9511C11.0705 2.9511 10.9302 3.66166 10.8371 4.13575C10.8292 4.17866 10.844 4.22409 10.8797 4.25125C10.9152 4.27841 10.9609 4.27887 10.9969 4.25764C11.3984 4.01843 11.9997 3.65869 11.9997 3.65869C11.9997 3.65869 12.6013 4.01843 13.0021 4.25787C13.0387 4.27887 13.0844 4.27841 13.1199 4.25125C13.1556 4.22409 13.1704 4.17866 13.1624 4.13598C13.0692 3.66166 12.9292 2.9511 12.9292 2.9511C12.9292 2.9511 13.4415 2.46263 13.7825 2.13714C13.8129 2.10724 13.8264 2.06136 13.8129 2.01753C13.7994 1.97371 13.7629 1.94472 13.7215 1.9397C13.2625 1.88583 12.5743 1.80594 12.5743 1.80594C12.5743 1.80594 12.2891 1.14445 12.099 0.70346C12.0811 0.663972 12.0437 0.636353 11.9997 0.636353C11.9557 0.636353 11.9181 0.6642 11.9011 0.70346C11.7108 1.14445 11.4258 1.80594 11.4258 1.80594Z" fill="#F79600"/>
<path d="M16.5167 1.80594C16.5167 1.80594 15.8287 1.88583 15.3697 1.93924C15.3283 1.94449 15.2918 1.97348 15.2781 2.01753C15.2643 2.06159 15.2781 2.10746 15.3085 2.13645C15.6495 2.46263 16.1618 2.9511 16.1618 2.9511C16.1614 2.9511 16.0212 3.66166 15.928 4.13575C15.9201 4.17866 15.9349 4.22409 15.9706 4.25125C16.0061 4.27841 16.0519 4.27887 16.0878 4.25764C16.4893 4.01843 17.0906 3.65869 17.0906 3.65869C17.0906 3.65869 17.6922 4.01843 18.093 4.25787C18.1296 4.27887 18.1753 4.27841 18.2108 4.25125C18.2465 4.22409 18.2613 4.17866 18.2533 4.13598C18.1601 3.66166 18.0201 2.9511 18.0201 2.9511C18.0201 2.9511 18.5324 2.46263 18.8734 2.13714C18.9039 2.10724 18.9174 2.06136 18.9039 2.01753C18.8904 1.97371 18.8538 1.94472 18.8124 1.9397C18.3534 1.88583 17.6652 1.80594 17.6652 1.80594C17.6652 1.80594 17.38 1.14445 17.1899 0.70346C17.1721 0.663972 17.1346 0.636353 17.0906 0.636353C17.0466 0.636353 17.009 0.6642 16.992 0.70346C16.8017 1.14445 16.5167 1.80594 16.5167 1.80594Z" fill="#DCDCDC"/>
<path d="M16.5167 1.80594C16.5167 1.80594 15.8287 1.88583 15.3697 1.93924C15.3283 1.94449 15.2918 1.97348 15.2781 2.01753C15.2643 2.06159 15.2781 2.10746 15.3085 2.13645C15.6495 2.46263 16.1618 2.9511 16.1618 2.9511C16.1614 2.9511 16.0212 3.66166 15.928 4.13575C15.9201 4.17866 15.9349 4.22409 15.9706 4.25125C16.0061 4.27841 16.0519 4.27887 16.0878 4.25764C16.4893 4.01843 17.0906 3.65869 17.0906 3.65869C17.0906 3.65869 17.6922 4.01843 18.093 4.25787C18.1296 4.27887 18.1753 4.27841 18.2108 4.25125C18.2465 4.22409 18.2613 4.17866 18.2533 4.13598C18.1601 3.66166 18.0201 2.9511 18.0201 2.9511C18.0201 2.9511 18.5324 2.46263 18.8734 2.13714C18.9039 2.10724 18.9174 2.06136 18.9039 2.01753C18.8904 1.97371 18.8538 1.94472 18.8124 1.9397C18.3534 1.88583 17.6652 1.80594 17.6652 1.80594C17.6652 1.80594 17.38 1.14445 17.1899 0.70346C17.1721 0.663972 17.1346 0.636353 17.0906 0.636353C17.0466 0.636353 17.009 0.6642 16.992 0.70346C16.8017 1.14445 16.5167 1.80594 16.5167 1.80594Z" fill="#DCDCDC"/>
<path d="M16.5167 1.80594C16.5167 1.80594 15.8287 1.88583 15.3697 1.93924C15.3283 1.94449 15.2918 1.97348 15.2781 2.01753C15.2643 2.06159 15.2781 2.10746 15.3085 2.13645C15.6495 2.46263 16.1618 2.9511 16.1618 2.9511C16.1614 2.9511 16.0212 3.66166 15.928 4.13575C15.9201 4.17866 15.9349 4.22409 15.9706 4.25125C16.0061 4.27841 16.0519 4.27887 16.0878 4.25764C16.4893 4.01843 17.0906 3.65869 17.0906 3.65869C17.0906 3.65869 17.6922 4.01843 18.093 4.25787C18.1296 4.27887 18.1753 4.27841 18.2108 4.25125C18.2465 4.22409 18.2613 4.17866 18.2533 4.13598C18.1601 3.66166 18.0201 2.9511 18.0201 2.9511C18.0201 2.9511 18.5324 2.46263 18.8734 2.13714C18.9039 2.10724 18.9174 2.06136 18.9039 2.01753C18.8904 1.97371 18.8538 1.94472 18.8124 1.9397C18.3534 1.88583 17.6652 1.80594 17.6652 1.80594C17.6652 1.80594 17.38 1.14445 17.1899 0.70346C17.1721 0.663972 17.1346 0.636353 17.0906 0.636353C17.0466 0.636353 17.009 0.6642 16.992 0.70346C16.8017 1.14445 16.5167 1.80594 16.5167 1.80594Z" fill="#DCDCDC"/>
<path d="M16.5167 1.80594C16.5167 1.80594 15.8287 1.88583 15.3697 1.93924C15.3283 1.94449 15.2918 1.97348 15.2781 2.01753C15.2643 2.06159 15.2781 2.10746 15.3085 2.13645C15.6495 2.46263 16.1618 2.9511 16.1618 2.9511C16.1614 2.9511 16.0212 3.66166 15.928 4.13575C15.9201 4.17866 15.9349 4.22409 15.9706 4.25125C16.0061 4.27841 16.0519 4.27887 16.0878 4.25764C16.4893 4.01843 17.0906 3.65869 17.0906 3.65869C17.0906 3.65869 17.6922 4.01843 18.093 4.25787C18.1296 4.27887 18.1753 4.27841 18.2108 4.25125C18.2465 4.22409 18.2613 4.17866 18.2533 4.13598C18.1601 3.66166 18.0201 2.9511 18.0201 2.9511C18.0201 2.9511 18.5324 2.46263 18.8734 2.13714C18.9039 2.10724 18.9174 2.06136 18.9039 2.01753C18.8904 1.97371 18.8538 1.94472 18.8124 1.9397C18.3534 1.88583 17.6652 1.80594 17.6652 1.80594C17.6652 1.80594 17.38 1.14445 17.1899 0.70346C17.1721 0.663972 17.1346 0.636353 17.0906 0.636353C17.0466 0.636353 17.009 0.6642 16.992 0.70346C16.8017 1.14445 16.5167 1.80594 16.5167 1.80594Z" fill="#F79600"/>
<path d="M21.6076 1.80594C21.6076 1.80594 20.9196 1.88583 20.4606 1.93924C20.4193 1.94449 20.3827 1.97348 20.369 2.01753C20.3552 2.06159 20.369 2.10746 20.3994 2.13645C20.7404 2.46263 21.2527 2.9511 21.2527 2.9511C21.2523 2.9511 21.1121 3.66166 21.0189 4.13575C21.011 4.17866 21.0258 4.22409 21.0615 4.25125C21.097 4.27841 21.1428 4.27887 21.1787 4.25764C21.5802 4.01843 22.1815 3.65869 22.1815 3.65869C22.1815 3.65869 22.7831 4.01843 23.1839 4.25787C23.2205 4.27887 23.2663 4.27841 23.3017 4.25125C23.3374 4.22409 23.3523 4.17866 23.3442 4.13598C23.251 3.66166 23.111 2.9511 23.111 2.9511C23.111 2.9511 23.6233 2.46263 23.9643 2.13714C23.9948 2.10724 24.0083 2.06136 23.9948 2.01753C23.9813 1.97371 23.9447 1.94472 23.9033 1.9397C23.4444 1.88583 22.7561 1.80594 22.7561 1.80594C22.7561 1.80594 22.4709 1.14445 22.2808 0.70346C22.263 0.663972 22.2255 0.636353 22.1815 0.636353C22.1376 0.636353 22.0999 0.6642 22.0829 0.70346C21.8926 1.14445 21.6076 1.80594 21.6076 1.80594Z" fill="#DCDCDC"/>
<path d="M1.24397 1.80594C1.24397 1.80594 0.555956 1.88583 0.0969871 1.93924C0.055619 1.94449 0.0190408 1.97348 0.00532399 2.01753C-0.00839282 2.06159 0.00532401 2.10746 0.0358058 2.13645C0.376766 2.46263 0.889078 2.9511 0.889078 2.9511C0.888643 2.9511 0.748426 3.66166 0.655239 4.13575C0.647401 4.17866 0.662207 4.22409 0.697914 4.25125C0.733403 4.27841 0.779126 4.27887 0.815051 4.25764C1.21654 4.01843 1.8179 3.65869 1.8179 3.65869C1.8179 3.65869 2.41948 4.01843 2.82032 4.25787C2.8569 4.27887 2.90262 4.27841 2.93811 4.25125C2.97381 4.22409 2.98862 4.17866 2.98056 4.13598C2.88738 3.66166 2.74738 2.9511 2.74738 2.9511C2.74738 2.9511 3.25969 2.46263 3.60065 2.13714C3.63113 2.10724 3.64463 2.06136 3.63113 2.01753C3.61763 1.97371 3.58106 1.94472 3.53969 1.9397C3.08072 1.88583 2.39248 1.80594 2.39248 1.80594C2.39248 1.80594 2.10726 1.14445 1.91719 0.70346C1.89933 0.663972 1.86188 0.636353 1.8179 0.636353C1.77392 0.636353 1.73625 0.6642 1.71927 0.70346C1.52898 1.14445 1.24397 1.80594 1.24397 1.80594Z" fill="#F79600"/>
</svg>
