<svg width="24" height="5" viewBox="0 0 24 5" fill="none" xmlns="http://www.w3.org/2000/svg">
<path d="M6.33489 1.62414C6.33489 1.62414 5.64687 1.70403 5.1879 1.75745C5.14653 1.7627 5.10995 1.79168 5.09624 1.83574C5.08252 1.87979 5.09624 1.92567 5.12672 1.95466C5.46768 2.28084 5.97999 2.76931 5.97999 2.76931C5.97955 2.76931 5.83934 3.47987 5.74615 3.95396C5.73831 3.99687 5.75312 4.04229 5.78883 4.06945C5.82432 4.09662 5.87004 4.09707 5.90596 4.07585C6.30745 3.83663 6.90881 3.4769 6.90881 3.4769C6.90881 3.4769 7.51039 3.83663 7.91123 4.07607C7.94781 4.09707 7.99353 4.09662 8.02902 4.06945C8.06473 4.04229 8.07953 3.99687 8.07148 3.95419C7.97829 3.47987 7.83829 2.76931 7.83829 2.76931C7.83829 2.76931 8.3506 2.28084 8.69156 1.95534C8.72204 1.92544 8.73554 1.87956 8.72204 1.83574C8.70855 1.79191 8.67197 1.76292 8.6306 1.7579C8.17163 1.70403 7.4834 1.62414 7.4834 1.62414C7.4834 1.62414 7.19817 0.962658 7.0081 0.521667C6.99024 0.482178 6.95279 0.454559 6.90881 0.454559C6.86483 0.454559 6.82717 0.482407 6.81018 0.521667C6.61989 0.962658 6.33489 1.62414 6.33489 1.62414Z" fill="#DCDCDC"/>
<path d="M6.33489 1.62414C6.33489 1.62414 5.64687 1.70403 5.1879 1.75745C5.14653 1.7627 5.10995 1.79168 5.09624 1.83574C5.08252 1.87979 5.09624 1.92567 5.12672 1.95466C5.46768 2.28084 5.97999 2.76931 5.97999 2.76931C5.97955 2.76931 5.83934 3.47987 5.74615 3.95396C5.73831 3.99687 5.75312 4.04229 5.78883 4.06945C5.82432 4.09662 5.87004 4.09707 5.90596 4.07585C6.30745 3.83663 6.90881 3.4769 6.90881 3.4769C6.90881 3.4769 7.51039 3.83663 7.91123 4.07607C7.94781 4.09707 7.99353 4.09662 8.02902 4.06945C8.06473 4.04229 8.07953 3.99687 8.07148 3.95419C7.97829 3.47987 7.83829 2.76931 7.83829 2.76931C7.83829 2.76931 8.3506 2.28084 8.69156 1.95534C8.72204 1.92544 8.73554 1.87956 8.72204 1.83574C8.70855 1.79191 8.67197 1.76292 8.6306 1.7579C8.17163 1.70403 7.4834 1.62414 7.4834 1.62414C7.4834 1.62414 7.19817 0.962658 7.0081 0.521667C6.99024 0.482178 6.95279 0.454559 6.90881 0.454559C6.86483 0.454559 6.82717 0.482407 6.81018 0.521667C6.61989 0.962658 6.33489 1.62414 6.33489 1.62414Z" fill="#F79600"/>
<path d="M11.4258 1.62414C11.4258 1.62414 10.7378 1.70403 10.2788 1.75745C10.2374 1.7627 10.2009 1.79168 10.1871 1.83574C10.1734 1.87979 10.1871 1.92567 10.2176 1.95466C10.5586 2.28084 11.0709 2.76931 11.0709 2.76931C11.0705 2.76931 10.9302 3.47987 10.8371 3.95396C10.8292 3.99687 10.844 4.04229 10.8797 4.06945C10.9152 4.09662 10.9609 4.09707 10.9969 4.07585C11.3984 3.83663 11.9997 3.4769 11.9997 3.4769C11.9997 3.4769 12.6013 3.83663 13.0021 4.07607C13.0387 4.09707 13.0844 4.09662 13.1199 4.06945C13.1556 4.04229 13.1704 3.99687 13.1624 3.95419C13.0692 3.47987 12.9292 2.76931 12.9292 2.76931C12.9292 2.76931 13.4415 2.28084 13.7825 1.95534C13.8129 1.92544 13.8264 1.87956 13.8129 1.83574C13.7994 1.79191 13.7629 1.76292 13.7215 1.7579C13.2625 1.70403 12.5743 1.62414 12.5743 1.62414C12.5743 1.62414 12.2891 0.962658 12.099 0.521667C12.0811 0.482178 12.0437 0.454559 11.9997 0.454559C11.9557 0.454559 11.9181 0.482407 11.9011 0.521667C11.7108 0.962658 11.4258 1.62414 11.4258 1.62414Z" fill="#DCDCDC"/>
<path d="M11.4258 1.62414C11.4258 1.62414 10.7378 1.70403 10.2788 1.75745C10.2374 1.7627 10.2009 1.79168 10.1871 1.83574C10.1734 1.87979 10.1871 1.92567 10.2176 1.95466C10.5586 2.28084 11.0709 2.76931 11.0709 2.76931C11.0705 2.76931 10.9302 3.47987 10.8371 3.95396C10.8292 3.99687 10.844 4.04229 10.8797 4.06945C10.9152 4.09662 10.9609 4.09707 10.9969 4.07585C11.3984 3.83663 11.9997 3.4769 11.9997 3.4769C11.9997 3.4769 12.6013 3.83663 13.0021 4.07607C13.0387 4.09707 13.0844 4.09662 13.1199 4.06945C13.1556 4.04229 13.1704 3.99687 13.1624 3.95419C13.0692 3.47987 12.9292 2.76931 12.9292 2.76931C12.9292 2.76931 13.4415 2.28084 13.7825 1.95534C13.8129 1.92544 13.8264 1.87956 13.8129 1.83574C13.7994 1.79191 13.7629 1.76292 13.7215 1.7579C13.2625 1.70403 12.5743 1.62414 12.5743 1.62414C12.5743 1.62414 12.2891 0.962658 12.099 0.521667C12.0811 0.482178 12.0437 0.454559 11.9997 0.454559C11.9557 0.454559 11.9181 0.482407 11.9011 0.521667C11.7108 0.962658 11.4258 1.62414 11.4258 1.62414Z" fill="#DCDCDC"/>
<path d="M11.4258 1.62414C11.4258 1.62414 10.7378 1.70403 10.2788 1.75745C10.2374 1.7627 10.2009 1.79168 10.1871 1.83574C10.1734 1.87979 10.1871 1.92567 10.2176 1.95466C10.5586 2.28084 11.0709 2.76931 11.0709 2.76931C11.0705 2.76931 10.9302 3.47987 10.8371 3.95396C10.8292 3.99687 10.844 4.04229 10.8797 4.06945C10.9152 4.09662 10.9609 4.09707 10.9969 4.07585C11.3984 3.83663 11.9997 3.4769 11.9997 3.4769C11.9997 3.4769 12.6013 3.83663 13.0021 4.07607C13.0387 4.09707 13.0844 4.09662 13.1199 4.06945C13.1556 4.04229 13.1704 3.99687 13.1624 3.95419C13.0692 3.47987 12.9292 2.76931 12.9292 2.76931C12.9292 2.76931 13.4415 2.28084 13.7825 1.95534C13.8129 1.92544 13.8264 1.87956 13.8129 1.83574C13.7994 1.79191 13.7629 1.76292 13.7215 1.7579C13.2625 1.70403 12.5743 1.62414 12.5743 1.62414C12.5743 1.62414 12.2891 0.962658 12.099 0.521667C12.0811 0.482178 12.0437 0.454559 11.9997 0.454559C11.9557 0.454559 11.9181 0.482407 11.9011 0.521667C11.7108 0.962658 11.4258 1.62414 11.4258 1.62414Z" fill="#F79600"/>
<path d="M16.5167 1.62414C16.5167 1.62414 15.8287 1.70403 15.3697 1.75745C15.3283 1.7627 15.2918 1.79168 15.2781 1.83574C15.2643 1.87979 15.2781 1.92567 15.3085 1.95466C15.6495 2.28084 16.1618 2.76931 16.1618 2.76931C16.1614 2.76931 16.0212 3.47987 15.928 3.95396C15.9201 3.99687 15.9349 4.04229 15.9706 4.06945C16.0061 4.09662 16.0519 4.09707 16.0878 4.07585C16.4893 3.83663 17.0906 3.4769 17.0906 3.4769C17.0906 3.4769 17.6922 3.83663 18.093 4.07607C18.1296 4.09707 18.1753 4.09662 18.2108 4.06945C18.2465 4.04229 18.2613 3.99687 18.2533 3.95419C18.1601 3.47987 18.0201 2.76931 18.0201 2.76931C18.0201 2.76931 18.5324 2.28084 18.8734 1.95534C18.9039 1.92544 18.9174 1.87956 18.9039 1.83574C18.8904 1.79191 18.8538 1.76292 18.8124 1.7579C18.3534 1.70403 17.6652 1.62414 17.6652 1.62414C17.6652 1.62414 17.38 0.962658 17.1899 0.521667C17.1721 0.482178 17.1346 0.454559 17.0906 0.454559C17.0466 0.454559 17.009 0.482407 16.992 0.521667C16.8017 0.962658 16.5167 1.62414 16.5167 1.62414Z" fill="#DCDCDC"/>
<path d="M16.5167 1.62414C16.5167 1.62414 15.8287 1.70403 15.3697 1.75745C15.3283 1.7627 15.2918 1.79168 15.2781 1.83574C15.2643 1.87979 15.2781 1.92567 15.3085 1.95466C15.6495 2.28084 16.1618 2.76931 16.1618 2.76931C16.1614 2.76931 16.0212 3.47987 15.928 3.95396C15.9201 3.99687 15.9349 4.04229 15.9706 4.06945C16.0061 4.09662 16.0519 4.09707 16.0878 4.07585C16.4893 3.83663 17.0906 3.4769 17.0906 3.4769C17.0906 3.4769 17.6922 3.83663 18.093 4.07607C18.1296 4.09707 18.1753 4.09662 18.2108 4.06945C18.2465 4.04229 18.2613 3.99687 18.2533 3.95419C18.1601 3.47987 18.0201 2.76931 18.0201 2.76931C18.0201 2.76931 18.5324 2.28084 18.8734 1.95534C18.9039 1.92544 18.9174 1.87956 18.9039 1.83574C18.8904 1.79191 18.8538 1.76292 18.8124 1.7579C18.3534 1.70403 17.6652 1.62414 17.6652 1.62414C17.6652 1.62414 17.38 0.962658 17.1899 0.521667C17.1721 0.482178 17.1346 0.454559 17.0906 0.454559C17.0466 0.454559 17.009 0.482407 16.992 0.521667C16.8017 0.962658 16.5167 1.62414 16.5167 1.62414Z" fill="#DCDCDC"/>
<path d="M16.5167 1.62414C16.5167 1.62414 15.8287 1.70403 15.3697 1.75745C15.3283 1.7627 15.2918 1.79168 15.2781 1.83574C15.2643 1.87979 15.2781 1.92567 15.3085 1.95466C15.6495 2.28084 16.1618 2.76931 16.1618 2.76931C16.1614 2.76931 16.0212 3.47987 15.928 3.95396C15.9201 3.99687 15.9349 4.04229 15.9706 4.06945C16.0061 4.09662 16.0519 4.09707 16.0878 4.07585C16.4893 3.83663 17.0906 3.4769 17.0906 3.4769C17.0906 3.4769 17.6922 3.83663 18.093 4.07607C18.1296 4.09707 18.1753 4.09662 18.2108 4.06945C18.2465 4.04229 18.2613 3.99687 18.2533 3.95419C18.1601 3.47987 18.0201 2.76931 18.0201 2.76931C18.0201 2.76931 18.5324 2.28084 18.8734 1.95534C18.9039 1.92544 18.9174 1.87956 18.9039 1.83574C18.8904 1.79191 18.8538 1.76292 18.8124 1.7579C18.3534 1.70403 17.6652 1.62414 17.6652 1.62414C17.6652 1.62414 17.38 0.962658 17.1899 0.521667C17.1721 0.482178 17.1346 0.454559 17.0906 0.454559C17.0466 0.454559 17.009 0.482407 16.992 0.521667C16.8017 0.962658 16.5167 1.62414 16.5167 1.62414Z" fill="#DCDCDC"/>
<path d="M16.5167 1.62414C16.5167 1.62414 15.8287 1.70403 15.3697 1.75745C15.3283 1.7627 15.2918 1.79168 15.2781 1.83574C15.2643 1.87979 15.2781 1.92567 15.3085 1.95466C15.6495 2.28084 16.1618 2.76931 16.1618 2.76931C16.1614 2.76931 16.0212 3.47987 15.928 3.95396C15.9201 3.99687 15.9349 4.04229 15.9706 4.06945C16.0061 4.09662 16.0519 4.09707 16.0878 4.07585C16.4893 3.83663 17.0906 3.4769 17.0906 3.4769C17.0906 3.4769 17.6922 3.83663 18.093 4.07607C18.1296 4.09707 18.1753 4.09662 18.2108 4.06945C18.2465 4.04229 18.2613 3.99687 18.2533 3.95419C18.1601 3.47987 18.0201 2.76931 18.0201 2.76931C18.0201 2.76931 18.5324 2.28084 18.8734 1.95534C18.9039 1.92544 18.9174 1.87956 18.9039 1.83574C18.8904 1.79191 18.8538 1.76292 18.8124 1.7579C18.3534 1.70403 17.6652 1.62414 17.6652 1.62414C17.6652 1.62414 17.38 0.962658 17.1899 0.521667C17.1721 0.482178 17.1346 0.454559 17.0906 0.454559C17.0466 0.454559 17.009 0.482407 16.992 0.521667C16.8017 0.962658 16.5167 1.62414 16.5167 1.62414Z" fill="#F79600"/>
<path d="M21.6076 1.62414C21.6076 1.62414 20.9196 1.70403 20.4606 1.75745C20.4193 1.7627 20.3827 1.79168 20.369 1.83574C20.3552 1.87979 20.369 1.92567 20.3994 1.95466C20.7404 2.28084 21.2527 2.76931 21.2527 2.76931C21.2523 2.76931 21.1121 3.47987 21.0189 3.95396C21.011 3.99687 21.0258 4.04229 21.0615 4.06945C21.097 4.09662 21.1428 4.09707 21.1787 4.07585C21.5802 3.83663 22.1815 3.4769 22.1815 3.4769C22.1815 3.4769 22.7831 3.83663 23.1839 4.07607C23.2205 4.09707 23.2663 4.09662 23.3017 4.06945C23.3374 4.04229 23.3523 3.99687 23.3442 3.95419C23.251 3.47987 23.111 2.76931 23.111 2.76931C23.111 2.76931 23.6233 2.28084 23.9643 1.95534C23.9948 1.92544 24.0083 1.87956 23.9948 1.83574C23.9813 1.79191 23.9447 1.76292 23.9033 1.7579C23.4444 1.70403 22.7561 1.62414 22.7561 1.62414C22.7561 1.62414 22.4709 0.962658 22.2808 0.521667C22.263 0.482178 22.2255 0.454559 22.1815 0.454559C22.1376 0.454559 22.0999 0.482407 22.0829 0.521667C21.8926 0.962658 21.6076 1.62414 21.6076 1.62414Z" fill="#DCDCDC"/>
<path d="M21.6076 1.62414C21.6076 1.62414 20.9196 1.70403 20.4606 1.75745C20.4193 1.7627 20.3827 1.79168 20.369 1.83574C20.3552 1.87979 20.369 1.92567 20.3994 1.95466C20.7404 2.28084 21.2527 2.76931 21.2527 2.76931C21.2523 2.76931 21.1121 3.47987 21.0189 3.95396C21.011 3.99687 21.0258 4.04229 21.0615 4.06945C21.097 4.09662 21.1428 4.09707 21.1787 4.07585C21.5802 3.83663 22.1815 3.4769 22.1815 3.4769C22.1815 3.4769 22.7831 3.83663 23.1839 4.07607C23.2205 4.09707 23.2663 4.09662 23.3017 4.06945C23.3374 4.04229 23.3523 3.99687 23.3442 3.95419C23.251 3.47987 23.111 2.76931 23.111 2.76931C23.111 2.76931 23.6233 2.28084 23.9643 1.95534C23.9948 1.92544 24.0083 1.87956 23.9948 1.83574C23.9813 1.79191 23.9447 1.76292 23.9033 1.7579C23.4444 1.70403 22.7561 1.62414 22.7561 1.62414C22.7561 1.62414 22.4709 0.962658 22.2808 0.521667C22.263 0.482178 22.2255 0.454559 22.1815 0.454559C22.1376 0.454559 22.0999 0.482407 22.0829 0.521667C21.8926 0.962658 21.6076 1.62414 21.6076 1.62414Z" fill="#DCDCDC"/>
<path d="M21.6076 1.62414C21.6076 1.62414 20.9196 1.70403 20.4606 1.75745C20.4193 1.7627 20.3827 1.79168 20.369 1.83574C20.3552 1.87979 20.369 1.92567 20.3994 1.95466C20.7404 2.28084 21.2527 2.76931 21.2527 2.76931C21.2523 2.76931 21.1121 3.47987 21.0189 3.95396C21.011 3.99687 21.0258 4.04229 21.0615 4.06945C21.097 4.09662 21.1428 4.09707 21.1787 4.07585C21.5802 3.83663 22.1815 3.4769 22.1815 3.4769C22.1815 3.4769 22.7831 3.83663 23.1839 4.07607C23.2205 4.09707 23.2663 4.09662 23.3017 4.06945C23.3374 4.04229 23.3523 3.99687 23.3442 3.95419C23.251 3.47987 23.111 2.76931 23.111 2.76931C23.111 2.76931 23.6233 2.28084 23.9643 1.95534C23.9948 1.92544 24.0083 1.87956 23.9948 1.83574C23.9813 1.79191 23.9447 1.76292 23.9033 1.7579C23.4444 1.70403 22.7561 1.62414 22.7561 1.62414C22.7561 1.62414 22.4709 0.962658 22.2808 0.521667C22.263 0.482178 22.2255 0.454559 22.1815 0.454559C22.1376 0.454559 22.0999 0.482407 22.0829 0.521667C21.8926 0.962658 21.6076 1.62414 21.6076 1.62414Z" fill="#DCDCDC"/>
<path d="M21.6076 1.62414C21.6076 1.62414 20.9196 1.70403 20.4606 1.75745C20.4193 1.7627 20.3827 1.79168 20.369 1.83574C20.3552 1.87979 20.369 1.92567 20.3994 1.95466C20.7404 2.28084 21.2527 2.76931 21.2527 2.76931C21.2523 2.76931 21.1121 3.47987 21.0189 3.95396C21.011 3.99687 21.0258 4.04229 21.0615 4.06945C21.097 4.09662 21.1428 4.09707 21.1787 4.07585C21.5802 3.83663 22.1815 3.4769 22.1815 3.4769C22.1815 3.4769 22.7831 3.83663 23.1839 4.07607C23.2205 4.09707 23.2663 4.09662 23.3017 4.06945C23.3374 4.04229 23.3523 3.99687 23.3442 3.95419C23.251 3.47987 23.111 2.76931 23.111 2.76931C23.111 2.76931 23.6233 2.28084 23.9643 1.95534C23.9948 1.92544 24.0083 1.87956 23.9948 1.83574C23.9813 1.79191 23.9447 1.76292 23.9033 1.7579C23.4444 1.70403 22.7561 1.62414 22.7561 1.62414C22.7561 1.62414 22.4709 0.962658 22.2808 0.521667C22.263 0.482178 22.2255 0.454559 22.1815 0.454559C22.1376 0.454559 22.0999 0.482407 22.0829 0.521667C21.8926 0.962658 21.6076 1.62414 21.6076 1.62414Z" fill="#F79600"/>
<path d="M1.24397 1.62414C1.24397 1.62414 0.555956 1.70403 0.0969871 1.75745C0.055619 1.7627 0.0190408 1.79168 0.00532399 1.83574C-0.00839282 1.87979 0.00532401 1.92567 0.0358058 1.95466C0.376766 2.28084 0.889078 2.76931 0.889078 2.76931C0.888643 2.76931 0.748426 3.47987 0.655239 3.95396C0.647401 3.99687 0.662207 4.04229 0.697914 4.06945C0.733403 4.09662 0.779126 4.09707 0.815051 4.07585C1.21654 3.83663 1.8179 3.4769 1.8179 3.4769C1.8179 3.4769 2.41948 3.83663 2.82032 4.07607C2.8569 4.09707 2.90262 4.09662 2.93811 4.06945C2.97381 4.04229 2.98862 3.99687 2.98056 3.95419C2.88738 3.47987 2.74738 2.76931 2.74738 2.76931C2.74738 2.76931 3.25969 2.28084 3.60065 1.95534C3.63113 1.92544 3.64463 1.87956 3.63113 1.83574C3.61763 1.79191 3.58106 1.76292 3.53969 1.7579C3.08072 1.70403 2.39248 1.62414 2.39248 1.62414C2.39248 1.62414 2.10726 0.962658 1.91719 0.521667C1.89933 0.482178 1.86188 0.454559 1.8179 0.454559C1.77392 0.454559 1.73625 0.482407 1.71927 0.521667C1.52898 0.962658 1.24397 1.62414 1.24397 1.62414Z" fill="#F79600"/>
</svg>
