<svg width="24" height="4" viewBox="0 0 24 4" fill="none" xmlns="http://www.w3.org/2000/svg">
<path d="M6.33489 1.16959C6.33489 1.16959 5.64687 1.24948 5.1879 1.30289C5.14653 1.30814 5.10995 1.33713 5.09624 1.38118C5.08252 1.42523 5.09624 1.47111 5.12672 1.5001C5.46768 1.82628 5.97999 2.31475 5.97999 2.31475C5.97955 2.31475 5.83934 3.02531 5.74615 3.4994C5.73831 3.54231 5.75312 3.58773 5.78883 3.6149C5.82432 3.64206 5.87004 3.64251 5.90596 3.62129C6.30745 3.38207 6.90881 3.02234 6.90881 3.02234C6.90881 3.02234 7.51039 3.38207 7.91123 3.62152C7.94781 3.64251 7.99353 3.64206 8.02902 3.6149C8.06473 3.58773 8.07953 3.54231 8.07148 3.49963C7.97829 3.02531 7.83829 2.31475 7.83829 2.31475C7.83829 2.31475 8.3506 1.82628 8.69156 1.50079C8.72204 1.47088 8.73554 1.425 8.72204 1.38118C8.70855 1.33735 8.67197 1.30837 8.6306 1.30334C8.17163 1.24948 7.4834 1.16959 7.4834 1.16959C7.4834 1.16959 7.19817 0.508099 7.0081 0.0671074C6.99024 0.027619 6.95279 0 6.90881 0C6.86483 0 6.82717 0.0278473 6.81018 0.0671074C6.61989 0.508099 6.33489 1.16959 6.33489 1.16959Z" fill="#DCDCDC"/>
<path d="M6.33489 1.16959C6.33489 1.16959 5.64687 1.24948 5.1879 1.30289C5.14653 1.30814 5.10995 1.33713 5.09624 1.38118C5.08252 1.42523 5.09624 1.47111 5.12672 1.5001C5.46768 1.82628 5.97999 2.31475 5.97999 2.31475C5.97955 2.31475 5.83934 3.02531 5.74615 3.4994C5.73831 3.54231 5.75312 3.58773 5.78883 3.6149C5.82432 3.64206 5.87004 3.64251 5.90596 3.62129C6.30745 3.38207 6.90881 3.02234 6.90881 3.02234C6.90881 3.02234 7.51039 3.38207 7.91123 3.62152C7.94781 3.64251 7.99353 3.64206 8.02902 3.6149C8.06473 3.58773 8.07953 3.54231 8.07148 3.49963C7.97829 3.02531 7.83829 2.31475 7.83829 2.31475C7.83829 2.31475 8.3506 1.82628 8.69156 1.50079C8.72204 1.47088 8.73554 1.425 8.72204 1.38118C8.70855 1.33735 8.67197 1.30837 8.6306 1.30334C8.17163 1.24948 7.4834 1.16959 7.4834 1.16959C7.4834 1.16959 7.19817 0.508099 7.0081 0.0671074C6.99024 0.027619 6.95279 0 6.90881 0C6.86483 0 6.82717 0.0278473 6.81018 0.0671074C6.61989 0.508099 6.33489 1.16959 6.33489 1.16959Z" fill="#F79600"/>
<path d="M11.4258 1.16959C11.4258 1.16959 10.7378 1.24948 10.2788 1.30289C10.2374 1.30814 10.2009 1.33713 10.1871 1.38118C10.1734 1.42523 10.1871 1.47111 10.2176 1.5001C10.5586 1.82628 11.0709 2.31475 11.0709 2.31475C11.0705 2.31475 10.9302 3.02531 10.8371 3.4994C10.8292 3.54231 10.844 3.58773 10.8797 3.6149C10.9152 3.64206 10.9609 3.64251 10.9969 3.62129C11.3984 3.38207 11.9997 3.02234 11.9997 3.02234C11.9997 3.02234 12.6013 3.38207 13.0021 3.62152C13.0387 3.64251 13.0844 3.64206 13.1199 3.6149C13.1556 3.58773 13.1704 3.54231 13.1624 3.49963C13.0692 3.02531 12.9292 2.31475 12.9292 2.31475C12.9292 2.31475 13.4415 1.82628 13.7825 1.50079C13.8129 1.47088 13.8264 1.425 13.8129 1.38118C13.7994 1.33735 13.7629 1.30837 13.7215 1.30334C13.2625 1.24948 12.5743 1.16959 12.5743 1.16959C12.5743 1.16959 12.2891 0.508099 12.099 0.0671074C12.0811 0.027619 12.0437 0 11.9997 0C11.9557 0 11.9181 0.0278473 11.9011 0.0671074C11.7108 0.508099 11.4258 1.16959 11.4258 1.16959Z" fill="#DCDCDC"/>
<path d="M16.5167 1.16959C16.5167 1.16959 15.8287 1.24948 15.3697 1.30289C15.3283 1.30814 15.2918 1.33713 15.2781 1.38118C15.2643 1.42523 15.2781 1.47111 15.3085 1.5001C15.6495 1.82628 16.1618 2.31475 16.1618 2.31475C16.1614 2.31475 16.0212 3.02531 15.928 3.4994C15.9201 3.54231 15.9349 3.58773 15.9706 3.6149C16.0061 3.64206 16.0519 3.64251 16.0878 3.62129C16.4893 3.38207 17.0906 3.02234 17.0906 3.02234C17.0906 3.02234 17.6922 3.38207 18.093 3.62152C18.1296 3.64251 18.1753 3.64206 18.2108 3.6149C18.2465 3.58773 18.2613 3.54231 18.2533 3.49963C18.1601 3.02531 18.0201 2.31475 18.0201 2.31475C18.0201 2.31475 18.5324 1.82628 18.8734 1.50079C18.9039 1.47088 18.9174 1.425 18.9039 1.38118C18.8904 1.33735 18.8538 1.30837 18.8124 1.30334C18.3534 1.24948 17.6652 1.16959 17.6652 1.16959C17.6652 1.16959 17.38 0.508099 17.1899 0.0671074C17.1721 0.027619 17.1346 0 17.0906 0C17.0466 0 17.009 0.0278473 16.992 0.0671074C16.8017 0.508099 16.5167 1.16959 16.5167 1.16959Z" fill="#DCDCDC"/>
<path d="M21.6076 1.16959C21.6076 1.16959 20.9196 1.24948 20.4606 1.30289C20.4193 1.30814 20.3827 1.33713 20.369 1.38118C20.3552 1.42523 20.369 1.47111 20.3994 1.5001C20.7404 1.82628 21.2527 2.31475 21.2527 2.31475C21.2523 2.31475 21.1121 3.02531 21.0189 3.4994C21.011 3.54231 21.0258 3.58773 21.0615 3.6149C21.097 3.64206 21.1428 3.64251 21.1787 3.62129C21.5802 3.38207 22.1815 3.02234 22.1815 3.02234C22.1815 3.02234 22.7831 3.38207 23.1839 3.62152C23.2205 3.64251 23.2663 3.64206 23.3017 3.6149C23.3374 3.58773 23.3523 3.54231 23.3442 3.49963C23.251 3.02531 23.111 2.31475 23.111 2.31475C23.111 2.31475 23.6233 1.82628 23.9643 1.50079C23.9948 1.47088 24.0083 1.425 23.9948 1.38118C23.9813 1.33735 23.9447 1.30837 23.9033 1.30334C23.4444 1.24948 22.7561 1.16959 22.7561 1.16959C22.7561 1.16959 22.4709 0.508099 22.2808 0.0671074C22.263 0.027619 22.2255 0 22.1815 0C22.1376 0 22.0999 0.0278473 22.0829 0.0671074C21.8926 0.508099 21.6076 1.16959 21.6076 1.16959Z" fill="#DCDCDC"/>
<path d="M1.24397 1.16959C1.24397 1.16959 0.555956 1.24948 0.0969871 1.30289C0.055619 1.30814 0.0190408 1.33713 0.00532399 1.38118C-0.00839282 1.42523 0.00532401 1.47111 0.0358058 1.5001C0.376766 1.82628 0.889078 2.31475 0.889078 2.31475C0.888643 2.31475 0.748426 3.02531 0.655239 3.4994C0.647401 3.54231 0.662207 3.58773 0.697914 3.6149C0.733403 3.64206 0.779126 3.64251 0.815051 3.62129C1.21654 3.38207 1.8179 3.02234 1.8179 3.02234C1.8179 3.02234 2.41948 3.38207 2.82032 3.62152C2.8569 3.64251 2.90262 3.64206 2.93811 3.6149C2.97381 3.58773 2.98862 3.54231 2.98056 3.49963C2.88738 3.02531 2.74738 2.31475 2.74738 2.31475C2.74738 2.31475 3.25969 1.82628 3.60065 1.50079C3.63113 1.47088 3.64463 1.425 3.63113 1.38118C3.61763 1.33735 3.58106 1.30837 3.53969 1.30334C3.08072 1.24948 2.39248 1.16959 2.39248 1.16959C2.39248 1.16959 2.10726 0.508099 1.91719 0.0671074C1.89933 0.027619 1.86188 0 1.8179 0C1.77392 0 1.73625 0.0278473 1.71927 0.0671074C1.52898 0.508099 1.24397 1.16959 1.24397 1.16959Z" fill="#F79600"/>
</svg>
