<svg width="40" height="7" viewBox="0 0 40 7" fill="none" xmlns="http://www.w3.org/2000/svg">
<path d="M10.5581 1.94931C10.5581 1.94931 9.41145 2.08246 8.6465 2.17148C8.57755 2.18023 8.51659 2.22854 8.49373 2.30196C8.47087 2.37539 8.49373 2.45185 8.54453 2.50017C9.1128 3.0438 9.96665 3.85791 9.96665 3.85791C9.96593 3.85791 9.73223 5.04218 9.57692 5.83233C9.56386 5.90385 9.58853 5.97955 9.64805 6.02483C9.70719 6.0701 9.7834 6.07086 9.84327 6.03548C10.5124 5.63679 11.5147 5.03724 11.5147 5.03724C11.5147 5.03724 12.5173 5.63679 13.1854 6.03586C13.2463 6.07086 13.3226 6.0701 13.3817 6.02483C13.4412 5.97955 13.4659 5.90385 13.4525 5.83271C13.2972 5.04218 13.0638 3.85791 13.0638 3.85791C13.0638 3.85791 13.9177 3.0438 14.4859 2.50131C14.5367 2.45147 14.5592 2.37501 14.5367 2.30196C14.5142 2.22892 14.4533 2.18061 14.3843 2.17224C13.6194 2.08246 12.4723 1.94931 12.4723 1.94931C12.4723 1.94931 11.997 0.846831 11.6802 0.111846C11.6504 0.0460317 11.588 0 11.5147 0C11.4414 0 11.3786 0.0464122 11.3503 0.111846C11.0332 0.846831 10.5581 1.94931 10.5581 1.94931Z" fill="#DCDCDC"/>
<path d="M2.07329 1.94931C2.07329 1.94931 0.926593 2.08246 0.161645 2.17148C0.0926983 2.18023 0.0317346 2.22854 0.00887331 2.30196C-0.013988 2.37539 0.00887335 2.45185 0.0596763 2.50017C0.627944 3.0438 1.4818 3.85791 1.4818 3.85791C1.48107 3.85791 1.24738 5.04218 1.09207 5.83233C1.079 5.90385 1.10368 5.97955 1.16319 6.02483C1.22234 6.0701 1.29854 6.07086 1.35842 6.03548C2.02757 5.63679 3.02984 5.03724 3.02984 5.03724C3.02984 5.03724 4.03247 5.63679 4.70053 6.03586C4.76149 6.07086 4.8377 6.0701 4.89685 6.02483C4.95636 5.97955 4.98103 5.90385 4.96761 5.83271C4.8123 5.04218 4.57896 3.85791 4.57896 3.85791C4.57896 3.85791 5.43282 3.0438 6.00108 2.50131C6.05189 2.45147 6.07439 2.37501 6.05189 2.30196C6.02939 2.22892 5.96843 2.18061 5.89948 2.17224C5.13453 2.08246 3.98747 1.94931 3.98747 1.94931C3.98747 1.94931 3.5121 0.846831 3.19531 0.111846C3.16555 0.0460317 3.10314 0 3.02984 0C2.95653 0 2.89376 0.0464122 2.86545 0.111846C2.5483 0.846831 2.07329 1.94931 2.07329 1.94931Z" fill="#DCDCDC"/>
<path d="M19.043 1.94931C19.043 1.94931 17.8963 2.08246 17.1313 2.17148C17.0624 2.18023 17.0014 2.22854 16.9786 2.30196C16.9557 2.37539 16.9786 2.45185 17.0294 2.50017C17.5976 3.0438 18.4515 3.85791 18.4515 3.85791C18.4508 3.85791 18.2171 5.04218 18.0618 5.83233C18.0487 5.90385 18.0734 5.97955 18.1329 6.02483C18.192 6.0701 18.2682 6.07086 18.3281 6.03548C18.9973 5.63679 19.9995 5.03724 19.9995 5.03724C19.9995 5.03724 21.0022 5.63679 21.6702 6.03586C21.7312 6.07086 21.8074 6.0701 21.8665 6.02483C21.9261 5.97955 21.9507 5.90385 21.9373 5.83271C21.782 5.04218 21.5487 3.85791 21.5487 3.85791C21.5487 3.85791 22.4025 3.0438 22.9708 2.50131C23.0216 2.45147 23.0441 2.37501 23.0216 2.30196C22.9991 2.22892 22.9381 2.18061 22.8692 2.17224C22.1042 2.08246 20.9572 1.94931 20.9572 1.94931C20.9572 1.94931 20.4818 0.846831 20.165 0.111846C20.1352 0.0460317 20.0728 0 19.9995 0C19.9262 0 19.8635 0.0464122 19.8351 0.111846C19.518 0.846831 19.043 1.94931 19.043 1.94931Z" fill="#DCDCDC"/>
<path d="M27.5278 1.94931C27.5278 1.94931 26.3811 2.08246 25.6162 2.17148C25.5472 2.18023 25.4863 2.22854 25.4634 2.30196C25.4406 2.37539 25.4634 2.45185 25.5142 2.50017C26.0825 3.0438 26.9363 3.85791 26.9363 3.85791C26.9356 3.85791 26.7019 5.04218 26.5466 5.83233C26.5335 5.90385 26.5582 5.97955 26.6177 6.02483C26.6769 6.0701 26.7531 6.07086 26.813 6.03548C27.4821 5.63679 28.4844 5.03724 28.4844 5.03724C28.4844 5.03724 29.487 5.63679 30.1551 6.03586C30.216 6.07086 30.2922 6.0701 30.3514 6.02483C30.4109 5.97955 30.4356 5.90385 30.4222 5.83271C30.2668 5.04218 30.0335 3.85791 30.0335 3.85791C30.0335 3.85791 30.8874 3.0438 31.4556 2.50131C31.5064 2.45147 31.5289 2.37501 31.5064 2.30196C31.4839 2.22892 31.423 2.18061 31.354 2.17224C30.5891 2.08246 29.442 1.94931 29.442 1.94931C29.442 1.94931 28.9666 0.846831 28.6499 0.111846C28.6201 0.0460317 28.5577 0 28.4844 0C28.4111 0 28.3483 0.0464122 28.32 0.111846C28.0028 0.846831 27.5278 1.94931 27.5278 1.94931Z" fill="#DCDCDC"/>
<path d="M36.0127 1.94931C36.0127 1.94931 34.866 2.08246 34.101 2.17148C34.0321 2.18023 33.9711 2.22854 33.9483 2.30196C33.9254 2.37539 33.9483 2.45185 33.9991 2.50017C34.5673 3.0438 35.4212 3.85791 35.4212 3.85791C35.4205 3.85791 35.1868 5.04218 35.0315 5.83233C35.0184 5.90385 35.0431 5.97955 35.1026 6.02483C35.1617 6.0701 35.2379 6.07086 35.2978 6.03548C35.967 5.63679 36.9692 5.03724 36.9692 5.03724C36.9692 5.03724 37.9719 5.63679 38.6399 6.03586C38.7009 6.07086 38.7771 6.0701 38.8362 6.02483C38.8958 5.97955 38.9204 5.90385 38.907 5.83271C38.7517 5.04218 38.5184 3.85791 38.5184 3.85791C38.5184 3.85791 39.3722 3.0438 39.9405 2.50131C39.9913 2.45147 40.0138 2.37501 39.9913 2.30196C39.9688 2.22892 39.9078 2.18061 39.8389 2.17224C39.0739 2.08246 37.9269 1.94931 37.9269 1.94931C37.9269 1.94931 37.4515 0.846831 37.1347 0.111846C37.1049 0.0460317 37.0425 0 36.9692 0C36.8959 0 36.8331 0.0464122 36.8048 0.111846C36.4877 0.846831 36.0127 1.94931 36.0127 1.94931Z" fill="#DCDCDC"/>
</svg>
