<?xml version="1.0" encoding="UTF-8"?>
<svg width="30px" height="30px" viewBox="0 0 30 30" version="1.1" xmlns="http://www.w3.org/2000/svg" xmlns:xlink="http://www.w3.org/1999/xlink">
    <title>agreement</title>
    <g id="agreement" stroke="none" stroke-width="1" fill="none" fill-rule="evenodd">
        <g id="5947315_agreement_contract_document_success_writing_icon" transform="translate(5.000000, 4.000000)" fill="#940000" fill-rule="nonzero">
            <path d="M3.71815889,17.551893 L0,17.551893 L4.43387764,22 L4.43387764,18.2699086 C4.43387764,17.875 4.11180421,17.551893 3.71815889,17.551893 Z" id="Path"></path>
            <polygon id="Path" points="13.51277 19.9931462 16.3434376 17.598564 13.4734054 16.2810052"></polygon>
            <path d="M20.5804926,6.59138381 L19.0202257,5.87336815 C18.6623663,5.70822454 18.2329351,5.86618799 18.0683198,6.2287859 L17.4492231,7.58583551 L20.3156767,8.90339426 L20.9347734,7.54634465 C21.0993887,7.18733681 20.9419306,6.76011749 20.5804926,6.59138381 Z" id="Path"></path>
            <path d="M12.7576867,16.1266319 L16.1036718,8.80646214 L16.1036718,0.718015666 C16.1036718,0.32310705 15.7815984,0 15.3879531,0 L0.715718748,0 C0.322073436,0 0,0.32310705 0,0.718015666 L0,16.8338773 L3.71815889,16.8338773 C4.50902811,16.8338773 5.14959639,17.4765013 5.14959639,18.2699086 L5.14959639,22 L15.3879531,22 C15.7815984,22 16.1036718,21.676893 16.1036718,21.2819843 L16.1036718,18.7402089 L12.8149442,21.5225196 L12.7576867,16.1266319 Z M2.33682171,2.00326371 L6.29474639,2.00326371 C6.49156904,2.00326371 6.65260576,2.16481723 6.65260576,2.36227154 C6.65260576,2.55972585 6.49156904,2.72127937 6.29474639,2.72127937 L2.33682171,2.72127937 C2.13999906,2.72127937 1.97896234,2.55972585 1.97896234,2.36227154 C1.97896234,2.16481723 2.13999906,2.00326371 2.33682171,2.00326371 Z M2.33682171,4.56657963 L9.00374185,4.56657963 C9.2005645,4.56657963 9.36160122,4.72813316 9.36160122,4.92558747 C9.36160122,5.12304178 9.2005645,5.2845953 9.00374185,5.2845953 L2.33682171,5.2845953 C2.13999906,5.2845953 1.97896234,5.12304178 1.97896234,4.92558747 C1.97896234,4.72813316 2.13999906,4.56657963 2.33682171,4.56657963 Z M2.33682171,7.13348564 L13.7668501,7.13348564 C13.9636728,7.13348564 14.1247095,7.29503916 14.1247095,7.49249347 C14.1247095,7.68994778 13.9636728,7.85150131 13.7668501,7.85150131 L2.33682171,7.85150131 C2.13999906,7.85150131 1.97896234,7.68994778 1.97896234,7.49249347 C1.97896234,7.29503916 2.13999906,7.13348564 2.33682171,7.13348564 Z M2.33682171,9.70039164 L13.7668501,9.70039164 C13.9636728,9.70039164 14.1247095,9.86194517 14.1247095,10.0593995 C14.1247095,10.2568538 13.9636728,10.4184073 13.7668501,10.4184073 L2.33682171,10.4184073 C2.13999906,10.4184073 1.97896234,10.2568538 1.97896234,10.0593995 C1.97896234,9.86194517 2.13999906,9.70039164 2.33682171,9.70039164 Z M2.33682171,12.2672977 L13.7668501,12.2672977 C13.9636728,12.2672977 14.1247095,12.4288512 14.1247095,12.6263055 C14.1247095,12.8237598 13.9636728,12.9853133 13.7668501,12.9853133 L2.33682171,12.9853133 C2.13999906,12.9853133 1.97896234,12.8237598 1.97896234,12.6263055 C1.97896234,12.4288512 2.13999906,12.2672977 2.33682171,12.2672977 Z M8.05183591,15.5486292 L2.33682171,15.5486292 C2.13999906,15.5486292 1.97896234,15.3870757 1.97896234,15.1896214 C1.97896234,14.9921671 2.13999906,14.8306136 2.33682171,14.8306136 L8.05183591,14.8306136 C8.24865857,14.8306136 8.40969529,14.9921671 8.40969529,15.1896214 C8.40969529,15.3870757 8.24865857,15.5486292 8.05183591,15.5486292 Z" id="Shape"></path>
            <polygon id="Rectangle" transform="translate(16.892931, 12.592811) rotate(-65.380125) translate(-16.892931, -12.592811) " points="12.8330971 11.0204721 20.9565965 11.0106248 20.9527646 14.1651508 12.8292652 14.1749982"></polygon>
        </g>
    </g>
</svg>