<?xml version="1.0" encoding="UTF-8"?>
<svg width="30px" height="30px" viewBox="0 0 30 30" version="1.1" xmlns="http://www.w3.org/2000/svg" xmlns:xlink="http://www.w3.org/1999/xlink">
    <title>CREDIT NOTE</title>
    <g id="CREDIT-NOTE" stroke="none" stroke-width="1" fill="none" fill-rule="evenodd">
        <g id="211656_text_document_icon" transform="translate(7.000000, 4.000000)" fill="#000000" fill-rule="nonzero">
            <path d="M16.8878472,6.00416667 C16.8347222,5.878125 16.7697917,5.7578125 16.68125,5.6546875 L11.7347222,0.401041667 C11.6225694,0.280729167 11.4868056,0.194791667 11.3392361,0.1203125 C11.1680556,0.034375 10.9791667,0 10.7784722,0 L1.33993056,0 C0.607986111,0 0,0.607291667 0,1.36927083 L0,20.5734375 C0,21.3411458 0.607986111,22 1.33993056,22 L15.6895833,22 C16.4215278,22 17,21.3411458 17,20.5734375 L17,6.58854167 C17,6.38229167 16.9704861,6.18177083 16.8878472,6.00416667 Z M8.64438148,8 C8.86938148,8 9.06938148,8.19555556 9.06938148,8.41555556 L9.06938148,8.97777778 C9.06938148,9.07555556 9.14438148,9.14888889 9.24438148,9.17333333 C9.76938148,9.27111111 10.1943815,9.51555556 10.4943815,9.88222222 C10.6943815,10.1266667 10.8443815,10.4444444 10.9193815,10.7866667 C10.9943815,11.1533333 10.6943815,11.52 10.2943815,11.52 L10.2693815,11.52 C9.96938148,11.52 9.71938148,11.3 9.64438148,11.0311111 C9.59438148,10.8111111 9.51938148,10.64 9.39438148,10.4933333 C9.21938148,10.2244444 8.94438148,10.1022222 8.59438148,10.1022222 C8.24438148,10.1022222 7.96938148,10.1755556 7.79438148,10.3711111 C7.61938148,10.5666667 7.51938148,10.8111111 7.51938148,11.1288889 C7.51938148,11.4222222 7.59438148,11.6422222 7.79438148,11.8377778 C7.99438148,12.0333333 8.31938148,12.2044444 8.81938148,12.3755556 C9.54438148,12.6444444 10.1193815,12.9377778 10.4693815,13.28 C10.8443815,13.6222222 11.0193815,14.1111111 11.0193815,14.6977778 C11.0193815,15.2844444 10.8443815,15.7733333 10.4443815,16.14 C10.1193815,16.4577778 9.66938148,16.6777778 9.11938148,16.7511111 C9.01938148,16.7755556 8.94438148,16.8733333 8.94438148,16.9711111 L8.94438148,17.3866667 C8.94438148,17.6066667 8.74438148,17.8022222 8.51938148,17.8022222 C8.29438148,17.8022222 8.09438148,17.6066667 8.09438148,17.3866667 L8.09438148,16.9711111 C8.09438148,16.8488889 8.01938148,16.7755556 7.91938148,16.7511111 C7.36938148,16.6777778 6.91938148,16.4577778 6.54438148,16.1155556 C6.26938148,15.8955556 6.09438148,15.5777778 6.01938148,15.1866667 C5.91938148,14.7955556 6.21938148,14.4288889 6.61938148,14.4288889 L6.64438148,14.4288889 C6.91938148,14.4288889 7.16938148,14.6244444 7.24438148,14.8933333 C7.31938148,15.1377778 7.41938148,15.3088889 7.56938148,15.4555556 C7.81938148,15.6755556 8.11938148,15.7733333 8.49438148,15.7733333 C8.86938148,15.7733333 9.16938148,15.7 9.39438148,15.5044444 C9.61938148,15.3088889 9.71938148,15.0644444 9.71938148,14.7466667 C9.71938148,14.4533333 9.61938148,14.2088889 9.41938148,14.0133333 C9.21938148,13.8422222 8.89438148,13.6466667 8.44438148,13.5 C7.69438148,13.2555556 7.14438148,12.9622222 6.76938148,12.62 C6.39438148,12.2777778 6.21938148,11.7888889 6.21938148,11.2022222 C6.21938148,10.64 6.39438148,10.1755556 6.74438148,9.80888889 C7.06938148,9.46666667 7.49438148,9.27111111 8.01938148,9.17333333 C8.11938148,9.14888889 8.19438148,9.05111111 8.19438148,8.95333333 L8.19438148,8.41555556 C8.19438148,8.19555556 8.39438148,8 8.61938148,8 Z M10.7430556,2.05104167 L14.9458333,6.4796875 L11.3982639,6.4796875 C11.0677083,6.4796875 10.7430556,6.18177083 10.7430556,5.83229167 L10.7430556,2.05104167 Z" id="Shape"></path>
        </g>
        <g id="211656_text_document_icon-copy" transform="translate(7.000000, 4.000000)" fill="#957504" fill-rule="nonzero">
            <path d="M16.8878472,6.00416667 C16.8347222,5.878125 16.7697917,5.7578125 16.68125,5.6546875 L11.7347222,0.401041667 C11.6225694,0.280729167 11.4868056,0.194791667 11.3392361,0.1203125 C11.1680556,0.034375 10.9791667,0 10.7784722,0 L1.33993056,0 C0.607986111,0 0,0.607291667 0,1.36927083 L0,20.5734375 C0,21.3411458 0.607986111,22 1.33993056,22 L15.6895833,22 C16.4215278,22 17,21.3411458 17,20.5734375 L17,6.58854167 C17,6.38229167 16.9704861,6.18177083 16.8878472,6.00416667 Z M8.64438148,8 C8.86938148,8 9.06938148,8.19555556 9.06938148,8.41555556 L9.06938148,8.97777778 C9.06938148,9.07555556 9.14438148,9.14888889 9.24438148,9.17333333 C9.76938148,9.27111111 10.1943815,9.51555556 10.4943815,9.88222222 C10.6943815,10.1266667 10.8443815,10.4444444 10.9193815,10.7866667 C10.9943815,11.1533333 10.6943815,11.52 10.2943815,11.52 L10.2693815,11.52 C9.96938148,11.52 9.71938148,11.3 9.64438148,11.0311111 C9.59438148,10.8111111 9.51938148,10.64 9.39438148,10.4933333 C9.21938148,10.2244444 8.94438148,10.1022222 8.59438148,10.1022222 C8.24438148,10.1022222 7.96938148,10.1755556 7.79438148,10.3711111 C7.61938148,10.5666667 7.51938148,10.8111111 7.51938148,11.1288889 C7.51938148,11.4222222 7.59438148,11.6422222 7.79438148,11.8377778 C7.99438148,12.0333333 8.31938148,12.2044444 8.81938148,12.3755556 C9.54438148,12.6444444 10.1193815,12.9377778 10.4693815,13.28 C10.8443815,13.6222222 11.0193815,14.1111111 11.0193815,14.6977778 C11.0193815,15.2844444 10.8443815,15.7733333 10.4443815,16.14 C10.1193815,16.4577778 9.66938148,16.6777778 9.11938148,16.7511111 C9.01938148,16.7755556 8.94438148,16.8733333 8.94438148,16.9711111 L8.94438148,17.3866667 C8.94438148,17.6066667 8.74438148,17.8022222 8.51938148,17.8022222 C8.29438148,17.8022222 8.09438148,17.6066667 8.09438148,17.3866667 L8.09438148,16.9711111 C8.09438148,16.8488889 8.01938148,16.7755556 7.91938148,16.7511111 C7.36938148,16.6777778 6.91938148,16.4577778 6.54438148,16.1155556 C6.26938148,15.8955556 6.09438148,15.5777778 6.01938148,15.1866667 C5.91938148,14.7955556 6.21938148,14.4288889 6.61938148,14.4288889 L6.64438148,14.4288889 C6.91938148,14.4288889 7.16938148,14.6244444 7.24438148,14.8933333 C7.31938148,15.1377778 7.41938148,15.3088889 7.56938148,15.4555556 C7.81938148,15.6755556 8.11938148,15.7733333 8.49438148,15.7733333 C8.86938148,15.7733333 9.16938148,15.7 9.39438148,15.5044444 C9.61938148,15.3088889 9.71938148,15.0644444 9.71938148,14.7466667 C9.71938148,14.4533333 9.61938148,14.2088889 9.41938148,14.0133333 C9.21938148,13.8422222 8.89438148,13.6466667 8.44438148,13.5 C7.69438148,13.2555556 7.14438148,12.9622222 6.76938148,12.62 C6.39438148,12.2777778 6.21938148,11.7888889 6.21938148,11.2022222 C6.21938148,10.64 6.39438148,10.1755556 6.74438148,9.80888889 C7.06938148,9.46666667 7.49438148,9.27111111 8.01938148,9.17333333 C8.11938148,9.14888889 8.19438148,9.05111111 8.19438148,8.95333333 L8.19438148,8.41555556 C8.19438148,8.19555556 8.39438148,8 8.61938148,8 Z M10.7430556,2.05104167 L14.9458333,6.4796875 L11.3982639,6.4796875 C11.0677083,6.4796875 10.7430556,6.18177083 10.7430556,5.83229167 L10.7430556,2.05104167 Z" id="Shape"></path>
        </g>
    </g>
</svg>