<?xml version="1.0" encoding="UTF-8"?>
<svg width="30px" height="30px" viewBox="0 0 30 30" version="1.1" xmlns="http://www.w3.org/2000/svg" xmlns:xlink="http://www.w3.org/1999/xlink">
    <title>provider</title>
    <g id="provider" stroke="none" stroke-width="1" fill="none" fill-rule="evenodd">
        <g id="211656_text_document_icon" transform="translate(7.000000, 4.000000)" fill="#FAA400" fill-rule="nonzero">
            <path d="M16.8878472,6.00416667 C16.8347222,5.878125 16.7697917,5.7578125 16.68125,5.6546875 L11.7347222,0.401041667 C11.6225694,0.280729167 11.4868056,0.194791667 11.3392361,0.1203125 C11.1680556,0.034375 10.9791667,0 10.7784722,0 L1.33993056,0 C0.607986111,0 0,0.607291667 0,1.36927083 L0,20.5734375 C0,21.3411458 0.607986111,22 1.33993056,22 L15.6895833,22 C16.4215278,22 17,21.3411458 17,20.5734375 L17,6.58854167 C17,6.38229167 16.9704861,6.18177083 16.8878472,6.00416667 Z M2.83333333,6.54270833 C2.83333333,6.45677083 2.93958333,6.42239583 3.03402778,6.42239583 L7.21319444,6.42239583 C7.30763889,6.42239583 7.37847222,6.45677083 7.37847222,6.54270833 L7.37847222,7.16145833 C7.37847222,7.24166667 7.31354167,7.3390625 7.21319444,7.3390625 L3.03402778,7.3390625 C2.93958333,7.3390625 2.83333333,7.24166667 2.83333333,7.16145833 L2.83333333,6.54270833 L2.83333333,6.54270833 Z M2.83333333,13.8760417 C2.83333333,13.7901042 2.93958333,13.7557292 3.03402778,13.7557292 L10.2472222,13.7557292 C10.3416667,13.7557292 10.3888889,13.7901042 10.3888889,13.8760417 L10.3888889,14.4947917 C10.3888889,14.575 10.3475694,14.6723958 10.2472222,14.6723958 L3.03402778,14.6723958 C2.93958333,14.6723958 2.83333333,14.575 2.83333333,14.4947917 L2.83333333,13.8760417 Z M12.2777778,18.1614583 C12.2777778,18.2416667 12.2364583,18.3390625 12.1361111,18.3390625 L3.03402778,18.3390625 C2.93958333,18.3390625 2.83333333,18.2416667 2.83333333,18.1614583 L2.83333333,17.5427083 C2.83333333,17.4567708 2.93958333,17.4223958 3.03402778,17.4223958 L12.1361111,17.4223958 C12.2305556,17.4223958 12.2777778,17.4567708 12.2777778,17.5427083 L12.2777778,18.1614583 Z M14.1666667,10.828125 C14.1666667,10.9083333 14.1253472,11.0057292 14.025,11.0057292 L3.03402778,11.0057292 C2.93958333,11.0057292 2.83333333,10.9083333 2.83333333,10.828125 L2.83333333,10.209375 C2.83333333,10.1234375 2.93958333,10.0890625 3.03402778,10.0890625 L14.025,10.0890625 C14.1194444,10.0890625 14.1666667,10.1234375 14.1666667,10.209375 L14.1666667,10.828125 Z M11.3982639,6.4796875 C11.0677083,6.4796875 10.7430556,6.18177083 10.7430556,5.83229167 L10.7430556,2.05104167 L14.9458333,6.4796875 L11.3982639,6.4796875 Z" id="Shape"></path>
        </g>
    </g>
</svg>