<?xml version="1.0" encoding="UTF-8"?>
<svg width="30px" height="30px" viewBox="0 0 30 30" version="1.1" xmlns="http://www.w3.org/2000/svg" xmlns:xlink="http://www.w3.org/1999/xlink">
    <title>revenue</title>
    <g id="revenue" stroke="none" stroke-width="1" fill="none" fill-rule="evenodd">
        <g id="3312874_fee_income_money_payment_icon" transform="translate(6.000000, 4.000000)" fill="#170094" fill-rule="nonzero">
            <path d="M17.9611579,13.5615435 C18.183767,13.6700358 18.406376,14.031677 18.406376,14.2848258 C18.406376,14.4294823 18.332173,14.5379746 18.2208685,14.6103028 C18.109564,14.6826311 17.9982594,14.7187952 17.8498534,14.7549593 C17.3304324,14.8272875 16.7739099,14.8996158 16.2544889,14.971944 L16.2544889,14.971944 C15.7350678,15.0442722 15.2156468,15.1166005 14.6962258,15.1889287 C14.5478198,15.2250928 14.3994138,15.1889287 14.2881092,15.1527646 C13.9912972,15.0442722 13.8428912,14.7187952 13.9170942,14.357154 C13.9912972,14.1040052 14.1397032,13.9231846 14.4365153,13.8870205 C15.4011543,13.7423641 16.3286919,13.6338717 17.2933309,13.5253794 C17.5159399,13.4530511 17.7756504,13.4530511 17.9611579,13.5615435 Z" id="Path"></path>
            <path d="M14.1768047,20.1434126 C14.1397032,20.1795767 14.1397032,20.2519049 14.1026017,20.288069 C13.9170942,20.8305308 13.9912972,21.3729925 14.3623122,21.8069619 C14.3994138,21.843126 14.3994138,21.843126 14.4365153,21.8792901 C13.9541957,21.9516184 13.4347747,21.9877825 12.9524552,21.9877825 C12.0991206,22.0239466 11.2457861,21.9877825 10.3924515,21.7707978 C9.61331999,21.5899772 8.90839145,21.228336 8.12925991,21.1198437 C7.53563588,21.0475155 6.94201185,21.0475155 6.31128631,21.0113514 C5.86606829,21.0113514 5.49505327,20.6497102 5.42085026,20.2157408 L4.67882022,14.3933181 C4.64171872,13.9955129 4.86432773,13.5977076 5.23534275,13.4530511 C5.68056078,13.2722305 6.1257788,13.0190817 6.53389532,12.7659329 C7.79534639,11.8979941 10.0214365,10.1259525 11.5425981,9.7643113 C13.2121657,9.33034191 14.6591243,10.2706089 16.2915904,10.5599219 C16.7739099,10.6322501 17.7385489,10.6684142 17.7756504,11.3193683 C17.8498534,12.5127841 16.3286919,12.7297688 15.4011543,12.7297688 C14.8446318,12.7297688 14.2510077,12.6936047 13.6944852,12.5851123 C13.5460792,12.5489482 13.1750642,12.4042918 13.0266582,12.4404559 C12.9895567,12.4404559 12.9153537,12.47662 12.8782522,12.5127841 C12.5443387,12.7297688 12.5443387,13.2722305 12.4330341,13.6338717 C12.2475266,14.1040052 11.9507146,14.6103028 11.6539026,15.0081081 C11.1715831,15.6228981 10.3182485,16.4546727 9.46491398,16.7078216 C9.42781248,16.7078216 9.42781248,16.7439857 9.42781248,16.7439857 C9.42781248,16.7439857 9.46491398,16.7801498 9.46491398,16.7801498 C11.1344816,16.6354933 12.2846281,15.4059134 12.9895567,14.031677 C12.9895567,14.031677 12.9895567,14.031677 12.9895567,14.031677 C12.9895567,14.0678411 12.9524552,14.1040052 12.9524552,14.1401693 C12.8411507,14.5741387 12.9153537,15.0442722 13.1750642,15.3697493 C12.8411507,15.586734 12.5814402,15.9483751 12.5072371,16.3823445 C12.4330341,16.852478 12.5443387,17.2864474 12.8411507,17.6480886 C12.9524552,17.792745 13.1008612,17.9012374 13.2863687,17.9735656 C13.2121657,18.082058 13.1750642,18.1905503 13.1379627,18.2990427 C13.1750642,18.8053403 13.2863687,19.3116379 13.5831807,19.6732791 C13.7315867,19.8902638 13.9541957,20.0349202 14.1768047,20.1434126 Z" id="Path"></path>
            <g id="Group" transform="translate(5.756446, 0.000000)">
                <path d="M12.0934077,1.30190817 C12.1305092,0.687118203 11.7223926,0.253148811 11.0916671,0.253148811 C9.013983,0.144656464 6.93629889,0.0723282319 4.85861478,0 C4.78441177,0 4.67310727,0 4.56180276,0 C4.07948324,0.144656464 3.78267122,0.506297623 3.78267122,1.01259525 C3.70846822,2.96545751 3.67136671,4.44818626 3.59716371,6.25639206 L3.56006221,7.23282319 L3.52296071,8.20925431 C3.4858592,8.8602084 3.4487577,9.47499837 3.4116562,10.0536242 C3.85687422,9.69198307 4.33919375,9.40267014 4.89571628,9.22184956 C4.93281778,8.57089547 4.96991928,7.91994139 5.00702079,7.2689873 C5.04412229,6.11173559 5.08122379,4.990648 5.15542679,3.65257571 C5.1925283,3.65257571 5.2296298,3.61641159 5.2667313,3.61641159 L5.3038328,3.61641159 C6.00876134,3.43559101 6.49108087,3.00162162 6.63948687,2.31450342 C7.56702442,2.35066754 8.38325747,2.38683165 9.12528751,2.38683165 C9.31079502,3.14627809 9.79311454,3.65257571 10.5351446,3.8695604 C10.4609416,5.27996093 10.4238401,6.43721263 10.3867386,7.44980788 L10.3867386,7.52213611 L10.3867386,7.59446434 C10.3496371,8.28158255 10.3125356,9.00486487 10.2754341,9.87280365 C10.4609416,9.90896776 10.6464491,9.94513188 10.8319566,9.981296 C10.9061596,9.981296 10.9432611,10.0174601 11.0174641,10.0174601 C11.1658701,10.0536242 11.4255806,10.0897883 11.6852911,10.1259525 L11.8336972,7.16049495 L11.8336972,7.16049495 L11.8336972,7.05200261 L11.8336972,6.90734614 L11.8336972,6.90734614 L12.0934077,1.30190817 Z" id="Path"></path>
                <ellipse id="Oval" transform="translate(7.655414, 7.414248) rotate(-87.933296) translate(-7.655414, -7.414248) " cx="7.65541366" cy="7.41424846" rx="1.55503304" ry="1.59523379"></ellipse>
                <ellipse id="Oval" transform="translate(7.655414, 7.414248) rotate(-87.933296) translate(-7.655414, -7.414248) " cx="7.65541366" cy="7.41424846" rx="1.55503304" ry="1.59523379"></ellipse>
                <path d="M0.777449557,1.55505698 C0.703246553,1.5912211 0.591942047,1.5912211 0.517739043,1.66354933 C0.0725210184,1.91669814 -0.0758849896,2.35066754 0.0354195164,2.85696516 C0.591942047,4.73749919 0.962957067,6.18406382 1.48237809,7.91994139 L1.74208861,8.8602084 L2.00179912,9.83663953 C2.11310363,10.2706089 2.22440813,10.6684142 2.33571264,11.0662195 C2.40991564,10.9938912 2.48411865,10.921563 2.55832165,10.8492348 C2.59542316,10.4514295 2.59542316,10.0174601 2.63252466,9.61965484 L2.74382916,7.23282319 L2.74382916,7.16049495 C2.55832165,6.47337675 2.33571264,5.78625855 2.15020513,5.02681211 C2.18730663,4.990648 2.22440813,4.990648 2.22440813,4.95448388 L2.26150964,4.91831977 C2.48411865,4.7736633 2.70672766,4.59284272 2.81803217,4.41202214 C2.85513367,3.32709867 2.89223517,2.2783393 2.92933667,1.01259525 C2.92933667,1.01259525 2.92933667,0.97643113 2.92933667,0.97643113 C2.26150964,1.15725171 1.5194796,1.37423641 0.777449557,1.55505698 Z" id="Path"></path>
            </g>
            <path d="M4.1593992,21.517649 L1.59939556,21.8069619 C1.30258354,21.843126 0.968670024,21.6261413 0.931568522,21.3006643 L0.00403097135,13.9231846 C-0.0330705307,13.5977076 0.189538481,13.3083947 0.523451999,13.2722305 L3.08345564,12.9829176 C3.41736916,12.9467535 3.71418117,13.1637382 3.75128267,13.4892152 L4.67882022,20.8666949 C4.71592173,21.1921719 4.49331271,21.4814849 4.1593992,21.517649 Z" id="Path"></path>
            <path d="M17.9982594,21.0475155 C17.7014474,21.1198437 17.4046354,21.1921719 17.1078234,21.228336 C16.6255039,21.3006643 16.1802858,21.3729925 15.6979663,21.4814849 C15.4382558,21.517649 15.2156468,21.4814849 15.0301393,21.2645002 C14.8446318,21.0475155 14.8075303,20.7943667 14.9188348,20.5412178 C14.9930378,20.3242331 15.1785453,20.2157408 15.4382558,20.1434126 C15.4753573,20.1434126 15.5866618,20.1072485 15.6979663,20.1072485 C15.6979663,20.1072485 15.6979663,20.1072485 15.6979663,20.1072485 C16.2544889,19.9987561 17.4417369,19.8179355 17.8127519,19.7817714 C17.8498534,19.7817714 17.8869549,19.7817714 17.9240564,19.7817714 L17.9240564,19.7817714 C17.9240564,19.7817714 17.9240564,19.7817714 17.9240564,19.7817714 C18.25797,19.7817714 18.406376,19.8902638 18.4434775,20.1434126 C18.5176805,20.5412178 18.332173,20.9390231 17.9982594,21.0475155 Z" id="Path"></path>
            <path d="M18.25797,18.8776685 C18.109564,18.9138326 17.9611579,18.9138326 17.8127519,18.9499967 C17.2933309,19.022325 16.8110114,19.0946532 16.2915904,19.1669814 C16.0689813,19.2031456 15.8463723,19.2393097 15.5866618,19.2754738 C15.5866618,19.2754738 15.5495603,19.2754738 15.5495603,19.2754738 C15.3269513,19.3116379 15.1043423,19.3116379 14.9188348,19.347802 C14.2881092,19.4562944 14.0655002,18.8776685 14.1768047,18.4798632 C14.2139062,18.2628785 14.3623122,18.1543862 14.5478198,18.082058 L14.5478198,18.082058 C14.6220228,18.0458938 14.6591243,18.0458938 14.7333273,18.0458938 C15.2898498,17.9735656 15.8834738,17.9012374 16.4399964,17.8289092 C16.9965189,17.7565809 17.5530414,17.6842527 18.1466655,17.6119245 C18.2208685,17.6119245 18.332173,17.6119245 18.406376,17.6119245 L18.406376,17.6119245 C18.703188,17.6480886 18.8886955,17.7565809 18.925797,18.0097297 C18.925797,18.4436991 18.703188,18.8053403 18.25797,18.8776685 Z" id="Path"></path>
            <path d="M19,15.9845392 C18.9628985,16.4908369 18.777391,16.7078216 18.2950715,16.7801498 C18.2950715,16.7801498 18.2950715,16.7801498 18.2950715,16.7801498 C17.6272444,16.852478 16.9965189,16.9609704 16.3286919,17.0332986 C15.6608648,17.1417909 14.9930378,17.2141192 14.3252107,17.2864474 C14.3252107,17.2864474 14.3252107,17.2864474 14.3252107,17.2864474 C14.2881092,17.2864474 14.2510077,17.2864474 14.2139062,17.2864474 C13.7686882,17.2864474 13.4718762,16.9609704 13.5460792,16.4908369 C13.5831807,16.2015239 13.7686882,16.0207034 14.0655002,15.9845392 C14.1397032,15.9845392 14.1768047,15.9845392 14.2510077,15.9483751 C15.5495603,15.7675545 16.8481129,15.586734 18.1466655,15.4420775 C18.25797,15.4420775 18.3692745,15.4420775 18.480579,15.4420775 C18.554782,15.4420775 18.628985,15.4782416 18.6660865,15.4782416 C18.8886955,15.5505698 19,15.7313904 19,15.9845392 Z" id="Path"></path>
        </g>
    </g>
</svg>