<?xml version="1.0" encoding="UTF-8"?>
<svg width="30px" height="30px" viewBox="0 0 30 30" version="1.1" xmlns="http://www.w3.org/2000/svg" xmlns:xlink="http://www.w3.org/1999/xlink">
    <title>sales dashboard</title>
    <g id="sales-dashboard" stroke="none" stroke-width="1" fill="none" fill-rule="evenodd">
        <g id="2402103_business_chart_graph_growth_rise_icon" transform="translate(4.000000, 4.000000)" fill="#049545" fill-rule="nonzero">
            <path d="M21.9922419,1.7581091 C22.0600583,1.21952221 21.6757654,0.74825867 21.1332342,0.680935308 L15.7757385,0.0077016864 C15.2332073,-0.0596216758 14.7584925,0.321877377 14.6906761,0.860464274 C14.6228597,1.39905117 15.0071527,1.87031471 15.5496839,1.93763807 L18.4657891,2.296696 L11.005985,8.04162291 L9.7400789,5.90971644 C9.58184063,5.66286411 9.3331805,5.46089402 9.03930943,5.41601178 C8.74543836,5.34868842 8.42896182,5.4384529 8.20290716,5.61798187 L0.404021105,11.6097611 C-0.0480882308,11.968819 -0.138510098,12.6196115 0.223177371,13.068434 C0.404021105,13.2928452 0.65268124,13.4274919 0.923946842,13.4723741 C1.19521244,13.4948152 1.46647805,13.4274919 1.69253271,13.270404 L8.49677822,8.01918179 L9.76268437,10.1510883 C9.92092263,10.3979406 10.1695828,10.5999107 10.4634538,10.6447929 C10.7573249,10.7121163 11.0738014,10.6223518 11.2998561,10.4428228 L19.7543007,3.93489781 L19.3926132,6.91956687 C19.3700078,7.18886032 19.4378242,7.43571265 19.5960624,7.63768273 C19.7543007,7.83965282 19.9803554,7.97429954 20.251621,7.99674067 C20.5002811,8.01918179 20.7715467,7.95185842 20.9749959,7.79477058 C21.1784451,7.63768273 21.3140779,7.39083041 21.3366834,7.14397808 L21.9922419,1.7581091 Z" id="XMLID_5_"></path>
            <rect id="XMLID_4_" x="12.1588638" y="12.148348" width="3.54905829" height="9.851652"></rect>
            <rect id="XMLID_3_" x="6.57531355" y="13.6743442" width="3.54905829" height="8.32565579"></rect>
            <rect id="XMLID_2_" x="17.5841759" y="9.97155929" width="3.54905829" height="12.0284407"></rect>
            <rect id="XMLID_1_" x="1.24042338" y="15.2227815" width="3.54905829" height="6.77721846"></rect>
        </g>
    </g>
</svg>