<?xml version="1.0" encoding="UTF-8"?>
<svg width="30px" height="30px" viewBox="0 0 30 30" version="1.1" xmlns="http://www.w3.org/2000/svg" xmlns:xlink="http://www.w3.org/1999/xlink">
    <title>Transaction REPORT</title>
    <g id="Transaction-REPORT" stroke="none" stroke-width="1" fill="none" fill-rule="evenodd">
        <g id="4137075_cash_currency_exchange_flow_money_icon" transform="translate(6.000000, 4.000000)" fill="#047295" fill-rule="nonzero">
            <path d="M18.2083333,5.50026404 L0.791666667,5.50026404 C0.353875,5.50026404 0,5.85224911 0,6.285945 L0,15.7141165 C0,16.1478124 0.353875,16.4997974 0.791666667,16.4997974 L18.2083333,16.4997974 C18.646125,16.4997974 19,16.1478124 19,15.7141165 L19,6.285945 C19,5.85224911 18.646125,5.50026404 18.2083333,5.50026404 Z M15.1532917,14.9284355 L3.84670833,14.9284355 C3.55933333,13.8276965 2.69245833,12.9673759 1.58333333,12.6821737 L1.58333333,9.31710213 C2.69245833,9.03268562 3.55933333,8.17236497 3.84670833,7.07162595 L15.1540833,7.07162595 C15.4414583,8.17236497 16.3083333,9.03268562 17.4174583,9.31788781 L17.4174583,12.6829594 C16.3075417,12.9673759 15.4406667,13.8276965 15.1532917,14.9284355 Z" id="XMLID_375_"></path>
            <path d="M11.875,11.0000307 C11.875,12.299547 10.8094167,13.3570736 9.5,13.3570736 C8.19058333,13.3570736 7.125,12.299547 7.125,11.0000307 C7.125,9.70051444 8.19058333,8.64298787 9.5,8.64298787 C10.8094167,8.64298787 11.875,9.70051444 11.875,11.0000307 Z" id="Path"></path>
            <path d="M2.576875,3.66727036 C2.28554167,3.34356981 2.31325,2.84701944 2.638625,2.55788885 C4.49508333,0.908744521 6.93183333,0.00049733386 9.5,0.00049733386 C11.069875,0.00049733386 12.585125,0.35012536 13.9515417,0.992026702 L14.383,0.35012536 C14.5508333,0.101064496 14.84375,-0.0325012664 15.1469583,0.00678278152 C15.447,0.0468525104 15.6971667,0.25191524 15.7921667,0.537117428 L16.5838333,2.8941603 C16.665375,3.13379299 16.6242083,3.39699611 16.475375,3.60205884 C16.3265417,3.80790725 16.0874583,3.92890212 15.8333333,3.92890212 L13.4583333,3.92890212 C13.1662083,3.92890212 12.8978333,3.76940889 12.7600833,3.51406258 C12.6223333,3.25871627 12.6381667,2.94837229 12.7996667,2.70795391 L13.0656667,2.31275639 C11.9636667,1.83113397 10.7524167,1.57185925 9.5,1.57185925 C7.322125,1.57185925 5.260625,2.33789818 3.69470833,3.72855348 C3.54429167,3.86290492 3.35429167,3.92890212 3.16666667,3.92890212 C2.94975,3.92890212 2.73283333,3.84090585 2.576875,3.66727036 Z" id="Path"></path>
            <path d="M16.4247083,18.3327911 C16.7160417,18.6564917 16.6883333,19.153042 16.3629583,19.4421726 C14.5065,21.091317 12.06975,21.9995641 9.50158333,21.9995641 C7.93170833,21.9995641 6.41645833,21.6499361 5.04925,21.0088205 L4.61858333,21.6499361 C4.45708333,21.8911402 4.16575,22.0333484 3.854625,21.9932787 C3.55458333,21.953209 3.30441667,21.7481462 3.20941667,21.4629441 L2.41775,19.1059012 C2.33620833,18.8662685 2.377375,18.6030654 2.52620833,18.3980026 C2.67504167,18.1921542 2.914125,18.0711542 3.16825,18.0711542 L5.54325,18.0711542 C5.835375,18.0711542 6.10375,18.2306526 6.2415,18.4859989 C6.37925,18.7413452 6.36341667,19.0516892 6.20191667,19.2921076 L5.9375,19.6865194 C7.0395,20.1673562 8.24916667,20.4282022 9.50158333,20.4282022 C11.6794583,20.4282022 13.7409583,19.6621633 15.306875,18.271508 C15.6314583,17.9823774 16.133375,18.0090906 16.4247083,18.3327911 Z" id="Path"></path>
        </g>
    </g>
</svg>