<?xml version="1.0" encoding="UTF-8"?>
<svg width="20px" height="21px" viewBox="0 0 20 21" version="1.1" xmlns="http://www.w3.org/2000/svg" xmlns:xlink="http://www.w3.org/1999/xlink">
    <!-- Generator: Sketch 57.1 (83088) - https://sketch.com -->
    <title>filter</title>
    <desc>Created with Sketch.</desc>
    <g id="filter" stroke="none" stroke-width="1" fill="none" fill-rule="evenodd">
        <path d="M19.1249989,1.71999996 C18.8849989,1.27999998 18.444999,1 17.964999,1 L2.28499992,1 C1.80499995,1 1.36499998,1.27999998 1.12499999,1.71999996 C0.925000004,2.15999993 0.965000002,2.6799999 1.24499999,3.07999988 L7.24499963,11 C7.32499962,11.0799994 7.36499962,11.1999994 7.36499962,11.3199994 L7.36499962,19 C7.36499962,19.6799989 7.92499959,20.1999989 8.56499955,20.1999989 C8.72499954,20.1999989 8.88499953,20.1599989 9.04499952,20.0799989 L12.1249993,18.7199989 C12.5649993,18.519999 12.8449993,18.079999 12.8449993,17.599999 L12.8449993,11.2799994 C12.8449993,11.1599994 12.8849993,11.0799994 12.9649993,10.9599994 L18.9649989,3.03999988 C19.2849989,2.6799999 19.3249989,2.15999993 19.1249989,1.71999996 Z M18.364999,2.5999999 L12.3649993,10.5199994 C12.2049993,10.7599994 12.0849993,11.0399994 12.0849993,11.3199994 L12.0849993,17.639999 C12.0849993,17.8 12.0049993,17.959999 11.8449994,17.999999 L8.76499954,19.3599989 C8.52499955,19.4799989 8.20499957,19.3199989 8.20499957,18.9999989 L8.20499957,11.2799994 C8.20499957,10.9999994 8.12499958,10.7199994 7.92499959,10.4799994 L1.88499995,2.5999999 C1.76499995,2.43999991 1.76499995,2.23999993 1.84499995,2.07999994 C1.92499994,1.91999995 2.08499994,1.79999995 2.28499992,1.79999995 L17.964999,1.79999995 C18.164999,1.79999995 18.324999,1.91999995 18.404999,2.07999994 C18.484999,2.23999993 18.484999,2.43999991 18.364999,2.5999999 Z" id="Shape" fill="#6C7A86" fill-rule="nonzero"></path>
    </g>
</svg>