<?xml version="1.0" encoding="UTF-8"?>
<svg width="16px" height="16px" viewBox="0 0 16 16" version="1.1" xmlns="http://www.w3.org/2000/svg" xmlns:xlink="http://www.w3.org/1999/xlink">
    <!-- Generator: Sketch 57.1 (83088) - https://sketch.com -->
    <title>183778_find_magnifying glass_search_zoom_icon</title>
    <desc>Created with Sketch.</desc>
    <g id="Page-1" stroke="none" stroke-width="1" fill="none" fill-rule="evenodd">
        <g id="2-Project-Management" transform="translate(-322.000000, -247.000000)" fill="#7B7B7B" fill-rule="nonzero">
            <g id="Group-4" transform="translate(309.000000, 237.000000)">
                <g id="Group-3" transform="translate(13.000000, 9.000000)">
                    <g id="183778_find_magnifying-glass_search_zoom_icon" transform="translate(0.000000, 1.000000)">
                        <path d="M16,15.1384615 L10.9138462,10.0529231 C11.7846154,8.99076923 12.3076923,7.63384615 12.3076923,6.15384615 C12.3076923,2.75507692 9.552,0 6.15384615,0 C2.75569231,0 0,2.75507692 0,6.15384615 C0,9.55261538 2.75569231,12.3076923 6.15384615,12.3076923 C7.63323077,12.3076923 8.99076923,11.7846154 10.0529231,10.9138462 L15.1384615,16 L16,15.1384615 Z M6.15384615,11.0769231 C3.43507692,11.0769231 1.23076923,8.87261538 1.23076923,6.15384615 C1.23076923,3.43507692 3.43507692,1.23076923 6.15384615,1.23076923 C8.87261538,1.23076923 11.0769231,3.43507692 11.0769231,6.15384615 C11.0769231,8.87261538 8.87261538,11.0769231 6.15384615,11.0769231 Z" id="Shape"></path>
                    </g>
                </g>
            </g>
        </g>
    </g>
</svg>