<?xml version="1.0" encoding="UTF-8"?>
<svg width="24px" height="24px" viewBox="0 0 24 24" version="1.1" xmlns="http://www.w3.org/2000/svg" xmlns:xlink="http://www.w3.org/1999/xlink">
    <title>currency</title>
    <g id="currency" stroke="none" stroke-width="1" fill="none" fill-rule="evenodd">
        <path d="M14.9166667,7.83333333 C18.8225,7.83333333 22,11.0108333 22,14.9166667 C22,18.8225 18.8225,22 14.9166667,22 C11.0108333,22 7.83333333,18.8225 7.83333333,14.9166667 C7.83333333,11.0108333 11.0108333,7.83333333 14.9166667,7.83333333 Z M4.17148148,16.1754778 L4.18350989,16.1788496 C4.19261791,16.1810765 4.20169048,16.1836199 4.21071267,16.1864843 C4.2242487,16.1911592 4.23755884,16.1964405 4.25059497,16.2023931 L4.25989632,16.2057007 L5.93583333,17.0433333 C6.14166667,17.1466667 6.225,17.3966667 6.1225,17.6025 C6.02,17.8091667 5.77,17.8908333 5.56333333,17.7891667 L4.67455841,17.3452325 C5.15734098,18.9288689 6.4228964,20.3276336 8.2525,20.3333333 C8.48166667,20.3341667 8.66833333,20.5216667 8.66750278,20.7508333 C8.66666667,20.98 8.48,21.1666667 8.25,21.1666667 L8.24833333,21.1666667 C6.08362456,21.1597749 4.56867012,19.6014522 3.94339466,17.7931366 L3.6225,18.4366667 C3.55,18.5825 3.4025,18.6666667 3.25,18.6666667 C3.1875,18.6666667 3.12416667,18.6525 3.06333333,18.6225 C2.8575,18.5191667 2.77416667,18.2691667 2.87666667,18.0633333 L3.71,16.3966667 C3.74464015,16.3276657 3.79585596,16.2726183 3.85636418,16.2337219 C3.86233279,16.2299647 3.8685445,16.2261471 3.87486826,16.2224879 C3.89271511,16.2123026 3.91100806,16.2035539 3.92981948,16.1961622 C3.94759226,16.1888439 3.96619566,16.1829161 3.98538883,16.1782775 L4.0313665,16.1702253 C4.07740741,16.1625926 4.12530864,16.1648971 4.17148148,16.1754778 Z M14.9166667,10.3333333 C14.7122222,10.3333333 14.5420165,10.480823 14.506717,10.6751349 L14.5,10.75 L14.5,11.1958333 C13.0708333,11.3375 12,12.1841667 12,13.25 C12,14.2694928 12.9797417,15.0884625 14.3156777,15.2817302 L14.5,15.3041667 L14.5,17.8066667 C13.5625,17.6875 12.8333333,17.1758333 12.8333333,16.5833333 C12.8333333,16.3533333 12.6466667,16.1666667 12.4166667,16.1666667 C12.1866667,16.1666667 12,16.3533333 12,16.5833333 C12,17.6028261 12.9797417,18.4217958 14.3156777,18.6150636 L14.5,18.6375 L14.5,19.0833333 C14.5,19.3133333 14.6866667,19.5 14.9166667,19.5 C15.1211111,19.5 15.2913169,19.3525103 15.3266164,19.1581984 L15.3333333,19.0833333 L15.3333333,18.6375 C16.7625,18.4958333 17.8333333,17.6491667 17.8333333,16.5833333 C17.8333333,15.5638406 16.8543541,14.7448708 15.5177551,14.5516031 L15.3333333,14.5291667 L15.3333333,12.0266667 C16.2708333,12.1458333 17,12.6575 17,13.25 C17,13.48 17.1866667,13.6666667 17.4166667,13.6666667 C17.6466667,13.6666667 17.8333333,13.48 17.8333333,13.25 C17.8333333,12.2305072 16.8535917,11.4115375 15.5176557,11.2182698 L15.3333333,11.1958333 L15.3333333,10.75 C15.3333333,10.52 15.1466667,10.3333333 14.9166667,10.3333333 Z M15.3333333,15.36 C16.2708333,15.4791667 17,15.9908333 17,16.5833333 C17,17.1380208 16.3598633,17.6231283 15.5066833,17.7797902 L15.3333333,17.8066667 L15.3333333,15.36 Z M14.5,12.0266667 L14.5,14.4733333 C13.5625,14.3541667 12.8333333,13.8425 12.8333333,13.25 C12.8333333,12.6575 13.5625,12.1458333 14.5,12.0266667 Z M8.25,2 C11.2783333,2 13.8083333,4.165 14.3783333,7.0275 C13.5961191,7.08025124 10.8201742,7.92207717 9.26972282,9.51875 C9.14633977,9.6458113 9.02932771,9.77691069 8.91839289,9.91100767 C8.64898349,10.0266745 8.35280781,10.0902778 8.04166667,10.0902778 C7.171875,10.0902778 6.41666667,9.59722222 6.03993056,8.875 L8.04166667,8.875 L8.04166667,8.18055556 L5.81423611,8.18055556 C5.796875,8.06770833 5.78472222,7.95138889 5.78472222,7.83333333 C5.78472222,7.71527778 5.796875,7.59895833 5.81423611,7.48611111 L8.04166667,7.48611111 L8.04166667,6.79166667 L6.03993056,6.79166667 C6.41666667,6.06944444 7.17013889,5.57638889 8.04166667,5.57638889 C8.60243056,5.57638889 9.11458333,5.78125 9.50868056,6.11979167 L10.125,5.50694444 C9.57291667,5.01215278 8.84201389,4.70833333 8.04166667,4.70833333 C6.68229167,4.70833333 5.52777778,5.578125 5.09895833,6.79166667 L3.875,6.79166667 L3.875,7.48611111 L4.9375,7.48611111 C4.92361111,7.60069444 4.91666667,7.71527778 4.91666667,7.83333333 C4.91666667,7.95138889 4.92361111,8.06597222 4.9375,8.18055556 L3.875,8.18055556 L3.875,8.875 L5.09895833,8.875 C5.52777778,10.0885417 6.68229167,10.9583333 8.04166667,10.9583333 L8.19808421,10.9526288 C7.32835093,12.4559389 7.0529345,14.0044132 7.0275,14.3783333 C4.16416667,13.8083333 2,11.2783333 2,8.25 C2,4.80333333 4.80333333,2 8.25,2 Z M15.7516667,2.83166667 C17.9159769,2.83855718 19.430772,4.39630736 20.0562599,6.20419786 L20.3766667,5.56083333 C20.48,5.355 20.73,5.27416667 20.9358333,5.37416667 C21.1416667,5.4775 21.225,5.7275 21.1225,5.93333333 L20.2912333,7.59734522 C20.2665891,7.64786591 20.2319606,7.69300765 20.1895169,7.72987849 C20.1711924,7.74575247 20.1515917,7.75994781 20.131002,7.77230167 C20.1193891,7.77937596 20.1070326,7.78599448 20.0942936,7.791999 L20.0600543,7.80619483 L20.0300673,7.81600737 C20.0127424,7.82078877 19.9956762,7.82445946 19.9784174,7.8270512 C19.9755791,7.82757498 19.9727947,7.82796748 19.97,7.82833333 C19.9525,7.83083333 19.935,7.83166667 19.9158333,7.83166667 L19.8798328,7.82866667 L19.8688328,7.82766667 L19.8568328,7.82666667 L19.8147104,7.8191459 C19.803592,7.81607459 19.7919458,7.81259555 19.7803553,7.80857822 L19.7487044,7.79647101 L19.7487044,7.79647101 L19.7394537,7.79206147 L18.0633333,6.95416667 C17.8575,6.85083333 17.7741667,6.60083333 17.8766667,6.395 C17.98,6.18916667 18.23,6.1075 18.4358333,6.20833333 L19.3259696,6.65209958 C18.8429589,5.0688749 17.5775514,3.6706985 15.7483333,3.665 C15.5191667,3.66416667 15.3325,3.47666667 15.3333306,3.2475 C15.3341667,3.01833333 15.5208333,2.83166667 15.75,2.83166667 L15.7516667,2.83166667 Z" id="Combined-Shape" fill="#7F7F7F" fill-rule="nonzero"></path>
    </g>
</svg>