<?xml version="1.0" encoding="UTF-8"?>
<svg width="15px" height="15px" viewBox="0 0 15 15" version="1.1" xmlns="http://www.w3.org/2000/svg" xmlns:xlink="http://www.w3.org/1999/xlink">
    <title>211679_information_circled_icon</title>
    <g id="Page-1" stroke="none" stroke-width="1" fill="none" fill-rule="evenodd">
        <g id="26-Download-App-Notification" transform="translate(-607.000000, -756.000000)" fill="#0FB3D4" fill-rule="nonzero">
            <g id="Group-21" transform="translate(593.000000, 743.000000)">
                <g id="211679_information_circled_icon" transform="translate(14.000000, 13.000000)">
                    <path d="M14.9992778,7.39956215 C14.9423634,3.258175 11.5408868,-0.0529259625 7.39952206,0.000640888304 C3.25815735,0.0542077391 -0.0529256757,3.45905069 0.000640884832,7.60043785 C0.0575553554,11.741825 3.45903195,15.052926 7.60039667,14.9993591 C11.7417614,14.9424443 15.0561923,11.5409493 14.9992778,7.39956215 Z M7.49995937,2.6756355 C8.09253944,2.6756355 8.57129058,3.15438923 8.57129058,3.74697252 C8.57129058,4.3395558 8.09253944,4.81830953 7.49995937,4.81830953 C6.90737929,4.81830953 6.42862815,4.3395558 6.42862815,3.74697252 C6.42862815,3.15438923 6.90737929,2.6756355 7.49995937,2.6756355 Z M8.97303978,12.1536202 L6.02687895,12.1536202 L6.02687895,11.7853481 L6.76341916,11.7853481 L6.76341916,6.42866298 L6.02687895,6.42866298 L6.02687895,6.0269116 L8.23649957,6.0269116 L8.23649957,11.7853481 L8.97303978,11.7853481 L8.97303978,12.1536202 Z" id="Shape"></path>
                </g>
            </g>
        </g>
    </g>
</svg>