<?xml version="1.0" encoding="UTF-8"?>
<svg width="174px" height="174px" viewBox="0 0 174 174" version="1.1" xmlns="http://www.w3.org/2000/svg" xmlns:xlink="http://www.w3.org/1999/xlink">
    <title>Group 14</title>
    <g id="Page-1" stroke="none" stroke-width="1" fill="none" fill-rule="evenodd">
        <g id="26-Download-App-Notification" transform="translate(-633.000000, -211.000000)">
            <g id="Group-14" transform="translate(633.000000, 211.000000)">
                <path d="M167.100893,118.557663 L161.549829,121.88166 C159.786967,122.937084 158.790258,124.915425 158.98889,126.963039 L159.609617,133.409612 C159.857907,135.991865 158.212096,138.377669 155.715004,139.059023 L149.47582,140.759921 C147.493044,141.300243 145.999754,142.935421 145.63796,144.9603 L144.499371,151.33618 C144.045354,153.889658 141.817834,155.742599 139.22852,155.723416 L132.762328,155.675103 C130.708611,155.659828 128.828698,156.830705 127.934853,158.682936 L125.122077,164.51494 C123.994129,166.850655 121.351609,168.033255 118.861611,167.314956 L112.650803,165.520985 C110.675121,164.951532 108.550464,165.571429 107.191961,167.113534 L102.910725,171.969334 C101.197521,173.913928 98.335087,174.338442 96.1323963,172.973958 L90.6309899,169.567544 C88.8823159,168.485833 86.6689841,168.508569 84.9451392,169.626159 L79.5182199,173.14554 C77.3439052,174.554784 74.4708303,174.189596 72.7186093,172.280881 L68.3380569,167.514602 C66.9476305,166.000561 64.8123329,165.424715 62.8508385,166.035375 L56.675501,167.956878 C54.1996908,168.726332 51.5323422,167.598794 50.3582832,165.286881 L47.4249092,159.514201 C46.4955936,157.680798 44.5908514,156.548643 42.5406819,156.606547 L36.0744899,156.788076 C33.4851754,156.860545 31.2221856,155.05414 30.7149637,152.510609 L29.4451356,146.159596 C29.0407769,144.142533 27.5155643,142.538616 25.5221469,142.039146 L19.2474932,140.467201 C16.7362129,139.837713 15.040744,137.486367 15.2393763,134.899852 L15.7288632,128.441556 C15.8813844,126.390389 14.8456587,124.433362 13.0615146,123.414174 L7.44305703,120.205274 C5.1942552,118.920365 4.19399949,116.198502 5.080751,113.760833 L7.29053577,107.67412 C7.99284297,105.741249 7.52109117,103.575695 6.0774597,102.112454 L1.53374496,97.5046124 C-0.285869147,95.6594864 -0.512877534,92.7688838 0.994600037,90.6608789 L4.76506747,85.3972611 C5.9604085,83.7254931 6.08810072,81.5130471 5.09139202,79.7137474 L1.95938568,74.0490615 C0.703745541,71.7801321 1.26062549,68.9353557 3.28241894,67.3133216 L8.32980855,63.263565 C9.93305528,61.9772344 10.6530975,59.8813078 10.1777987,57.8798754 L8.68450915,51.5778857 C8.08861213,49.0538927 9.39391036,46.4659561 11.7774984,45.4503198 L17.7258276,42.9142485 C19.6163818,42.1085601 20.8755689,40.2847487 20.9571501,38.2296748 L21.2160815,31.7578796 C21.3224917,29.1660353 23.276892,27.0267692 25.8449244,26.6924866 L32.2579113,25.8583789 C34.2938928,25.5933685 35.9964557,24.1770194 36.6278228,22.2203475 L38.6212402,16.0590336 C39.4228636,13.591524 41.8809388,12.0593661 44.4418771,12.4316595 L50.844223,13.3613273 C52.8766575,13.6565333 54.894904,12.7527981 56.0334929,11.0398221 L59.612422,5.64547526 C61.0454124,3.48524983 63.8262652,2.67423278 66.1921182,3.72539329 L72.1049773,6.34991977 C73.9848905,7.18331705 76.1733932,6.85898128 77.7305289,5.51652249 L82.6289442,1.28985546 C84.5904386,-0.402871754 87.4883425,-0.432712065 89.4853069,1.21916234 L94.4688504,5.34387497 C96.0543621,6.65365151 98.2499589,6.93287157 100.10859,6.06075294 L105.964697,3.31473376 C108.312815,2.21526037 111.107856,2.968373 112.58341,5.09875812 L116.275844,10.4177937 C117.446356,12.1069685 119.485884,12.9691404 121.511225,12.6320159 L127.892288,11.5705534 C130.446133,11.1453289 132.936131,12.626332 133.783865,15.07679 L135.904975,21.1958301 C136.578906,23.1390028 138.309845,24.5198277 140.349374,24.7429196 L146.780096,25.4445222 C149.355222,25.7255184 151.352186,27.8239318 151.508255,30.4132893 L151.901972,36.8779797 C152.026118,38.9312774 153.324322,40.7288009 155.229064,41.4947023 L161.230598,43.9075046 C163.635468,44.8741176 164.990425,47.4347005 164.447733,49.9704166 L163.082135,56.3018913 C162.649401,58.3125599 163.412007,60.3932112 165.04363,61.6461491 L170.172601,65.5911093 C172.226317,67.1708696 172.843496,70.0035678 171.633967,72.2977194 L168.615465,78.0259936 C167.657773,79.8455421 167.831577,82.0547909 169.062388,83.7016919 L172.939265,88.8860909 C174.492854,90.9624792 174.322598,93.8569895 172.542001,95.7397711 L168.094055,100.440331 C166.6788,101.933057 166.253159,104.107492 166.994483,106.025798 L169.328413,112.065264 C170.264823,114.484105 169.324866,117.226217 167.100893,118.557663" id="success" fill="#84BC42"></path>
                <polyline id="Fill-26" fill="#FFFFFF" points="77.1594609 120.397815 47.8008919 91.0086607 57.0798597 81.7098511 76.8721534 101.519911 118.950286 56.7217871 128.509467 65.7296536 77.1594609 120.397815"></polyline>
            </g>
        </g>
    </g>
</svg>