<?xml version="1.0" encoding="UTF-8"?>
<svg width="26px" height="26px" viewBox="0 0 26 26" version="1.1" xmlns="http://www.w3.org/2000/svg" xmlns:xlink="http://www.w3.org/1999/xlink">
    <title>booking</title>
    <g id="booking" stroke="none" stroke-width="1" fill="none" fill-rule="evenodd">
        <g id="2705539_booking_calendar_check_confirm_date_icon-copy" transform="translate(1.000000, 1.000000)" fill="#803E3E" fill-rule="nonzero">
            <path d="M6.85714286,0.857142857 C6.85714286,0.383142857 6.474,0 6,0 C5.526,0 5.14285714,0.384 5.14285714,0.857142857 L5.14285714,2.57142857 L6.85714286,2.57142857 L6.85714286,0.857142857 Z" id="Path"></path>
            <path d="M18.8571429,0.857142857 C18.8571429,0.383142857 18.474,0 18,0 C17.526,0 17.1428571,0.383142857 17.1428571,0.857142857 L17.1428571,2.57142857 L18.8571429,2.57142857 L18.8571429,0.857142857 Z" id="Path"></path>
            <path d="M21.4285714,2.57142857 L18.8571429,2.57142857 L18.8571429,6 C18.8571429,6.474 18.474,6.85714286 18,6.85714286 C17.526,6.85714286 17.1428571,6.474 17.1428571,6 L17.1428571,2.57142857 L6.85714286,2.57142857 L6.85714286,6 C6.85714286,6.474 6.474,6.85714286 6,6.85714286 C5.526,6.85714286 5.14285714,6.474 5.14285714,6 L5.14285714,2.57142857 L2.57142857,2.57142857 C1.15371429,2.57142857 0,3.72514286 0,5.14285714 L0,21.4285714 C0,22.8462857 1.15371429,24 2.57142857,24 L21.4285714,24 C22.8462857,24 24,22.8462857 24,21.4285714 L24,5.14285714 C24,3.72514286 22.8462857,2.57142857 21.4285714,2.57142857 Z M22.2857143,21.4285714 C22.2857143,21.9017143 21.9017143,22.2857143 21.4285714,22.2857143 L2.57142857,22.2857143 C2.09828571,22.2857143 1.71428571,21.9017143 1.71428571,21.4285714 L1.71428571,10.2857143 L22.2857143,10.2857143 L22.2857143,21.4285714 Z" id="Shape"></path>
            <path d="M9.67971429,20.3211429 C9.84685714,20.4882857 10.0662857,20.5714286 10.2857143,20.5714286 C10.5051429,20.5714286 10.7245714,20.4874286 10.8917143,20.3202857 L17.7488571,13.4631429 C18.084,13.128 18.084,12.5862857 17.7488571,12.2511429 C17.4137143,11.916 16.872,11.916 16.5368571,12.2511429 L10.2857143,18.5022857 L7.46314286,15.6797143 C7.128,15.3445714 6.58628571,15.3445714 6.25114286,15.6797143 C5.916,16.0148571 5.916,16.5565714 6.25114286,16.8917143 L9.67971429,20.3211429 Z" id="Path"></path>
        </g>
    </g>
</svg>