<?xml version="1.0" encoding="UTF-8"?>
<svg width="27px" height="26px" viewBox="0 0 27 26" version="1.1" xmlns="http://www.w3.org/2000/svg" xmlns:xlink="http://www.w3.org/1999/xlink">
    <title>cancelled</title>
    <g id="cancelled" stroke="none" stroke-width="1" fill="none" fill-rule="evenodd" stroke-linejoin="round">
        <g id="8143256_flight_cancelled_no_fly_zone_icon-copy" transform="translate(1.000000, 7.000000)" stroke="#699BFF">
            <path d="M23.8455223,0.920017477 C23.1008449,0.413390671 21.9601104,0.0183943807 20.3121216,0.343092749 C19.8358523,0.436861907 19.3737742,0.596349069 18.9226206,0.780794941 L6.3427714,6.08428541 L1.94134476,3.05036702 L0,4.00442749 L3.25102454,8.80163531 C3.38898577,10.1162302 4.69724081,10.927519 5.86731142,10.424213 L23.6716319,2.76482454 C24.4227354,2.44172867 24.524934,1.38210674 23.8455223,0.920017477 Z" id="Path" stroke-width="0.5" fill="#6698FF" fill-rule="nonzero"></path>
            <polygon id="Path" stroke-width="0.5" fill="#6698FF" fill-rule="nonzero" points="9.35218171 0.225000009 6.97638988 1.28125481 10.8098967 4.20103128 14.5175663 2.63787328"></polygon>
            <g id="Group" transform="translate(16.200001, 3.150000)" stroke-width="0.900000036">
                <circle id="Oval" fill-rule="nonzero" cx="4.01504689" cy="4.06504741" r="3.21504754"></circle>
                <g transform="translate(2.800000, 2.250000)" id="Path" stroke-linecap="round">
                    <line x1="-7.15255737e-07" y1="0.599999785" x2="2.54814774" y2="3.19416205"></line>
                    <line x1="2.54814774" y1="0.599999785" x2="-7.15255323e-07" y2="3.19416205"></line>
                </g>
            </g>
        </g>
    </g>
</svg>