<?xml version="1.0" encoding="UTF-8"?>
<svg width="30px" height="30px" viewBox="0 0 30 30" version="1.1" xmlns="http://www.w3.org/2000/svg" xmlns:xlink="http://www.w3.org/1999/xlink">
    <title>coupon</title>
    <g id="coupon" stroke="none" stroke-width="1" fill="none" fill-rule="evenodd">
        <g id="1177634_advantage_benefit_coupon_discount_get_icon" transform="translate(1.000000, 3.000000)" fill="#FF4862" fill-rule="nonzero">
            <path d="M25.0547723,17.3256741 C24.8222459,17.1688027 24.40883,17.3838106 24.1307604,17.805382 C24.1054231,17.844681 23.7131751,18.138287 23.6916864,18.1779108 L21.625569,19.5942997 L17.3525353,20.7342962 L16.496838,20.748262 L16.3679062,20.7096125 C15.6783451,20.3767076 14.7575405,20.0934947 13.7222366,19.9177859 L13.6045302,19.8827091 L16.4038275,19.4023515 L17.2104536,19.3156338 C17.2810133,19.3114116 17.3522145,19.3052407 17.4246986,19.2948476 C17.4349619,19.2932237 18.9237724,19.0567799 18.9237724,19.0567799 C19.61622,18.9057547 20.1133454,18.4984739 20.0463137,18.1230221 C20.0187312,17.9668003 19.8965346,17.8404588 19.7150036,17.752442 L18.3429374,17.3896568 C18.1351069,17.287999 17.2822962,17.2132983 17.1325172,17.2353837 C17.1007653,17.2399307 17.0702963,17.2461016 17.0391859,17.2519478 L15.8258791,17.3448364 L14.0330202,16.8852651 L12.6994411,16.360412 C12.2699889,16.1223444 11.7606759,15.9122082 11.194915,15.7449438 L10.7260135,15.6199014 C10.4370393,15.5500726 10.1358775,15.4916112 9.82573537,15.4464661 C7.91132134,15.1661763 6.58062879,15.4925856 5.68644445,16.1197461 L5.30061096,16.1411819 L1.68217921,15.611457 C1.26138658,15.5500726 0.492606142,15.9446868 0.431988911,16.3708052 L0.00381958044,19.3604542 C-0.0567976506,19.7865726 0.618010043,20.0502983 1.03880267,20.1116827 L5.97702229,20.8346549 L5.9674005,20.9275435 C6.0607318,21.0762952 7.14671034,21.6066696 7.37410513,21.6982591 C7.37410513,21.6982591 14.0378311,24.2156703 14.1279551,23.9850727 L14.8771713,23.9870214 L18.4545501,23.3601857 L20.9748157,22.4192826 L22.590313,21.256551 L24.1153656,19.5858553 L24.7885697,18.6040292 C24.8539978,18.5364738 24.9165394,18.4591749 24.9736286,18.3731068 C25.0169266,18.3071754 25.0518858,18.2409192 25.0836377,18.1740134 L25.0878071,18.1675177 L25.0868449,18.1662185 C25.2536225,17.8079803 25.2497738,17.4568873 25.0547723,17.3256741 Z" id="Path"></path>
            <g id="Group" transform="translate(11.963695, 0.000000)">
                <path d="M6.25480021,5.72564079 C6.25480021,5.00916433 5.67941761,4.42649942 4.97189585,4.42649942 C4.2643741,4.42649942 3.68899149,5.00916433 3.68899149,5.72564079 C3.68899149,6.44211725 4.2643741,7.02478216 4.97189585,7.02478216 C5.67941761,7.02478216 6.25480021,6.44211725 6.25480021,5.72564079 Z" id="Path"></path>
                <path d="M11.0644087,9.29795476 C10.3568869,9.29795476 9.7815043,9.88061967 9.7815043,10.5970961 C9.7815043,11.3135726 10.3568869,11.8962375 11.0644087,11.8962375 C11.7719304,11.8962375 12.347313,11.3135726 12.347313,10.5970961 C12.347313,9.88061967 11.7719304,9.29795476 11.0644087,9.29795476 Z" id="Path"></path>
                <path d="M8.01815226,0 C3.58988713,0 0,3.63499755 0,8.11963354 C0,12.6042695 3.58988713,16.2392671 8.01815226,16.2392671 C12.4464174,16.2392671 16.0363045,12.6042695 16.0363045,8.11963354 C16.0363045,3.63499755 12.4464174,0 8.01815226,0 Z M3.04753931,5.72564079 C3.04753931,4.64930217 3.90900959,3.77692874 4.97189585,3.77692874 C6.03478211,3.77692874 6.89625239,4.64930217 6.89625239,5.72564079 C6.89625239,6.80132984 6.03478211,7.67435284 4.97189585,7.67435284 C3.90900959,7.67435284 3.04753931,6.80100506 3.04753931,5.72564079 Z M4.9786311,12.4909195 L4.48727873,12.0732455 L11.4306779,3.69345891 L11.9220302,4.11080807 L4.9786311,12.4909195 Z M11.0644087,12.5458082 C10.0015224,12.5458082 9.14005212,11.6727852 9.14005212,10.5970961 C9.14005212,9.52140708 10.0015224,8.64838408 11.0644087,8.64838408 C12.1272949,8.64838408 12.9887652,9.52140708 12.9887652,10.5970961 C12.9887652,11.6727852 12.1276157,12.5458082 11.0644087,12.5458082 Z" id="Shape"></path>
            </g>
        </g>
    </g>
</svg>