<?xml version="1.0" encoding="UTF-8"?>
<svg width="30px" height="30px" viewBox="0 0 30 30" version="1.1" xmlns="http://www.w3.org/2000/svg" xmlns:xlink="http://www.w3.org/1999/xlink">
    <title>reports\ copy</title>
    <g id="reports\-copy" stroke="none" stroke-width="1" fill="none" fill-rule="evenodd">
        <g id="436301_chart_company-structure_hierarchy_order_organization_icon" transform="translate(3.000000, 8.000000)" fill="#FA6400" fill-rule="nonzero">
            <rect id="rect6116" x="7.86697392" y="0" width="9.26605446" height="4.84878571" rx="0.794834132"></rect>
            <rect id="rect6124" x="9.3678086" y="10.7219477" width="6.26437539" height="3.27805227" rx="0.794834132"></rect>
            <g id="g6204" transform="translate(0.000000, 10.721948)">
                <rect id="rect6118" x="0" y="0" width="6.26437539" height="3.27805227" rx="0.794834132"></rect>
                <rect id="rect6126" x="18.7356246" y="0" width="6.26437539" height="3.27805227" rx="0.794834132"></rect>
            </g>
            <g id="g6200" transform="translate(2.951071, 5.050180)">
                <path d="M4.64573868,0.000293171622 C4.53133574,-0.00407170997 4.42075446,0.0404806717 4.34346902,0.122075385 L0.119252183,4.45039121 C0.0159094801,4.54644769 -0.0243133895,4.689649 0.0145962858,4.82298674 C0.053505961,4.95632448 0.165231926,5.05815377 0.30529611,5.0879364 C0.445360295,5.11771903 0.591025908,5.07062035 0.684303518,4.96539033 L4.91004174,0.637069817 C5.01683094,0.53061654 5.04882603,0.373456701 4.99171909,0.235870826 C4.93461214,0.0982849518 4.79908283,0.00600319847 4.64573868,0.000293171622 L4.64573868,0.000293171622 Z" id="path7056-8"></path>
                <path d="M14.4794644,0.000293171622 C14.3214342,-0.00390938208 14.1764969,0.0847137356 14.1128163,0.224483161 C14.0491357,0.364252587 14.0793864,0.527349591 14.1893415,0.637069817 L18.4135535,4.96539033 C18.5068311,5.07062035 18.6524967,5.11771903 18.7925609,5.0879364 C18.9326251,5.05815377 19.044351,4.95632448 19.0832607,4.82298674 C19.1221704,4.689649 19.0819475,4.54644769 18.9786048,4.45039121 L14.7543928,0.122075385 C14.6835162,0.0473104032 14.5843648,0.00339035743 14.4794644,0.000293171622 L14.4794644,0.000293171622 Z" id="path6190"></path>
            </g>
            <path d="M12.4939253,5.04896243 C12.3907945,5.05056282 12.2925271,5.09162801 12.2207421,5.1631697 C12.148957,5.2347114 12.1095349,5.33086892 12.1111486,5.43048757 L12.1111486,9.75733851 C12.109166,9.89279664 12.1828442,10.0187927 12.3039705,10.0870807 C12.4250969,10.1553686 12.5749054,10.1553686 12.6960318,10.0870807 C12.8171581,10.0187927 12.8908363,9.89279664 12.8888537,9.75733851 L12.8888537,5.43048757 C12.8905004,5.32883374 12.849421,5.23087608 12.7749976,5.15898717 C12.7005742,5.08709825 12.599163,5.04741781 12.4939253,5.04896243 L12.4939253,5.04896243 Z" id="path6192"></path>
        </g>
    </g>
</svg>