<?xml version="1.0" encoding="UTF-8"?>
<svg width="30px" height="30px" viewBox="0 0 30 30" version="1.1" xmlns="http://www.w3.org/2000/svg" xmlns:xlink="http://www.w3.org/1999/xlink">
    <title>internal booking</title>
    <g id="internal-booking" stroke="none" stroke-width="1" fill="none" fill-rule="evenodd">
        <g id="868865_baggage_booking_checked_luggage_ok_icon" transform="translate(3.000000, 4.000000)" fill-rule="nonzero">
            <path d="M20.9553227,3.62616279 L16.0093555,3.62616279 C15.5608604,1.55355814 13.7206253,0 11.5157165,0 C9.31106321,0 7.47057255,1.55355814 7.02233309,3.62616279 L2.04442173,3.62616279 C0.915389829,3.62616279 0,4.54248837 0,5.67267442 L0,18.4633721 C0,19.5935581 0.915389829,20.5098837 2.04442173,20.5098837 L3.61504872,20.5098837 C3.60354885,20.5789535 3.59383785,20.6487907 3.59383785,20.7209302 C3.59383785,21.4272326 4.16576482,22 4.87160143,22 C5.57769358,22 6.14936501,21.4272326 6.14936501,20.7209302 C6.14936501,20.6487907 6.139654,20.5786977 6.12815413,20.5098837 L16.90379,20.5098837 C16.8922901,20.5789535 16.8825791,20.6487907 16.8825791,20.7209302 C16.8825791,21.4272326 17.4547616,22 18.1603427,22 C18.8659237,22 19.4381062,21.4272326 19.4381062,20.7209302 C19.4381062,20.6487907 19.4283952,20.5786977 19.4168954,20.5098837 L20.9555783,20.5098837 C22.0846102,20.5098837 23,19.5935581 23,18.4633721 L23,5.67267442 C22.9997444,4.54248837 22.0843546,3.62616279 20.9553227,3.62616279 Z M11.515972,1.40697674 C12.9391451,1.40697674 14.1435651,2.33916279 14.5565383,3.62616279 L8.47515028,3.62616279 C8.88837902,2.33916279 10.092799,1.40697674 11.515972,1.40697674 Z" id="Shape" fill="#23458A"></path>
            <polygon id="Path" fill="#FFFFFF" points="17.0801213 8.79027907 15.7737358 8.72811628 10.8093688 13.8318605 8.61110432 11.8178372 7.55132721 12.7965814 9.71892535 14.9638372 10.3419629 15.587 10.8436128 16.0886512 10.863546 16.0648605 11.5747492 15.2751628"></polygon>
        </g>
    </g>
</svg>