<?xml version="1.0" encoding="UTF-8"?><svg version="1.1" width="26px" height="26px" viewBox="0 0 26.0 26.0" xmlns="http://www.w3.org/2000/svg" xmlns:xlink="http://www.w3.org/1999/xlink"><defs><clipPath id="i0"><path d="M26,0 L26,26 L0,26 L0,0 L26,0 Z"></path></clipPath></defs><g clip-path="url(#i0)"><g transform="translate(3.0 4.0)"><g transform="translate(7.800000309944152 1.2000000476837158)"><path d="M0,0.600000024 L12,0.600000024" stroke="#0FB3D4" stroke-width="1.7" fill="none" stroke-linecap="round" stroke-linejoin="round"></path></g><g transform="translate(7.800000309944152 8.40000033378601)"><path d="M0,0.600000024 L12,0.600000024" stroke="#0FB3D4" stroke-width="1.7" fill="none" stroke-linecap="round" stroke-linejoin="round"></path></g><g transform="translate(7.800000309944152 15.600000619888306)"><path d="M0,0.600000024 L12,0.600000024" stroke="#0FB3D4" stroke-width="1.7" fill="none" stroke-linecap="round" stroke-linejoin="round"></path></g><path d="M1.80000007,3.60000014 C2.79411266,3.60000014 3.60000014,2.79411266 3.60000014,1.80000007 C3.60000014,0.805887482 2.79411266,0 1.80000007,0 C0.805887482,0 0,0.805887482 0,1.80000007 C0,2.79411266 0.805887482,3.60000014 1.80000007,3.60000014 Z" stroke="#0FB3D4" stroke-width="1.7" fill="none" stroke-linecap="round" stroke-linejoin="round"></path><g transform="translate(0.0 7.200000286102295)"><path d="M1.80000007,3.60000014 C2.79411266,3.60000014 3.60000014,2.79411266 3.60000014,1.80000007 C3.60000014,0.805887482 2.79411266,0 1.80000007,0 C0.805887482,0 0,0.805887482 0,1.80000007 C0,2.79411266 0.805887482,3.60000014 1.80000007,3.60000014 Z" stroke="#0FB3D4" stroke-width="1.7" fill="none" stroke-linecap="round" stroke-linejoin="round"></path></g><g transform="translate(0.0 14.40000057220459)"><path d="M1.80000007,3.60000014 C2.79411266,3.60000014 3.60000014,2.79411266 3.60000014,1.80000007 C3.60000014,0.805887482 2.79411266,0 1.80000007,0 C0.805887482,0 0,0.805887482 0,1.80000007 C0,2.79411266 0.805887482,3.60000014 1.80000007,3.60000014 Z" stroke="#0FB3D4" stroke-width="1.7" fill="none" stroke-linecap="round" stroke-linejoin="round"></path></g></g></g></svg>