<svg width="32" height="32" viewBox="0 0 32 32" fill="none" xmlns="http://www.w3.org/2000/svg">
<rect width="32" height="32" rx="4" fill="#D8B53F"/>
<path d="M10.1447 22.7154C10.339 22.7154 10.4969 22.5526 10.4969 22.3517V16.0799C10.4969 15.8799 10.339 15.7162 10.1447 15.7162H8.80099C8.60541 15.7162 8.44879 15.8799 8.44879 16.0799V22.3517C8.44879 22.5526 8.60538 22.7154 8.80099 22.7154H10.1447Z" fill="white"/>
<path d="M24.4364 23.326H7.56283C7.37081 23.326 7.21187 23.4889 7.21187 23.6903V24.6356C7.21187 24.8375 7.37081 25 7.56283 25H24.4364C24.6307 25 24.7864 24.8376 24.7864 24.6356V23.6903C24.7864 23.4889 24.6307 23.326 24.4364 23.326Z" fill="white"/>
<path d="M14.4981 22.7154C14.6905 22.7154 14.8482 22.5526 14.8482 22.3517V16.0799C14.8482 15.8799 14.6905 15.7162 14.4981 15.7162H13.1511C12.9589 15.7162 12.8023 15.8799 12.8023 16.0799V22.3517C12.8023 22.5526 12.9589 22.7154 13.1511 22.7154H14.4981Z" fill="white"/>
<path d="M23.2006 22.7154C23.3929 22.7154 23.5515 22.5526 23.5515 22.3517V16.0799C23.5515 15.8799 23.3928 15.7162 23.2006 15.7162H21.8533C21.6602 15.7162 21.5037 15.8799 21.5037 16.0799V22.3517C21.5037 22.5526 21.6603 22.7154 21.8533 22.7154H23.2006Z" fill="white"/>
<path d="M24.5424 13.6658L17.35 7.47841C16.6067 6.84053 15.3926 6.84053 14.6492 7.47841L7.45824 13.6658C6.71381 14.3067 6.8963 14.8279 7.86103 14.8279H24.1402C25.104 14.8279 25.2855 14.3067 24.5424 13.6658ZM15.9997 13.3225C15.2454 13.3225 14.6341 12.6857 14.6341 11.9021C14.6341 11.1184 15.2454 10.4839 15.9997 10.4839C16.7558 10.4839 17.3653 11.1184 17.3653 11.9021C17.3653 12.6857 16.7558 13.3225 15.9997 13.3225Z" fill="white"/>
<path d="M18.8483 22.7154C19.0426 22.7154 19.1993 22.5526 19.1993 22.3517V16.0799C19.1993 15.8799 19.0426 15.7162 18.8483 15.7162H17.5034C17.3087 15.7162 17.1521 15.8799 17.1521 16.0799V22.3517C17.1521 22.5526 17.3087 22.7154 17.5034 22.7154H18.8483Z" fill="white"/>
</svg>
