<?xml version="1.0" encoding="UTF-8"?>
<svg width="32px" height="32px" viewBox="0 0 32 32" version="1.1" xmlns="http://www.w3.org/2000/svg" xmlns:xlink="http://www.w3.org/1999/xlink">
    <title>calender</title>
    <g id="calender" stroke="none" stroke-width="1" fill="none" fill-rule="evenodd">
        <g id="4781851_calendar_date_day_event_month_icon-copy" transform="translate(0.562500, 0.562500)" fill="#8F8F8F" fill-rule="nonzero" stroke="#FFFFFF" stroke-width="0.542857143">
            <g id="Layer_2">
                <path d="M21.375,0 C22.0308381,0 22.5625,0.53166186 22.5625,1.1875 L22.562,2.374 L24.9375,2.375 C28.2166907,2.375 30.875,5.0333093 30.875,8.3125 L30.875,24.9375 C30.875,28.2166907 28.2166907,30.875 24.9375,30.875 L5.9375,30.875 C2.6583093,30.875 0,28.2166907 0,24.9375 L0,8.3125 C0,5.0333093 2.6583093,2.375 5.9375,2.375 L8.312,2.374 L8.3125,1.1875 C8.3125,0.53166186 8.84416186,0 9.5,0 C10.1558381,0 10.6875,0.53166186 10.6875,1.1875 L10.687,2.374 L20.187,2.374 L20.1875,1.1875 C20.1875,0.53166186 20.7191619,0 21.375,0 Z M28.499,11.875 L2.374,11.875 L2.375,24.9375 C2.375,26.9050144 3.96998558,28.5 5.9375,28.5 L24.9375,28.5 C26.9050144,28.5 28.5,26.9050144 28.5,24.9375 L28.499,11.875 Z M24.9375,19 C25.5933381,19 26.125,19.5316619 26.125,20.1875 L26.125,24.9375 C26.125,25.5933381 25.5933381,26.125 24.9375,26.125 L20.1875,26.125 C19.5316619,26.125 19,25.5933381 19,24.9375 L19,20.1875 C19,19.5316619 19.5316619,19 20.1875,19 L24.9375,19 Z M23.75,21.375 L21.375,21.375 L21.375,23.75 L23.75,23.75 L23.75,21.375 Z M8.312,4.749 L5.9375,4.75 C3.96998558,4.75 2.375,6.34498558 2.375,8.3125 L2.374,9.5 L28.499,9.5 L28.5,8.3125 C28.5,6.34498558 26.9050144,4.75 24.9375,4.75 L22.562,4.749 L22.5625,5.9375 C22.5625,6.59333814 22.0308381,7.125 21.375,7.125 C20.7191619,7.125 20.1875,6.59333814 20.1875,5.9375 L20.187,4.749 L10.687,4.749 L10.6875,5.9375 C10.6875,6.59333814 10.1558381,7.125 9.5,7.125 C8.84416186,7.125 8.3125,6.59333814 8.3125,5.9375 L8.312,4.749 Z" id="Combined-Shape"></path>
            </g>
        </g>
    </g>
</svg>