<?xml version="1.0" encoding="UTF-8"?>
<svg width="32px" height="32px" viewBox="0 0 32 32" version="1.1" xmlns="http://www.w3.org/2000/svg" xmlns:xlink="http://www.w3.org/1999/xlink">
    <title>clock</title>
    <g id="clock" stroke="none" stroke-width="1" fill="none" fill-rule="evenodd">
        <g id="1814097_clock_schedule_time_icon-copy" transform="translate(1.000000, 1.000000)" fill="#8F8F8F" fill-rule="nonzero" stroke="#8F8F8F" stroke-width="0.3">
            <path d="M14.9997635,0 C23.2529085,0 29.9995271,6.74672489 29.9995271,15 C30.0650282,23.2532751 23.3184097,30 14.9997635,30 C6.74661853,30 0,23.2532751 0,15 C0,6.74672489 6.74661853,0 14.9997635,0 Z M14.9997635,1.5720524 C7.59813349,1.5720524 1.63752877,7.59825328 1.63752877,14.9344978 C1.63752877,22.2707424 7.66363464,28.2969432 14.9997635,28.2969432 C22.3358924,28.2969432 28.3619983,22.2707424 28.3619983,14.9344978 C28.3619983,7.59825328 22.4013936,1.5720524 14.9997635,1.5720524 Z M15.9167796,6.94323144 L15.9167796,16.3755459 L20.9603682,21.419214 L19.7158464,22.6637555 L14.1482486,17.0960699 L14.1482486,6.94323144 L15.9167796,6.94323144 Z" id="Combined-Shape"></path>
        </g>
    </g>
</svg>