<svg width="32" height="32" viewBox="0 0 32 32" fill="none" xmlns="http://www.w3.org/2000/svg">
<rect width="32" height="32" rx="4" fill="#8B6FBC"/>
<path d="M22.3916 11.0852L21.0491 12.4276C21.9637 13.6482 22.5057 15.1642 22.5057 16.8068C22.5057 18.8254 21.6872 20.6531 20.3645 21.9758C19.0415 23.2985 17.2135 24.1167 15.1946 24.1167C13.1756 24.1167 11.3477 23.2984 10.0248 21.9758C8.7018 20.6531 7.88352 18.8255 7.88352 16.8068C7.88352 14.7882 8.70188 12.9606 10.0248 11.6378C11.3477 10.3151 13.1758 9.49694 15.1946 9.49694C16.8391 9.49694 18.3566 10.0398 19.5778 10.9558L20.9202 9.61374C19.3493 8.36202 17.3592 7.61367 15.1946 7.61367C12.6557 7.61367 10.357 8.64288 8.69313 10.3063C7.02922 11.97 6 14.2685 6 16.8068C6 19.3453 7.02922 21.6437 8.69321 23.3073C10.357 24.9709 12.6557 26 15.1946 26C17.7334 26 20.0323 24.9709 21.6963 23.3073C23.36 21.6437 24.3893 19.3453 24.3893 16.8068C24.3893 14.644 23.6419 12.6554 22.3916 11.0852Z" fill="white"/>
<path d="M15.1946 11.1346C13.6281 11.1346 12.2097 11.7696 11.1832 12.796C10.1566 13.8225 9.52148 15.2407 9.52148 16.8068C9.52148 18.3731 10.1566 19.7912 11.1832 20.8176C12.2097 21.844 13.6281 22.4791 15.1946 22.4791C16.761 22.4791 18.1795 21.844 19.206 20.8176C20.2327 19.7912 20.8678 18.3731 20.8678 16.8068C20.8678 15.6174 20.5014 14.5132 19.8753 13.6012L18.5088 14.9675C18.8118 15.5122 18.9842 16.1393 18.9842 16.8068C18.9842 17.8533 18.56 18.8006 17.8745 19.4862C17.1889 20.1717 16.2413 20.5958 15.1947 20.5958C14.1481 20.5958 13.2007 20.1717 12.5149 19.4862C11.8294 18.8007 11.4052 17.8533 11.4052 16.8068C11.4052 15.7605 11.8294 14.8131 12.5149 14.1275C13.2006 13.442 14.1481 13.0179 15.1947 13.0179C15.8638 13.0179 16.4923 13.1913 17.0378 13.4955L18.4042 12.1294C17.4914 11.502 16.3858 11.1346 15.1946 11.1346Z" fill="white"/>
<path d="M15.7642 14.7688C15.5831 14.7182 15.392 14.6912 15.1946 14.6912C14.0259 14.6912 13.0787 15.6384 13.0787 16.8068C13.0787 17.9753 14.0259 18.9225 15.1946 18.9225C16.3633 18.9225 17.3106 17.9753 17.3106 16.8068C17.3106 16.6112 17.284 16.4217 17.2342 16.2418C16.801 16.675 16.3608 17.1152 15.9319 17.5439C15.5246 17.951 14.8645 17.951 14.4573 17.5439C14.0502 17.1369 14.0502 16.4768 14.4573 16.0697C14.8913 15.6358 15.3299 15.2032 15.7642 14.7688Z" fill="white"/>
<path fill-rule="evenodd" clip-rule="evenodd" d="M15.4778 17.09L22.235 10.3811L24.1214 10.3719C24.1733 10.3716 24.2185 10.3535 24.2545 10.3163L25.9484 8.56898C26.0664 8.44734 25.9675 8.2682 25.7992 8.2682L24.3029 8.2689L24.4297 8.1421C24.8021 7.76992 24.236 7.20406 23.8636 7.57617L23.7362 7.68257L23.7346 6.18086C23.7344 6.01242 23.5468 5.93953 23.4296 6.05883L21.7601 7.75867C21.7239 7.79554 21.705 7.83984 21.705 7.89171V9.76522C19.451 12.0183 17.1653 14.2704 14.9115 16.5237C14.539 16.8961 15.1054 17.4625 15.4778 17.09Z" fill="white"/>
</svg>
