<svg width="26" height="26" viewBox="0 0 26 26" fill="none" xmlns="http://www.w3.org/2000/svg">
<path d="M12.12 25C6.53088 25 2 20.4691 2 14.88C2 9.29087 6.53088 4.75999 12.12 4.75999C12.3741 4.75999 12.58 4.96594 12.58 5.21999V14.42H21.78C22.0341 14.42 22.24 14.6259 22.24 14.88C22.24 20.4691 17.7091 25 12.12 25ZM11.66 5.67999C6.70805 5.93445 2.84862 10.0676 2.93347 15.0253C3.01832 19.9831 7.01693 23.9817 11.9747 24.0665C16.9324 24.1514 21.0655 20.2919 21.32 15.34H12.12C11.8659 15.34 11.66 15.134 11.66 14.88V5.67999Z" stroke="#0EB4D4" stroke-width="0.9" stroke-miterlimit="10"/>
<path d="M24.54 12.58H14.88C14.6259 12.58 14.42 12.3741 14.42 12.12V2.46C14.42 2.20595 14.6259 2 14.88 2C20.4691 2 25 6.53088 25 12.12C25 12.3741 24.794 12.58 24.54 12.58ZM15.34 11.66H24.08C23.849 6.93204 20.068 3.15104 15.34 2.92V11.66Z" stroke="#0EB4D4" stroke-width="0.9" stroke-miterlimit="10"/>
</svg>
