<svg width="30" height="30" viewBox="0 0 30 30" fill="none" xmlns="http://www.w3.org/2000/svg">
<rect width="30" height="30" rx="4" fill="#7DBCC8"/>
<path d="M22.7945 12.8584L21.2315 11.2953C20.9701 11.0374 20.5549 11.022 20.2752 11.2599C19.8432 11.6276 19.2015 11.603 18.799 11.2032C18.3994 10.8007 18.3748 10.1592 18.7423 9.72726C18.9801 9.44749 18.9647 9.03234 18.7069 8.77093L17.1425 7.20607C16.8672 6.93131 16.4214 6.93131 16.1461 7.20607L13.6545 9.69751C13.5006 9.8519 13.3846 10.0398 13.3155 10.2465C13.2883 10.3271 13.225 10.3903 13.1445 10.4176C12.9377 10.4867 12.7498 10.6029 12.5955 10.7569L6.20606 17.1467C5.93131 17.422 5.93131 17.8677 6.20606 18.143L7.77083 19.7061C8.03223 19.964 8.44736 19.9794 8.72712 19.7415C9.15828 19.3707 9.80241 19.3949 10.2045 19.797C10.6067 20.1992 10.6309 20.8433 10.26 21.2745C10.0222 21.5543 10.0376 21.9694 10.2954 22.2308L11.8584 23.7939C12.1337 24.0687 12.5795 24.0687 12.8547 23.7939L19.2442 17.4042C19.3981 17.25 19.5143 17.0622 19.5835 16.8555C19.6106 16.7747 19.6741 16.7112 19.7549 16.6841C19.9615 16.615 20.1493 16.4989 20.3035 16.3451L22.7948 13.8533C23.0685 13.5781 23.0684 13.1334 22.7945 12.8584ZM14.706 11.8082C14.5998 11.9145 14.4556 11.9742 14.3053 11.9742C14.155 11.9742 14.0108 11.9145 13.9045 11.8082L13.4969 11.4005C13.2811 11.1782 13.2838 10.8239 13.5029 10.6049C13.7219 10.386 14.0762 10.3834 14.2984 10.5993L14.706 11.0066C14.8123 11.1129 14.8721 11.2571 14.8721 11.4074C14.8721 11.5577 14.8123 11.7019 14.706 11.8082ZM16.2644 13.3667C16.0432 13.5878 15.6846 13.5878 15.4633 13.3667L15.0737 12.977C14.9305 12.8339 14.8746 12.6252 14.927 12.4296C14.9794 12.234 15.1322 12.0812 15.3278 12.0288C15.5233 11.9764 15.732 12.0323 15.8752 12.1755L16.2648 12.5651C16.3715 12.6714 16.4315 12.8158 16.4315 12.9663C16.4316 13.1169 16.3717 13.2613 16.2651 13.3677L16.2644 13.3667ZM17.8228 14.9251C17.7166 15.0314 17.5724 15.0912 17.4221 15.0912C17.2718 15.0912 17.1276 15.0314 17.0213 14.9251L16.6317 14.5355C16.416 14.3133 16.4186 13.9589 16.6377 13.74C16.8568 13.521 17.2111 13.5185 17.4332 13.7343L17.8228 14.1239C17.9298 14.23 17.9901 14.3744 17.9905 14.5251C17.9908 14.6757 17.9311 14.8203 17.8246 14.9269L17.8228 14.9251ZM19.3965 16.5027C19.2902 16.609 19.146 16.6688 18.9957 16.6688C18.8454 16.6688 18.7012 16.609 18.5949 16.5027L18.1898 16.0954C18.0435 15.9526 17.9855 15.7421 18.0379 15.5445C18.0904 15.347 18.2451 15.1929 18.4429 15.1415C18.6408 15.09 18.851 15.149 18.993 15.296L19.3986 15.703C19.5048 15.8093 19.5645 15.9535 19.5644 16.1038C19.5644 16.2541 19.5046 16.3983 19.3982 16.5045L19.3965 16.5027Z" fill="white"/>
</svg>
