<?xml version="1.0" encoding="UTF-8"?>
<svg width="34px" height="34px" viewBox="0 0 34 34" version="1.1" xmlns="http://www.w3.org/2000/svg" xmlns:xlink="http://www.w3.org/1999/xlink">
    <title>Airport Assistance</title>
    <g id="Airport-Assistance" stroke="none" stroke-width="1" fill="none" fill-rule="evenodd">
        <path d="M24.0736609,3.74245265 C25.5022996,4.56323177 26.2152585,6.22851894 25.8218403,7.82694383 C25.4874435,9.18556945 24.4223546,10.2171038 23.0989608,10.5366918 L23.0981908,13.0428785 L23.096,13.066 L23.0981908,13.1028653 C23.0981908,14.7518468 22.3903827,16.2356313 21.2616181,17.2681612 C24.1890843,17.4848159 26.5123221,19.8692938 26.6266543,22.8198599 L26.6310652,23.047916 L26.6310652,31 C26.6310652,31.3796958 26.3489113,31.693491 25.9828358,31.7431534 L25.8810652,31.75 L9,31.75 C8.62030423,31.75 8.30650904,31.4678461 8.25684662,31.1017706 L8.25,31 L8.25,23.047916 C8.25,19.9931277 10.6166881,17.4906884 13.6189099,17.2669965 C12.5395027,16.2806498 11.8453257,14.8813114 11.7863212,13.3195378 L11.782235,13.1028653 L11.784,13.066 L11.782235,13.0428785 L11.782235,8.20500443 L11.7898227,8.09859049 C12.1851545,5.34050012 14.6097978,3.25082103 17.4398932,3.25082103 C18.3980497,3.25082103 19.3097458,3.49034989 20.1119772,3.91425759 C21.2720584,3.10488188 22.8167053,3.02030859 24.0736609,3.74245265 Z M22.3183202,19.0164442 L22.2606668,19.0738051 C21.8286284,19.4876256 21.3479475,19.8411654 20.8319701,20.1284311 C20.6343403,21.5013096 20.1293643,22.6668567 19.4079788,23.630498 C18.8307327,24.4015949 18.2442402,24.8951407 17.8237329,25.1450782 C17.5438861,25.3114111 17.1886912,25.278217 16.9445098,25.0629121 C16.4920069,24.6639214 16.0904403,24.2300797 15.7371508,23.7669584 C14.7350886,22.4533718 14.2386284,21.1390334 14.0584152,20.132185 C13.5155229,19.8328022 13.012101,19.4588791 12.5629616,19.0187803 C10.9860434,19.598614 9.84438274,21.0746158 9.75557295,22.8274188 L9.75,23.047916 L9.749,30.249 L25.1310652,30.249 L25.1310652,23.047916 C25.1310652,21.1991272 23.9606547,19.6226444 22.3183202,19.0164442 Z M19.1618566,20.7920993 L18.917615,20.850597 C18.4362729,20.9549348 17.9412606,21.008818 17.4402129,21.008818 C16.8881016,21.008818 16.3433187,20.9433923 15.816079,20.8171282 L15.7286485,20.5591403 C15.9812381,21.3422038 16.3723291,22.1264605 16.929758,22.8571847 C17.0770468,23.0502632 17.234362,23.2371981 17.4020471,23.4174746 L17.494,23.511 L17.5519244,23.4618177 C17.7190106,23.3074264 17.8855819,23.1321048 18.0472725,22.9354087 L18.2071745,22.7315714 C18.6246203,22.1739388 18.9520494,21.5299199 19.1618566,20.7920993 Z M17.395,18.7499862 L14.663,18.75 L14.8338215,18.8484483 C15.457167,19.1860679 16.1443021,19.401469 16.8577004,19.4777688 L17.164941,19.5019032 L17.4402129,19.508818 C18.258374,19.508818 19.0559753,19.3257887 19.7790501,18.9840095 L20.0466043,18.8484483 L20.216,18.75 L17.483,18.7499862 L17.4402129,18.7510452 L17.395,18.7499862 Z M21.5996385,10.2673657 C20.6273004,10.9168106 19.263941,11.3144721 17.6032586,11.5200289 C16.3180022,11.679116 14.969788,11.7078035 13.6877239,11.6530594 L13.282,11.6309862 L13.282,12.953 L13.2886294,13.0428785 L13.283,13.134 L13.2873228,13.3098726 C13.3920596,15.4358 15.101154,17.1414412 17.2326592,17.2459676 L17.405,17.2499862 L17.475,17.2499862 L17.6477666,17.2459676 C19.7792717,17.1414412 21.4883662,15.4358 21.593103,13.3098726 L21.5960286,13.1185164 L21.5921638,13.0663514 L21.5923251,13.0138508 L21.598,12.95 L21.5996385,10.2673657 Z M17.4398932,4.75082103 C15.3541709,4.75082103 13.5638409,6.29381718 13.2746473,8.31141836 L13.282,8.264 L13.282,10.129 L13.8221364,10.1572904 C14.6123674,10.1888637 15.4282679,10.1866606 16.2305941,10.1388322 L16.8291803,10.094221 L17.418997,10.0313894 C19.4641877,9.77823875 20.8764011,9.20714537 21.4469466,8.34651585 L21.5227049,8.22160221 L21.572,8.119 C21.2222488,6.32524942 19.6895942,4.95197203 17.8527346,4.77107793 L17.6474318,4.75592473 L17.4398932,4.75082103 Z M21.4505968,4.8913213 L21.5028648,4.9419008 C22.3378023,5.7788383 22.9145429,6.87258476 23.090575,8.09839451 L23.0962911,8.15165544 L23.0962911,8.15165544 L23.0981908,8.20500443 L23.0989188,8.96117131 C23.718702,8.69459401 24.1973629,8.15080218 24.3653094,7.46844979 C24.5988353,6.51965408 24.1755223,5.53090465 23.3264251,5.04308273 C22.7422059,4.70743811 22.0533962,4.66466348 21.4505968,4.8913213 Z" id="Combined-Shape" fill="#FFFFFF" fill-rule="nonzero"></path>
    </g>
</svg>