<?xml version="1.0" encoding="UTF-8"?>
<svg width="34px" height="34px" viewBox="0 0 34 34" version="1.1" xmlns="http://www.w3.org/2000/svg" xmlns:xlink="http://www.w3.org/1999/xlink">
    <title>Booking Confirmation</title>
    <g id="Booking-Confirmation" stroke="none" stroke-width="1" fill="none" fill-rule="evenodd">
        <path d="M10.3208159,21.8403074 C8.73023597,21.8403074 7.44081616,23.1297272 7.44081616,24.7203071 C7.44081616,26.3108871 8.73023597,27.6003069 10.3208159,27.6003069 C11.9113959,27.6003069 13.2008157,26.3108871 13.2008157,24.7203071 C13.2008157,23.1297272 11.9113959,21.8403074 10.3208159,21.8403074 Z M10.3208159,26.160307 C9.52552594,26.160307 8.88081604,25.5155971 8.88081604,24.7203071 C8.88081604,23.9250172 9.52552594,23.2803073 10.3208159,23.2803073 C11.1161059,23.2803073 11.7608158,23.9250172 11.7608158,24.7203071 C11.7608158,25.5155971 11.1161059,26.160307 10.3208159,26.160307 Z M20.400815,21.8403074 C18.8102351,21.8403074 17.5208153,23.1297272 17.5208153,24.7203071 C17.5208153,26.3108871 18.8102351,27.6003069 20.400815,27.6003069 C21.991395,27.6003069 23.2808148,26.3108871 23.2808148,24.7203071 C23.2808148,23.1297272 21.991395,21.8403074 20.400815,21.8403074 Z M20.400815,26.160307 C19.6055251,26.160307 18.9608152,25.5155971 18.9608152,24.7203071 C18.9608152,23.9250172 19.6055251,23.2803073 20.400815,23.2803073 C21.196105,23.2803073 21.8408149,23.9250172 21.8408149,24.7203071 C21.8408149,25.5155971 21.196105,26.160307 20.400815,26.160307 Z M26.8808145,6.00030875 L24.7208147,6.00030875 C24.3819127,5.99043494 24.0820419,6.21833676 24.0008147,6.5475087 L23.4392148,8.8803085 L6.72081623,8.8803085 C6.51150347,8.87848717 6.31175999,8.96784609 6.17361627,9.12510848 C6.03733103,9.2839185 5.97688484,9.49416611 6.00801629,9.70110843 L7.44801616,19.7811076 C7.49822848,20.1362347 7.80215669,20.4003429 8.1608161,20.4003429 L22.5608149,20.4003429 C22.9222059,20.4038644 23.2302351,20.1389592 23.2808148,19.7811076 L24.7208147,9.73710842 L25.2824146,7.44030862 L26.8808145,7.44030862 C27.2784595,7.44030862 27.6008144,7.11795367 27.6008144,6.72030868 C27.6008144,6.3226637 27.2784595,6.00030875 26.8808145,6.00030875 Z M21.9344149,18.9603076 L8.78721605,18.9603076 L7.54881615,10.3203084 L23.1728148,10.3203084 L21.9344149,18.9603076 Z" id="Shape-Copy-4" stroke="#FFFFFF" stroke-width="0.6" fill="#FFFFFF" fill-rule="nonzero" transform="translate(16.800407, 16.800153) scale(-1, 1) translate(-16.800407, -16.800153) "></path>
    </g>
</svg>