<?xml version="1.0" encoding="UTF-8"?>
<svg width="20px" height="20px" viewBox="0 0 20 20" version="1.1" xmlns="http://www.w3.org/2000/svg" xmlns:xlink="http://www.w3.org/1999/xlink">
    <title>country</title>
    <g id="country" stroke="none" stroke-width="1" fill="none" fill-rule="evenodd">
        <g id="3253496_flag_india_country_world_icon" transform="translate(2.000000, 2.000000)" fill-rule="nonzero">
            <g id="XMLID_6856_">
                <path d="M8,-0.470588235 C9.81571669,-0.470588235 11.4987064,0.102890054 12.8785409,1.07803408 C14.297206,2.0806201 15.3950944,3.50814131 15.9878152,5.17549578 C16.2987091,6.06187416 16.4705882,7.01110492 16.4705882,8 C16.4705882,8.98889508 16.2987091,9.93812584 15.9871545,10.8263752 C15.3950944,12.4918587 14.297206,13.9193799 12.8785409,14.9219659 C11.4987064,15.8971099 9.81571669,16.4705882 8,16.4705882 C6.18428331,16.4705882 4.50129361,15.8971099 3.1214591,14.9219659 C1.70279401,13.9193799 0.604905555,12.4918587 0.0121847892,10.8245042 C-0.298709117,9.93812584 -0.470588235,8.98889508 -0.470588235,8 C-0.470588235,7.01110492 -0.298709117,6.06187416 0.0128454559,5.17362482 C0.604905555,3.50814131 1.70279401,2.0806201 3.1214591,1.07803408 C4.50129361,0.102890054 6.18428331,-0.470588235 8,-0.470588235 Z" id="XMLID_6859_" stroke-opacity="0.519421984" stroke="#FFFFFF" stroke-width="0.941176471" fill="#FFFFFF"></path>
                <path d="M15.54375,5.33125 L0.45625,5.33125 C1.559375,2.228125 4.521875,0 8,0 C11.478125,0 14.440625,2.228125 15.54375,5.33125 Z" id="XMLID_6858_" fill="#FF9933"></path>
                <path d="M15.54375,10.66875 C14.440625,13.771875 11.478125,16 8,16 C4.521875,16 1.559375,13.771875 0.45625,10.66875 L15.54375,10.66875 Z" id="XMLID_6857_" fill="#128807"></path>
            </g>
            <g id="XMLID_6850_" transform="translate(5.859375, 5.859375)" fill="#000088">
                <path d="M2.425,2.38125 L2.43125,2.378125 L2.434375,2.375 L2.440625,2.36875 C2.44375,2.365625 2.44375,2.3625 2.44375,2.3625 L2.45,2.35625 L2.453125,2.353125 C2.453125,2.353125 2.45625,2.35 2.459375,2.346875 L2.4625,2.34375 L2.753125,2.565625 L3.7625,3.075 L2.81875,2.453125 L2.484375,2.3125 L2.4875,2.309375 L2.490625,2.303125 C2.490625,2.303125 2.49375,2.3 2.49375,2.296875 L2.496875,2.290625 C2.496875,2.290625 2.5,2.2875 2.5,2.284375 C2.5,2.284375 2.503125,2.278125 2.503125,2.278125 L2.50625,2.271875 L2.509375,2.265625 L2.5125,2.259375 C2.5125,2.25625 2.5125,2.25625 2.5125,2.25625 L2.85,2.39375 L3.95625,2.625 L2.884375,2.26875 L2.525,2.21875 L2.528125,2.215625 L2.528125,2.209375 C2.528125,2.20625 2.53125,2.20625 2.53125,2.20625 L2.53125,2.2 L2.534375,2.19375 C2.534375,2.190625 2.534375,2.190625 2.534375,2.190625 L2.5375,2.184375 L2.5375,2.171875 C2.5375,2.16875 2.5375,2.165625 2.5375,2.165625 L2.5375,2.159375 L2.9,2.203125 L4.028125,2.1375 L2.9,2.071875 L2.5375,2.115625 L2.5375,2.1125 C2.5375,2.109375 2.5375,2.10625 2.5375,2.10625 L2.5375,2.1 L2.534375,2.09375 C2.534375,2.090625 2.534375,2.090625 2.534375,2.090625 L2.53125,2.08125 L2.53125,2.078125 C2.53125,2.075 2.528125,2.071875 2.528125,2.071875 L2.528125,2.065625 L2.525,2.059375 L2.884375,2.009375 L3.95625,1.65625 L2.85,1.8875 L2.5125,2.025 L2.5125,2.021875 L2.509375,2.015625 L2.50625,2.009375 C2.50625,2.00625 2.50625,2.00625 2.50625,2.00625 L2.503125,2 C2.5,1.996875 2.5,1.99375 2.5,1.99375 C2.496875,1.990625 2.496875,1.9875 2.496875,1.9875 L2.49375,1.98125 L2.490625,1.975 C2.490625,1.975 2.4875,1.971875 2.4875,1.971875 L2.821875,1.83125 L3.765625,1.2125 L2.75625,1.721875 L2.465625,1.940625 C2.465625,1.9375 2.4625,1.9375 2.4625,1.9375 L2.45625,1.93125 L2.453125,1.925 L2.45,1.921875 C2.446875,1.91875 2.446875,1.91875 2.446875,1.91875 L2.440625,1.9125 L2.4375,1.909375 C2.4375,1.909375 2.434375,1.90625 2.43125,1.903125 L2.428125,1.896875 L2.425,1.89375 L2.7125,1.671875 L3.465625,0.828125 L2.615625,1.578125 L2.390625,1.865625 L2.3875,1.8625 L2.38125,1.859375 L2.378125,1.85625 C2.375,1.853125 2.375,1.853125 2.375,1.853125 L2.36875,1.846875 L2.3625,1.840625 C2.3625,1.840625 2.359375,1.8375 2.359375,1.8375 L2.353125,1.834375 L2.346875,1.83125 C2.346875,1.83125 2.34375,1.828125 2.34375,1.828125 L2.5625,1.5375 L3.071875,0.528125 L2.45,1.471875 L2.309375,1.80625 L2.30625,1.803125 C2.303125,1.803125 2.303125,1.8 2.303125,1.8 L2.296875,1.796875 L2.290625,1.79375 L2.284375,1.790625 L2.278125,1.7875 L2.271875,1.784375 L2.265625,1.78125 L2.259375,1.778125 L2.253125,1.775 L2.390625,1.4375 L2.621875,0.33125 L2.26875,1.403125 L2.21875,1.7625 L2.215625,1.7625 C2.2125,1.759375 2.209375,1.759375 2.209375,1.759375 L2.203125,1.75625 C2.203125,1.75625 2.2,1.75625 2.196875,1.75625 L2.190625,1.753125 L2.184375,1.753125 L2.18125,1.753125 L2.175,1.75 L2.16875,1.75 C2.16875,1.75 2.165625,1.75 2.1625,1.75 L2.20625,1.390625 L2.140625,0.2625 L2.075,1.390625 L2.11875,1.75 L2.115625,1.75 L2.109375,1.75 L2.103125,1.753125 L2.096875,1.753125 L2.090625,1.753125 L2.084375,1.75625 L2.078125,1.75625 L2.071875,1.759375 C2.071875,1.759375 2.06875,1.759375 2.065625,1.7625 L2.0625,1.7625 L2.0125,1.403125 L1.659375,0.33125 L1.890625,1.4375 L2.028125,1.775 L2.021875,1.778125 L2.015625,1.78125 L2.009375,1.784375 L2.003125,1.7875 C2.003125,1.7875 2,1.790625 1.996875,1.790625 L1.990625,1.79375 L1.984375,1.796875 L1.98125,1.8 C1.978125,1.803125 1.975,1.803125 1.975,1.803125 L1.96875,1.80625 L1.828125,1.471875 L1.209375,0.528125 L1.71875,1.5375 L1.9375,1.828125 C1.934375,1.83125 1.934375,1.83125 1.934375,1.83125 L1.928125,1.8375 C1.925,1.8375 1.925,1.840625 1.925,1.840625 L1.91875,1.84375 L1.9125,1.85 L1.90625,1.853125 L1.903125,1.85625 L1.9,1.859375 L1.89375,1.8625 C1.89375,1.8625 1.890625,1.865625 1.890625,1.865625 L1.665625,1.578125 L0.825,0.825 L1.578125,1.66875 L1.865625,1.890625 L1.8625,1.89375 L1.859375,1.9 C1.85625,1.903125 1.85625,1.903125 1.85625,1.903125 L1.853125,1.909375 L1.846875,1.915625 C1.846875,1.915625 1.84375,1.91875 1.84375,1.921875 C1.84375,1.921875 1.840625,1.925 1.840625,1.925 L1.8375,1.93125 L1.83125,1.9375 C1.83125,1.9375 1.828125,1.940625 1.828125,1.940625 L1.5375,1.721875 L0.528125,1.2125 L1.471875,1.83125 L1.80625,1.971875 C1.80625,1.975 1.803125,1.975 1.803125,1.975 L1.8,1.98125 L1.796875,1.9875 C1.796875,1.9875 1.79375,1.990625 1.79375,1.990625 L1.790625,1.996875 L1.7875,2.003125 C1.7875,2.003125 1.784375,2.00625 1.784375,2.00625 L1.78125,2.0125 L1.778125,2.01875 L1.778125,2.021875 L1.440625,1.884375 L0.334375,1.653125 L1.409375,2.00625 L1.76875,2.05625 L1.765625,2.0625 L1.765625,2.06875 C1.765625,2.06875 1.7625,2.075 1.7625,2.075 L1.7625,2.078125 L1.759375,2.084375 C1.759375,2.084375 1.759375,2.090625 1.759375,2.090625 L1.75625,2.096875 L1.75625,2.103125 C1.75625,2.103125 1.75625,2.10625 1.75625,2.109375 L1.75625,2.1125 L1.39375,2.06875 L0.265625,2.134375 L1.39375,2.2 L1.75625,2.15625 L1.75625,2.1625 C1.75625,2.1625 1.75625,2.165625 1.75625,2.16875 L1.75625,2.175 L1.759375,2.178125 C1.759375,2.178125 1.759375,2.184375 1.759375,2.184375 L1.7625,2.190625 L1.7625,2.196875 C1.7625,2.196875 1.765625,2.2 1.765625,2.203125 L1.765625,2.209375 L1.76875,2.2125 L1.409375,2.2625 L0.334375,2.61875 L1.440625,2.3875 L1.778125,2.25 C1.778125,2.25 1.778125,2.253125 1.778125,2.25625 L1.78125,2.2625 L1.784375,2.26875 L1.7875,2.275 C1.7875,2.278125 1.790625,2.278125 1.790625,2.278125 L1.79375,2.2875 L1.796875,2.29375 C1.796875,2.296875 1.8,2.296875 1.8,2.296875 L1.803125,2.303125 L1.80625,2.30625 L1.471875,2.446875 L0.528125,3.06875 L1.5375,2.559375 L1.828125,2.3375 L1.83125,2.340625 C1.834375,2.34375 1.834375,2.346875 1.834375,2.346875 L1.8375,2.353125 C1.840625,2.35625 1.840625,2.35625 1.840625,2.35625 C1.840625,2.35625 1.84375,2.359375 1.846875,2.3625 L1.853125,2.36875 L1.85625,2.371875 C1.85625,2.371875 1.859375,2.375 1.8625,2.375 C1.8625,2.375 1.865625,2.378125 1.865625,2.38125 L1.86875,2.384375 L1.58125,2.609375 L0.828125,3.45 L1.66875,2.7 L1.89375,2.4125 C1.896875,2.4125 1.896875,2.415625 1.896875,2.415625 C1.9,2.41875 1.903125,2.41875 1.903125,2.41875 L1.909375,2.425 L1.9125,2.428125 L1.91875,2.434375 L1.925,2.4375 L1.928125,2.440625 C1.928125,2.440625 1.93125,2.44375 1.934375,2.44375 L1.940625,2.446875 L1.94375,2.45 L1.725,2.740625 L1.215625,3.75 L1.834375,2.80625 L1.975,2.471875 L1.978125,2.475 C1.98125,2.478125 1.984375,2.478125 1.984375,2.478125 L1.9875,2.48125 L1.99375,2.484375 L2,2.4875 C2.003125,2.490625 2.003125,2.490625 2.003125,2.490625 L2.009375,2.49375 L2.015625,2.496875 C2.015625,2.496875 2.01875,2.5 2.021875,2.5 L2.028125,2.503125 L1.890625,2.840625 L1.659375,3.946875 L2.0125,2.875 L2.0625,2.515625 L2.065625,2.51875 L2.071875,2.51875 L2.078125,2.521875 L2.084375,2.521875 L2.090625,2.525 L2.096875,2.525 C2.1,2.528125 2.1,2.528125 2.1,2.528125 L2.10625,2.528125 L2.1125,2.528125 L2.115625,2.528125 L2.071875,2.890625 L2.1375,4.01875 L2.203125,2.890625 L2.159375,2.528125 C2.1625,2.528125 2.1625,2.528125 2.1625,2.528125 L2.16875,2.528125 L2.175,2.528125 C2.175,2.528125 2.178125,2.528125 2.178125,2.525 L2.184375,2.525 L2.190625,2.521875 C2.19375,2.521875 2.19375,2.521875 2.19375,2.521875 L2.2,2.51875 L2.20625,2.51875 L2.209375,2.515625 L2.259375,2.875 L2.6125,3.946875 L2.38125,2.840625 L2.24375,2.503125 L2.25,2.5 C2.253125,2.496875 2.253125,2.496875 2.253125,2.496875 L2.259375,2.49375 L2.265625,2.490625 L2.271875,2.4875 L2.278125,2.484375 L2.284375,2.48125 L2.2875,2.478125 C2.2875,2.478125 2.29375,2.475 2.29375,2.475 L2.296875,2.471875 L2.4375,2.80625 L3.059375,3.75 L2.55,2.740625 L2.33125,2.45 L2.334375,2.446875 L2.340625,2.44375 L2.346875,2.440625 C2.35,2.4375 2.35,2.4375 2.35,2.4375 L2.35625,2.43125 L2.3625,2.425 C2.3625,2.425 2.365625,2.421875 2.365625,2.421875 L2.36875,2.41875 C2.36875,2.41875 2.371875,2.415625 2.375,2.4125 L2.378125,2.409375 L2.603125,2.696875 L3.44375,3.446875 L2.703125,2.615625 L2.415625,2.390625 L2.41875,2.3875 C2.421875,2.384375 2.425,2.384375 2.425,2.38125 Z" id="XMLID_6855_"></path>
                <path d="M2.140625,0 C0.95625,0 0,0.959375 0,2.140625 C0,3.321875 0.959375,4.28125 2.140625,4.28125 C3.321875,4.28125 4.28125,3.321875 4.28125,2.140625 C4.28125,0.959375 3.325,0 2.140625,0 Z M3.96875,2.484375 L3.98125,2.4875 C3.9625,2.5875 3.9375,2.684375 3.903125,2.778125 C3.859375,2.759375 3.80625,2.775 3.784375,2.815625 C3.75625,2.8625 3.771875,2.91875 3.81875,2.946875 C3.81875,2.946875 3.828125,2.95 3.83125,2.953125 C3.7875,3.04375 3.7375,3.13125 3.68125,3.2125 C3.64375,3.18125 3.5875,3.184375 3.553125,3.21875 C3.51875,3.253125 3.51875,3.315625 3.553125,3.353125 C3.553125,3.353125 3.559375,3.359375 3.5625,3.3625 C3.496875,3.440625 3.425,3.509375 3.35,3.575 C3.321875,3.5375 3.26875,3.525 3.225,3.55 C3.18125,3.578125 3.1625,3.634375 3.190625,3.678125 C3.19375,3.684375 3.196875,3.684375 3.196875,3.684375 C3.115625,3.746875 3.03125,3.796875 2.9375,3.8375 C2.921875,3.79375 2.871875,3.76875 2.825,3.78125 C2.775,3.796875 2.74375,3.846875 2.759375,3.896875 L2.7625,3.909375 C2.66875,3.940625 2.571875,3.96875 2.471875,3.9875 C2.465625,3.9375 2.428125,3.903125 2.378125,3.903125 C2.325,3.903125 2.284375,3.94375 2.284375,3.996875 L2.2875,4.009375 C2.2375,4.0125 2.190625,4.015625 2.140625,4.015625 C2.0875,4.015625 2.0375,4.0125 1.9875,4.009375 C1.99375,3.959375 1.965625,3.915625 1.91875,3.903125 C1.865625,3.8875 1.815625,3.91875 1.803125,3.96875 L1.8,3.98125 C1.7,3.9625 1.603125,3.9375 1.509375,3.903125 C1.528125,3.859375 1.5125,3.809375 1.471875,3.784375 C1.425,3.75625 1.36875,3.775 1.34375,3.81875 C1.340625,3.821875 1.3375,3.828125 1.3375,3.828125 C1.246875,3.7875 1.159375,3.7375 1.078125,3.68125 C1.10625,3.64375 1.10625,3.590625 1.071875,3.553125 C1.034375,3.51875 0.975,3.51875 0.934375,3.553125 C0.934375,3.553125 0.928125,3.559375 0.928125,3.5625 C0.853125,3.496875 0.78125,3.425 0.715625,3.35 C0.753125,3.321875 0.765625,3.26875 0.740625,3.228125 C0.7125,3.18125 0.65625,3.165625 0.6125,3.19375 C0.60625,3.196875 0.60625,3.2 0.60625,3.2 C0.54375,3.121875 0.496875,3.034375 0.453125,2.940625 C0.496875,2.925 0.521875,2.875 0.509375,2.828125 C0.496875,2.778125 0.44375,2.746875 0.39375,2.7625 C0.3875,2.7625 0.384375,2.765625 0.378125,2.765625 C0.346875,2.671875 0.31875,2.575 0.3,2.478125 C0.35,2.471875 0.3875,2.434375 0.3875,2.384375 C0.3875,2.33125 0.34375,2.290625 0.290625,2.290625 C0.290625,2.290625 0.284375,2.290625 0.278125,2.29375 C0.275,2.24375 0.271875,2.196875 0.271875,2.146875 C0.271875,2.09375 0.275,2.04375 0.278125,1.99375 C0.325,2 0.371875,1.971875 0.384375,1.925 C0.396875,1.871875 0.365625,1.821875 0.315625,1.809375 L0.296875,1.796875 C0.315625,1.696875 0.340625,1.6 0.375,1.509375 C0.41875,1.528125 0.471875,1.5125 0.49375,1.46875 C0.521875,1.425 0.503125,1.365625 0.459375,1.340625 L0.446875,1.334375 C0.490625,1.24375 0.540625,1.159375 0.596875,1.075 C0.634375,1.103125 0.690625,1.103125 0.725,1.06875 C0.759375,1.03125 0.759375,0.971875 0.725,0.934375 C0.721875,0.93125 0.71875,0.928125 0.71875,0.928125 C0.78125,0.846875 0.853125,0.778125 0.928125,0.7125 C0.95625,0.75 1.009375,0.7625 1.053125,0.7375 C1.096875,0.7125 1.115625,0.653125 1.0875,0.609375 L1.08125,0.6 C1.1625,0.54375 1.25,0.49375 1.340625,0.45 C1.35625,0.49375 1.40625,0.51875 1.453125,0.50625 C1.503125,0.490625 1.534375,0.440625 1.51875,0.390625 C1.51875,0.390625 1.515625,0.38125 1.515625,0.375 C1.609375,0.34375 1.70625,0.315625 1.80625,0.3 C1.8125,0.346875 1.85,0.384375 1.9,0.384375 C1.953125,0.384375 1.99375,0.340625 1.99375,0.290625 C1.99375,0.284375 1.99375,0.28125 1.99375,0.28125 C2.040625,0.271875 2.0875,0.271875 2.1375,0.271875 C2.190625,0.271875 2.240625,0.275 2.29375,0.278125 C2.2875,0.325 2.315625,0.36875 2.3625,0.384375 C2.415625,0.396875 2.465625,0.365625 2.478125,0.315625 C2.478125,0.315625 2.48125,0.30625 2.48125,0.303125 C2.58125,0.321875 2.678125,0.346875 2.771875,0.38125 C2.753125,0.425 2.76875,0.478125 2.809375,0.503125 C2.85625,0.528125 2.9125,0.5125 2.9375,0.46875 L2.94375,0.45625 C3.034375,0.5 3.121875,0.55 3.203125,0.609375 C3.171875,0.64375 3.175,0.7 3.209375,0.734375 C3.246875,0.771875 3.309375,0.771875 3.34375,0.734375 L3.353125,0.725 C3.428125,0.790625 3.5,0.8625 3.565625,0.9375 C3.528125,0.965625 3.515625,1.01875 3.540625,1.0625 C3.56875,1.10625 3.625,1.125 3.66875,1.096875 L3.678125,1.090625 C3.734375,1.171875 3.784375,1.259375 3.828125,1.35 C3.784375,1.36875 3.759375,1.415625 3.771875,1.4625 C3.7875,1.5125 3.8375,1.54375 3.8875,1.53125 L3.9,1.525 C3.93125,1.61875 3.959375,1.715625 3.978125,1.815625 C3.928125,1.821875 3.89375,1.859375 3.89375,1.909375 C3.89375,1.9625 3.934375,2.003125 3.9875,2.003125 L4,2.003125 C4.003125,2.05 4.00625,2.096875 4.00625,2.146875 C4.00625,2.2 4.003125,2.25 4,2.303125 C3.95,2.296875 3.90625,2.325 3.89375,2.371875 C3.8875,2.415625 3.91875,2.46875 3.96875,2.484375 Z" id="XMLID_6851_"></path>
            </g>
        </g>
    </g>
</svg>