<?xml version="1.0" encoding="UTF-8"?>
<svg width="428px" height="219px" viewBox="0 0 428 219" version="1.1" xmlns="http://www.w3.org/2000/svg" xmlns:xlink="http://www.w3.org/1999/xlink">
    <title>illustrastion@1x</title>
    <g id="illustrastion" stroke="none" stroke-width="1" fill="none" fill-rule="evenodd">
        <g id="Group-21-Copy" transform="translate(-73.995331, -71.004748)">
            <path d="M277.086318,464.617021 C385.970807,464.617021 490.462209,376.503244 474.239125,267.809392 C458.016042,159.11554 381.441674,69.3777862 271.788405,78.2909341 C162.135137,87.2040819 79.9335109,159.11554 79.9335109,267.809392 C79.9335109,376.503244 168.201829,464.617021 277.086318,464.617021 Z" id="Oval" fill="#D3BFF3" opacity="0.704960414"></path>
            <path d="M269.292032,84.1517705 C321.292029,79.9608385 365.809671,98.1805304 399.882553,130.146087 C437.15421,165.112584 461.934578,216.50244 470.398687,273.008311 C478.207944,325.142433 458.101879,372.476441 423.096854,407.492142 C385.514245,445.086212 330.761141,468.501281 274.821544,468.453044 C220.770349,468.406361 171.81738,446.448682 136.365465,410.985988 C100.913416,375.52316 78.9623836,326.555096 78.9156976,272.487266 C78.8701558,219.654092 98.3139531,175.571449 130.926773,143.290059 C165.067248,109.496539 213.616557,88.638927 269.292032,84.1517705 Z" id="Oval" stroke="#AC88E6" stroke-width="2.431" opacity="0.483709" transform="translate(275.495466, 276.004691) rotate(-50.000000) translate(-275.495466, -276.004691) "></path>
            <g id="Group" transform="translate(94.537423, 88.009829)">
                <path d="M105.027486,167.090155 C126.601026,166.116899 146.189357,170.070936 173.412118,175.859301 C200.633889,181.646681 222.545569,183.576463 247.464813,181.295364 C272.384057,179.016232 290.755678,168.410792 263.45557,163.248303 C236.155463,158.086799 128.884712,142.669203 112.449712,148.478232 C96.0137201,154.287262 93.3631376,167.616639 105.027486,167.090155" id="Fill-5" fill="#C8B0EE"></path>
                <path d="M95.0459055,148.478232 C95.0459055,148.478232 65.1279385,127.623589 67.1111653,118.168539 C69.094392,108.71349 63.4749191,103.833432 57.360631,98.4829842 C51.2453514,93.131552 46.452884,80.0117849 51.7411581,70.6620319 C57.0294322,61.3132629 38.8501843,48.8488937 39.8417976,39.0080842 C40.833411,29.1672748 45.1300717,22.4430497 57.6908383,33.266956 C70.2516048,44.0918464 63.8061179,56.2295007 74.8784728,58.5253616 C85.9518193,60.8222065 100.164614,62.6260269 100.330213,75.2547376 C100.495813,87.8834484 100.82602,88.7031878 111.899366,92.6404956 C122.971721,96.5758353 105.28828,109.724141 119.170867,113.48333 C133.053454,117.242519 131.781214,147.339651 116.857433,151.685352 C101.93266,156.032038 95.0459055,148.478232 95.0459055,148.478232" id="Fill-14" fill="#8DC63F"></path>
                <path d="M56.1459047,48.4454205 C56.1459047,48.4454205 72.208058,82.3076457 85.5254255,104.285125 C98.8427931,126.262605 117.896644,148.139709 117.896644,148.139709 L117.12616,149.628623 C117.12616,149.628623 96.257657,126.262605 81.1891003,101.005184 C66.1195519,75.7467781 56.1459047,48.4454205 56.1459047,48.4454205" id="Fill-15" fill="#A9E15B"></path>
                <path d="M66.3674553,163.248303 C66.3674553,163.248303 48.2705113,160.29606 42.0729277,149.963211 C35.8753442,139.630361 41.0813144,131.756729 28.6861473,131.510709 C16.2909801,131.265673 17.5304969,121.548857 15.5472701,112.138091 C13.5640434,102.727325 2.65629633,104.545907 0.920972936,93.6727965 C-0.814350458,82.7996862 -1.55806048,73.8839129 12.57243,82.4011334 C26.7029205,90.918354 34.1400208,91.6662555 40.3376043,95.7196849 C46.5351879,99.7740984 40.089701,110.783996 53.2285781,111.306543 C66.3674553,111.82909 60.5873409,127.346078 69.7091923,127.631462 C78.8310437,127.916845 92.9129451,135.437192 87.9449622,146.390997 C82.9769792,157.342834 78.3877925,166.920893 66.3674553,163.248303" id="Fill-16" fill="#98C168"></path>
                <path d="M18.0263035,98.4829842 C18.0263035,98.4829842 32.0308591,117.85757 44.4884979,126.652301 C56.9471283,135.448017 76.7793956,140.368421 76.7793956,140.368421 L76.7793956,142.273602 C76.7793956,142.273602 64.8800352,142.621967 50.0058347,133.499536 C35.1316341,124.377106 18.0263035,98.4829842 18.0263035,98.4829842" id="Fill-17" fill="#427F4E"></path>
                <path d="M117.896644,120.220348 C117.896644,120.220348 96.8595663,111.70608 101.817633,98.4829842 C106.7757,85.2589045 103.528166,89.8063425 101.061032,80.8905692 C98.5948897,71.9747958 108.511023,71.9747958 110.49425,63.6101078 C112.477477,55.2454198 101.37934,42.4523675 109.28349,39.0080842 C117.18764,35.5638009 120.658287,45.7264048 120.16248,53.8066935 C119.666674,61.8879662 133.797164,60.1648404 133.053454,69.0215689 C132.309744,77.8792815 118.46583,81.0991943 128.857938,87.976936 C139.251038,94.8536937 132.718289,120.550999 117.896644,120.220348" id="Fill-18" fill="#427F4E"></path>
                <path d="M121.285978,168.53577 C121.285978,170.64564 105.793011,172.355972 86.6806551,172.355972 C67.568299,172.355972 52.0753318,170.64564 52.0753318,168.53577 C52.0753318,166.425901 67.568299,164.715568 86.6806551,164.715568 C105.793011,164.715568 121.285978,166.425901 121.285978,168.53577" id="Fill-19" fill="#C8B0EE"></path>
                <path d="M404.041556,171.078635 C404.041556,173.66972 387.267424,175.771717 366.576419,175.771717 C345.885415,175.771717 329.111283,173.66972 329.111283,171.078635 C329.111283,168.485582 345.885415,166.384569 366.576419,166.384569 C387.267424,166.384569 404.041556,168.485582 404.041556,171.078635" id="Fill-20" fill="#C8B0EE"></path>
                <path d="M361.835516,167.942369 C361.835516,170.534439 345.061384,172.636435 324.369388,172.636435 C303.677392,172.636435 286.904252,170.534439 286.904252,167.942369 C286.904252,165.3503 303.677392,163.248303 324.369388,163.248303 C345.061384,163.248303 361.835516,165.3503 361.835516,167.942369" id="Fill-21" fill="#C8B0EE"></path>
                <path d="M357.64,176.77056 C357.64,179.362629 340.865868,181.464626 320.174863,181.464626 C299.482867,181.464626 282.709727,179.362629 282.709727,176.77056 C282.709727,174.17849 299.482867,172.076493 320.174863,172.076493 C340.865868,172.076493 357.64,174.17849 357.64,176.77056" id="Fill-22" fill="#C8B0EE"></path>
                <path d="M238.477821,98.2418844 C238.477821,98.2418844 238.660278,90.5581804 235.355231,89.9598591 C232.049192,89.3605539 230.313868,83.3960393 230.479468,82.4011334 C230.645067,81.4052435 238.825877,76.8135218 238.908181,77.5515825 C238.990485,78.2896432 237.998872,84.1114661 243.288138,87.064693 C248.576412,90.0169358 247.502494,96.4951407 247.088992,96.8228396 C246.675489,97.1515227 238.489721,99.1669204 238.477821,98.2418844" id="Fill-23" fill="#38A852"></path>
                <path d="M250.187783,85.2598886 C250.187783,85.2598886 250.394039,78.1253017 256.509319,75.9111196 C262.624598,73.6969375 264.028723,72.1391373 264.607825,70.4986744 C265.185936,68.8582115 265.847342,68.9408743 266.425452,69.1042317 C267.003563,69.2685732 273.284442,75.8284568 273.036539,77.1412208 C272.788635,78.4530007 270.639809,81.5922189 265.516143,82.4011334 C260.393468,83.210048 259.566463,83.3734054 258.822753,85.2598886 C258.079043,87.1463717 257.418628,87.976936 257.418628,87.976936 C257.418628,87.976936 250.016234,86.6592517 250.187783,85.2598886" id="Fill-24" fill="#38A852"></path>
                <path d="M250.184809,69.0215689 C250.184809,69.0215689 255.187498,63.0363886 255.435401,59.1000649 C255.683305,55.1637411 254.856299,52.2114983 254.856299,52.2114983 L262.872502,51.2274173 C262.872502,51.2274173 264.359922,54.9816861 262.872502,61.3457376 C261.385082,67.7107731 258.492545,71.7287756 258.492545,71.7287756 L250.184809,69.0215689" id="Fill-25" fill="#3A8448"></path>
                <path d="M247.915006,31.5457985 L242.378828,35.3177807 C242.378828,35.3177807 238.825877,40.3198641 240.313298,43.4364485 C241.800718,46.5530328 243.536041,47.126752 243.536041,50.0789948 C243.536041,53.0312377 243.750229,54.5890378 243.931695,54.6717006 C244.114152,54.7533793 250.057882,50.3250151 250.184809,49.7512959 C250.311735,49.1765926 249.154522,44.9952327 247.006688,43.1087495 C244.857862,41.2222664 245.519268,33.5139603 247.915006,31.5457985" id="Fill-26" fill="#3A8448"></path>
                <path d="M264.772433,13.2576382 L258.658145,11.8641796 C258.658145,11.8641796 256.013512,18.6700834 257.087429,23.7548296 C258.162338,28.8395759 261.301786,32.4472166 261.301786,32.4472166 L268.98679,31.5457985 C268.98679,31.5457985 264.690129,23.5904881 264.772433,20.5565666 C264.855728,17.522645 264.772433,13.2576382 264.772433,13.2576382" id="Fill-27" fill="#38A852"></path>
                <path d="M291.050187,3.08912982 C291.050187,3.08912982 284.852604,-0.765515233 284.440092,0.136886992 C284.02659,1.03928922 283.034976,4.40090972 280.803846,6.53341312 C278.572716,8.66591653 277.1676,9.8133549 275.184373,13.8323415 C273.201146,17.850344 274.771862,18.506726 274.771862,18.506726 L282.616515,19.4081441 C282.616515,19.4081441 281.465252,14.9797799 285.761913,13.9956989 C290.058574,13.011618 294.356226,5.87703113 294.356226,5.46765346 C294.356226,5.05729171 291.050187,3.08912982 291.050187,3.08912982" id="Fill-28" fill="#3A8448"></path>
                <path d="M344.532854,167.783932 C331.746,169.60153 321.433221,169.709779 306.434077,165.966335 C302.732384,165.046219 299.936035,163.192211 297.873479,160.80483 C291.559876,153.524599 292.052708,141.214731 294.503976,134.975658 C297.747544,126.700521 308.633475,120.436846 317.708721,116.595978 C320.996911,115.202519 323.174494,113.845472 324.629191,112.670479 C327.173671,110.610798 327.448347,109.132708 327.448347,109.132708 C328.869329,106.565241 329.510903,101.876095 330.141569,98.2418844 C330.416246,96.7391928 330.668116,95.4067472 330.977499,94.4856474 C332.032576,91.3602063 332.983533,98.0234184 335.183923,101.355516 C337.372414,104.687615 343.777245,99.1383821 345.106998,99.1383821 C346.44766,99.1383821 345.210126,101.355516 344.063821,103.6809 C342.917516,105.995458 348.452702,105.692361 348.452702,107.206862 C348.452702,108.64854 343.226899,109.738902 338.849918,110.53896 C338.631763,110.574387 338.437407,110.610798 338.231151,110.647209 C333.751042,111.447267 334.415423,115.19071 335.183923,116.499538 C335.939533,117.808366 337.372414,118.316152 345.680151,121.04304 C346.332632,121.260522 346.998005,121.540001 347.662386,121.878525 L347.708,121.903127 C348.269253,122.181621 348.830506,122.508336 349.392751,122.884255 C356.565091,127.48877 363.463745,138.124717 364.116227,147.599448 C364.872828,158.696929 357.333591,165.966335 344.532854,167.783932" id="Fill-29" fill="#E0C7AD"></path>
                <path d="M347.708,121.903127 C347.708,121.903127 339.480584,122.047786 336.615813,120.133749 C333.751042,118.219712 333.93449,114.378844 332.604737,116.293865 C331.265067,118.219712 322.475406,124.580811 324.675796,121.903127 C326.876187,119.225442 332.032576,115.905153 330.886271,115.045066 C329.739966,114.173171 330.209991,110.53896 323.908288,116.705211 C317.605593,122.860637 305.859933,126.494848 309.01128,124.677251 C312.162627,122.860637 317.13656,120.643503 320.092559,117.808366 C322.086694,115.905153 324.744218,114.573692 324.629191,112.670479 C327.173671,110.610798 327.448347,109.132708 327.448347,109.132708 C328.870321,106.565241 329.510903,101.876095 330.141569,98.2418844 C330.440045,101.440147 330.966592,105.220002 331.82632,105.498497 C333.361338,105.995458 342.436583,100.845763 340.340313,103.475227 C338.231151,106.104691 334.701999,107.110422 336.615813,107.412535 C338.517727,107.715632 345.874507,105.1954 342.918508,107.012998 C341.772203,107.715632 340.179671,109.084488 338.849918,110.53896 C338.631763,110.574387 338.437407,110.610798 338.231151,110.647209 C333.751042,111.447267 334.415423,115.191695 335.183923,116.499538 C335.939533,117.808366 337.372414,118.316152 345.680151,121.04304 C346.332632,121.261506 346.998005,121.540001 347.662386,121.878525 L347.708,121.903127" id="Fill-30" fill="#BF9A79"></path>
                <path d="M326.012491,107.009061 C326.012491,107.009061 327.534618,105.015313 328.730504,105.60773 C329.927381,106.201131 337.662957,111.04773 337.75716,112.864343 C337.853347,114.681941 336.560283,115.3088 334.676217,114.945674 C332.793143,114.58058 324.866186,109.128772 326.012491,107.009061" id="Fill-31" fill="#3A8448"></path>
                <path d="M364.116227,147.599448 C364.872828,158.696929 357.333591,165.966335 344.532854,167.783932 C331.746,169.60153 321.433221,169.709779 306.434077,165.966335 C302.732384,165.046219 299.936035,163.192211 297.873479,160.80483 C323.862673,165.251892 320.224444,155.852935 334.78827,147.565989 C352.745396,137.340404 349.392751,122.884255 349.392751,122.884255 C356.565091,127.48877 363.463745,138.124717 364.116227,147.599448" id="Fill-32" fill="#BF9A79"></path>
                <path d="M328.102812,138.350071 C326.977331,137.932821 326.188998,137.413226 325.737814,136.780462 C325.28663,136.152619 325.080375,135.387988 325.117064,134.48657 C325.156729,133.577279 325.469087,132.803791 326.060089,132.16217 C326.647124,131.523502 327.427524,131.148567 328.409221,131.03835 L328.102812,138.350071 Z M332.073232,143.014615 C332.497643,143.617857 332.689024,144.399217 332.648368,145.358696 C332.599779,146.4835 332.245773,147.412473 331.5804,148.147581 C330.913045,148.879737 330.091989,149.287147 329.111283,149.368826 L329.450415,141.324948 C330.771244,141.848479 331.64783,142.411373 332.073232,143.014615 Z M335.176982,134.459015 C335.026257,132.776237 334.423356,131.427062 333.374229,130.416411 C332.553173,129.624226 331.419759,129.120376 329.971012,128.904862 L330.024559,127.640318 L328.553996,127.571433 L328.500449,128.835977 C326.833547,128.932417 325.565274,129.355572 324.692654,130.097569 C323.383724,131.201707 322.691578,132.696526 322.611257,134.577105 C322.565643,135.631056 322.744134,136.588566 323.136813,137.438812 C323.533458,138.291027 324.11851,138.972995 324.894943,139.479796 C325.94407,140.163733 326.975348,140.634123 327.995718,140.888016 L327.64072,149.298956 C326.664973,149.146423 325.842925,148.583529 325.181519,147.612241 C324.717444,146.923385 324.417977,145.863529 324.284109,144.436612 L321.749545,144.817451 C321.784252,146.190244 322.06587,147.368189 322.596383,148.342429 C323.123922,149.318638 323.773428,150.037017 324.536971,150.498551 C325.301504,150.961069 326.307,151.305497 327.545526,151.530852 L327.436448,154.176061 L328.909986,154.244947 L329.019063,151.571199 C330.772235,151.565294 332.226932,150.97583 333.379187,149.804774 C334.534417,148.633717 335.147234,147.13201 335.222596,145.300635 C335.259286,144.469087 335.161116,143.691663 334.926104,142.964427 C334.691091,142.237191 334.339069,141.603443 333.87301,141.061214 C333.403977,140.520954 332.788185,140.048595 332.026626,139.651026 C331.626015,139.443385 330.803967,139.146193 329.557509,138.754529 L329.878792,131.136758 C330.686957,131.34932 331.311673,131.743936 331.756908,132.321592 C332.200159,132.895311 332.472852,133.704225 332.578955,134.749319 L335.176982,134.459015 L335.176982,134.459015 Z" id="Fill-33" fill="#3A8448"></path>
                <path d="M351.780556,173.045813 C362.846961,174.522919 371.771482,174.610502 384.751701,171.570676 C387.954612,170.822774 390.374149,169.316146 392.159053,167.378491 C397.622842,161.46318 397.196449,151.465902 395.074396,146.396901 C392.26813,139.675628 382.847803,134.58793 374.994225,131.469377 C372.148295,130.3367 370.264229,129.23453 369.00488,128.279971 C366.802507,126.607033 366.565512,125.406455 366.565512,125.406455 C365.335911,123.320203 364.780608,119.51181 364.23522,116.559567 C363.997233,115.340291 363.779078,114.256818 363.511342,113.5099 C362.599058,110.969987 361.776019,116.382432 359.872121,119.088655 C357.97814,121.794878 352.435021,117.287787 351.28475,117.287787 C350.124562,117.287787 351.195504,119.088655 352.187118,120.97809 C353.178731,122.858669 348.389239,122.612649 348.389239,123.84275 C348.389239,125.012822 352.910996,125.898495 356.698959,126.548973 C356.886373,126.578495 357.055939,126.607033 357.23443,126.636556 C361.111638,127.287033 360.536502,130.326859 359.872121,131.389667 C359.217657,132.453458 357.97814,132.865788 350.788943,135.07997 C350.223723,135.257105 349.648588,135.484428 349.07246,135.75997 L349.032796,135.778668 C348.547897,136.005991 348.062006,136.270708 347.576116,136.575773 C341.368616,140.316265 335.399103,148.955512 334.833884,156.651025 C334.179419,165.66619 340.704235,171.570676 351.780556,173.045813" id="Fill-34" fill="#EFE3C2"></path>
                <path d="M382.862677,138.413053 C381.835366,138.413053 374.129538,135.682228 369.629597,131.556961 C367.245758,129.368365 365.982443,128.700174 365.231792,128.700174 C364.263977,128.700174 364.14895,129.810217 363.590671,130.20877 C362.599058,130.907467 367.061318,133.603849 368.965216,135.778668 C369.288482,136.147698 369.337071,136.305151 369.191304,136.305151 C368.475359,136.305151 363.0671,132.522344 362.103251,131.223357 C361.884105,130.926165 361.712556,130.800202 361.560839,130.800202 C360.918273,130.800202 360.63963,133.084254 358.632605,134.342894 C356.480804,135.692069 350.832574,135.780636 349.378869,135.780636 C349.157739,135.780636 349.032796,135.778668 349.032796,135.778668 L349.07246,135.75997 C349.648588,135.484428 350.223723,135.257105 350.788943,135.07997 C357.97814,132.865788 359.217657,132.453458 359.872121,131.389667 C360.119033,130.996034 360.353054,130.328828 360.352062,129.613401 C360.350079,128.400029 359.672807,127.045934 357.23443,126.636556 C357.055939,126.607033 356.886373,126.578495 356.698959,126.548973 C355.548687,125.367091 354.170344,124.25508 353.178731,123.684313 C352.48956,123.286744 352.447912,123.145037 352.787044,123.145037 C353.211454,123.145037 354.22885,123.366455 355.320616,123.587873 C356.413374,123.809291 357.579511,124.03071 358.302397,124.03071 C358.426349,124.03071 358.53741,124.023821 358.632605,124.010044 C360.288599,123.76304 357.23443,122.946252 355.409861,120.810797 C355.037015,120.372881 355.072713,120.200667 355.375155,120.200667 C355.926492,120.200667 357.364331,120.770449 358.842827,121.341216 C360.321322,121.911983 361.839482,122.48275 362.550469,122.481766 C362.639714,122.481766 362.715077,122.472909 362.777549,122.454212 C363.521259,122.228857 363.977401,119.158525 364.23522,116.559567 C364.780608,119.51181 365.335911,123.320203 366.565512,125.406455 C366.565512,125.406455 366.802507,126.607033 369.00488,128.279971 C368.904728,129.825962 371.206262,130.907467 372.931669,132.453458 C375.490032,134.755224 379.793634,136.556092 382.520571,138.032213 C382.997537,138.291027 383.079841,138.413053 382.862677,138.413053" id="Fill-35" fill="#DFC4A2"></path>
                <path d="M367.808003,123.681361 C367.808003,123.681361 366.491141,122.061564 365.455896,122.543763 C364.41966,123.024979 357.72627,126.961303 357.643966,128.437424 C357.561662,129.913545 358.680202,130.423299 360.311406,130.127091 C361.940627,129.831867 368.799617,125.403502 367.808003,123.681361" id="Fill-36" fill="#38A852"></path>
                <path d="M365.074125,174.042687 C360.714001,174.042687 356.437173,173.667752 351.780556,173.045813 C342.632923,171.827521 336.590031,167.587116 335.131368,161.070532 C335.286059,160.865843 335.419927,160.668043 335.528013,160.480084 C336.168595,159.368072 336.527559,158.387928 336.528551,157.750243 C336.529543,157.270012 336.327254,156.984628 335.88896,156.984628 C335.782858,156.984628 335.662873,157.001357 335.528013,157.0358 C335.24342,157.109606 335.005433,157.208014 334.798186,157.321184 C334.806119,157.099766 334.818018,156.877363 334.833884,156.651025 C335.399103,148.955512 341.368616,140.316265 347.576116,136.575773 C347.576116,136.575773 336.321304,151.43638 351.859885,159.741039 C361.391273,164.832674 366.689463,168.656812 378.436115,168.655828 C382.221103,168.655828 386.677414,168.258259 392.159053,167.378491 C390.374149,169.316146 387.954612,170.822774 384.751701,171.570676 C377.233288,173.331197 371.075369,174.042687 365.074125,174.042687" id="Fill-37" fill="#DFC4A2"></path>
                <path d="M365.329961,149.138551 C364.356197,148.800027 363.673967,148.376872 363.283271,147.864166 C362.892576,147.353428 362.714085,146.732473 362.746809,146.000317 C362.780523,145.262256 363.050242,144.633428 363.561915,144.111865 C364.071604,143.593255 364.745901,143.289174 365.594722,143.199622 L365.329961,149.138551 Z M368.765902,152.927262 C369.132799,153.417335 369.29939,154.053051 369.263692,154.831459 C369.221052,155.744686 368.914644,156.499476 368.338516,157.097797 C367.761397,157.691198 367.050411,158.022833 366.202581,158.087783 L366.496099,151.555454 C367.639429,151.979592 368.398013,152.43719 368.765902,152.927262 Z M371.452182,145.977683 C371.321289,144.610794 370.799701,143.515512 369.891383,142.694789 C369.181388,142.050216 368.19969,141.641822 366.946291,141.46764 L366.992897,140.440259 L365.720657,140.383183 L365.674051,141.410563 C364.232245,141.48929 363.133538,141.832734 362.37892,142.434991 C361.246497,143.332473 360.646571,144.546829 360.577158,146.073139 C360.538486,146.930273 360.692186,147.707697 361.032309,148.398522 C361.376399,149.091315 361.882122,149.643384 362.553444,150.055714 C363.461762,150.612704 364.355205,150.993543 365.23675,151.199216 L364.930341,158.032674 C364.085487,157.90868 363.373508,157.451082 362.801347,156.66185 C362.400735,156.101907 362.140933,155.241821 362.024914,154.082573 L359.831465,154.391575 C359.861214,155.505554 360.106142,156.463065 360.564267,157.25525 C361.02041,158.047436 361.583646,158.630996 362.244061,159.006914 C362.905467,159.382833 363.775112,159.661328 364.848037,159.845351 L364.752842,161.9936 L366.028057,162.049693 L366.123252,159.877826 C367.64042,159.87389 368.899769,159.394642 369.896341,158.443036 C370.894896,157.49143 371.4264,156.272153 371.490855,154.784223 C371.522587,154.109144 371.437308,153.478348 371.234027,152.886915 C371.030747,152.296466 370.726321,151.780808 370.323726,151.340924 C369.917165,150.902024 369.384668,150.518232 368.725246,150.195454 C368.378181,150.027176 367.667194,149.785092 366.588319,149.467234 L366.866962,143.280317 C367.565058,143.451547 368.10747,143.772357 368.492216,144.241764 C368.874979,144.708218 369.111975,145.365584 369.203203,146.212878 L371.452182,145.977683 L371.452182,145.977683 Z" id="Fill-38" fill="#38A852"></path>
                <path d="M266.326291,170.62891 C249.568025,180.272904 204.429785,178.757419 182.87211,173.462079 C161.314435,168.167724 139.251038,163.002283 124.376837,163.247319 C117.57437,163.356552 109.413392,162.333108 103.731447,160.325583 C98.3965671,158.445988 95.2432365,155.700402 97.4446182,152.236438 C98.019754,151.331083 98.9617867,150.37554 100.330213,149.372762 C100.330213,149.372762 115.70022,139.679565 113.964897,119.722403 C112.229574,99.7740984 113.716994,83.7050407 123.385224,71.5614818 C133.053454,59.4277638 135.780391,57.095492 137.515714,51.5551163 C137.91236,50.2856518 138.487496,49.2326852 139.27087,48.4454205 C141.878813,45.7785611 146.856712,45.9064917 155.741568,49.6459992 C167.264115,54.5073591 184.97433,57.3808754 194.136838,71.5614818 C203.289429,85.751929 191.548727,114.841362 214.861557,125.144689 C222.665554,128.588972 229.696093,129.907641 236.033494,130.576816 C248.625992,131.895484 258.502462,130.62602 266.326291,138.351055 C278.076909,149.963211 283.074641,160.984917 266.326291,170.62891" id="Fill-39" fill="#F9C84E"></path>
                <path d="M170.734762,151.685352 C170.734762,151.685352 170.734762,151.685352 176.436539,149.368826 C178.472321,148.541214 181.10803,148.275512 183.656476,148.275512 C188.244671,148.275512 192.549265,149.138551 192.549265,149.138551 C192.549265,149.138551 185.113156,146.518927 173.412118,142.273602 C170.343075,141.159622 167.044969,140.749261 163.848999,140.749261 C154.862999,140.749261 146.688138,143.997712 146.688138,143.997712 C146.688138,143.997712 149.167172,142.82764 162.553952,138.413053 C175.940732,133.998465 175.940732,140.121417 172.222182,131.341447 C168.503632,122.561477 155.116852,105.498497 155.116852,105.498497 C161.066532,107.530624 173.412118,126.331491 173.412118,126.331491 C173.412118,126.331491 169.247342,105.679568 164.785082,93.6727965 C160.322822,81.666025 162.306049,77.387241 163.545565,73.2836235 C164.686912,69.5027845 172.562306,61.3457376 176.896648,61.3457376 C177.26652,61.3457376 177.611601,61.4057665 177.923959,61.5327129 C181.890413,63.1456216 187.035894,120.015659 189.715234,127.267352 C192.393581,134.520028 202.218487,131.265673 214.858582,135.336816 C219.14136,136.716497 223.454879,137.908219 227.125831,139.049753 C221.082939,145.291778 216.874532,150.593022 216.874532,150.593022 C216.874532,150.593022 216.890398,150.594006 216.921138,150.594006 C210.771152,151.183471 204.404994,151.477711 199.792009,151.477711 C197.280252,151.477711 195.289093,151.390128 194.134855,151.215946 C192.538357,150.973862 190.265579,150.883326 187.755806,150.883326 C180.288957,150.883326 170.734762,151.685352 170.734762,151.685352" id="Fill-40" fill="#F68D50"></path>
                <path d="M224.244203,177.659185 C208.847422,177.659185 193.171006,175.992152 182.87211,173.462079 C161.810242,168.28975 140.264467,163.239447 125.413073,163.239447 C125.064025,163.239447 124.718944,163.242399 124.376837,163.247319 C124.049605,163.253224 123.718406,163.255192 123.385224,163.255192 C120.810996,163.255192 118.074143,163.099707 115.371996,162.79661 C117.017083,160.56373 117.897636,157.87719 117.896644,154.796032 C117.896644,154.395511 117.88177,153.988102 117.852021,153.573804 C117.452401,148.140693 114.359559,142.236207 110.390131,137.91806 C112.498301,133.946309 114.098765,128.929464 114.10174,122.849812 C114.10174,121.836209 114.058109,120.794067 113.964897,119.722403 C113.568252,115.16414 113.340181,110.808598 113.339189,106.655776 C113.336214,92.6355752 115.926308,80.9299324 123.385224,71.5614818 C133.053454,59.4277638 135.780391,57.095492 137.515714,51.5551163 C137.91236,50.2856518 138.487496,49.2326852 139.27087,48.4454205 C138.378418,51.8404997 136.246449,58.6011358 131.893267,66.5623506 C125.616354,78.0465753 114.143387,81.0480221 117.901602,98.2399162 C121.649901,115.440667 132.88488,130.222547 132.557648,138.4101 C132.230415,146.597654 134.868107,149.992733 147.759081,152.236438 C160.650054,154.470301 163.962043,154.81473 158.012363,158.091719 C152.916462,160.889461 196.305496,167.548737 227.349936,167.548737 C232.555906,167.548737 237.409854,167.361762 241.635118,166.938607 C271.056287,163.98538 269.727525,156.969867 260.475772,154.243963 C251.422342,151.576119 218.335179,150.63337 216.921138,150.594006 C225.850617,149.739824 234.322961,148.263703 236.305196,146.168594 C239.009326,143.309839 234.288255,141.275744 227.125831,139.049753 C229.804179,136.283501 232.841491,133.333227 236.033494,130.576816 C248.625992,131.895484 258.502462,130.62602 266.326291,138.351055 C272.706331,144.656062 277.096204,150.786886 277.094221,156.617566 C277.094221,161.525178 273.980555,166.221212 266.326291,170.62891 C257.574311,175.665437 241.07684,177.659185 224.244203,177.659185" id="Fill-41" fill="#F68D50"></path>
                <path d="M216.921138,150.594006 C216.890398,150.594006 216.874532,150.593022 216.874532,150.593022 C216.874532,150.593022 221.082939,145.291778 227.125831,139.049753 C234.288255,141.275744 239.009326,143.309839 236.305196,146.168594 C234.322961,148.263703 225.850617,149.739824 216.921138,150.594006" id="Fill-42" fill="#F57C51"></path>
                <path d="M302.308965,161.095134 C302.308965,161.095134 310.489776,166.445582 312.473002,168.782775 C314.456229,171.119967 315.943649,174.297564 318.609106,173.262311 C321.273571,172.227058 322.017281,168.604656 325.922254,167.279099 C329.826236,165.953542 334.288496,162.632269 335.528013,160.480084 C336.76753,158.327899 336.953953,156.66677 335.528013,157.0358 C334.103065,157.404831 333.855161,158.388912 332.739596,158.818955 C331.624031,159.249982 328.710671,159.31198 325.550399,160.357073 C322.389136,161.403152 319.662199,161.587175 318.609106,161.218144 C317.555021,160.849114 309.15903,156.66677 309.15903,156.66677 L302.308965,161.095134" id="Fill-43" fill="#F9C3A5"></path>
                <path d="M317.600635,173.464048 C315.538079,173.464048 314.191468,170.808013 312.473002,168.782775 C310.489776,166.445582 302.308965,161.095134 302.308965,161.095134 L309.15903,156.66677 C309.15903,156.66677 317.555021,160.849114 318.609106,161.218144 C318.932372,161.331314 319.414296,161.392327 320.017197,161.392327 C321.378682,161.392327 323.359926,161.081357 325.550399,160.357073 C328.710671,159.31198 331.624031,159.249982 332.739596,158.818955 C333.855161,158.388912 334.103065,157.404831 335.528013,157.0358 C335.662873,157.001357 335.782858,156.984628 335.88896,156.984628 C336.327254,156.984628 336.529543,157.270012 336.528555,157.750243 C336.527559,158.387928 336.168595,159.368072 335.528013,160.480084 C335.419927,160.668043 335.286059,160.865843 335.131368,161.070532 C333.512063,163.199099 329.485121,166.069663 325.922254,167.279099 C324.845362,167.645177 324.008441,168.185437 323.306378,168.797536 C321.460986,170.406508 320.538785,172.513425 318.609106,173.262311 C318.253117,173.401066 317.917951,173.464048 317.600635,173.464048" id="Fill-44" fill="#F69F85"></path>
                <path d="M295.24372,168.106711 C295.24372,168.106711 303.42453,173.458143 305.407757,175.795335 C307.390984,178.132528 308.878404,181.309141 311.543861,180.273888 C314.208326,179.239619 314.952036,175.616233 318.857009,174.290676 C322.760991,172.966103 327.223251,169.644829 328.462768,167.49166 C329.702285,165.339475 329.888708,163.678347 328.462768,164.047377 C327.037819,164.416407 326.789916,165.400488 325.674351,165.831516 C324.558786,166.261559 321.645426,166.323556 318.485154,167.36865 C315.323891,168.414728 312.596954,168.598751 311.543861,168.229721 C310.489776,167.860691 302.093785,163.678347 302.093785,163.678347 L295.24372,168.106711" id="Fill-45" fill="#F9C3A5"></path>
                <path d="M206.866179,29.7823254 C206.866179,29.7823254 209.035829,26.5230493 204.077762,22.4017183 C199.119695,18.2813714 193.107543,17.7893309 189.82332,18.8344249 C186.538105,19.880503 184.741301,23.5708065 183.625736,23.2017761 C182.510171,22.8327458 179.783234,18.3423844 174.701216,22.8937588 C169.619197,27.4451332 171.602424,34.0876795 174.701216,35.0717605 C177.800008,36.0558414 178.729149,37.2249296 178.729149,37.2249296 C178.729149,37.2249296 178.073693,48.2338431 189.464356,49.5869544 C200.855018,50.9400657 206.866179,29.7823254 206.866179,29.7823254" id="Fill-46" fill="#2F2159"></path>
                <path d="M185.361059,57.9516424 C185.361059,57.9516424 187.014079,55.819139 187.59219,52.8668962 C188.1703,49.9146533 187.509886,44.3388507 187.178687,44.0928305 C186.84848,43.8468102 183.873639,43.1904282 183.067458,39.808142 C182.262268,36.4248718 184.121543,35.9328313 185.794395,37.2249296 C187.468238,38.5160438 187.840093,39.0080842 188.211948,37.0399224 C188.583803,35.0717605 188.645283,31.5044671 193.293966,29.1062618 C197.941658,26.7070725 200.916498,26.2770291 203.27158,27.5681433 C205.626662,28.8602416 206.866179,29.7823254 206.866179,29.7823254 C206.866179,29.7823254 208.601502,45.1585901 205.689134,49.8329746 C202.775773,54.5073591 198.623888,53.9543056 198.623888,53.9543056 L198.479113,57.0216859 C198.479113,57.0216859 207.238034,64.2910918 204.635049,67.9794272 C202.032063,71.6677626 196.454238,76.6491803 191.31074,70.1916412 C186.16625,63.7331179 185.361059,57.9516424 185.361059,57.9516424" id="Fill-47" fill="#F9C3A5"></path>
                <path d="M226.572511,96.1438238 L219.264321,96.8228396 C219.264321,96.8228396 213.869944,89.569179 211.271917,83.7837671 C210.825691,82.7996862 210.389381,81.8254461 209.953071,80.8905692 C207.840935,76.2457071 205.996534,72.3487466 205.996534,72.3487466 L215.23837,67.9794272 C215.23837,67.9794272 215.912667,69.8688626 216.874532,72.4865179 C218.659436,77.3577186 221.416122,84.718644 222.546561,87.0410751 C224.281884,90.6132889 226.572511,96.1438238 226.572511,96.1438238" id="Fill-48" fill="#F9C3A5"></path>
                <path d="M216.874532,72.4865179 L211.886717,80.1525085 C211.886717,80.1525085 211.123175,80.487096 209.953071,80.8905692 C207.840935,76.2457071 205.996534,72.3487466 205.996534,72.3487466 L215.23837,67.9794272 C215.23837,67.9794272 215.912667,69.8688626 216.874532,72.4865179" id="Fill-49" fill="#F48E76"></path>
                <path d="M254.773995,124.746136 C254.773995,124.746136 274.234408,126.162229 276.341586,126.806802 C278.448764,127.452359 312.287571,154.145555 312.163959,155.498666 C312.039667,156.851777 306.554062,163.369345 304.586701,163.247319 C302.61934,163.125293 230.355516,124.746136 230.355516,124.746136 L254.773995,124.746136" id="Fill-50" fill="#20193F"></path>
                <path d="M302.093785,167.017333 C300.120475,169.005177 297.532364,170.697796 296.292847,170.62891 C294.071633,170.50098 261.090572,143.693631 259.365165,143.074644 C257.619926,142.454673 234.941728,147.256988 215.357364,149.963211 C195.773,152.669433 180.898799,143.930794 176.565449,134.089985 C172.222182,124.249176 177.557062,115.028337 177.557062,115.028337 C177.557062,115.028337 181.523516,113.916326 182.753116,113.916326 C183.020852,113.916326 184.23062,114.113142 185.97586,114.408366 C192.322185,115.530218 205.669301,118.107526 205.669301,118.107526 L222.546561,124.249176 C222.546561,124.249176 270.015093,129.661621 271.502513,130.153661 C272.989933,130.645702 303.987767,159.676089 304.602567,162.391169 C304.880219,163.602572 303.690283,165.403441 302.093785,167.017333" id="Fill-51" fill="#3D237C"></path>
                <path d="M302.093785,167.017333 C300.120475,169.005177 297.532364,170.697796 296.292847,170.62891 C294.071633,170.50098 261.090572,143.693631 259.365165,143.074644 C257.619926,142.454673 234.941728,147.256988 215.357364,149.963211 C195.773,152.669433 180.898799,143.930794 176.565449,134.089985 C172.222182,124.249176 177.557062,115.028337 177.557062,115.028337 C177.557062,115.028337 181.523516,113.916326 182.753116,113.916326 C183.020852,113.916326 184.23062,114.113142 185.97586,114.408366 C187.106299,123.33398 191.409901,137.789145 207.414541,139.13832 C230.727371,141.106482 260.991411,135.940057 265.195852,137.662199 C269.053228,139.236728 291.671929,163.494324 302.093785,167.017333" id="Fill-52" fill="#20193F"></path>
                <path d="M214.038518,70.7446947 C214.286421,72.1420896 210.478626,73.1261705 210.478626,73.1261705 C210.478626,73.1261705 213.661705,78.1745058 214.276505,81.5892666 C214.326086,81.8746501 214.355834,82.1305112 214.365751,82.3863722 C214.484744,84.8072113 214.048434,88.2810171 214.018686,91.9024349 C213.988937,93.3195115 214.038518,94.7562697 214.197176,96.1635054 C214.484744,98.6532302 214.80206,103.3965 214.851641,107.76582 C214.901222,112.203041 214.683067,116.248597 213.869944,117.123445 C213.215479,117.832968 210.805859,118.09867 207.969844,118.157714 L207.950012,118.157714 C203.884397,118.236441 198.936246,117.882172 196.893523,117.73456 C193.422876,117.488539 186.481583,115.421969 182.882026,115.776239 C179.28247,116.139364 174.820209,118.95482 175.940732,113.916326 C176.783604,110.107932 176.585281,108.612129 176.17872,105.246573 C176.04981,104.154243 175.901068,102.874937 175.762242,101.251204 C175.504423,98.3383243 174.492977,92.2754016 173.412118,86.4014225 C172.053608,78.9125665 170.615769,71.7287756 170.615769,71.7287756 C170.615769,71.7287756 168.196232,71.4237105 168.751536,69.9475891 C169.306839,68.4714677 172.529582,63.9840586 174.641719,62.566982 C176.743939,61.1499055 184.121543,57.4596019 185.361059,57.9516424 C185.361059,57.9516424 187.840093,65.6569962 195.525097,67.0543911 C203.2101,68.4517861 201.058299,63.3640876 199.908028,61.3171992 C198.74784,59.26047 198.420608,56.6428147 198.420608,56.6428147 C198.420608,56.6428147 206.353514,58.9357233 208.41607,59.9198043 C210.478626,60.9038852 216.517552,68.2844923 216.428306,68.7765328 C216.348977,69.2685732 213.790615,69.3472997 214.038518,70.7446947" id="Fill-53" fill="#EF5454"></path>
                <path d="M213.869944,117.123445 C213.215479,117.832968 210.805859,118.09867 207.969844,118.157714 L207.950012,118.157714 C197.954549,115.893344 180.799638,111.702144 178.915573,109.250798 C178.290856,108.425154 177.309159,106.988396 176.17872,105.246573 C176.04981,104.154243 175.901068,102.874937 175.762242,101.251204 C175.504423,98.3383243 174.492977,92.2754016 173.412118,86.4014225 L184.785924,78.0465753 C184.785924,78.0465753 185.856866,79.2766764 186.273344,78.371322 C186.679905,77.4659675 186.76915,73.2836235 186.76915,73.2836235 C186.76915,73.2836235 187.671519,80.9102508 188.583803,81.4022913 C189.496087,81.8943317 199.075072,83.7837671 203.378674,83.7050407 C206.532005,83.636155 211.728059,82.2978049 214.276505,81.5892666 C214.326086,81.8746501 214.355834,82.1305112 214.365751,82.3863722 C214.484744,84.8072113 214.048434,88.2810171 214.018686,91.9024349 C209.734916,92.9160383 194.315328,96.6161826 194.037676,97.8856471 C193.750109,99.1747931 210.667033,106.083041 214.851641,107.76582 C214.901222,112.203041 214.683067,116.248597 213.869944,117.123445" id="Fill-54" fill="#C43766"></path>
                <path d="M196.027844,119.785384 C196.027844,119.785384 198.80932,118.410623 209.717067,118.718641 C220.624814,119.025674 219.090788,126.195688 212.87833,126.775311 C206.665873,127.354935 196.027844,119.785384 196.027844,119.785384" id="Fill-55" fill="#7B869B"></path>
                <path d="M195.884061,121.938553 L207.413549,127.267352 L207.413549,124.377106 L196.842951,119.821795 C196.22815,119.556094 195.51518,119.858206 195.28116,120.482114 C195.068954,121.049928 195.331732,121.682692 195.884061,121.938553" id="Fill-56" fill="#B4BBCC"></path>
                <path d="M205.704999,125.319856 L211.025005,95.6222609 C211.18763,94.711986 211.967038,94.0359224 212.897171,93.9995114 L261.393015,92.0815377 C262.659305,92.0313495 263.646952,93.1571381 263.423839,94.396096 L258.105816,123.861448 C257.943192,124.767786 257.168742,125.440898 256.242575,125.481245 L207.74574,127.629494 C206.476475,127.685586 205.482878,126.559798 205.704999,125.319856" id="Fill-57" fill="#B4BBCC"></path>
                <path d="M207.444289,125.319856 L212.764295,95.6222609 C212.927911,94.711986 213.707319,94.0359224 214.637453,93.9995114 L263.133296,92.0815377 C264.399586,92.0313495 265.387233,93.1571381 265.163129,94.396096 L259.846098,123.861448 C259.682481,124.767786 258.909023,125.440898 257.982856,125.481245 L209.486021,127.629494 C208.216756,127.685586 207.222168,126.559798 207.444289,125.319856" id="Fill-58" fill="#E4E9EA"></path>
                <path d="M238.932972,110.419886 C239.426795,111.741507 238.748532,113.21074 237.416795,113.700812 C236.084066,114.190884 234.604579,113.515805 234.110756,112.195168 C233.616932,110.872563 234.295196,109.404314 235.627924,108.914242 C236.959661,108.42417 238.439148,109.098265 238.932972,110.419886" id="Fill-59" fill="#FFFFFF"></path>
                <path d="M170.610811,71.7287756 C170.610811,71.7287756 171.470539,80.0934636 174.861857,90.590655 C178.254166,101.087846 180.485297,107.074011 182.056012,108.13977 C183.625736,109.206514 207.413549,115.779191 207.413549,115.779191 L208.818665,107.935082 C208.818665,107.935082 190.649334,101.743244 190.319126,100.841826 C189.988919,99.939424 184.782949,78.043623 184.782949,78.043623 C184.782949,78.043623 179.493683,76.8135218 177.345849,75.0913802 C175.197022,73.3692385 174.949119,70.9090362 170.610811,71.7287756" id="Fill-60" fill="#F9C3A5"></path>
                <path d="M198.623888,53.9543056 C198.623888,53.9543056 196.640662,53.7692984 194.037676,50.9400657 C191.434691,48.110833 190.62851,46.0816581 190.62851,46.0816581 C190.62851,46.0816581 195.338673,62.0729734 195.773,61.5189358 C196.206335,60.9658823 198.623888,53.9543056 198.623888,53.9543056" id="Fill-61" fill="#F48E76"></path>
                <path d="M100.905349,169.969576 C89.8389437,171.445698 80.9144234,171.533281 67.9342044,168.493455 C64.7312932,167.745553 62.3117566,166.239909 60.5268525,164.30127 C55.0630629,158.386943 55.4894566,148.388681 57.6115092,143.320664 C60.417775,136.598407 69.838102,131.510709 77.6916799,128.392156 C80.5376103,127.260463 82.4216757,126.158293 83.6810247,125.20275 C85.8824063,123.530796 86.1203936,122.329234 86.1203936,122.329234 C87.3499941,120.243966 87.9052976,116.435573 88.450685,113.48333 C88.6886722,112.26307 88.9068271,111.179597 89.1745627,110.432679 C90.086847,107.89375 90.9098861,113.306195 92.8137838,116.012418 C94.7077653,118.717657 100.250884,114.210566 101.401156,114.210566 C102.561343,114.210566 101.490401,116.012418 100.498787,117.900869 C99.507174,119.781448 104.296667,119.535428 104.296667,120.765529 C104.296667,121.936585 99.7749096,122.821274 95.9869466,123.471752 C95.79854,123.501274 95.6299658,123.530796 95.4514754,123.559335 C91.5742671,124.209812 92.1494028,127.249638 92.8137838,128.312446 C93.4682486,129.376237 94.7077653,129.788567 101.896962,132.003733 C102.462182,132.180868 103.037318,132.407207 103.612453,132.682749 L103.652118,132.701447 C104.138008,132.928769 104.623899,133.193487 105.10979,133.499536 C111.317289,137.239044 117.286802,145.879275 117.852021,153.573804 C118.506486,162.588969 111.98167,168.493455 100.905349,169.969576" id="Fill-62" fill="#EFE3C2"></path>
                <path d="M69.8232278,135.336816 C69.6050729,135.336816 69.6883684,135.213805 70.1653345,134.954992 C72.8922712,133.479855 77.1958732,131.678003 79.7542357,129.376237 C81.479643,127.83123 83.780186,126.748741 83.6810247,125.20275 C85.8824063,123.530796 86.1203936,122.329234 86.1203936,122.329234 C87.3499941,120.243966 87.9052976,116.435573 88.450685,113.48333 C88.7085044,116.081304 89.1646466,119.151636 89.9083566,119.376991 C89.9708283,119.395688 90.0461909,119.404545 90.1354361,119.404545 C90.8464229,119.404545 92.3645829,118.834762 93.8430785,118.263995 C95.3205824,117.694212 96.7594134,117.123445 97.3107504,117.123445 C97.6131925,117.123445 97.6488906,117.29566 97.276044,117.73456 C95.4514754,119.869031 92.3973062,120.686803 94.0533005,120.932823 C94.1484954,120.9466 94.2595561,120.953488 94.3835078,120.953488 C95.1054023,120.953488 96.2725312,120.73207 97.3642975,120.510652 C98.4570555,120.289234 99.4744508,120.067816 99.8978697,120.067816 C100.237993,120.067816 100.196345,120.209523 99.507174,120.607092 C98.5155607,121.177859 97.1372181,122.28987 95.9869466,123.471752 C95.79854,123.501274 95.6299658,123.530796 95.4514754,123.559335 C93.0130981,123.968712 92.3358261,125.322808 92.3338429,126.53618 C92.3328513,127.251606 92.5668721,127.918813 92.8137838,128.312446 C93.4682486,129.376237 94.7077653,129.788567 101.896962,132.003733 C102.462182,132.180868 103.037318,132.407207 103.612453,132.682749 L103.652118,132.701447 C103.652118,132.701447 103.528166,132.704399 103.307036,132.704399 C101.854323,132.704399 96.2051015,132.614848 94.0533005,131.265673 C92.046275,130.007033 91.7676317,127.722981 91.1250662,127.722981 C90.9733494,127.722981 90.8018003,127.848944 90.5826537,128.146136 C89.6188055,129.445123 84.2105462,133.22793 83.4946014,133.22793 C83.3478426,133.22793 83.3974232,133.070477 83.7206892,132.701447 C85.6245869,130.527612 90.086847,127.83123 89.0952337,127.132533 C88.5369553,126.73398 88.4219282,125.622953 87.4541135,125.622953 C86.7034622,125.622953 85.4391552,126.291143 83.0563082,128.479739 C78.5563668,132.605007 70.8495477,135.335831 69.8232278,135.336816" id="Fill-63" fill="#DFC4A2"></path>
                <path d="M84.877902,120.605124 C84.877902,120.605124 86.1937729,118.985327 87.2300089,119.466542 C88.2652533,119.948742 94.9586435,123.885066 95.041939,125.361187 C95.1242429,126.837308 94.0047114,127.346078 92.3744991,127.050854 C90.7442867,126.75563 83.8862886,122.327265 84.877902,120.605124" id="Fill-64" fill="#38A852"></path>
                <path d="M87.6117801,170.965466 C81.6095443,170.965466 75.4536086,170.253976 67.9342044,168.493455 C64.7312932,167.745553 62.3117566,166.239909 60.5268525,164.30127 C66.0094828,165.181038 70.4648017,165.578607 74.2507815,165.578607 C85.9944587,165.578607 91.2946321,161.755453 100.82602,156.664802 C116.364601,148.359159 105.10979,133.499536 105.10979,133.499536 C111.317289,137.239044 117.286802,145.879275 117.852021,153.573804 C117.88177,153.988102 117.896645,154.395511 117.896645,154.796032 C117.897636,157.87719 117.017083,160.56373 115.371996,162.79661 C112.573663,166.596147 107.561058,169.081935 100.905349,169.969576 C96.2497241,170.590531 91.9709124,170.965466 87.6117801,170.965466" id="Fill-65" fill="#DFC4A2"></path>
                <path d="M86.6866048,146.06133 C85.7128405,145.722806 85.0306105,145.300635 84.6399148,144.786945 C84.2502107,144.276207 84.0707287,143.655252 84.103452,142.92408 C84.1371668,142.185035 84.4068857,141.557191 84.9185582,141.034644 C85.4272558,140.517018 86.1025445,140.211953 86.9513656,140.122401 L86.6866048,146.06133 Z M90.1215535,149.850041 C90.4894421,150.341098 90.6560331,150.97583 90.620335,151.755222 C90.5776956,152.668449 90.2712871,153.422255 89.6951597,154.020576 C89.1180408,154.613977 88.407054,154.945612 87.5582329,155.011546 L87.8527421,148.478232 C88.9960723,148.903355 89.7546566,149.359969 90.1215535,149.850041 Z M92.8078341,142.901446 C92.6779328,141.533573 92.1563441,140.438291 91.2470347,139.617568 C90.5380311,138.974963 89.5563339,138.564601 88.3029346,138.390419 L88.3485488,137.363038 L87.0773005,137.305961 L87.0306946,138.333342 C85.5878972,138.412068 84.4901812,138.756497 83.7355634,139.358754 C82.6021493,140.255252 82.0032149,141.469608 81.9347935,142.996902 C81.895129,143.854036 82.0498207,144.63146 82.3889525,145.321301 C82.7320507,146.014094 83.2387651,146.567147 83.9100874,146.979477 C84.8184052,147.535483 85.7118488,147.916322 86.5933931,148.122979 L86.2869846,154.955453 C85.44213,154.831459 84.7301516,154.373861 84.1579907,153.584628 C83.7563873,153.024686 83.4985678,152.165584 83.382549,151.005352 L81.1891003,151.315338 C81.2178571,152.429317 81.4627856,153.385844 81.9219026,154.178029 C82.3780447,154.970214 82.9392979,155.553774 83.600704,155.929693 C84.2621101,156.305612 85.131755,156.584107 86.2046807,156.769114 L86.1094858,158.916379 L87.3847006,158.972472 L87.4789039,156.801589 C88.9970639,156.796669 90.2554213,156.317421 91.2529844,155.366799 C92.2525306,154.415193 92.7830438,153.194932 92.8474986,151.707986 C92.8792303,151.031922 92.7949431,150.401127 92.5916624,149.809694 C92.3883817,149.219245 92.0829647,148.703587 91.6803697,148.263703 C91.2738082,147.824803 90.7413119,147.441995 90.081889,147.118233 C89.7358159,146.949955 89.0238375,146.708855 87.9449622,146.390997 L88.2236055,140.203096 C88.9217013,140.37531 89.4631222,140.69612 89.8478682,141.164543 C90.2316226,141.630997 90.4686182,142.288363 90.5598466,143.136641 L92.8078341,142.901446 L92.8078341,142.901446 Z" id="Fill-66" fill="#38A852"></path>
            </g>
        </g>
    </g>
</svg>