<?xml version="1.0" encoding="UTF-8"?>
<svg width="100px" height="100px" viewBox="0 0 100 100" version="1.1" xmlns="http://www.w3.org/2000/svg" xmlns:xlink="http://www.w3.org/1999/xlink">
    <title>Effortless Booking</title>
    <g id="Effortless-Booking" stroke="none" stroke-width="1" fill="none" fill-rule="evenodd">
        <path d="M59.1242476,22 C59.699865,22 60.2689414,22.2237049 60.6993463,22.6514914 L60.6993463,22.6514914 L65.8877528,27.8398744 L73.3184509,23.9126112 C73.6468145,23.7386185 74.003959,23.6548927 74.3571788,23.6548927 C74.9341045,23.6548927 75.5031809,23.8785976 75.9309693,24.3063841 C76.6217102,24.9971219 76.7813133,26.0567766 76.324744,26.9188906 L76.324744,26.9188906 L72.3961548,34.3495552 L77.3490814,39.3024594 C78.0515963,40.0049712 78.2020418,41.0881737 77.7193081,41.9568289 C77.3203005,42.6724228 76.5706896,43.0989011 75.7765991,43.0989011 C75.6078386,43.0989011 75.4377698,43.0792779 75.267701,43.0400314 L75.267701,43.0400314 L68.94245,41.5552067 L65.2676558,49.433281 C64.8987373,50.2260597 64.1059551,50.7179487 63.2529946,50.7179487 C63.1378712,50.7179487 63.0227477,50.7087912 62.9063159,50.6904762 C61.926458,50.5361068 61.1676896,49.7524856 61.0447167,48.7687075 L61.0447167,48.7687075 L60.16,41.69 L25.2334612,76.6166928 C24.978358,76.8717949 24.6434533,77 24.3085486,77 C23.9736439,77 23.6387392,76.8717949 23.383636,76.6166928 C22.8721213,76.1051805 22.8721213,75.2783883 23.383636,74.766876 L58.129,40.021 L51.4646106,39.1886447 C50.5399289,39.0729061 49.7913908,38.3939739 49.5778277,37.4986804 L49.5441415,37.3283621 C49.3897713,36.3498168 49.9025942,35.385662 50.8000341,34.967033 L50.8000341,34.967033 L58.6441303,31.3053375 L56.970915,24.7760335 C56.7223529,23.8053375 57.154066,22.7875458 58.0240333,22.2917321 C58.3680955,22.0954997 58.7474798,22 59.1242476,22 Z M59.1242476,24.2239665 L61.252724,32.5416013 L51.7380289,36.9843014 L61.9709376,38.2637363 L63.24907,48.4952904 L67.6878656,38.978022 L75.7726745,40.8749346 L69.6580472,34.7603349 L74.3545624,25.8788592 L65.4730465,30.5727368 L59.1242476,24.2239665 Z" id="flying-star" stroke="#892680" stroke-width="0.4" fill="#892680" fill-rule="nonzero"></path>
    </g>
</svg>