<?xml version="1.0" encoding="UTF-8"?>
<svg width="100px" height="100px" viewBox="0 0 100 100" version="1.1" xmlns="http://www.w3.org/2000/svg" xmlns:xlink="http://www.w3.org/1999/xlink">
    <title>Elevate Your Experience</title>
    <g id="Elevate-Your-Experience" stroke="none" stroke-width="1" fill="none" fill-rule="evenodd">
        <path d="M84.5140166,25.301703 C87.4342855,25.2736625 89.9377601,25.6313755 91.9160258,26.4783635 C93.5245996,27.1670903 94.8072004,27.9944969 95.575171,28.8585188 C95.6889804,28.9865624 95.7778598,29.1347463 95.8372329,29.2954404 C97.3971616,33.5174074 95.8455453,39.0040637 91.0893185,40.2959004 L91.0893185,40.2959004 L67.894,46.398 L51.3125838,70.1021263 L51.2391203,70.1978961 C47.0852796,75.1470509 43.6701977,77.3841182 40.808381,77.3750833 C38.6716377,77.3681441 37.2842594,76.2164537 36.5155256,74.7552089 L36.5155256,74.7552089 L36.4327068,74.5842701 L36.3781979,74.4398265 C36.2856329,74.1474859 36.291749,73.8368334 36.3959239,73.5512163 L36.3959239,73.5512163 L44.164,52.252 L40.4476692,53.1560684 L39.3694799,53.3733472 L38.2724745,53.5774146 C37.1125555,53.7859807 35.8416324,53.9926677 34.4811026,54.1873616 C29.2045174,54.9424489 23.8783782,55.342522 18.8902331,55.1980008 C14.4208678,55.06851 10.4582218,54.5018267 7.12978195,53.4197346 C6.69675697,53.2789561 6.36150723,52.9329377 6.23448503,52.4956797 L6.23448503,52.4956797 L5.55155778,50.1447882 C5.33632382,49.4038723 5.77271986,48.6309233 6.5183066,48.4324732 L6.5183066,48.4324732 L13.14,46.669 L3.9499194,35.7979375 C3.49107504,35.2551409 3.52528604,34.4601757 4.00747604,33.9585277 L4.00747604,33.9585277 L4.10987374,33.8622706 L5.15857594,32.9715464 C5.54529998,32.643079 6.08148747,32.5542813 6.5534552,32.7405413 L6.5534552,32.7405413 L23.498,39.428 L73.6191693,26.7736984 L74.3989359,26.5861663 L75.0671015,26.4382254 C75.7082554,26.3008118 76.4009851,26.1650329 77.1343461,26.0366357 C79.6458912,25.596913 82.1546847,25.3243574 84.5140166,25.301703 Z M84.9900022,28.0506697 L84.540421,28.0515762 C82.3492665,28.0726158 79.9835206,28.3296307 77.6086037,28.7454324 C76.736553,28.8981115 75.9255713,29.0616266 75.1979426,29.2248321 C74.9506825,29.280292 74.7448996,29.3284039 74.5847139,29.3670808 L74.5847139,29.3670808 L23.7424759,42.2026454 C23.463275,42.2731368 23.1689888,42.2541918 22.901131,42.1484829 L22.901131,42.1484829 L7.922,36.237 L16.6420833,46.5525638 C17.2651313,47.2896075 16.95117,48.407078 16.0693951,48.7299749 L16.0693951,48.7299749 L15.9456683,48.7689709 L8.584,50.727 L8.668,51.015 L9.02066789,51.1178855 C11.6828088,51.8591709 14.7949312,52.2849111 18.2700396,52.4249475 L18.2700396,52.4249475 L18.9698753,52.4491542 C23.7812491,52.5885539 28.9581352,52.199692 34.0915419,51.4650937 C35.1970753,51.3068902 36.2413287,51.1406658 37.2116863,50.9722458 L37.2116863,50.9722458 L38.339838,50.7694606 C38.5175066,50.736389 38.6869284,50.7042851 38.8478275,50.673277 L38.8478275,50.673277 L39.8581568,50.4702697 L46.0116342,48.972545 C47.0790328,48.7125925 48.005189,49.7475596 47.6287488,50.7796487 L47.6287488,50.7796487 L39.205,73.873 L39.28417,73.9666383 C39.6020918,74.3211262 40.0456698,74.5733802 40.6357344,74.6179513 L40.6357344,74.6179513 L40.8171692,74.6250158 C42.6807517,74.6309422 45.4516131,72.8158748 49.1327091,68.4299787 L49.098,68.47 L65.9302008,44.4097229 C66.0901767,44.1810469 66.3152588,44.0073896 66.5745908,43.9102633 L66.5745908,43.9102633 L66.706968,43.8681774 L90.3789993,37.6392431 C92.9107238,36.9515787 94.0321596,34.0222214 93.5596516,31.366343 L85.2072847,33.4908717 C84.4713421,33.6781257 83.7229435,33.2333257 83.5356895,32.4973831 C83.3594505,31.8047313 83.7430932,31.1010457 84.4023976,30.864541 L84.5291781,30.825788 L91.1409715,29.1425382 L91.1004788,29.1237888 L90.8336408,29.0063949 C89.4482146,28.4132292 87.6110177,28.1042234 85.4306246,28.0566956 L85.4306246,28.0566956 L84.9900022,28.0506697 Z M55.5910654,25.7602363 C56.3125381,25.997202 56.7053085,26.7741697 56.4683429,27.4956424 C56.2313772,28.217115 55.4544094,28.6098855 54.7329367,28.3729198 C47.9399898,26.1417951 41.1730483,24.9651052 35.2989354,25.4795998 L34.958,25.512 L41.7362015,29.4385277 C42.352261,29.7953392 42.5877916,30.557016 42.3012225,31.1922903 L42.2369055,31.3175023 C41.8800939,31.9335618 41.1184172,32.1690924 40.4831429,31.8825233 L40.3579308,31.8182063 L30.2908317,25.9875079 C29.2213216,25.3680652 29.4484996,23.7619112 30.6478498,23.4633811 C37.9448223,21.6470926 46.7502945,22.8565094 55.5910654,25.7602363 Z" id="flight" fill="#892680" fill-rule="nonzero"></path>
    </g>
</svg>