<?xml version="1.0" encoding="UTF-8"?>
<svg width="34px" height="34px" viewBox="0 0 34 34" version="1.1" xmlns="http://www.w3.org/2000/svg" xmlns:xlink="http://www.w3.org/1999/xlink">
    <title>Feedback</title>
    <g id="Feedback" stroke="none" stroke-width="1" fill="none" fill-rule="evenodd">
        <path d="M25.9407332,5 C27.629538,5.00202361 28.9981122,6.46648858 29,8.27361793 L29,8.27361793 L29,20.3004821 C28.9981122,22.1076115 27.629538,23.5720764 25.9407332,23.5741 L25.9407332,23.5741 L18.1873858,23.5741 L13.258095,28.8492587 C13.1206171,28.9964199 12.9138258,29.0404583 12.7341691,28.9608341 C12.5545124,28.8812099 12.4373804,28.6936082 12.4374038,28.4855269 L12.4374038,28.4855269 L12.4374038,23.5741 L7.05927284,23.5741 C5.37046567,23.57208 4.0018878,22.107614 4,20.3004821 L4,20.3004821 L4,8.27361793 C4.0018878,6.46648607 5.37046567,5.00202006 7.05927284,5 L7.05927284,5 Z M25.9407332,6.02890776 L7.05927284,6.02890776 C5.90125746,6.0302793 4.9628202,7.03446729 4.96153846,8.27361793 L4.96153846,8.27361793 L4.96153846,20.3004821 C4.9628202,21.5396328 5.90125746,22.5438207 7.05927284,22.5451923 L7.05927284,22.5451923 L12.9181731,22.5451923 C13.0456913,22.5451565 13.1679963,22.5993462 13.2581652,22.6958328 C13.3483342,22.7923194 13.3989758,22.9231935 13.3989423,23.0596462 L13.3989423,23.0596462 L13.3989423,27.2436031 L17.6484014,22.695908 C17.7385511,22.5994312 17.8608193,22.5452186 17.9883173,22.5451923 L17.9883173,22.5451923 L25.9407332,22.5451923 C27.0987462,22.5438172 28.0371798,21.5396302 28.0384615,20.3004821 L28.0384615,20.3004821 L28.0384615,8.27361793 C28.0371798,7.0344698 27.0987462,6.03028284 25.9407332,6.02890776 L25.9407332,6.02890776 Z M16.4954237,8.24951523 C16.6784481,8.24951523 16.8455922,8.36073241 16.9265445,8.53638168 L16.9265445,8.53638168 L18.3857512,11.7004724 L21.6490144,12.2078847 C21.8301012,12.2359293 21.9805965,12.3715722 22.0372007,12.5577612 C22.0938049,12.7439501 22.0466971,12.9483804 21.9156911,13.0850671 L21.9156911,13.0850671 L19.5543329,15.5483173 L20.111869,19.0264049 C20.1426911,19.2193931 20.0684838,19.4143757 19.920432,19.5294137 C19.7723801,19.6444517 19.5761438,19.659607 19.4141887,19.5685107 L19.4141887,19.5685107 L16.4953185,17.9266826 L13.5764483,19.5685107 C13.4144933,19.659607 13.2182569,19.6444517 13.070205,19.5294137 C12.9221532,19.4143757 12.847946,19.2193931 12.878768,19.0264049 L12.878768,19.0264049 L13.4362981,15.5483173 L11.0746695,13.0850671 C10.9436587,12.9483823 10.8965478,12.7439497 10.9531527,12.5577586 C11.0097575,12.3715676 11.1602566,12.2359247 11.3413462,12.2078847 L11.3413462,12.2078847 L14.6046214,11.7004724 L16.0643029,8.53638168 C16.1452551,8.36073241 16.3123992,8.24951523 16.4954237,8.24951523 Z M16.4953065,9.92650037 L15.3548858,12.3982905 C15.2849019,12.5501519 15.1495071,12.6553839 14.9929026,12.6796325 L14.9929026,12.6796325 L12.4435096,13.0760256 L14.2884135,15.0007069 C14.4015646,15.1189233 14.4532484,15.2890616 14.4266827,15.4558764 L14.4266827,15.4558764 L13.99122,18.1728552 L16.2715865,16.8902188 C16.4115068,16.8108385 16.5791002,16.8108385 16.7190204,16.8902188 L16.7190204,16.8902188 L18.999405,18.1728552 L18.5637079,15.4558957 C18.5371422,15.2890809 18.588826,15.1189426 18.7019772,15.0007262 L18.7019772,15.0007262 L20.546863,13.0760256 L17.997476,12.6796325 C17.8408088,12.6553931 17.7053372,12.5501711 17.6352524,12.3982905 L17.6352524,12.3982905 L16.4953065,9.92650037 Z" id="Combined-Shape" stroke="#FFFFFF" stroke-width="0.98" fill="#FFFFFF" fill-rule="nonzero"></path>
    </g>
</svg>