<?xml version="1.0" encoding="UTF-8"?>
<svg width="70px" height="70px" viewBox="0 0 70 70" version="1.1" xmlns="http://www.w3.org/2000/svg" xmlns:xlink="http://www.w3.org/1999/xlink">
    <title>Group 49</title>
    <defs>
        <linearGradient x1="50%" y1="110.08259%" x2="50%" y2="1.11022302e-14%" id="linearGradient-1">
            <stop stop-color="#3A1C71" offset="0%"></stop>
            <stop stop-color="#D76D77" offset="49.1501267%"></stop>
            <stop stop-color="#FFAF7B" offset="100%"></stop>
        </linearGradient>
    </defs>
    <g id="Page-1" stroke="none" stroke-width="1" fill="none" fill-rule="evenodd">
        <g id="1-Home" transform="translate(-263.000000, -4419.000000)">
            <g id="Group-67" transform="translate(263.000000, 4194.000000)">
                <g id="Group-64" transform="translate(0.000000, 220.500000)">
                    <g id="Group-49" transform="translate(0.000000, 4.500000)">
                        <rect id="Rectangle" fill="url(#linearGradient-1)" x="0" y="0" width="70" height="70" rx="12"></rect>
                        <g id="351977_airport_local_icon" transform="translate(12.000000, 10.000000)">
                            <path d="M41.125,31.3333333 L41.125,27.4166667 L25.4583333,17.625 L25.4583333,6.85416667 C25.4583333,5.22875 24.14625,3.91666667 22.5208333,3.91666667 C20.8954167,3.91666667 19.5833333,5.22875 19.5833333,6.85416667 L19.5833333,17.625 L3.91666667,27.4166667 L3.91666667,31.3333333 L19.5833333,26.4375 L19.5833333,37.2083333 L15.6666667,40.1458333 L15.6666667,43.0833333 L22.5208333,41.125 L29.375,43.0833333 L29.375,40.1458333 L25.4583333,37.2083333 L25.4583333,26.4375 L41.125,31.3333333 Z" id="Path" fill="#FFFFFF" fill-rule="nonzero"></path>
                            <polygon id="Path" points="0 0 47 0 47 47 0 47"></polygon>
                        </g>
                    </g>
                </g>
            </g>
        </g>
    </g>
</svg>