<?xml version="1.0" encoding="UTF-8"?>
<svg width="50px" height="50px" viewBox="0 0 50 50" version="1.1" xmlns="http://www.w3.org/2000/svg" xmlns:xlink="http://www.w3.org/1999/xlink">
    <title>happy customer</title>
    <g id="happy-customer" stroke="none" stroke-width="1" fill="none" fill-rule="evenodd">
        <g id="1814076_approve_like_thumb_icon" transform="translate(3.000000, 5.000000)" fill="#FFFFFF" fill-rule="nonzero" stroke="#1B4959" stroke-width="0.5">
            <path d="M25.53125,0 C27.4125,0 29.5625,1.6 29.5625,9.33333333 C29.5625,11.2888889 29.2041667,13.6 28.5770833,16 L28.5770833,16 L37.625,16 C40.7604167,16 43,17.5111111 43,20.3555556 C43,21.6 42.19375,22.8444444 41.0291667,23.7333333 C41.5666667,24.3555556 41.925,25.2444444 41.925,25.9555556 C41.925,27.3777778 40.85,28.5333333 39.8645833,29.2444444 C40.1333333,29.7777778 40.3125,30.4888889 40.3125,31.2888889 C40.3125,32.8888889 39.2375,34.3111111 37.5354167,34.9333333 C37.625,35.2 37.625,35.5555556 37.625,35.9111111 C37.625,37.7777778 35.6541667,39.9111111 32.9666667,39.9111111 L32.9666667,39.9111111 L20.15625,39.9111111 C18.4541667,39.9111111 16.93125,39.2 15.4979167,38.4888889 C14.8140409,38.1235027 14.0992735,37.7887686 13.4261761,37.5746856 C13.3102899,38.9662351 12.1904282,40 10.75,40 L2.6875,40 C1.16458333,40 0,38.8444444 0,37.3333333 L0,18.6666667 C0,17.1555556 1.16458333,16 2.6875,16 L10.75,16 C11.8370954,16 12.7416037,16.5888083 13.1702705,17.4754438 C15.8885331,15.3024243 18.8926616,12.3473467 20.15625,8.97777778 L20.15625,8.97777778 L21.5,1.77777778 C21.5895833,1.42222222 21.76875,1.06666667 22.1270833,0.888888889 C23.38125,0.0888888889 24.2770833,0 25.53125,0 Z M10.75,18.6666667 L2.6875,18.6666667 L2.6875,37.3333333 L10.75,37.3333333 L10.75,18.6666667 Z M25.6208333,2.66666667 C24.9041667,2.66666667 24.5458333,2.66666667 24.0979167,2.84444444 L24.0979167,2.84444444 L22.84375,9.51111111 C22.7541667,9.51111111 22.7541667,9.6 22.7541667,9.68888889 C21.0520833,14.3111111 16.7520833,18.1333333 13.4375,20.6222222 L13.4375,20.6222222 L13.4375,34.7555556 C14.6020833,35.0222222 15.6770833,35.5555556 16.7520833,36.0888889 C17.9166667,36.7111111 19.1708333,37.2444444 20.15625,37.2444444 L20.15625,37.2444444 L32.9666667,37.2444444 C34.0416667,37.2444444 34.9375,36.7111111 34.9375,35.9111111 C34.9375,34.4888889 34.4895833,34.1333333 34.8479167,33.5111111 C35.20625,32.9777778 37.2666667,32.8888889 37.5354167,31.5555556 L37.5354167,31.5555556 L37.5354167,31.2888889 C37.5354167,29.6888889 36.55,29.3333333 36.9083333,28.3555556 C37.1770833,27.5555556 39.2375,27.5555556 39.2375,25.8666667 C39.2375,24.2666667 37.89375,23.9111111 38.1625,23.0222222 C38.43125,22.2222222 40.2229167,22.0444444 40.2229167,20.3555556 C40.2229167,19.2888889 38.96875,18.6666667 37.625,18.6666667 L37.625,18.6666667 L25.53125,18.6666667 C24.8145833,18.6666667 24.1875,18.0444444 24.1875,17.3333333 C24.1875,16.6222222 24.8145833,16 25.53125,16 L25.53125,16 L25.8895833,16 C26.60625,13.5111111 26.9645833,11.2888889 26.9645833,9.33333333 C26.9645833,4.26666667 25.8895833,2.66666667 25.6208333,2.66666667 Z" id="Combined-Shape"></path>
        </g>
    </g>
</svg>