<svg width="480" height="135" viewBox="0 0 480 135" fill="none" xmlns="http://www.w3.org/2000/svg">
<g opacity="0.625978">
<path fill-rule="evenodd" clip-rule="evenodd" d="M39.973 81.3023C39.2607 85.2499 35.5205 87.8638 31.6213 87.1285C27.7221 86.3933 25.1598 82.591 25.8959 78.648C26.6296 74.7184 30.3641 72.1348 34.2396 72.8654C38.1151 73.5961 40.683 77.3681 39.973 81.3023ZM40.2242 43.396L15.8395 71.9079C13.6334 74.4873 12.9468 78.0579 14.0448 81.277L26.5555 117.957C27.6883 121.278 30.4644 123.72 33.8352 124.356L456.146 114.658C461.853 114.589 465.243 112.191 465.235 107.05L465.142 44.2941C465.135 39.4441 461.193 34.7859 456.337 33.8712L48.9385 40.3422C45.6866 39.7292 42.3662 40.8916 40.2242 43.396Z" fill="#DDAC55" fill-opacity="0.6364"/>
</g>
<g opacity="0.719026">
<mask id="mask0_224_7" style="mask-type:alpha" maskUnits="userSpaceOnUse" x="13" y="37" width="464" height="88">
<path d="M468.695 37.8144C473.641 38.7645 476.897 43.5058 476.031 48.448L476.003 48.5978L463.94 111.391C462.99 116.336 458.249 119.592 453.307 118.726L453.157 118.698L32.6723 124.231C29.4723 123.616 26.8378 121.358 25.7396 118.295L25.7068 118.202L13.6195 83.3249C12.553 80.2478 13.1913 76.8389 15.2925 74.3571L15.3566 74.2822L39.5067 46.3665C41.6386 43.9022 44.9118 42.7494 48.1134 43.3292L48.2104 43.3473L468.695 37.8144ZM25.1826 80.858C24.4534 84.6538 26.9394 88.3221 30.7352 89.0513C34.531 89.7804 38.1991 87.2944 38.9283 83.4986C39.6575 79.7028 37.1716 76.0347 33.3758 75.3055C29.58 74.5763 25.9118 77.0623 25.1826 80.858Z" fill="white"/>
</mask>
<g mask="url(#mask0_224_7)">
<path fill-rule="evenodd" clip-rule="evenodd" d="M41.6701 76.3929C41.4842 80.4659 38.0317 83.6172 33.9586 83.4313C29.8855 83.2454 26.7342 79.7929 26.9201 75.7197C27.106 71.6466 30.5586 68.4954 34.6317 68.6813C38.7049 68.8672 41.856 72.3197 41.6701 76.3929ZM36.6455 37.5414L15.6656 70.3444C13.7959 73.2677 13.6271 76.9662 15.2228 80.0477L33.1278 114.625C34.7244 117.708 37.8448 119.705 41.3133 119.864L455.086 105.765C460.446 106.01 464.99 101.862 465.235 96.5015L461.475 29.121C461.719 23.7603 457.572 19.2162 452.211 18.9715L45.2741 33.0702C41.8056 32.9119 38.5163 34.6164 36.6455 37.5414Z" fill="#DDAC55" fill-opacity="0.6364"/>
</g>
</g>
<path fill-rule="evenodd" clip-rule="evenodd" d="M39.1907 71.95C39.3776 76.1916 36.0905 79.7815 31.8489 79.9684C27.6073 80.1552 24.0174 76.8681 23.8306 72.6265C23.6438 68.385 26.9309 64.795 31.1725 64.6082C35.414 64.4214 39.0039 67.7084 39.1907 71.95ZM30.3591 32.125L11.6575 68.1005C9.99081 71.3065 10.1605 75.158 12.1025 78.2052L33.8943 112.397C35.8374 115.446 39.2597 117.226 42.8716 117.067L469.842 97.1186C475.425 96.8728 479.751 92.1479 479.505 86.5654L476.415 16.3979C476.169 10.8154 471.444 6.4892 465.862 6.735L38.8912 26.6838C35.2792 26.8429 32.0267 28.9171 30.3591 32.125Z" fill="#703994"/>
<mask id="mask1_224_7" style="mask-type:alpha" maskUnits="userSpaceOnUse" x="10" y="23" width="110" height="95">
<path d="M116.309 33.2345L116.317 33.4016L119.408 103.569C119.651 109.096 115.413 113.781 109.912 114.113L109.745 114.122L42.8716 117.067C39.2958 117.224 35.9059 115.481 33.953 112.488L33.8943 112.397L12.1025 78.2052C10.1799 75.1885 9.99438 71.3834 11.6081 68.1969L11.6575 68.1005L30.3591 32.125C32.01 28.9492 35.2143 26.8845 38.783 26.6891L38.8912 26.6838L105.764 23.7387C111.291 23.4953 115.978 27.7329 116.309 33.2345ZM31.1725 64.6082C26.9309 64.795 23.6438 68.385 23.8306 72.6265C24.0174 76.8681 27.6073 80.1552 31.8489 79.9684C36.0905 79.7815 39.3776 76.1916 39.1907 71.95" fill="white"/>
</mask>
<g mask="url(#mask1_224_7)">
<path fill-rule="evenodd" clip-rule="evenodd" d="M9.5374 71.2407C7.637 72.7713 6.1499 74.7557 5.2177 77.0145C4.2445 79.3728 3.9091 81.9456 4.2455 84.4744C4.5818 87.0034 5.5779 89.3992 7.1335 91.4212C7.9168 92.4393 8.8284 93.3442 9.8413 94.1164C10.1544 92.7587 10.7141 91.4451 11.4881 90.2282C11.077 89.8421 10.6958 89.4226 10.3493 88.9724C9.2206 87.5054 8.4979 85.7671 8.254 83.9322C8.01 82.0975 8.2532 80.2308 8.9593 78.5197C9.3788 77.5032 10.3141 75.6952 12.2765 74.1851C13.7435 73.0563 15.4818 72.3336 17.3166 72.0896C19.1514 71.8456 21.0181 72.089 22.7292 72.795C25.8122 74.0674 27.6462 76.6642 28.4479 78.0957C29.9052 78.6838 31.4192 78.8506 32.9796 78.4714L32.7255 77.7536C32.501 77.1166 29.8971 71.4769 24.1964 69.1242C21.8382 68.151 19.2653 67.8157 16.7363 68.152C15.1716 68.3601 12.321 68.9989 9.5374 71.2407Z" fill="#552376"/>
</g>
<path fill-rule="evenodd" clip-rule="evenodd" d="M29.4954 78.9206C29.6084 78.2472 30.0634 71.9836 26.1703 67.1134C24.5599 65.0987 22.4475 63.5435 20.0455 62.604C18.5592 62.0227 15.7246 61.1935 12.1652 61.8154C9.735 62.2399 7.4486 63.2682 5.5189 64.8107C3.5042 66.4212 1.9489 68.5336 1.0095 70.9355C0.0698988 73.3376 -0.220701 75.9446 0.166699 78.4945C0.553999 81.0445 1.6057 83.4476 3.2162 85.4622C4.8267 87.4769 6.939 89.0321 9.3411 89.9716C11.1307 90.6716 13.0341 91.0108 14.9429 90.9784L16.2653 90.9454L14.8874 86.9592C13.5024 86.9827 12.1646 86.7359 10.8662 86.228C9.1235 85.5464 7.5908 84.418 6.4224 82.9563C5.2539 81.4946 4.4908 79.7511 4.2098 77.901C3.9288 76.0509 4.1397 74.1594 4.8213 72.4166C5.503 70.6739 6.6314 69.1413 8.093 67.9729C8.9614 67.2787 10.6733 66.1365 13.1484 65.7603C14.9985 65.4792 16.89 65.6901 18.6327 66.3718C20.3755 67.0534 21.9081 68.1818 23.0765 69.6436C25.182 72.2774 25.5343 75.472 25.5434 77.1309C26.5451 78.364 27.8031 79.2521 29.3692 79.68L29.4954 78.9206Z" fill="#ACAACB"/>
<path fill-rule="evenodd" clip-rule="evenodd" d="M177.894 67.0798C177.894 100.505 150.845 127.601 117.478 127.601C84.1105 127.601 57.0612 100.505 57.0612 67.0798C57.0612 33.655 84.1105 6.55898 117.478 6.55898C150.845 6.55898 177.894 33.655 177.894 67.0798Z" fill="#995DC1"/>
<path fill-rule="evenodd" clip-rule="evenodd" d="M61.3743 66.4418C61.3764 67.4103 61.4894 65.9223 61.4035 67.0755C61.3597 66.9438 61.329 66.755 61.3743 66.4418Z" fill="#995DC1"/>
<path fill-rule="evenodd" clip-rule="evenodd" d="M120.696 123.131C121.47 122.996 122.304 122.895 123.175 122.811C124.043 122.686 124.946 122.573 125.86 122.464C126.769 122.323 127.685 122.16 128.584 121.999C129.476 121.807 130.343 121.576 131.162 121.341C131.547 121.232 131.108 121.544 131.966 121.259C132.356 121.117 132.776 120.973 133.22 120.827C133.664 120.681 134.134 120.543 134.61 120.362C135.563 120.01 136.605 119.7 137.633 119.283C138.152 119.089 138.677 118.892 139.202 118.696C139.718 118.48 140.235 118.263 140.746 118.05C141.779 117.646 142.748 117.163 143.671 116.748L143.475 116.901C144.185 116.596 144.917 115.975 145.634 115.59C145.654 115.614 145.429 115.759 145.614 115.702C145.679 115.61 145.993 115.416 146.324 115.217C146.657 115.022 146.985 114.785 147.114 114.666C147.404 114.524 147.418 114.604 147.791 114.414L148.126 114.071C148.36 113.838 148.654 113.634 148.956 113.396C149.261 113.164 149.597 112.932 149.947 112.695C150.296 112.457 150.663 112.218 151.021 111.958C151.37 111.687 151.717 111.404 152.044 111.105C151.992 111.178 151.866 111.302 151.991 111.234C152.524 110.763 153.108 110.287 153.675 109.748C153.964 109.486 154.259 109.22 154.557 108.95C154.707 108.816 154.857 108.681 155.008 108.546C155.156 108.407 155.3 108.262 155.447 108.12C155.74 107.834 156.034 107.547 156.329 107.259C156.621 106.968 156.929 106.693 157.203 106.386C157.763 105.784 158.323 105.192 158.852 104.603C158.799 104.725 158.767 104.854 158.925 104.747C158.944 104.552 159.562 103.794 160.1 103.138C160.265 103.027 160.498 102.748 160.737 102.375C160.984 102.007 161.271 101.577 161.603 101.205L161.571 101.288C161.749 100.962 161.931 100.759 162.1 100.567C162.266 100.373 162.409 100.182 162.523 99.897L162.868 99.5694C162.918 99.2108 163.559 98.7549 163.83 98.2035L163.792 98.2013C164.067 97.6977 164.296 97.4919 164.56 97.0285L164.603 96.9961C165.252 95.9348 165.665 95.3383 165.545 95.3033C165.851 94.9762 164.984 96.3733 165.453 95.8549C167.442 92.2679 169.225 88.4241 170.507 84.5025C170.705 84.0751 170.817 83.7971 170.894 83.711C170.982 83.3064 171.296 82.2084 171.335 81.8311C171.3 81.9652 171.471 81.592 171.537 81.3831C171.668 81.0293 171.669 80.8175 171.687 80.6012C171.702 80.3841 171.72 80.1589 171.841 79.7641C171.8 80.0915 171.815 80.2105 171.886 80.1136C171.917 79.7593 171.988 79.3542 172.072 78.9357C172.114 78.7263 172.157 78.5133 172.2 78.3016C172.232 78.0879 172.264 77.8754 172.295 77.6696C172.293 77.8008 172.27 78.0005 172.315 77.9778C172.363 77.0608 172.632 76.3485 172.697 75.5518C172.697 75.5518 172.706 75.6283 172.71 75.7041C172.715 75.7801 172.72 75.8561 172.72 75.8561C172.995 74.5986 172.622 75.4587 172.819 74.3674C172.809 74.6346 172.849 74.5454 172.873 74.5967C172.87 74.0738 172.938 73.4006 173.005 72.7281C173.045 72.0532 173.096 71.3799 173.112 70.8655C173.117 70.9273 173.139 70.9118 173.139 70.9118C173.159 70.6321 173.179 70.3488 173.2 70.0625C173.218 69.7759 173.219 69.4837 173.23 69.1892C173.246 68.5997 173.257 67.996 173.243 67.3767C173.28 66.9275 173.441 67.5285 173.384 66.336C173.238 66.3814 173.273 64.318 173.123 65.0241C173.123 64.7703 173.123 64.4799 173.122 64.176C173.106 63.8726 173.089 63.5562 173.073 63.2504C173.037 62.6386 172.995 62.0692 172.945 61.7349C173.035 62.1851 173.087 61.224 173.163 62.0663L173.204 61.4192C173.271 61.5087 173.234 62.0788 173.294 61.8682C173.278 61.4423 173.041 60.2236 173.024 59.8437C172.929 59.459 172.817 59.0937 172.707 58.6685C172.586 58.2449 172.444 57.7648 172.326 57.1421C172.488 57.7194 172.427 56.7795 172.523 57.1738C172.523 57.1738 172.376 56.7507 172.228 56.3274C172.153 56.1168 172.086 55.905 172.022 55.7491C171.959 55.5932 171.917 55.4891 171.917 55.4891C171.815 55.0809 172.01 55.3759 171.836 54.79C171.804 54.8286 171.721 54.5751 171.649 54.4029C171.639 54.3235 171.532 53.899 171.44 53.4677C171.418 53.3598 171.396 53.2514 171.375 53.1485C171.351 53.0463 171.329 52.9489 171.313 52.8616C171.279 52.6868 171.266 52.5518 171.288 52.498C171.292 52.3028 171.505 53.1514 171.428 52.6882C171.214 51.9392 171.157 51.9191 170.942 51.1695L170.956 51.1492C170.893 50.9 170.786 50.5359 170.677 50.3138C170.572 50.0903 170.497 49.9982 170.548 50.2742C170.655 50.6153 170.595 50.1174 170.71 50.6364C170.528 50.3138 170.206 49.4695 169.959 48.7332C170.066 48.9764 170.093 48.9335 170.166 49.0206C169.742 48.0641 169.293 47.0526 168.82 45.9853C168.749 45.9945 169.096 46.342 169.125 46.5159C169.011 46.1595 168.875 45.8045 168.73 45.4546C168.574 45.1094 168.401 44.7727 168.236 44.441C168.072 44.1098 167.911 43.7855 167.768 43.4694C167.696 43.3113 167.629 43.1554 167.568 43.0015C167.503 42.8492 167.437 42.7026 167.383 42.5561C167.487 42.7319 167.345 42.6961 167.356 42.6755C167.036 42.032 167.141 42.0159 166.895 41.6156C166.925 41.5466 166.609 41.099 166.374 40.6786C166.223 40.4766 166.342 40.5529 166.539 40.9237C166.19 40.3493 164.795 38.0523 163.99 36.725C163.97 36.7744 163.368 35.9949 163.153 35.7124L163.308 35.7743C163.164 35.4776 162.611 34.8051 162.639 34.711C162.374 34.4328 162.817 35.0168 163.245 35.5726C163.352 35.7117 163.457 35.8489 163.551 35.9705C163.638 36.0961 163.713 36.2055 163.767 36.2837C163.874 36.4405 163.892 36.4741 163.735 36.2688C163.669 35.9894 162.793 35.1739 163.029 35.2802C162.606 34.7014 162.137 34.1848 161.789 33.5922C161.899 33.7567 162.249 33.974 161.886 33.5221C161.243 32.7285 161.673 33.3202 161.137 32.6875L160.789 32.303C160.699 32.3325 160.236 31.5789 160.393 31.9399C160.384 31.7842 159.396 30.8474 159.58 30.827L159.761 30.8589C159.465 30.5308 159.196 30.3927 158.932 30.1655C158.902 30.1144 158.844 30.0116 158.872 30.0159C158.78 30.0506 158.62 29.8417 158.405 29.6055C158.192 29.3685 157.943 29.0867 157.713 28.9447C157.417 28.5905 157.016 28.1631 156.657 27.7801C156.283 27.4124 155.957 27.0821 155.837 26.8917C155.283 26.4436 154.789 26.0278 154.194 25.4812C154.327 25.5742 154.496 25.7145 154.556 25.7162C154.207 25.3442 154.081 25.2967 153.711 25.0142C153.76 25.0384 153.585 24.8523 153.349 24.6074C153.113 24.3635 152.821 24.0548 152.613 23.8613C152.025 23.466 152.156 23.691 152.064 23.6926C151.664 23.1571 150.442 22.5402 149.866 21.9643C150.079 22.0867 150.756 22.4927 150.303 22.1162C149.876 21.6029 149.173 21.4573 148.364 20.8033C148.364 20.8033 148.398 20.8678 148.431 20.9323C148.465 20.9961 148.496 21.0628 148.496 21.0628C148.158 20.7347 147.166 20.308 147.335 20.2399C147.015 20.0962 146.33 19.5364 146.353 19.7199C145.655 19.2287 144.741 18.7375 143.915 18.259C143.066 17.8235 142.298 17.4131 141.888 17.0591C141.664 16.9598 141.116 16.6897 141.198 16.8072C141.536 17.042 141.735 16.9996 141.847 17.1166C141.65 17.0202 141.591 17.0336 141.561 17.0404C141.096 16.7885 140.717 16.6101 141.225 16.7089C140.705 16.4254 140.401 16.3542 140.061 16.2709C139.891 16.2292 139.712 16.1844 139.491 16.1081C139.271 16.0311 139.01 15.9205 138.664 15.7757C138.75 15.7462 138.652 15.6838 138.24 15.531L137.429 15.319C136.536 14.941 136.963 14.9909 136.976 14.8892C136.854 14.8448 136.725 14.7976 136.597 14.7508C136.467 14.7108 136.337 14.671 136.216 14.6338C135.972 14.5621 135.76 14.5086 135.636 14.5055L135.078 14.1848C135.487 14.4184 134.654 14.1044 134.416 14.0493L134.654 14.1044C134.576 14.0373 134.002 13.8552 133.702 13.7946C133.728 13.8361 133.888 13.8975 134.077 13.9771C134.265 14.0582 134.486 14.1443 134.641 14.2064C134.377 14.1663 133.993 14.0114 133.637 13.973C133.778 13.9119 132.844 13.6756 132.451 13.553C132.002 13.4034 131.915 13.4912 131.783 13.4506C131.785 13.3969 131.043 13.2336 131.416 13.2633C131.575 13.2916 131.758 13.4118 132.026 13.4418C131.735 13.325 131.796 13.2343 131.15 13.1398C130.664 13.0772 131.226 13.3549 130.342 13.0873C130.583 13.1184 130.635 13.0904 130.828 13.099L129.995 12.8544L129.939 12.9326C129.83 12.8841 129.91 12.8949 129.861 12.8714C129.588 12.9103 128.569 12.5882 128.352 12.6752C127.922 12.6078 127.459 12.4529 127.05 12.3694L127.131 12.3761C126.637 12.2416 125.967 12.1327 125.532 12.1526L125.557 12.1361C125.283 12.0941 124.628 12.0252 124.275 12.0329C123.588 11.8777 124.081 11.6698 123.295 11.6823C122.583 11.618 122.168 11.7564 122.448 11.8317C121.815 11.7535 121.135 11.7228 120.468 11.683C119.794 11.6645 119.125 11.6588 118.529 11.5717C118.342 11.6029 118.459 11.6283 118.074 11.6398C117.956 11.6353 117.837 11.6307 117.717 11.6259L117.536 11.6204C117.512 11.6202 117.462 11.6178 117.46 11.619L117.37 11.6213C117.13 11.629 116.889 11.6367 116.647 11.6446C116.164 11.6631 115.68 11.6816 115.209 11.6995C114.973 11.7106 114.74 11.7089 114.512 11.7257C114.284 11.7396 114.061 11.7533 113.844 11.7667C113.409 11.788 112.997 11.7952 112.62 11.7801C113.16 11.7015 112.649 11.6887 112.633 11.6393C112.191 11.7525 112.084 11.5981 111.936 11.7461C111.988 11.8228 111.948 11.8648 112.478 11.8571C111.919 11.9068 111.221 12.0161 110.582 12.0934C109.943 12.1706 109.364 12.2255 109.05 12.2277C109.364 12.2289 109.126 12.2716 108.891 12.3428C108.951 12.2018 108.132 12.3289 107.523 12.4838L107.451 12.5759L107.035 12.5687C106.804 12.6388 106.804 12.7688 106.183 12.8189C106.144 12.7966 106.103 12.7748 105.987 12.7786C105.369 12.9873 104.507 13.2976 103.808 13.3912C103.808 13.3912 103.661 13.3921 103.516 13.407C103.371 13.4187 103.226 13.4305 103.226 13.4305C102.94 13.5247 102.472 13.7293 102.988 13.6164C102.403 13.7504 101.923 13.8608 101.542 13.9481C101.351 13.9903 101.184 14.0248 101.041 14.0493C100.898 14.0764 100.78 14.0996 100.682 14.1059C98.7842 14.9633 96.0001 16.0337 93.8313 17.0581L93.872 16.9756C93.261 17.1922 93.6106 17.2063 93.1923 17.3711C93.353 17.226 92.7017 17.4867 93.1226 17.1941C92.2727 17.5611 92.1089 17.8282 91.5891 18.1245C91.5434 18.2343 91.9954 17.8609 91.9372 18.0002C91.8977 18.036 91.6075 18.1679 91.3176 18.312C91.0259 18.4528 90.7513 18.6358 90.7159 18.7183C90.4932 18.7939 90.6074 18.6296 90.6929 18.526L90.2325 18.8565C89.5659 19.0841 91.4782 17.8592 90.7693 18.0746L90.3254 18.3516C89.8317 18.4955 91.4596 17.54 90.299 18.1602C89.8307 18.496 89.4948 18.884 89.959 18.6759C88.9527 19.2997 89.6162 19.1759 88.5285 19.8242C88.3659 19.8895 88.5751 19.746 88.7981 19.5997C89.025 19.4604 89.2613 19.3117 89.1311 19.3316C88.9896 19.386 88.8555 19.4537 88.7265 19.5278C88.6 19.6062 88.481 19.6947 88.3635 19.7818C88.1291 19.9571 87.9059 20.1339 87.6732 20.2639C88.1935 19.9816 87.8363 20.3504 87.5276 20.574C86.9564 20.8757 87.8207 20.2552 87.0457 20.7385C86.9559 20.8759 86.279 21.37 86.9145 21.0177C86.7157 21.3117 86.1117 21.5206 85.7733 21.902C85.4695 21.9871 86.3968 21.1544 85.5483 21.6933C85.7372 21.6854 84.6229 22.5244 85.1439 22.3409C84.8077 22.5438 84.7254 22.5028 84.921 22.2862C84.4172 22.5493 83.9472 23.2518 83.6779 23.2034L83.5909 23.4058C83.4315 23.4876 83.2189 23.6224 82.9576 23.7555C82.7642 23.9092 82.469 24.1779 82.2257 24.4023C81.9863 24.6314 81.7852 24.8012 81.7504 24.7259C81.6415 24.8425 80.7836 25.5773 81.1849 25.3744C81.7576 24.9662 81.7423 24.7847 82.1326 24.6424C81.6803 24.8746 81.3796 25.3171 81.1018 25.6116L81.0111 25.609C80.8466 25.7865 80.4135 26.1345 80.3512 26.2899C80.4616 26.1359 80.3634 26.1717 80.2155 26.2925L80.0955 26.5365C79.421 27.2454 79.8166 26.5756 79.1459 27.2538L79.6205 26.7005C79.5158 26.8219 79.2206 26.9826 78.9094 27.3203C78.8402 27.5045 78.6716 27.8067 78.6084 27.9587C78.2564 28.3646 78.3719 28.0628 78.0683 28.5049C78.0683 28.5049 78.1691 28.3617 78.2701 28.2185C78.3707 28.0748 78.4739 27.9333 78.4739 27.9333C78.5244 27.8343 78.0508 28.1703 77.5559 28.6931C77.2599 29.0469 76.8594 29.6463 77.3916 29.1551C77.145 29.4163 76.7591 29.7458 76.9101 29.4971C76.3707 30.1094 77.0483 29.4779 76.6099 30.0293C76.38 30.2085 75.7326 30.8333 75.3153 31.1897L75.689 30.539L75.368 30.9086C75.6967 30.3533 75.0902 31.0964 75.2339 30.7455C74.9995 30.988 74.7636 31.3233 74.5752 31.5892C74.9729 31.2803 74.8381 31.5271 74.6583 31.8464C74.4847 32.1713 74.2573 32.5613 74.4136 32.5047C74.02 33.0458 73.8064 33.1441 73.6103 33.2667C73.5122 33.3279 73.4185 33.3953 73.3091 33.5262C73.2007 33.6581 73.0694 33.849 72.9267 34.1786C73.0975 34.0205 72.8204 34.6324 73.2732 33.9196C72.7704 34.582 73.0869 34.4839 72.4601 35.2385C72.8214 34.6043 71.8625 35.7721 72.3849 34.8545C72.3921 34.9454 72.7608 34.4014 72.841 34.2604C72.5877 34.5005 72.739 34.0973 72.2439 34.795C71.9551 35.2308 71.5436 35.8165 71.6798 35.7831C71.7751 35.8232 72.1311 35.1286 72.0219 35.4586C71.4425 36.3182 71.2467 36.3976 71.1583 36.8528C71.4995 36.293 71.6736 36.2134 71.7243 36.2628L71.3511 36.9243L71.374 36.7641C70.6773 37.7635 71.2823 37.1332 70.6328 38.1147C70.6328 38.1147 70.5301 38.2137 70.4273 38.3125C70.3225 38.4104 70.2262 38.514 70.2262 38.514C70.2715 38.2118 71.1923 37.0934 70.9201 37.1694C70.7099 37.4913 70.5902 37.7184 70.4692 37.9381C70.3493 38.1585 70.221 38.3665 70.0253 38.6711C70.0919 38.5233 70.1951 38.3281 70.2708 38.1873C70.113 38.4133 69.7763 38.5322 69.3499 39.5564C69.1162 40.0761 69.3327 39.7192 69.3858 39.7657C68.7777 40.8405 68.6967 41.2151 68.3405 41.9238C68.2945 41.7164 67.6895 43.1679 67.9653 42.3241C68.2224 42.0011 69.0128 40.403 69.1438 39.9732C68.7793 40.285 69.647 39.1421 69.6382 38.8303C69.1404 39.6897 69.0272 39.5695 68.8572 39.6578C68.7125 39.8948 68.617 40.1495 68.549 40.3001C68.5763 40.4488 68.7552 40.1341 68.8533 40.1648C68.7825 40.2843 68.7118 40.403 68.6419 40.5203C68.5761 40.64 68.5169 40.7618 68.4571 40.8803C68.3386 41.1184 68.2282 41.3506 68.1283 41.5703C67.9284 42.0099 67.7706 42.4006 67.6741 42.6933C67.4625 43.0012 67.4278 42.8554 67.6196 42.4599C67.547 42.6081 67.474 42.7575 67.4005 42.9079C67.3325 43.0612 67.2642 43.2149 67.1958 43.3694C67.0571 43.6771 66.9178 43.9867 66.7794 44.2942C66.6374 44.6005 66.4964 44.9046 66.3578 45.2035C66.2122 45.4997 66.1025 45.8045 65.9761 46.0918C66.4205 45.3972 65.4989 47.4067 65.8248 46.9402C66.1037 46.329 66.4186 45.8378 66.3496 46.2082C66.1873 46.5926 66.29 46.1691 66.1947 46.3187C66.0805 46.8461 65.7618 47.0383 65.6979 47.5745C66.0901 46.4386 65.6026 47.2877 65.5672 47.0375C65.3134 47.8731 65.4982 46.9706 65.1817 47.7743C64.9583 48.6176 64.6741 49.6468 64.393 50.568C64.1718 51.1329 63.9615 51.8718 63.7712 52.5983C63.7243 52.7801 63.6776 52.9607 63.6319 53.1379C63.5955 53.3173 63.5598 53.4929 63.5255 53.6622C63.4573 54.0009 63.3939 54.3134 63.3342 54.577C63.1456 55.1147 63.0943 54.7096 62.932 55.3049C62.7725 56.0103 63.2006 54.8144 62.8982 55.8439L62.8935 55.7371C62.8599 56.06 62.4522 57.6532 62.5942 57.9969L62.5017 57.6468C62.4529 57.8417 62.4548 58.0293 62.4421 58.1943C62.3914 58.1948 62.3059 58.4169 62.3308 58.0914C62.2767 58.2502 62.2324 58.4152 62.2022 58.5853C62.1773 58.756 62.1606 58.9311 62.1471 59.1084C62.1201 59.4628 62.106 59.826 62.0629 60.1829L62.2106 59.7358C62.1685 60.3498 62.0993 60.8573 62.0258 61.3602C61.9769 61.8646 61.9252 62.3649 61.8955 62.9581L61.8103 62.9166L61.8093 63.6256C61.7432 63.4488 61.6187 64.0949 61.6896 64.472C61.6896 64.472 61.6793 64.3564 61.6637 64.1832C61.6566 64.01 61.647 63.7791 61.6374 63.5483C61.6182 63.0842 61.5993 62.6204 61.5993 62.6204C61.6903 62.1119 61.6633 63.1871 61.7746 62.871C61.8723 62.6031 61.9288 61.5056 61.861 61.3187C61.8158 61.7387 61.8361 61.7605 61.8424 62.0903C61.7111 62.2191 61.7583 61.579 61.7092 61.2537C61.6891 61.4749 61.6341 61.7874 61.6673 61.8382C61.6312 61.3962 61.6834 60.9592 61.7717 60.238C61.7578 60.7311 61.8811 59.9816 61.8926 60.1701C61.7923 60.1003 61.8467 59.4062 61.9898 58.5188C62.2257 57.9082 62.2063 56.8452 62.4235 55.8244C62.4567 56.2624 62.4486 56.809 62.3818 57.4371C62.5501 56.8056 62.5061 56.7231 62.6746 56.0914C62.6435 55.7633 62.5805 55.521 62.7213 54.6787L62.8106 54.6514C62.9459 53.8915 62.8221 53.8608 63.0752 52.9094C63.3244 52.1028 63.5672 51.2828 63.793 50.5097C64.0408 49.7437 64.2963 49.0323 64.5034 48.4233L64.5948 48.4049C64.6116 48.2214 64.6628 47.9864 64.7371 47.7237C64.8223 47.4654 64.9296 47.1788 65.0426 46.8862C65.2688 46.301 65.5174 45.6918 65.6586 45.2282C66.0252 44.493 66.3783 43.6764 66.6918 42.9501C66.8412 42.5834 67.0234 42.2601 67.1713 41.9718C67.3246 41.6862 67.4656 41.4463 67.592 41.2755C68.8737 38.6852 70.1271 36.4664 71.9202 34.0603L71.7234 34.5405C71.964 34.0524 71.9808 34.2954 72.2707 33.8562C71.8445 34.294 72.5892 33.1849 72.7769 32.8604C73.2272 32.3637 73.6905 31.7588 74.1387 31.1645C74.6068 30.5867 75.0467 30.0082 75.4036 29.5321L75.4946 29.5511C75.5784 29.4251 75.668 29.2995 75.7623 29.1735C75.8598 29.0505 75.9665 28.9313 76.0755 28.8099C76.2938 28.5679 76.5292 28.3252 76.7749 28.0799C77.0227 27.8369 77.2769 27.5872 77.536 27.3332C77.7955 27.0797 78.0805 26.8432 78.3515 26.5873C78.4985 26.4933 78.7456 26.3623 79.0602 26.0496C79.3097 25.7256 79.5044 25.4819 79.7558 25.2303C80.01 24.9808 80.2976 24.6983 80.7221 24.2815C80.8871 24.1407 81.0779 23.9778 81.2816 23.8039C81.3841 23.7178 81.4902 23.6291 81.5977 23.5389C81.7076 23.4514 81.8232 23.3677 81.9372 23.2816C82.3947 22.9398 82.8573 22.6021 83.2189 22.35C85.6977 20.2149 88.5809 18.5012 91.5398 16.8403L91.8007 16.8132C92.1551 16.6029 92.5231 16.3923 92.9007 16.1824C93.2819 15.9803 93.6817 15.7977 94.082 15.6066C94.4847 15.4205 94.8911 15.2327 95.2976 15.0446C95.7054 14.8597 96.1282 14.7103 96.5402 14.5446C96.9542 14.3836 97.3646 14.2239 97.7678 14.067C97.8686 14.0279 97.9689 13.9888 98.0688 13.9502C98.1703 13.9162 98.2713 13.8823 98.3719 13.8485C98.5728 13.7807 98.7713 13.7137 98.9671 13.6475C99.3579 13.5123 99.7376 13.3808 100.103 13.2547C100.284 13.1892 100.463 13.1249 100.637 13.0623C100.813 13.0057 100.985 12.9501 101.152 12.8961L100.938 13.1261C101.798 12.9335 102.855 12.5368 102.609 12.4865C102.825 12.438 103.065 12.3713 103.311 12.2982C103.56 12.2346 103.818 12.1692 104.066 12.1058C104.562 11.9816 105.021 11.8768 105.309 11.8787C106.193 11.6967 106.373 11.5719 107.11 11.4165C107.557 11.3491 107.935 11.2925 108.275 11.2414C108.615 11.1877 108.917 11.1325 109.219 11.1006C109.821 11.0244 110.409 10.9383 111.253 10.8157L110.832 10.8589C110.651 10.9181 110.642 10.9886 111.064 10.9457C111.221 10.9145 111.444 10.8831 111.681 10.8519C111.92 10.8318 112.171 10.8107 112.384 10.7927C112.808 10.7526 113.072 10.7061 112.748 10.6334C113.205 10.6267 113.697 10.5977 114.207 10.5581C114.334 10.5481 114.463 10.5377 114.592 10.5277C114.722 10.5229 114.853 10.5178 114.984 10.5128C115.246 10.502 115.51 10.4907 115.774 10.4797C116.301 10.4574 116.828 10.4363 117.334 10.4277L117.428 10.4255H117.475L117.538 10.4274L117.722 10.4353C117.844 10.442 117.964 10.4488 118.083 10.4552C118.319 10.4703 118.549 10.4895 118.767 10.514C118.62 10.4572 119.063 10.4581 119.248 10.4269C119.644 10.438 120.043 10.4495 120.443 10.4749C120.846 10.5145 121.247 10.5538 121.638 10.5919C122.028 10.6296 122.409 10.6634 122.772 10.6886C122.954 10.6996 123.131 10.7107 123.303 10.7212C123.473 10.737 123.639 10.7498 123.798 10.7586C124.047 10.8169 123.386 10.7975 124.032 10.885C124.416 10.9136 124.047 10.8169 124.523 10.8476C124.846 10.8764 125.17 10.9097 125.493 10.9469C125.817 10.9841 126.141 11.0205 126.46 11.0865C127.1 11.2055 127.736 11.3347 128.365 11.4647C128.521 11.4973 128.678 11.53 128.834 11.5623C128.989 11.5986 129.142 11.6417 129.295 11.6806C129.602 11.7595 129.905 11.8379 130.206 11.9156C130.507 11.9905 130.805 12.0643 131.099 12.1375C131.394 12.2066 131.685 12.2749 131.967 12.3577C136.044 13.3321 140.123 14.9983 143.682 16.8516L143.623 16.8653C143.937 16.989 144.272 17.1375 144.597 17.3267C144.921 17.5174 145.247 17.7246 145.567 17.9254C146.205 18.3295 146.826 18.6924 147.329 18.8996C147.577 19.1028 148.342 19.5707 148.103 19.5067C148.342 19.629 148.616 19.7969 148.914 19.9907C149.214 20.1818 149.516 20.4293 149.842 20.6689C150.166 20.9122 150.501 21.1633 150.84 21.4029C151.01 21.5209 151.18 21.6384 151.347 21.754C151.511 21.8734 151.674 21.9876 151.836 22.0941C151.727 22.0034 151.657 21.9588 151.518 21.8706C152.107 22.3881 152.688 22.8362 153.28 23.2909C153.86 23.7598 154.431 24.2582 155.03 24.8249C154.893 24.7278 154.655 24.5374 154.592 24.5343C154.808 24.771 155.12 24.9871 155.395 25.1907C155.663 25.4027 155.891 25.6071 155.953 25.7949C156.218 26.0457 156.206 25.9062 156.04 25.7555C158.625 28.2698 161.269 31.0868 163.491 34.1292C164.226 35.2612 164.183 35.3382 164.127 35.3409C164.065 35.3471 164.015 35.2581 164.641 36.1148C164.705 36.2811 164.769 36.1815 164.752 36.2268C165.239 36.8912 165.264 37.4153 165.652 37.8424C165.632 37.5803 165.897 38.137 165.965 38.1163C166.342 38.8493 166.549 39.299 166.752 39.701C166.85 39.9034 166.959 40.0878 167.068 40.3003C167.178 40.5124 167.306 40.7424 167.473 41.0208L167.375 40.9621C167.586 41.2801 167.789 41.6202 167.988 41.9673C168.085 42.1416 168.184 42.3169 168.281 42.4918C168.378 42.6674 168.46 42.8501 168.548 43.0271C168.895 43.739 169.233 44.4228 169.588 44.9708C172.878 52.7117 174.425 60.8542 174.175 69.065C174.018 73.1313 173.466 77.1489 172.487 81.0667C171.514 84.9901 170.073 88.8144 168.181 92.4813C167.667 93.3047 167.407 93.7523 167.137 94.2228C166.858 94.6879 166.592 95.1868 166.091 96.1226C166.113 96.0341 166.173 95.9166 166.082 96.0272C166.108 96.1041 165.938 96.4375 165.726 96.7592C165.52 97.0849 165.307 97.4202 165.305 97.5389C163.647 100.096 162 102.384 159.911 104.728C160.226 104.343 160.308 104.085 159.929 104.537L159.589 105.057L159.495 105.109C159.243 105.423 158.979 105.779 159.3 105.508C156.671 108.452 153.694 111.036 150.508 113.266C147.321 115.497 143.927 117.376 140.413 118.956C139.577 119.33 138.537 119.713 137.493 120.14C136.973 120.363 136.432 120.54 135.912 120.727C135.391 120.912 134.886 121.091 134.417 121.257C131.57 122.037 128.823 122.576 126.049 122.983C123.266 123.341 120.462 123.559 117.478 123.646C117.478 123.646 117.673 123.557 118.173 123.45C118.423 123.396 118.749 123.338 119.165 123.285C119.373 123.258 119.603 123.233 119.858 123.21C120.113 123.187 120.392 123.17 120.696 123.131Z" fill="#995DC1"/>
<path fill-rule="evenodd" clip-rule="evenodd" d="M61.3906 65.2771C61.461 65.0711 61.5139 64.3945 61.5874 64.9368C61.5244 65.0025 61.4471 65.3486 61.3906 65.2771Z" fill="#995DC1"/>
<path fill-rule="evenodd" clip-rule="evenodd" d="M65.4695 47.7575C65.4599 47.7287 65.588 47.5287 65.6186 47.4796C65.5435 47.6875 65.5154 47.8976 65.424 48.0523C65.497 47.8393 65.4587 47.8621 65.4695 47.7575Z" fill="#995DC1"/>
<path fill-rule="evenodd" clip-rule="evenodd" d="M67.2803 43.5452C67.3042 43.6337 66.9436 44.5451 66.7128 45.0737L67.2803 43.5452Z" fill="#995DC1"/>
<path fill-rule="evenodd" clip-rule="evenodd" d="M69.4502 39.871C69.6755 39.5772 69.6485 39.6782 69.4014 40.1053C69.3569 40.1214 69.4244 39.9725 69.4502 39.871Z" fill="#995DC1"/>
<path fill-rule="evenodd" clip-rule="evenodd" d="M69.4859 39.5432C69.6607 39.2354 69.778 39.0999 69.8925 38.9678C69.8429 38.9531 69.5115 39.694 69.4859 39.5432Z" fill="#995DC1"/>
<path fill-rule="evenodd" clip-rule="evenodd" d="M74.8527 32.0344C74.9851 31.8569 75.2686 31.4676 75.4511 31.352C75.2629 31.4962 74.8041 32.2167 74.8527 32.0344Z" fill="#995DC1"/>
<path fill-rule="evenodd" clip-rule="evenodd" d="M77.6425 28.7764C77.741 28.6785 77.7874 28.6447 77.8865 28.5173C78.0814 28.3511 77.9263 28.5756 77.7826 28.7346L77.6425 28.7764Z" fill="#995DC1"/>
<path fill-rule="evenodd" clip-rule="evenodd" d="M149.142 21.4712L148.746 21.2247L148.834 21.2168L149.142 21.4712Z" fill="#995DC1"/>
<path fill-rule="evenodd" clip-rule="evenodd" d="M169.71 48.3545C169.893 48.7829 169.762 48.6785 169.778 48.755C169.638 48.3591 169.896 48.879 169.71 48.3545Z" fill="#995DC1"/>
<path fill-rule="evenodd" clip-rule="evenodd" d="M173.224 66.5385L173.219 66.3958L173.339 66.442L173.224 66.5385Z" fill="#995DC1"/>
<path fill-rule="evenodd" clip-rule="evenodd" d="M79.96 11.8379C79.0322 12.514 80.5866 11.665 79.3839 12.3258C79.4617 12.1629 79.6087 11.9818 79.96 11.8379Z" fill="#995DC1"/>
<path fill-rule="evenodd" clip-rule="evenodd" d="M65.1388 108.297C65.8427 108.924 66.5304 109.649 67.2125 110.433C67.9325 111.184 68.6522 111.99 69.3736 112.811C70.1233 113.605 70.8969 114.393 71.6645 115.158C72.4582 115.896 73.2799 116.575 74.0882 117.184C74.2726 117.334 74.1964 117.376 74.1797 117.462C74.161 117.551 74.2082 117.678 74.6485 117.987C75.0663 118.254 75.503 118.552 75.9546 118.874C76.4064 119.196 76.8654 119.553 77.3675 119.887C77.8621 120.232 78.3678 120.596 78.8797 120.974C79.1388 121.16 79.3875 121.365 79.6588 121.543C79.9258 121.727 80.1951 121.913 80.4657 122.1C81.0051 122.475 81.5469 122.861 82.0861 123.25C82.6404 123.618 83.1944 123.985 83.742 124.348C84.8214 125.105 85.9328 125.752 86.9473 126.403L86.648 126.349C87.417 126.859 88.5725 127.042 89.4254 127.495C89.4057 127.554 89.1076 127.442 89.2745 127.614C89.4242 127.582 89.8286 127.749 90.2497 127.93C90.668 128.117 91.1229 128.273 91.337 128.294C91.6612 128.506 91.5697 128.628 91.9966 128.893L92.5887 128.909C92.9936 128.934 93.4006 129.059 93.8392 129.183C94.2752 129.314 94.7259 129.488 95.1911 129.675C95.6568 129.861 96.1344 130.068 96.6291 130.243C97.129 130.402 97.6411 130.542 98.1609 130.633C98.0496 130.651 97.8392 130.627 97.9845 130.721C98.8127 130.892 99.677 131.117 100.589 131.289C101.041 131.387 101.501 131.487 101.967 131.588C102.199 131.64 102.432 131.693 102.667 131.747C102.902 131.795 103.141 131.834 103.379 131.879C103.855 131.967 104.335 132.056 104.815 132.145C105.295 132.229 105.772 132.34 106.256 132.396C107.22 132.527 108.175 132.664 109.106 132.769C108.948 132.829 108.794 132.939 109 133.055C109.215 132.853 110.372 132.919 111.373 132.98C111.48 133.049 111.642 133.082 111.843 133.096C112.043 133.115 112.283 133.103 112.545 133.083C113.07 133.047 113.684 133.004 114.267 133.101L114.164 133.146C114.604 133.051 114.922 133.104 115.223 133.15C115.523 133.192 115.805 133.21 116.16 133.071L116.709 133.257C117.091 132.933 117.967 133.445 118.686 133.27L118.661 133.204C119.335 133.1 119.692 133.248 120.319 133.169L120.38 133.204C121.846 133.083 122.71 133.152 122.655 132.911C123.185 133.068 121.24 133.127 122.069 133.35C126.892 132.751 131.823 131.905 136.497 130.494C137.057 130.436 137.407 130.369 137.555 130.422C138.001 130.214 139.281 129.776 139.656 129.51C139.503 129.569 139.997 129.529 140.247 129.456C140.686 129.362 140.883 129.194 141.095 129.039C141.307 128.882 141.528 128.723 142.001 128.594C141.666 128.801 141.572 128.926 141.728 128.965C142.079 128.718 142.514 128.498 142.973 128.286C143.203 128.182 143.438 128.076 143.671 127.97C143.899 127.855 144.126 127.739 144.342 127.621C144.221 127.724 144.016 127.847 144.081 127.904C144.967 127.248 145.885 127.125 146.679 126.597C146.679 126.597 146.617 126.671 146.553 126.739C146.488 126.809 146.424 126.878 146.424 126.878C146.792 126.764 146.98 126.652 147.092 126.577C147.203 126.498 147.229 126.439 147.248 126.38C147.286 126.264 147.297 126.152 147.901 125.894C147.643 126.082 147.768 126.081 147.745 126.16C148.227 125.755 148.917 125.35 149.611 124.952C150.287 124.526 150.974 124.119 151.474 123.772C151.422 123.826 151.46 123.85 151.46 123.85C151.741 123.674 152.029 123.503 152.323 123.331C152.613 123.155 152.899 122.96 153.192 122.77C153.776 122.387 154.368 121.986 154.947 121.533C155.423 121.286 155.012 121.947 156.12 121.065C155.909 120.858 157.975 119.55 157.11 119.777C157.358 119.609 157.643 119.417 157.941 119.216C158.227 118.999 158.526 118.773 158.815 118.554C159.389 118.112 159.913 117.687 160.19 117.396C159.843 117.823 160.874 117.297 160.115 117.95L160.817 117.605C160.806 117.767 160.185 118.069 160.47 118.031C160.87 117.722 161.865 116.629 162.234 116.368C162.52 115.988 162.765 115.594 163.072 115.166C163.371 114.729 163.715 114.239 164.233 113.698C163.814 114.278 164.744 113.642 164.441 114.017C164.441 114.017 164.712 113.547 164.983 113.077C165.116 112.842 165.256 112.614 165.348 112.432C165.441 112.251 165.503 112.13 165.503 112.13C165.826 111.752 165.744 112.207 166.171 111.62C166.089 111.595 166.265 111.33 166.364 111.126C166.439 111.067 166.772 110.672 167.131 110.294C167.221 110.2 167.313 110.107 167.402 110.02C167.487 109.93 167.57 109.846 167.648 109.774C167.804 109.632 167.941 109.54 168.03 109.544C168.256 109.444 167.562 110.213 167.99 109.851C168.57 109.134 168.521 109.04 169.1 108.322L169.142 108.332C169.348 108.107 169.619 107.749 169.742 107.478C169.87 107.211 169.883 107.057 169.625 107.273C169.364 107.605 169.864 107.256 169.412 107.697C169.549 107.261 170.133 106.367 170.677 105.63C170.529 105.908 170.614 105.923 170.605 106.073C170.742 105.79 170.89 105.511 171.046 105.232C171.125 105.094 171.204 104.954 171.284 104.814C171.361 104.671 171.437 104.527 171.515 104.382C171.827 103.806 172.163 103.225 172.503 102.627C172.4 102.534 172.428 103.19 172.255 103.32C172.539 102.979 172.792 102.608 173.03 102.229C173.254 101.842 173.452 101.439 173.652 101.05C173.851 100.66 174.048 100.281 174.256 99.928C174.361 99.7517 174.468 99.5824 174.58 99.4217C174.689 99.2593 174.795 99.101 174.912 98.9564C174.82 99.1804 174.682 98.9753 174.723 98.9799C175.135 98.2392 175.292 98.3673 175.487 97.8442C175.615 97.849 175.78 97.2108 176.015 96.6927C176.079 96.3951 176.136 96.5872 175.914 97.0307C176.073 96.6661 176.417 95.7293 176.866 94.7025C177.334 93.6836 177.781 92.5173 178.213 91.7045C178.123 91.7061 178.395 90.5681 178.525 90.1702L178.637 90.3884C178.867 90.0639 179.097 89.0561 179.266 89.0412C179.314 88.5815 179.067 89.4118 178.838 90.209C178.78 90.4086 178.724 90.6057 178.674 90.7799C178.615 90.9509 178.564 91.0993 178.527 91.2053C178.452 91.4169 178.429 91.4557 178.506 91.1588C178.571 91.0993 178.627 90.965 178.677 90.8022C178.722 90.6374 178.755 90.4422 178.786 90.2664C178.849 89.914 178.898 89.6349 178.969 89.8001C179.108 89.4005 179.199 88.9906 179.309 88.5937C179.414 88.1946 179.56 87.8157 179.748 87.4528C179.652 87.6662 179.785 88.1884 179.972 87.5293C180.293 86.3644 179.99 87.1745 180.218 86.2207L180.326 85.6141C180.169 85.5273 180.662 84.5924 180.343 84.9663C180.544 84.8682 180.691 83.2548 180.948 83.4483L181.128 83.6688C181.24 83.1581 181.104 82.7811 181.106 82.3631C181.143 82.3009 181.221 82.1796 181.251 82.2134C181.086 82.1314 181.183 81.8361 181.273 81.4706C181.365 81.1056 181.48 80.6758 181.409 80.3462C181.575 79.8258 181.719 79.1492 181.852 78.544C181.961 77.9341 182.07 77.3973 182.217 77.1597C182.234 76.3125 182.252 75.5474 182.409 74.6063C182.422 74.7991 182.405 75.0586 182.474 75.1217C182.638 74.5372 182.562 74.3782 182.563 73.8268C182.583 73.8908 182.665 73.5982 182.767 73.2066C182.868 72.8151 182.997 72.3251 183.068 71.9944C183.011 71.1528 182.807 71.4277 182.697 71.3358C182.891 70.9679 182.869 70.3757 182.844 69.7631C182.834 69.1501 182.753 68.5145 182.92 68.0411C182.965 68.3301 183.078 69.2628 183.171 68.5697C183.517 67.8096 182.943 67.0263 183.096 65.8005C183.096 65.8005 183.027 65.877 182.959 65.9532C182.891 66.0295 182.819 66.1055 182.819 66.1055C182.979 65.5548 182.584 64.3098 182.881 64.424C182.762 64.0184 182.92 62.972 182.647 63.1248C182.698 62.115 182.541 60.8978 182.446 59.7763C182.293 58.6598 182.183 57.6384 182.348 56.9853C182.274 56.7037 182.184 55.9863 182.069 56.1556C182.009 56.6516 182.29 56.7991 182.211 56.9934C182.167 56.7373 182.084 56.6941 182.042 56.6725C181.997 56.0475 181.922 55.5582 182.261 56.1014C182.218 55.3994 182.035 55.0646 181.836 54.6883C181.736 54.4998 181.633 54.3007 181.541 54.0388C181.45 53.7766 181.373 53.4514 181.29 53.0163C181.422 53.0696 181.434 52.929 181.295 52.4278L180.876 51.5176C180.657 50.3937 180.981 50.8187 181.165 50.7436C181.123 50.5956 181.079 50.4392 181.035 50.284C180.982 50.131 180.93 49.979 180.881 49.837C180.778 49.5542 180.674 49.3156 180.564 49.2012L180.593 48.4157C180.575 48.9906 180.338 47.9628 180.213 47.7002L180.338 47.9631C180.383 47.8324 180.151 47.1577 179.998 46.8284C179.952 46.8891 179.985 47.0917 180.023 47.3325C180.06 47.5738 180.117 47.8484 180.155 48.0432C179.983 47.7695 179.881 47.2903 179.639 46.9322C179.867 47.004 179.444 45.946 179.305 45.4795C179.162 44.9372 178.937 44.9411 178.89 44.7859C178.981 44.7374 178.607 43.9203 178.882 44.282C178.975 44.4511 178.933 44.7266 179.118 44.9948C179.063 44.6242 179.257 44.5976 178.865 43.9251C178.562 43.4248 178.565 44.1973 178.273 43.143C178.423 43.3905 178.515 43.4111 178.662 43.5939L178.374 42.6059L178.195 42.6304C178.185 42.4855 178.235 42.5683 178.232 42.5016C178.09 42.3944 177.932 42.0375 177.774 41.6905C177.696 41.5171 177.618 41.3458 177.541 41.2103C177.457 41.0777 177.378 40.9796 177.307 40.9479C177.075 40.4889 176.964 39.9135 176.776 39.4573L176.829 39.5372C176.75 39.2419 176.611 38.9191 176.453 38.6198C176.373 38.4703 176.291 38.3255 176.204 38.1952C176.113 38.0669 176.022 37.9506 175.937 37.8518L175.983 37.858C175.844 37.5613 175.459 36.8855 175.178 36.5681C174.911 35.7731 175.631 36.0086 175.01 35.2965C174.59 34.5633 174.068 34.3206 174.144 34.6643C173.815 33.9886 173.373 33.3192 172.955 32.6537C172.511 31.9917 172.06 31.3348 171.786 30.6656C171.605 30.52 171.645 30.6613 171.36 30.3034C171.285 30.1845 171.209 30.0643 171.134 29.9437L171.017 29.7638L170.988 29.7187L170.973 29.6964L170.971 29.6935L170.971 29.6921C171 29.7362 170.978 29.7036 170.985 29.7129L170.981 29.7077L170.973 29.6969L170.91 29.6115C170.74 29.3853 170.569 29.1575 170.398 28.9296C170.05 28.4775 169.703 28.0247 169.364 27.5834C169.193 27.3634 169.037 27.137 168.868 26.9276C168.699 26.7178 168.537 26.5098 168.384 26.3033C168.078 25.8908 167.808 25.4855 167.596 25.0878C168.058 25.539 167.757 25.0087 167.825 24.9341C167.369 24.622 167.544 24.3309 167.219 24.3575C167.131 24.5009 167.04 24.5107 167.385 25.035C166.948 24.5391 166.366 23.943 165.863 23.3744C165.361 22.8062 164.929 22.2721 164.736 21.9487C164.926 22.2745 164.71 22.0859 164.469 21.9195C164.719 21.8125 164.055 21.0939 163.469 20.6342L163.288 20.6704L163.06 20.2171C162.822 20.0542 162.621 20.2216 162.195 19.6112C162.207 19.5412 162.217 19.4685 162.148 19.3465C161.495 18.9253 160.558 18.3655 160.033 17.7126C160.033 17.7126 159.947 17.5534 159.85 17.4064C159.756 17.2565 159.661 17.1066 159.661 17.1066C159.371 16.9008 158.824 16.6273 159.263 17.0711C158.756 16.5763 158.339 16.17 158.008 15.8479C157.845 15.6843 157.705 15.5382 157.592 15.4056C157.477 15.2756 157.384 15.165 157.324 15.0585C155.1 13.9493 152.199 11.99 149.759 10.5696L149.889 10.513C149.29 10.03 149.451 10.4864 149.027 10.1648C149.296 10.1837 148.631 9.68341 149.224 9.84627C148.319 9.22723 147.89 9.3625 147.245 9.07829C147.08 9.16223 147.79 9.25913 147.581 9.36538C147.515 9.36082 147.198 9.1584 146.866 8.97252C146.535 8.78232 146.172 8.64513 146.048 8.70773C145.841 8.51106 146.106 8.44966 146.28 8.42879L145.632 8.24627C145.008 7.65626 147.52 8.60796 146.892 7.94743L146.317 7.71598C145.884 7.24661 147.92 8.17336 146.546 7.43417C145.882 7.24589 145.224 7.30249 145.722 7.64954C145.076 7.37948 144.873 7.43464 144.663 7.47518C144.558 7.49533 144.451 7.51187 144.287 7.48261C144.123 7.45455 143.904 7.37181 143.559 7.23006C143.398 7.09167 143.679 7.1948 143.972 7.30657C144.262 7.42697 144.569 7.54785 144.477 7.40059C144.337 7.2833 144.184 7.19264 144.025 7.11757C143.864 7.04778 143.695 6.99837 143.529 6.95064C143.195 6.85662 142.865 6.78059 142.588 6.63069C143.197 6.97631 142.564 6.96479 142.135 6.83288C141.476 6.44265 142.673 6.82089 141.688 6.38725C141.475 6.44217 140.529 6.15748 141.283 6.56953C140.823 6.68801 140.27 6.10064 139.643 6.11815C139.385 5.80179 140.851 6.03372 139.774 5.53533C139.881 5.78932 138.312 5.30412 138.8 5.7994C138.387 5.58905 138.391 5.42068 138.748 5.41637C138.17 5.05804 137.116 5.2667 137.03 4.81868L136.752 4.95083C136.574 4.82563 136.307 4.69108 136.015 4.48458C135.737 4.40015 135.271 4.32268 134.888 4.25049C134.502 4.18549 134.204 4.10251 134.27 3.9574C134.08 3.94277 132.795 3.60219 133.24 3.93869C134.005 4.26944 134.2 4.0188 134.568 4.41454C134.066 4.04063 133.409 4.15311 132.932 4.11426L132.885 3.97707C132.599 3.95644 131.975 3.76145 131.773 3.85739C132.001 3.83316 131.908 3.72955 131.695 3.65664L131.363 3.77752C130.221 3.63937 131.166 3.40624 130.057 3.23547L130.921 3.26545C130.731 3.25826 130.391 3.01266 129.851 2.96133C129.614 3.08485 129.194 3.20573 128.996 3.29879C128.365 3.26138 128.751 3.0647 128.11 3.13762C128.11 3.13762 128.319 3.11843 128.528 3.09924C128.632 3.08989 128.737 3.08029 128.816 3.0731C128.895 3.0647 128.946 3.06398 128.946 3.06398C129.08 3.02417 128.453 2.70398 127.614 2.57902C127.069 2.55408 126.21 2.66728 127.035 2.88794C126.618 2.82678 126.046 2.63419 126.394 2.56343C125.438 2.47733 126.496 2.75699 125.665 2.74571C125.344 2.59941 124.315 2.33007 123.696 2.10054L124.588 1.91082L124.014 1.84798C124.782 1.70192 123.652 1.63644 124.098 1.44385C123.705 1.36542 123.218 1.39516 122.831 1.41674C123.393 1.67026 123.058 1.75804 122.624 1.8499C122.19 1.95135 121.657 2.04297 121.812 2.22597C121.026 2.22885 120.793 2.0034 120.545 1.83359C120.421 1.74869 120.294 1.67769 120.094 1.65587C119.893 1.63548 119.62 1.65443 119.204 1.7933C119.47 1.88827 118.692 2.13939 119.684 2.0564C118.708 2.001 119.012 2.39722 117.866 2.24084C118.721 2.10557 116.95 1.87988 118.188 1.68393C118.105 1.79833 118.878 1.77795 119.068 1.74725C118.667 1.60982 119.161 1.39756 118.151 1.3882C117.535 1.41554 116.691 1.41434 116.816 1.5971C116.842 1.79641 117.752 1.58439 117.36 1.78226C116.141 1.82807 115.93 1.57 115.435 1.9336C116.204 1.87532 116.399 2.07295 116.387 2.21038L115.5 2.32815L115.669 2.18928C114.237 2.14946 115.255 2.44567 113.875 2.46342C113.875 2.46342 113.71 2.40442 113.544 2.34542C113.378 2.2833 113.212 2.23389 113.212 2.23389C113.528 1.98349 115.231 2.2526 114.968 1.89259C114.516 1.9029 114.217 1.95735 113.925 2.00148C113.633 2.04681 113.347 2.07199 112.92 2.06888C113.107 2.02091 113.364 1.98565 113.55 1.95111C113.226 1.94536 112.87 1.50477 111.602 1.89619C110.947 2.06456 111.438 2.04177 111.434 2.17944C109.99 2.33102 109.582 2.56103 108.662 2.70206C108.816 2.41113 107.023 2.89921 108.006 2.48884C108.501 2.58262 110.569 2.26531 111.063 2.00028C110.504 1.73022 112.206 1.94536 112.491 1.59758C111.324 1.69208 111.352 1.37597 111.144 1.18889C110.815 1.20304 110.507 1.31697 110.316 1.36542C110.199 1.56928 110.625 1.52899 110.669 1.72422C110.506 1.7319 110.343 1.74221 110.182 1.75444C110.022 1.77051 109.865 1.79569 109.71 1.81872C109.4 1.86693 109.101 1.92209 108.823 1.98229C108.265 2.10269 107.785 2.24276 107.443 2.38403C106.997 2.34853 107.102 2.14035 107.613 2.05185C107.421 2.08399 107.228 2.11636 107.033 2.14874C106.839 2.1876 106.644 2.22669 106.449 2.26603C106.059 2.34374 105.665 2.41737 105.273 2.48716C104.881 2.55336 104.491 2.61932 104.108 2.68407C103.722 2.73876 103.352 2.8335 102.988 2.89921C103.987 2.98484 101.401 3.35276 102.096 3.45613C102.881 3.34196 103.586 3.40408 103.195 3.64201C102.714 3.73579 103.181 3.50386 102.966 3.48611C102.397 3.7979 101.954 3.4439 101.421 3.84923C102.77 3.42399 101.596 3.41368 101.79 3.11483C100.823 3.48707 101.791 2.93423 100.798 3.17048C99.8441 3.57677 98.6683 4.03775 97.594 4.40711C96.8841 4.52943 96.026 4.82491 95.1985 5.14175C94.9921 5.22233 94.7867 5.30244 94.5858 5.38111C94.389 5.47081 94.1965 5.55859 94.0107 5.64326C93.64 5.81307 93.2972 5.96824 93.0024 6.08937C92.3359 6.2232 92.6512 5.79652 91.9569 6.02365C91.1655 6.34792 92.6603 6.06394 91.4387 6.41915L91.5297 6.32201C91.2055 6.53116 89.3418 7.12141 89.1737 7.63659L89.3988 7.2008C89.1716 7.27491 89.003 7.42913 88.8402 7.53994C88.7885 7.45551 88.4995 7.49077 88.821 7.27107C88.6211 7.30729 88.4267 7.36749 88.2402 7.45119C88.0561 7.54042 87.8767 7.64667 87.6984 7.76011C87.3423 7.98676 86.9916 8.241 86.6169 8.44247L87.1836 8.34653C86.5726 8.74611 86.0326 9.01881 85.4918 9.28096C84.9667 9.56805 84.4412 9.84627 83.8531 10.2295L83.7992 10.0588L83.1336 10.5732C83.1763 10.45 83.018 10.4627 82.8099 10.55C82.6007 10.6351 82.345 10.7982 82.2015 10.9841C82.2015 10.9841 82.3009 10.8867 82.4498 10.7409C82.6045 10.603 82.8106 10.4193 83.0168 10.2353C83.4329 9.86545 83.849 9.49538 83.849 9.49538C84.4263 9.27376 83.3846 10.0144 83.8033 9.96691C84.161 9.93189 85.2526 9.22795 85.3558 8.97636C84.9138 9.21044 84.9138 9.25841 84.6104 9.50977C84.3475 9.38553 85.0036 9.0001 85.2555 8.67487C85.0287 8.80871 84.6722 8.94206 84.6605 9.0356C85.0433 8.6588 85.5009 8.40601 86.262 7.99996C85.7903 8.35516 86.614 7.98556 86.4509 8.14914C86.4109 7.92896 87.1122 7.48621 88.0843 7.04418C88.8814 6.94824 89.8336 6.06058 90.9886 5.60272C90.6184 6.01238 90.1097 6.43858 89.4692 6.8312C90.2148 6.60599 90.2461 6.46544 90.9915 6.24143C91.2632 5.92939 91.4169 5.6128 92.3182 5.14151L92.4295 5.2691C93.2483 4.85465 93.1602 4.62512 94.2662 4.24185C95.227 3.95116 96.1936 3.63793 97.1015 3.33741C98.018 3.06327 98.885 2.8311 99.6198 2.62315L99.717 2.76082C99.898 2.6198 100.156 2.49076 100.459 2.373C100.766 2.26891 101.117 2.17537 101.479 2.08519C102.202 1.90506 102.966 1.73981 103.508 1.53307C104.48 1.4213 105.512 1.19585 106.432 0.999416C106.89 0.891487 107.329 0.846396 107.711 0.800106C108.095 0.760292 108.426 0.747821 108.682 0.782358C112.069 0.224483 115.087 -0.10746 118.653 0.0316492L118.05 0.258061C118.69 0.0935287 118.463 0.395731 119.088 0.36719C118.373 0.174596 119.96 0.126147 120.407 0.0323688C121.197 0.170758 122.101 0.210572 122.987 0.225682C123.871 0.271492 124.738 0.272691 125.45 0.265976L125.486 0.430748C125.668 0.41228 125.853 0.402926 126.041 0.401487C126.229 0.404365 126.419 0.422354 126.612 0.44274C126.998 0.485192 127.395 0.552828 127.801 0.632696C128.207 0.712803 128.621 0.805143 129.043 0.897722C129.465 0.989343 129.888 1.11718 130.322 1.21312C130.508 1.31841 130.792 1.52923 131.312 1.61701C131.808 1.59063 132.184 1.59183 132.605 1.64819C133.025 1.71031 133.502 1.78082 134.205 1.88468C134.455 1.94824 134.744 2.0257 135.051 2.11157C135.205 2.15522 135.363 2.20031 135.524 2.24612C135.684 2.29601 135.844 2.35477 136.005 2.41017C136.647 2.6361 137.287 2.87475 137.773 3.07598C138.736 3.2525 139.662 3.56526 140.602 3.85787C141.068 4.01448 141.543 4.15143 142.001 4.33755C142.46 4.52151 142.92 4.70595 143.381 4.89087C143.841 5.07867 144.302 5.26694 144.764 5.45546C145.218 5.66388 145.673 5.87279 146.129 6.08241C146.588 6.28676 147.047 6.49158 147.508 6.69689C147.969 6.90267 148.418 7.13484 148.88 7.34518L149.05 7.64811C149.506 7.83422 149.97 8.03809 150.439 8.25515C150.902 8.48108 151.357 8.74203 151.82 8.99962C152.281 9.26009 152.743 9.52895 153.203 9.80166C153.662 10.0748 154.097 10.3883 154.539 10.6807C154.978 10.9781 155.413 11.2733 155.841 11.5631C155.948 11.6357 156.054 11.7077 156.16 11.7796C156.263 11.8562 156.365 11.9324 156.466 12.0082C156.669 12.1591 156.87 12.3083 157.068 12.4553C157.465 12.7484 157.854 13.0302 158.231 13.2959C158.421 13.4276 158.607 13.5566 158.789 13.6826C158.967 13.813 159.141 13.9404 159.311 14.0646L158.862 14.1114C159.611 14.8525 160.764 15.5608 160.704 15.2173C160.893 15.4037 161.121 15.5936 161.362 15.7841C161.597 15.9822 161.839 16.1868 162.073 16.3839C162.538 16.7804 162.954 17.1608 163.113 17.4829C163.877 18.242 164.179 18.2741 164.846 18.879C165.208 19.2836 165.514 19.6208 165.795 19.9211C166.076 20.2216 166.334 20.4819 166.571 20.7565C167.057 21.2954 167.549 21.8072 168.255 22.5448L167.93 22.1555C167.728 22.0368 167.613 22.1126 167.937 22.5021C168.081 22.6285 168.266 22.8247 168.458 23.0355C168.641 23.2545 168.835 23.4861 168.998 23.6814C169.331 24.0654 169.573 24.2807 169.481 23.8649C169.783 24.3225 170.142 24.7897 170.529 25.2627C170.627 25.3804 170.725 25.4994 170.824 25.6191C170.918 25.7423 171.013 25.8663 171.109 25.9908C171.301 26.2383 171.495 26.4883 171.689 26.7375C172.077 27.2361 172.462 27.7354 172.813 28.2276L172.879 28.3197L172.911 28.3657L172.959 28.4394L173.074 28.6255C173.148 28.7505 173.221 28.8737 173.292 28.9951C173.432 29.24 173.56 29.4817 173.672 29.7197C173.662 29.5146 173.968 29.9425 174.148 30.0866C174.406 30.4797 174.66 30.8774 174.902 31.2897C175.135 31.7183 175.365 32.144 175.59 32.5592C175.817 32.9729 176.041 33.373 176.267 33.7471C176.379 33.9344 176.496 34.1138 176.605 34.2884C176.71 34.4642 176.816 34.6324 176.924 34.7909C177.019 35.0845 176.543 34.447 176.895 35.142C177.143 35.5311 177.019 35.0847 177.335 35.5622C177.536 35.8947 177.73 36.2328 177.917 36.5749C178.105 36.9166 178.291 37.2598 178.443 37.6191C178.761 38.331 179.059 39.0496 179.349 39.7609C179.421 39.9387 179.493 40.1159 179.565 40.2927C179.632 40.4711 179.691 40.6524 179.755 40.8309C179.881 41.1878 180.006 41.542 180.13 41.8924C180.256 42.2419 180.382 42.5863 180.512 42.9247C180.578 43.0933 180.643 43.2607 180.708 43.4272C180.773 43.5934 180.827 43.7625 180.889 43.927C181.117 44.5101 181.341 45.0986 181.563 45.6911C181.673 45.9877 181.782 46.2847 181.893 46.5821C181.991 46.8833 182.082 47.1874 182.176 47.4908C182.359 48.0993 182.543 48.7088 182.727 49.3177L182.862 49.7751L182.976 50.238L183.198 51.1638C183.344 51.7809 183.49 52.3963 183.635 53.0091C183.75 53.6282 183.864 54.2443 183.977 54.8564C184.034 55.1625 184.09 55.4675 184.146 55.7714L184.23 56.2262L184.295 56.6823C184.38 57.2894 184.464 57.8909 184.547 58.486L184.464 58.4418C184.586 58.8311 184.677 59.2611 184.71 59.7096C184.742 60.1581 184.75 60.6218 184.761 61.0739C184.779 61.9788 184.833 62.8355 185.061 63.467C185.003 63.851 185.083 64.9212 184.924 64.6446C184.988 64.9624 185.017 65.3462 185.029 65.771C185.045 66.1957 185 66.6622 184.981 67.1455C184.955 67.629 184.931 68.1296 184.929 68.6256C184.926 68.8733 184.936 69.1204 184.941 69.3631C184.941 69.6056 184.951 69.8444 184.97 70.0771C184.987 69.9078 184.977 69.8089 184.955 69.6116C184.817 70.5409 184.783 71.4176 184.749 72.3098C184.693 73.1994 184.604 74.1017 184.429 75.0728C184.417 74.8704 184.431 74.5058 184.361 74.4386C184.248 74.8082 184.282 75.2647 184.291 75.6767C184.288 76.0868 184.254 76.4512 184.04 76.6303C183.977 77.0611 184.177 76.9649 184.207 76.6987C183.457 80.9391 182.601 85.4726 181.172 89.7478C180.526 91.2281 180.364 91.2159 180.289 91.1495C180.206 91.0802 180.247 90.9655 179.888 92.1832C179.743 92.3482 179.962 92.3748 179.878 92.3775C179.599 93.3248 178.916 93.6268 178.834 94.3276C179.159 94.1652 178.76 94.7891 178.876 94.8634C178.391 95.7223 178.061 96.2164 177.79 96.6805C177.651 96.911 177.54 97.14 177.408 97.3921C177.277 97.6449 177.147 97.931 177.004 98.2925L176.952 98.1342C176.815 98.5728 176.64 99.0137 176.449 99.4519C176.354 99.6709 176.254 99.8891 176.153 100.106C176.052 100.323 175.933 100.53 175.824 100.74C175.381 101.575 174.961 102.383 174.732 103.147C172.082 107.421 169.04 111.334 165.638 114.865L164.357 116.184C163.916 116.609 163.463 117.02 163.017 117.439C162.566 117.853 162.125 118.278 161.667 118.683L160.26 119.862L159.556 120.451C159.321 120.648 159.088 120.846 158.84 121.025L157.37 122.129L156.634 122.68L156.45 122.818L156.357 122.887L156.334 122.904L156.277 122.944L156.23 122.975L155.857 123.226C155.359 123.559 154.861 123.893 154.362 124.227L153.617 124.712C153.374 124.876 153.093 125.025 152.833 125.182C152.304 125.493 151.775 125.804 151.246 126.114L150.454 126.579L149.651 127.002L148.047 127.844C147.778 127.981 147.516 128.133 147.241 128.258L146.42 128.64L144.779 129.403C144.237 129.67 143.667 129.873 143.111 130.107L141.431 130.786C136.92 132.519 132.178 133.717 127.283 134.326C126.116 134.323 125.497 134.343 124.851 134.391C124.204 134.427 123.536 134.52 122.28 134.693C122.379 134.633 122.535 134.607 122.363 134.574C122.31 134.704 121.867 134.767 121.407 134.78C120.947 134.803 120.473 134.824 120.358 134.952C116.718 135.053 113.349 135.025 109.621 134.577C110.215 134.612 110.532 134.433 109.831 134.376L109.081 134.462L108.97 134.378C108.487 134.36 107.952 134.394 108.433 134.556C103.738 134.029 99.1644 132.839 94.8109 131.197C90.4523 129.554 86.3121 127.463 82.3557 125.102C81.4296 124.517 80.3436 123.758 79.2072 123.029C78.6321 122.674 78.0853 122.268 77.543 121.889C77.0018 121.508 76.477 121.138 75.9898 120.796C73.3197 118.477 70.9584 116.103 68.6905 113.639C66.4653 111.131 64.3449 108.533 62.1843 105.692C62.1843 105.692 62.4591 105.785 62.9641 106.159C63.2164 106.346 63.526 106.603 63.8876 106.953C64.0683 107.128 64.262 107.327 64.4682 107.552C64.6743 107.777 64.8884 108.032 65.1388 108.297Z" fill="#995DC1"/>
<path fill-rule="evenodd" clip-rule="evenodd" d="M81.0961 11.0553C81.3724 11.0273 82.0806 10.6438 81.6418 11.1405C81.5084 11.0829 81.0904 11.1973 81.0961 11.0553Z" fill="#995DC1"/>
<path fill-rule="evenodd" clip-rule="evenodd" d="M101.061 3.63889C101.079 3.59524 101.367 3.61994 101.438 3.6245C101.187 3.69597 100.976 3.85259 100.759 3.84203C101.012 3.76576 100.958 3.72019 101.061 3.63889Z" fill="#995DC1"/>
<path fill-rule="evenodd" clip-rule="evenodd" d="M106.356 2.58357C106.294 2.71165 105.18 3.01289 104.516 3.1508L106.356 2.58357Z" fill="#995DC1"/>
<path fill-rule="evenodd" clip-rule="evenodd" d="M111.384 2.39842C111.822 2.45742 111.708 2.52074 111.131 2.56799C111.083 2.51115 111.271 2.4639 111.384 2.39842Z" fill="#995DC1"/>
<path fill-rule="evenodd" clip-rule="evenodd" d="M111.714 2.10701C112.129 2.06792 112.34 2.11732 112.547 2.16553C112.524 2.06816 111.593 2.31088 111.714 2.10701Z" fill="#995DC1"/>
<path fill-rule="evenodd" clip-rule="evenodd" d="M122.557 2.37779C122.817 2.38259 123.386 2.35693 123.615 2.50635C123.353 2.38595 122.344 2.52122 122.557 2.37779Z" fill="#995DC1"/>
<path fill-rule="evenodd" clip-rule="evenodd" d="M127.578 2.81287C127.738 2.84548 127.8 2.87618 127.992 2.87379C128.279 2.97092 127.953 3.00546 127.703 2.97788L127.578 2.81287Z" fill="#995DC1"/>
<path fill-rule="evenodd" clip-rule="evenodd" d="M182.892 67.0059L182.841 66.4562L182.954 66.5358L182.892 67.0059Z" fill="#995DC1"/>
<path fill-rule="evenodd" clip-rule="evenodd" d="M170.801 105.079C170.534 105.562 170.488 105.322 170.42 105.386C170.703 104.98 170.425 105.617 170.801 105.079Z" fill="#995DC1"/>
<path fill-rule="evenodd" clip-rule="evenodd" d="M155.739 120.939L155.873 120.837L155.965 121.062L155.739 120.939Z" fill="#995DC1"/>
<path d="M393.746 59.5017L393.855 61.5852C393.865 61.7758 393.807 61.9359 393.681 62.0653C393.556 62.1948 393.39 62.2649 393.185 62.2757L389.489 62.4694C389.255 64.448 388.392 66.0909 386.902 67.3979C385.412 68.705 383.427 69.56 380.948 69.9631C383.524 72.2586 387.081 75.7318 391.619 80.3825C391.836 80.5896 391.877 80.8196 391.744 81.0724C391.639 81.3236 391.433 81.4573 391.125 81.4735L386.835 81.6983C386.6 81.7106 386.413 81.6385 386.272 81.482C381.523 76.7195 377.667 73.023 374.705 70.3926C374.567 70.277 374.493 70.1306 374.484 69.9536L374.348 67.3594C374.339 67.1824 374.4 67.0256 374.533 66.8889C374.665 66.7522 374.827 66.6789 375.018 66.6689L377.482 66.5398C379.418 66.4383 380.96 66.0639 382.11 65.4164C383.26 64.769 383.967 63.8785 384.231 62.7449L374.838 63.2372C374.633 63.248 374.461 63.1956 374.322 63.0799C374.184 62.9643 374.11 62.8111 374.1 62.6205L373.99 60.537C373.98 60.3463 374.038 60.1863 374.164 60.0568C374.289 59.9273 374.455 59.8572 374.66 59.8464L383.746 59.3703C382.829 57.8753 380.824 57.2089 377.729 57.3711L374.539 57.5382C374.349 57.5482 374.18 57.4922 374.034 57.3701C373.888 57.2481 373.81 57.0985 373.801 56.9215L373.659 54.2048C373.649 54.0141 373.706 53.8541 373.832 53.7246C373.958 53.5951 374.123 53.525 374.328 53.5142L392.632 52.555C392.837 52.5442 393.009 52.5967 393.147 52.7123C393.286 52.828 393.36 52.9811 393.37 53.1717L393.479 55.2552C393.489 55.4459 393.431 55.606 393.306 55.7354C393.18 55.8649 393.015 55.935 392.809 55.9458L387.683 56.2144C388.416 57.009 388.937 57.9649 389.246 59.0821L393.007 58.8849C393.213 58.8741 393.385 58.9266 393.523 59.0422C393.661 59.1579 393.736 59.311 393.746 59.5017Z" fill="white"/>
<path d="M419.767 48.7842L421.366 79.2878L414.917 79.6258L413.639 55.2437L413.46 55.2531L406.704 59.9981L406.404 54.2787L413.705 49.1019L419.767 48.7842Z" fill="white"/>
<path d="M214.968 59.5172L216.567 90.0208L210.118 90.3588L208.84 65.9768L208.661 65.9862L201.905 70.7312L201.606 65.0118L208.906 59.8349L214.968 59.5172ZM233.584 89.129L232.385 66.2513L238.432 65.9344L238.644 69.9708L238.912 69.9567C239.318 68.5913 240.057 67.4921 241.128 66.6593C242.2 65.8266 243.51 65.3696 245.059 65.2884C246.628 65.2062 247.984 65.5284 249.127 66.2551C250.27 66.9718 251.06 67.9858 251.497 69.2971L251.736 69.2847C252.134 67.9495 252.923 66.8577 254.103 66.0092C255.293 65.1504 256.726 64.6769 258.405 64.589C260.539 64.4771 262.308 65.0665 263.71 66.3571C265.121 67.6373 265.892 69.5185 266.022 72.0009L266.828 87.3868L260.498 87.7185L259.757 73.5838C259.691 72.3128 259.303 71.3773 258.594 70.7772C257.886 70.1771 257.025 69.9035 256.012 69.9566C254.861 70.017 253.981 70.4315 253.374 71.2001C252.767 71.9588 252.494 72.9339 252.557 74.1254L253.289 88.0963L247.138 88.4187L246.39 74.1499C246.331 73.0279 245.962 72.1511 245.281 71.5197C244.611 70.8877 243.754 70.599 242.712 70.6537C242.007 70.6906 241.381 70.9027 240.833 71.2898C240.296 71.6665 239.879 72.1811 239.585 72.8338C239.29 73.4765 239.165 74.2199 239.209 75.0639L239.929 88.7965L233.584 89.129ZM271.84 87.1241L270.641 64.2464L276.986 63.9139L278.185 86.7916L271.84 87.1241ZM273.674 61.1303C272.73 61.1797 271.905 60.9094 271.197 60.3192C270.498 59.7186 270.126 58.9764 270.079 58.0926C270.034 57.2188 270.327 56.4517 270.96 55.7913C271.601 55.1204 272.394 54.7603 273.337 54.7108C274.281 54.6614 275.102 54.937 275.8 55.5376C276.508 56.1278 276.885 56.8598 276.931 57.7336C276.977 58.6173 276.679 59.3946 276.037 60.0655C275.405 60.7259 274.617 61.0809 273.674 61.1303ZM288.014 55.6891L289.613 86.1927L283.268 86.5252L281.669 56.0216L288.014 55.6891ZM305.145 85.8267C302.791 85.9501 300.741 85.5796 298.993 84.7154C297.254 83.8407 295.882 82.5485 294.877 80.8388C293.871 79.1192 293.304 77.053 293.178 74.6401C293.054 72.2868 293.403 70.1975 294.223 68.3723C295.044 66.547 296.257 65.0944 297.863 64.0146C299.479 62.9342 301.409 62.3352 303.654 62.2176C305.163 62.1385 306.581 62.3081 307.907 62.7265C309.243 63.1344 310.422 63.7945 311.446 64.7067C312.479 65.6183 313.307 66.7896 313.93 68.2207C314.552 69.6418 314.914 71.3254 315.016 73.2716L315.107 75.0142L295.789 76.0266L295.583 72.0945L308.929 71.3951C308.881 70.4816 308.64 69.6828 308.206 68.9986C307.772 68.3144 307.192 67.7922 306.466 67.432C305.749 67.0613 304.929 66.9001 304.006 66.9485C303.043 66.999 302.201 67.2672 301.479 67.753C300.767 68.2284 300.222 68.8494 299.844 69.616C299.466 70.3726 299.295 71.203 299.333 72.1071L299.529 75.8456C299.588 76.9776 299.848 77.9447 300.308 78.747C300.778 79.5488 301.412 80.1528 302.21 80.559C303.008 80.9653 303.938 81.1406 305.001 81.0849C305.706 81.0479 306.346 80.9148 306.921 80.6855C307.497 80.4562 307.983 80.1321 308.379 79.713C308.775 79.294 309.067 78.7908 309.256 78.2034L315.144 78.2831C314.92 79.7087 314.374 80.972 313.506 82.0729C312.647 83.1634 311.508 84.0396 310.089 84.7014C308.679 85.3527 307.031 85.7279 305.145 85.8267ZM330.139 69.5218L329.862 64.2344L350.431 63.1564L350.708 68.4439L330.139 69.5218ZM330.658 79.4117L330.381 74.1242L350.95 73.0462L351.227 78.3337L330.658 79.4117Z" fill="white"/>
<g filter="url(#filter0_d_224_7)">
<path d="M156.711 37.235C154.701 41.0843 150.778 43.8083 146.127 44.052C139.121 44.4192 133.152 39.0377 132.785 32.0398C132.587 28.254 134.078 24.7756 136.595 22.3121C130.414 19.886 123.626 18.6949 116.56 19.0652C98.9413 19.9886 84.0562 30.2966 76.465 44.8781C86.9608 67.0383 110.074 81.8265 136.078 80.4637C147.488 79.8657 158.014 76.2203 166.931 70.3799C167.068 68.4447 167.1 66.4777 166.995 64.4879C166.454 54.1588 162.674 44.7766 156.711 37.2425L156.711 37.235Z" fill="#FFEE7A"/>
<path d="M132.778 32.0402C133.145 39.0455 139.121 44.4192 146.12 44.0524C150.77 43.8087 154.693 41.0847 156.704 37.2354C151.461 30.6126 144.523 25.4313 136.58 22.3129C134.071 24.776 132.572 28.2547 132.77 32.0406L132.778 32.0402Z" fill="#FFFFB7"/>
<path d="M76.465 44.8781C72.6423 52.2225 70.6622 60.6437 71.127 69.5121C72.5143 95.9833 95.0964 116.322 121.577 114.934C146.06 113.651 165.281 94.2303 166.938 70.3795C158.022 76.2199 147.496 79.8653 136.085 80.4633C110.082 81.8261 86.9682 67.0379 76.4724 44.8777L76.465 44.8781Z" fill="#FFDD00"/>
<path d="M121.905 26.9306C143.944 29.3476 159.848 49.1693 157.43 71.2067C155.013 93.244 135.189 109.147 113.15 106.729C91.111 104.305 75.2074 84.4833 77.6252 62.4534C80.0426 40.4161 99.866 24.5135 121.905 26.9306Z" fill="#C97800"/>
<path d="M124.99 29.3321C146.601 31.7043 162.193 51.1388 159.82 72.7404C157.447 94.3494 138.011 109.94 116.408 107.568C94.7973 105.195 79.2055 85.7609 81.5784 64.1593C83.951 42.5503 103.387 26.9595 124.99 29.3321Z" fill="#FFF1A1"/>
<path d="M81.7377 53.9355C79.9388 58.8273 79.0742 64.1485 79.3644 69.6857C80.5092 91.5289 99.1378 108.301 120.983 107.156C139.459 106.188 154.312 92.7053 157.752 75.3522C151.081 78.265 143.784 80.0598 136.078 80.4637C113.801 81.6312 93.6601 70.9467 81.7381 53.9429L81.7377 53.9355Z" fill="#FAC500"/>
<path d="M116.838 28.0705C100.531 28.9251 87.0514 39.5331 81.7377 53.9355C93.6601 70.9467 113.8 81.6237 136.077 80.4562C143.776 80.0528 151.074 78.2579 157.752 75.3447C158.378 72.1882 158.632 68.9018 158.456 65.5333C157.311 43.6901 138.682 26.9182 116.838 28.063L116.838 28.0705Z" fill="#FAD351"/>
<path d="M146.896 76.7606L146.606 71.2333L123.771 58.574L122.975 43.3741C122.855 41.0803 120.906 39.3257 118.612 39.4459C116.318 39.5662 114.563 41.5148 114.683 43.8086L115.48 59.0086L94.0933 73.9854L94.383 79.5127L116.132 71.4449L116.928 86.6448L111.618 91.0799L111.835 95.2253L121.364 91.9547L131.182 94.2114L130.965 90.066L125.22 86.2102L124.423 71.0103L146.896 76.7606Z" fill="#C97800"/>
<path d="M145.366 76.0935L145.077 70.5662L122.242 57.9069L121.445 42.707C121.325 40.4132 119.376 38.6586 117.082 38.7788C114.788 38.8991 113.033 40.8477 113.154 43.1415L113.95 58.3414L92.5637 73.3183L92.8533 78.8456L114.602 70.7777L115.399 85.9776L110.088 90.4128L110.305 94.5582L119.834 91.2876L129.652 93.5443L129.435 89.3988L123.69 85.5431L122.893 70.3432L145.366 76.0935Z" fill="#FFF1A1"/>
<path d="M114.979 77.9578C117.712 78.7747 120.521 79.4081 123.391 79.8443L123.69 85.5431L129.435 89.3988L129.652 93.5443L119.834 91.2876L110.305 94.5582L110.088 90.4128L115.399 85.9776L114.979 77.9578ZM97.7075 69.7168C100.15 71.3856 102.716 72.8842 105.386 74.1966L92.8533 78.8455L92.5637 73.3183L97.7075 69.7168Z" fill="#FFED45"/>
</g>
<path d="M209.515 35.6203C209.393 34.8861 209.02 34.332 208.395 33.9579C207.77 33.5786 207 33.413 206.085 33.4609C205.429 33.4953 204.868 33.629 204.4 33.8621C203.932 34.0901 203.575 34.3904 203.329 34.7632C203.087 35.1305 202.978 35.5404 203.002 35.9929C203.022 36.3726 203.127 36.6957 203.319 36.962C203.515 37.2282 203.764 37.4472 204.065 37.6192C204.371 37.7857 204.696 37.9225 205.041 38.0296C205.385 38.1315 205.716 38.2133 206.032 38.275L207.613 38.5989C208.13 38.697 208.661 38.8387 209.208 39.0238C209.755 39.209 210.266 39.4638 210.742 39.7883C211.218 40.1128 211.61 40.5252 211.918 41.0254C212.231 41.5253 212.407 42.1341 212.444 42.8519C212.492 43.7569 212.3 44.5728 211.868 45.2995C211.442 46.0259 210.798 46.6151 209.935 47.0671C209.077 47.5189 208.024 47.7775 206.776 47.8429C205.579 47.9056 204.534 47.77 203.641 47.4361C202.747 47.1022 202.035 46.5997 201.504 45.9287C200.973 45.2524 200.657 44.4345 200.554 43.475L202.973 43.3483C203.05 43.9232 203.262 44.3945 203.61 44.7622C203.963 45.1244 204.402 45.3857 204.926 45.5459C205.456 45.7007 206.03 45.7619 206.649 45.7294C207.331 45.6937 207.931 45.5554 208.45 45.3143C208.975 45.0678 209.38 44.744 209.667 44.3431C209.953 43.9369 210.083 43.4737 210.056 42.9536C210.031 42.4803 209.875 42.0999 209.589 41.8124C209.308 41.5246 208.933 41.2939 208.465 41.1203C208.002 40.9463 207.481 40.7989 206.901 40.6781L204.986 40.2621C203.688 39.9807 202.647 39.5215 201.863 38.8846C201.083 38.2475 200.665 37.3723 200.606 36.2593C200.558 35.3387 200.766 34.522 201.229 33.8093C201.692 33.0966 202.34 32.528 203.174 32.1036C204.006 31.674 204.959 31.4311 206.03 31.375C207.112 31.3183 208.076 31.4581 208.923 31.7945C209.775 32.1305 210.458 32.6189 210.971 33.2596C211.484 33.8951 211.774 34.6414 211.84 35.4985L209.515 35.6203ZM217.329 39.8891L217.702 47.0043L215.369 47.1266L214.532 31.1485L216.833 31.0279L217.145 36.9728L217.293 36.9651C217.54 36.3054 217.942 35.7706 218.5 35.3606C219.057 34.9507 219.801 34.7213 220.732 34.6725C221.554 34.6295 222.281 34.7609 222.912 35.0668C223.549 35.3724 224.054 35.8519 224.427 36.5051C224.805 37.1529 225.021 37.9761 225.073 38.9747L225.472 46.5971L223.14 46.7193L222.755 39.3778C222.709 38.4988 222.447 37.8293 221.969 37.3693C221.491 36.9041 220.849 36.6927 220.043 36.7349C219.491 36.7638 219.003 36.9067 218.579 37.1637C218.159 37.4204 217.837 37.7815 217.611 38.2471C217.39 38.7072 217.296 39.2545 217.329 39.8891ZM233.646 46.4112C232.522 46.4701 231.528 46.264 230.664 45.793C229.8 45.322 229.112 44.6357 228.6 43.7341C228.089 42.8326 227.801 41.7629 227.736 40.525C227.671 39.2819 227.845 38.1827 228.259 37.2274C228.673 36.2722 229.286 35.5151 230.096 34.9563C230.907 34.3975 231.873 34.0887 232.997 34.0298C234.12 33.9709 235.114 34.177 235.979 34.648C236.843 35.1191 237.531 35.8079 238.043 36.7147C238.554 37.6215 238.843 38.6964 238.908 39.9395C238.973 41.1773 238.798 42.2713 238.384 43.2214C237.969 44.1715 237.357 44.9259 236.547 45.4847C235.736 46.0435 234.769 46.3524 233.646 46.4112ZM233.551 44.4526C234.279 44.4144 234.872 44.1904 235.331 43.7804C235.789 43.3704 236.116 42.8396 236.311 42.1878C236.512 41.5358 236.592 40.8249 236.552 40.0551C236.511 39.2906 236.358 38.5945 236.09 37.9671C235.827 37.3341 235.447 36.8351 234.948 36.4701C234.449 36.1051 233.835 35.9417 233.107 35.9798C232.374 36.0183 231.775 36.2452 231.312 36.6606C230.854 37.0758 230.525 37.612 230.324 38.2692C230.129 38.921 230.052 39.6291 230.092 40.3937C230.132 41.1635 230.283 41.8622 230.546 42.49C230.813 43.1175 231.196 43.6111 231.695 43.9709C232.199 44.3305 232.818 44.491 233.551 44.4526ZM242.059 50.234L241.195 33.7566L243.473 33.6372L243.575 35.5799L243.77 35.5696C243.892 35.3129 244.072 35.014 244.31 34.673C244.547 34.3319 244.886 34.0273 245.326 33.7592C245.765 33.4858 246.357 33.3296 247.101 33.2906C248.068 33.2399 248.944 33.4392 249.729 33.8883C250.514 34.3374 251.147 35.0109 251.627 35.9089C252.112 36.8066 252.388 37.903 252.456 39.1981C252.524 40.4932 252.366 41.615 251.983 42.5634C251.6 43.5067 251.044 44.2477 250.316 44.7866C249.588 45.3202 248.74 45.6124 247.772 45.6631C247.044 45.7012 246.442 45.6102 245.967 45.39C245.496 45.1695 245.122 44.9023 244.845 44.5882C244.568 44.2742 244.352 43.9934 244.199 43.7459L244.058 43.7533L244.391 50.1117L242.059 50.234ZM243.795 39.6286C243.839 40.4712 244 41.2033 244.278 41.8251C244.555 42.4468 244.935 42.925 245.417 43.2596C245.898 43.589 246.475 43.7362 247.146 43.701C247.842 43.6645 248.415 43.4493 248.864 43.0555C249.313 42.6565 249.64 42.1308 249.845 41.4785C250.056 40.826 250.141 40.0992 250.099 39.2982C250.057 38.5076 249.901 37.8039 249.628 37.1871C249.361 36.5701 248.982 36.0919 248.489 35.7526C248.002 35.413 247.407 35.2617 246.705 35.2985C246.029 35.3339 245.466 35.5381 245.016 35.9111C244.571 36.2839 244.246 36.7886 244.039 37.4253C243.833 38.062 243.751 38.7964 243.795 39.6286ZM264.698 44.8073C263.939 44.8471 263.245 44.7427 262.616 44.494C261.988 44.2401 261.48 43.8521 261.092 43.3299C260.71 42.8076 260.499 42.1537 260.458 41.3683C260.422 40.6921 260.523 40.1288 260.76 39.6783C260.997 39.2277 261.33 38.8635 261.759 38.5854C262.188 38.3074 262.672 38.0891 263.211 37.9304C263.751 37.7718 264.302 37.6438 264.865 37.5464C265.579 37.4256 266.158 37.3275 266.602 37.252C267.047 37.1713 267.367 37.0633 267.563 36.9278C267.759 36.7924 267.85 36.5842 267.836 36.3033L267.833 36.2487C267.797 35.5674 267.577 35.0495 267.172 34.6952C266.773 34.3406 266.196 34.1831 265.442 34.2226C264.657 34.2638 264.047 34.4705 263.613 34.8427C263.183 35.2094 262.894 35.6079 262.744 36.0382L260.526 35.6538C260.748 34.912 261.097 34.3043 261.573 33.8309C262.053 33.3519 262.616 32.9938 263.261 32.7567C263.905 32.5143 264.589 32.3741 265.312 32.3362C265.79 32.3112 266.301 32.3418 266.842 32.4281C267.389 32.509 267.904 32.6854 268.388 32.9574C268.877 33.229 269.286 33.6326 269.617 34.1681C269.947 34.6984 270.135 35.4005 270.181 36.2743L270.598 44.2321L268.32 44.3515L268.234 42.7131L268.14 42.7181C268.005 43.0276 267.795 43.336 267.508 43.643C267.222 43.9501 266.847 44.2123 266.384 44.4295C265.921 44.6468 265.359 44.7727 264.698 44.8073ZM265.107 42.9083C265.752 42.8745 266.297 42.7182 266.741 42.4393C267.191 42.1602 267.524 41.8089 267.742 41.3855C267.965 40.9566 268.064 40.5055 268.039 40.0322L267.958 38.4874C267.879 38.575 267.722 38.6615 267.486 38.7468C267.256 38.8267 266.991 38.9006 266.692 38.9684C266.393 39.031 266.101 39.0906 265.818 39.1472C265.533 39.1986 265.296 39.2424 265.105 39.2785C264.655 39.3594 264.247 39.4773 263.879 39.6321C263.517 39.7867 263.231 39.9973 263.021 40.2639C262.815 40.525 262.723 40.8636 262.745 41.2797C262.775 41.857 263.012 42.2828 263.454 42.5569C263.895 42.8258 264.447 42.9429 265.107 42.9083ZM275.665 36.8318L276.038 43.947L273.705 44.0693L273.077 32.0857L275.316 31.9684L275.418 33.9188L275.567 33.9111C275.809 33.2621 276.214 32.7297 276.782 32.3141C277.354 31.8981 278.091 31.6665 278.99 31.6194C279.807 31.5766 280.531 31.7107 281.163 32.0219C281.794 32.3278 282.297 32.8073 282.67 33.4606C283.043 34.1138 283.256 34.9345 283.308 35.9228L283.707 43.5451L281.374 43.6674L280.989 36.3259C280.944 35.4573 280.682 34.7904 280.204 34.3252C279.726 33.8548 279.091 33.6403 278.301 33.6817C277.76 33.7101 277.285 33.8523 276.876 34.1085C276.472 34.3643 276.16 34.7249 275.939 35.1902C275.723 35.6501 275.632 36.1973 275.665 36.8318ZM291.334 43.3801C290.366 43.4308 289.49 43.229 288.705 42.7747C287.924 42.3149 287.294 41.636 286.814 40.738C286.339 39.8346 286.068 38.7353 286 37.4402C285.932 36.1451 286.09 35.0259 286.473 34.0827C286.862 33.1392 287.423 32.4031 288.157 31.8744C288.891 31.3456 289.739 31.0561 290.701 31.0057C291.445 30.9667 292.049 31.0602 292.515 31.2861C292.985 31.5066 293.354 31.7741 293.621 32.0887C293.893 32.403 294.106 32.6813 294.259 32.9236L294.4 32.9163L294.089 26.9791L296.421 26.8568L297.259 42.8349L294.981 42.9543L294.883 41.0897L294.688 41.0999C294.561 41.3621 294.373 41.664 294.125 42.0056C293.882 42.3469 293.538 42.6518 293.093 42.9202C292.648 43.1886 292.062 43.342 291.334 43.3801ZM291.744 41.3637C292.415 41.3285 292.973 41.122 293.417 40.744C293.867 40.3606 294.194 39.8453 294.4 39.1983C294.612 38.5509 294.695 37.8059 294.651 36.9633C294.607 36.1311 294.45 35.4092 294.178 34.7976C293.906 34.186 293.529 33.7181 293.048 33.3939C292.567 33.0697 291.985 32.9254 291.304 32.9611C290.602 32.9979 290.026 33.2106 289.577 33.5993C289.128 33.9879 288.801 34.5031 288.594 35.145C288.393 35.7866 288.313 36.5027 288.355 37.2933C288.397 38.0943 288.554 38.8084 288.827 39.4356C289.1 40.0628 289.48 40.5514 289.968 40.9013C290.46 41.2458 291.053 41.3999 291.744 41.3637ZM306.638 46.8495L305.774 30.3721L308.052 30.2528L308.154 32.1954L308.349 32.1852C308.471 31.9284 308.651 31.6296 308.889 31.2885C309.127 30.9475 309.465 30.6429 309.905 30.3747C310.345 30.1013 310.936 29.9452 311.68 29.9062C312.647 29.8555 313.524 30.0547 314.309 30.5038C315.094 30.9529 315.726 31.6265 316.206 32.5245C316.691 33.4222 316.968 34.5186 317.036 35.8137C317.103 37.1088 316.946 38.2305 316.563 39.179C316.179 40.1222 315.623 40.8633 314.895 41.4021C314.167 41.9357 313.319 42.2279 312.352 42.2786C311.624 42.3168 311.022 42.2257 310.546 42.0056C310.075 41.7851 309.702 41.5178 309.424 41.2038C309.147 40.8897 308.932 40.609 308.778 40.3615L308.637 40.3688L308.971 46.7273L306.638 46.8495ZM308.374 36.2441C308.418 37.0867 308.579 37.8189 308.857 38.4406C309.135 39.0624 309.515 39.5405 309.996 39.8752C310.478 40.2046 311.054 40.3517 311.725 40.3165C312.422 40.28 312.995 40.0648 313.443 39.671C313.892 39.272 314.219 38.7464 314.425 38.0941C314.636 37.4415 314.72 36.7147 314.678 35.9138C314.637 35.1232 314.48 34.4195 314.208 33.8027C313.941 33.1856 313.561 32.7074 313.069 32.3681C312.581 32.0286 311.987 31.8772 311.284 31.914C310.608 31.9494 310.045 32.1537 309.595 32.5267C309.151 32.8994 308.825 33.4041 308.619 34.0408C308.412 34.6775 308.331 35.4119 308.374 36.2441ZM323.463 41.7276C322.704 41.7674 322.01 41.6629 321.381 41.4142C320.753 41.1603 320.245 40.7723 319.858 40.2502C319.475 39.7278 319.264 39.0739 319.223 38.2885C319.187 37.6124 319.288 37.049 319.525 36.5985C319.762 36.148 320.095 35.7837 320.524 35.5057C320.953 35.2276 321.437 35.0093 321.976 34.8507C322.516 34.692 323.067 34.564 323.63 34.4667C324.344 34.3459 324.923 34.2477 325.367 34.1723C325.812 34.0916 326.132 33.9835 326.328 33.8481C326.525 33.7126 326.615 33.5045 326.601 33.2236L326.598 33.169C326.562 32.4876 326.342 31.9698 325.937 31.6155C325.538 31.2609 324.961 31.1034 324.207 31.1429C323.422 31.184 322.812 31.3907 322.378 31.7629C321.948 32.1296 321.659 32.5281 321.509 32.9584L319.291 32.574C319.513 31.8322 319.862 31.2246 320.338 30.7511C320.818 30.2722 321.381 29.9141 322.026 29.6769C322.67 29.4345 323.354 29.2944 324.077 29.2565C324.556 29.2314 325.066 29.262 325.607 29.3484C326.154 29.4293 326.669 29.6057 327.153 29.8776C327.642 30.1493 328.051 30.5529 328.382 31.0884C328.712 31.6187 328.9 32.3208 328.946 33.1946L329.363 41.1524L327.085 41.2718L326.999 39.6334L326.905 39.6383C326.77 39.9479 326.56 40.2562 326.273 40.5633C325.987 40.8704 325.612 41.1325 325.149 41.3498C324.686 41.567 324.124 41.693 323.463 41.7276ZM323.872 39.8286C324.517 39.7948 325.062 39.6384 325.506 39.3596C325.956 39.0805 326.289 38.7292 326.507 38.3058C326.73 37.8769 326.829 37.4258 326.804 36.9524L326.723 35.4077C326.644 35.4953 326.487 35.5817 326.251 35.6671C326.021 35.747 325.756 35.8208 325.457 35.8887C325.158 35.9513 324.866 36.0109 324.583 36.0675C324.298 36.1189 324.061 36.1626 323.87 36.1987C323.42 36.2796 323.012 36.3975 322.644 36.5524C322.282 36.707 321.996 36.9176 321.786 37.1841C321.58 37.4453 321.488 37.7839 321.51 38.1999C321.541 38.7773 321.777 39.203 322.219 39.4771C322.66 39.746 323.212 39.8632 323.872 39.8286ZM333.751 45.4286C333.403 45.4469 333.084 45.4349 332.795 45.3927C332.506 45.3556 332.29 45.3096 332.146 45.2545L332.608 43.3137C333.04 43.4057 333.422 43.4353 333.754 43.4022C334.086 43.3692 334.374 43.2289 334.616 42.9815C334.864 42.7338 335.073 42.3396 335.243 41.7987L335.49 40.9878L330.469 29.078L332.966 28.9471L336.488 38.0878L336.613 38.0813L339.16 28.6225L341.665 28.4912L337.438 42.333C337.242 42.9691 336.978 43.5123 336.647 43.9625C336.316 44.418 335.912 44.7677 335.435 45.0118C334.957 45.2559 334.396 45.3948 333.751 45.4286ZM357.63 34.6876L357.262 27.6738L359.603 27.5511L360.231 39.5347L357.937 39.6549L357.828 37.5796L357.704 37.5861C357.461 38.2403 357.047 38.7966 356.461 39.255C355.88 39.7079 355.139 39.958 354.239 40.0051C353.47 40.0455 352.779 39.9121 352.169 39.6051C351.563 39.2927 351.074 38.8098 350.7 38.1566C350.332 37.5031 350.122 36.6822 350.071 35.694L349.671 28.0716L352.004 27.9494L352.389 35.2909C352.431 36.1074 352.692 36.7457 353.17 37.2057C353.647 37.6657 354.248 37.8768 354.971 37.8389C355.408 37.816 355.836 37.684 356.257 37.4429C356.682 37.2016 357.026 36.8524 357.289 36.3953C357.557 35.9379 357.671 35.3687 357.63 34.6876ZM371.87 29.8419L369.776 30.3272C369.673 30.0614 369.519 29.8113 369.314 29.5769C369.114 29.3423 368.849 29.1554 368.518 29.0162C368.187 28.8771 367.78 28.8202 367.296 28.8456C366.636 28.8802 366.092 29.0573 365.666 29.3769C365.239 29.6914 365.038 30.08 365.062 30.543C365.083 30.9434 365.248 31.2582 365.557 31.4871C365.867 31.716 366.356 31.8912 367.024 32.0126L368.951 32.3497C370.067 32.5468 370.909 32.8964 371.478 33.3986C372.047 33.9008 372.353 34.5757 372.398 35.4235C372.435 36.1413 372.261 36.7919 371.874 37.3755C371.492 37.9535 370.94 38.4206 370.219 38.7765C369.502 39.1323 368.66 39.3355 367.692 39.3862C366.35 39.4565 365.241 39.2278 364.363 38.7001C363.485 38.1672 362.922 37.3753 362.674 36.3243L364.91 35.8629C365.082 36.4432 365.394 36.8728 365.846 37.1516C366.299 37.4252 366.876 37.5435 367.578 37.5067C368.343 37.4667 368.946 37.276 369.387 36.9347C369.827 36.5883 370.036 36.1836 370.011 35.7207C369.992 35.3462 369.835 35.0389 369.541 34.7988C369.252 34.5583 368.818 34.3881 368.239 34.2881L366.187 33.9497C365.055 33.7534 364.207 33.3911 363.642 32.8626C363.083 32.3339 362.78 31.643 362.736 30.79C362.699 30.0827 362.864 29.4534 363.231 28.9021C363.599 28.3509 364.123 27.9088 364.805 27.5758C365.486 27.2376 366.276 27.0449 367.176 26.9978C368.471 26.9299 369.505 27.1573 370.279 27.6801C371.051 28.1976 371.582 28.9182 371.87 29.8419ZM375.144 38.7531L374.516 26.7696L376.849 26.6473L377.477 38.6309L375.144 38.7531ZM375.597 24.8588C375.191 24.8801 374.836 24.7631 374.53 24.5079C374.23 24.2472 374.07 23.927 374.05 23.5473C374.03 23.1625 374.156 22.8273 374.427 22.5418C374.704 22.2509 375.045 22.0948 375.451 22.0736C375.857 22.0523 376.21 22.172 376.51 22.4327C376.816 22.6879 376.979 23.0079 376.999 23.3928C377.019 23.7725 376.89 24.1078 376.614 24.3987C376.342 24.6842 376.003 24.8375 375.597 24.8588ZM382.575 31.2289L382.948 38.3441L380.615 38.4664L379.987 26.4828L382.226 26.3655L382.328 28.3159L382.477 28.3082C382.719 27.6592 383.124 27.1268 383.691 26.7111C384.264 26.2952 385.001 26.0636 385.9 26.0165C386.717 25.9737 387.441 26.1078 388.073 26.4189C388.704 26.7249 389.207 27.2044 389.58 27.8577C389.953 28.5109 390.166 29.3316 390.217 30.3199L390.617 37.9422L388.284 38.0645L387.899 30.723C387.854 29.8544 387.592 29.1875 387.114 28.7223C386.636 28.2519 386.001 28.0374 385.21 28.0788C384.67 28.1072 384.195 28.2494 383.786 28.5056C383.382 28.7614 383.069 29.122 382.849 29.5873C382.633 30.0472 382.542 30.5944 382.575 31.2289ZM399.018 42.2584C398.067 42.3083 397.241 42.2264 396.541 42.0127C395.847 41.7988 395.273 41.4977 394.82 41.1094C394.366 40.7211 394.02 40.2881 393.782 39.8104L395.743 38.8783C395.896 39.0998 396.096 39.3319 396.343 39.5745C396.596 39.822 396.93 40.0261 397.345 40.1869C397.766 40.3474 398.298 40.4108 398.943 40.377C399.827 40.3306 400.547 40.0765 401.102 39.6145C401.657 39.1578 401.91 38.4613 401.86 37.5251L401.737 35.1689L401.589 35.1767C401.462 35.4389 401.274 35.733 401.025 36.059C400.781 36.3847 400.436 36.674 399.991 36.9268C399.545 37.1796 398.955 37.3253 398.222 37.3637C397.275 37.4133 396.411 37.237 395.628 36.8347C394.851 36.4269 394.218 35.8003 393.73 34.9549C393.248 34.1039 392.973 33.0413 392.906 31.7671C392.839 30.4928 392.998 29.3892 393.382 28.4564C393.771 27.5233 394.333 26.795 395.067 26.2714C395.801 25.7427 396.649 25.4532 397.611 25.4027C398.355 25.3638 398.962 25.4571 399.433 25.6828C399.903 25.9032 400.274 26.1706 400.547 26.485C400.824 26.799 401.039 27.0772 401.193 27.3195L401.364 27.3105L401.262 25.3678L403.548 25.248L404.19 37.4968C404.244 38.5267 404.049 39.3844 403.605 40.07C403.162 40.7557 402.54 41.2785 401.74 41.6386C400.945 41.9984 400.038 42.205 399.018 42.2584ZM398.636 35.4019C399.307 35.3667 399.865 35.181 400.312 34.8446C400.763 34.5028 401.093 34.0318 401.302 33.4315C401.515 32.8258 401.6 32.1094 401.557 31.2824C401.515 30.4762 401.358 29.7725 401.086 29.1713C400.815 28.5701 400.439 28.11 399.958 27.791C399.477 27.4668 398.895 27.3225 398.214 27.3582C397.512 27.395 396.936 27.6077 396.487 27.9963C396.038 28.3798 395.71 28.8872 395.503 29.5187C395.301 30.1499 395.221 30.8478 395.261 31.6124C395.302 32.3978 395.458 33.0806 395.728 33.661C395.998 34.2414 396.376 34.6858 396.862 34.9941C397.353 35.3022 397.944 35.4381 398.636 35.4019ZM413.119 36.7629L412.491 24.7794L414.73 24.662L414.833 26.6125L414.981 26.6047C415.196 25.9311 415.577 25.3947 416.125 24.9957C416.672 24.5915 417.341 24.3687 418.132 24.3273C418.932 24.2853 419.613 24.4374 420.174 24.7835C420.74 25.1294 421.17 25.6232 421.464 26.2649L421.589 26.2584C421.841 25.6036 422.27 25.0701 422.874 24.6577C423.478 24.2401 424.212 24.0086 425.075 23.9634C426.162 23.9064 427.067 24.2006 427.789 24.846C428.517 25.4911 428.916 26.5002 428.988 27.8733L429.409 35.9092L427.077 36.0314L426.667 28.214C426.624 27.4027 426.373 26.8265 425.911 26.4856C425.45 26.1447 424.913 25.9903 424.299 26.0225C423.54 26.0623 422.962 26.3273 422.565 26.8174C422.168 27.3024 421.988 27.909 422.026 28.6372L422.427 36.2751L420.102 36.397L419.684 28.4313C419.65 27.7812 419.42 27.2691 418.994 26.8951C418.567 26.521 418.029 26.3511 417.379 26.3851C416.937 26.4083 416.535 26.5467 416.172 26.8004C415.815 27.0486 415.533 27.3842 415.325 27.8071C415.123 28.2297 415.036 28.7114 415.065 29.2524L415.452 36.6407L413.119 36.7629ZM432.536 35.7453L431.908 23.7618L434.241 23.6395L434.869 35.6231L432.536 35.7453ZM432.989 21.851C432.583 21.8723 432.228 21.7553 431.922 21.5001C431.622 21.2394 431.462 20.9193 431.442 20.5396C431.422 20.1547 431.547 19.8195 431.819 19.534C432.096 19.2431 432.437 19.087 432.843 19.0658C433.249 19.0445 433.602 19.1642 433.902 19.4249C434.208 19.6801 434.371 20.0001 434.391 20.385C434.411 20.7647 434.282 21.1 434.005 21.3909C433.734 21.6764 433.395 21.8297 432.989 21.851ZM439.502 19.3583L440.34 35.3363L438.007 35.4586L437.17 19.4805L439.502 19.3583ZM448.655 35.1431C447.475 35.2049 446.445 35.006 445.565 34.5462C444.691 34.0809 443.998 33.4001 443.487 32.5037C442.981 31.6019 442.695 30.5294 442.63 29.2863C442.565 28.0588 442.738 26.965 443.146 26.0048C443.56 25.0443 444.167 24.2798 444.966 23.7111C445.771 23.1422 446.73 22.8285 447.843 22.7702C448.519 22.7348 449.18 22.8122 449.826 23.0026C450.473 23.193 451.061 23.5143 451.59 23.9663C452.12 24.4184 452.55 25.0191 452.882 25.7684C453.213 26.5125 453.407 27.4281 453.464 28.5151L453.507 29.3421L443.981 29.8414L443.889 28.0938L451.129 27.7143C451.097 27.1006 450.944 26.5636 450.669 26.1034C450.395 25.638 450.024 25.2793 449.557 25.0273C449.095 24.7751 448.563 24.6648 447.959 24.6964C447.304 24.7308 446.74 24.922 446.268 25.2701C445.801 25.6127 445.448 26.0484 445.21 26.5773C444.977 27.1006 444.876 27.6613 444.907 28.2595L444.979 29.6248C445.021 30.4258 445.197 31.0998 445.507 31.6468C445.823 32.1935 446.243 32.6018 446.768 32.8715C447.293 33.1361 447.896 33.2505 448.578 33.2148C449.02 33.1916 449.42 33.1081 449.777 32.9642C450.135 32.8151 450.439 32.6061 450.691 32.3374C450.943 32.0686 451.129 31.7433 451.25 31.3615L453.479 31.6436C453.336 32.3031 453.049 32.8892 452.617 33.4021C452.189 33.9095 451.64 34.3165 450.967 34.6229C450.3 34.9239 449.529 35.0973 448.655 35.1431ZM464.878 24.9676L462.783 25.4529C462.68 25.1871 462.526 24.937 462.321 24.7026C462.121 24.468 461.856 24.2811 461.525 24.1419C461.194 24.0028 460.787 23.9459 460.303 23.9713C459.643 24.0059 459.099 24.183 458.673 24.5026C458.246 24.8171 458.045 25.2058 458.069 25.6687C458.09 26.0692 458.255 26.3839 458.564 26.6128C458.874 26.8417 459.363 27.0169 460.031 27.1383L461.958 27.4754C463.074 27.6725 463.916 28.0221 464.485 28.5243C465.054 29.0265 465.36 29.7014 465.405 30.5492C465.442 31.267 465.268 31.9176 464.881 32.5012C464.499 33.0792 463.948 33.5463 463.226 33.9022C462.509 34.258 461.667 34.4612 460.699 34.5119C459.358 34.5822 458.248 34.3535 457.37 33.8258C456.492 33.2929 455.929 32.501 455.681 31.45L457.917 30.9886C458.089 31.5689 458.401 31.9985 458.853 32.2773C459.306 32.5509 459.883 32.6692 460.585 32.6324C461.35 32.5924 461.953 32.4017 462.394 32.0604C462.835 31.714 463.043 31.3093 463.019 30.8464C462.999 30.4719 462.842 30.1646 462.548 29.9245C462.259 29.684 461.825 29.5138 461.246 29.4138L459.194 29.0754C458.062 28.8791 457.214 28.5168 456.649 27.9883C456.09 27.4596 455.787 26.7687 455.743 25.9157C455.706 25.2084 455.871 24.5791 456.238 24.0278C456.606 23.4766 457.13 23.0345 457.812 22.7015C458.493 22.3633 459.283 22.1706 460.183 22.1235C461.478 22.0556 462.512 22.283 463.286 22.8058C464.059 23.3233 464.589 24.0439 464.878 24.9676Z" fill="white"/>
<defs>
<filter id="filter0_d_224_7" x="67.0602" y="14.9988" width="109.997" height="110.002" filterUnits="userSpaceOnUse" color-interpolation-filters="sRGB">
<feFlood flood-opacity="0" result="BackgroundImageFix"/>
<feColorMatrix in="SourceAlpha" type="matrix" values="0 0 0 0 0 0 0 0 0 0 0 0 0 0 0 0 0 0 127 0" result="hardAlpha"/>
<feOffset dx="3" dy="3"/>
<feGaussianBlur stdDeviation="3.5"/>
<feColorMatrix type="matrix" values="0 0 0 0 0.260034 0 0 0 0 0.0769139 0 0 0 0 0.379894 0 0 0 0.226576 0"/>
<feBlend mode="normal" in2="BackgroundImageFix" result="effect1_dropShadow_224_7"/>
<feBlend mode="normal" in="SourceGraphic" in2="effect1_dropShadow_224_7" result="shape"/>
</filter>
</defs>
</svg>
