<?xml version="1.0" encoding="UTF-8"?>
<svg width="50px" height="50px" viewBox="0 0 50 50" version="1.1" xmlns="http://www.w3.org/2000/svg" xmlns:xlink="http://www.w3.org/1999/xlink">
    <title>partner</title>
    <g id="partner" stroke="none" stroke-width="1" fill="none" fill-rule="evenodd">
        <g id="3112940_ethics_honesty_integrity_trust_icon" transform="translate(5.000000, 5.000000)" fill="#FFFFFF" fill-rule="nonzero" stroke="#FFFFFF" stroke-width="0.6">
            <path d="M17.8124654,16.875 C22.4718944,16.875 26.249949,13.0969369 26.249949,8.43781234 C26.249949,3.77806247 22.4718944,0 17.8124654,0 C13.1521303,0 9.37498177,3.77806247 9.37498177,8.43781234 C9.37498177,13.0969369 13.1521303,16.875 17.8124654,16.875 Z M17.8124654,1.25 C21.7756134,1.25 24.9999514,4.47450013 24.9999514,8.43781234 C24.9999514,12.4008119 21.7756134,15.625 17.8124654,15.625 C13.8493173,15.625 10.6249793,12.4008119 10.6249793,8.43781234 C10.6249793,4.47450013 13.8493173,1.25 17.8124654,1.25 Z" id="Shape"></path>
            <path d="M39.4924231,20.7347178 C39.4403907,20.7273746 34.2452456,19.9522495 31.7012814,17.0753443 C31.5917498,16.951437 31.4339694,16.8789685 31.2673438,16.8754685 C31.2606252,16.8751561 31.2539065,16.8751561 31.2471903,16.8751561 C31.0906259,16.8751561 30.9350032,16.9429063 30.8248159,17.0571875 C30.8123157,17.0703125 30.3061921,17.5874376 29.4542861,18.2131874 C27.9006344,17.0844996 26.1358254,16.2152183 24.2487651,15.6694066 C23.8494529,16.0254061 23.4202049,16.3479686 22.965799,16.6346872 C24.8870461,17.06725 26.7177921,17.8624057 28.3315394,18.9573752 C27.0322608,19.7294688 25.3238877,20.4434061 23.4447667,20.4434061 C23.3394861,20.4434061 23.2343604,20.4411244 23.1280187,20.4365634 C23.1180791,20.4360937 23.1083302,20.4357814 23.0985479,20.4357814 C22.7866755,20.4357814 22.5255815,20.6811571 22.5101749,20.9927511 C22.503926,21.1190939 22.3681134,24.1241574 23.3078933,27.581625 C24.5710158,32.2294688 27.1941658,35.4295301 30.8935018,36.8359375 C30.9616894,36.861875 31.0341899,36.875 31.1065022,36.875 C31.1573139,36.875 31.2079705,36.8685937 31.2578762,36.8554687 C31.3294374,36.8368435 32.7190598,36.4610314 34.3749332,35.1460313 L34.3749332,37.0584058 C34.3749332,37.9911876 33.6121526,38.75 32.674497,38.75 L2.94982248,38.75 C2.01247734,38.75 1.24999757,37.9911876 1.24999757,37.0584059 L1.24999757,29.9291873 C1.24999757,26.2202502 2.83660395,22.7558756 5.71777007,20.1745629 C7.65914142,18.4350622 10.0826676,17.2151256 12.659444,16.6348124 C12.2050382,16.3481247 11.775789,16.0255313 11.376478,15.669719 C5.01280288,17.5108433 0,22.9835629 0,29.9291873 L0,37.0584059 C0,38.6816573 1.32049437,40 2.94982248,40 L32.6744961,40 C34.3038393,40 35.6249307,38.6816573 35.6249307,37.0584059 L35.6249307,34.0006876 C37.5560817,31.9702196 39.8692977,28.1298757 39.9998848,21.3250613 C40.0057349,21.0302806 39.7881402,20.7772803 39.4924231,20.7347178 Z M34.6924632,33.1686258 C33.1633734,34.7645617 31.6483431,35.4013133 31.12847,35.5853128 C27.9281025,34.2852807 25.6435754,31.40975 24.5141077,27.2537184 C23.8639224,24.8617506 23.7577358,22.7143741 23.7496415,21.6880941 C27.2509164,21.5652489 30.1216922,19.3661558 31.231314,18.3875942 C33.5996213,20.6523132 37.3117699,21.5818739 38.733736,21.8675303 C38.4990802,27.9481554 36.4223654,31.3626242 34.6924632,33.1686258 Z" id="Shape"></path>
            <path d="M27.9265695,26.1418128 C27.6738844,25.9060621 27.2785395,25.9199381 27.043104,26.1720324 C26.8075112,26.4244056 26.8210724,26.8199063 27.0733235,27.0554996 L29.7115368,29.5193434 C29.8316304,29.6313429 29.9848474,29.6875 30.1381908,29.6875 C30.2877219,29.6875 30.4372529,29.6340943 30.5562832,29.5271253 L35.4180244,25.1521253 C35.6745241,24.9212503 35.6954286,24.526062 35.464554,24.2694068 C35.2335555,24.0127492 34.838337,23.9919996 34.5818372,24.2228746 L30.1459728,28.2147193 L27.9265695,26.1418128 Z" id="Path"></path>
        </g>
    </g>
</svg>