<?xml version="1.0" encoding="UTF-8"?>
<svg width="58px" height="49px" viewBox="0 0 58 49" version="1.1" xmlns="http://www.w3.org/2000/svg" xmlns:xlink="http://www.w3.org/1999/xlink">
    <title>9055658_bxs_quote_left_icon</title>
    <g id="Page-1" stroke="none" stroke-width="1" fill="none" fill-rule="evenodd">
        <g id="1-Home" transform="translate(-404.000000, -3791.000000)" fill="#ECECEC" fill-rule="nonzero" stroke="#FFFFFF" stroke-width="6">
            <g id="Group-63" transform="translate(328.000000, 3797.000000)">
                <g id="9055658_bxs_quote_left_icon" transform="translate(82.000000, 0.000000)">
                    <path d="M23.7079516,-3 L23.7079516,8.97497491 L19.4509335,9.8323397 C18.2853832,10.0667903 17.2672085,10.3783836 16.4504482,10.8220469 L16.357,10.875 L18.4086745,10.875 C19.7824061,10.875 21.0349066,11.3988522 21.9775594,12.2603416 L22.1619028,12.4370862 C23.1162292,13.3969008 23.7079516,14.7224703 23.7079516,16.1875 L23.7079516,16.1875 L23.7079516,32.375 C23.7079516,34.4756227 22.8584876,36.3799698 21.4871069,37.7592372 C20.1095116,39.1447548 18.2066519,40 16.1093974,40 L16.1093974,40 L2.31373464,40 C0.848420919,40 -0.478958769,39.4039726 -1.43949365,38.4379138 C-2.39382003,37.4780992 -2.98554249,36.1525297 -2.98554249,34.6875 L-2.98554249,34.6875 L-2.98554092,23.1219344 L-2.97874936,16.475744 C-2.98715655,16.336801 -2.99776531,16.1056618 -2.9996959,15.7958784 C-2.97542722,13.2685971 -2.42483586,7.76584599 1.69159964,3.27250143 C5.40915489,-0.780897955 10.9779563,-3 18.4086745,-3 L18.4086745,-3 L23.7079516,-3 Z M49,-3 L49,8.97497491 L44.7429819,9.8323397 C43.5774316,10.0667903 42.5592569,10.3783836 41.7424966,10.8220469 L41.649,10.875 L43.7007229,10.875 C45.0744545,10.875 46.326955,11.3988522 47.2696078,12.2603416 L47.4539512,12.4370862 C48.4082775,13.3969008 49,14.7224703 49,16.1875 L49,16.1875 L49,32.375 C49,34.4756227 48.150536,36.3799698 46.7791552,37.7592372 C45.40156,39.1447548 43.4987002,40 41.4014458,40 L41.4014458,40 L27.605783,40 C26.1404693,40 24.8130896,39.4039726 23.8525547,38.4379138 C22.8982283,37.4780992 22.3065059,36.1525297 22.3065059,34.6875 L22.3065059,34.6875 L22.3065074,23.1219344 L22.313299,16.475744 C22.3048918,16.336801 22.2942831,16.1056618 22.2923525,15.7958784 C22.3166211,13.2685971 22.8672125,7.76584599 26.983648,3.27250143 C30.7012033,-0.780897955 36.2700046,-3 43.7007229,-3 L43.7007229,-3 L49,-3 Z" id="Shape"></path>
                </g>
            </g>
        </g>
    </g>
</svg>