<?xml version="1.0" encoding="UTF-8"?>
<svg width="16px" height="16px" viewBox="0 0 16 16" version="1.1" xmlns="http://www.w3.org/2000/svg" xmlns:xlink="http://www.w3.org/1999/xlink">
    <title>rupee</title>
    <g id="rupee" stroke="none" stroke-width="1" fill="none" fill-rule="evenodd">
        <g id="1608821_rupee_icon" transform="translate(4.000000, 3.000000)" fill="#FFFFFF" fill-rule="nonzero">
            <path d="M8,2.42897727 L8,3.15340909 C8,3.21969697 7.97327394,3.27414773 7.91982183,3.31676136 C7.86636971,3.359375 7.79806978,3.38068182 7.71492205,3.38068182 L6.21826281,3.38068182 C6.08166295,4.0625 5.69858946,4.61647727 5.06904232,5.04261364 C4.43949517,5.46875 3.61989607,5.72916667 2.61024499,5.82386364 C3.60207869,6.66666667 4.96510765,7.93560606 6.69933185,9.63068182 C6.78247958,9.70643939 6.79435783,9.78693182 6.73496659,9.87215909 C6.6874536,9.95738636 6.6013363,10 6.4766147,10 L4.73942094,10 C4.64439495,10 4.5701559,9.97159091 4.51670379,9.91477273 C2.69933185,8.17708333 1.22048998,6.82528409 0.0801781737,5.859375 C0.0267260579,5.81676136 0,5.76467803 0,5.703125 L0,4.80113636 C0,4.73958333 0.0282108389,4.68631629 0.0846325167,4.64133523 C0.141054195,4.59635417 0.207869339,4.57386364 0.285077951,4.57386364 L1.28285078,4.57386364 C2.06681514,4.57386364 2.69784707,4.47206439 3.17594655,4.26846591 C3.65404603,4.06486742 3.95842613,3.76893939 4.08908686,3.38068182 L0.285077951,3.38068182 C0.201930215,3.38068182 0.13363029,3.359375 0.0801781737,3.31676136 C0.0267260579,3.27414773 0,3.21969697 0,3.15340909 L0,2.42897727 C0,2.36268939 0.0267260579,2.30823864 0.0801781737,2.265625 C0.13363029,2.22301136 0.201930215,2.20170455 0.285077951,2.20170455 L3.96436526,2.20170455 C3.62583519,1.66666667 2.82999258,1.39914773 1.57683742,1.39914773 L0.285077951,1.39914773 C0.207869339,1.39914773 0.141054195,1.3766572 0.0846325167,1.33167614 C0.0282108389,1.28669508 0,1.23342803 0,1.171875 L0,0.227272727 C0,0.160984848 0.0267260579,0.106534091 0.0801781737,0.0639204545 C0.13363029,0.0213068182 0.201930215,0 0.285077951,0 L7.69710468,0 C7.78025241,0 7.84855234,0.0213068182 7.90200445,0.0639204545 C7.95545657,0.106534091 7.98218263,0.160984848 7.98218263,0.227272727 L7.98218263,0.951704545 C7.98218263,1.01799242 7.95545657,1.07244318 7.90200445,1.11505682 C7.84855234,1.15767045 7.78025241,1.17897727 7.69710468,1.17897727 L5.62138085,1.17897727 C5.90051967,1.46780303 6.09057164,1.80871212 6.19153675,2.20170455 L7.71492205,2.20170455 C7.79806978,2.20170455 7.86636971,2.22301136 7.91982183,2.265625 C7.97327394,2.30823864 8,2.36268939 8,2.42897727 Z" id="Path"></path>
        </g>
    </g>
</svg>