<?xml version="1.0" encoding="UTF-8"?>
<svg width="24px" height="24px" viewBox="0 0 24 24" version="1.1" xmlns="http://www.w3.org/2000/svg" xmlns:xlink="http://www.w3.org/1999/xlink">
    <title>step3</title>
    <g id="step3" stroke="none" stroke-width="1" fill="none" fill-rule="evenodd">
        <g id="753712_handshake_agreement_partnership_icon" transform="translate(2.000000, 6.000000)" fill="#FFFFFF" fill-rule="nonzero">
            <path d="M14.453125,8.68369088 C14.453125,8.68369088 14.995,8.59587752 15.388125,8.11385166 C15.87625,7.51558365 15.72625,6.80802276 15.225625,6.36895596 C15.225625,6.36895596 13.54,4.88434159 11.903125,3.45532129 L11.336875,3.91018186 C7.15875,7.17001597 5.67375,4.3397724 6.043125,3.3870922 L8.57125,0.82218397 C7.27375,0.507572073 5.78375,1.80961046 5.78375,1.80961046 L2.799375,3.7850952 L2.799375,10.3704655 L5.32375,10.5353525 L5.523125,10.6528581 L6.55125,11.4122226 C7.445,12.0269161 8.77875,12.2214953 9.488125,11.6952469 C9.488125,11.6952469 10.938125,12.2031746 11.821875,11.5651063 C12.393125,11.1519412 12.41125,10.8670216 12.443125,10.8746026 C12.8275,10.9763145 13.71375,10.7678368 14.18875,10.2137913 C14.766875,9.53971321 14.453125,8.68369088 14.453125,8.68369088 Z" id="Path"></path>
            <path d="M8.99375,1.05403651 C7.43,2.63404525 6.5,3.63094801 6.5,3.63094801 C6.5,3.63094801 6.353125,4.67649558 7.77,4.91466563 C9.243125,5.16231194 11.11,3.47364206 11.910625,2.7515509 C11.910625,2.7515509 15.445625,5.86545058 15.6875,6.07203309 C15.9475,6.29377761 16.46625,7.09799638 15.99,8.11574691 C15.693125,8.74876121 15.04625,8.95092146 15.04625,8.95092146 C15.04625,8.95092146 15.19,9.75766723 14.67875,10.3799418 C14.498125,10.599791 14.1475,10.8840789 14.1475,10.8840789 C14.943125,11.165208 16.59125,11.0375943 17.200625,10.3704655 C17.200625,9.59404377 17.200625,3.43005126 17.200625,3.43005126 L13.0625,0.769116903 C10.328125,-1.04590313 9.145625,0.900521068 8.99375,1.05403651 Z" id="Path"></path>
            <path d="M19.47875,3.0674263 L18.243125,3.0674263 C17.955,3.0674263 17.721875,3.3037011 17.721875,3.59367471 L17.721875,10.2624361 C17.721875,10.5536732 17.955,10.7893163 18.243125,10.7893163 L19.47875,10.7893163 C19.766875,10.7893163 20,10.5536732 20,10.2624361 L20,3.59430646 C20,3.3037011 19.766875,3.0674263 19.47875,3.0674263 Z" id="Path"></path>
            <path d="M1.756875,3.0674263 L0.520625,3.0674263 C0.233125,3.0674263 0,3.3037011 0,3.59367471 L0,10.2624361 C0,10.5536732 0.233125,10.7893163 0.520625,10.7893163 L1.756875,10.7893163 C2.044375,10.7893163 2.27750125,10.5536732 2.27750125,10.2624361 L2.27750125,3.59430646 C2.278125,3.3037011 2.044375,3.0674263 1.756875,3.0674263 Z" id="Path"></path>
        </g>
    </g>
</svg>