<?xml version="1.0" encoding="UTF-8"?>
<svg width="24px" height="24px" viewBox="0 0 24 24" version="1.1" xmlns="http://www.w3.org/2000/svg" xmlns:xlink="http://www.w3.org/1999/xlink">
    <title>step1</title>
    <g id="step1" stroke="none" stroke-width="1" fill="none" fill-rule="evenodd">
        <g id="326700_cart_shopping_icon" transform="translate(4.000000, 4.000000)" fill="#FFFFFF" fill-rule="nonzero">
            <path d="M4.5,12.8 C3.675,12.8 3,13.52 3,14.4 C3,15.28 3.675,16 4.5,16 C5.325,16 6,15.28 6,14.4 C6,13.52 5.325,12.8 4.5,12.8 L4.5,12.8 Z M0,0 L0,1.6 L1.5,1.6 L4.2,7.68 L3.15,9.6 C3.075,9.84 3,10.16 3,10.4 C3,11.28 3.675,12 4.5,12 L13.5,12 L13.5,10.4 L4.8,10.4 C4.725,10.4 4.65,10.32 4.65,10.24 L4.65,10.16 L5.325,8.8 L10.875,8.8 C11.475,8.8 11.925,8.48 12.15,8 L14.85,2.8 C15,2.64 15,2.56 15,2.4 C15,1.92 14.7,1.6 14.25,1.6 L3.15,1.6 L2.475,0 L0,0 L0,0 Z M12,12.8 C11.175,12.8 10.5,13.52 10.5,14.4 C10.5,15.28 11.175,16 12,16 C12.825,16 13.5,15.28 13.5,14.4 C13.5,13.52 12.825,12.8 12,12.8 L12,12.8 Z" id="Shape"></path>
        </g>
    </g>
</svg>