<?xml version="1.0" encoding="UTF-8"?>
<svg width="154px" height="156px" viewBox="0 0 154 156" version="1.1" xmlns="http://www.w3.org/2000/svg" xmlns:xlink="http://www.w3.org/1999/xlink">
    <title>top right</title>
    <g id="top-right" stroke="none" stroke-width="1" fill="none" fill-rule="evenodd">
        <path d="M161.742896,158 C160.664423,157.728259 159.58595,157.452272 158.507478,157.169066 C156.401483,156.616243 154.380409,155.738179 152.333858,154.979003 C151.514388,154.675417 150.74587,154.224921 149.917909,153.954878 C130.904519,147.75281 113.041784,138.971749 95.5866596,129.358906 C88.8780495,125.666198 82.5176079,121.34424 76.0085577,117.294872 C73.775185,115.906444 71.571534,114.473009 69.3508991,113.065475 C68.3998051,112.4617 67.3935136,112.050692 66.2853191,112.050692 C66.0687754,112.050692 65.8479857,112.066402 65.62295,112.09952 C65.3766846,112.13646 65.1304192,112.153868 64.8926456,112.153868 C63.5933832,112.153868 62.4427292,111.637985 61.2835833,110.974342 C55.5345592,107.686274 50.3587392,103.629688 45.768861,98.9043636 C39.9731315,92.9379466 34.5468001,86.6492616 29.4516532,80.0404315 C24.8830048,74.1130773 21.0828744,67.7373502 17.1426275,61.4261616 C13.8562578,56.1649978 11.7587557,50.3994146 10.098587,44.4962623 C7.95862529,36.8993983 6.5192463,29.121232 5.54267648,21.3027292 C4.75717467,15.0093736 4.86332356,8.638317 5.61061177,2.30335106 C5.96727205,-0.735479456 6.15834006,-3.79384137 6.44706505,-6.84116379 C6.60841137,-8.56035127 6.76551173,-10.2803879 6.92685805,-12 L85.4303335,-12 C85.2987089,-10.9516735 85.1968059,-9.89358136 85.1203787,-8.8252989 C84.4580096,0.73701799 85.8336993,9.95796004 89.1540367,18.9037642 C89.9098168,20.9456443 90.9373381,22.894538 91.9351377,24.8383365 C92.6314744,26.2004391 93.5273711,27.459365 94.2704133,28.801087 C99.5438903,38.3409003 106.897886,46.1160944 115.130794,53.0837078 C122.009242,58.9057623 129.562797,63.6697246 137.96979,67.1144685 C141.222192,68.447274 144.444872,69.7537545 147.833145,70.6564447 C148.67809,70.8814804 149.557003,71.0806157 150.329767,71.4712436 C153.968551,73.3139884 157.832371,74.3767511 161.742896,75.2798659 L161.742896,158" id="Fill-9" fill="#F1E7D3"></path>
    </g>
</svg>