<?xml version="1.0" encoding="UTF-8"?>
<svg width="56px" height="40px" viewBox="0 0 56 40" version="1.1" xmlns="http://www.w3.org/2000/svg" xmlns:xlink="http://www.w3.org/1999/xlink">
    <title>transit</title>
    <g id="transit" stroke="none" stroke-width="1" fill="none" fill-rule="evenodd">
        <g id="984747_arrow_arrows_data-transfer_input_output_icon" transform="translate(13.000000, 4.000000)" fill="#7F7F7F" fill-rule="nonzero" stroke="#FFFFFF" stroke-width="1.06029">
            <path d="M31.1593945,23.3081276 L30.0958934,22.2474775 C29.3537729,21.5076693 28.1520749,21.5054098 27.41222,22.2432814 L26.0354295,23.6160582 L26.0354295,11.2822133 C26.0354295,10.2480311 25.1920077,9.40880713 24.1511619,9.40880713 L22.6598007,9.40880713 C21.6199258,9.40880713 20.7768277,10.2480311 20.7768277,11.2822133 L20.7768277,23.6157355 L19.4000372,22.2432814 C18.6598586,21.5050871 17.4581606,21.5076693 16.7163637,22.2474775 L15.6522154,23.3078048 C14.9104185,24.0485814 14.908153,25.2464123 15.6486553,25.9846066 L22.0591135,32.378848 C22.4303356,32.7490749 22.9187175,32.9327359 23.4064522,32.9302326 C23.8941869,32.9324131 24.3815979,32.7490749 24.7531436,32.3785252 L31.1642492,25.9846066 C31.9031332,25.2470578 31.901515,24.0485814 31.1593945,23.3081276 Z" id="Path"></path>
            <path d="M0.558008719,9.62183198 L1.62183344,10.6828048 C2.36395394,11.422613 3.56532825,11.4248725 4.30550687,10.6873237 L5.68229737,9.31454688 L5.68229737,21.6483918 C5.68229737,22.6828967 6.5257191,23.521798 7.5662413,23.521798 L9.05792616,23.521798 C10.0981247,23.521798 10.9415464,22.6828967 10.9415464,21.6483918 L10.9415464,9.31454688 L12.3180133,10.6870009 C13.0581919,11.4251953 14.2598899,11.422613 15.0016867,10.682482 L16.0655114,9.62183198 C16.8073083,8.88170096 16.8092502,7.68387007 16.0690716,6.94535294 L9.65861332,0.551434312 C9.28739124,0.18153019 8.79900928,-0.0024535357 8.31159826,0 C7.82353995,-0.00180797876 7.33612892,0.18153019 6.96425956,0.55175709 L0.553477673,6.94535294 C-0.186053658,7.68322452 -0.184435427,8.88170096 0.558008719,9.62183198 Z" id="Path"></path>
        </g>
    </g>
</svg>