<?xml version="1.0" encoding="UTF-8"?>
<svg width="24px" height="24px" viewBox="0 0 24 24" version="1.1" xmlns="http://www.w3.org/2000/svg" xmlns:xlink="http://www.w3.org/1999/xlink">
    <title>step 2</title>
    <g id="step-2" stroke="none" stroke-width="1" fill="none" fill-rule="evenodd">
        <g id="3215888_airport_travel_traveler_icon" transform="translate(3.000000, 2.000000)" fill="#FFFFFF" fill-rule="nonzero">
            <path d="M9.58066546,12.7091283 C9.36802031,12.5848145 9.15537516,12.4397818 8.94273001,12.2740301 C8.94273001,12.2740301 8.94273001,12.2740301 8.94273001,12.2947491 C8.85767196,12.9991937 8.73008487,13.86939 8.58123326,14.1801743 C8.09214942,15.1125275 6.51857531,18.3032472 6.49731079,18.3446851 C6.26340113,18.8212211 6.45478176,19.401352 6.94386561,19.6292605 C7.09271721,19.6914174 7.2203043,19.7328553 7.36915591,19.7328553 C7.73065266,19.7328553 8.09214942,19.5256657 8.26226554,19.1941624 C8.28353005,19.1734434 9.85710416,15.9827238 10.346188,15.0503706 C10.5375686,14.6774294 10.6438912,14.1801743 10.7502138,13.6414814 C10.4312461,13.351416 10.0910138,13.0820695 9.81457513,12.8955989 C9.75078158,12.8127231 9.66572352,12.7505662 9.58066546,12.7091283 Z" id="Path"></path>
            <path d="M16.704278,9.55984651 C16.087607,9.08331045 15.1307039,8.23383314 14.8755297,7.86089188 C14.8117361,7.75729708 14.7266781,7.57082645 14.64162,7.38435582 C14.2163297,6.47272163 13.4082782,4.79448596 11.6220589,4.79448596 C11.6220589,4.79448596 10.6651557,4.773767 10.3674525,4.773767 C8.3473236,4.73232908 7.02892367,6.47272163 6.70995594,7.0942904 C6.41225273,7.71585916 5.73178826,9.68416026 5.60420117,10.1192584 C5.51914311,10.3886049 5.62546568,10.6786703 5.81684632,10.844422 L4.7961496,13.2271022 L3.03119486,12.5019387 C2.69096262,12.356906 2.28693683,12.5226576 2.13808523,12.854161 L0.0541627614,17.7231163 C-0.0946888434,18.0546197 0.0754272763,18.4482799 0.415659516,18.5933126 L2.05302717,19.2563193 C1.92544008,18.9248159 1.92544008,18.5725936 2.07429168,18.2618092 C2.28693683,17.7645542 2.79728519,17.4330509 3.35016258,17.4330509 C3.54154321,17.4330509 3.71165933,17.4744888 3.88177545,17.5366457 C4.00936254,17.5988026 4.13694963,17.6609594 4.24327221,17.7645542 L5.73178826,14.3252071 C5.88063986,13.9937037 5.71052374,13.6000435 5.3702915,13.4550108 L6.41225273,11.0516115 C6.73122046,11.0308926 7.00765915,10.823703 7.11398173,10.5129186 C7.24156882,10.0985394 7.90076878,8.21311418 8.13467845,7.73657812 C8.19847199,7.59154541 8.43238166,7.26004207 8.7726139,6.94925769 C8.43238166,8.33742793 8.55996875,10.2435721 8.62376229,11.0516115 C8.66629132,11.5695855 9.60192998,12.1082785 10.1335429,12.4605008 C11.005388,13.0406316 12.3450524,14.366645 12.6427556,14.9674948 C12.8554008,15.4440308 13.7697749,17.9717438 14.2375942,19.1112866 C14.3864458,19.4842278 14.7692071,19.7328553 15.1519684,19.7328553 C15.2795555,19.7328553 15.385878,19.7121364 15.5134651,19.6706984 C16.0238135,19.4842278 16.2789877,18.9248159 16.0663425,18.4275609 C16.002549,18.2825282 14.7266781,14.8224621 14.4502394,14.2008933 C14.2163297,13.6622004 13.2168975,12.4812197 12.5576976,11.7974941 C12.536433,11.7767751 12.536433,11.7767751 12.5151685,11.7560561 C12.493904,11.4245528 12.5151685,9.00043462 12.8979298,7.30147999 C13.0255169,7.52938853 13.153104,7.77801604 13.2806911,8.02664355 C13.4082782,8.27527105 13.4933362,8.48246064 13.6209233,8.66893127 C14.0887426,9.39409483 15.5134651,10.5336376 15.7899038,10.7408272 C15.9387554,10.844422 16.1088716,10.9065788 16.2577232,10.9065788 C16.4916328,10.9065788 16.704278,10.802984 16.8531296,10.6372324 C17.0870392,10.2850101 17.0445102,9.82919297 16.704278,9.55984651 Z" id="Path"></path>
            <ellipse id="Oval" transform="translate(10.977715, 2.085564) rotate(-89.039610) translate(-10.977715, -2.085564) " cx="10.9777147" cy="2.08556435" rx="2.05127535" ry="2.10525723"></ellipse>
            <ellipse id="Oval" transform="translate(3.340602, 18.777674) rotate(-67.332538) translate(-3.340602, -18.777674) " cx="3.34060205" cy="18.777674" rx="1" ry="1"></ellipse>
        </g>
    </g>
</svg>