<?xml version="1.0" encoding="UTF-8"?>
<svg width="194px" height="124px" viewBox="0 0 194 124" version="1.1" xmlns="http://www.w3.org/2000/svg" xmlns:xlink="http://www.w3.org/1999/xlink">
    <title>top left</title>
    <g id="top-left" stroke="none" stroke-width="1" fill="none" fill-rule="evenodd">
        <g id="Group-20" transform="translate(-22.000000, -17.000000)" fill="#F1E4CC">
            <path d="M0,144 L0,142.052798 C5.47599709,141.938792 10.9202757,141.476175 16.2986049,140.309424 C19.7471295,139.561321 23.1859188,138.735959 26.4899828,137.426308 C35.0153538,134.046342 42.4330891,128.867726 49.6093241,123.291819 C52.0328069,121.408686 54.3614482,119.401811 56.8157074,117.560763 C60.4988234,114.797934 64.2884006,112.176121 67.9721447,109.41392 C75.2441633,103.962068 82.9545883,99.2181181 90.9950742,95.0030534 C99.3160021,90.6410064 108.016296,87.1360424 116.811117,83.8879835 C126.760995,80.2134245 136.829267,76.8595258 146.666717,72.8793816 C149.658621,71.6689756 152.693548,70.5417968 155.599718,69.148605 C161.420222,66.3581386 167.246065,63.5598206 172.921166,60.4898365 C180.242804,56.5294785 187.049722,51.8050006 192.822492,45.7209359 C194.621654,43.8246122 196.37842,41.8811788 198.272109,40.0828433 C201.20403,37.2983442 203.443797,33.9708269 205.554177,30.601853 C210.330169,22.976986 213.600316,14.727444 215.187812,5.82339085 C215.533575,3.88341214 215.75215,1.94092091 215.808992,0 L219,0 C218.868729,2.90761258 218.34082,5.79543908 217.74916,8.66504981 C215.993336,17.1859439 212.539473,25.0664596 207.934008,32.4067838 C205.653729,36.0411425 203.096777,39.5162703 199.957587,42.5143336 C198.179466,44.2124823 196.495244,46.01176 194.818874,47.812608 C189.208779,53.840455 182.533446,58.4886151 175.425358,62.5026783 C169.672374,65.7513653 163.820779,68.8467887 157.727999,71.4356254 C153.768209,73.1180709 149.7789,74.7317363 145.787078,76.3369218 C134.798968,80.7551864 123.537326,84.4284892 112.451549,88.5779143 C106.698878,90.731143 101.085958,93.2433479 95.5239126,95.8802366 C89.3943885,98.7862789 83.5063648,102.091498 77.86361,105.819762 C72.8690434,109.119955 67.9787396,112.583777 63.1327161,116.100047 C57.0462162,120.516427 51.0485909,125.056235 45.0176768,129.549875 C39.5586382,133.616701 33.589905,136.777764 27.2999041,139.314466 C25.0306172,140.229651 22.6240928,140.837053 20.2430061,141.436603 C13.5871431,143.111825 6.82984371,143.970478 0,144" id="Fill-7"></path>
            <path d="M0,128 L0,126.26037 C2.55308564,125.836723 5.06912454,125.192275 7.55910514,124.390968 C15.8183309,121.732858 23.3749244,117.641278 30.5092478,112.753115 C33.5480225,110.671418 36.5014014,108.456799 39.4142799,106.199028 C42.0825872,104.131189 44.557184,101.806642 47.2688172,99.8014843 C54.5576067,94.4106148 62.0065134,89.2525149 69.6306074,84.3391539 C79.6043438,77.9116877 90.0267225,72.2997027 100.688649,67.1680611 C111.070528,62.1712306 121.665268,57.6286001 132.431428,53.490718 C138.737223,51.0672678 144.981169,48.4412859 150.891066,45.1173101 C154.640636,43.0085241 158.299473,40.7337441 162.07824,38.6803945 C166.702804,36.1674902 170.694433,32.788708 174.788412,29.5570211 C176.467132,28.2315885 177.927967,26.6094454 179.04816,24.7302793 C179.441232,24.0710278 179.839014,23.3894128 180.359866,22.8366242 C182.631019,20.4254582 183.89626,17.4296907 185.153023,14.4588066 C186.486078,11.3077544 187.204094,7.96487982 186.927185,4.5300313 C186.804115,3.00427191 186.604439,1.49205662 186.307751,0 L188.472474,0 C189.571946,5.80727208 189.003059,11.5083962 186.290798,17.1279406 C183.57006,22.7654389 180.005096,27.7575447 175.326532,31.833061 C172.208954,34.5488119 168.813212,37.0144694 165.284667,39.1673524 C160.431858,42.1281572 155.579049,45.102821 150.516203,47.7243932 C144.766737,50.7012619 138.830468,53.2336949 132.833291,55.6171427 C125.402594,58.571018 117.98728,61.5545013 110.714188,64.879737 C102.881628,68.4610508 95.1485916,72.2445814 87.5314047,76.2756856 C77.8631469,81.3918932 68.689055,87.3015336 59.6609523,93.4505581 C55.851417,96.045042 52.0943123,98.7242554 48.4047079,101.487253 C45.7018655,103.511625 43.1673033,105.760576 40.5206589,107.862433 C38.4752392,109.487096 36.4539941,111.163415 34.2789108,112.598461 C28.1134539,116.666102 21.8914849,120.666654 15.007698,123.439101 C11.7303171,124.758864 8.39799408,125.979408 5.01386838,126.985137 C3.35932321,127.477134 1.68499885,127.799673 0,128 M0,40.5497962 L0,34.9450558 C1.82408111,30.78733 3.46826575,26.5518042 5.01104278,22.2769061 C7.31265012,15.8992066 9.49746603,9.47646515 11.9268532,3.14821741 C12.3290301,2.10059649 12.7261838,1.05077071 13.1205118,0 L15.6255623,0 C15.063896,1.52544442 14.5012878,3.05025887 13.9424472,4.57664823 C12.2470878,9.20306317 10.4851698,13.8067996 8.8783459,18.4643975 C6.28632978,25.9775971 3.3411138,33.3506309 0,40.5497962" id="Fill-8"></path>
        </g>
    </g>
</svg>