<?xml version="1.0" encoding="UTF-8"?>
<svg width="31px" height="32px" viewBox="0 0 31 32" version="1.1" xmlns="http://www.w3.org/2000/svg" xmlns:xlink="http://www.w3.org/1999/xlink">
    <title>transit</title>
    <g id="Page-1" stroke="none" stroke-width="1" fill="none" fill-rule="evenodd">
        <g id="transit" transform="translate(1.000000, 1.000000)" fill-rule="nonzero" stroke="#7F7F7F" stroke-width="1.492344">
            <path d="M28.4899804,21.2340894 L27.5175891,20.2678207 C26.8390458,19.5938439 25.7402968,19.5917854 25.063825,20.263998 L23.8049836,21.514619 L23.8049836,10.2782942 C23.8049836,9.33613805 23.0338175,8.57159194 22.0821406,8.57159194 L20.7185437,8.57159194 C19.7677546,8.57159194 18.9968844,9.33613805 18.9968844,10.2782942 L18.9968844,21.514325 L17.738043,20.263998 C17.0612752,19.5914915 15.9625263,19.5938439 15.2842788,20.2678207 L14.3112958,21.2337954 C13.6330483,21.9086544 13.6309769,22.999897 14.3080406,23.6724035 L20.1693172,29.497657 C20.5087368,29.8349395 20.9552792,30.0022575 21.4012299,30 C21.8471805,30.0019635 22.2928352,29.8349395 22.6325507,29.497363 L28.4944192,23.6724035 C29.1700033,23.0004851 29.1685237,21.9086544 28.4899804,21.2340894 Z" id="Path"></path>
            <path d="M0.510204313,8.7656609 L1.48289155,9.73222367 C2.16143486,10.4062005 3.25988786,10.4082589 3.93665565,9.73634046 L5.195497,8.48571939 L5.195497,19.7220443 C5.195497,20.6644943 5.9666631,21.4287465 6.91804414,21.4287465 L8.28193689,21.4287465 C9.233022,21.4287465 10.0041881,20.6644943 10.0041881,19.7220443 L10.0041881,8.48571939 L11.2627335,9.73604638 C11.9395013,10.408553 13.0382503,10.4062005 13.7164976,9.73192959 L14.6891848,8.7656609 C15.3674323,8.09139001 15.3692078,7.00014741 14.69244,6.3273468 L8.8311634,0.502387311 C8.49174378,0.165398893 8.04520133,-0.00221314741 7.59954663,0 C7.1533001,-0.00162503498 6.7076454,0.165398893 6.36763395,0.502681367 L0.50606144,6.3273468 C-0.170114508,6.9995593 -0.16863491,8.09139001 0.510204313,8.7656609 Z" id="Path"></path>
        </g>
    </g>
</svg>