<?xml version="1.0" encoding="UTF-8"?>
<svg width="30px" height="30px" viewBox="0 0 30 30" version="1.1" xmlns="http://www.w3.org/2000/svg" xmlns:xlink="http://www.w3.org/1999/xlink">
    <title>phone</title>
    <g id="phone" stroke="none" stroke-width="1" fill="none" fill-rule="evenodd">
        <path d="M27,21.9545455 C27,22.2613636 26.9431818,22.6619318 26.8295455,23.15625 C26.7159091,23.6505682 26.5965909,24.0397727 26.4715909,24.3238636 C26.2329545,24.8920455 25.5397727,25.4943182 24.3920455,26.1306818 C23.3238636,26.7102273 22.2670455,27 21.2215909,27 C20.9147727,27 20.6164773,26.9801136 20.3267045,26.9403409 C20.0369318,26.9005682 19.7102273,26.8295455 19.3465909,26.7272727 C18.9829545,26.625 18.7130682,26.5426136 18.5369318,26.4801136 C18.3607955,26.4176136 18.0454545,26.3011364 17.5909091,26.1306818 C17.1363636,25.9602273 16.8579545,25.8579545 16.7556818,25.8238636 C15.6420455,25.4261364 14.6477273,24.9545455 13.7727273,24.4090909 C12.3181818,23.5113636 10.8153409,22.2869318 9.26420455,20.7357955 C7.71306818,19.1846591 6.48863636,17.6818182 5.59090909,16.2272727 C5.04545455,15.3522727 4.57386364,14.3579545 4.17613636,13.2443182 C4.14204545,13.1420455 4.03977273,12.8636364 3.86931818,12.4090909 C3.69886364,11.9545455 3.58238636,11.6392045 3.51988636,11.4630682 C3.45738636,11.2869318 3.375,11.0170455 3.27272727,10.6534091 C3.17045455,10.2897727 3.09943182,9.96306818 3.05965909,9.67329545 C3.01988636,9.38352273 3,9.08522727 3,8.77840909 C3,7.73295455 3.28977273,6.67613636 3.86931818,5.60795455 C4.50568182,4.46022727 5.10795455,3.76704545 5.67613636,3.52840909 C5.96022727,3.40340909 6.34943182,3.28409091 6.84375,3.17045455 C7.33806818,3.05681818 7.73863636,3 8.04545455,3 C8.20454545,3 8.32386364,3.01704545 8.40340909,3.05113636 C8.60795455,3.11931818 8.90909091,3.55113636 9.30681818,4.34659091 C9.43181818,4.5625 9.60227273,4.86931818 9.81818182,5.26704545 C10.0340909,5.66477273 10.2329545,6.02556818 10.4147727,6.34943182 C10.5965909,6.67329545 10.7727273,6.97727273 10.9431818,7.26136364 C10.9772727,7.30681818 11.0767045,7.44886364 11.2414773,7.6875 C11.40625,7.92613636 11.5284091,8.12784091 11.6079545,8.29261364 C11.6875,8.45738636 11.7272727,8.61931818 11.7272727,8.77840909 C11.7272727,9.00568182 11.5653409,9.28977273 11.2414773,9.63068182 C10.9176136,9.97159091 10.5653409,10.2840909 10.1846591,10.5681818 C9.80397727,10.8522727 9.45170455,11.1534091 9.12784091,11.4715909 C8.80397727,11.7897727 8.64204545,12.0511364 8.64204545,12.2556818 C8.64204545,12.3579545 8.67045455,12.4857955 8.72727273,12.6392045 C8.78409091,12.7926136 8.83238636,12.9090909 8.87215909,12.9886364 C8.91193182,13.0681818 8.99147727,13.2045455 9.11079545,13.3977273 C9.23011364,13.5909091 9.29545455,13.6988636 9.30681818,13.7215909 C10.1704545,15.2784091 11.1590909,16.6136364 12.2727273,17.7272727 C13.3863636,18.8409091 14.7215909,19.8295455 16.2784091,20.6931818 C16.3011364,20.7045455 16.4090909,20.7698864 16.6022727,20.8892045 C16.7954545,21.0085227 16.9318182,21.0880682 17.0113636,21.1278409 C17.0909091,21.1676136 17.2073864,21.2159091 17.3607955,21.2727273 C17.5142045,21.3295455 17.6420455,21.3579545 17.7443182,21.3579545 C17.9488636,21.3579545 18.2102273,21.1960227 18.5284091,20.8721591 C18.8465909,20.5482955 19.1477273,20.1960227 19.4318182,19.8153409 C19.7159091,19.4346591 20.0284091,19.0823864 20.3693182,18.7585227 C20.7102273,18.4346591 20.9943182,18.2727273 21.2215909,18.2727273 C21.3806818,18.2727273 21.5426136,18.3125 21.7073864,18.3920455 C21.8721591,18.4715909 22.0738636,18.59375 22.3125,18.7585227 C22.5511364,18.9232955 22.6931818,19.0227273 22.7386364,19.0568182 C23.0227273,19.2272727 23.3267045,19.4034091 23.6505682,19.5852273 C23.9744318,19.7670455 24.3352273,19.9659091 24.7329545,20.1818182 C25.1306818,20.3977273 25.4375,20.5681818 25.6534091,20.6931818 C26.4488636,21.0909091 26.8806818,21.3920455 26.9488636,21.5965909 C26.9829545,21.6761364 27,21.7954545 27,21.9545455 Z" id="Path" fill="#08b3d1" fill-rule="nonzero"></path>
    </g>
</svg>