<?xml version="1.0" encoding="UTF-8"?>
<svg width="30px" height="30px" viewBox="0 0 30 30" version="1.1" xmlns="http://www.w3.org/2000/svg" xmlns:xlink="http://www.w3.org/1999/xlink">
    <title>whatapp</title>
    <defs>
        <linearGradient x1="50.0403135%" y1="0.0358342665%" x2="50.0403135%" y2="99.9193729%" id="linearGradient-1">
            <stop stop-color="#62FA7F" offset="0%"></stop>
            <stop stop-color="#22CC40" offset="68.65%"></stop>
            <stop stop-color="#05B723" offset="100%"></stop>
        </linearGradient>
    </defs>
    <g id="whatapp" stroke="none" stroke-width="1" fill="none" fill-rule="evenodd">
        <g id="2697647_apple_call_messages_whatsapp_chat_icon" transform="translate(2.000000, 1.000000)" fill-rule="nonzero">
            <path d="M20.0588669,15.8450704 C19.7203206,15.6760563 18.0275892,14.8732394 17.7313612,14.7464789 C17.4351332,14.6197183 17.1812235,14.5774648 16.9696321,14.915493 C16.7580407,15.2535211 16.0809481,16.0140845 15.911675,16.2253521 C15.7000836,16.4366197 15.5308104,16.4788732 15.1922642,16.3098592 C14.8537179,16.1408451 13.7534425,15.8028169 12.4415757,14.6619718 C11.4259368,13.7746479 10.7488443,12.6760563 10.5372529,12.3380282 C10.3256614,12 10.5372529,11.8309859 10.706526,11.6619718 C10.8757991,11.4929577 11.0450723,11.2816901 11.2143454,11.0704225 C11.3836186,10.8591549 11.4259368,10.7323944 11.5528917,10.5211268 C11.6798465,10.3098592 11.59521,10.0985915 11.5105734,9.92957746 C11.4259368,9.76056338 10.7488443,8.11267606 10.4526163,7.43661972 C10.1563883,6.8028169 9.90247859,6.88732394 9.69088717,6.84507042 C9.47929575,6.84507042 9.26770432,6.84507042 9.0561129,6.84507042 C8.84452148,6.84507042 8.46365692,6.92957746 8.16742892,7.26760563 C7.87120093,7.6056338 6.98251696,8.4084507 6.98251696,10.056338 C6.98251696,11.7042254 8.20974721,13.2676056 8.37902035,13.5211268 C8.54829349,13.7323944 10.7911626,17.1126761 14.1766253,18.5492958 C14.9806727,18.8873239 15.615447,19.0985915 16.1232664,19.2676056 C16.9273138,19.5211268 17.689043,19.4788732 18.2814989,19.3943662 C18.9162732,19.3098592 20.3127766,18.5915493 20.5666863,17.8309859 C20.8629143,17.0704225 20.8629143,16.3943662 20.7782777,16.2676056 C20.6090046,16.0985915 20.3974132,16.0140845 20.0588669,15.8450704 M13.5841694,24.5492958 L13.5841694,24.5492958 C11.5528917,24.5492958 9.6062506,24 7.87120093,22.9859155 L7.44801809,22.7323944 L3.21618963,23.8309859 L4.35878331,19.7323944 L4.1048736,19.3098592 C3.00459821,17.5352113 2.41214222,15.5070423 2.41214222,13.3943662 C2.41214222,7.26760563 7.44801809,2.28169014 13.6264876,2.28169014 C16.5464493,2.28169014 19.3817743,3.42253521 21.4976886,5.53521127 C23.6136028,7.64788732 24.7561965,10.4366197 24.7561965,13.3943662 C24.7561965,19.5211268 19.7203206,24.5492958 13.5841694,24.5492958 M23.1057834,3.92957746 C20.5666863,1.3943662 17.1812235,0 13.5841694,0 C6.17846955,0 0.126954854,6 0.126954854,13.3943662 C0.126954854,15.7605634 0.761729123,18.0422535 1.90432281,20.0704225 L0,27 L7.10947181,25.1408451 C9.0561129,26.1971831 11.298982,26.7887324 13.5418511,26.7887324 L13.5418511,26.7887324 L13.5418511,26.7887324 C20.9475509,26.7887324 26.9990656,20.7887324 26.9990656,13.3943662 C27.0413838,9.84507042 25.6448805,6.46478873 23.1057834,3.92957746" id="WhatsApp-Icon" stroke="#EFEFEF" stroke-width="1.176" fill="#FFFFFF"></path>
            <path d="M20.0588669,15.8450704 C19.7203206,15.6760563 18.0275892,14.8732394 17.7313612,14.7464789 C17.4351332,14.6197183 17.1812235,14.5774648 16.9696321,14.915493 C16.7580407,15.2535211 16.0809481,16.0140845 15.911675,16.2253521 C15.7000836,16.4366197 15.5308104,16.4788732 15.1922642,16.3098592 C14.8537179,16.1408451 13.7534425,15.8028169 12.4415757,14.6619718 C11.4259368,13.7746479 10.7488443,12.6760563 10.5372529,12.3380282 C10.3256614,12 10.5372529,11.8309859 10.706526,11.6619718 C10.8757991,11.4929577 11.0450723,11.2816901 11.2143454,11.0704225 C11.3836186,10.8591549 11.4259368,10.7323944 11.5528917,10.5211268 C11.6798465,10.3098592 11.59521,10.0985915 11.5105734,9.92957746 C11.4259368,9.76056338 10.7488443,8.11267606 10.4526163,7.43661972 C10.1563883,6.8028169 9.90247859,6.88732394 9.69088717,6.84507042 C9.47929575,6.84507042 9.26770432,6.84507042 9.0561129,6.84507042 C8.84452148,6.84507042 8.46365692,6.92957746 8.16742892,7.26760563 C7.87120093,7.6056338 6.98251696,8.4084507 6.98251696,10.056338 C6.98251696,11.7042254 8.20974721,13.2676056 8.37902035,13.5211268 C8.54829349,13.7323944 10.7911626,17.1126761 14.1766253,18.5492958 C14.9806727,18.8873239 15.615447,19.0985915 16.1232664,19.2676056 C16.9273138,19.5211268 17.689043,19.4788732 18.2814989,19.3943662 C18.9162732,19.3098592 20.3127766,18.5915493 20.5666863,17.8309859 C20.8629143,17.0704225 20.8629143,16.3943662 20.7782777,16.2676056 C20.6090046,16.0985915 20.3974132,16.0140845 20.0588669,15.8450704 M13.5841694,24.5492958 L13.5841694,24.5492958 C11.5528917,24.5492958 9.6062506,24 7.87120093,22.9859155 L7.44801809,22.7323944 L3.21618963,23.8309859 L4.35878331,19.7323944 L4.1048736,19.3098592 C3.00459821,17.5352113 2.41214222,15.5070423 2.41214222,13.3943662 C2.41214222,7.26760563 7.44801809,2.28169014 13.6264876,2.28169014 C16.5464493,2.28169014 19.3817743,3.42253521 21.4976886,5.53521127 C23.6136028,7.64788732 24.7561965,10.4366197 24.7561965,13.3943662 C24.7561965,19.5211268 19.7203206,24.5492958 13.5841694,24.5492958" id="WhatsApp-Icon" fill="url(#linearGradient-1)"></path>
            <path d="M20.0588669,15.8450704 C19.7203206,15.6760563 18.0275892,14.8732394 17.7313612,14.7464789 C17.4351332,14.6197183 17.1812235,14.5774648 16.9696321,14.915493 C16.7580407,15.2535211 16.0809481,16.0140845 15.911675,16.2253521 C15.7000836,16.4366197 15.5308104,16.4788732 15.1922642,16.3098592 C14.8537179,16.1408451 13.7534425,15.8028169 12.4415757,14.6619718 C11.4259368,13.7746479 10.7488443,12.6760563 10.5372529,12.3380282 C10.3256614,12 10.5372529,11.8309859 10.706526,11.6619718 C10.8757991,11.4929577 11.0450723,11.2816901 11.2143454,11.0704225 C11.3836186,10.8591549 11.4259368,10.7323944 11.5528917,10.5211268 C11.6798465,10.3098592 11.59521,10.0985915 11.5105734,9.92957746 C11.4259368,9.76056338 10.7488443,8.11267606 10.4526163,7.43661972 C10.1563883,6.8028169 9.90247859,6.88732394 9.69088717,6.84507042 C9.47929575,6.84507042 9.26770432,6.84507042 9.0561129,6.84507042 C8.84452148,6.84507042 8.46365692,6.92957746 8.16742892,7.26760563 C7.87120093,7.6056338 6.98251696,8.4084507 6.98251696,10.056338 C6.98251696,11.7042254 8.20974721,13.2676056 8.37902035,13.5211268 C8.54829349,13.7323944 10.7911626,17.1126761 14.1766253,18.5492958 C14.9806727,18.8873239 15.615447,19.0985915 16.1232664,19.2676056 C16.9273138,19.5211268 17.689043,19.4788732 18.2814989,19.3943662 C18.9162732,19.3098592 20.3127766,18.5915493 20.5666863,17.8309859 C20.8629143,17.0704225 20.8629143,16.3943662 20.7782777,16.2676056 C20.6090046,16.0985915 20.3974132,16.0140845 20.0588669,15.8450704 M13.5841694,24.5492958 L13.5841694,24.5492958 C11.5528917,24.5492958 9.6062506,24 7.87120093,22.9859155 L7.44801809,22.7323944 L3.21618963,23.8309859 L4.35878331,19.7323944 L4.1048736,19.3098592 C3.00459821,17.5352113 2.41214222,15.5070423 2.41214222,13.3943662 C2.41214222,7.26760563 7.44801809,2.28169014 13.6264876,2.28169014 C16.5464493,2.28169014 19.3817743,3.42253521 21.4976886,5.53521127 C23.6136028,7.64788732 24.7561965,10.4366197 24.7561965,13.3943662 C24.7561965,19.5211268 19.7203206,24.5492958 13.5841694,24.5492958 M23.1057834,3.92957746 C20.5666863,1.3943662 17.1812235,0 13.5841694,0 C6.17846955,0 0.126954854,6 0.126954854,13.3943662 C0.126954854,15.7605634 0.761729123,18.0422535 1.90432281,20.0704225 L0,27 L7.10947181,25.1408451 C9.0561129,26.1971831 11.298982,26.7887324 13.5418511,26.7887324 L13.5418511,26.7887324 L13.5418511,26.7887324 C20.9475509,26.7887324 26.9990656,20.7887324 26.9990656,13.3943662 C27.0413838,9.84507042 25.6448805,6.46478873 23.1057834,3.92957746" id="WhatsApp-Icon" fill="#FFFFFF"></path>
        </g>
    </g>
</svg>