<?xml version="1.0" encoding="UTF-8"?>
<svg width="40px" height="40px" viewBox="0 0 40 40" version="1.1" xmlns="http://www.w3.org/2000/svg" xmlns:xlink="http://www.w3.org/1999/xlink">
    <title>drink</title>
    <g id="drink" stroke="none" stroke-width="1" fill="none" fill-rule="evenodd">
        <path d="M32.8937063,4 C33.5991111,4 34.1647059,4.56416686 34.1647059,5.24743561 C34.1647059,5.9432414 33.5927561,6.50113973 32.8937063,6.50113973 L29.6018173,6.50113973 L26.9200082,12.5690677 L29.1887425,12.5690677 C30.2055421,12.5690677 30.713942,13.7851607 29.9958272,14.4935035 L19.1287806,25.2064053 L19.1287806,34.2518806 L23.5010193,34.2518806 C24.0411941,34.2518806 24.4860439,34.690677 24.4860439,35.2235013 C24.4860439,35.7563255 24.0411941,36.195122 23.5010193,36.195122 L12.8246226,36.195122 C12.2844478,36.195122 11.8395979,35.7563255 11.8395979,35.2235013 C11.8395979,34.690677 12.2844478,34.2518806 12.8246226,34.2518806 L17.1968613,34.2518806 L17.1968613,25.2126738 L6.33616969,14.4997721 C5.61805491,13.7851607 6.12645475,12.5753362 7.14325443,12.5753362 L24.155584,12.5753362 L27.606348,4.75222248 C27.8097079,4.29462047 28.2672677,4 28.7693126,4 Z M20.5205252,8.68885343 C22.0774997,8.68885343 23.3421443,9.93628904 23.3421443,11.4720766 C23.3421443,11.5598359 23.3230793,11.6475952 23.3167243,11.7353545 L17.7243261,11.7353545 C17.7179711,11.6475952 17.6989061,11.5661044 17.6989061,11.4720766 C17.6989061,9.93628904 18.9635507,8.68885343 20.5205252,8.68885343 Z" id="Combined-Shape" fill="#7F7F7F" fill-rule="nonzero"></path>
    </g>
</svg>