<svg width="16" height="16" viewBox="0 0 16 16" fill="none" xmlns="http://www.w3.org/2000/svg">
<circle cx="8" cy="8.2" r="6" fill="#797979"/>
<path d="M7.54375 12.5V6.5H8.46562V12.5H7.54375ZM8.0125 5.5C7.83281 5.5 7.67786 5.4388 7.54765 5.31641C7.42005 5.19401 7.35625 5.04688 7.35625 4.875C7.35625 4.70313 7.42005 4.55599 7.54765 4.43359C7.67786 4.3112 7.83281 4.25 8.0125 4.25C8.19218 4.25 8.34583 4.3112 8.47343 4.43359C8.60364 4.55599 8.66875 4.70313 8.66875 4.875C8.66875 5.04688 8.60364 5.19401 8.47343 5.31641C8.34583 5.4388 8.19218 5.5 8.0125 5.5Z" fill="white"/>
</svg>
