<?xml version="1.0" encoding="UTF-8"?>
<svg width="40px" height="40px" viewBox="0 0 40 40" version="1.1" xmlns="http://www.w3.org/2000/svg" xmlns:xlink="http://www.w3.org/1999/xlink">
    <title>meal</title>
    <g id="meal" stroke="none" stroke-width="1" fill="none" fill-rule="evenodd">
        <path d="M38.0914425,29.2609462 L37.1930732,29.2609462 C36.1035233,29.2609462 36.1454752,28.1978376 36.1454752,28.1978376 C36.1454752,28.1978376 36.1382834,28.2002914 36.1364855,28.2002914 C35.5299814,21.9578253 31.5571397,16.7422744 26.0986027,14.4706694 C26.0830205,14.4626946 26.0722329,14.4547197 26.0566508,14.4473583 C25.1714664,14.0510697 25.1504905,13.1634077 25.1504905,13.1634077 L25.1504905,10.7807683 C25.1504905,9.24591672 23.9356843,8 22.4344068,8 L17.5661925,8 C16.0661136,8 14.8495095,9.24591672 14.8495095,10.7807683 L14.8495095,13.5173683 C14.8249377,13.7467986 14.6924897,14.1277509 14.1135539,14.3786519 C14.0763966,14.3952151 14.0482289,14.4111648 14.0182633,14.4252741 C8.51357916,16.6662066 4.49339179,21.8897324 3.86711037,28.1567364 L3.85991862,28.1542826 C3.85991862,28.1542826 3.77002176,29.2609462 2.73680724,29.2609462 L2.06437877,29.2609462 C1.85102356,29.2658538 1,29.3425351 1,30.2406257 L1,30.9589755 C1.01258556,31.2669274 1.14323566,32 2.12850519,32 L37.8289436,32 C38.8052235,32 38.9748289,31.3534238 39,31.0295223 L39,30.29829 C39,29.4345526 38.3970918,29.282417 38.0914425,29.2609462 Z M23.1889411,12.424814 C23.1835473,12.6468829 23.1008422,13.4670654 22.0957954,13.3713672 C22.0406586,13.3658462 22.0041006,13.3676865 21.9669432,13.3695269 C21.3208845,13.287938 20.6688326,13.233341 20,13.233341 C19.2394726,13.233341 18.495726,13.3087953 17.7621676,13.4149222 C17.7112261,13.4124684 17.6524935,13.4149222 17.5799767,13.4241239 C16.7822919,13.521049 16.6426521,13.0094318 16.6234741,12.7468752 L16.6234741,11.4801012 C16.6234741,10.5010352 17.3977857,9.70723104 18.3548876,9.70723104 L21.458127,9.70723104 C22.4146295,9.70723104 23.1895404,10.5010352 23.1895404,11.4801012 L23.1895404,12.424814 L23.1889411,12.424814 Z M30.6174179,29.2474503 L29.2455919,29.2474503 C28.5437971,29.2474503 28.365202,28.8615904 28.3244488,28.5916724 C28.3244488,28.5272602 28.3214522,28.4389234 28.3178564,28.3346369 L28.3178564,28.3346369 L28.3178564,28.3346369 C28.27111,26.9249291 27.9187143,22.0872632 25.3057124,18.2605628 L25.318298,18.2599494 L25.0162445,17.7360632 C24.9838817,17.5434399 24.9952686,17.2630933 25.4567391,17.6563147 C27.7215405,19.6537075 31.0692994,23.4577103 31.2616787,28.6505636 C31.2490931,28.8756997 31.1514052,29.2474503 30.6174179,29.2474503 Z" id="Shape" fill="#7F7F7F" fill-rule="nonzero"></path>
    </g>
</svg>