<?xml version="1.0" encoding="UTF-8"?>
<svg width="40px" height="40px" viewBox="0 0 40 40" version="1.1" xmlns="http://www.w3.org/2000/svg" xmlns:xlink="http://www.w3.org/1999/xlink">
    <title>shower</title>
    <g id="shower" stroke="none" stroke-width="1" fill="none" fill-rule="evenodd">
        <path d="M30.4588235,15.032596 L9,15.032596 C9,11.9633557 11.4018385,9.47505843 14.3647841,9.47505843 L17.0471762,9.47505843 L17.0471762,1 L22.4119603,1 L22.4119603,9.47522053 L24.9602562,9.47522053 L24.9602562,9.47878659 C25.0050071,9.47765193 25.0492885,9.47522053 25.0943524,9.47522053 C28.0571415,9.47522053 30.4588235,11.9633557 30.4588235,15.032596 Z M19.7294118,17.6724507 C18.9886754,17.6724507 18.388294,18.2945655 18.388294,19.0619162 C18.388294,19.8292668 18.9886754,20.4512195 19.7294118,20.4512195 C20.4701482,20.4512195 21.0705296,19.8292668 21.0705296,19.0619162 C21.0705296,18.2945655 20.4701482,17.6724507 19.7294118,17.6724507 Z M19.7294118,23.2299883 C18.9886754,23.2299883 18.388294,23.8519411 18.388294,24.6192917 C18.388294,25.3866423 18.9886754,26.0087571 19.7294118,26.0087571 C20.4701482,26.0087571 21.0705296,25.3866423 21.0705296,24.6192917 C21.0705296,23.8519411 20.4701482,23.2299883 19.7294118,23.2299883 Z M19.7294118,30.1768293 C18.9886754,30.1768293 18.388294,30.798782 18.388294,31.5661326 C18.388294,32.3334832 18.9886754,32.955436 19.7294118,32.955436 C20.4701482,32.955436 21.0705296,32.3334832 21.0705296,31.5661326 C21.0705296,30.798782 20.4701482,30.1768293 19.7294118,30.1768293 Z M19.7294118,37.1236702 C18.9886754,37.1236702 18.388294,37.745623 18.388294,38.5129736 C18.388294,39.2803242 18.9886754,39.902439 19.7294118,39.902439 C20.4701482,39.902439 21.0705296,39.2804863 21.0705296,38.5131357 C21.0705296,37.7457851 20.4701482,37.1236702 19.7294118,37.1236702 Z M24.8180236,17.7029243 C24.0930908,17.8611275 23.6293091,18.5978425 23.7820253,19.3486596 C23.9347416,20.0996387 24.6459048,20.5802459 25.3709941,20.4218806 C26.0956139,20.2636773 26.5593956,19.5269624 26.4068359,18.7759832 C26.2541196,18.0253283 25.5427999,17.544721 24.8180236,17.7029243 Z M25.9238081,23.140999 C25.1988754,23.2992022 24.7349372,24.0362414 24.8879664,24.7867342 C25.0405261,25.5378755 25.7518459,26.0183206 26.4767786,25.8602795 C27.2013985,25.7019141 27.6651802,24.9651992 27.5126204,24.2143821 C27.3597477,23.4632409 26.6485844,22.9827957 25.9238081,23.140999 Z M27.3059215,29.938876 C26.5811452,30.0970793 26.117207,30.8337942 26.2699232,31.5847734 C26.422796,32.3355904 27.1339592,32.8160356 27.8587355,32.6578323 C28.5836683,32.499467 29.0476065,31.7629141 28.8947338,31.0120971 C28.742174,30.26128 28.0308542,29.7808349 27.3059215,29.938876 Z M28.6881913,36.736591 C27.9632585,36.8947942 27.4993203,37.6315091 27.652193,38.3823262 C27.8049093,39.1333054 28.5160726,39.6137505 29.2410053,39.4555473 C29.9659381,39.297344 30.4297198,38.5606291 30.2770036,37.809812 C30.1244438,37.0586707 29.4129676,36.5780635 28.6881913,36.736591 Z M13.0519877,18.7761453 C12.8992714,19.5271245 13.3632096,20.2638394 14.0879859,20.4220427 C14.8127622,20.580408 15.524082,20.0998008 15.6769547,19.3488216 C15.8295144,18.5980046 15.3657327,17.8611275 14.6409564,17.7030864 C13.9160237,17.544721 13.2045475,18.0253283 13.0519877,18.7761453 Z M11.9462031,24.2143821 C11.7934869,24.9651992 12.2574251,25.7020762 12.9822014,25.8602795 C13.7069777,26.0183206 14.4182974,25.5378755 14.5710136,24.7867342 C14.7238864,24.0362414 14.2599482,23.2990401 13.5351719,23.140999 C12.8102391,22.9827957 12.0989194,23.4632409 11.9462031,24.2143821 Z M10.5640898,31.0120971 C10.4113735,31.7629141 10.8753117,32.4996291 11.600088,32.6578323 C12.3248643,32.8160356 13.036184,32.3355904 13.1889003,31.5847734 C13.3416165,30.8337942 12.8776784,30.0969172 12.1529021,29.938876 C11.4279693,29.7808349 10.716806,30.26128 10.5640898,31.0120971 Z M9.18181996,37.809812 C9.02910371,38.5607912 9.49304191,39.2975061 10.2178182,39.4555473 C10.942751,39.6137505 11.6539142,39.1333054 11.8066305,38.3823262 C11.9593467,37.6315091 11.495565,36.8946321 10.7706322,36.736591 C10.0458559,36.5780635 9.33453621,37.0586707 9.18181996,37.809812 Z" id="Shape" fill="#7F7F7F" fill-rule="nonzero"></path>
    </g>
</svg>