<?xml version="1.0" encoding="UTF-8"?>
<svg width="40px" height="40px" viewBox="0 0 40 40" version="1.1" xmlns="http://www.w3.org/2000/svg" xmlns:xlink="http://www.w3.org/1999/xlink">
    <title>smoke</title>
    <g id="smoke" stroke="none" stroke-width="1" fill="none" fill-rule="evenodd">
        <path d="M26.4061559,7.93814027 L26.4570088,7.98725384 C26.45265,8.06555082 26.4330353,8.13886528 26.4330353,8.21858585 C26.4330353,9.2279052 26.8093471,10.1418446 27.4123176,10.8678712 L27.4028735,10.8778363 L27.4994941,10.9725044 C27.6338912,11.1241159 27.7777324,11.2650505 27.9331971,11.3974435 L32.6312824,16.0005946 L32.6305559,16.019813 C32.7293559,16.1401056 32.8804618,16.325883 32.9552882,16.4219748 C32.9698176,16.4404813 32.9850735,16.4568525 32.9974235,16.4760709 C33.3061735,16.9052807 33.4892441,17.4149229 33.4892441,17.9708316 C33.4892441,18.7352949 33.1412647,19.4072254 32.6051294,19.8834134 L32.6138471,19.8891078 L29.5713882,22.7583365 C29.5815588,22.6416028 29.6062588,22.531987 29.6062588,22.4138297 C29.6062588,21.1126761 28.9923912,19.9617104 28.0465265,19.1879938 L24.5551088,15.767839 L23.38985,14.7072708 L23.3971147,14.6973057 C22.8813206,14.2090172 22.5507765,13.5370867 22.5493235,12.7790295 C22.5493235,12.0586972 22.8537147,11.4195091 23.3281,10.9397621 C23.3259206,10.9383385 23.3164765,10.9312206 23.3164765,10.9312206 L25.4508471,8.87414517 L26.4061559,7.93814027 Z M33.3483088,7 L33.3802735,7.0313188 C33.3780941,7.08043236 33.3650176,7.12812234 33.3650176,7.1779477 C33.3650176,7.82211837 33.6047529,8.40578683 33.9905088,8.87058622 L34.0457206,8.93820634 C34.1314441,9.0342981 34.2229794,9.12398374 34.3225059,9.20868684 L37.3228294,12.1483828 L37.3221029,12.1604833 C37.3860324,12.2373567 37.4826529,12.3562258 37.5298735,12.4174398 C37.5393176,12.4295402 37.5487618,12.4402171 37.5567529,12.4516057 C37.7543529,12.7249334 37.8705882,13.0509336 37.8705882,13.406829 C37.8705882,13.8944057 37.6482882,14.3243273 37.3053941,14.628262 L35.3678971,16.4632587 C35.3744353,16.3892324 35.3904176,16.3187651 35.3904176,16.2433153 C35.3904176,15.4126554 34.9981235,14.6780873 34.3937,14.1833927 L32.1641618,11.9989068 L31.4202559,11.3219937 C31.09625,11.004535 30.8841206,10.5746134 30.8841206,10.0920192 C30.8841206,9.63149058 31.0795412,9.22363445 31.3817529,8.91614083 L32.7380735,7.59719248 L33.3483088,7 Z M3,27.0938542 L12.1004971,27.0938542 L12.1004971,32.4878049 L3,32.4878049 L3,27.0938542 Z M13.9355618,27.0938542 L37.8705882,27.0938542 L37.8705882,32.4878049 L13.9355618,32.4878049 L13.9355618,27.0938542 Z" id="Combined-Shape" fill="#7F7F7F" fill-rule="nonzero"></path>
    </g>
</svg>