<?xml version="1.0" encoding="UTF-8"?>
<svg width="40px" height="40px" viewBox="0 0 40 40" version="1.1" xmlns="http://www.w3.org/2000/svg" xmlns:xlink="http://www.w3.org/1999/xlink">
    <title>tv</title>
    <g id="tv" stroke="none" stroke-width="1" fill="none" fill-rule="evenodd">
        <path d="M30.08,10.9072952 L23.3084,10.9072952 L26.7015765,7.52884385 C27.0757975,7.15461977 27.2219474,6.60917631 27.084973,6.09797672 C26.9479986,5.58677713 26.5487096,5.1874848 26.0375142,5.05050928 C25.5263188,4.91353377 24.9808798,5.0596849 24.6066588,5.43390897 L19.7529412,10.3024196 L14.8992235,5.43390897 C14.5250025,5.05968489 13.9795635,4.91353375 13.4683682,5.05050926 C12.9571728,5.18748478 12.5578837,5.58677712 12.4209093,6.09797671 C12.2839349,6.6091763 12.4300849,7.15461978 12.8043059,7.52884385 L16.1974824,10.9072952 L9.42588235,10.9072952 C6.98153502,10.9072952 5,12.8888465 5,15.3332139 L5,30.0862764 C5,32.5306438 6.98153502,34.5121951 9.42588235,34.5121951 L30.08,34.5121951 C32.5243473,34.5121951 34.5058824,32.5306438 34.5058824,30.0862764 L34.5058824,15.3332139 C34.5058824,12.8888465 32.5243473,10.9072952 30.08,10.9072952 Z M25.6541176,25.6603576 C25.6541176,27.2899359 24.3330943,28.6109701 22.7035294,28.6109701 L10.9011765,28.6109701 C9.27161159,28.6109701 7.95058824,27.2899359 7.95058824,25.6603576 L7.95058824,16.8085201 C7.95058824,15.1789419 9.27161159,13.8579076 10.9011765,13.8579076 L22.7035294,13.8579076 C24.3330943,13.8579076 25.6541176,15.1789419 25.6541176,16.8085201 L25.6541176,25.6603576 Z M30.08,30.0862764 C29.2652176,30.0862764 28.6047059,29.4257593 28.6047059,28.6109701 C28.6047059,27.796181 29.2652176,27.1356639 30.08,27.1356639 C30.8947824,27.1356639 31.5552941,27.796181 31.5552941,28.6109701 C31.5552941,29.4257593 30.8947824,30.0862764 30.08,30.0862764 Z M30.08,24.1850514 C29.2652176,24.1850514 28.6047059,23.5245343 28.6047059,22.7097451 C28.6047059,21.894956 29.2652176,21.2344389 30.08,21.2344389 C30.8947824,21.2344389 31.5552941,21.894956 31.5552941,22.7097451 C31.5552941,23.5245343 30.8947824,24.1850514 30.08,24.1850514 Z M30.08,18.2838264 C29.2652176,18.2838264 28.6047059,17.6233093 28.6047059,16.8085201 C28.6047059,15.993731 29.2652176,15.3332139 30.08,15.3332139 C30.8947824,15.3332139 31.5552941,15.993731 31.5552941,16.8085201 C31.5552941,17.6233093 30.8947824,18.2838264 30.08,18.2838264 Z" id="Shape" fill="#7F7F7F" fill-rule="nonzero"></path>
    </g>
</svg>