<?xml version="1.0" encoding="UTF-8"?>
<svg width="40px" height="40px" viewBox="0 0 40 40" version="1.1" xmlns="http://www.w3.org/2000/svg" xmlns:xlink="http://www.w3.org/1999/xlink">
    <title>wifi</title>
    <g id="wifi" stroke="none" stroke-width="1" fill="none" fill-rule="evenodd">
        <path d="M7.36033165,17.4100385 L4,13.9057125 C8.12037952,9.6378819 13.7946526,7 20.060521,7 C26.3611261,7 32.0630275,9.66682927 36.1882353,13.9760334 L32.8354143,17.4728755 C29.5460311,14.1055199 25.0411347,12.0252632 20.0673611,12.0252632 C15.1247028,12.0252632 10.6446183,14.0796791 7.36033165,17.4100385 Z M20.0806388,21.4962773 C22.5340631,21.4962773 24.75895,22.5090116 26.3980086,24.1533633 L29.7505614,20.6565212 C27.2756782,18.0711682 23.8543227,16.4710141 20.0742011,16.4710141 C16.3147337,16.4710141 12.9100089,18.0536585 10.4376739,20.6143004 L13.7980055,24.1189089 C15.4331747,22.4950321 17.6442474,21.4962773 20.0806388,21.4962773 Z M20.1809592,27.8518485 C18.5983644,27.8518485 17.3152555,29.189923 17.3152555,30.8404878 C17.3152555,32.4910526 18.5982302,33.8292683 20.1809592,33.8292683 C21.7634199,33.8292683 23.0463947,32.4910526 23.0463947,30.8404878 C23.0463947,29.189923 21.763554,27.8518485 20.1809592,27.8518485 Z" id="Shape" fill="#7F7F7F" fill-rule="nonzero"></path>
    </g>
</svg>