<?xml version="1.0" encoding="UTF-8"?>
<svg width="130px" height="130px" viewBox="0 0 130 130" version="1.1" xmlns="http://www.w3.org/2000/svg" xmlns:xlink="http://www.w3.org/1999/xlink">
    <title>Group 20</title>
    <g id="Page-1" stroke="none" stroke-width="1" fill="none" fill-rule="evenodd">
        <g id="26-Download-App-Notification" transform="translate(-410.000000, -562.000000)">
            <g id="Group-20" transform="translate(410.000000, 562.000000)">
                <circle id="Oval" fill="#F6F9FA" cx="65" cy="65" r="65"></circle>
                <g id="3948664_app_development_mobile_network_smartphone_icon" transform="translate(39.385593, 27.542373)">
                    <rect id="Rectangle" fill="#E4EBF0" fill-rule="nonzero" x="0.826271186" y="0" width="52.8813559" height="76.0169492" rx="3.3"></rect>
                    <rect id="Rectangle" fill="#99E4C0" fill-rule="nonzero" x="0.826271186" y="9.91525424" width="52.8813559" height="56.1864407"></rect>
                    <path d="M9.08898305,0 L4.13135593,0 C2.30600803,0 0.826271186,1.47973684 0.826271186,3.30508475 L0.826271186,9.91525424 L9.08898305,9.91525424 L9.08898305,0 Z" id="Path" fill="#D0D7DC" fill-rule="nonzero"></path>
                    <path d="M4.13135593,76.0169492 L9.08898305,76.0169492 L9.08898305,66.1016949 L0.826271186,66.1016949 L0.826271186,72.7118644 C0.826271186,74.5372123 2.30600803,76.0169492 4.13135593,76.0169492 Z" id="Path" fill="#D0D7DC" fill-rule="nonzero"></path>
                    <rect id="Rectangle" fill="#85DBB2" fill-rule="nonzero" x="0.826271186" y="9.91525424" width="8.26271186" height="56.1864407"></rect>
                    <path d="M53.7076271,14.8728814 L53.7076271,3.30508475 C53.7021823,1.48199692 52.2256302,0.00544479845 50.4025424,0 L4.13135593,0 C2.3082681,0.00544479845 0.831715985,1.48199692 0.826271186,3.30508475 L0.826271186,14.8728814" id="Path" stroke="#3A3A3A" stroke-width="3.3" stroke-linejoin="round"></path>
                    <path d="M53.7076271,61.1440678 L53.7076271,72.7118644 C53.7021823,74.5349522 52.2256302,76.0115044 50.4025424,76.0169492 L4.13135593,76.0169492 C2.3082681,76.0115044 0.831715985,74.5349522 0.826271186,72.7118644 L0.826271186,61.1440678" id="Path" stroke="#3A3A3A" stroke-width="3.3" stroke-linejoin="round"></path>
                    <line x1="0.826271186" y1="9.91525424" x2="53.7076271" y2="9.91525424" id="Path" stroke="#3A3A3A" stroke-width="3.3" stroke-linejoin="round"></line>
                    <line x1="0.826271186" y1="66.1016949" x2="53.7076271" y2="66.1016949" id="Path" stroke="#3A3A3A" stroke-width="3.3" stroke-linejoin="round"></line>
                    <line x1="53.7076271" y1="13.7711864" x2="53.7076271" y2="63.3474576" id="Path" stroke="#3A3A3A" stroke-width="3.3" stroke-linejoin="round"></line>
                    <line x1="53.7076271" y1="38.0084746" x2="53.7076271" y2="47.9237288" id="Path" stroke="#3A3A3A" stroke-width="3.3" stroke-linejoin="round"></line>
                    <line x1="0.826271186" y1="13.7711864" x2="0.826271186" y2="52.3305085" id="Path" stroke="#3A3A3A" stroke-width="3.3" stroke-linejoin="round"></line>
                    <line x1="0.826271186" y1="45.720339" x2="0.826271186" y2="55.6355932" id="Path" stroke="#3A3A3A" stroke-width="3.3" stroke-linejoin="round"></line>
                </g>
                <g id="Group-62" transform="translate(56.186441, 51.779661)">
                    <polygon id="Path" fill="#FFB422" fill-rule="nonzero" points="20.9322034 7.93220339 10.4661017 15.8644068 0 7.93220339 10.4661017 0"></polygon>
                    <polygon id="Path" fill="#FFD24F" fill-rule="nonzero" points="20.9322034 13.220339 20.9322034 18.5084746 10.4661017 26.440678 10.4661017 15.8644068 20.9322034 7.93220339"></polygon>
                    <polygon id="Path" fill="#FFBE1E" fill-rule="nonzero" points="10.4661017 15.8644068 10.4661017 26.440678 0 18.5084746 0 13.220339 0 7.93220339"></polygon>
                    <polyline id="Path" stroke="#3A3A3A" stroke-width="2.64" stroke-linejoin="round" points="10.4661017 26.440678 0 18.5084746 0 13.220339 0 7.93220339 10.4661017 15.8644068"></polyline>
                    <polygon id="Path" stroke="#3A3A3A" stroke-width="2.64" stroke-linejoin="round" points="20.9322034 13.220339 20.9322034 18.5084746 10.4661017 26.440678 10.4661017 15.8644068 20.9322034 7.93220339"></polygon>
                    <polyline id="Path" stroke="#3A3A3A" stroke-width="2.64" stroke-linejoin="round" points="20.9322034 7.93220339 10.4661017 0 0 7.93220339"></polyline>
                </g>
            </g>
        </g>
    </g>
</svg>