<?xml version="1.0" encoding="UTF-8"?>
<svg width="34px" height="34px" viewBox="0 0 34 34" version="1.1" xmlns="http://www.w3.org/2000/svg" xmlns:xlink="http://www.w3.org/1999/xlink">
    <title>Group 39</title>
    <g id="Page-1" stroke="none" stroke-width="1" fill="none" fill-rule="evenodd">
        <g id="13-Checkout" transform="translate(-829.000000, -603.000000)">
            <g id="Group-38" transform="translate(829.000000, 249.000000)">
                <g id="Group-36" transform="translate(0.000000, 352.000000)">
                    <g id="Group-39" transform="translate(0.000000, 2.000000)">
                        <circle id="Oval" fill="#E2FAFF" cx="17" cy="17" r="17"></circle>
                        <g id="299108_gift_icon" transform="translate(8.052632, 8.052632)" fill-rule="nonzero">
                            <path d="M0.708333333,5.87712224 L0.708333333,8.06886672 L0.708333333,9.53002971 L0.708333333,14.6441002 C0.708333333,15.4477398 1.342575,16.1052632 2.125,16.1052632 L8.5,16.1052632 L14.875,16.1052632 C15.6577083,16.1052632 16.2916667,15.4477398 16.2916667,14.6441002 L16.2916667,9.53002971 L16.2916667,8.06886672 L16.2916667,5.87712224 L0.708333333,5.87712224 Z" id="Path" fill="#7A2FB3"></path>
                            <path d="M0.708333333,5.14654075 L0.708333333,7.33828523 L0.708333333,8.79944822 L0.708333333,13.9135187 C0.708333333,14.7171583 1.342575,15.3746817 2.125,15.3746817 L8.5,15.3746817 L14.875,15.3746817 C15.6577083,15.3746817 16.2916667,14.7171583 16.2916667,13.9135187 L16.2916667,8.79944822 L16.2916667,7.33828523 L16.2916667,5.14654075 L0.708333333,5.14654075 Z" id="Path" fill="#B460F4"></path>
                            <path d="M1.41666667,3.68537776 C0.634241667,3.68537776 0,4.3429011 0,5.14654075 L0,6.60770374 L17,6.60770374 L17,5.14654075 C17,4.3429011 16.3660417,3.68537776 15.5833333,3.68537776 L14.1666667,3.68537776 L9.20833333,3.68537776 L7.79166667,3.68537776 L2.83333333,3.68537776 L1.41666667,3.68537776 Z" id="Path" fill="#B460F4"></path>
                            <rect id="Rectangle" fill="#FCE370" x="6.375" y="2.95479626" width="4.25" height="13.1504669"></rect>
                            <path d="M5.58506667,0.0324702886 C4.877725,-0.0405878608 4.1873125,0.324702886 3.8086375,0.909168081 C3.2578375,1.78586587 3.587,2.88173812 4.54105417,3.39314516 C4.84783333,3.61231961 5.17642917,3.68537776 5.50715,3.68537776 L5.670775,3.68537776 L8.00841667,3.68537776 L8.99016667,3.68537776 L11.3269583,3.68537776 L11.4905833,3.68537776 C11.821375,3.68537776 12.1578333,3.61231961 12.4645417,3.39314516 C13.4186667,2.88173812 13.74025,1.78586587 13.1891667,0.909168081 C12.6387917,0.0324702886 11.424,-0.259762309 10.469875,0.251644737 C10.1631667,0.397761036 9.92233333,0.616935484 9.75375,0.909168081 L9.73816667,0.909168081 C9.7155,0.982226231 9.69566667,0.982226231 9.67583333,1.05528438 L8.49929167,2.88173812 L7.32275,1.05528438 C7.30291667,0.982226231 7.28308333,0.982226231 7.26041667,0.909168081 L7.24483333,0.909168081 C7.075825,0.616935484 6.84242917,0.397761036 6.53557917,0.251644737 C6.23744167,0.105528438 5.90657917,0.0324702886 5.58506667,0.0324702886 Z M5.46819167,0.909168081 C5.65979583,0.909168081 5.85805833,0.982226231 6.03698333,1.05528438 C6.09697917,1.05528438 6.15095417,1.12834253 6.2005375,1.12834253 C6.23545833,1.20140068 6.26442917,1.20140068 6.2940375,1.27445883 L6.3174125,1.27445883 C6.33335,1.27445883 6.34999583,1.34751698 6.3641625,1.34751698 L6.3875375,1.34751698 L6.39532917,1.34751698 C6.4066625,1.42057513 6.42437083,1.42057513 6.4342875,1.42057513 L7.26041667,2.73562182 L5.60844167,2.73562182 L5.51494167,2.73562182 L5.47598333,2.73562182 L5.39806667,2.73562182 L5.35910833,2.73562182 C5.313775,2.73562182 5.27120417,2.73562182 5.22665,2.66256367 C5.163325,2.66256367 5.09971667,2.66256367 5.03965,2.58950552 C4.9204375,2.58950552 4.81390417,2.44338922 4.735775,2.37033107 C4.50152917,2.07809847 4.46689167,1.71280772 4.67344167,1.34751698 C4.84556667,1.12834253 5.14880417,0.909168081 5.46819167,0.909168081 L5.46819167,0.909168081 Z M11.5373333,0.909168081 C11.8567917,0.909168081 12.1599583,1.12834253 12.3320833,1.34751698 C12.5389167,1.71280772 12.4964167,2.07809847 12.2619583,2.37033107 C12.1840417,2.44338922 12.0855833,2.58950552 11.965875,2.58950552 C11.906375,2.66256367 11.842625,2.66256367 11.778875,2.66256367 C11.7349583,2.73562182 11.6839583,2.73562182 11.638625,2.73562182 L11.5996667,2.73562182 L11.52175,2.73562182 L11.4827917,2.73562182 L11.3892917,2.73562182 L9.73816667,2.73562182 L10.563375,1.42057513 C10.5732917,1.42057513 10.591,1.42057513 10.6023333,1.34751698 L10.610125,1.34751698 C10.61225,1.34751698 10.6087083,1.34751698 10.610125,1.34751698 L10.6335,1.34751698 C10.6476667,1.34751698 10.6646667,1.27445883 10.68025,1.27445883 L10.703625,1.27445883 C10.733375,1.20140068 10.7702083,1.20140068 10.8049167,1.12834253 C10.8552083,1.12834253 10.9090417,1.05528438 10.9685417,1.05528438 C11.14775,0.982226231 11.3460833,0.909168081 11.5373333,0.909168081 Z" id="Shape" fill="#E1BC15"></path>
                            <rect id="Rectangle" fill="#933ED4" x="0.708333333" y="6.60770374" width="15.5833333" height="1"></rect>
                            <rect id="Rectangle" fill="#E1BC15" x="6.375" y="6.60770374" width="4.25" height="1"></rect>
                            <rect id="Rectangle" fill="#E1BC15" x="6.375" y="15.3746817" width="4.25" height="1"></rect>
                        </g>
                    </g>
                </g>
            </g>
        </g>
    </g>
</svg>