<?xml version="1.0" encoding="UTF-8"?>
<svg width="24px" height="24px" viewBox="0 0 24 24" version="1.1" xmlns="http://www.w3.org/2000/svg" xmlns:xlink="http://www.w3.org/1999/xlink">
    <title>more</title>
    <g id="more" stroke="none" stroke-width="1" fill="none" fill-rule="evenodd" fill-opacity="0.25">
        <g id="9110964_more_vertical_icon" transform="translate(10.000000, 4.000000)" fill="#000000" fill-rule="nonzero">
            <path d="M1.5,15.4444444 C0.671572875,15.4444444 0,14.7728716 0,13.9444444 C0,13.1160173 0.671572875,12.4444444 1.5,12.4444444 C2.32842713,12.4444444 3,13.1160173 3,13.9444444 C3,14.7728716 2.32842713,15.4444444 1.5,15.4444444 Z" id="Path"></path>
            <path d="M1.5,9.22222222 C0.671572875,9.22222222 0,8.55064935 0,7.72222222 C0,6.8937951 0.671572875,6.22222222 1.5,6.22222222 C2.32842713,6.22222222 3,6.8937951 3,7.72222222 C3,8.55064935 2.32842713,9.22222222 1.5,9.22222222 Z" id="Path"></path>
            <path d="M1.5,3 C0.671572875,3 0,2.32842713 0,1.5 C0,0.671572875 0.671572875,0 1.5,0 C2.32842713,0 3,0.671572875 3,1.5 C3,2.32842713 2.32842713,3 1.5,3 Z" id="Path"></path>
        </g>
    </g>
</svg>