<?xml version="1.0" encoding="UTF-8"?>
<svg width="56px" height="40px" viewBox="0 0 56 40" version="1.1" xmlns="http://www.w3.org/2000/svg" xmlns:xlink="http://www.w3.org/1999/xlink">
    <title>smoke</title>
    <g id="smoke" stroke="none" stroke-width="1" fill="none" fill-rule="evenodd">
        <g id="2324171_cigarette_nicotine_smoke_smoking_tobacco_icon" transform="translate(13.000000, 8.000000)" fill="#7F7F7F" fill-rule="nonzero">
            <path d="M18.1330625,6.94598972 L18.1266042,6.95498213 L19.1625208,7.91203083 L22.2663958,10.9983523 C23.1072708,11.6965483 23.653,12.7351709 23.653,13.9093219 C23.653,14.0159462 23.6310417,14.1148626 23.622,14.2202022 L26.32675,11.6310322 L26.319,11.6258937 C26.795625,11.1961852 27.1049792,10.5898403 27.1049792,9.89999441 C27.1049792,9.39834674 26.9422292,8.93844951 26.6722708,8.55755697 L26.6729167,8.55755697 C26.6729167,8.55627234 26.6696875,8.55306077 26.66775,8.55113382 C26.6567708,8.53379133 26.6432083,8.5190181 26.6302917,8.50231792 C26.5637708,8.41560545 26.4294375,8.24796135 26.3416042,8.13941019 L26.34225,8.12206769 L22.1656458,3.96821939 C22.0274375,3.84874888 21.8995625,3.7215706 21.7800833,3.5847576 L21.6941875,3.49932976 L21.7025833,3.49033735 C21.1665417,2.8351765 20.832,2.01044459 20.832,1.09964254 C20.832,1.02770331 20.8494375,0.961544906 20.8533125,0.890890304 L20.8081042,0.846570599 L19.9588333,1.69121425 L18.061375,3.54750335 C18.061375,3.54750335 18.0697708,3.5539265 18.0717083,3.55521113 C17.6499792,3.98813114 17.379375,4.56492962 17.379375,5.21495197 C17.3806667,5.89901698 17.6745208,6.50536193 18.1330625,6.94598972 Z" id="Path"></path>
            <path d="M25.2695208,3.8937109 L25.2656458,3.90013405 L25.9269792,4.5109752 L27.9090417,6.48223861 C28.446375,6.92864723 28.795125,7.59151586 28.795125,8.34109696 C28.795125,8.40918231 28.7809167,8.47277145 28.7751042,8.53957216 L30.5027083,6.88689678 L30.4975417,6.88368521 C30.802375,6.60941689 31,6.22145889 31,5.78147341 C31,5.46031613 30.8966667,5.16613606 30.7235833,4.92398347 L30.7242292,4.92334115 C30.7242292,4.92334115 30.7216458,4.92012958 30.721,4.91948727 C30.7138958,4.90921023 30.7055,4.89957551 30.6971042,4.88865617 C30.655125,4.83341711 30.5692292,4.72615058 30.5123958,4.65678061 L30.5130417,4.64586126 L27.84575,1.9931021 C27.7572708,1.91666667 27.6758958,1.83573503 27.5996875,1.74902256 L27.5447917,1.69249888 L27.5506042,1.68800268 C27.2076667,1.26857127 26.9945417,0.741873324 26.9945417,0.160578642 C26.9945417,0.115616622 27.0061667,0.072581546 27.0081042,0.0282618409 L26.9796875,0 L26.4371875,0.538901921 L25.2249583,1.72525693 C25.2249583,1.72525693 25.2307708,1.7284685 25.2314167,1.72911081 C24.96275,2.00659071 24.7890208,2.37463695 24.7890208,2.79021448 C24.7890208,3.22570375 24.9776042,3.61366175 25.2695208,3.8937109 Z" id="Path"></path>
            <rect id="Rectangle" x="0" y="18.1325402" width="8.09035417" height="4.86745979"></rect>
            <rect id="Rectangle" x="9.72172917" y="18.1325402" width="21.2782708" height="4.86745979"></rect>
        </g>
    </g>
</svg>