<?xml version="1.0" encoding="UTF-8"?>
<svg width="16px" height="16px" viewBox="0 0 16 16" version="1.1" xmlns="http://www.w3.org/2000/svg" xmlns:xlink="http://www.w3.org/1999/xlink">
    <title>star</title>
    <g id="star" stroke="none" stroke-width="1" fill="none" fill-rule="evenodd">
        <path d="M6.10511196,5.85963185 C6.10511196,5.85963185 3.83465402,6.1232679 2.32005739,6.29952743 C2.18354252,6.31685209 2.06283462,6.41251432 2.01756917,6.55789077 C1.97230371,6.70326722 2.01756917,6.85466964 2.11815907,6.95033187 C3.24332905,8.02672022 4.93395802,9.63866638 4.93395802,9.63866638 C4.93252102,9.63866638 4.46980744,11.9835208 4.16228972,13.5480125 C4.13642374,13.6896227 4.1852817,13.8395186 4.30311559,13.9291549 C4.42023099,14.0187911 4.57111585,14.0202976 4.68966824,13.9502458 C6.01458104,13.1608441 7.99907624,11.9737286 7.99907624,11.9737286 C7.99907624,11.9737286 9.98428994,13.1608441 11.3070472,13.950999 C11.4277551,14.0202976 11.57864,14.0187911 11.6957554,13.9291549 C11.8135893,13.8395186 11.8624472,13.6896227 11.8358628,13.5487657 C11.528345,11.9835208 11.06635,9.63866638 11.06635,9.63866638 C11.06635,9.63866638 12.7569789,8.02672022 13.8821489,6.95259161 C13.9827388,6.8539164 14.0272858,6.70251398 13.9827388,6.55789077 C13.9381918,6.41326756 13.817484,6.31760534 13.6809691,6.30103393 C12.1663725,6.1232679 9.89519602,5.85963185 9.89519602,5.85963185 C9.89519602,5.85963185 8.95396187,3.67672531 8.32671194,2.22145429 C8.26779499,2.09114275 8.14421311,2 7.99907624,2 C7.85393937,2 7.72963898,2.091896 7.67359603,2.22145429 C7.0456276,3.67672531 6.10511196,5.85963185 6.10511196,5.85963185 Z" id="Path" fill="#F79600" fill-rule="nonzero"></path>
    </g>
</svg>