<?xml version="1.0" encoding="UTF-8"?>
<svg width="24px" height="24px" viewBox="0 0 24 24" version="1.1" xmlns="http://www.w3.org/2000/svg" xmlns:xlink="http://www.w3.org/1999/xlink">
    <title>time</title>
    <g id="time" stroke="none" stroke-width="1" fill="none" fill-rule="evenodd">
        <g id="1814097_clock_schedule_time_icon" transform="translate(1.000000, 1.000000)" fill="#8F8F8F" fill-rule="nonzero" stroke="#8F8F8F" stroke-width="0.3">
            <path d="M10.9998266,22 C4.94752025,22 0,17.0524017 0,11 C0,4.94759825 4.94752025,0 10.9998266,0 C17.0521329,0 21.9996532,4.94759825 21.9996532,11 C22.0476873,17.0524017 17.1001671,22 10.9998266,22 L10.9998266,22 Z M10.9998266,1.15283843 C5.57196456,1.15283843 1.20085443,5.5720524 1.20085443,10.9519651 C1.20085443,16.3318777 5.61999874,20.7510917 10.9998266,20.7510917 C16.3796544,20.7510917 20.7987987,16.3318777 20.7987987,10.9519651 C20.7987987,5.5720524 16.4276886,1.15283843 10.9998266,1.15283843 L10.9998266,1.15283843 Z" id="Fill-131"></path>
            <polyline id="Fill-132" points="14.4582873 16.6200873 10.3753823 12.5371179 10.3753823 5.09170306 11.6723051 5.09170306 11.6723051 12.0087336 15.3709367 15.7074236 14.4582873 16.6200873"></polyline>
        </g>
    </g>
</svg>