<?xml version="1.0" encoding="UTF-8"?>
<svg width="24px" height="24px" viewBox="0 0 24 24" version="1.1" xmlns="http://www.w3.org/2000/svg" xmlns:xlink="http://www.w3.org/1999/xlink">
    <title>edit</title>
    <g id="edit" stroke="none" stroke-width="1" fill="none" fill-rule="evenodd">
        <g id="4733205_basic_edit_outline_pencil_ui_icon" transform="translate(5.000000, 4.000000)" fill="#8F8F8F" fill-rule="nonzero" stroke="#8F8F8F" stroke-width="0.3">
            <path d="M0.531948596,15 L4.14280695,15 C4.16077142,15 4.17840322,14.998993 4.19603501,14.9973148 C4.20900935,14.9959722 4.22198369,14.9936226 4.23495803,14.9916087 C4.23928281,14.9909374 4.24360759,14.9906018 4.24793237,14.9895948 C4.26323543,14.986574 4.27820582,14.9825461 4.29317622,14.9781827 C4.29483959,14.977847 4.29650297,14.9775114 4.29816635,14.9768401 C4.31313674,14.972141 4.32810713,14.9667705 4.34241217,14.9607288 C4.34374287,14.9600575 4.34540625,14.9597219 4.34706962,14.9590506 C4.36104199,14.9533445 4.374349,14.9466315 4.38732334,14.9399184 C4.38965207,14.9389115 4.3919808,14.9379045 4.39397685,14.9365619 C4.40628584,14.9298489 4.41792948,14.9228002 4.42957311,14.9150802 C4.43256719,14.9130663 4.43589394,14.9113881 4.43888802,14.9093742 C4.44986631,14.9019899 4.46051192,14.8935986 4.47082486,14.8855429 C4.47415161,14.8828577 4.47747836,14.8808438 4.48047244,14.8781586 C4.49411213,14.8670821 4.50708647,14.8549987 4.51939546,14.8425796 L12.7358115,6.55266647 C12.7364769,6.55199517 12.7371422,6.55132386 12.7381402,6.55065256 C12.7391383,6.54998126 12.7394709,6.54930996 12.7401363,6.548303 L14.7002595,4.57064618 L14.7002595,4.57064618 C14.8935439,4.37563284 15.0000003,4.11651012 15.0000003,3.84060484 C15.0000003,3.56503522 14.8935439,3.30557684 14.7002595,3.11089915 L11.9157667,0.301834334 C11.516889,-0.100611445 10.8678394,-0.100611445 10.4689616,0.301834334 L8.50750768,2.28083376 C8.507175,2.28116941 8.50684232,2.28116941 8.50684232,2.28150506 C8.50684232,2.28184071 8.50650965,2.28217636 8.50617697,2.28217636 L0.155692764,10.7070213 C0.143383776,10.7194404 0.131740138,10.7325308 0.120761851,10.7459568 C0.117767773,10.7493133 0.115439045,10.7533411 0.112777642,10.7566976 C0.104793434,10.7671028 0.0968092251,10.7771724 0.0898230426,10.7882489 C0.087494315,10.7916054 0.0858309382,10.7949619 0.0838348861,10.7983184 C0.0765160282,10.8097305 0.0695298456,10.8214783 0.0628763384,10.8335618 C0.061545637,10.8359113 0.0605476109,10.8385965 0.0595495848,10.8409461 C0.0528960776,10.8540365 0.0462425704,10.8674625 0.0405870893,10.8812242 C0.0399217386,10.8829025 0.0392563878,10.8845807 0.0385910371,10.886259 C0.032935556,10.900692 0.0272800749,10.9154607 0.0229552952,10.930565 C0.0222899445,10.9322432 0.0219572691,10.9342571 0.0216245938,10.9359354 C0.0172998141,10.950704 0.0133077098,10.9658083 0.0103136315,10.9812483 C0.00931560545,10.9856118 0.00898293009,10.9903109 0.00831757937,10.9946743 C0.00598885185,11.0074291 0.00399279969,11.0201838 0.00266209825,11.0332742 C0.00099872145,11.0510637 3.47321401e-07,11.0688532 3.47321401e-07,11.0869784 L3.47321401e-07,14.4629581 C-0.00033197999,14.7596737 0.237863578,15 0.531948596,15 Z M1.06422917,13.9259162 L1.06422917,11.3095152 L8.88309816,3.42104085 L11.6087074,6.17103106 L3.92224319,13.9259162 L1.06422917,13.9259162 Z M11.1921978,1.09128594 L13.9178071,3.84094049 L12.361219,5.41145242 L9.63560982,2.66146221 L11.1921978,1.09128594 Z" id="Shape"></path>
        </g>
    </g>
</svg>