<?xml version="1.0" encoding="UTF-8"?>
<svg width="345px" height="310px" viewBox="0 0 345 310" version="1.1" xmlns="http://www.w3.org/2000/svg" xmlns:xlink="http://www.w3.org/1999/xlink">
    <title>Group 8</title>
    <defs>
        <path d="M0.151213124,16.3034618 C0.644406815,16.2671448 57.9295723,16.3340445 58.422766,16.3034618 C58.6286624,16.2891262 58.5482191,13.8272165 58.3787137,10.9600856 C58.1498335,7.05696477 57.7677281,2.41030135 57.7677281,2.12358826 C57.7677281,1.63139746 22.2491635,0 22.2491635,0 C8.01070948,2.61673477 1.46224645,9.63642684 0.96905276,10.4526034 C0.843599607,10.6580811 0.70378159,11.1282906 0.563963573,11.7236981 C0.151213124,13.4879393 -0.216527414,16.3263989 0.151213124,16.3034618" id="path-1"></path>
        <path d="M29.2727215,0 C29.2727215,0 22.1343413,1.82540665 15.9095666,14.1034167 C10.3570675,25.0549009 0,61.9395838 0,61.9395838 L33.5553665,68.3103486 L39.2840746,49.3614807 L29.2727215,0" id="path-3"></path>
        <path d="M0.435966545,38.0630737 C1.57845212,38.7167795 17.1269818,38.0630737 17.1269818,38.0630737 C17.1269818,38.0630737 53.9565798,12.4156324 54.2879293,11.5994558 C54.4200861,11.2544444 52.9759383,9.16717309 51.1937375,6.85148706 C48.7191501,3.63838907 45.5952708,0 45.116442,0 L23.6754448,14.8632064 L16.8032935,19.6044851 C16.8032935,19.6044851 9.76067911,20.4206617 5.01740075,25.6474413 C2.83011068,28.0586984 1.44533771,30.7423328 0.693576453,32.9987648 C-0.182680299,35.6451266 -0.182680299,37.7104166 0.435966545,38.0630737" id="path-5"></path>
        <path d="M74.1300685,2.44670342 C74.1300685,2.44670342 76.8469433,27.7921403 70.1356785,29.9166842 C63.4244136,32.0402725 41.1808993,30.5780358 41.1808993,30.5780358 L48.3834425,60.4726536 L16.464713,71.2540213 C16.464713,71.2540213 -4.97915719,14.5096787 1.07802746,4.93155017 C7.01646256,-4.45830341 74.1300685,2.44670342 74.1300685,2.44670342" id="path-7"></path>
        <path d="M13.5785619,0.640035746 C13.5785619,0.640035746 2.8451349,2.60019755 0.553460138,6.19366823 C-1.73821463,9.78809463 3.82769165,54.8737275 3.82769165,54.8737275 L42.8053158,54.7275038 C42.8053158,54.7275038 40.4935302,3.74418276 37.7105771,2.11087388 C34.9276239,0.476609287 25.2955033,-0.830802387 13.5785619,0.640035746" id="path-9"></path>
        <path d="M15.0244788,0 L25.3365364,10.1267062 L22.4999545,16.3244874 C22.4999545,16.3244874 34.4256652,8.2582926 38.2227778,7.069389 C42.0208481,5.87952969 34.9945139,39.3676182 34.9945139,39.3676182 C34.9945139,39.3676182 10.2783275,49.4952801 1.92946809,35.1204417 C-6.41843367,20.7456032 15.0244788,0 15.0244788,0" id="path-11"></path>
        <path d="M23.6100918,0 C23.6100918,0 45.7358142,16.4955596 38.3407818,37.0796478 C30.8844593,57.8367195 3.31828377,49.960711 3.31828377,49.960711 L0,32.0287189 L18.5354639,25.3263226 L23.6100918,0" id="path-13"></path>
        <polyline id="path-15" points="111.816108 0 98.9451887 61.9109125 96.9053779 71.7642855 96.8191887 72.1656839 0 72.1656839 15.0064954 0 111.816108 0"></polyline>
        <polyline id="path-17" points="0 19.9858135 46.9644889 19.9858135 51.3093817 0 4.34489277 0 0 19.9858135"></polyline>
        <path d="M4.6897685,27.6564209 C-1.23621705,21.6593389 -1.54362516,12.2169212 3.75317932,5.87100492 C4.08644418,5.46100521 4.45131175,5.06247402 4.84012076,4.67541135 C7.89313335,1.67352534 11.824318,0.116673279 15.7976396,0.0067665957 C16.2975369,-0.00661334833 16.7955189,-0.00183479689 17.2982892,0.0363936146 C17.3662829,0.0354379044 17.4419378,0.0354379044 17.5089738,0.0430835867 C17.701463,0.0564635307 17.9025711,0.077489157 18.1027216,0.0994704937 C18.4359864,0.136743195 18.7692513,0.181661578 19.0919819,0.242827037 C19.4156702,0.295391103 19.7288243,0.363246533 20.0419783,0.431101964 C20.0831576,0.444481908 20.1166756,0.448304749 20.1568973,0.460728983 C20.4125918,0.522850151 20.6663711,0.592617002 20.9191927,0.671940956 C21.1078513,0.726416443 21.2543729,0.776113378 21.4008945,0.825810313 C21.4679306,0.832500285 21.5244324,0.856393042 21.5809342,0.887931482 C21.9304792,1.00261672 22.278109,1.14215042 22.624781,1.2893298 C22.843127,1.38107799 23.052854,1.47091476 23.2702423,1.57126434 C23.4071873,1.62860695 23.5431747,1.69359525 23.6705432,1.76718495 C23.7988693,1.83121754 23.9348567,1.89716155 24.0622252,1.96979553 C24.3169621,2.10837352 24.571699,2.25364148 24.8159017,2.40751084 C25.1079873,2.59100722 25.4000729,2.78310498 25.6902432,2.98380414 C26.4582846,3.52378046 27.1851468,4.13543504 27.8689143,4.82641358 C32.8142584,9.83051265 33.8379945,17.2267546 30.9793864,23.2181024 C30.1950648,24.8848611 29.1023774,26.4426689 27.7185621,27.8074232 C21.318536,34.1084211 11.0112667,34.0434328 4.6897685,27.6564209" id="path-19"></path>
        <polyline id="path-21" points="170.662255 110.154212 22.8937638 110.154212 0 0 147.767533 0 170.662255 110.154212"></polyline>
        <path d="M11.1145747,14.1205246 C11.1145747,14.1205246 24.1415918,-5.20107029 39.0810511,1.35892513 C54.0205105,7.91892055 48.8817196,32.3698126 44.5789637,45.1323678 C40.2762079,57.8939672 21.8709855,80.6752334 21.8709855,80.6752334 L0,72.5650759 L8.12668284,50.4996367 L11.1145747,14.1205246" id="path-23"></path>
        <path d="M0,34.1221654 C0,34.1221654 7.45057654,13.1309447 23.7795972,4.6537944 C38.9268683,-3.20883414 62.6250645,1.08421648 68.9590123,1.91950727 C75.2948753,2.75384235 88.4406419,4.44449385 88.4406419,4.44449385 L88.4406419,37.4614172 L75.8924537,36.7465459 C75.8924537,36.7465459 33.7028458,52.1334815 33.1052674,51.894554 C32.507689,51.6556264 27.0231836,37.7481303 27.0231836,37.7481303 L22.7079783,45.4530666 L0,34.1221654" id="path-25"></path>
        <path d="M0,32.1644843 C0,32.1644843 4.96545493,56.1614139 13.5709666,58.5468668 C22.1755206,60.9323196 47.1723007,46.6358494 47.9815214,46.6358494 C48.7916997,46.6358494 62.0217402,81.3634942 62.0217402,81.3634942 L91.1584743,78.3166898 C91.1584743,78.3166898 78.8966257,-0.0754466102 56.4405114,0 C39.1978854,0.0583528301 22.4953783,24.2034176 22.4953783,24.2034176 L0,32.1644843" id="path-27"></path>
    </defs>
    <g id="Onboard" stroke="none" stroke-width="1" fill="none" fill-rule="evenodd">
        <g id="1-First-Time-Login" transform="translate(-34.000000, -360.000000)">
            <g id="Group-8" transform="translate(34.000000, 360.000000)">
                <g id="Group-5" transform="translate(196.608171, 129.206827)">
                    <path d="M69.961583,26.9429309 C69.961583,26.9429309 78.7902289,15.9341041 83.5181848,14.8847342 C88.2461406,13.8372757 96.6878928,17.3313526 95.1805397,18.9044517 C93.6741442,20.4765951 87.3028478,19.0793467 87.3028478,19.0793467 C87.3028478,19.0793467 89.4719424,25.7196218 88.7718946,26.9429309 C88.0708892,28.1652844 84.4949956,32.1850019 82.605537,32.1850019 C80.7160785,32.1850019 79.6664857,30.2296186 79.6664857,30.2296186 C79.6664857,30.2296186 79.4902767,34.8065152 75.4633262,34.4567252 C71.4363758,34.1069352 69.961583,26.9429309 69.961583,26.9429309" id="Fill-10949" fill="#FFBDA3"></path>
                    <polyline id="Fill-10950" fill="#FFC4AA" points="57.7696435 144.879492 56.1320489 163.82836 21.1028472 158.765007 35.8344949 149.453521 39.4362454 142.090729 57.7696435 144.879492"></polyline>
                    <path d="M0.151213124,173.596675 C0.644406815,173.560358 57.9295723,173.627257 58.422766,173.596675 C58.6286624,173.582339 58.5482191,171.120429 58.3787137,168.253298 C58.1498335,164.350178 57.7677281,159.703514 57.7677281,159.416801 C57.7677281,158.92461 22.2491635,157.293213 22.2491635,157.293213 C8.01070948,159.909948 1.46224645,166.92964 0.96905276,167.745816 C0.843599607,167.951294 0.70378159,168.421503 0.563963573,169.016911 C0.151213124,170.781152 -0.216527414,173.619612 0.151213124,173.596675" id="Fill-10951" fill="#5A69CD"></path>
                    <g id="Group-11152" transform="translate(-0.000000, 157.293213)">
                        <mask id="mask-2" fill="white">
                            <use xlink:href="#path-1"></use>
                        </mask>
                        <g id="Clip-10953"></g>
                    </g>
                    <path d="M0.151213124,173.596675 C0.644406815,173.560358 57.9295723,173.627257 58.422766,173.596675 C58.6286624,173.582339 58.5482191,171.120429 58.3787137,168.253298 L0.563963573,169.016911 C0.151213124,170.781152 -0.216527414,173.619612 0.151213124,173.596675" id="Fill-11153" fill="#FFFFFF"></path>
                    <polygon id="Fill-11154" fill="#1D7584" points="89.1817721 119.892446 143.501072 119.892446 143.501072 109.600402 89.1817721 109.600402"></polygon>
                    <path d="M58.5453462,82.2919366 C58.5453462,82.2919366 51.406966,84.1173432 45.1821913,96.3953533 C39.6296922,107.346837 29.2726247,144.23152 29.2726247,144.23152 L62.8279912,150.602285 L68.5566993,131.653417 L58.5453462,82.2919366" id="Fill-11334" fill="#7F55E5"></path>
                    <g id="Group-12106" transform="translate(29.272625, 82.291937)">
                        <mask id="mask-4" fill="white">
                            <use xlink:href="#path-3"></use>
                        </mask>
                        <g id="Clip-11336"></g>
                    </g>
                    <polyline id="Fill-12107" fill="#FFC4AA" points="99.7514396 143.584504 88.4568253 129.04624 73.3986163 140.15446 76.5090884 148.81224 69.961583 164.49449 89.9306604 156.326034 99.7514396 143.584504"></polyline>
                    <path d="M34.905567,145.10504 C34.8787526,145.10504 34.8519382,145.101217 34.8251238,145.093571 C34.6718985,145.049608 34.5857093,144.890005 34.6288039,144.738047 C34.7408499,144.356718 45.7874309,106.472363 49.5510255,98.6986151 C53.3289849,90.9009748 56.5017047,87.8369677 56.6348191,87.7108139 C56.7506957,87.6009072 56.931693,87.6066415 57.040866,87.720371 C57.150039,87.8350562 57.1462083,88.0156855 57.0312894,88.1255922 C56.9996867,88.1561749 53.7944065,91.2584105 50.0691183,98.9490112 C46.3246768,106.679752 35.2924607,144.517278 35.1813724,144.898606 C35.1449814,145.023804 35.0291048,145.10504 34.905567,145.10504" id="Fill-12108" fill="#5423B5"></path>
                    <path d="M42.0506507,146.547206 C42.0257516,146.547206 41.9998949,146.544339 41.9740381,146.536694 C41.8208129,146.494642 41.7317507,146.335994 41.7738877,146.184036 C42.201003,144.647254 52.2458741,108.521405 53.9198597,104.25607 L55.6082101,99.9553741 C55.6647119,99.807239 55.8303867,99.734605 55.9797813,99.7929034 C56.1282182,99.850246 56.2010002,100.01654 56.1425831,100.163719 L54.4551903,104.464415 C52.7907813,108.70299 42.4327561,145.9604 42.3274138,146.33695 C42.2919805,146.46406 42.1770616,146.547206 42.0506507,146.547206" id="Fill-12109" fill="#5423B5"></path>
                    <path d="M49.0147372,147.871821 C48.9907958,147.871821 48.9658967,147.868954 48.9409976,147.863219 C48.7877723,147.822124 48.6967949,147.665387 48.7370165,147.511518 L59.2693353,107.949891 C59.3105146,107.797933 59.4637398,107.70714 59.6207957,107.746324 C59.7740209,107.78742 59.8649984,107.944156 59.8247768,108.09707 L49.2924579,147.659653 C49.2579822,147.786763 49.1421057,147.871821 49.0147372,147.871821" id="Fill-12110" fill="#5423B5"></path>
                    <path d="M55.8753966,149.117111 C55.8533705,149.117111 55.829429,149.114244 55.8074029,149.10851 C55.65322,149.071237 55.5584119,148.915456 55.5967182,148.762543 L62.9390795,118.946293 C62.9764281,118.79338 63.1344416,118.69972 63.2857515,118.736037 C63.4399344,118.77331 63.5347425,118.92909 63.4964362,119.082004 L56.154075,148.899209 C56.1224723,149.029186 56.0046804,149.117111 55.8753966,149.117111" id="Fill-12111" fill="#5423B5"></path>
                    <path d="M61.7027434,150.260141 C61.678802,150.260141 61.6529452,150.257274 61.6280461,150.251539 C61.4748209,150.209488 61.3838434,150.051796 61.4250227,149.898882 L66.8463227,129.930272 C66.8884596,129.778314 67.0416848,129.686565 67.1987407,129.727661 C67.3519659,129.769712 67.4429434,129.927404 67.4017641,130.079362 L61.9804642,150.048929 C61.9450308,150.176038 61.8291542,150.260141 61.7027434,150.260141" id="Fill-12112" fill="#5423B5"></path>
                    <path d="M55.0690489,180.502637 C56.2115345,181.156343 71.7600641,180.502637 71.7600641,180.502637 C71.7600641,180.502637 108.589662,154.855196 108.921012,154.039019 C109.053168,153.694008 107.609021,151.606737 105.82682,149.291051 C103.352232,146.077953 100.228353,142.439564 99.7495243,142.439564 L78.3085271,157.30277 L71.4363758,162.044049 C71.4363758,162.044049 64.3937614,162.860225 59.6504831,168.087005 C57.463193,170.498262 56.07842,173.181896 55.3266588,175.438328 C54.450402,178.08469 54.450402,180.14998 55.0690489,180.502637" id="Fill-12113" fill="#5A69CD"></path>
                    <g id="Group-12310" transform="translate(54.633082, 142.439564)">
                        <mask id="mask-6" fill="white">
                            <use xlink:href="#path-5"></use>
                        </mask>
                        <g id="Clip-12115"></g>
                    </g>
                    <path d="M55.0690489,180.502637 C56.2115345,181.156343 71.7600641,180.502637 71.7600641,180.502637 C71.7600641,180.502637 108.589662,154.855196 108.921012,154.039019 C109.053168,153.694008 107.609021,151.606737 105.82682,149.291051 L69.1447011,175.438328 L55.3266588,175.438328 C54.450402,178.08469 54.450402,180.14998 55.0690489,180.502637" id="Fill-12311" fill="#FFFFFF"></path>
                    <path d="M128.023409,83.1023789 C128.023409,83.1023789 130.740284,108.447816 124.029019,110.57236 C117.317754,112.695948 95.0742397,111.233711 95.0742397,111.233711 L102.276783,141.128329 L70.3580533,151.909697 C70.3580533,151.909697 48.9141831,95.1653541 54.9713678,85.5872256 C60.9098029,76.1973721 128.023409,83.1023789 128.023409,83.1023789" id="Fill-12312" fill="#A164ED"></path>
                    <g id="Group-13420" transform="translate(53.893340, 80.655675)">
                        <mask id="mask-8" fill="white">
                            <use xlink:href="#path-7"></use>
                        </mask>
                        <g id="Clip-12314"></g>
                    </g>
                    <path d="M91.6841316,102.568286 C91.5366523,102.568286 91.3843847,102.613204 91.2225406,102.70113 C90.9017253,102.874113 90.7197703,103.130244 90.6651838,103.483856 C90.3999127,105.190755 93.0851847,108.605508 94.6854306,110.39173 C94.3540811,107.903061 93.481655,103.416957 92.060491,102.66768 C91.9359955,102.601736 91.8115,102.568286 91.6841316,102.568286 Z M95.0751973,111.520424 C94.9985847,111.520424 94.9229297,111.490797 94.8673856,111.432499 C94.6557433,111.212686 89.6902883,106.019356 90.0972928,103.395931 C90.1796514,102.861689 90.465991,102.458379 90.9476928,102.196515 C91.4169451,101.943252 91.8948162,101.931783 92.3286352,102.160198 C94.5006027,103.305139 95.2782207,110.399376 95.3605793,111.20504 C95.3730288,111.326415 95.3069505,111.443012 95.1958622,111.49462 C95.1575559,111.511823 95.1163766,111.520424 95.0751973,111.520424 L95.0751973,111.520424 Z" id="Fill-13421" fill="#6225C1"></path>
                    <path d="M99.7533549,108.337909 C96.8957045,108.337909 94.863555,108.314016 94.581046,108.310193 C94.4220748,108.308282 94.295664,108.178305 94.2975578,108.019658 C94.2994946,107.862921 94.4278207,107.736767 94.5848766,107.736767 C103.20188,107.84763 120.073893,107.730077 122.292785,106.506768 C124.290459,105.406746 124.789399,91.276569 124.638089,82.0472747 C124.635216,81.8886268 124.761627,81.7596059 124.920598,81.7567388 C125.085315,81.7634288 125.208853,81.8800254 125.211726,82.0386733 C125.25099,84.4241262 125.510515,105.388587 122.571464,107.008516 C120.466532,108.168748 107.262349,108.337909 99.7533549,108.337909" id="Fill-13422" fill="#6225C1"></path>
                    <path d="M98.0123333,142.484482 C97.8773036,142.484482 97.7575964,142.389867 97.730782,142.2532 L90.3587334,105.064601 C90.3280883,104.908821 90.4286424,104.758774 90.5837829,104.728191 C90.751373,104.693786 90.8902334,104.797958 90.9218361,104.952783 L98.2938847,142.141382 C98.3245297,142.297163 98.2239757,142.448165 98.0688351,142.478748 C98.049682,142.482571 98.0305288,142.484482 98.0123333,142.484482" id="Fill-13423" fill="#6225C1"></path>
                    <path d="M101.49725,103.917749 C97.1341613,103.917749 93.5170883,103.806887 93.1579667,103.795418 C92.9999532,103.790639 92.8754577,103.658751 92.8801124,103.500104 C92.8840766,103.342411 92.9932496,103.21339 93.1761622,103.222948 C99.1845063,103.411223 115.219526,103.570826 117.248803,102.053158 C119.250307,100.55556 119.850758,86.2199058 119.913006,80.8220541 C119.914922,80.6653176 120.043248,80.5391639 120.200303,80.5391639 C120.362148,80.5410753 120.489516,80.6710519 120.487622,80.8296998 C120.463659,82.8443371 120.184023,100.571807 117.592602,102.511899 C116.038323,103.674999 107.953777,103.917749 101.49725,103.917749" id="Fill-13424" fill="#6225C1"></path>
                    <path d="M92.7174442,144.201893 C92.5833721,144.201893 92.4636649,144.109189 92.4358928,143.973479 C91.5203721,139.549496 83.5612794,100.688404 85.9851109,98.6059112 C87.2003784,97.5632313 92.2893712,97.8289187 98.1808811,98.134746 C104.157622,98.4443961 110.92922,98.7980089 113.033194,97.5909469 C114.96862,96.4785001 114.852743,85.675151 114.643974,81.6066923 C114.636313,81.4480444 114.757935,81.3142449 114.915949,81.3056435 C115.098861,81.3142449 115.209949,81.4193731 115.218568,81.5770653 C115.297096,83.1109803 115.90904,96.5989196 113.318576,98.0879162 C111.070953,99.3790808 104.501422,99.0378922 98.1511937,98.7072165 C92.8649235,98.4329276 87.3995712,98.148126 86.359555,99.0417151 C84.7305793,100.440875 89.5677082,127.274353 92.9989955,143.857838 C93.0305982,144.012663 92.9300442,144.164621 92.7749036,144.197115 C92.7557505,144.200938 92.7356397,144.201893 92.7174442,144.201893" id="Fill-13425" fill="#6225C1"></path>
                    <path d="M86.7339992,146.220353 C86.5970541,146.220353 86.4763893,146.122871 86.4514902,145.985249 C86.0961992,144.041334 77.7933073,98.3211095 81.5904199,94.9503193 C83.9740298,92.8362882 92.7940568,92.9978032 99.8826387,93.1277798 C103.967049,93.2023252 107.820663,93.2730478 108.810881,92.8276868 C109.887288,92.3431417 109.848024,85.8930529 109.477411,81.4681143 C109.464004,81.3104221 109.580838,81.1708884 109.738851,81.1584642 C109.921764,81.1479513 110.03764,81.2626366 110.049132,81.4193731 C110.204273,83.2667611 110.885168,92.5228152 109.046465,93.3495046 C107.94037,93.8493411 104.381714,93.7843528 99.8721045,93.701206 C93.2527748,93.5817422 84.1866298,93.4144929 81.9715677,95.380389 C79.0200668,97.9999909 84.6127875,132.723813 87.0165082,145.882032 C87.0452379,146.037813 86.9408532,146.187859 86.784755,146.215575 C86.7675172,146.219398 86.7502793,146.220353 86.7339992,146.220353" id="Fill-13426" fill="#6225C1"></path>
                    <path d="M80.8539812,148.131774 C80.7151208,148.131774 80.5934983,148.031424 80.5705145,147.891891 C80.2401226,145.891589 72.5242749,98.8467502 74.7412524,92.9872904 C76.4248145,88.538459 90.1949739,88.6053587 98.4059306,88.6435871 C100.912121,88.6560149 103.278493,88.6655685 103.596435,88.495452 C104.270626,88.0032612 104.315636,84.0867605 104.12985,81.4642914 C104.118359,81.3056435 104.237108,81.168977 104.395122,81.1584642 C104.582822,81.1364828 104.691995,81.2655037 104.701572,81.4231959 C104.781058,82.5308641 105.113365,88.0988323 103.927785,88.9637501 C103.577282,89.2198804 102.294021,89.2380389 98.4030577,89.2160576 C90.8710802,89.1797406 76.8203271,89.1137966 75.2784983,93.189901 C73.1151497,98.9069599 81.0570046,147.309863 81.1374478,147.798231 C81.1633046,147.954968 81.0570046,148.103103 80.9009064,148.127951 C80.8846262,148.130818 80.8693037,148.131774 80.8539812,148.131774" id="Fill-13427" fill="#6225C1"></path>
                    <path d="M75.0821785,150.260141 C74.9414028,150.260141 74.8188226,150.15788 74.7977542,150.015479 C74.4750235,147.83646 66.9286812,96.5855396 68.9455083,91.0405085 C71.4421218,84.1804201 91.8316108,82.7850831 92.698291,82.7286962 C92.8764153,82.7315633 92.9932496,82.8395586 93.0037838,82.996295 C93.014318,83.1549429 92.8936532,83.2916095 92.7356397,83.3021223 C92.5268703,83.3145466 71.8548722,84.7261307 69.4865848,91.2373849 C67.5176407,96.6467051 75.2871172,149.400002 75.3666028,149.932332 C75.3895866,150.089069 75.2813713,150.234337 75.1243154,150.257274 C75.1099506,150.259185 75.0955857,150.260141 75.0821785,150.260141" id="Fill-13428" fill="#6225C1"></path>
                    <path d="M69.2165254,149.117111 C69.0728767,149.117111 68.9493389,149.011983 68.9311434,148.866715 C68.8660227,148.356366 62.4487587,97.7906903 62.1327317,92.2427921 C61.8071281,86.5352902 68.7702569,82.227904 69.0661731,82.0472747 C69.2012029,81.9641279 69.3783695,82.0061792 69.4607281,82.1428458 C69.5440443,82.2785566 69.5009497,82.4544073 69.36592,82.5365984 C69.2969686,82.5796054 62.3999182,86.8468518 62.7073263,92.2112536 C63.021438,97.7381262 69.4367866,148.284688 69.5009497,148.794081 C69.5210605,148.951773 69.4099722,149.09513 69.2529164,149.1152 C69.2404668,149.116156 69.2270596,149.117111 69.2165254,149.117111" id="Fill-13429" fill="#6225C1"></path>
                    <path d="M61.7027434,127.152977 C61.5686714,127.152977 61.4480065,127.059318 61.4211921,126.922651 C61.3685209,126.667477 56.2297299,101.262786 56.545757,93.0771272 C56.8694453,84.7442892 63.2570218,82.053009 63.3211849,82.0262491 C63.4667488,81.9669951 63.6352966,82.0367619 63.695629,82.1839413 C63.7550038,82.330165 63.6850948,82.4974143 63.5385732,82.557624 C63.4772831,82.5824725 57.4287173,85.1466432 57.1203516,93.1000642 C56.8062399,101.215956 61.9325813,126.554703 61.9842948,126.808922 C62.0158975,126.963747 61.9153434,127.115705 61.7602029,127.147243 C61.7400921,127.151066 61.7209389,127.152977 61.7027434,127.152977" id="Fill-13430" fill="#6225C1"></path>
                    <path d="M99.7514396,29.3943278 C99.7514396,29.3943278 89.0180127,31.3544896 86.7263379,34.9479603 C84.4346631,38.5423867 90.0005694,83.6280195 90.0005694,83.6280195 L128.978194,83.4817959 C128.978194,83.4817959 126.666408,32.4984748 123.883455,30.8651659 C121.100502,29.2309014 111.468381,27.9234897 99.7514396,29.3943278" id="Fill-13431" fill="#FB487C"></path>
                    <g id="Group-13643" transform="translate(86.172878, 28.754292)">
                        <mask id="mask-10" fill="white">
                            <use xlink:href="#path-9"></use>
                        </mask>
                        <g id="Clip-13433"></g>
                    </g>
                    <path d="M69.2117371,24.3309747 L79.5237947,34.4576809 L76.6872127,40.6554621 C76.6872127,40.6554621 88.6129235,32.5892673 92.4100361,31.4003637 C96.2081063,30.2105044 89.1817721,63.6985929 89.1817721,63.6985929 C89.1817721,63.6985929 64.4655858,73.8262548 56.1167263,59.4514164 C47.7688246,45.0765779 69.2117371,24.3309747 69.2117371,24.3309747" id="Fill-13644" fill="#FB487C"></path>
                    <g id="Group-13787" transform="translate(54.187258, 24.330975)">
                        <mask id="mask-12" fill="white">
                            <use xlink:href="#path-11"></use>
                        </mask>
                        <g id="Clip-13646"></g>
                    </g>
                    <path d="M103.831061,69.4405003 C103.831061,69.4405003 96.4800811,61.408711 94.1663802,62.8938848 C91.8517217,64.3790586 82.6141559,71.2840655 82.6580512,72.9288429 C82.7013028,74.5736203 84.3197442,76.6981642 86.1708965,77.546835 C88.021091,78.3964614 94.5504009,74.479005 94.5504009,74.479005 C94.5504009,74.479005 95.7034207,79.7745957 101.013632,78.5541536 C106.323844,77.3346673 103.831061,69.4405003 103.831061,69.4405003" id="Fill-13788" fill="#FFBDA3"></path>
                    <path d="M123.883455,30.8651659 C123.883455,30.8651659 146.009177,47.3607255 138.614145,67.9448137 C131.157822,88.7018855 103.591647,80.825877 103.591647,80.825877 L100.273363,62.8938848 L118.808827,56.1914886 L123.883455,30.8651659" id="Fill-13789" fill="#FB487C"></path>
                    <g id="Group-14966" transform="translate(100.273363, 30.865166)">
                        <mask id="mask-14" fill="white">
                            <use xlink:href="#path-13"></use>
                        </mask>
                        <g id="Clip-13791"></g>
                    </g>
                    <path d="M110.50785,21.2803475 L110.767376,28.7836289 C110.767376,28.7836289 110.032852,31.2264244 105.647738,31.7348623 C102.38021,32.1133236 100.657384,31.1748161 100.657384,31.1748161 L100.982987,27.3596206 L101.303803,23.6380847 L109.186283,21.6205803 L110.50785,21.2803475" id="Fill-14967" fill="#FFBDA3"></path>
                    <path d="M109.186283,21.6205803 C109.173833,21.826058 109.103924,22.0707199 108.992836,22.3516987 C107.440473,26.1582928 102.868615,27.1254716 100.982987,27.3596206 L101.303803,23.6380847 L109.186283,21.6205803" id="Fill-14968" fill="#EA9777"></path>
                    <path d="M99.0351117,6.59394746 C99.0351117,6.59394746 95.4151658,16.1367147 97.1523568,21.3109302 C98.8885901,26.4832343 103.636657,25.4176173 106.451213,24.2602521 C109.266726,23.102887 110.509766,21.2822589 110.509766,21.2822589 C110.509766,21.2822589 113.232386,22.0544728 114.897753,19.480745 C116.56312,16.9060615 115.317207,14.1086975 113.756225,13.5314484 C112.195243,12.9541994 110.432195,14.1459702 110.432195,14.1459702 L111.720245,11.3610304 C111.720245,11.3610304 105.033879,-2.13168747 99.0351117,6.59394746" id="Fill-14969" fill="#FFBDA3"></path>
                    <path d="M105.060694,11.5703309 C105.043456,11.5703309 105.024303,11.5684195 105.006107,11.5645967 L102.562165,11.0838744 C102.406067,11.0532917 102.304555,10.9022894 102.336158,10.7465087 C102.364887,10.5916836 102.509494,10.4855998 102.672295,10.520961 L105.116238,11.0016833 C105.272336,11.0332218 105.37289,11.1832683 105.342245,11.339049 C105.316388,11.4757156 105.195723,11.5703309 105.060694,11.5703309" id="Fill-14970" fill="#B5684A"></path>
                    <path d="M97.6991793,11.2329652 C97.5584036,11.2329652 97.4358234,11.1307042 97.414755,10.9892591 C97.3917712,10.8325226 97.4990288,10.6862989 97.6560847,10.6624062 L99.3185784,10.4110544 C99.4698883,10.3833388 99.6231135,10.4951569 99.6460973,10.6509376 C99.6690811,10.8076741 99.5618234,10.9538978 99.4047676,10.9777906 L97.7422739,11.2291424 C97.727909,11.2320095 97.7125865,11.2329652 97.6991793,11.2329652" id="Fill-14971" fill="#B5684A"></path>
                    <path d="M100.768472,18.4132166 C100.694732,18.4132166 100.620035,18.3845453 100.563533,18.3272027 C99.2477117,16.9939868 100.586517,14.2644782 100.644934,14.1488373 C100.715801,14.0073922 100.888179,13.9500496 101.029913,14.0207721 C101.172604,14.090539 101.229105,14.2635225 101.159196,14.4049676 C101.146747,14.4288604 99.9448865,16.8831244 100.973411,17.9258044 C101.084499,18.0385782 101.082584,18.2201631 100.970538,18.3310255 C100.914036,18.385501 100.841254,18.4132166 100.768472,18.4132166" id="Fill-14972" fill="#B5684A"></path>
                    <path d="M110.96178,18.0519581 C110.882295,18.0519581 110.802809,18.019464 110.746307,17.9544757 C110.640965,17.8350119 110.653414,17.6543826 110.772164,17.5492545 L113.759098,14.9325197 C113.879763,14.829303 114.059803,14.8398158 114.165145,14.9592796 C114.270487,15.0777877 114.258038,15.2593726 114.139288,15.3635451 L111.152354,17.9812355 C111.09681,18.0280654 111.029774,18.0519581 110.96178,18.0519581" id="Fill-14973" fill="#B5684A"></path>
                    <path d="M113.884551,17.4833105 C113.868271,17.4833105 113.850076,17.4813991 113.832838,17.4785319 L111.957744,17.128742 C111.801646,17.1000707 111.699177,16.9500241 111.727906,16.7942434 C111.757594,16.6394183 111.901242,16.5362016 112.063086,16.5648729 L113.937222,16.9146629 C114.093321,16.9433342 114.19579,17.0933807 114.16706,17.2491615 C114.141204,17.3867837 114.020539,17.4833105 113.884551,17.4833105" id="Fill-14974" fill="#B5684A"></path>
                    <path d="M103.529399,14.7222635 C103.349359,14.7098392 103.23061,14.5722169 103.243059,14.4145248 L103.367555,12.7754816 C103.378089,12.6177894 103.49205,12.5011928 103.674963,12.5117056 C103.832977,12.5231741 103.951726,12.6607964 103.939277,12.8184886 L103.815739,14.4575317 C103.804247,14.6075782 103.677836,14.7222635 103.529399,14.7222635" id="Fill-14975" fill="#B5684A"></path>
                    <path d="M98.6223613,14.6333824 C98.4298721,14.6114011 98.3168685,14.4680445 98.3369793,14.311308 L98.5629865,12.4868571 C98.5830973,12.3291649 98.7162117,12.2192582 98.8838018,12.236461 C99.0408577,12.2565309 99.1529036,12.3998875 99.1337504,12.556624 L98.9077432,14.3820306 C98.8895477,14.5272986 98.7650522,14.6333824 98.6223613,14.6333824" id="Fill-14976" fill="#B5684A"></path>
                    <path d="M110.432195,14.1459702 L109.186283,15.594827 L109.80876,12.5843396 C109.80876,12.5843396 107.393548,12.3329877 106.184984,11.0427789 C104.97642,9.75256997 104.228489,7.80578811 104.228489,7.80578811 L98.6386414,7.73124271 C98.6386414,7.73124271 96.5988306,2.45858905 99.361673,0.511807188 C102.124515,-1.43497467 110.000292,2.67553528 111.479873,4.43021937 C113.949672,7.35660427 113.884551,9.88254657 113.884551,9.88254657 C113.884551,9.88254657 115.773052,9.56811788 116.423302,11.2836178 C117.073551,12.9981621 115.688778,15.1552002 115.688778,15.1552002 C115.688778,15.1552002 113.547456,12.1791184 110.432195,14.1459702" id="Fill-14977" fill="#361467"></path>
                    <path d="M100.273363,20.2080405 C100.214946,20.2080405 100.155571,20.1908377 100.104815,20.153565 L98.7918667,19.2016776 C98.6644982,19.108018 98.6357685,18.9283444 98.7296189,18.801235 C98.8234694,18.6712584 99.000636,18.6444985 99.1308775,18.7372024 L100.442868,19.6900455 C100.571195,19.7827494 100.598967,19.9614673 100.505116,20.0904882 C100.449572,20.166945 100.362425,20.2080405 100.273363,20.2080405" id="Fill-14978" fill="#B5684A"></path>
                    <path d="M84.8569902,73.3570011 C84.770801,73.3570011 84.6846118,73.3187727 84.62811,73.2432715 C84.5323442,73.1180735 84.5562857,72.9374443 84.6826965,72.8418732 L91.6132649,67.5730424 C91.7377604,67.47556 91.920673,67.5004084 92.0154811,67.6265622 C92.1122045,67.7527159 92.0873054,67.9333452 91.9618523,68.0279605 L85.0303262,73.297747 C84.9795703,73.3378869 84.9173226,73.3570011 84.8569902,73.3570011" id="Fill-14979" fill="#EA8963"></path>
                    <path d="M86.1728118,76.0779083 C86.0837496,76.0779083 85.9966028,76.0368127 85.9410586,75.9603559 C85.8472082,75.8322907 85.8749802,75.6535729 86.0033064,75.5599133 L93.3667361,70.2041128 C93.4950622,70.1085418 93.6751018,70.1391245 93.7679946,70.266234 C93.8618451,70.3942992 93.834073,70.573017 93.7057469,70.6666766 L86.3413595,76.0234328 C86.2906037,76.0607055 86.2312289,76.0779083 86.1728118,76.0779083" id="Fill-14980" fill="#EA8963"></path>
                    <polyline id="Fill-14981" fill="#6285CD" points="90.3003163 80.4569728 51.373448 80.4569728 43.9487282 55.3600206 82.6285208 55.4039833 90.3003163 80.4569728"></polyline>
                    <polygon id="Fill-14982" fill="#4363A4" points="47.51313 83.6280195 101.997147 83.6280195 101.997147 80.4569728 47.51313 80.4569728"></polygon>
                    <path d="M86.605673,80.4569728 L47.6778471,80.4569728 L40.2531273,55.3600206 L77.645828,55.3600206 C78.5795442,55.3600206 79.3437551,55.9105098 79.5965767,56.7610919 L86.605673,80.4569728" id="Fill-14983" fill="#5071B5"></path>
                    <path d="M101.997147,62.9971015 C101.886059,62.9971015 101.780716,62.9321132 101.733791,62.824118 C101.670586,62.6798057 101.737622,62.510645 101.883186,62.4475681 C101.993316,62.3997826 112.999676,57.6422568 117.342653,56.4170362 C117.494921,56.374985 117.653892,56.4629103 117.697944,56.6148682 C117.741039,56.7677819 117.651976,56.9254741 117.499709,56.9694368 C113.19408,58.1841445 102.221239,62.926379 102.111108,62.9732088 C102.073759,62.9894559 102.035453,62.9971015 101.997147,62.9971015" id="Fill-14984" fill="#CC2A59"></path>
                    <path d="M124.105631,52.9917705 C122.948781,52.9917705 120.25489,54.7531446 118.318506,56.236407 C119.906303,56.1073861 123.128821,55.6983421 124.26173,54.4673872 C124.532747,54.1730285 124.654369,53.8585998 124.635216,53.5068984 C124.614148,53.1389499 124.459007,53.0710945 124.40059,53.0452903 C124.319189,53.0089733 124.219593,52.9917705 124.105631,52.9917705 Z M117.421181,56.8652643 C117.301474,56.8652643 117.193258,56.7916746 117.151122,56.6779451 C117.108027,56.5632599 117.144418,56.434239 117.239226,56.3558708 C117.819567,55.8847056 122.948781,51.782797 124.633301,52.5206054 C124.877503,52.6286006 125.175335,52.8818639 125.208853,53.4753599 C125.237583,53.9828421 125.060416,54.4463616 124.685014,54.8554056 C123.000494,56.6846351 117.655807,56.8585744 117.428842,56.8652643 C117.425969,56.8652643 117.424054,56.8652643 117.421181,56.8652643 L117.421181,56.8652643 Z" id="Fill-14985" fill="#CC2A59"></path>
                    <path d="M100.701436,31.4959347 C99.7514396,32.1725776 98.4011423,33.4341152 98.4902045,34.2149305 C98.5026541,34.3200586 98.539045,34.6392659 99.2065324,34.9011305 C100.372959,35.3656057 102.694322,33.3605255 103.886605,32.1544191 C102.359141,32.0253982 101.115144,31.6373799 100.701436,31.4959347 Z M105.094212,32.1936032 C105.96185,33.2200361 108.318645,35.6226918 110.883252,34.8915734 C111.192576,34.8055595 111.408049,34.619196 111.544994,34.3238815 C112.071705,33.1779848 111.267273,30.7189423 110.724281,29.4029292 C109.301202,31.5274732 107.090928,32.1496406 105.094212,32.1936032 Z M109.893034,35.6035776 C107.282459,35.6035776 105.150713,33.2009219 104.486099,32.3618083 C103.59452,33.2955372 100.710055,36.1110597 98.9948901,35.4353725 C98.3398523,35.1763751 97.9778577,34.7883567 97.9194405,34.2799188 C97.7575964,32.8597333 100.213988,31.1318091 100.494582,30.9397113 C100.572152,30.8852359 100.671749,30.8756788 100.760811,30.9081729 C100.828804,30.9349328 107.786187,33.5430662 110.517427,28.6440952 C110.56914,28.5494799 110.662991,28.4892702 110.77791,28.4969159 C110.886125,28.5007387 110.982849,28.5647713 111.028816,28.6632094 C111.105429,28.8285473 112.905825,32.7383581 112.066917,34.5628091 C111.859105,35.0139043 111.514349,35.3101745 111.040308,35.4449296 C110.649584,35.5548363 110.266521,35.6035776 109.893034,35.6035776 L109.893034,35.6035776 Z" id="Fill-14986" fill="#CC2A59"></path>
                    <path d="M76.269674,41.6274195 C74.9232073,43.354388 73.3746749,45.7149924 73.6476073,46.5206562 C73.6753794,46.6028473 73.7309236,46.6936397 73.9262857,46.7376024 C74.1206902,46.7806094 74.3007299,46.7414253 74.4865154,46.6076258 C75.4211893,45.9367172 76.0063181,43.3276281 76.269674,41.6274195 Z M74.0747226,47.3282314 C73.9837452,47.3282314 73.89181,47.3177186 73.7989172,47.2976486 C73.3564794,47.1972991 73.1754821,46.9191874 73.1027001,46.7041526 C72.5788614,45.1559019 76.0685659,40.9450424 76.4679091,40.4700543 C76.5473947,40.3735276 76.6814668,40.3419892 76.8002163,40.3907304 C76.9160929,40.4404273 76.9860019,40.5589354 76.9735524,40.6841334 C76.9515262,40.8982126 76.4190686,45.9262044 74.8216956,47.0740124 C74.5851542,47.2431732 74.3342479,47.3282314 74.0747226,47.3282314 L74.0747226,47.3282314 Z" id="Fill-14987" fill="#CC2A59"></path>
                    <path d="M87.9013838,64.4641168 C87.7117676,64.4450026 87.598764,64.3035575 87.6169595,64.1458653 L88.8963901,52.6792533 C88.913628,52.5215611 89.0390811,52.3934959 89.2133748,52.42599 C89.372346,52.4431928 89.4853496,52.584638 89.4671541,52.7423302 L88.1867658,64.2089422 C88.1714433,64.3561216 88.0469478,64.4641168 87.9013838,64.4641168" id="Fill-14988" fill="#CC2A59"></path>
                    <path d="M67.2159785,67.9084967 C67.2159785,69.995768 65.5209245,71.6864195 63.4303578,71.6864195 C61.3388335,71.6864195 59.6447371,69.995768 59.6447371,67.9084967 C59.6447371,65.8221812 61.3388335,64.130574 63.4303578,64.130574 C65.5209245,64.130574 67.2159785,65.8221812 67.2159785,67.9084967" id="Fill-14989" fill="#FFFFFF"></path>
                    <path d="M117.163571,81.7634288 C110.011784,81.7634288 104.402783,79.8099569 104.319467,79.7793742 C104.170072,79.7268101 104.092502,79.5633837 104.145173,79.4133372 C104.198802,79.2642464 104.363519,79.1887453 104.511956,79.2403536 C104.637409,79.2833606 117.064932,83.6127282 128.438075,79.242265 C128.583639,79.1839667 128.753144,79.2585121 128.809646,79.4076029 C128.867105,79.5547823 128.793366,79.7210759 128.643971,79.7774628 C124.765458,81.2674151 120.769152,81.7634288 117.163571,81.7634288" id="Fill-14990" fill="#CC2A59"></path>
                    <path d="M79.6664857,30.515376 C79.5075145,30.515376 79.3791884,30.3882665 79.3791884,30.2296186 L79.3791884,28.4185476 C79.3791884,28.2598997 79.5075145,28.1318345 79.6664857,28.1318345 C79.8254569,28.1318345 79.953783,28.2598997 79.953783,28.4185476 L79.953783,30.2296186 C79.953783,30.3882665 79.8254569,30.515376 79.6664857,30.515376" id="Fill-14991" fill="#EA8963"></path>
                    <path d="M79.6664857,31.1509233 C79.6071109,31.1509233 79.5477361,31.1337205 79.4960226,31.0954921 C79.3676965,31.0018325 79.3408821,30.8231147 79.4356902,30.6950495 L80.5705145,29.1544445 C80.664365,29.0254236 80.8424893,28.997708 80.9717731,29.0932791 C81.1000992,29.1869387 81.1269136,29.3656565 81.0330632,29.4937217 L79.8972812,31.0343267 C79.8407794,31.1107835 79.7545902,31.1509233 79.6664857,31.1509233" id="Fill-14992" fill="#EA8963"></path>
                    <path d="M86.8326379,29.6103183 C86.7981622,29.6103183 86.7627289,29.6045841 86.7282532,29.5912041 C86.5798163,29.5338615 86.5070343,29.3666122 86.5654514,29.2194328 C87.5776956,26.6304137 84.6242793,20.1067352 84.594592,20.0398355 C84.5294712,19.896479 84.5926766,19.7263625 84.7382406,19.6604185 C84.8799739,19.5992531 85.0523523,19.6585071 85.1184307,19.8028194 C85.2448415,20.0790196 88.2011307,26.6132109 87.0998244,29.4287334 C87.0567298,29.5415072 86.9475568,29.6103183 86.8326379,29.6103183" id="Fill-14993" fill="#EA8963"></path>
                    <path d="M83.9280622,31.1165178 C83.9041208,31.1165178 83.878264,31.1136506 83.8543226,31.1079164 C83.7010974,31.0668208 83.6091622,30.9100843 83.6503415,30.756215 C84.5371325,27.4427674 81.5655208,22.548575 81.5358334,22.5007895 C81.4525172,22.3650786 81.4956118,22.1892279 81.6306415,22.1060812 C81.7666289,22.0219786 81.9428379,22.0659413 82.0261541,22.1997408 C82.1535226,22.4090413 85.1548217,27.3557978 84.205783,30.9043501 C84.1713073,31.0324152 84.0554307,31.1165178 83.9280622,31.1165178" id="Fill-14994" fill="#EA8963"></path>
                    <path d="M87.3028478,19.3660598 C87.2262352,19.3660598 87.1496226,19.335477 87.0931208,19.2752673 L84.6463055,16.6527982 C84.5390478,16.5362016 84.5438361,16.3546166 84.661628,16.2466214 C84.7775046,16.1395818 84.9585019,16.1453161 85.0667172,16.260957 L87.5135325,18.8834261 C87.6207901,19.0000227 87.6160019,19.1816077 87.49821,19.2886472 C87.4436235,19.3402556 87.3737145,19.3660598 87.3028478,19.3660598" id="Fill-14995" fill="#EA8963"></path>
                </g>
                <g id="Group" transform="translate(225.160637, 16.377908)">
                    <polyline id="Fill-1210" fill="#34D3F0" points="119.839363 20.5450803 106.968444 82.4559928 104.928634 92.3093658 104.842444 92.7107642 8.02325581 92.7107642 23.0297512 20.5450803 119.839363 20.5450803"></polyline>
                    <g id="Group-1334" transform="translate(8.023256, 20.545080)">
                        <mask id="mask-16" fill="white">
                            <use xlink:href="#path-15"></use>
                        </mask>
                        <g id="Clip-1212"></g>
                    </g>
                    <polyline id="Fill-1335" fill="#5FF49D" points="2.84217094e-14 28.6160537 46.9644889 28.6160537 51.3093817 8.63024012 4.34489277 8.63024012 2.84217094e-14 28.6160537"></polyline>
                    <g id="Group-1626" transform="translate(0.000000, 8.630240)">
                        <mask id="mask-18" fill="white">
                            <use xlink:href="#path-17"></use>
                        </mask>
                        <g id="Clip-1337"></g>
                    </g>
                    <path d="M37.9299466,23.818388 L6.62794861,23.818388 C6.47185042,23.818388 6.34448195,23.6922343 6.34448195,23.5364535 C6.34448195,23.3806727 6.47185042,23.254519 6.62794861,23.254519 L37.7020241,23.254519 L42.6885475,0.222856719 C42.7211079,0.0708987827 42.8647565,-0.027539377 43.0246854,0.00686619342 C43.1779106,0.0403160535 43.274634,0.190362569 43.2420736,0.342320505 L38.2067097,23.5957075 C38.1789376,23.7256841 38.0630611,23.818388 37.9299466,23.818388" id="Fill-1627" fill="#E1FFEE"></path>
                    <path d="M18.1198404,23.818388 C18.0978143,23.818388 18.0767459,23.8164766 18.0537621,23.8116981 C17.9014945,23.7753811 17.8076441,23.6224674 17.8449927,23.4714652 L20.5273918,12.1921724 L17.0616287,12.1921724 L14.1359846,23.6062203 C14.0976783,23.7572226 13.9406224,23.848015 13.7921855,23.8097866 C13.6408756,23.7715582 13.5489405,23.6176889 13.5882044,23.4666866 L16.568435,11.8395153 C16.6000378,11.7143172 16.7130414,11.6273476 16.8423251,11.6273476 L20.8855557,11.6273476 C20.9727026,11.6273476 21.0541035,11.6665317 21.1077323,11.7343871 C21.1613612,11.8022426 21.181472,11.8911236 21.1604035,11.9752261 L18.3946882,23.6014418 C18.3640431,23.7314184 18.2472089,23.818388 18.1198404,23.818388" id="Fill-1628" fill="#E1FFEE"></path>
                    <path d="M20.8855557,23.818388 C20.8644873,23.818388 20.8424612,23.8164766 20.8213927,23.8116981 C20.6691251,23.7753811 20.574317,23.6234231 20.6097503,23.4724209 L24.4796449,7.02751397 C24.51029,6.89944879 24.6252089,6.80961203 24.7554503,6.80961203 L28.6263026,6.80961203 C28.7115341,6.80961203 28.7910197,6.84784044 28.8456062,6.91282874 C28.8982773,6.97781704 28.9203035,7.06383096 28.9040233,7.14697776 L25.6317071,23.5918847 C25.601062,23.7438426 25.4554981,23.8441922 25.2993999,23.8136095 C25.1461746,23.7830267 25.0465782,23.6348917 25.0762656,23.4810223 L28.2815458,7.37443681 L24.9804999,7.37443681 L21.1613612,23.6004861 C21.1307161,23.7314184 21.0148395,23.818388 20.8855557,23.818388" id="Fill-1629" fill="#E1FFEE"></path>
                    <path d="M28.6263026,23.818388 C28.6081071,23.818388 28.5879962,23.8164766 28.5688431,23.8126538 C28.4156179,23.7811153 28.3179368,23.6310688 28.3495395,23.4781552 L32.6724061,2.89311126 C32.6992205,2.76217895 32.8150971,2.66851935 32.9491692,2.66851935 L37.2729935,2.66851935 C37.3572674,2.66851935 37.4377106,2.70674776 37.4922971,2.77173606 C37.5459259,2.83768007 37.5669944,2.9246497 37.5497566,3.0077965 L33.2920106,23.5937961 C33.2613656,23.745754 33.1062251,23.8422808 32.9587458,23.8136095 C32.8055205,23.7811153 32.7068818,23.6320245 32.7384845,23.4791109 L36.9253638,3.23238842 L33.179007,3.23238842 L28.9030656,23.5947518 C28.8752935,23.7275955 28.7575017,23.818388 28.6263026,23.818388" id="Fill-1630" fill="#E1FFEE"></path>
                    <polyline id="Fill-1631" fill="#28B0C8" points="106.968444 82.4559928 104.928634 92.3093658 104.842444 92.7107642 8.02325581 92.7107642 9.52677833 85.4951515 33.6501746 57.6457537 34.071544 58.6110211 37.4808052 66.495631 53.6269132 47.7063667 57.4671204 43.2336425 62.293715 51.8159209 69.7825978 65.1194081 73.6898411 59.9585726 84.817823 74.8867673 87.9589401 72.1438788 89.0027869 73.1951601 91.4926968 75.6800068 99.8051652 84.0042434 103.721985 78.1170681 106.968444 82.4559928"></polyline>
                    <polyline id="Fill-1632" fill="#6CE6FB" points="104.928634 92.3093658 104.842444 92.7107642 8.02325581 92.7107642 11.4420936 76.2821043 25.7878053 56.193074 27.942535 53.1730295 28.8810395 56.2982022 30.4037152 61.392138 30.9112737 63.0741881 47.5457871 39.5828292 49.3366069 37.050197 50.3421475 39.5541579 53.6269132 47.7063667 59.1909042 61.5354946 61.8914988 57.2347983 62.8108501 55.7630044 63.5578231 57.1392272 71.9085978 72.4688203 72.8949852 71.4079818 74.7719942 69.4009902 76.5340843 71.7711517 84.6262914 82.666249 86.8672104 78.6427087 88.2941203 76.071848 89.6444175 78.5471377 94.9977238 88.3240539 96.6736247 84.2336139 104.928634 92.3093658"></polyline>
                    <path d="M30.6814359,53.8210011 C30.4104188,55.4160816 28.9116845,56.7091576 27.33538,56.7082024 C25.7581179,56.7082024 24.6999062,55.4151259 24.971881,53.8200454 C25.2428981,52.2249649 26.7416323,50.9318889 28.3179368,50.9328441 C29.8951989,50.9328441 30.9534106,52.2268763 30.6814359,53.8210011" id="Fill-1633" fill="#ADF587"></path>
                    <path d="M78.1458221,69.4057688 C77.874805,71.0008492 76.3770284,72.2929696 74.7997663,72.2929696 C73.2234618,72.2920138 72.1642924,70.9989378 72.4362672,69.4038574 C72.708242,67.8087769 74.2060185,66.5166566 75.7832807,66.5166566 C77.3595852,66.5176123 78.4177969,67.8106883 78.1458221,69.4057688" id="Fill-1634" fill="#ADF587"></path>
                    <path d="M65.8945078,54.4345671 C65.6234906,56.0286919 64.1257141,57.3217679 62.5484519,57.3208127 C60.9721474,57.3208127 59.9129781,56.0277362 60.1849528,54.4326557 C60.4569276,52.8375752 61.9547042,51.5454549 63.5319663,51.5454549 C65.1092285,51.5454549 66.1664825,52.8394866 65.8945078,54.4345671" id="Fill-1635" fill="#5DE2FF"></path>
                    <path d="M52.1913844,37.0530641 C51.9203673,38.6481446 50.4216331,39.9412206 48.8453286,39.9402654 C47.2680664,39.9402654 46.2098547,38.6471889 46.4818295,37.0521084 C46.7528466,35.4570279 48.2506232,34.1639519 49.8278853,34.1649071 C51.4041898,34.1649071 52.4633592,35.4579836 52.1913844,37.0530641" id="Fill-1636" fill="#ADF587"></path>
                    <path d="M91.4563058,76.0766266 C91.1843311,77.6717071 89.6855968,78.9638274 88.1092923,78.9638274 C86.5320302,78.9628717 85.4738185,77.6697956 85.7457932,76.0747152 C86.0168104,74.4796347 87.5155446,73.1875144 89.0928067,73.1875144 C90.6691112,73.1884701 91.7273229,74.4815461 91.4563058,76.0766266" id="Fill-1637" fill="#5DE2FF"></path>
                </g>
                <g id="Group-2" transform="translate(154.867488, 0.000000)">
                    <path d="M4.6897685,27.6564209 C-1.23621705,21.6593389 -1.54362516,12.2169212 3.75317932,5.87100492 C4.08644418,5.46100521 4.45131175,5.06247402 4.84012076,4.67541135 C7.89313335,1.67352534 11.824318,0.116673279 15.7976396,0.0067665957 C16.2975369,-0.00661334833 16.7955189,-0.00183479689 17.2982892,0.0363936146 C17.3662829,0.0354379044 17.4419378,0.0354379044 17.5089738,0.0430835867 C17.701463,0.0564635307 17.9025711,0.077489157 18.1027216,0.0994704937 C18.4359864,0.136743195 18.7692513,0.181661578 19.0919819,0.242827037 C19.4156702,0.295391103 19.7288243,0.363246533 20.0419783,0.431101964 C20.0831576,0.444481908 20.1166756,0.448304749 20.1568973,0.460728983 C20.4125918,0.522850151 20.6663711,0.592617002 20.9191927,0.671940956 C21.1078513,0.726416443 21.2543729,0.776113378 21.4008945,0.825810313 C21.4679306,0.832500285 21.5244324,0.856393042 21.5809342,0.887931482 C21.9304792,1.00261672 22.278109,1.14215042 22.624781,1.2893298 C22.843127,1.38107799 23.052854,1.47091476 23.2702423,1.57126434 C23.4071873,1.62860695 23.5431747,1.69359525 23.6705432,1.76718495 C23.7988693,1.83121754 23.9348567,1.89716155 24.0622252,1.96979553 C24.3169621,2.10837352 24.571699,2.25364148 24.8159017,2.40751084 C25.1079873,2.59100722 25.4000729,2.78310498 25.6902432,2.98380414 C26.4582846,3.52378046 27.1851468,4.13543504 27.8689143,4.82641358 C32.8142584,9.83051265 33.8379945,17.2267546 30.9793864,23.2181024 C30.1950648,24.8848611 29.1023774,26.4426689 27.7185621,27.8074232 C21.318536,34.1084211 11.0112667,34.0434328 4.6897685,27.6564209" id="Fill-6605" fill="#43F1DB"></path>
                    <g id="Group-6848">
                        <mask id="mask-20" fill="white">
                            <use xlink:href="#path-19"></use>
                        </mask>
                        <g id="Clip-6607"></g>
                    </g>
                    <path d="M30.9813017,23.2219252 L16.2783838,16.2414173 L19.2758522,3.68147265 L22.627654,1.28550696 C23.6944846,1.73086796 24.7239666,2.29473703 25.6873702,2.98189272 C26.454454,3.51995762 27.1813161,4.13543504 27.8650837,4.82736929 C32.8142584,9.83051265 33.8408675,17.2267546 30.9813017,23.2219252" id="Fill-6849" fill="#ECEB48"></path>
                    <path d="M16.2755108,16.2366387 L3.75317932,5.87100492 C4.08644418,5.46100521 4.45131175,5.06247402 4.84012076,4.67541135 C7.89313335,1.67352534 11.824318,0.116673279 15.7976396,0.0067665957 C16.2975369,-0.00661334833 16.7955189,-0.00183479689 17.2982892,0.0363936146 L16.2755108,16.2366387" id="Fill-6850" fill="#C260FC"></path>
                    <path d="M16.2755108,16.2366387 L15.7976396,0.0067665957 C16.2975369,-0.00661334833 16.7955189,-0.00183479689 17.2982892,0.0363936146 C17.3662829,0.0354379044 17.4333189,0.0354379044 17.5089738,0.0430835867 C17.701463,0.0564635307 17.9025711,0.077489157 18.1027216,0.0994704937 C18.4359864,0.136743195 18.7692513,0.181661578 19.0919819,0.242827037 C19.4156702,0.295391103 19.7288243,0.363246533 20.0419783,0.431101964 C20.0831576,0.444481908 20.1166756,0.448304749 20.1568973,0.460728983 C20.4125918,0.522850151 20.6663711,0.592617002 20.9191927,0.671940956 C21.1078513,0.726416443 21.2543729,0.776113378 21.4008945,0.825810313 C21.4679306,0.832500285 21.5244324,0.856393042 21.5809342,0.887931482 C22.1584017,1.07811783 22.7157585,1.3074883 23.2702423,1.57126434 C23.4071873,1.62860695 23.5431747,1.69359525 23.6705432,1.76718495 C23.7988693,1.83121754 23.9348567,1.89716155 24.0622252,1.96979553 C24.3169621,2.10837352 24.571699,2.25364148 24.8159017,2.40751084 C25.1079873,2.59100722 25.4000729,2.78310498 25.6902432,2.98380414 L16.2755108,16.2366387" id="Fill-6851" fill="#682CD6"></path>
                </g>
                <g id="Group-4" transform="translate(0.000000, 62.813180)">
                    <polyline id="Fill-344" fill="#0B2C31" points="169.665333 231.329675 21.8968422 231.329675 0 124.767978 147.767533 124.767978 169.665333 231.329675"></polyline>
                    <polyline id="Fill-345" fill="#113940" points="182.673197 231.329675 34.9047061 231.329675 12.0109423 121.175463 159.778476 121.175463 182.673197 231.329675"></polyline>
                    <g id="Group-978" transform="translate(12.010942, 121.175463)">
                        <mask id="mask-22" fill="white">
                            <use xlink:href="#path-21"></use>
                        </mask>
                        <g id="Clip-347"></g>
                    </g>
                    <polyline id="Fill-979" fill="#1D5059" points="153.707884 137.552515 30.3950962 137.552515 29.008408 132.20436 152.321196 132.20436 153.707884 137.552515"></polyline>
                    <polyline id="Fill-980" fill="#1D5059" points="157.17652 151.273647 33.8637323 151.273647 32.477044 145.925493 155.789832 145.925493 157.17652 151.273647"></polyline>
                    <polyline id="Fill-981" fill="#1D5059" points="160.992786 164.995736 37.679998 164.995736 36.2923521 159.647581 159.606097 159.647581 160.992786 164.995736"></polyline>
                    <path d="M51.8542889,209.14095 L110.929317,209.14095 L105.60474,182.525374 L46.5277971,182.525374 L51.8542889,209.14095 Z M111.280777,209.714376 L51.6187051,209.714376 C51.4808024,209.714376 51.3630105,209.617849 51.3361961,209.483094 L45.8967007,182.295048 C45.8794628,182.210945 45.9014889,182.12302 45.9560754,182.057076 C46.0106619,181.991132 46.0920628,181.952903 46.178252,181.952903 L105.840324,181.952903 C105.977269,181.952903 106.096018,182.048474 106.121875,182.183229 L111.562328,209.371276 C111.578608,209.455378 111.55754,209.543304 111.502953,209.609248 C111.447409,209.676147 111.366966,209.714376 111.280777,209.714376 L111.280777,209.714376 Z" id="Fill-982" fill="#306169"></path>
                    <path d="M93.1245455,199.133707 L129.392956,199.133707 L124.445697,174.406615 L88.177286,174.406615 L93.1245455,199.133707 Z M129.743459,199.707133 L92.8889617,199.707133 C92.7520166,199.707133 92.6332671,199.610607 92.6074103,199.476807 L87.545232,174.176289 C87.5279941,174.092186 87.5490626,174.004261 87.6036491,173.938317 C87.6591932,173.872373 87.7405941,173.834144 87.8258257,173.834144 L124.68128,173.834144 C124.817268,173.834144 124.936017,173.929715 124.962832,174.064471 L130.02501,199.364989 C130.042248,199.448136 130.020222,199.536061 129.965635,199.602961 C129.911049,199.668905 129.829648,199.707133 129.743459,199.707133 L129.743459,199.707133 Z" id="Fill-983" fill="#306169"></path>
                    <path d="M168.112013,210.885121 C169.039983,215.165747 166.604659,219.323087 162.672517,220.172713 C158.740375,221.021384 154.800571,218.239311 153.872601,213.958685 C152.945588,209.678059 155.380912,205.519763 159.313054,204.670137 C163.245196,203.822422 167.185,206.604494 168.112013,210.885121" id="Fill-984" fill="#6599A1"></path>
                    <path d="M65.4357897,21.9115698 C65.4357897,21.9115698 61.2728519,14.1225309 56.4175276,18.4939498 C51.560288,22.8634572 52.6443565,32.3335905 57.6308799,33.9592537 C62.6164456,35.5849169 66.1751015,32.0803272 66.1751015,32.0803272 L65.4357897,21.9115698" id="Fill-1638" fill="#1B1B53"></path>
                    <path d="M118.240075,47.8600598 C118.240075,47.8600598 122.542831,46.4083359 123.856737,42.591229 C125.172559,38.7741221 126.965294,29.9481376 126.965294,29.9481376 L139.486668,32.9309094 C139.486668,32.9309094 142.382624,63.5834055 128.697697,67.9959199 C115.013726,72.40939 108.081243,69.3061987 108.081243,69.3061987 L118.240075,47.8600598" id="Fill-1639" fill="#FFA881"></path>
                    <path d="M35.2925575,76.7750746 L23.939526,115.993602 C23.939526,115.993602 15.9315927,115.635211 14.4970215,115.993602 C13.063408,116.351038 11.1509657,118.975418 11.1509657,118.975418 C11.1509657,118.975418 6.01217474,120.048681 6.37033871,121.718307 C6.72850267,123.387932 22.7443693,121.718307 22.7443693,121.718307 C22.7443693,121.718307 18.4234179,125.058514 20.8223503,125.654877 C23.2222404,126.251241 28.9586098,122.791569 28.9586098,122.791569 C28.9586098,122.791569 32.4243728,123.864832 35.2925575,121.360871 C38.1616998,118.855954 38.7592782,115.038847 38.7592782,115.038847 L53.5790304,84.0289157 L35.2925575,76.7750746" id="Fill-1640" fill="#FFA881"></path>
                    <polyline id="Fill-1641" fill="#FD8753" points="106.169758 131.090957 110.830678 118.329358 126.965294 125.962616 124.814395 139.916942 106.169758 131.090957"></polyline>
                    <path d="M145.78614,172.961581 C145.151213,174.724866 143.853587,176.131672 142.481263,175.771369 C140.518065,175.256241 96.152659,147.094326 96.152659,147.094326 C96.152659,147.094326 100.403701,137.710207 103.182824,132.452845 C104.20656,130.509886 105.030145,129.126973 105.369156,128.994129 C106.612196,128.498115 130.574706,137.004893 130.877325,138.193796 C131.178988,139.3827 130.05374,143.653769 130.05374,143.653769 C130.05374,143.653769 146.142388,167.978507 146.197933,170.581862 C146.214213,171.363633 146.061945,172.197013 145.78614,172.961581" id="Fill-1642" fill="#F6F3FF"></path>
                    <path d="M145.78614,172.961581 C145.151213,174.724866 143.853587,176.131672 142.481263,175.771369 C140.518065,175.256241 96.152659,147.094326 96.152659,147.094326 C96.152659,147.094326 100.403701,137.710207 103.182824,132.452845 C105.378733,133.406643 109.182549,135.713728 110.730124,140.559179 C112.966254,147.554979 110.230226,150.905699 110.230226,150.905699 L145.78614,172.961581" id="Fill-1643" fill="#5FBEE6"></path>
                    <path d="M116.567047,66.6837297 C116.567047,66.6837297 129.594064,47.3621348 144.533524,53.9221302 C159.472983,60.4821256 154.334192,84.9330176 150.031436,97.6955728 C145.72868,110.457172 127.323458,133.238438 127.323458,133.238438 L105.452472,125.128281 L113.579155,103.062842 L116.567047,66.6837297" id="Fill-1644" fill="#4E2899"></path>
                    <g id="Group-2906" transform="translate(105.452472, 52.563205)">
                        <mask id="mask-24" fill="white">
                            <use xlink:href="#path-23"></use>
                        </mask>
                        <g id="Clip-1646"></g>
                    </g>
                    <path d="M29.7994332,77.5377314 C29.7994332,77.5377314 37.2500097,56.5465106 53.5790304,48.0693604 C68.7263014,40.2067318 92.4244977,44.4997824 98.7584454,45.3350732 C105.094308,46.1694083 118.240075,47.8600598 118.240075,47.8600598 L118.240075,80.8769831 L105.691887,80.1621119 C105.691887,80.1621119 63.5022789,95.5490475 62.9047006,95.3101199 C62.3071222,95.0711923 56.8226168,81.1636962 56.8226168,81.1636962 L52.5074114,88.8686326 L29.7994332,77.5377314" id="Fill-2907" fill="#FEDA5E"></path>
                    <g id="Group-4611" transform="translate(29.799433, 43.415566)">
                        <mask id="mask-26" fill="white">
                            <use xlink:href="#path-25"></use>
                        </mask>
                        <g id="Clip-2909"></g>
                    </g>
                    <path d="M68.3757987,37.8595074 L68.5127438,45.365656 C68.5127438,45.365656 69.376551,47.7654445 73.7827338,48.0426005 C77.0655843,48.2480782 78.7357392,47.2206896 78.7357392,47.2206896 L78.2090275,43.4274755 L77.6909347,39.7288767 L69.7136465,38.1290177 L68.3757987,37.8595074" id="Fill-4612" fill="#FFA881"></path>
                    <path d="M69.7136465,38.1290177 C69.7366303,38.3335397 69.8199465,38.5743787 69.9463573,38.8496232 C71.6979131,42.568292 76.313823,43.2927203 78.2090275,43.4274755 L77.6909347,39.7288767 L69.7136465,38.1290177" id="Fill-4613" fill="#F08A5D"></path>
                    <path d="M79.0546392,22.5891684 C79.0546392,22.5891684 83.1744824,31.9283693 81.7150122,37.1847759 C80.2536266,42.4421382 75.4557618,41.6288287 72.5827888,40.6215101 C69.7107735,39.6141915 68.3748411,37.8614188 68.3748411,37.8614188 C68.3748411,37.8614188 65.6962726,38.7760335 63.8968339,36.2930982 C62.0973952,33.8101629 63.1929555,30.9516334 64.7213771,30.2921933 C66.2507564,29.6337089 68.0731789,30.7308643 68.0731789,30.7308643 L66.6386078,28.0176028 C66.6386078,28.0176028 72.601942,14.1913421 79.0546392,22.5891684" id="Fill-4614" fill="#FFA881"></path>
                    <path d="M73.2857095,27.8761577 C73.1564257,27.8761577 73.0405492,27.7891881 73.0070312,27.6592115 C72.9687248,27.5062978 73.0616176,27.350517 73.2158005,27.3113329 L75.6300555,26.7015897 C75.7890266,26.6633613 75.9393789,26.7570209 75.9786428,26.9089789 C76.0169492,27.0628482 75.925014,27.218629 75.7717888,27.2578131 L73.3556185,27.8675563 C73.3326348,27.8732906 73.3077357,27.8761577 73.2857095,27.8761577" id="Fill-4615" fill="#B06645"></path>
                    <path d="M80.6194518,27.1507736 C80.5916798,27.1488622 78.9186518,26.9854357 78.9186518,26.9854357 C78.7606383,26.9701443 78.6447618,26.8306106 78.6600843,26.6729184 C78.6763645,26.5152262 78.8142672,26.4053196 78.974196,26.4158324 L80.6472239,26.5792588 C80.8052374,26.5945502 80.921114,26.7340839 80.9057915,26.8917761 C80.8904689,27.0399112 80.7659735,27.1507736 80.6194518,27.1507736" id="Fill-4616" fill="#B06645"></path>
                    <path d="M77.9351374,34.4829829 C77.84416,34.4829829 77.7531825,34.4390202 77.6966807,34.3577849 C77.6085762,34.2268526 77.6430518,34.0481347 77.7732933,33.9592537 C79.0690041,33.0809559 77.376823,30.5454565 77.3595852,30.5196523 C77.270523,30.38872 77.3049987,30.2100022 77.4371555,30.1220769 C77.5673969,30.0331958 77.7455212,30.06569 77.835541,30.1985337 C77.9198149,30.3218203 79.8629023,33.2348253 78.0960239,34.433286 C78.048141,34.4667358 77.9906816,34.4829829 77.9351374,34.4829829" id="Fill-4617" fill="#B06645"></path>
                    <path d="M75.9106492,36.7958018 C75.8934113,36.7958018 75.8742582,36.7938904 75.8560627,36.7900675 C75.7957302,36.778599 74.3736086,36.4861517 73.9350014,34.9407681 C73.8909492,34.7878545 73.9790537,34.6292066 74.1322789,34.5861996 C74.2835888,34.5403255 74.4435176,34.6320737 74.4875699,34.7840317 C74.8275383,35.9834481 75.9211834,36.2175971 75.967151,36.2271542 C76.1213338,36.2586926 76.2228455,36.4096949 76.1922005,36.5645199 C76.1653861,36.7011865 76.0456789,36.7958018 75.9106492,36.7958018" id="Fill-4618" fill="#B06645"></path>
                    <path d="M67.7360834,34.6597893 C67.6738357,34.6597893 67.6096726,34.6397194 67.5579591,34.5976681 L64.4379105,32.1414927 C64.3124573,32.0440103 64.2904312,31.863381 64.3900276,31.7391387 C64.4877087,31.6139406 64.668706,31.5938707 64.7932015,31.6923089 L67.9142078,34.1475286 C68.0377456,34.2459668 68.0597717,34.4256403 67.961133,34.5498826 C67.9046312,34.6225166 67.8203573,34.6597893 67.7360834,34.6597893" id="Fill-4619" fill="#B06645"></path>
                    <path d="M64.7874555,34.2459668 C64.6572141,34.2459668 64.5403798,34.1580414 64.5087771,34.0271091 C64.4714285,33.8732397 64.5652789,33.7184147 64.7204195,33.681142 L66.5725294,33.2329139 C66.7295852,33.1937297 66.8828105,33.2902565 66.9192015,33.4441258 C66.9565501,33.5979952 66.8626997,33.7528203 66.7085168,33.790093 L64.8554492,34.2383211 C64.8334231,34.2440553 64.8094816,34.2459668 64.7874555,34.2459668" id="Fill-4620" fill="#B06645"></path>
                    <path d="M101.211007,75.6492479 C101.081723,75.6492479 100.964889,75.5622782 100.932328,75.4323016 L98.3638905,65.2023787 C98.3543139,65.1603275 98.3533562,65.1154091 98.3619752,65.0724021 C100.695787,54.2910343 91.6392184,50.5761885 91.2532824,50.4232748 C91.1048455,50.3649765 91.0330211,50.1986829 91.0914383,50.0515035 C91.1498554,49.9043241 91.3193608,49.8326459 91.4639671,49.8899885 C91.5635635,49.9291726 101.323053,53.9135288 98.9375274,65.1278333 L101.489685,75.2927679 C101.527991,75.4466373 101.434141,75.6024181 101.280916,75.6406465 C101.257932,75.6463807 101.233033,75.6492479 101.211007,75.6492479" id="Fill-4621" fill="#E4BF40"></path>
                    <path d="M55.4665736,83.8712235 C55.4253943,83.8712235 55.384215,83.8626221 55.3439934,83.8435079 L32.015453,72.7878513 C31.872762,72.7190401 31.8114719,72.5489237 31.8794656,72.4055672 C31.9474593,72.2622106 32.1179224,72.2029566 32.2625287,72.2698563 L55.5901114,83.3255129 C55.7337601,83.3933683 55.7950502,83.5644405 55.7270565,83.707797 C55.6772583,83.810058 55.5747889,83.8712235 55.4665736,83.8712235" id="Fill-4622" fill="#E4BF40"></path>
                    <path d="M112.174271,69.5910004 C112.007639,69.5871775 111.883144,69.4552895 111.886974,69.2966416 L112.482637,47.1480557 C112.48551,46.988452 112.619582,46.8642097 112.776638,46.8688549 C112.935609,46.8728111 113.061062,47.0046991 113.056274,47.1623913 L112.461569,69.3119329 C112.457738,69.4677137 112.329412,69.5910004 112.174271,69.5910004" id="Fill-4623" fill="#E4BF40"></path>
                    <path d="M58.9275483,64.2304213 C59.7042087,69.3081101 61.2584871,72.5212081 63.5482465,73.7808343 C65.0019708,74.5807638 66.7171357,74.5520925 68.6410699,73.6976875 C72.7819816,71.8589009 69.7404609,63.6732422 69.1696969,62.2406325 L58.9275483,64.2304213 Z M65.8303447,74.936288 C64.9186546,74.936288 64.0625087,74.718386 63.2714835,74.2835379 C60.7739123,72.9101822 59.1085456,69.4648466 58.3184781,64.0421464 C58.2964519,63.8911442 58.397006,63.7487434 58.5473583,63.7191163 L69.2913195,61.6318451 C69.4215609,61.6041295 69.5565906,61.6758077 69.6102195,61.8010058 C69.7883438,62.2157841 73.9091447,71.9860103 68.8747384,74.2214167 C67.8012042,74.6983161 66.7851294,74.936288 65.8303447,74.936288 L65.8303447,74.936288 Z" id="Fill-4624" fill="#E4BF40"></path>
                    <path d="M59.2263375,67.4712349 C59.0932231,67.4712349 58.9735159,67.3756639 58.9457438,67.2389973 C58.9150988,67.0841723 59.0166105,66.93317 59.1727087,66.9025873 L70.333251,64.7120993 C70.4855186,64.6843837 70.6397014,64.7828219 70.6703465,64.9386027 C70.7019492,65.0934277 70.5994798,65.24443 70.4443393,65.2750127 L59.283797,67.4655007 C59.2646438,67.4693235 59.2464483,67.4712349 59.2263375,67.4712349" id="Fill-4625" fill="#E4BF40"></path>
                    <path d="M120.161136,130.869233 C120.133364,130.869233 120.105592,130.86541 120.07782,130.856808 C119.952367,130.81858 119.868093,130.701028 119.873839,130.570095 C119.875754,130.537601 119.9878,127.303478 118.0744,125.957837 C116.211756,124.645647 112.989238,127.381846 112.956678,127.409561 C112.859954,127.490797 112.722052,127.502265 112.613836,127.433454 C112.507536,127.365599 112.457738,127.235622 112.493171,127.113291 C112.524774,127.001473 113.252594,124.362757 111.139044,123.176721 C109.007298,121.974437 105.689972,125.29553 105.656454,125.329936 C105.54345,125.44271 105.362453,125.443665 105.250407,125.331847 C105.137403,125.220029 105.136445,125.0394 105.248491,124.926626 C105.396928,124.777535 108.910574,121.271034 111.421553,122.675928 C113.170235,123.659354 113.275578,125.486672 113.175024,126.516928 C114.283034,125.720821 116.703992,124.289167 118.40575,125.489539 C119.943748,126.571403 120.330642,128.607066 120.424492,129.75583 C121.096768,128.978838 122.385775,127.877859 123.998471,128.386297 C124.14978,128.434083 124.234054,128.594642 124.186171,128.745644 C124.138289,128.896647 123.971656,128.980749 123.826092,128.932964 C121.905989,128.327999 120.421619,130.707718 120.406297,130.73161 C120.352668,130.81858 120.259775,130.869233 120.161136,130.869233" id="Fill-4626" fill="#9364ED"></path>
                    <path d="M74.4875699,48.5615512 C70.4558312,48.5615512 68.3058897,45.570178 68.27716,45.5300381 C68.1871402,45.4000615 68.2187429,45.2213437 68.3489843,45.1315069 C68.4792258,45.0397588 68.6573501,45.0722529 68.7492852,45.2012738 C68.8871879,45.3981501 72.2265402,50.0132751 78.6122014,46.9626479 C78.7548924,46.8938367 78.9272708,46.9540465 78.9962221,47.097403 C79.0642158,47.2398038 79.0038834,47.410876 78.8602347,47.4796871 C77.2207248,48.2633696 75.7602969,48.5615512 74.4875699,48.5615512" id="Fill-4627" fill="#D7B541"></path>
                    <polyline id="Fill-4628" fill="#FD8753" points="146.80413 133.238438 151.943878 149.220782 133.777113 147.312228 127.68258 133.95331 146.80413 133.238438"></polyline>
                    <path d="M183.228639,177.747778 C183.062964,179.615236 182.166596,181.304932 180.747348,181.304932 C178.718071,181.304932 128.636407,165.3245 128.636407,165.3245 C128.636407,165.3245 130.357317,155.169122 131.704742,149.380385 C132.198893,147.24055 132.644204,145.694211 132.938205,145.480132 C134.013654,144.685936 159.356149,146.833417 159.950854,147.90668 C160.546517,148.979943 160.546517,153.395324 160.546517,153.395324 C160.546517,153.395324 182.303541,172.83925 183.019869,175.344167 C183.234385,176.095355 183.299505,176.940203 183.228639,177.747778" id="Fill-4629" fill="#FFFFFF"></path>
                    <path d="M183.228639,177.747778 C183.062964,179.615236 182.166596,181.304932 180.747348,181.304932 C178.718071,181.304932 128.636407,165.3245 128.636407,165.3245 C128.636407,165.3245 130.357317,155.169122 131.704742,149.380385 C134.072071,149.745467 138.338436,151.012738 141.069676,155.305789 C145.014268,161.502614 143.221533,165.439185 143.221533,165.439185 L183.228639,177.747778" id="Fill-4630" fill="#5FBEE6"></path>
                    <path d="M64.7874555,94.7930807 C64.7874555,94.7930807 69.7529104,118.79001 78.3584221,121.175463 C86.9629761,123.560916 111.959756,109.264446 112.768977,109.264446 C113.579155,109.264446 126.809196,143.992091 126.809196,143.992091 L155.94593,140.945286 C155.94593,140.945286 143.684081,62.5531498 121.227967,62.6285964 C103.985341,62.6869492 87.2828338,86.832014 87.2828338,86.832014 L64.7874555,94.7930807" id="Fill-4631" fill="#6A31C2"></path>
                    <g id="Group-6588" transform="translate(64.787456, 62.628596)">
                        <mask id="mask-28" fill="white">
                            <use xlink:href="#path-27"></use>
                        </mask>
                        <g id="Clip-4633"></g>
                    </g>
                    <path d="M114.01872,99.9367134 C113.876029,99.9367134 113.746745,99.9825875 113.625123,100.075291 C112.405067,101.006153 112.381126,105.79235 112.515198,108.460693 C113.492966,106.653445 115.59694,102.42825 114.949563,100.641072 C114.831771,100.31613 114.625875,100.104918 114.319425,99.9950118 C114.211209,99.9567833 114.112571,99.9367134 114.01872,99.9367134 Z M112.28919,109.738478 C112.268122,109.738478 112.246096,109.736567 112.225027,109.730832 C112.102447,109.703117 112.012427,109.5999 112.003808,109.474702 C111.934857,108.61743 111.38995,101.058717 113.276535,99.6194176 C113.630869,99.3479959 114.058942,99.2925647 114.513829,99.4550354 C114.984039,99.6241962 115.312516,99.9577391 115.488725,100.446107 C116.410949,102.993075 112.695237,109.329434 112.537224,109.597989 C112.484553,109.68687 112.389744,109.738478 112.28919,109.738478 L112.28919,109.738478 Z" id="Fill-6589" fill="#9364ED"></path>
                    <path d="M127.68258,31.8299312 C127.68258,31.8299312 126.367716,29.125271 126.965294,26.8946432 C127.562872,24.6640154 131.506507,20.2037155 133.060785,20.3432492 C134.614106,20.4827829 133.658363,22.8519887 133.658363,22.8519887 C133.658363,22.8519887 145.369559,21.7366748 148.237743,22.0157422 C151.107843,22.2948096 148.237743,24.3859037 148.237743,24.3859037 C148.237743,24.3859037 155.261205,23.5487015 154.498909,25.5012176 C153.736614,27.452778 150.510265,28.0099571 150.510265,28.0099571 C150.510265,28.0099571 157.654391,26.9959485 154.665542,29.9481376 C151.67765,32.9012824 146.167288,33.7356175 137.405678,33.5110255 C128.64311,33.2873893 127.68258,31.8299312 127.68258,31.8299312" id="Fill-6590" fill="#FFA881"></path>
                    <path d="M132.138561,32.5648724 C132.083974,32.5648724 132.029388,32.549581 131.980547,32.5170868 C131.847433,32.4310729 131.811042,32.2533108 131.898189,32.1204671 C131.915426,32.0956186 133.533868,29.6117276 133.03397,28.0931039 C132.883618,27.6381858 132.558015,27.3247129 132.038007,27.1326151 C131.88957,27.0781396 131.813915,26.9128017 131.869459,26.7646666 C131.924045,26.6165315 132.084932,26.5400747 132.238157,26.5955059 C132.92384,26.8478134 133.374897,27.2922187 133.579835,27.9143861 C134.165922,29.6958301 132.451715,32.3249891 132.378933,32.4358515 C132.323388,32.5189983 132.232411,32.5648724 132.138561,32.5648724" id="Fill-6591" fill="#EC8557"></path>
                    <path d="M74.4416023,31.6091621 C74.2989113,31.6091621 74.1763311,31.5040339 74.157178,31.3597217 L73.9464933,29.7292799 C73.9369167,29.6509117 73.9589429,29.5715877 74.0096987,29.511378 L74.5364104,28.8700964 C74.6360068,28.7468098 74.8170041,28.7286513 74.9395843,28.8299566 C75.0621645,28.9303061 75.08036,29.1109354 74.9798059,29.2332663 L74.5325798,29.7789769 L74.7269843,31.2851763 C74.7470951,31.4428685 74.6360068,31.586225 74.478951,31.6062949 C74.4665014,31.6082064 74.4540519,31.6091621 74.4416023,31.6091621" id="Fill-6592" fill="#B06645"></path>
                    <path d="M79.8073581,31.4084629 C79.6713708,31.4084629 79.5497482,31.3109805 79.5258068,31.1724025 L79.2021185,29.3622872 C79.1887113,29.2820075 79.2078645,29.1998164 79.2586203,29.1357838 L79.8638599,28.3559243 C79.9624987,28.2297705 80.1425383,28.2097006 80.2670338,28.3062273 C80.392487,28.4027541 80.4154708,28.5833833 80.3187473,28.7085814 L79.7901203,29.3871357 L80.0898671,31.0710972 C80.1185969,31.226878 80.0142122,31.3759688 79.858114,31.4036844 C79.8418338,31.4065515 79.8236383,31.4084629 79.8073581,31.4084629" id="Fill-6593" fill="#B06645"></path>
                    <path d="M68.0731789,30.7308643 L69.163951,32.6432406 L69.163951,30.359093 C69.163951,30.359093 70.4223131,30.1335454 72.7197339,27.9268103 C75.0171546,25.7200753 75.6999645,22.8634572 75.6999645,22.8634572 L80.3398159,25.9972313 C80.3398159,25.9972313 80.3513077,16.5462122 70.6818384,17.9310364 C61.0123691,19.3158606 63.5855952,31.322449 63.5855952,31.322449 C63.5855952,31.322449 64.9445114,29.511378 68.0731789,30.7308643" id="Fill-6594" fill="#292A72"></path>
                    <path d="M128.161408,25.0969522 L167.088277,25.0969522 L174.512996,0 L137.120296,0 C136.186579,0 135.423326,0.549533416 135.170505,1.40107128 L128.161408,25.0969522" id="Fill-6595" fill="#5E1DBB"></path>
                    <polyline id="Fill-6596" fill="#FFFFFF" points="124.465807 25.0969522 163.393633 25.0969522 170.818353 0 132.138561 0.0439626733 124.465807 25.0969522"></polyline>
                    <polygon id="Fill-6597" fill="#9364ED" points="112.768977 28.2670432 167.253951 28.2670432 167.253951 25.0969522 112.768977 25.0969522"></polygon>
                    <path d="M11.1509657,119.262131 C11.0092324,119.262131 10.8866522,119.158914 10.8665414,119.014602 C10.8445153,118.857866 10.9546459,118.713553 11.1117017,118.691572 L21.4888801,117.26852 C21.6478512,117.243671 21.7914999,117.356445 21.813526,117.513181 C21.8345945,117.669918 21.7254215,117.81423 21.567408,117.836211 L11.1902297,119.259264 C11.1768225,119.261175 11.1634153,119.262131 11.1509657,119.262131" id="Fill-6598" fill="#EC8557"></path>
                    <path d="M12.039672,118.174533 C11.9209225,118.174533 11.8098342,118.100943 11.7686549,117.982435 C11.7159837,117.833344 11.7954693,117.669918 11.9458216,117.617354 L17.844035,115.565444 C17.995345,115.511924 18.1571891,115.592204 18.2098603,115.741294 C18.2615738,115.891341 18.1830459,116.054767 18.0326936,116.106376 L12.1344801,118.159241 C12.1028774,118.169754 12.0712747,118.174533 12.039672,118.174533" id="Fill-6599" fill="#EC8557"></path>
                    <path d="M160.86829,16.0559328 C160.771567,16.0559328 160.677716,16.0071916 160.62313,15.9192663 L155.394319,7.38764053 L150.09943,15.920222 C150.044843,16.0071916 149.942374,16.0501986 149.845651,16.0559328 C149.743181,16.05211 149.650288,15.9947674 149.601448,15.9049306 C148.081645,13.0664711 145.68367,8.66924803 144.892645,7.40006476 C144.20792,8.83458591 142.084793,12.9737672 141.357931,14.386307 C141.307175,14.4876123 141.204706,14.5497334 141.089787,14.5420877 C140.976783,14.5373092 140.878144,14.4665866 140.836007,14.3624142 L138.807688,9.32582099 L131.691334,15.6640916 C131.572585,15.7692198 131.39063,15.7596627 131.285288,15.6411546 C131.179945,15.5236022 131.190479,15.3420173 131.308271,15.2368891 L138.730118,8.62624106 C138.800027,8.56411989 138.897708,8.54118285 138.98677,8.56125276 C139.077748,8.58227839 139.153403,8.64631098 139.187879,8.73328061 L141.134797,13.5653518 C142.551172,10.8052605 144.452123,7.06556616 144.551719,6.77025168 C144.586195,6.66512355 144.688664,6.57050823 144.799752,6.55617258 C145.040124,6.52176701 145.210588,6.50074138 149.873423,15.1948379 L155.152032,6.68997202 C155.204703,6.60586951 155.297596,6.55426116 155.396234,6.55426116 C155.497746,6.55426116 155.588724,6.60682522 155.641395,6.69092773 L161.113451,15.6191732 C161.196767,15.7548841 161.153672,15.9307348 161.017685,16.0138816 C160.97076,16.0425529 160.920004,16.0559328 160.86829,16.0559328" id="Fill-6600" fill="#9364ED"></path>
                    <path d="M135.011534,17.7284258 C134.907149,17.724603 134.821917,17.6758618 134.771161,17.5984492 L130.754745,11.4618335 C130.667598,11.3289898 130.704947,11.1512276 130.838061,11.0652137 C130.969261,10.9782441 131.148343,11.0155168 131.235489,11.1483605 L135.030687,16.9476105 L141.407729,8.74379343 C141.462315,8.67402658 141.582023,8.64344385 141.637567,8.63388674 C141.727587,8.63484245 141.812818,8.67784942 141.865489,8.74952769 L145.019056,12.9938371 L147.761788,7.51761713 C147.807755,7.42586894 147.89969,7.36565919 148.00216,7.35992493 C148.102714,7.3475007 148.20231,7.40197618 148.258812,7.48799011 L154.482629,16.8979136 L159.341784,8.53736001 C159.421269,8.39973772 159.600351,8.35386363 159.734423,8.43318758 C159.872326,8.51251154 159.919251,8.68836223 159.839766,8.8250288 L154.746942,17.5850693 C154.697144,17.6710832 154.606167,17.7255587 154.50657,17.7284258 C154.402186,17.7217359 154.314081,17.6825518 154.259495,17.599405 L148.053873,8.21815277 L145.324549,13.6676128 C145.279539,13.7564939 145.191434,13.8157479 145.091838,13.8243493 C144.996072,13.8367736 144.895518,13.7899437 144.836143,13.7096641 L141.628948,9.39463213 L135.238498,17.6175635 C135.183912,17.6873303 135.100596,17.7284258 135.011534,17.7284258" id="Fill-6601" fill="#FFB700"></path>
                    <path d="M85.7898455,89.6007067 C85.7400473,89.6007067 85.6883338,89.5873267 85.6423662,89.5596111 C85.5063788,89.4783757 85.4623266,89.3015693 85.5446851,89.1668142 L87.0367158,86.6848346 C87.1181167,86.5491237 87.296241,86.5061167 87.4303131,86.5873521 C87.5672581,86.6685875 87.6113104,86.8444382 87.5289518,86.980149 L86.0359635,89.461173 C85.9832923,89.5510097 85.8875266,89.6007067 85.7898455,89.6007067" id="Fill-6602" fill="#9364ED"></path>
                    <path d="M166.692764,157.86327 C164.903859,157.86327 163.077606,157.556487 162.733807,157.497233 C162.576751,157.469517 162.473324,157.320426 162.500139,157.164645 C162.527911,157.00982 162.67156,156.906604 162.833404,156.931452 C164.432692,157.213387 168.788119,157.703666 169.722793,156.593131 C169.907621,156.373317 169.93252,156.086604 169.798448,155.719612 C169.623196,155.235066 169.303339,154.903435 168.822595,154.706559 C166.842159,153.897072 163.004824,155.702409 162.96556,155.721523 C162.831488,155.787467 162.664856,155.732991 162.591116,155.601103 C162.517377,155.467304 162.561429,155.300055 162.689755,155.219775 C164.158802,154.29847 167.949211,151.581386 167.834292,150.086655 C167.81035,149.767448 167.583386,149.519919 167.13999,149.328777 C166.552946,149.074558 165.977394,149.081248 165.378858,149.346935 C162.90427,150.442179 161.157503,155.503621 161.140265,155.555229 C161.087594,155.705276 160.926707,155.783644 160.775397,155.733947 C160.626003,155.682339 160.54556,155.520824 160.596315,155.369822 C160.670055,155.152875 162.441722,150.020711 165.145189,148.82225 C165.886416,148.493486 166.634347,148.484885 167.367913,148.80218 C168.016247,149.082204 168.365792,149.499849 168.406971,150.042692 C168.509441,151.383554 166.524216,153.164998 164.917267,154.374927 C166.235961,153.985953 167.872598,153.69924 169.039025,154.175184 C169.670122,154.434181 170.107771,154.886232 170.339524,155.522735 C170.597134,156.233784 170.385492,156.697303 170.162358,156.962035 C169.574356,157.661615 168.145531,157.86327 166.692764,157.86327" id="Fill-6603" fill="#FFFFFF"></path>
                    <path d="M126.809196,144.278804 C126.614791,144.255867 126.503703,144.113466 126.523814,143.955774 C126.54584,143.779923 127.104154,139.634052 129.884234,138.708924 C130.484686,138.508225 131.051619,138.564612 131.563008,138.877129 C132.483317,139.43622 133.044505,140.72834 133.358616,141.75095 C133.763706,140.005823 134.849689,137.308809 137.696806,137.308809 C140.689486,137.327923 142.076174,139.250812 142.632573,140.369949 C143.00989,139.354984 143.894766,137.693004 145.721977,137.273447 C147.653572,136.824263 149.141772,138.721348 149.838947,139.856732 C150.032394,138.802584 150.547614,137.206548 151.895996,137.206548 C151.914191,137.206548 151.933344,137.206548 151.952497,137.207503 C153.844829,137.269624 156.091494,140.643282 156.186302,140.787594 C156.273449,140.919482 156.237058,141.097244 156.103943,141.185169 C155.971787,141.271183 155.793662,141.234866 155.705558,141.102978 C155.106064,140.193142 153.258742,137.824892 151.934302,137.780929 C150.489197,137.779974 150.302453,140.756056 150.301496,140.786638 C150.294792,140.917571 150.198069,141.027477 150.069742,141.053281 C149.933755,141.07813 149.808302,141.01123 149.753715,140.892722 C149.737435,140.857361 148.062492,137.332701 145.850303,137.831582 C143.584485,138.3534 142.960092,141.258759 142.954346,141.28743 C142.927532,141.417407 142.81357,141.512022 142.681414,141.515845 C142.536807,141.512978 142.428592,141.431743 142.395074,141.303678 C142.357725,141.1651 141.438374,137.907083 137.722662,137.881279 C134.051003,137.881279 133.705288,143.181648 133.702416,143.235168 C133.693797,143.381392 133.576005,143.497988 133.429483,143.505634 C133.283919,143.504678 133.154635,143.408152 133.130694,143.262884 C133.125906,143.233257 132.6375,140.200788 131.264219,139.366453 C130.897436,139.143772 130.506712,139.1065 130.066189,139.251768 C127.628951,140.065077 127.098408,143.988268 127.09362,144.028408 C127.075425,144.17272 126.951887,144.278804 126.809196,144.278804" id="Fill-6604" fill="#9364ED"></path>
                </g>
            </g>
        </g>
    </g>
</svg>