<?xml version="1.0" encoding="UTF-8"?>
<svg width="124px" height="120px" viewBox="0 0 124 120" version="1.1" xmlns="http://www.w3.org/2000/svg" xmlns:xlink="http://www.w3.org/1999/xlink">
    <title>1010882_calendar_event_date_save the date_icon copy</title>
    <g id="Page-1" stroke="none" stroke-width="1" fill="none" fill-rule="evenodd">
        <g id="1010882_calendar_event_date_save-the-date_icon-copy" transform="translate(0.000000, 1.000000)">
            <g id="circle_back" transform="translate(0.000000, 10.764001)" fill="#89DAF6" fill-rule="nonzero">
                <path d="M109.031046,70.2889241 C108.280326,69.538204 108.280326,68.307244 109.031046,67.5565239 L109.031046,67.5565239 C109.781766,66.8058039 111.012726,66.8058039 111.763446,67.5565239 L114.247447,70.0405241 C115.514287,65.4009638 116.196007,60.5157635 116.196007,55.4732432 C116.196007,24.9862814 91.4829653,0.273240016 60.9960035,0.273240016 C50.5494029,0.273240016 40.7817624,3.17676018 32.4548419,8.21652048 L35.9628021,11.7244807 C37.6933222,13.4550008 37.6933222,16.2895209 35.9628021,18.020041 L35.9628021,18.020041 C34.232282,19.7505611 31.3977618,19.7505611 29.6672417,18.020041 L25.1491215,13.5019208 C22.8969613,15.4284009 20.8021212,17.534281 18.8839211,19.7947211 L20.7828012,21.6936013 C22.5133213,23.4241214 22.5133213,26.2586415 20.7828012,27.9891616 C19.0522811,29.7196817 16.2177609,29.7196817 14.4872408,27.9891616 L13.6288808,27.1308016 C8.6553605,35.416322 5.79600034,45.1122026 5.79600034,55.4760032 C5.79600034,72.5742042 13.5709208,87.8535651 25.7756415,97.9800057 L96.2163656,97.9800057 C103.731846,91.7479253 109.560966,83.5562448 112.936447,74.1943243 L109.031046,70.2889241 Z" id="Path"></path>
                <path d="M17.625361,40.8093624 L17.625361,40.8093624 C14.9426409,43.4920825 10.5514806,43.4920825 7.86600046,40.8093624 L2.01204012,34.955402 C-0.670680039,32.2726819 -0.670680039,27.8815216 2.01204012,25.1960415 L2.01204012,25.1960415 C4.69476027,22.5133213 9.08592053,22.5133213 11.7714007,25.1960415 L17.625361,31.0500018 C20.3080812,33.735482 20.3080812,38.1266422 17.625361,40.8093624 Z" id="Path"></path>
                <path d="M36.0676821,30.6774018 L36.0676821,30.6774018 C34.337162,32.4079219 31.5026418,32.4079219 29.7721217,30.6774018 L16.551721,17.457001 C14.8212009,15.7264809 14.8212009,12.8919607 16.551721,11.1614406 L16.551721,11.1614406 C18.2822411,9.43092055 21.1167612,9.43092055 22.8472813,11.1614406 L36.0676821,24.3818414 C37.8009622,26.1151215 37.8009622,28.9468817 36.0676821,30.6774018 Z" id="Path"></path>
                <path d="M14.3244008,8.93412052 L14.3244008,8.93412052 C12.5938807,10.6646406 9.75936056,10.6646406 8.02884046,8.93412052 L7.15668041,8.06196047 C5.42616031,6.33144037 5.42616031,3.4969202 7.15668041,1.7664001 L7.15668041,1.7664001 C8.88720051,0.0358800021 11.7217207,0.0358800021 13.4522408,1.7664001 L14.3244008,2.63856015 C16.0576809,4.37184025 16.0576809,7.20360042 14.3244008,8.93412052 Z" id="Path"></path>
                <path d="M39.2223623,12.2074807 L39.2223623,12.2074807 C38.4716422,12.9582007 37.2406822,12.9582007 36.4899621,12.2074807 L28.6846817,4.40220025 C27.9339616,3.65148021 27.9339616,2.42052014 28.6846817,1.6698001 L28.6846817,1.6698001 C29.4354017,0.919080053 30.6663618,0.919080053 31.4170818,1.6698001 L39.2223623,9.47508055 C39.9730823,10.2258006 39.9730823,11.4540007 39.2223623,12.2074807 Z" id="Path"></path>
                <path d="M122.701327,72.1519242 L122.701327,72.1519242 C120.970807,73.8824443 118.136287,73.8824443 116.405767,72.1519242 L103.185366,58.9315234 C101.454846,57.2010033 101.454846,54.3664831 103.185366,52.635963 L103.185366,52.635963 C104.915886,50.9054429 107.750406,50.9054429 109.480926,52.635963 L122.701327,65.8563638 C124.431847,67.5868839 124.431847,70.4186441 122.701327,72.1519242 Z" id="Path"></path>
                <path d="M115.646767,86.625365 L115.646767,86.625365 C112.964047,89.3080852 108.572886,89.3080852 105.887406,86.625365 L100.033446,80.7714047 C97.3507256,78.0886845 97.3507256,73.6975243 100.033446,71.0120441 L100.033446,71.0120441 C102.716166,68.329324 107.107326,68.329324 109.792806,71.0120441 L115.646767,76.8660044 C118.332247,79.5514846 118.332247,83.9426449 115.646767,86.625365 Z" id="Path"></path>
            </g>
            <g id="bottom_lines" transform="translate(17.388001, 109.020006)" stroke="#151440" stroke-linecap="round" stroke-width="1.6560001">
                <line x1="22.3560013" y1="0.276000016" x2="0" y2="0.276000016" id="Path"></line>
                <line x1="81.9720047" y1="0.276000016" x2="74.5200043" y2="0.276000016" id="Path"></line>
                <line x1="87.7680051" y1="0.276000016" x2="85.2840049" y2="0.276000016" id="Path"></line>
                <line x1="14.9040009" y1="4.14000024" x2="30.3600018" y2="4.14000024" id="Path"></line>
                <line x1="33.6720019" y1="4.14000024" x2="33.6720019" y2="4.14000024" id="Path"></line>
                <line x1="36.9840021" y1="4.14000024" x2="53.2680031" y2="4.14000024" id="Path"></line>
                <line x1="53.2680031" y1="8.00400046" x2="69.276004" y2="8.00400046" id="Path"></line>
                <line x1="73.1400042" y1="8.00400046" x2="80.3160046" y2="8.00400046" id="Path"></line>
                <path d="M69.276004,8.00400046 C69.276004,6.9358804 70.1398841,6.07200035 71.2080041,6.07200035 C72.2761242,6.07200035 73.1400042,6.9358804 73.1400042,8.00400046" id="Path"></path>
                <line x1="49.9560029" y1="8.00400046" x2="49.4040029" y2="8.00400046" id="Path"></line>
            </g>
            <path d="M86.664005,109.296006 L36.9840021,109.296006 C36.0704421,109.296006 35.328002,108.553566 35.328002,107.640006 L35.328002,105.984006 L88.3200051,105.984006 L88.3200051,107.640006 C88.3200051,108.553566 87.5775651,109.296006 86.664005,109.296006 Z" id="bottom_list" stroke="#151440" stroke-width="1.6560001" fill="#B9BDC9" fill-rule="nonzero" stroke-linecap="round"></path>
            <path d="M89.4240052,106.812006 L34.224002,106.812006 C33.3104419,106.812006 32.5680019,106.069566 32.5680019,105.156006 L32.5680019,103.500006 L91.0800053,103.500006 L91.0800053,105.156006 C91.0800053,106.069566 90.3375652,106.812006 89.4240052,106.812006 Z" id="bottom_list_1_" stroke="#151440" stroke-width="1.6560001" fill="#B9BDC9" fill-rule="nonzero" stroke-linecap="round"></path>
            <path d="M90.5280052,104.328006 L33.948002,104.328006 C32.1264019,104.328006 30.6360018,102.837606 30.6360018,101.016006 L30.6360018,56.3040033 C30.6360018,54.4824032 32.1264019,52.9920031 33.948002,52.9920031 L90.5280052,52.9920031 C92.3578853,52.9920031 93.8400054,54.4741232 93.8400054,56.3040033 L93.8400054,101.016006 C93.8400054,102.837606 92.3496053,104.328006 90.5280052,104.328006 Z" id="calendar_1_" fill="#F2ECE8" fill-rule="nonzero"></path>
            <g id="shadow" transform="translate(32.292002, 96.876006)">
                <rect id="Rectangle" fill="#B9BDC9" fill-rule="nonzero" x="0" y="4.41600026" width="60.7200035" height="2.48400014"></rect>
                <line x1="58.7880034" y1="1.93200011" x2="58.7880034" y2="4.41600026" id="Path" stroke="#B9BDC9" stroke-width="1.6560001" stroke-linecap="round"></line>
                <line x1="60.4440035" y1="4.41600026" x2="60.4440035" y2="4.41600026" id="Path" stroke="#F2ECE8" stroke-width="1.6560001" stroke-linecap="round"></line>
                <line x1="55.4760032" y1="3.86400022" x2="55.4760032" y2="4.41600026" id="Path" stroke="#B9BDC9" stroke-width="1.6560001" stroke-linecap="round"></line>
                <line x1="57.1320033" y1="4.41600026" x2="57.1320033" y2="4.41600026" id="Path" stroke="#F2ECE8" stroke-width="1.6560001" stroke-linecap="round"></line>
                <line x1="52.164003" y1="2.76000016" x2="52.164003" y2="4.41600026" id="Path" stroke="#B9BDC9" stroke-width="1.6560001" stroke-linecap="round"></line>
                <line x1="53.8200031" y1="4.41600026" x2="53.8200031" y2="4.41600026" id="Path" stroke="#F2ECE8" stroke-width="1.6560001" stroke-linecap="round"></line>
                <line x1="48.8520028" y1="3.31200019" x2="48.8520028" y2="4.41600026" id="Path" stroke="#B9BDC9" stroke-width="1.6560001" stroke-linecap="round"></line>
                <line x1="50.5080029" y1="4.41600026" x2="50.5080029" y2="4.41600026" id="Path" stroke="#F2ECE8" stroke-width="1.6560001" stroke-linecap="round"></line>
                <line x1="45.5400026" y1="1.38000008" x2="45.5400026" y2="4.41600026" id="Path" stroke="#B9BDC9" stroke-width="1.6560001" stroke-linecap="round"></line>
                <line x1="47.1960027" y1="4.41600026" x2="47.1960027" y2="4.41600026" id="Path" stroke="#F2ECE8" stroke-width="1.6560001" stroke-linecap="round"></line>
                <line x1="42.2280024" y1="4.41600026" x2="42.2280024" y2="4.41600026" id="Path" stroke="#B9BDC9" stroke-width="1.6560001" stroke-linecap="round"></line>
                <line x1="43.8840025" y1="4.41600026" x2="43.8840025" y2="4.41600026" id="Path" stroke="#F2ECE8" stroke-width="1.6560001" stroke-linecap="round"></line>
                <line x1="38.9160023" y1="6.34800037" x2="38.9160023" y2="2.48400014" id="Path" stroke="#B9BDC9" stroke-width="1.6560001" stroke-linecap="round"></line>
                <line x1="40.5720023" y1="4.41600026" x2="40.5720023" y2="4.41600026" id="Path" stroke="#F2ECE8" stroke-width="1.6560001" stroke-linecap="round"></line>
                <line x1="35.6040021" y1="6.34800037" x2="35.6040021" y2="3.86400022" id="Path" stroke="#B9BDC9" stroke-width="1.6560001" stroke-linecap="round"></line>
                <line x1="37.2600022" y1="4.41600026" x2="37.2600022" y2="4.41600026" id="Path" stroke="#F2ECE8" stroke-width="1.6560001" stroke-linecap="round"></line>
                <line x1="32.2920019" y1="6.34800037" x2="32.2920019" y2="2.76000016" id="Path" stroke="#B9BDC9" stroke-width="1.6560001" stroke-linecap="round"></line>
                <line x1="33.948002" y1="4.41600026" x2="33.948002" y2="4.41600026" id="Path" stroke="#F2ECE8" stroke-width="1.6560001" stroke-linecap="round"></line>
                <line x1="28.9800017" y1="6.34800037" x2="28.9800017" y2="4.14000024" id="Path" stroke="#B9BDC9" stroke-width="1.6560001" stroke-linecap="round"></line>
                <line x1="30.6360018" y1="4.41600026" x2="30.6360018" y2="4.41600026" id="Path" stroke="#F2ECE8" stroke-width="1.6560001" stroke-linecap="round"></line>
                <line x1="25.6680015" y1="6.34800037" x2="25.6680015" y2="2.48400014" id="Path" stroke="#B9BDC9" stroke-width="1.6560001" stroke-linecap="round"></line>
                <line x1="27.3240016" y1="4.41600026" x2="27.3240016" y2="4.41600026" id="Path" stroke="#F2ECE8" stroke-width="1.6560001" stroke-linecap="round"></line>
                <line x1="22.3560013" y1="6.34800037" x2="22.3560013" y2="1.38000008" id="Path" stroke="#B9BDC9" stroke-width="1.6560001" stroke-linecap="round"></line>
                <line x1="24.0120014" y1="4.41600026" x2="24.0120014" y2="4.41600026" id="Path" stroke="#F2ECE8" stroke-width="1.6560001" stroke-linecap="round"></line>
                <line x1="19.0440011" y1="6.34800037" x2="19.0440011" y2="4.69200027" id="Path" stroke="#B9BDC9" stroke-width="1.6560001" stroke-linecap="round"></line>
                <line x1="20.7000012" y1="4.41600026" x2="20.7000012" y2="4.41600026" id="Path" stroke="#F2ECE8" stroke-width="1.6560001" stroke-linecap="round"></line>
                <line x1="15.7320009" y1="6.34800037" x2="15.7320009" y2="3.86400022" id="Path" stroke="#B9BDC9" stroke-width="1.6560001" stroke-linecap="round"></line>
                <line x1="17.388001" y1="4.41600026" x2="17.388001" y2="4.41600026" id="Path" stroke="#F2ECE8" stroke-width="1.6560001" stroke-linecap="round"></line>
                <line x1="12.4200007" y1="6.34800037" x2="12.4200007" y2="4.41600026" id="Path" stroke="#B9BDC9" stroke-width="1.6560001" stroke-linecap="round"></line>
                <line x1="14.0760008" y1="4.41600026" x2="14.0760008" y2="4.41600026" id="Path" stroke="#F2ECE8" stroke-width="1.6560001" stroke-linecap="round"></line>
                <line x1="9.10800053" y1="6.34800037" x2="9.10800053" y2="2.20800013" id="Path" stroke="#B9BDC9" stroke-width="1.6560001" stroke-linecap="round"></line>
                <line x1="10.7640006" y1="4.41600026" x2="10.7640006" y2="4.41600026" id="Path" stroke="#F2ECE8" stroke-width="1.6560001" stroke-linecap="round"></line>
                <line x1="5.79600034" y1="6.34800037" x2="5.79600034" y2="3.86400022" id="Path" stroke="#B9BDC9" stroke-width="1.6560001" stroke-linecap="round"></line>
                <line x1="7.45200043" y1="4.41600026" x2="7.45200043" y2="4.41600026" id="Path" stroke="#F2ECE8" stroke-width="1.6560001" stroke-linecap="round"></line>
                <line x1="2.48400014" y1="6.34800037" x2="2.48400014" y2="4.41600026" id="Path" stroke="#B9BDC9" stroke-width="1.6560001" stroke-linecap="round"></line>
                <line x1="4.14000024" y1="4.41600026" x2="4.14000024" y2="4.41600026" id="Path" stroke="#F2ECE8" stroke-width="1.6560001" stroke-linecap="round"></line>
                <line x1="0.828000048" y1="4.41600026" x2="0.828000048" y2="4.41600026" id="Path" stroke="#F2ECE8" stroke-width="1.6560001" stroke-linecap="round"></line>
                <line x1="32.2920019" y1="0.276000016" x2="32.2920019" y2="0.276000016" id="Path" stroke="#B9BDC9" stroke-width="1.6560001" stroke-linecap="round"></line>
                <line x1="52.164003" y1="0.276000016" x2="52.164003" y2="0.276000016" id="Path" stroke="#B9BDC9" stroke-width="1.6560001" stroke-linecap="round"></line>
                <line x1="12.4200007" y1="1.93200011" x2="12.4200007" y2="1.93200011" id="Path" stroke="#B9BDC9" stroke-width="1.6560001" stroke-linecap="round"></line>
                <line x1="2.48400014" y1="1.93200011" x2="2.48400014" y2="1.93200011" id="Path" stroke="#B9BDC9" stroke-width="1.6560001" stroke-linecap="round"></line>
            </g>
            <path d="M35.052002,104.328006 L34.776002,104.328006 C32.9461219,104.328006 31.4640018,102.845886 31.4640018,101.016006 L31.4640018,56.3040033 C31.4640018,54.4741232 32.9461219,52.9920031 34.776002,52.9920031 L35.6040021,52.9920031" id="left_border" stroke="#89DAF6" stroke-width="1.6560001" stroke-linecap="round"></path>
            <g id="document_border" transform="translate(29.532002, 52.992003)" stroke="#151440" stroke-linecap="round" stroke-width="1.6560001">
                <line x1="0.276000016" y1="21.8040013" x2="0.276000016" y2="21.2520012" id="Path"></line>
                <path d="M64.3080037,40.8480024 L64.3080037,48.0240028 C64.3080037,49.8456029 62.8176036,51.336003 60.9960035,51.336003 L3.58800021,51.336003 C1.7664001,51.336003 0.276000016,49.8456029 0.276000016,48.0240028 L0.276000016,25.1160015" id="Path"></path>
                <line x1="64.3080037" y1="37.5360022" x2="64.3080037" y2="37.5360022" id="Path"></line>
                <path d="M42.7800025,0 L60.9960035,0 C62.8258836,0 64.3080037,1.48212009 64.3080037,3.31200019 L64.3080037,34.224002" id="Path"></path>
                <path d="M0.276000016,17.664001 L0.276000016,3.31200019 C0.276000016,1.49040009 1.7664001,0 3.58800021,0 L38.9160023,0" id="Path"></path>
            </g>
            <g id="fasteners_left" transform="translate(40.848002, 47.196003)" stroke-width="1.6560001">
                <circle id="Oval" stroke="#151440" fill="#89DAF6" fill-rule="nonzero" cx="3.31200019" cy="14.0760008" r="3.31200019"></circle>
                <path d="M3.31200019,13.8000008 L3.31200019,13.8000008 C2.40120014,13.8000008 1.6560001,13.0548008 1.6560001,12.1440007 L1.6560001,1.6560001 C1.6560001,0.745200043 2.40120014,0 3.31200019,0 L3.31200019,0 C4.22280024,0 4.96800029,0.745200043 4.96800029,1.6560001 L4.96800029,12.1440007 C4.96800029,13.0548008 4.22280024,13.8000008 3.31200019,13.8000008 Z" id="Path" stroke="#151440" fill="#B2C0CE" fill-rule="nonzero"></path>
                <line x1="3.31200019" y1="12.1440007" x2="3.31200019" y2="10.7640006" id="Path" stroke="#858DA3" stroke-linecap="round"></line>
            </g>
            <g id="fasteners_right" transform="translate(76.176004, 47.196003)" stroke-width="1.6560001">
                <circle id="Oval" stroke="#151440" fill="#89DAF6" fill-rule="nonzero" cx="3.31200019" cy="14.0760008" r="3.31200019"></circle>
                <path d="M3.31200019,13.8000008 L3.31200019,13.8000008 C2.40120014,13.8000008 1.6560001,13.0548008 1.6560001,12.1440007 L1.6560001,1.6560001 C1.6560001,0.745200043 2.40120014,0 3.31200019,0 L3.31200019,0 C4.22280024,0 4.96800029,0.745200043 4.96800029,1.6560001 L4.96800029,12.1440007 C4.96800029,13.0548008 4.22280024,13.8000008 3.31200019,13.8000008 Z" id="Path" stroke="#151440" fill="#B2C0CE" fill-rule="nonzero"></path>
                <line x1="3.31200019" y1="12.1440007" x2="3.31200019" y2="10.7640006" id="Path" stroke="#858DA3" stroke-linecap="round"></line>
            </g>
            <g id="grid" transform="translate(43.608003, 66.792004)">
                <line x1="22.6320013" y1="1.6560001" x2="36.4320021" y2="1.6560001" id="Path" stroke="#151440" stroke-width="1.6560001" stroke-linecap="round"></line>
                <line x1="0" y1="1.6560001" x2="20.1480012" y2="1.6560001" id="Path" stroke="#151440" stroke-width="1.6560001" stroke-linecap="round"></line>
                <line x1="32.8440019" y1="9.93600058" x2="36.4320021" y2="9.93600058" id="Path" stroke="#151440" stroke-width="1.6560001" stroke-linecap="round"></line>
                <line x1="4.14000024" y1="9.93600058" x2="30.3600018" y2="9.93600058" id="Path" stroke="#151440" stroke-width="1.6560001" stroke-linecap="round"></line>
                <line x1="16.560001" y1="18.2160011" x2="36.4320021" y2="18.2160011" id="Path" stroke="#151440" stroke-width="1.6560001" stroke-linecap="round"></line>
                <line x1="0" y1="18.2160011" x2="14.0760008" y2="18.2160011" id="Path" stroke="#151440" stroke-width="1.6560001" stroke-linecap="round"></line>
                <line x1="27.8760016" y1="26.4960015" x2="32.2920019" y2="26.4960015" id="Path" stroke="#151440" stroke-width="1.6560001" stroke-linecap="round"></line>
                <line x1="0" y1="26.4960015" x2="25.3920015" y2="26.4960015" id="Path" stroke="#151440" stroke-width="1.6560001" stroke-linecap="round"></line>
                <line x1="1.6560001" y1="22.9080013" x2="1.6560001" y2="27.8760016" id="Path" stroke="#151440" stroke-width="1.6560001" stroke-linecap="round"></line>
                <line x1="1.6560001" y1="6.9000004" x2="1.6560001" y2="20.1480012" id="Path" stroke="#151440" stroke-width="1.6560001" stroke-linecap="round"></line>
                <line x1="1.6560001" y1="0" x2="1.6560001" y2="4.41600026" id="Path" stroke="#151440" stroke-width="1.6560001" stroke-linecap="round"></line>
                <line x1="9.93600058" y1="14.9040009" x2="9.93600058" y2="27.8760016" id="Path" stroke="#151440" stroke-width="1.6560001" stroke-linecap="round"></line>
                <line x1="9.93600058" y1="0" x2="9.93600058" y2="12.4200007" id="Path" stroke="#151440" stroke-width="1.6560001" stroke-linecap="round"></line>
                <line x1="18.2160011" y1="4.14000024" x2="18.2160011" y2="27.8760016" id="Path" stroke="#151440" stroke-width="1.6560001" stroke-linecap="round"></line>
                <line x1="26.4960015" y1="0" x2="26.4960015" y2="24.0120014" id="Path" stroke="#151440" stroke-width="1.6560001" stroke-linecap="round"></line>
                <line x1="34.776002" y1="16.560001" x2="34.776002" y2="24.0120014" id="Path" stroke="#151440" stroke-width="1.6560001" stroke-linecap="round"></line>
                <line x1="34.776002" y1="0" x2="34.776002" y2="14.0760008" id="Path" stroke="#151440" stroke-width="1.6560001" stroke-linecap="round"></line>
                <rect id="Rectangle" fill="#F46B85" fill-rule="nonzero" x="19.0440011" y="10.7640006" width="6.62400038" height="6.62400038"></rect>
            </g>
            <g id="circles_x2C__stars" transform="translate(16.284001, 0.000000)">
                <circle id="Oval" stroke="#FFFFFF" stroke-width="1.6560001" cx="10.7640006" cy="40.0200023" r="2.20800013"></circle>
                <circle id="Oval" stroke="#FFFFFF" stroke-width="1.6560001" cx="83.3520048" cy="51.336003" r="2.20800013"></circle>
                <circle id="Oval" stroke="#FFFFFF" stroke-width="1.10400006" cx="83.6280048" cy="71.7600042" r="1.38000008"></circle>
                <circle id="Oval" stroke="#FFFFFF" stroke-width="1.10400006" cx="51.888003" cy="39.4680023" r="1.38000008"></circle>
                <path d="M43.8315625,24.5640014 L43.8315625,24.5640014 C43.2492025,24.5640014 42.7800025,24.0920414 42.7800025,23.5124414 L42.7800025,23.5124414 C42.7800025,22.9356013 42.3632425,22.4194813 41.7891624,22.3615213 C41.1322824,22.2952813 40.5720023,22.8141613 40.5720023,23.4600014 L40.5720023,23.5124414 C40.5720023,24.0920414 40.1000423,24.5640014 39.5204423,24.5640014 L39.5204423,24.5640014 C38.9436023,24.5640014 38.4274822,24.9807614 38.3695222,25.5548415 C38.3032822,26.2117215 38.8221622,26.7720015 39.4680023,26.7720015 L39.5204423,26.7720015 C40.1028023,26.7720015 40.5720023,27.2439616 40.5720023,27.8235616 L40.5720023,27.8235616 C40.5720023,28.4004016 40.9887624,28.9165217 41.5628424,28.9744817 C42.2197224,29.0407217 42.7800025,28.5218417 42.7800025,27.8760016 L42.7800025,27.8235616 C42.7800025,27.2439616 43.2519625,26.7720015 43.8315625,26.7720015 L43.8840025,26.7720015 C44.5298426,26.7720015 45.0487226,26.2117215 44.9824826,25.5548415 C44.9245226,24.9807614 44.4084026,24.5640014 43.8315625,24.5640014 Z" id="Path" fill="#FFFFFF" fill-rule="nonzero"></path>
                <path d="M4.37736025,63.7560037 L4.37736025,63.7560037 C3.94128023,63.7560037 3.58800021,63.4027237 3.58800021,62.9666436 L3.58800021,62.9666436 C3.58800021,62.5360836 3.27336019,62.1469236 2.84556016,62.1027636 C2.35152014,62.0558436 1.93200011,62.4450036 1.93200011,62.9280036 L1.93200011,62.9666436 C1.93200011,63.4027237 1.57872009,63.7560037 1.14264007,63.7560037 L1.14264007,63.7560037 C0.712080041,63.7560037 0.322920019,64.0706437 0.278760016,64.4984437 C0.231840013,64.9924838 0.621000036,65.4120038 1.10400006,65.4120038 L1.14264007,65.4120038 C1.57872009,65.4120038 1.93200011,65.7652838 1.93200011,66.2013638 L1.93200011,66.2013638 C1.93200011,66.6319239 2.24664013,67.0210839 2.67444015,67.0652439 C3.16848018,67.1149239 3.58800021,66.7257639 3.58800021,66.2427638 L3.58800021,66.2041238 C3.58800021,65.7680438 3.94128023,65.4147638 4.37736025,65.4147638 L4.41600026,65.4147638 C4.89900028,65.4147638 5.28816031,64.9952438 5.2384803,64.5012037 C5.1970803,64.0706437 4.80792028,63.7560037 4.37736025,63.7560037 Z" id="Path" fill="#FFFFFF" fill-rule="nonzero"></path>
                <path d="M79.4493646,32.5680019 L79.4493646,32.5680019 C79.0132846,32.5680019 78.6600046,32.2147219 78.6600046,31.7786418 L78.6600046,31.7786418 C78.6600046,31.3480818 78.3453645,30.9589218 77.9175645,30.9147618 C77.4235245,30.8650818 77.0040045,31.2542418 77.0040045,31.7372418 L77.0040045,31.7758818 C77.0040045,32.2119619 76.6507244,32.5652419 76.2146444,32.5652419 L76.2146444,32.5652419 C75.7840844,32.5652419 75.3949244,32.8798819 75.3507644,33.3076819 C75.3010844,33.801722 75.6902444,34.221242 76.1732444,34.221242 L76.2118844,34.221242 C76.6479644,34.221242 77.0012445,34.574522 77.0012445,35.010602 L77.0012445,35.010602 C77.0012445,35.4411621 77.3158845,35.8303221 77.7436845,35.8744821 C78.2377245,35.9241621 78.6572446,35.5350021 78.6572446,35.052002 L78.6572446,35.013362 C78.6572446,34.577282 79.0105246,34.224002 79.4466046,34.224002 L79.4880046,34.224002 C79.9710046,34.224002 80.3601647,33.804482 80.3104846,33.3104419 C80.2690846,32.8826419 79.8799246,32.5680019 79.4493646,32.5680019 Z" id="Path" fill="#FFFFFF" fill-rule="nonzero"></path>
                <circle id="Oval" stroke="#89DAF6" stroke-width="1.6560001" cx="59.0640034" cy="2.20800013" r="2.20800013"></circle>
                <path d="M30.0453617,3.62664021 L30.0453617,3.62664021 C29.6092817,3.62664021 29.2560017,3.27336019 29.2560017,2.83728016 L29.2560017,2.83728016 C29.2560017,2.40672014 28.9413617,2.01756012 28.5135617,1.97340011 C28.0195216,1.92372011 27.6000016,2.31288013 27.6000016,2.79588016 L27.6000016,2.83452016 C27.6000016,3.27060019 27.2467216,3.62388021 26.8106416,3.62388021 L26.8106416,3.62388021 C26.3800815,3.62388021 25.9909215,3.93852023 25.9467615,4.36632025 C25.8970815,4.86036028 26.2862415,5.27988031 26.7692415,5.27988031 L26.8078816,5.27988031 C27.2439616,5.27988031 27.5972416,5.63316033 27.5972416,6.06924035 L27.5972416,6.06924035 C27.5972416,6.49980038 27.9118816,6.8889604 28.3396816,6.9331204 C28.8337217,6.9828004 29.2532417,6.59364038 29.2532417,6.11064035 L29.2532417,6.07200035 C29.2532417,5.63592033 29.6065217,5.28264031 30.0426017,5.28264031 L30.0840017,5.28264031 C30.5670018,5.28264031 30.9561618,4.86312028 30.9064818,4.36908025 C30.8650818,3.94128023 30.4759218,3.62664021 30.0453617,3.62664021 Z" id="Path" fill="#89DAF6" fill-rule="nonzero"></path>
                <path d="M85.5075649,11.8680007 L85.5075649,11.8680007 C84.9252049,11.8680007 84.4560049,11.3960407 84.4560049,10.8164406 L84.4560049,10.8164406 C84.4560049,10.2396006 84.0392449,9.72348056 83.4651648,9.66552056 C82.8082848,9.59928056 82.2480048,10.1181606 82.2480048,10.7640006 L82.2480048,10.8164406 C82.2480048,11.3960407 81.7760447,11.8680007 81.1964447,11.8680007 L81.1964447,11.8680007 C80.6196047,11.8680007 80.1034846,12.2847607 80.0455246,12.8588407 C79.9792846,13.5157208 80.4981647,14.0760008 81.1440047,14.0760008 L81.1964447,14.0760008 C81.7788047,14.0760008 82.2480048,14.5479608 82.2480048,15.1275609 L82.2480048,15.1275609 C82.2480048,15.7044009 82.6647648,16.2205209 83.2388448,16.2784809 C83.8957249,16.3447209 84.4560049,15.8258409 84.4560049,15.1800009 L84.4560049,15.1275609 C84.4560049,14.5479608 84.9279649,14.0760008 85.5075649,14.0760008 L85.560005,14.0760008 C86.205845,14.0760008 86.724725,13.5157208 86.658485,12.8588407 C86.600525,12.2847607 86.084405,11.8680007 85.5075649,11.8680007 Z" id="Path" fill="#89DAF6" fill-rule="nonzero"></path>
            </g>
        </g>
    </g>
</svg>