<?xml version="1.0" encoding="UTF-8"?>
<svg width="650px" height="370px" viewBox="0 0 650 370" version="1.1" xmlns="http://www.w3.org/2000/svg" xmlns:xlink="http://www.w3.org/1999/xlink">
    <!-- Generator: Sketch 47.1 (45422) - http://www.bohemiancoding.com/sketch -->
    <title>404</title>
    <desc>Created with Sketch.</desc>
    <defs></defs>
    <g id="Page-1" stroke="none" stroke-width="1" fill="none" fill-rule="evenodd">
        <g id="404">
            <g id="Object" transform="translate(18.000000, 8.000000)">
                <path d="M554.242423,208.728373 C554.477611,209.742793 554.694371,210.763367 554.892701,211.790093 C556.227436,218.775012 556.774083,225.888086 556.522346,232.995337 C556.481978,234.162711 556.423181,235.331844 556.345955,236.502734 C555.871373,243.403915 554.732262,250.243025 552.944499,256.924748 C552.625064,258.125525 552.285445,259.321029 551.925642,260.511258 C549.644814,268.056507 546.571031,275.337991 542.755929,282.233382 C542.120569,283.383175 541.465026,284.518024 540.789298,285.63793 C535.734742,294.102306 529.471014,301.780346 522.197132,308.428096 C520.908861,309.598986 519.592509,310.728561 518.248074,311.816821 C516.696533,313.073858 515.105501,314.274635 513.474979,315.419154 C511.410937,316.866944 508.151648,319.340582 505.06875,320.092167 C504.123799,320.34809 503.132408,320.38059 502.172774,320.187104 C501.978844,320.140218 501.788038,320.081206 501.601477,320.010415 C496.475599,318.080029 496.049101,306.439692 495.735809,301.750857 C495.621725,300.070119 495.55503,298.393777 495.535723,296.72183 C495.504131,294.693869 495.535723,292.671183 495.633134,290.656408 C495.940295,284.434837 496.73252,278.246838 498.002568,272.148958 C498.295676,270.703805 498.612479,269.263047 498.952975,267.826685 C498.952975,267.773942 498.979302,267.726474 498.989833,267.673731 C500.510952,261.353786 502.356294,255.116585 504.518515,248.986956 C504.916053,247.831888 505.329388,246.679458 505.750621,245.527028 C507.15122,241.676803 508.646597,237.863498 510.165668,234.092388 C510.70976,232.745688 511.257363,231.403384 511.808476,230.065475 C512.224443,229.059845 512.638656,228.055974 513.051113,227.053861 C515.420548,221.289072 517.789983,215.545381 519.935638,209.693567 C520.314747,208.665082 520.684204,207.633081 521.044007,206.597564 C521.607406,204.988909 522.147988,203.371463 522.665753,201.745226 C523.884696,197.908187 524.993065,194.034228 525.927676,190.120712 C526.212008,188.939273 526.475278,187.754318 526.717487,186.565847 C526.877205,185.790528 527.031657,185.01433 527.180843,184.237252 C527.499401,182.541571 529.121147,175.727201 529.529217,170.967163 C529.590256,170.233123 530.071293,169.6014 530.761884,169.34836 C531.452475,169.095321 532.226908,169.267027 532.746383,169.788361 L532.777975,169.81737 C537.719168,174.688814 541.982175,180.205286 545.451819,186.217745 C545.97836,187.114372 546.468044,188.016274 546.944563,188.928725 C550.219006,195.185928 552.671963,201.840989 554.242423,208.728373 Z" id="Shape" fill="#4640CC" fill-rule="nonzero"></path>
                <path d="M536.74283,221.302258 L554.242423,208.728373 C554.477611,209.742793 554.694371,210.763367 554.892701,211.790093 C548.646169,216.282022 542.397003,220.771314 536.145205,225.257968 C534.882102,232.733387 533.113235,240.11417 530.850835,247.349292 C531.888121,246.850872 532.925407,246.347178 533.957427,245.830299 C536.163634,244.729732 538.35229,243.596641 540.523395,242.431025 C545.97836,239.495009 551.311344,236.34978 556.522346,232.995337 C556.481978,234.162711 556.423181,235.331844 556.345955,236.502734 C555.103318,237.29036 553.852783,238.065679 552.594349,238.828692 C548.018707,241.611754 543.351798,244.234829 538.593622,246.697918 C536.255779,247.911002 533.897753,249.085409 531.519542,250.221137 C530.916418,250.547552 530.292931,250.834716 529.652954,251.080845 C527.623138,257.201647 525.311622,263.21169 522.80792,269.124158 C522.739469,269.285024 522.665753,269.445889 522.597303,269.606755 C532.796404,265.56314 542.916524,261.335804 552.957663,256.924748 C552.638228,258.125525 552.298609,259.321029 551.938806,260.511258 C541.695826,264.987364 531.367723,269.265685 520.954495,273.34622 C518.440261,278.93432 515.765432,284.464403 513.35914,290.099971 C523.065047,287.125277 532.868365,284.503081 542.769092,282.233382 C542.133733,283.383175 541.478189,284.518024 540.802461,285.63793 C531.093044,287.923452 521.470505,290.55268 511.934846,293.525616 C510.441821,297.186749 509.156763,300.929557 508.08583,304.736099 C507.604045,306.48716 507.18018,308.246133 506.795805,310.01038 C507.893643,309.976097 509.004645,309.833691 510.089319,309.746666 C514.140176,309.409112 518.176991,308.969588 522.199765,308.428096 C520.911494,309.598986 519.595141,310.728561 518.250706,311.816821 C514.879088,312.210634 511.498694,312.530607 508.109525,312.77674 C507.448716,312.824208 506.814234,312.86904 506.219242,312.853217 C505.763784,315.253014 505.387307,317.668635 505.071383,320.092167 C504.126432,320.34809 503.135041,320.38059 502.175407,320.187104 C502.526434,317.374154 502.971361,314.577027 503.510188,311.795724 C503.284288,311.556535 503.088048,311.290899 502.925728,311.004582 C501.57515,308.675987 500.435188,306.194438 499.197817,303.802552 L495.538356,296.716556 C495.506764,294.688595 495.538356,292.665909 495.635766,290.651134 L501.198673,301.423851 C502.267551,303.486095 503.335552,305.550097 504.402676,307.615856 C504.948523,305.284624 505.579495,302.971853 506.295591,300.677541 C507.12226,298.05886 508.062136,295.485012 509.070462,292.940171 C505.384675,286.008009 501.698887,279.075846 498.013099,272.143684 C498.306207,270.698531 498.623009,269.257773 498.963506,267.821411 C502.803746,275.041901 506.645741,282.26327 510.489491,289.485518 C512.914212,283.760286 515.625899,278.145815 518.192787,272.4786 C513.792658,264.556631 509.240711,256.724325 504.536943,248.981681 C504.934482,247.826614 505.347817,246.674184 505.76905,245.521753 C510.553553,253.322414 515.179217,261.218891 519.64604,269.211184 C520.172581,268.035019 520.670163,266.856218 521.159846,265.672142 C523.247581,260.62993 525.179987,255.516515 526.904409,250.334534 C526.680693,250.072068 526.474039,249.795478 526.285723,249.506472 C521.79647,242.784371 516.9707,236.293991 511.826905,230.0602 C512.242872,229.054571 512.657085,228.0507 513.069542,227.048586 C515.340689,229.759566 517.552162,232.52241 519.70396,235.337118 C522.58765,239.117019 525.351991,242.984824 527.996982,246.940535 C529.663485,241.613512 531.098309,236.217923 532.240903,230.756405 C532.612992,228.971941 532.951734,227.17429 533.257128,225.363454 C528.902633,220.071592 524.468279,214.847418 519.954067,209.69093 C520.333176,208.662445 520.702633,207.630444 521.062436,206.594927 C525.395869,211.517589 529.657342,216.508816 533.846854,221.568609 C534.812695,214.776075 535.231768,207.91675 535.100021,201.056933 C534.921178,200.977659 534.762716,200.858612 534.636665,200.70883 L525.948737,190.118075 C526.233069,188.936636 526.49634,187.751681 526.738549,186.56321 L534.899936,196.51314 C534.394076,187.514181 532.697839,178.622311 529.855672,170.070535 C530.171364,169.604554 530.677507,169.303248 531.237018,169.248222 C531.796529,169.193196 532.351508,169.390143 532.751648,169.785724 L532.783241,169.814733 C535.473382,178.115525 537.12529,186.718499 537.701134,195.426638 C540.370698,192.422056 542.956015,189.349788 545.457085,186.209833 C545.983626,187.106461 546.473309,188.008363 546.949829,188.920813 C544.045077,192.523147 541.033262,196.034939 537.914384,199.456188 C538.154,206.758433 537.762019,214.067748 536.74283,221.302258 Z" id="Shape" fill="#181A44" fill-rule="nonzero"></path>
                <path d="M581.733134,242.222691 C581.596233,242.982187 581.448801,243.739047 581.285574,244.495906 C580.165271,249.641845 578.47056,254.645199 576.233412,259.411571 C575.866588,260.193922 575.486601,260.972758 575.09345,261.748077 C572.767515,266.312366 570.005164,270.639951 566.845184,274.670064 C566.278275,275.396157 565.699957,276.111701 565.110231,276.816696 C561.364336,281.293832 557.154771,285.360209 552.552226,288.947541 C551.788741,289.543535 551.012971,290.125464 550.224914,290.693328 C544.323594,294.981548 537.828599,298.383327 530.945612,300.790938 C529.72667,301.210243 528.499829,301.597902 527.259824,301.943368 C525.838164,302.347729 524.405972,302.699348 522.963249,302.998224 C521.136152,303.380609 518.198052,304.113734 515.881271,303.726075 C515.16063,303.623826 514.47422,303.352776 513.877783,302.934933 C513.759259,302.846545 513.645868,302.751454 513.538164,302.650121 C510.610595,299.841567 513.701391,291.787741 514.854516,288.507139 C515.265218,287.327458 515.704003,286.166237 516.170869,285.023476 C516.736901,283.633703 517.350321,282.267665 517.997967,280.922723 C520.015004,276.775435 522.352964,272.792621 524.990432,269.010761 C525.609118,268.111496 526.246233,267.225417 526.893878,266.344612 C526.917573,266.312967 526.941267,266.283958 526.962329,266.252312 C529.83696,262.393097 532.90813,258.684761 536.163634,255.142041 C536.769157,254.472207 537.383455,253.806769 538.006528,253.145726 C540.078467,250.930528 542.197795,248.768073 544.325021,246.645175 C545.085873,245.888316 545.851991,245.134094 546.612842,244.382509 L548.334632,242.694739 C551.628146,239.461605 554.916396,236.23902 558.075642,232.879303 C558.633776,232.290342 559.184889,231.696106 559.728981,231.096596 C560.581978,230.166565 561.420933,229.222469 562.245848,228.264308 C564.188784,226.006916 566.071169,223.691507 567.842979,221.299621 C568.380051,220.577044 568.906592,219.847435 569.422603,219.110794 C569.756079,218.630835 570.086922,218.147359 570.415133,217.660367 C571.125963,216.605511 574.208861,212.433555 575.870098,209.311181 C576.124411,208.827903 576.636086,208.536894 577.180711,208.565786 C577.725336,208.594677 578.203463,208.938194 578.405394,209.445675 L578.405394,209.474684 C580.355209,214.23248 581.656063,219.231773 582.272838,224.337606 C582.36235,225.097103 582.441331,225.859236 582.499251,226.618732 C582.915529,231.8314 582.658027,237.076093 581.733134,242.222691 L581.733134,242.222691 Z" id="Shape" fill="#9792FF" fill-rule="nonzero"></path>
                <path d="M566.163313,245.682619 L581.733134,242.222691 C581.596233,242.982187 581.448801,243.739047 581.285574,244.495906 L564.604752,248.203725 C561.573225,252.925955 558.224596,257.436202 554.582042,261.703246 C555.435039,261.663689 556.285402,261.624131 557.138399,261.574026 C558.960231,261.46854 560.780308,261.334925 562.59863,261.17318 C567.161986,260.765303 571.706914,260.1781 576.233412,259.411571 C575.866588,260.193922 575.486601,260.972758 575.09345,261.748077 C574.019307,261.923886 572.94253,262.087389 571.863121,262.238585 C567.936879,262.797659 563.997474,263.223117 560.044906,263.514961 C558.098459,263.659125 556.151134,263.770764 554.202932,263.849878 C553.697151,263.896976 553.188899,263.91195 552.681229,263.894709 C549.521982,267.470671 546.199508,270.896316 542.771725,274.179556 C542.676948,274.269219 542.579538,274.356244 542.487393,274.44327 C550.606657,274.66479 558.72592,274.735992 566.845184,274.656878 C566.278275,275.382971 565.699957,276.098515 565.110231,276.80351 C556.833005,276.861527 548.556657,276.763074 540.281186,276.508151 C536.948181,279.580419 533.517765,282.573573 530.24268,285.701221 C537.717808,286.508186 545.154324,287.581502 552.552226,288.92117 C551.788741,289.517163 551.012971,290.099092 550.224914,290.666956 C542.948116,289.392339 535.632705,288.37704 528.278682,287.621059 C526.196436,289.677083 524.233604,291.851017 522.39985,294.132159 C521.56265,295.187015 520.762307,296.257694 519.988292,297.34947 C520.743878,297.644829 521.544221,297.876898 522.307705,298.140612 C525.166824,299.09174 528.046126,299.970787 530.945612,300.777752 C529.72667,301.197057 528.499829,301.584717 527.259824,301.930182 C524.848266,301.21288 522.453382,300.444593 520.075171,299.625322 C519.611815,299.464456 519.166888,299.311502 518.758818,299.126902 C517.753125,300.628314 516.7878,302.159613 515.862842,303.7208 C515.142201,303.618552 514.455791,303.347501 513.859354,302.929658 C514.912436,301.12058 516.031336,299.34051 517.205522,297.605272 C517.121459,297.377994 517.064032,297.141706 517.034396,296.901156 C516.792187,294.920664 516.736901,292.897977 516.592102,290.909573 C516.447303,288.92117 516.299872,286.982872 516.157705,285.018202 C516.723737,283.628429 517.337158,282.262391 517.984803,280.917449 C518.20595,283.906208 518.42622,286.894967 518.645612,289.883726 C518.771982,291.599625 518.899229,293.316403 519.027354,295.034061 C520.080437,293.604731 521.181785,292.2132 522.3314,290.859468 C523.647753,289.319378 525.043086,287.839942 526.46738,286.402701 C525.972432,280.600992 525.475728,274.805437 524.977269,269.016035 C525.595955,268.116771 526.233069,267.230691 526.880715,266.349887 C527.407256,272.385421 527.925021,278.422714 528.434011,284.461765 C531.748587,281.270826 535.226391,278.238115 538.619949,275.126289 C537.92667,268.445534 537.10351,261.785876 536.150471,255.147315 C536.755993,254.477481 537.370291,253.812043 537.993365,253.151 C538.983262,259.858127 539.838891,266.582834 540.560253,273.325122 C541.255287,272.673749 541.942423,272.019738 542.619028,271.355179 C545.515004,268.533439 548.308305,265.614125 550.985766,262.589325 C550.910027,262.345592 550.850226,262.097175 550.806742,261.845651 C549.701479,255.95946 548.300859,250.132785 546.61021,244.387783 L548.331999,242.700013 C549.091973,245.207055 549.794028,247.732556 550.438164,250.276517 C551.301691,253.692493 552.05991,257.132203 552.712821,260.595647 C555.395548,257.452176 557.938741,254.197945 560.302911,250.809219 C561.076926,249.703379 561.82988,248.579078 562.561772,247.436317 C561.134846,242.562882 559.633326,237.712302 558.057213,232.884578 C558.615347,232.295616 559.16646,231.701381 559.710552,231.101871 C561.232256,235.718624 562.684632,240.359112 564.06768,245.023334 C566.698237,240.678975 568.97669,236.130267 570.881122,231.420965 C570.782299,231.314755 570.708527,231.187689 570.66524,231.049128 C569.719221,227.803687 568.772324,224.55561 567.824551,221.304895 C568.361622,220.582319 568.888164,219.85271 569.404174,219.116069 L572.073737,228.272219 C574.345916,221.997893 575.774841,215.448703 576.322924,208.796939 C576.674765,208.569859 577.109321,208.511621 577.508382,208.638068 C577.907442,208.764514 578.229506,209.062493 578.386965,209.45095 L578.386965,209.479958 C577.805781,215.917373 576.43069,222.257874 574.293108,228.356608 C576.983733,227.090781 579.6375,225.752871 582.254409,224.34288 C582.343921,225.102377 582.422902,225.86451 582.480822,226.624007 C579.458476,228.229146 576.386986,229.742865 573.266353,231.165162 C571.319821,236.199902 568.943331,241.057059 566.163313,245.682619 Z" id="Shape" fill="#181A44" fill-rule="nonzero"></path>
                <path d="M582.617723,269.543463 C581.819135,269.441494 581.018793,269.353589 580.216695,269.279749 C574.747023,268.79273 569.24007,268.921878 563.799144,269.664772 C562.904024,269.78608 562.011537,269.928486 561.11905,270.073529 C555.853881,270.972298 550.688061,272.380079 545.694028,274.27713 C544.795398,274.614684 543.903789,274.966303 543.019199,275.331986 C537.398904,277.674692 532.042901,280.608704 527.04131,284.084654 C526.209375,284.663067 525.387971,285.255545 524.577098,285.862087 C518.469933,290.411703 513.05956,295.83119 508.517594,301.948642 C507.717252,303.031628 506.951134,304.136589 506.219242,305.263527 C505.373266,306.555726 504.573801,307.874296 503.820848,309.219238 C502.870441,310.92283 501.222367,313.625899 500.885381,316.059979 C500.7609,316.809579 500.812276,317.577911 501.035445,318.304186 C501.087423,318.449706 501.147184,318.592318 501.214469,318.731402 C503.094221,322.531521 512.071747,321.959262 515.694349,321.837953 C516.993151,321.795759 518.285809,321.717524 519.572324,321.603248 C521.130886,321.471391 522.68155,321.289428 524.224315,321.05736 C528.979432,320.338944 533.671176,319.249119 538.256635,317.797855 C539.343943,317.460301 540.425985,317.10165 541.505394,316.742999 L541.6186,316.703442 C546.355434,315.038338 551.003879,313.130938 555.545612,310.988759 C556.402119,310.589672 557.255993,310.183552 558.107235,309.7704 C560.955822,308.393813 563.770184,306.953934 566.550321,305.48241 C567.542851,304.954982 568.527483,304.427554 569.514747,303.900126 L571.734118,302.708139 C575.978039,300.429649 580.206164,298.161709 584.534332,296.057271 C585.297817,295.685434 586.058669,295.321509 586.827419,294.962858 C588.019157,294.403784 589.21967,293.862291 590.42896,293.338379 C593.282812,292.101561 596.173523,290.946493 599.116888,289.910097 C600.00411,289.601552 600.891331,289.303555 601.786451,289.018744 C602.369157,288.834144 602.953617,288.658335 603.539833,288.491316 C604.816695,288.114205 609.926777,286.336772 613.544114,285.653753 C613.788457,285.613254 614.018034,285.509634 614.210188,285.353119 C614.546603,285.074063 614.741317,284.659311 614.741317,284.221786 C614.741317,283.78426 614.546603,283.369509 614.210188,283.090453 L614.186494,283.069355 C610.062118,279.637456 605.494437,276.778512 600.606999,274.569853 C599.878617,274.241089 599.145848,273.927269 598.40869,273.628394 C593.342589,271.591344 588.035017,270.21834 582.617723,269.543463 L582.617723,269.543463 Z" id="Shape" fill="#6858F7" fill-rule="nonzero"></path>
                <path d="M574.322068,284.00554 C577.089919,279.181332 579.85777,274.360639 582.625621,269.543463 C581.827033,269.441494 581.026691,269.353589 580.224593,269.279749 C577.258412,274.44327 574.293108,279.607669 571.328682,284.772948 C565.684138,286.329483 560.151528,288.267837 554.768964,290.574656 C555.070848,289.736046 555.379752,288.898314 555.695676,288.061462 C556.369649,286.278755 557.071704,284.504839 557.801841,282.739713 C559.630693,278.307559 561.633305,273.952762 563.809675,269.67532 C562.914555,269.796629 562.022068,269.939034 561.12958,270.084077 C560.622346,271.102013 560.123887,272.126103 559.634204,273.156345 C557.850985,276.899326 556.196768,280.699445 554.671554,284.556703 C553.920355,286.453685 553.201627,288.362096 552.515368,290.281934 C552.307162,290.771793 552.131271,291.274809 551.988827,291.787741 C547.444777,293.823613 542.998138,296.073094 538.662072,298.470254 L538.306657,298.670677 C540.619927,290.495542 543.083262,282.367876 545.696661,274.287679 C544.798031,274.625233 543.906421,274.976851 543.021832,275.342535 C540.376841,283.586235 537.889812,291.879162 535.560745,300.221315 C531.461622,302.594741 527.42042,305.081565 523.279174,307.370602 C524.811408,299.659604 526.066331,291.901138 527.043943,284.095203 C526.212008,284.673616 525.390604,285.266093 524.57973,285.872635 C523.574037,293.534407 522.299807,301.154863 520.757042,308.734004 C518.060515,310.169035 515.284669,311.449237 512.442958,312.568406 C511.126605,313.074737 509.810253,313.538873 508.4939,313.974001 C508.433348,313.124842 508.457042,312.257223 508.441246,311.410701 C508.388592,308.261956 508.414041,305.114089 508.517594,301.967102 C507.717252,303.050088 506.951134,304.155049 506.219242,305.281987 C506.180629,307.919128 506.197303,310.550114 506.269264,313.174948 C506.28506,313.686553 506.298223,314.179698 506.356143,314.635924 C504.548352,315.163352 502.724765,315.645069 500.885381,316.081076 C500.7609,316.830676 500.812276,317.599008 501.035445,318.325283 C503.167937,317.8295 505.284632,317.270427 507.377633,316.645424 C507.578447,316.801218 507.796673,316.933082 508.027911,317.038358 C509.920826,317.898066 511.913784,318.583722 513.848823,319.35113 L519.574957,321.624345 C521.133519,321.492488 522.684182,321.310525 524.226948,321.078457 C521.325706,319.928664 518.423587,318.777113 515.520591,317.623803 L510.51845,315.6354 C512.273587,315.034132 514.00152,314.368693 515.702247,313.639085 C517.650449,312.800474 519.553896,311.874838 521.431015,310.901733 L538.261901,317.818952 C539.349208,317.481398 540.43125,317.122747 541.510659,316.764096 L523.974208,309.556792 C528.186537,307.246657 532.288292,304.720276 536.442701,302.304656 C542.870013,305.082444 549.239405,307.983298 555.550878,311.007219 C556.407384,310.608131 557.261259,310.202012 558.1125,309.78886 C551.748373,306.706922 545.324572,303.753325 538.841096,300.928069 C539.704623,300.437561 540.571661,299.956722 541.442209,299.485553 C545.154324,297.486601 548.932256,295.601046 552.778639,293.871082 C552.997619,294.022998 553.226274,294.160422 553.463142,294.282476 C558.974828,297.223596 564.334813,300.441484 569.522646,303.92386 L571.742016,302.731873 C569.483155,301.190025 567.189191,299.695645 564.860124,298.248734 C561.73247,296.314832 558.547774,294.483777 555.306036,292.755571 C559.268258,291.05989 563.301563,289.535623 567.416481,288.232876 C568.759161,287.805659 570.113249,287.404814 571.478746,287.03034 C575.88414,289.978663 580.24039,292.992035 584.547496,296.070457 C585.31098,295.69862 586.071832,295.334695 586.840582,294.976043 C582.719521,292.017172 578.555458,289.116318 574.348395,286.273481 C579.49173,285.004994 584.728263,284.151345 590.007727,283.720729 C590.083925,283.851054 590.187173,283.963468 590.310488,284.050372 L599.119521,289.928557 C600.006742,289.620012 600.893964,289.322015 601.789084,289.037204 L593.511858,283.499209 C600.464189,283.194662 607.426129,283.81541 614.215454,285.345207 C614.551868,285.066151 614.746582,284.6514 614.746582,284.213874 C614.746582,283.776349 614.551868,283.361597 614.215454,283.082541 L614.191759,283.061444 C607.605792,281.631228 600.868207,281.024452 594.133176,281.255003 C596.239341,278.969482 598.399037,276.738461 600.612265,274.561941 C599.883883,274.233178 599.151113,273.919358 598.413955,273.620482 C595.870762,276.13983 593.405672,278.733018 591.018686,281.400046 C585.38861,281.785154 579.802289,282.656895 574.322068,284.00554 L574.322068,284.00554 Z" id="Shape" fill="#181A44" fill-rule="nonzero"></path>
                <path d="M115.839041,182.7921 C119.702278,181.708633 123.421696,180.164529 126.917466,178.192927 L136.382042,187.686632 C137.691969,188.994233 139.810985,188.994233 141.120912,187.686632 L155.621854,173.161264 C156.927256,171.84913 156.927256,169.726545 155.621854,168.414411 L146.144114,158.920706 C148.11175,155.419659 149.65323,151.694928 150.735552,147.826258 L164.117594,147.826258 C165.96614,147.820467 167.463247,146.320838 167.469028,144.469178 L167.469028,123.928493 C167.46324,122.077264 165.965714,120.578394 164.117594,120.574051 L150.751348,120.574051 C149.670185,116.70414 148.128654,112.9784 146.15991,109.476965 L155.63765,99.9832603 C156.940169,98.6699348 156.940169,96.5497334 155.63765,95.2364079 L141.113014,80.7242254 C139.802491,79.4180703 137.684667,79.4180703 136.374144,80.7242254 L126.896404,90.2047444 C123.407564,88.2341218 119.695234,86.690024 115.839041,85.6055719 L115.839041,72.2036254 C115.834721,70.3529849 114.340386,68.8525991 112.492872,68.8439088 L91.9893622,68.8439088 C90.1408162,68.8496998 88.6437093,70.3493285 88.6379281,72.2009883 L88.6379281,85.6029348 C84.7742392,86.6862731 81.0547032,88.231312 77.5595034,90.2047444 L68.0817637,80.7242254 C66.7706468,79.4195124 64.6540108,79.4195124 63.3428938,80.7242254 L48.8445848,95.2469565 C47.5420658,96.5602819 47.5420658,98.6804834 48.8445848,99.9938088 L58.309161,109.487514 C56.3395747,112.988858 54.797161,116.714594 53.7150899,120.584599 L40.3488442,120.584599 C38.4996999,120.588949 37.0017525,122.08942 36.9974101,123.941679 L36.9974101,144.479727 C37.0031914,146.331387 38.5002982,147.831015 40.3488442,147.836806 L53.7282534,147.836806 C54.8107816,151.706653 56.3531731,155.432335 58.3223245,158.933892 L48.8577483,168.414411 C47.5523462,169.726545 47.5523462,171.84913 48.8577483,173.161264 L63.3586901,187.686632 C64.668617,188.994233 66.787633,188.994233 68.0975599,187.686632 L77.5752997,178.192927 C81.0698357,180.16582 84.7884344,181.710837 88.6510916,182.794737 L88.6510916,196.19932 C88.65688,198.050549 90.1544057,199.549419 92.0025257,199.553763 L112.506036,199.553763 C114.348579,199.540736 115.836197,198.042373 115.839041,196.196683 L115.839041,182.7921 Z M102.241117,160.484531 C91.6274781,160.486664 82.0577421,154.084034 77.9946024,144.262405 C73.9314627,134.440776 76.1751608,123.134532 83.6793841,115.616159 C91.1836074,108.097787 102.470388,105.84804 112.276316,109.916053 C122.082244,113.984066 128.476027,123.568637 128.476027,134.200154 C128.476028,148.714555 116.73111,160.481618 102.241117,160.484531 L102.241117,160.484531 Z" id="Shape" fill="#F18A00"></path>
                <path d="M115.839041,182.7921 C119.702278,181.708633 123.421696,180.164529 126.917466,178.192927 L136.382042,187.686632 C137.691969,188.994233 139.810985,188.994233 141.120912,187.686632 L155.621854,173.161264 C156.927256,171.84913 156.927256,169.726545 155.621854,168.414411 L146.144114,158.920706 C148.11175,155.419659 149.65323,151.694928 150.735552,147.826258 L164.117594,147.826258 C165.96614,147.820467 167.463247,146.320838 167.469028,144.469178 L167.469028,123.928493 C167.46324,122.077264 165.965714,120.578394 164.117594,120.574051 L150.751348,120.574051 C149.670185,116.70414 148.128654,112.9784 146.15991,109.476965 L155.63765,99.9832603 C156.940169,98.6699348 156.940169,96.5497334 155.63765,95.2364079 L141.113014,80.7242254 C139.802491,79.4180703 137.684667,79.4180703 136.374144,80.7242254 L126.896404,90.2047444 C123.407564,88.2341218 119.695234,86.690024 115.839041,85.6055719 L115.839041,72.2036254 C115.834721,70.3529849 114.340386,68.8525991 112.492872,68.8439088 L91.9893622,68.8439088 C90.1408162,68.8496998 88.6437093,70.3493285 88.6379281,72.2009883 L88.6379281,85.6029348 C84.7742392,86.6862731 81.0547032,88.231312 77.5595034,90.2047444 L68.0817637,80.7242254 C66.7706468,79.4195124 64.6540108,79.4195124 63.3428938,80.7242254 L48.8445848,95.2469565 C47.5420658,96.5602819 47.5420658,98.6804834 48.8445848,99.9938088 L58.309161,109.487514 C56.3395747,112.988858 54.797161,116.714594 53.7150899,120.584599 L40.3488442,120.584599 C38.4996999,120.588949 37.0017525,122.08942 36.9974101,123.941679 L36.9974101,144.479727 C37.0031914,146.331387 38.5002982,147.831015 40.3488442,147.836806 L53.7282534,147.836806 C54.8107816,151.706653 56.3531731,155.432335 58.3223245,158.933892 L48.8577483,168.414411 C47.5523462,169.726545 47.5523462,171.84913 48.8577483,173.161264 L63.3586901,187.686632 C64.668617,188.994233 66.787633,188.994233 68.0975599,187.686632 L77.5752997,178.192927 C81.0698357,180.16582 84.7884344,181.710837 88.6510916,182.794737 L88.6510916,196.19932 C88.65688,198.050549 90.1544057,199.549419 92.0025257,199.553763 L112.506036,199.553763 C114.348579,199.540736 115.836197,198.042373 115.839041,196.196683 L115.839041,182.7921 Z M102.241117,160.484531 C91.6274781,160.486664 82.0577421,154.084034 77.9946024,144.262405 C73.9314627,134.440776 76.1751608,123.134532 83.6793841,115.616159 C91.1836074,108.097787 102.470388,105.84804 112.276316,109.916053 C122.082244,113.984066 128.476027,123.568637 128.476027,134.200154 C128.476028,148.714555 116.73111,160.481618 102.241117,160.484531 L102.241117,160.484531 Z" id="Shape" fill="#00CBDC"></path>
                <path d="M102.241117,164.176527 C116.520079,164.181283 128.813718,154.08128 131.603068,140.053824 C134.392418,126.026367 126.900517,111.978757 113.709517,106.502712 C100.518517,101.026667 85.3027265,105.647521 77.3683403,117.539093 C69.4339541,129.430665 70.9910679,145.2806 81.0873288,155.39485 C86.6938524,161.025754 94.3096487,164.186157 102.249015,164.176527 L102.241117,164.176527 Z M124.642808,156.636943 C113.955701,167.343756 97.2062357,168.997278 84.6381393,160.586241 C72.0700428,152.175204 67.1838969,136.042326 72.967997,122.054239 C78.752097,108.066153 93.5954024,100.118947 108.419965,103.073018 C123.244527,106.027088 133.921274,119.059639 133.920462,134.200154 C133.929874,142.617388 130.591184,150.691572 124.642808,156.636943 L124.642808,156.636943 Z" id="Shape" fill="#292A72"></path>
                <path d="M102.241117,179.532594 C123.830006,179.531232 142.411657,164.254407 146.62264,143.044516 C150.833622,121.834625 139.501167,100.598669 119.555531,92.3232952 C99.6098937,84.0479212 76.6059781,91.0378385 64.6116091,109.01843 C52.6172402,126.999021 54.9728758,150.962652 70.2379495,166.254593 C78.7162214,174.770826 90.234315,179.549642 102.241117,179.532594 Z M135.481657,167.496686 C119.623192,183.381616 94.7709806,185.833262 76.1236518,173.352294 C57.4763231,160.871326 50.2274221,136.933871 58.8100899,116.179129 C67.3927576,95.4243872 89.4165995,83.632848 111.412705,88.0157502 C133.408811,92.3986524 149.250954,111.735296 149.250706,134.200154 C149.266824,146.692055 144.311473,158.675162 135.481657,167.496686 Z" id="Shape" fill="#292A72"></path>
                <path d="M454.668236,73.4246214 C457.14685,72.731302 459.533372,71.742326 461.776541,70.4789358 L467.831764,76.5443582 C468.671613,77.3800842 470.027424,77.3800842 470.867273,76.5443582 L480.158091,67.2378905 C480.992411,66.3966263 480.992411,65.038532 480.158091,64.1972678 L474.102868,58.1318454 C475.365618,55.8853 476.353846,53.4946829 477.046233,51.0115668 L485.620955,51.0115668 C486.804168,51.007228 487.762278,50.0475044 487.76661,48.8622976 L487.76661,35.7082423 C487.762278,34.5230355 486.804168,33.5633118 485.620955,33.558973 L477.046233,33.558973 C476.354296,31.0761095 475.366973,28.6855423 474.105501,26.4386945 L480.160723,20.373272 C480.995044,19.5320079 480.995044,18.1739136 480.160723,17.3326494 L470.869906,8.02618165 C470.030651,7.18901259 468.673651,7.18901259 467.834396,8.02618165 L461.779174,14.0916041 C459.536406,12.8267268 457.149809,11.8368342 454.670869,11.1432814 L454.670869,2.56730145 C454.669422,1.38046608 453.710051,0.418299516 452.525214,0.415395049 L439.388014,0.415395049 C438.202748,0.418294359 437.24262,1.38003937 437.239726,2.56730145 L437.239726,11.1538299 C434.760919,11.8477695 432.374367,12.8376433 430.131421,14.1021527 L424.076199,8.03673021 C423.236639,7.19780886 421.877616,7.19780886 421.038057,8.03673021 L411.755137,17.3326494 C410.917929,18.1727191 410.917929,19.5332023 411.755137,20.373272 L417.81036,26.4386945 C416.547977,28.6854188 415.559768,31.0759906 414.866995,33.558973 L406.294906,33.558973 C405.10964,33.5618723 404.149513,34.5236173 404.146618,35.7108794 L404.146618,48.870209 C404.149518,50.0570417 405.110066,51.0180291 406.294906,51.0194783 L414.866995,51.0194783 C415.560032,53.5023691 416.548229,55.8929097 417.81036,58.1397568 L411.755137,64.2051792 C410.917929,65.045249 410.917929,66.4057322 411.755137,67.2458019 L421.045955,76.5522696 C421.885804,77.3879956 423.241615,77.3879956 424.081464,76.5522696 L430.136687,70.4868472 C432.379633,71.7513565 434.766184,72.7412303 437.244991,73.4351699 L437.244991,82.0243355 C437.249331,83.2105676 438.209037,84.1707124 439.393279,84.1736048 L452.530479,84.1736048 C453.714291,84.1707055 454.67324,83.2101412 454.676134,82.0243355 L454.676134,73.4246214 L454.668236,73.4246214 Z M445.953981,59.1313215 C439.153977,59.1313215 433.023545,55.0281978 430.421296,48.7352307 C427.819047,42.4422635 429.25745,35.1987449 434.065779,30.3823164 C438.874108,25.5658878 446.105445,24.1250624 452.38783,26.7316948 C458.670215,29.3383271 462.766438,35.4790856 462.766438,42.2905442 C462.764985,51.5918753 455.237038,59.1313216 445.951348,59.1313215 L445.953981,59.1313215 Z" id="Shape" fill="#F18A00"></path>
                <path d="M454.668236,73.4246214 C457.14685,72.731302 459.533372,71.742326 461.776541,70.4789358 L467.831764,76.5443582 C468.671613,77.3800842 470.027424,77.3800842 470.867273,76.5443582 L480.158091,67.2378905 C480.992411,66.3966263 480.992411,65.038532 480.158091,64.1972678 L474.102868,58.1318454 C475.365618,55.8853 476.353846,53.4946829 477.046233,51.0115668 L485.620955,51.0115668 C486.804168,51.007228 487.762278,50.0475044 487.76661,48.8622976 L487.76661,35.7082423 C487.762278,34.5230355 486.804168,33.5633118 485.620955,33.558973 L477.046233,33.558973 C476.354296,31.0761095 475.366973,28.6855423 474.105501,26.4386945 L480.160723,20.373272 C480.995044,19.5320079 480.995044,18.1739136 480.160723,17.3326494 L470.869906,8.02618165 C470.030651,7.18901259 468.673651,7.18901259 467.834396,8.02618165 L461.779174,14.0916041 C459.536406,12.8267268 457.149809,11.8368342 454.670869,11.1432814 L454.670869,2.56730145 C454.669422,1.38046608 453.710051,0.418299516 452.525214,0.415395049 L439.388014,0.415395049 C438.202748,0.418294359 437.24262,1.38003937 437.239726,2.56730145 L437.239726,11.1538299 C434.760919,11.8477695 432.374367,12.8376433 430.131421,14.1021527 L424.076199,8.03673021 C423.236639,7.19780886 421.877616,7.19780886 421.038057,8.03673021 L411.755137,17.3326494 C410.917929,18.1727191 410.917929,19.5332023 411.755137,20.373272 L417.81036,26.4386945 C416.547977,28.6854188 415.559768,31.0759906 414.866995,33.558973 L406.294906,33.558973 C405.10964,33.5618723 404.149513,34.5236173 404.146618,35.7108794 L404.146618,48.870209 C404.149518,50.0570417 405.110066,51.0180291 406.294906,51.0194783 L414.866995,51.0194783 C415.560032,53.5023691 416.548229,55.8929097 417.81036,58.1397568 L411.755137,64.2051792 C410.917929,65.045249 410.917929,66.4057322 411.755137,67.2458019 L421.045955,76.5522696 C421.885804,77.3879956 423.241615,77.3879956 424.081464,76.5522696 L430.136687,70.4868472 C432.379633,71.7513565 434.766184,72.7412303 437.244991,73.4351699 L437.244991,82.0243355 C437.249331,83.2105676 438.209037,84.1707124 439.393279,84.1736048 L452.530479,84.1736048 C453.714291,84.1707055 454.67324,83.2101412 454.676134,82.0243355 L454.676134,73.4246214 L454.668236,73.4246214 Z M445.953981,59.1313215 C439.153977,59.1313215 433.023545,55.0281978 430.421296,48.7352307 C427.819047,42.4422635 429.25745,35.1987449 434.065779,30.3823164 C438.874108,25.5658878 446.105445,24.1250624 452.38783,26.7316948 C458.670215,29.3383271 462.766438,35.4790856 462.766438,42.2905442 C462.764985,51.5918753 455.237038,59.1313216 445.951348,59.1313215 L445.953981,59.1313215 Z" id="Shape" fill="#00CBDC"></path>
                <path d="M445.951348,61.4968363 C455.100209,61.4970018 462.97509,55.0234371 464.759876,46.0352414 C466.544663,37.0470456 461.742246,28.0476614 453.289685,24.5409271 C444.837125,21.0341928 435.088675,23.9968237 430.006287,31.6169356 C424.923899,39.2370475 425.923149,49.3922442 432.392915,55.8718162 C435.98527,59.4790705 440.864746,61.5034303 445.951348,61.4968363 L445.951348,61.4968363 Z M460.304859,56.6682326 C453.45586,63.5275094 442.72341,64.5852961 434.671123,59.1946853 C426.618837,53.8040744 423.489421,43.466449 427.196723,34.5039607 C430.904026,25.5414723 440.415496,20.4503369 449.914232,22.3441254 C459.412967,24.2379138 466.253397,32.5891716 466.25214,42.2905442 C466.257825,47.6847212 464.117566,52.8588459 460.304859,56.6682326 L460.304859,56.6682326 Z" id="Shape" fill="#292A72"></path>
                <path d="M445.951348,71.3360063 C459.784653,71.3349347 471.690888,61.545954 474.388877,47.9554483 C477.086866,34.3649425 469.825209,20.757919 457.044723,15.4556594 C444.264237,10.1533999 429.524334,14.6326038 421.839103,26.1540447 C414.153871,37.6754856 415.663675,53.0303986 425.445205,62.8285921 C430.878263,68.284476 438.258193,71.3461985 445.951348,71.3360063 L445.951348,71.3360063 Z M467.249936,63.6250084 C457.088905,73.8031337 441.165195,75.3741059 429.217108,67.3771814 C417.269022,59.3802569 412.624266,44.0426899 418.123388,30.7443211 C423.62251,17.4459523 437.733927,9.89056169 451.827663,12.698723 C465.921399,15.5068844 476.072154,27.8964858 476.072132,42.2905442 C476.081987,50.2944874 472.907044,57.9723612 467.249936,63.6250084 L467.249936,63.6250084 Z" id="Shape" fill="#292A72"></path>
                <path d="M128.078489,286.495001 L35.3809289,286.495001 L35.3809289,244.564471 L128.078489,134.189606 L172.442209,134.189606 L172.442209,246.940535 L195.430993,246.940535 L195.430993,286.484452 L172.442209,286.484452 L172.442209,320.767275 L128.078489,320.767275 L128.078489,286.495001 Z M128.078489,246.951083 L128.078489,189.216173 L79.110167,246.951083 L128.078489,246.951083 Z" id="Shape" fill="#6944FF" fill-rule="nonzero"></path>
                <path d="M211.282513,228.306502 C211.282513,193.436476 217.550107,169.03326 230.085295,155.096853 C242.620484,141.160446 261.713741,134.19488 287.365068,134.200154 C299.691396,134.200154 309.811515,135.722663 317.725428,138.767681 C325.639341,141.812699 332.093857,145.775442 337.088977,150.655909 C342.085852,155.536377 346.020869,160.667372 348.894028,166.048896 C351.767187,171.430421 354.078703,177.706814 355.828574,184.878077 C359.238806,198.564835 360.943921,212.831764 360.943921,227.678863 C360.943921,260.968363 355.322217,285.329385 344.07881,300.761929 C332.835402,316.194473 313.470976,323.911625 285.985531,323.913383 C270.577183,323.913383 258.126241,321.452052 248.632705,316.52939 C239.13917,311.606729 231.351627,304.390634 225.270077,294.881106 C220.855908,288.121237 217.420227,278.881577 214.963035,267.162126 C212.505843,255.442675 211.279003,242.4908 211.282513,228.306502 Z M261.756742,228.430448 C261.756742,251.790236 263.818151,267.745813 267.940967,276.297179 C272.063784,284.848546 278.039148,289.124229 285.867059,289.124229 C291.030672,289.124229 295.506271,287.309877 299.293857,283.681172 C303.081443,280.052467 305.87211,274.316687 307.66586,266.473832 C309.4561,258.632735 310.35122,246.413986 310.35122,229.817584 C310.35122,205.459199 308.289812,189.086953 304.166995,180.700847 C300.044178,172.314742 293.859953,168.122568 285.614319,168.124326 C277.200193,168.124326 271.120398,172.400009 267.374936,180.951376 C263.629473,189.502742 261.756742,205.3291 261.756742,228.430448 Z" id="Shape" fill="#6944FF" fill-rule="nonzero"></path>
                <path d="M469.390325,286.495001 L376.692765,286.495001 L376.692765,244.564471 L469.390325,134.189606 L513.740882,134.189606 L513.740882,246.940535 L536.727033,246.940535 L536.727033,286.484452 L513.740882,286.484452 L513.740882,320.767275 L469.390325,320.767275 L469.390325,286.495001 Z M469.390325,246.951083 L469.390325,189.216173 L420.40884,246.951083 L469.390325,246.951083 Z" id="Shape" fill="#6944FF" fill-rule="nonzero"></path>
                <path d="M285.20625,121.586713 C285.20625,121.586713 266.30869,120.827216 261.922603,122.997583 C257.536515,125.167949 258.547474,130.961746 260.572025,138.200696 C262.596575,145.439646 266.30869,165.558388 266.30869,165.558388 L276.094456,162.657534 C276.094456,162.657534 271.031764,138.198059 273.058947,135.663767 L299.041117,135.302479 C299.041117,135.302479 300.728682,141.301973 295.668622,162.657534 L305.117402,164.830538 C305.117402,164.830538 311.191053,140.371062 312.878617,132.768187 C314.566182,125.165312 310.851434,120.901056 300.391695,121.225425 C289.931956,121.549793 285.20625,121.586713 285.20625,121.586713 Z" id="Shape" fill="#292A72" fill-rule="nonzero"></path>
                <path d="M310.854067,104.163127 C310.854067,104.163127 311.528039,108.867786 310.854067,110.679501 C310.180094,112.491216 300.728682,120.452742 300.728682,120.452742 L299.380736,112.127291 C299.380736,112.127291 303.785253,108.050272 303.945848,106.467988 C304.106443,104.885704 310.854067,104.163127 310.854067,104.163127 Z" id="Shape" fill="#FED4B8" fill-rule="nonzero"></path>
                <path d="M261.922603,104.888341 C261.922603,104.888341 260.572025,110.315576 260.909011,112.488579 C261.245997,114.661583 269.683818,121.175319 269.683818,121.175319 L269.683818,112.488579 C268.404865,111.187283 267.828807,109.34923 268.135788,107.549215 C268.670227,104.524416 261.922603,104.888341 261.922603,104.888341 Z" id="Shape" fill="#FED4B8" fill-rule="nonzero"></path>
                <path d="M282.844713,82.446278 C282.844713,82.446278 267.659268,80.998488 264.958112,89.6852278 C263.328912,94.9191386 261.974721,100.234995 260.901113,105.610917 L268.999315,107.783921 L271.023866,101.628836 L271.363485,121.900532 L302.071361,121.175319 L301.05777,101.628836 L303.084953,106.697419 L311.185788,104.524416 C311.185788,104.524416 309.161237,91.1330178 305.786109,87.1509361 C302.41098,83.1688544 293.304452,82.8207519 282.844713,82.446278 Z" id="Shape" fill="#9792FF" fill-rule="nonzero"></path>
                <path d="M280.483176,82.8207519 L280.483176,87.1641218 C280.465907,88.9562245 281.259632,90.6597899 282.641995,91.7975771 C283.556901,92.5440812 284.700205,92.9528258 285.880223,92.9552816 L285.880223,92.9552816 C286.965978,92.9544861 288.023409,92.6081876 288.899936,91.9663541 C290.411244,90.8374982 291.292022,89.0523894 291.269371,87.1641218 L291.269371,82.8207519 L280.483176,82.8207519 Z" id="Shape" fill="#D3B39C" fill-rule="nonzero"></path>
                <path d="M277.950514,75.7479419 C277.950514,75.7479419 275.925963,76.1118672 276.599936,78.6487961 C277.273908,81.185725 277.950514,80.8217996 277.950514,80.8217996 C277.950514,80.8217996 279.638078,89.8698276 285.374743,89.8698276 C291.111408,89.8698276 293.472945,84.4425931 293.472945,81.1830878 C293.472945,81.1830878 294.823523,80.8217996 295.160509,78.2822336 C295.497496,75.7426676 293.812564,75.7479419 293.812564,75.7479419 C293.812564,75.7479419 295.160509,68.8729174 285.387907,69.2342056 C275.615304,69.5954938 277.950514,75.7479419 277.950514,75.7479419 Z" id="Shape" fill="#FED4B8" fill-rule="nonzero"></path>
                <path d="M278.455993,78.1029081 C278.455993,78.1029081 275.420484,71.5865346 276.431443,66.8818765 C277.442402,62.1772184 285.20625,62.1745813 287.225535,59.2790013 C287.225535,59.2790013 300.049443,60.0042149 293.636173,78.1029081 C293.636173,78.1029081 294.312778,73.3956128 290.600664,72.6730364 C286.888549,71.95046 282.839448,71.2252464 282.502461,70.5000329 C279.788327,72.0264783 278.208466,74.9948664 278.455993,78.1029081 L278.455993,78.1029081 Z" id="Shape" fill="#181A44" fill-rule="nonzero"></path>
                <polygon id="Shape" fill="#F0426A" fill-rule="nonzero" points="268.156849 107.07453 269.683818 128.052981 302.247753 127.871018 303.795783 106.863559"></polygon>
                <path d="M266.190218,165.009863 C266.190218,165.009863 265.295098,167.354281 262.596575,170.611149 C259.898052,173.868017 259.558433,176.041021 263.270548,175.679732 C266.982663,175.318444 278.119007,168.802071 277.782021,166.629067 C277.445034,164.456064 275.960188,162.072089 275.960188,162.072089 L266.190218,165.009863 Z" id="Shape" fill="#181A44" fill-rule="nonzero"></path>
                <path d="M305.196383,164.648575 C306.265101,166.786278 307.585594,168.78806 309.129645,170.611149 C311.828168,173.868017 312.167787,176.041021 308.455672,175.679732 C304.743557,175.318444 293.607213,168.802071 293.944199,166.629067 C294.281186,164.456064 295.766032,162.072089 295.766032,162.072089 L305.196383,164.648575 Z" id="Shape" fill="#181A44" fill-rule="nonzero"></path>
                <path d="M26.6956336,341.431905 C26.6956336,341.431905 31.7451627,327.386496 46.3277183,332.993057 C46.3277183,332.993057 42.9631207,290.854193 71.0066995,289.166424 C99.0502783,287.478654 97.3706122,324.003046 97.3706122,324.003046 C97.3706122,324.003046 102.978275,316.698167 111.953168,319.519907 C120.928061,322.341647 119.806528,333.567953 119.806528,333.567953 C119.806528,333.567953 130.287329,321.220863 139.999379,324.016231 C149.71143,326.8116 142.803211,336.376507 142.803211,336.376507 C142.803211,336.376507 162.996062,329.63334 167.484824,341.431905 L26.6956336,341.431905 Z" id="Shape" fill="#F065A0" fill-rule="nonzero"></path>
                <path d="M433.585531,323.913383 C433.585531,323.913383 437.942658,311.782538 450.532256,316.637513 C450.532256,316.637513 447.63628,280.260801 471.838741,278.8051 C496.041203,277.349398 494.595848,308.868498 494.595848,308.868498 C494.595848,308.868498 499.437393,302.563096 507.185445,304.989265 C514.933497,307.415434 513.964662,317.12011 513.964662,317.12011 C513.964662,317.12011 523.013271,306.463426 531.395805,308.873772 C539.778339,311.284118 533.817894,319.546279 533.817894,319.546279 C533.817894,319.546279 551.249037,313.72611 555.121747,323.910746 L433.585531,323.913383 Z" id="Shape" fill="#F065A0" fill-rule="nonzero"></path>
                <path d="M421.496147,225.698371 C421.333565,225.991441 421.127637,226.258176 420.88536,226.489513 L420.866931,226.507973 C419.400514,227.929391 416.796768,228.193105 415.680501,228.237937 C415.564887,228.243915 415.453108,228.195522 415.378236,228.107077 C415.303364,228.018631 415.273973,227.900259 415.298759,227.786986 C415.390903,227.317575 415.427761,226.468415 415.035488,225.176217 C415.0033,225.078128 414.932626,224.997396 414.839745,224.952619 C414.746863,224.907841 414.639784,224.902879 414.543172,224.938874 C412.650257,225.642991 410.857384,225.99373 409.717423,225.537505 C409.657401,225.513671 409.603439,225.476734 409.559461,225.429382 C408.734859,224.513349 408.04353,223.485263 407.50595,222.375574 C407.4375,222.233168 406.007941,218.443598 406.002676,218.419864 C406.031635,217.866064 404.299315,212.921426 404.19664,212.301698 C404.171298,212.164879 404.22786,212.025811 404.341438,211.945684 C405.147046,211.365514 408.380009,209.04483 408.640646,208.992087 C408.943408,208.926159 416.375535,207.554846 416.628275,207.657694 C416.881015,207.760543 420.648416,212.185664 421.138099,217.006356 C421.327654,218.873452 420.932748,220.263225 420.348288,221.273249 L420.348288,221.273249 C420.348288,221.273249 420.277205,224.654063 421.496147,225.698371 Z" id="Shape" fill="#FFBE9D" fill-rule="nonzero"></path>
                <path d="M422.565026,286.671689 C423.109996,286.407975 425.295141,285.184342 426.679944,281.273463 C426.738446,281.105079 426.675599,280.918389 426.527247,280.819875 C424.421083,279.480208 409.717423,270.271314 406.200128,271.394736 C405.120719,271.742838 403.07774,305.994015 403.093536,306.732414 C403.093536,307.091066 403.07774,310.804159 403.093536,311.23665 C403.325214,317.070004 405.368193,346.112829 405.597239,349.332777 C405.607257,349.505141 405.735194,349.647532 405.905265,349.675605 C407.227133,349.872424 408.562857,349.960623 409.89908,349.939319 L410.278189,349.609677 C411.197003,341.816928 415.206614,327.149154 413.174165,317.963995 C413.150471,317.850598 413.137307,317.7372 413.113613,317.623803 C413.113613,317.441841 413.079388,317.207135 413.04253,316.89859 C412.555479,312.83212 412.542316,314.018833 413.650685,308.892232 C413.655629,308.872531 413.661784,308.853156 413.669114,308.834215 C416.151755,302.428602 420.832705,290.748708 422.372838,286.877386 C422.404516,286.784403 422.474498,286.709502 422.565026,286.671689 L422.565026,286.671689 Z" id="Shape" fill="#222559" fill-rule="nonzero"></path>
                <path d="M443.129088,345.440358 C443.19531,345.604423 443.13962,345.792558 442.99482,345.893946 C440.770184,347.49469 439.206357,347.655556 439.206357,347.655556 C439.206357,347.655556 439.206357,347.655556 439.206357,347.634459 C438.679816,346.819583 422.46235,321.152297 419.34786,316.173376 C419.284675,316.065254 419.22149,315.962405 419.16357,315.875379 C419.16357,315.85692 419.131978,315.849008 419.131978,315.825274 C418.933594,315.509993 418.764397,315.177208 418.626498,314.831072 C418.602804,314.767781 418.571211,314.704489 418.55015,314.654384 C418.477464,314.48478 418.422755,314.308002 418.386922,314.126956 C418.360595,314.018833 418.342166,313.918621 418.323737,313.805224 C418.323737,313.805224 418.310574,313.773579 418.310574,313.755119 C417.876177,311.539921 416.838891,307.745076 415.583091,303.322592 C414.869628,300.817309 414.092979,298.11424 413.316331,295.387437 C412.695013,293.248717 412.084225,291.123182 411.520826,289.105769 L406.992573,271.458027 C406.965029,271.349206 406.986966,271.233753 407.052493,271.142676 C407.118019,271.051598 407.220419,270.99423 407.332192,270.985979 L410.965325,270.745999 C415.577825,270.429543 421.209182,268.108859 422.407063,267.581431 C422.550724,267.521453 422.716351,267.554843 422.825664,267.66582 C428.114769,272.963834 427.109075,279.604153 426.464063,282.932224 C426.464063,282.932224 426.464063,282.932224 426.464063,282.955958 C426.175172,284.484139 426.086667,286.043557 426.200792,287.594688 C426.566738,292.373186 427.272303,301.307817 427.343386,307.505097 L427.343386,307.523557 C427.343386,307.694971 427.606657,311.392241 431.134482,315.772531 C431.821121,316.512659 432.447925,317.306302 433.008968,318.145957 C438.261216,326.102209 440.204152,338.473034 443.129088,345.440358 Z" id="Shape" fill="#292A72" fill-rule="nonzero"></path>
                <path d="M428.672902,246.832412 C428.657106,248.786533 428.538634,250.732742 428.385938,252.605112 C428.180586,254.902061 427.90152,257.08825 427.611922,259.074017 C427.037992,263.050824 426.640454,268.667933 426.52988,270.350428 C426.511478,270.654945 426.31992,270.921731 426.037564,271.036085 L425.526819,271.231233 C417.291717,274.250759 405.170741,271.682184 405.170741,271.682184 C404.665261,271.719104 404.162414,271.323533 404.359867,270.363614 C404.512564,269.641038 405.268151,266.14419 405.241824,265.400516 C405.215497,264.71486 405.412949,262.391539 405.799957,259.176865 C405.933348,258.032346 406.09482,256.792012 406.284375,255.45586 C406.437072,254.329802 406.618729,253.140451 406.810916,251.916818 C407.037329,250.492763 407.224251,249.097715 407.413806,247.736951 C407.621789,246.196861 407.819242,244.701603 408.035124,243.224804 C408.388476,240.738949 408.898485,238.277976 409.562093,235.856635 C410.114668,233.874179 410.86527,231.952545 411.802526,230.120855 C414.095612,225.698371 419.650621,225.004803 420.614191,224.91514 C420.702641,224.902173 420.792609,224.924941 420.864298,224.978431 C425.010809,227.750066 427.124872,232.525926 428.059482,237.929427 C428.533136,240.872306 428.738456,243.852256 428.672902,246.832412 Z" id="Shape" fill="#9792FF" fill-rule="nonzero"></path>
                <path d="M420.843236,236.09134 C420.482556,232.739535 416.949465,233.351351 416.309717,233.757471 C415.57256,234.208422 413.721768,235.658849 411.644563,241.82712 C410.215004,246.07819 407.919285,247.91364 407.387479,249.957423 C407.216353,250.571877 406.984675,251.310276 406.79512,251.930004 L406.79512,251.930004 C406.268579,253.346148 405.35503,255.508603 404.480972,256.777068 C402.769713,259.266528 396.890882,268.359387 393.552611,272.805606 C393.289341,273.148434 392.423181,274.253396 391.812393,274.569853 C391.085766,274.944327 390.014255,275.735469 389.287628,276.036103 C389.244535,276.05803 389.203931,276.084555 389.166524,276.115217 L389.166524,276.115217 C389.166524,276.115217 387.471062,276.906359 386.873438,278.10362 L387.984439,278.10362 C387.597432,279.052991 387.355223,280.01291 387.579003,280.213333 C388.029195,280.637912 390.811965,281.365763 392.4811,280.545612 C394.07652,279.75447 393.481528,278.699614 393.871169,278.042966 C394.654726,276.817433 395.515618,275.643274 396.448587,274.527658 C398.512628,272.259718 400.821511,270.345154 404.128189,266.980163 C407.550706,263.48859 410.709953,259.825602 411.986815,257.570847 C412.134247,257.307133 414.003467,254.308704 414.029795,253.960602 L414.029795,253.960602 C416.288656,249.329784 419.600599,243.594004 420.40884,239.350845 C420.724765,237.729004 420.877461,236.523831 420.843236,236.09134 Z" id="Shape" fill="#FFBE9D" fill-rule="nonzero"></path>
                <path d="M406.510788,249.651515 C407.842937,251.268082 413.153104,253.079797 415.361943,253.227477 C416.59405,250.01544 424.708048,233.617703 420.221918,231.813899 C415.272432,229.825495 408.214148,243.541261 406.510788,249.651515 Z" id="Shape" fill="#6858F7" fill-rule="nonzero"></path>
                <path d="M410.420355,348.560095 L411.283883,351.321181 C411.428729,351.787224 411.343637,352.294492 411.054687,352.687522 C410.765736,353.080553 410.307383,353.312479 409.820098,353.312222 L397.077804,353.312222 C397.077804,353.312222 396.780308,350.938796 399.744735,350.342802 C401.676629,349.932127 403.564305,349.335108 405.381357,348.560095 L410.420355,348.560095 Z" id="Shape" fill="#181A44" fill-rule="nonzero"></path>
                <path d="M442.821062,344.425059 L444.505993,346.774751 C444.790423,347.171089 444.869688,347.679315 444.719495,348.143667 C444.569302,348.608019 444.207562,348.973123 443.745141,349.12708 L431.634696,353.143445 C431.634696,353.143445 430.607941,350.98099 433.235381,349.483094 C434.940125,348.485373 436.54397,347.323961 438.024272,346.015255 L442.821062,344.425059 Z" id="Shape" fill="#181A44" fill-rule="nonzero"></path>
                <path d="M420.343022,220.25795 C420.343022,220.25795 424.29208,212.591784 420.977504,206.637121 C417.662928,200.682459 407.837671,207.995248 401.166396,204.337535 C401.166396,204.337535 396.917209,210.458337 404.65473,212.842312 C408.969735,214.160882 413.745462,211.787456 413.745462,211.787456 L414.974936,215.948863 C414.974936,215.948863 415.296126,212.607607 416.504538,212.241044 C418.829217,211.513193 421.143365,216.76374 420.343022,220.25795 Z" id="Shape" fill="#181A44" fill-rule="nonzero"></path>
                <path d="M547.513228,31.8105491 C546.883644,31.8105491 546.373266,31.2993112 546.373266,30.6686674 L546.373266,22.6174784 C546.353072,22.1969098 546.565571,21.7993355 546.926188,21.5829936 C547.286806,21.3666517 547.737017,21.3666517 548.097634,21.5829936 C548.458252,21.7993355 548.670751,22.1969098 548.650557,22.6174784 L548.650557,30.6686674 C548.651256,30.9712705 548.531739,31.2617197 548.318373,31.4759402 C548.105006,31.6901607 547.815323,31.8105499 547.513228,31.8105491 Z" id="Shape" fill="#F0426A" fill-rule="nonzero"></path>
                <path d="M551.533369,27.783636 L543.493086,27.783636 C543.073225,27.8038648 542.676319,27.5910071 542.460341,27.2297824 C542.244363,26.8685577 542.244363,26.417588 542.460341,26.0563633 C542.676319,25.6951386 543.073225,25.482281 543.493086,25.5025097 L551.533369,25.5025097 C551.95323,25.482281 552.350136,25.6951386 552.566114,26.0563633 C552.782092,26.417588 552.782092,26.8685577 552.566114,27.2297824 C552.350136,27.5910071 551.95323,27.8038648 551.533369,27.783636 L551.533369,27.783636 Z" id="Shape" fill="#F0426A" fill-rule="nonzero"></path>
                <path d="M355.789084,77.6282228 C355.161555,77.6267728 354.653203,77.1175641 354.651755,76.4889783 L354.651755,68.4351521 C354.63156,68.0145836 354.84406,67.6170092 355.204677,67.4006673 C355.565295,67.1843254 356.015506,67.1843254 356.376123,67.4006673 C356.73674,67.6170092 356.94924,68.0145836 356.929045,68.4351521 L356.929045,76.4916154 C356.926147,77.1201985 356.416617,77.6282295 355.789084,77.6282228 L355.789084,77.6282228 Z" id="Shape" fill="#F0426A" fill-rule="nonzero"></path>
                <path d="M359.811858,73.6039469 L351.771575,73.6039469 C351.141992,73.6039469 350.631614,73.092709 350.631614,72.4620652 C350.631614,71.8314213 351.141992,71.3201835 351.771575,71.3201835 L359.811858,71.3201835 C360.441441,71.3201835 360.951819,71.8314213 360.951819,72.4620652 C360.951819,73.092709 360.441441,73.6039469 359.811858,73.6039469 Z" id="Shape" fill="#F0426A" fill-rule="nonzero"></path>
                <path d="M565.986922,173.45926 C565.067565,173.459262 564.321872,172.713492 564.32042,171.792588 L564.32042,160.030943 C564.35597,159.135523 565.090986,158.427969 565.985606,158.427969 C566.880226,158.427969 567.615241,159.135523 567.650792,160.030943 L567.650792,171.792588 C567.650792,172.234617 567.475492,172.658542 567.163456,172.971103 C566.85142,173.283665 566.428208,173.45926 565.986922,173.45926 L565.986922,173.45926 Z" id="Shape" fill="#F0426A" fill-rule="nonzero"></path>
                <path d="M571.857855,167.578438 L560.115989,167.578438 C559.222075,167.542827 558.515711,166.806574 558.515711,165.910447 C558.515711,165.01432 559.222075,164.278066 560.115989,164.242455 L571.857855,164.242455 C572.468562,164.218127 573.043566,164.530616 573.356147,165.056711 C573.668728,165.582806 573.668728,166.238087 573.356147,166.764182 C573.043566,167.290277 572.468562,167.602766 571.857855,167.578438 Z" id="Shape" fill="#F0426A" fill-rule="nonzero"></path>
                <path d="M381.850235,194.384968 C381.220652,194.384968 380.710274,193.87373 380.710274,193.243086 L380.710274,185.18926 C380.710274,184.558616 381.220652,184.047378 381.850235,184.047378 C382.479819,184.047378 382.990197,184.558616 382.990197,185.18926 L382.990197,193.243086 C382.990197,193.545932 382.870094,193.836374 382.65631,194.050518 C382.442526,194.264663 382.152572,194.384968 381.850235,194.384968 Z" id="Shape" fill="#F0426A" fill-rule="nonzero"></path>
                <path d="M385.870377,190.358055 L377.830094,190.358055 C377.200511,190.358055 376.690133,189.846817 376.690133,189.216173 C376.690133,188.585529 377.200511,188.074291 377.830094,188.074291 L385.870377,188.074291 C386.49996,188.074291 387.010338,188.585529 387.010338,189.216173 C387.010338,189.846817 386.49996,190.358055 385.870377,190.358055 L385.870377,190.358055 Z" id="Shape" fill="#F0426A" fill-rule="nonzero"></path>
                <path d="M15.7409461,286.107341 C15.1113627,286.107341 14.6009846,285.596103 14.6009846,284.965459 L14.6009846,276.91427 C14.6009846,276.283626 15.1113627,275.772389 15.7409461,275.772389 C16.3705294,275.772389 16.8809075,276.283626 16.8809075,276.91427 L16.8809075,284.968096 C16.8794559,285.59771 16.3695027,286.107343 15.7409461,286.107341 Z" id="Shape" fill="#F0426A" fill-rule="nonzero"></path>
                <path d="M19.7610873,282.080428 L11.7208048,282.080428 C11.0912215,282.080428 10.5808433,281.56919 10.5808433,280.938546 C10.5808433,280.307902 11.0912215,279.796664 11.7208048,279.796664 L19.7610873,279.796664 C20.3906707,279.796664 20.9010488,280.307902 20.9010488,280.938546 C20.9010488,281.56919 20.3906707,282.080428 19.7610873,282.080428 Z" id="Shape" fill="#F0426A" fill-rule="nonzero"></path>
                <path d="M5.42074058,169.342685 C4.79218563,169.34123 4.28341014,168.830418 4.28341182,168.200803 L4.28341182,160.149614 C4.26321708,159.729045 4.47571675,159.331471 4.83633399,159.115129 C5.19695124,158.898787 5.64716263,158.898787 6.00777988,159.115129 C6.36839712,159.331471 6.58089679,159.729045 6.56070205,160.149614 L6.56070205,168.200803 C6.56070205,168.831447 6.05032392,169.342685 5.42074058,169.342685 L5.42074058,169.342685 Z" id="Shape" fill="#F0426A" fill-rule="nonzero"></path>
                <path d="M9.44351455,165.315771 L1.40323202,165.315771 C0.98337073,165.336 0.586464959,165.123143 0.370486876,164.761918 C0.154508792,164.400693 0.154508792,163.949723 0.370486876,163.588499 C0.586464959,163.227274 0.98337073,163.014416 1.40323202,163.034645 L9.44351455,163.034645 C10.0511042,163.063919 10.5287088,163.565892 10.5287088,164.175208 C10.5287088,164.784525 10.0511042,165.286498 9.44351455,165.315771 L9.44351455,165.315771 Z" id="Shape" fill="#F0426A" fill-rule="nonzero"></path>
            </g>
        </g>
    </g>
</svg>