<?xml version="1.0" encoding="UTF-8"?>
<svg width="194px" height="124px" viewBox="0 0 194 124" version="1.1" xmlns="http://www.w3.org/2000/svg" xmlns:xlink="http://www.w3.org/1999/xlink">
    <title>bottom right</title>
    <g id="bottom-right" stroke="none" stroke-width="1" fill="none" fill-rule="evenodd">
        <g id="Group-21" transform="translate(-9.000000, 0.000000)" fill="#F3E9D4">
            <path d="M3.45878563,133 L0,133 C0.406313416,130.316624 1.09260751,127.668097 1.82670317,125.037677 C4.36360122,115.953352 8.68964407,107.688663 14.2175552,100.094988 C16.9559027,96.3353918 19.9810598,92.7688316 23.6003221,89.7615643 C25.6489612,88.0584028 27.6054115,86.2387362 29.555033,84.4170197 C36.0697053,78.3187791 43.6360122,73.7925036 51.6222902,69.9847333 C58.0857465,66.9029847 64.6413915,63.9944564 71.4223869,61.6520542 C75.8303753,60.1296294 80.2656789,58.6840775 84.7009824,57.2477503 C96.9108713,53.2944341 109.359768,50.1672451 121.655017,46.511854 C128.036528,44.6153145 134.291706,42.3197193 140.502496,39.8854112 C147.348365,37.2027184 153.962055,34.0700629 160.340151,30.4611371 C165.987566,27.2669833 171.535964,23.8876513 177.03656,20.4485292 C183.947302,16.1289564 190.772685,11.6689624 197.628797,7.26192525 C202.183604,4.33494743 206.997906,1.95632952 212,0 L212,2.46403222 C205.003898,5.44601687 198.530198,9.43144891 192.196489,13.6857652 C189.434241,15.5402809 186.767595,17.5362426 183.974617,19.3432679 C179.785151,22.0550017 175.493252,24.6058149 171.303785,27.3168653 C163.034112,32.6675598 154.341053,37.2194596 145.33387,41.1744841 C136.009148,45.2675382 126.342986,48.4046352 116.591464,51.2574734 C105.559543,54.4844263 94.4217748,57.3553724 83.488871,60.9212493 C80.1632469,62.0060111 76.8000644,62.9971589 73.5529715,64.2858901 C67.0519568,66.8664274 60.5441134,69.4555062 54.1762603,72.3496849 C45.964632,76.0833156 38.2515059,80.6820224 31.5558705,86.8294616 C29.4662587,88.745134 27.421034,90.7154714 25.2392334,92.5183968 C21.8623933,95.3097367 19.1889193,98.740659 16.6554357,102.226246 C10.9192463,110.114429 6.76733774,118.792182 4.38067322,128.303921 C3.99143179,129.862561 3.67730713,131.428035 3.45878563,133" id="Fill-4"></path>
            <path d="M34.2749341,133 L32,133 C31.9599228,127.916489 33.1619479,122.991536 35.8844834,118.230978 C39.2576879,112.328929 43.5007338,107.189133 48.880738,103.127334 C52.466266,100.420498 56.3326089,98.0057274 60.3222365,95.9396499 C65.8084025,93.0986218 71.2945684,90.2418064 76.9827842,87.7841352 C83.4415289,84.9928715 90.0680777,82.6978781 96.7528442,80.5679651 C105.033462,77.9290831 113.300381,75.2565673 121.437167,72.203097 C130.200649,68.9148764 138.871668,65.3994559 147.436525,61.6074144 C158.30612,56.7943463 168.699699,51.0844907 178.95287,45.104535 C183.278106,42.580969 187.555398,39.9623359 191.764198,37.247263 C194.846314,35.2584061 197.76405,33.0131771 200.794797,30.9361172 C203.13378,29.3306171 205.452216,27.6667727 207.917909,26.2764604 C209.27404,25.5114626 210.633595,24.7495537 212,24 L212,26.4041317 C208.55488,28.4269656 205.191949,30.599779 201.870113,32.821327 C198.818818,34.8602915 195.9593,37.1920075 192.870335,39.1599291 C184.558896,44.4497051 176.093352,49.4755586 167.456579,54.2230752 C156.155488,60.4329764 144.42975,65.7265276 132.481415,70.4809082 C120.84814,75.1107063 109.01624,79.232222 97.0268101,82.9024267 C90.0064354,85.0519023 83.0374293,87.4254889 76.3800594,90.5802038 C72.1541363,92.5817593 68.0138275,94.7700167 63.7639324,96.7091093 C58.5585814,99.082696 53.9765027,102.441616 49.2916868,105.63374 C47.3739259,106.942714 45.665064,108.590084 44.3089331,110.541532 C43.836342,111.225877 43.3534772,111.93459 42.7473278,112.49401 C40.1001328,114.934521 38.5042818,118.084431 36.9187045,121.208601 C35.2372391,124.521532 34.2064427,128.088776 34.2475375,131.831053 C34.2543867,132.221274 34.2612358,132.610809 34.2749341,133" id="Fill-5"></path>
        </g>
    </g>
</svg>