<?xml version="1.0" encoding="UTF-8"?>
<svg width="24px" height="24px" viewBox="0 0 24 24" version="1.1" xmlns="http://www.w3.org/2000/svg" xmlns:xlink="http://www.w3.org/1999/xlink">
    <title>call</title>
    <g id="call" stroke="none" stroke-width="1" fill="none" fill-rule="evenodd">
        <g id="172517_phone_icon" transform="translate(4.000000, 5.000000)">
            <rect id="Rectangle" x="0" y="0" width="15" height="15"></rect>
            <path d="M2.91805206,-0.308924142 C3.90850017,0.263096844 5.69378775,2.9214522 5.88805898,3.2280965 C6.01425436,3.42687682 6.07784012,3.6874167 6.04661743,3.98679337 C6.02386538,4.20494998 5.94946751,4.44797251 5.82504407,4.68345859 C5.71252345,4.89797631 5.36258415,5.51545749 5.14148747,5.90398167 C5.40385296,6.2604883 5.96437133,6.95827273 7.00205421,7.99576782 C8.03997835,9.03350417 8.73788135,9.59447939 9.09456784,9.85719453 C9.48285,9.63610907 10.0994808,9.28656991 10.3129151,9.17441782 C10.8759858,8.87663491 11.4283622,8.9020556 11.7608883,9.1050718 C11.8996083,9.18992936 12.5047803,9.58839808 13.144005,10.0120494 L13.528167,10.2669546 C14.1637168,10.6891418 14.7468395,11.0788259 14.8451358,11.1475782 C15.0883023,11.3179997 15.2990223,11.6458236 15.3089103,12.0777718 C15.3152337,12.3540023 15.2394185,12.6754956 15.0177891,12.991525 C14.6558809,13.5097032 12.9563225,15.3295196 12.2846734,15.3088932 C11.6555972,15.2884661 9.13945661,15.2795017 4.42967801,10.5684644 C-0.282184074,5.85597255 -0.289184644,3.33896556 -0.308780453,2.72177826 C-0.330524675,2.04160446 1.4890383,0.341440801 2.00791073,-0.0213233815 C2.32313582,-0.241169208 2.64269178,-0.315391501 2.91805206,-0.308924142 Z" id="Path" stroke="#FFFFFF" stroke-width="1.21875"></path>
        </g>
    </g>
</svg>