<?xml version="1.0" encoding="UTF-8"?>
<svg width="24px" height="24px" viewBox="0 0 24 24" version="1.1" xmlns="http://www.w3.org/2000/svg" xmlns:xlink="http://www.w3.org/1999/xlink">
    <title>2</title>
    <g id="2" stroke="none" stroke-width="1" fill="none" fill-rule="evenodd">
        <g id="Group-32-Copy" transform="translate(2.000000, 2.000000)" fill-rule="nonzero">
            <g id="Group">
                <g transform="translate(1.379149, 0.000000)" id="Path">
                    <path d="M16.7783565,4.21797264 C16.3181217,4.99689055 15.4722848,5.52083333 14.5020602,5.52083333 C13.0405038,5.52083333 11.857265,4.33613184 11.857265,2.87624378 C11.857265,2.08644279 12.2055508,1.37904229 12.7559667,0.893967662 C11.4965405,0.321828358 10.097178,0 8.62318277,0 C4.94752391,0 1.73831921,1.98227612 0,4.93314677 C1.9420042,9.6579602 6.58944259,12.9866294 12.0143046,12.9866294 C14.3947757,12.9866294 16.6244267,12.3429726 18.5431081,11.2251244 C18.5928633,10.824005 18.6208505,10.4151119 18.6208505,10 C18.6208505,7.84514925 17.9367177,5.85199005 16.7783565,4.21952736 L16.7783565,4.21797264 Z" fill="#FFEE7A"></path>
                    <path d="M11.8557102,2.87624378 C11.8557102,4.33768657 13.0405038,5.52083333 14.5005053,5.52083333 C15.47073,5.52083333 16.3165669,4.99689055 16.7768017,4.21797264 C15.7583767,2.7829602 14.371453,1.62935323 12.752857,0.893967662 C12.203996,1.37904229 11.8541553,2.08644279 11.8541553,2.87624378 L11.8557102,2.87624378 Z" fill="#FFFFB7"></path>
                </g>
                <path d="M1.3791495,4.93314677 C0.503770505,6.41946517 0,8.14987562 0,10 C0,15.5223881 4.47640519,20 10.0007774,20 C15.1084506,20 19.3189769,16.1691542 19.9238125,11.2251244 C18.005131,12.3429726 15.7754801,12.9866294 13.3950089,12.9866294 C7.97014693,12.9866294 3.32270854,9.6579602 1.38070435,4.93314677 L1.3791495,4.93314677 Z" id="Path" fill="#FFDD00"></path>
                <path d="M11.0285314,1.69465174 C15.5873435,2.43781095 18.6799347,6.73507463 17.9367177,11.2935323 C17.1935007,15.85199 12.895903,18.9443408 8.33709088,18.2011816 C3.77827878,17.4564677 0.685687631,13.159204 1.42890461,8.602301 C2.17212159,4.04384328 6.46971935,0.951492537 11.0285314,1.69465174 Z" id="Path" fill="#C97800"></path>
                <path d="M11.644251,2.22792289 C16.1144368,2.95708955 19.1463889,7.17039801 18.4171655,11.6386816 C17.6879422,16.1085199 13.4743061,19.1402363 9.00567519,18.4110697 C4.53548939,17.681903 1.50353728,13.4685945 2.23276063,9.00031095 C2.96198399,4.53047264 7.17562,1.49875622 11.644251,2.22792289 Z" id="Path" fill="#FFF1A1"></path>
                <g transform="translate(1.711887, 1.875000)" id="Path">
                    <path d="M0.665474617,5 C0.237891627,5.99813433 0,7.09577114 0,8.25093284 C0,12.8078358 3.69276219,16.5003109 8.25001944,16.5003109 C12.1044857,16.5003109 15.3416777,13.8572761 16.2465988,10.2845149 C14.8270232,10.8177861 13.2892793,11.1116294 11.6815673,11.1116294 C7.0341289,11.1116294 2.96042914,8.66915423 0.665474617,5.00155473 L0.665474617,5 Z" fill="#FAC500"></path>
                    <path d="M8.25001944,0.00155472637 C4.84801368,0.00155472637 1.92801057,2.06156716 0.665474617,5 C2.96042914,8.66915423 7.0341289,11.1100746 11.6815673,11.1100746 C13.2877245,11.1100746 14.8254684,10.8162313 16.2465988,10.2829602 C16.4114126,9.63308458 16.5000389,8.95211443 16.5000389,8.24937811 C16.5000389,3.69247512 12.8072767,0 8.25001944,0 L8.25001944,0.00155472637 Z" fill="#FAD351"></path>
                </g>
            </g>
            <g id="351977_airport_local_icon" transform="translate(4.729327, 4.262541)" fill="#C97800">
                <path d="M10.9551945,8.07162106 L10.9551945,6.91853234 L6.34248102,4.03581053 L6.34248102,0.864816542 C6.34248102,0.386284722 5.95616626,0 5.47759724,0 C4.99902822,0 4.61271347,0.386284722 4.61271347,0.864816542 L4.61271347,4.03581053 L0,6.91853234 L0,8.07162106 L4.61271347,6.63026016 L4.61271347,9.80125415 L3.4595351,10.6660707 L3.4595351,11.5308872 L5.47759724,10.9543429 L7.49565938,11.5308872 L7.49565938,10.6660707 L6.34248102,9.80125415 L6.34248102,6.63026016 L10.9551945,8.07162106 Z" id="Path"></path>
            </g>
            <g id="351977_airport_local_icon" transform="translate(4.418358, 4.107069)" fill="#FFF1A1">
                <path d="M10.9551945,8.07162106 L10.9551945,6.91853234 L6.34248102,4.03581053 L6.34248102,0.864816542 C6.34248102,0.386284722 5.95616626,0 5.47759724,0 C4.99902822,0 4.61271347,0.386284722 4.61271347,0.864816542 L4.61271347,4.03581053 L0,6.91853234 L0,8.07162106 L4.61271347,6.63026016 L4.61271347,9.80125415 L3.4595351,10.6660707 L3.4595351,11.5308872 L5.47759724,10.9543429 L7.49565938,11.5308872 L7.49565938,10.6660707 L6.34248102,9.80125415 L6.34248102,6.63026016 L10.9551945,8.07162106 Z" id="Path"></path>
            </g>
            <g id="351977_airport_local_icon" transform="translate(4.418358, 10.332357)" fill="#FFED45">
                <path d="M4.61223834,1.90269363 C5.1721159,2.10250615 5.74975714,2.26495908 6.34217892,2.38703871 L6.34248102,3.57596635 L7.49565938,4.44078289 L7.49565938,5.30559943 L5.47759724,4.72905507 L3.4595351,5.30559943 L3.4595351,4.44078289 L4.61271347,3.57596635 Z M1.11008586,0.000542670446 C1.6002013,0.374387358 2.11770121,0.714163883 2.65906752,1.01631813 L0,1.84633326 L0,0.693244539 Z" id="Combined-Shape"></path>
            </g>
        </g>
    </g>
</svg>