<?xml version="1.0" encoding="UTF-8"?>
<svg width="34px" height="34px" viewBox="0 0 34 34" version="1.1" xmlns="http://www.w3.org/2000/svg" xmlns:xlink="http://www.w3.org/1999/xlink">
    <title>fb</title>
    <g id="Page-1" stroke="none" stroke-width="1" fill="none" fill-rule="evenodd">
        <g id="1-Home" transform="translate(-148.000000, -4944.000000)">
            <g id="Group-32" transform="translate(0.000000, 4699.000000)">
                <g id="Group-31" transform="translate(148.000000, 219.000000)">
                    <g id="fb" transform="translate(0.000000, 26.000000)">
                        <circle id="Oval" stroke="#FFFFFF" opacity="0.3" cx="17" cy="17" r="16.5"></circle>
                        <g id="3066961_circle_facebook_friendship_high-quality_media_icon" transform="translate(12.000000, 9.000000)" fill="#FFFFFF" fill-rule="nonzero">
                            <g id="Facebook">
                                <path d="M9,2.64245719 L9,0.000805143259 C8.89541459,0.000805143259 8.79080119,0.000623407983 8.68621578,0.000831105441 C8.43438217,0.00135034909 8.18252058,0.00025993743 7.93065898,0.000857067624 C7.62350932,0.00158400873 7.31641565,-0.000337192763 7.009238,0.000883029806 C6.73862046,0.00197344146 6.46791893,-0.00163530188 6.19732938,0.000960916353 C5.78884161,0.00488120588 5.40109736,0.0234960906 5.00932199,0.140507646 C4.63159957,0.253339291 4.27705616,0.450885536 3.9750014,0.687816412 C3.80009518,0.825000583 3.63820615,0.971920573 3.49157382,1.13524866 C3.43219865,1.20308784 3.37688259,1.27362709 3.32523375,1.34658083 C3.17020324,1.56546799 3.04772969,1.8062153 2.94543979,2.06144952 C2.92245675,2.11890383 2.89986563,2.17651391 2.87833828,2.23440958 C2.72062035,2.65821624 2.71541347,3.12083637 2.71541347,3.56619164 C2.71541347,3.62195841 2.71541347,3.67946464 2.71541347,3.73829495 C2.71541347,4.62059375 2.71541347,5.79686235 2.71541347,5.79686235 L0,5.79686235 L0,8.70462677 L2.61743463,8.70462677 L2.68741952,8.70462677 L2.68741952,16 L5.79474833,16 L5.79474833,8.63972131 L8.61508314,8.67500392 L8.99532501,5.81591859 L5.80868932,5.80984344 L5.80868932,3.60305794 C5.80868932,3.60305794 5.80169083,2.66192883 6.6625049,2.64894774 L9,2.64245719 Z" id="Facebook_1_"></path>
                            </g>
                        </g>
                    </g>
                </g>
            </g>
        </g>
    </g>
</svg>