<?xml version="1.0" encoding="UTF-8"?>
<svg width="34px" height="34px" viewBox="0 0 34 34" version="1.1" xmlns="http://www.w3.org/2000/svg" xmlns:xlink="http://www.w3.org/1999/xlink">
    <title>google</title>
    <g id="Page-1" stroke="none" stroke-width="1" fill="none" fill-rule="evenodd">
        <g id="1-Home" transform="translate(-316.000000, -4944.000000)">
            <g id="Group-32" transform="translate(0.000000, 4699.000000)">
                <g id="Group-31" transform="translate(148.000000, 219.000000)">
                    <g id="Group-16" transform="translate(0.000000, 26.000000)">
                        <g id="google" transform="translate(168.000000, 0.000000)">
                            <circle id="Oval" stroke="#FFFFFF" opacity="0.3" cx="17" cy="17" r="16.5"></circle>
                            <g id="1608911_google_plus_square_icon" transform="translate(8.000000, 11.000000)" fill="#FFFFFF" fill-rule="nonzero">
                                <path d="M11.8474295,6.140625 C11.8474295,5.86979167 11.8159204,5.53645833 11.7529022,5.140625 L6.04975124,5.140625 L6.04975124,7.203125 L9.46849088,7.203125 C9.43698176,7.453125 9.35033167,7.71354167 9.20854063,7.984375 C9.06674959,8.25520833 8.86981758,8.53125 8.61774461,8.8125 C8.36567164,9.09375 8.01644555,9.32552083 7.57006633,9.5078125 C7.12368712,9.69010417 6.61691542,9.78125 6.04975124,9.78125 C5.00995025,9.78125 4.12244334,9.41145833 3.38723051,8.671875 C2.65201769,7.93229167 2.28441128,7.04166667 2.28441128,6 C2.28441128,4.95833333 2.65201769,4.06770833 3.38723051,3.328125 C4.12244334,2.58854167 5.00995025,2.21875 6.04975124,2.21875 C7.01603096,2.21875 7.81951354,2.52604167 8.460199,3.140625 L10.0986733,1.5625 C8.96434494,0.520833333 7.61470426,0 6.04975124,0 C4.36926479,0 2.9408513,0.5859375 1.76451078,1.7578125 C0.58817026,2.9296875 0,4.34375 0,6 C0,7.65625 0.58817026,9.0703125 1.76451078,10.2421875 C2.9408513,11.4140625 4.36926479,12 6.04975124,12 C7.7827529,12 9.18228303,11.453125 10.2483416,10.359375 C11.3144002,9.265625 11.8474295,7.859375 11.8474295,6.140625 Z M17.2827529,6.859375 L19,6.859375 L19,5.140625 L17.2827529,5.140625 L17.2827529,3.421875 L15.5497512,3.421875 L15.5497512,5.140625 L13.8167496,5.140625 L13.8167496,6.859375 L15.5497512,6.859375 L15.5497512,8.578125 L17.2827529,8.578125 L17.2827529,6.859375 Z" id="Shape"></path>
                            </g>
                        </g>
                    </g>
                </g>
            </g>
        </g>
    </g>
</svg>