<?xml version="1.0" encoding="UTF-8"?>
<svg width="24px" height="24px" viewBox="0 0 24 24" version="1.1" xmlns="http://www.w3.org/2000/svg" xmlns:xlink="http://www.w3.org/1999/xlink">
    <title>help</title>
    <g id="help" stroke="none" stroke-width="1" fill="none" fill-rule="evenodd" stroke-linejoin="round">
        <g id="8324197_ui_essential_app_support_help_icon" transform="translate(5.000000, 5.000000)" stroke="#0FB3D4" stroke-width="1.01818182">
            <path d="M2.8,11.0163934 L2.33333333,11.0163934 C1.04486667,11.0163934 0,9.98865574 0,8.72131148 L0,8.72131148 C0,7.45396721 1.04486667,6.42622951 2.33333333,6.42622951 L2.8,6.42622951 L2.8,11.0163934 Z" id="Path"></path>
            <path d="M11.6666667,11.0163934 L11.2,11.0163934 L11.2,6.42622951 L11.6666667,6.42622951 C12.9551333,6.42622951 14,7.45396721 14,8.72131148 L14,8.72131148 C14,9.98865574 12.9551333,11.0163934 11.6666667,11.0163934 Z" id="Path"></path>
            <path d="M1.86666667,6.42622951 L1.86666667,5.04918033 C1.86666667,2.26065574 4.165,0 7,0 L7,0 C9.835,0 12.1333333,2.26065574 12.1333333,5.04918033 L12.1333333,6.42622951" id="Path"></path>
            <path d="M12.1333333,11.0163934 L12.1333333,12.852459 C12.1333333,13.3596721 11.7156667,13.7704918 11.2,13.7704918 L9.8,13.7704918" id="Path"></path>
            <line x1="7.93333333" y1="13.7704918" x2="8.86666667" y2="13.7704918" id="Path"></line>
        </g>
    </g>
</svg>