<?xml version="1.0" encoding="UTF-8"?>
<svg width="34px" height="34px" viewBox="0 0 34 34" version="1.1" xmlns="http://www.w3.org/2000/svg" xmlns:xlink="http://www.w3.org/1999/xlink">
    <title>Group 85</title>
    <g id="Page-1" stroke="none" stroke-width="1" fill="none" fill-rule="evenodd">
        <g id="Group-85">
            <circle id="Oval" stroke="#FFFFFF" opacity="0.3" cx="17" cy="17" r="16.5"></circle>
            <g id="9023675_instagram_logo_fill_icon" transform="translate(6.000000, 6.000000)">
                <rect id="Rectangle" x="0" y="0" width="22" height="22"></rect>
                <circle id="Oval" fill="#FFFFFF" fill-rule="nonzero" cx="11" cy="11" r="2.75"></circle>
                <path d="M14.78125,2.40625 L7.21875,2.40625 C4.56087964,2.40625 2.40625,4.56087964 2.40625,7.21875 L2.40625,14.78125 C2.40625,17.4391204 4.56087964,19.59375 7.21875,19.59375 L14.78125,19.59375 C17.4391204,19.59375 19.59375,17.4391204 19.59375,14.78125 L19.59375,7.21875 C19.59375,4.56087964 17.4391204,2.40625 14.78125,2.40625 Z M11,15.125 C8.72182541,15.125 6.875,13.2781746 6.875,11 C6.875,8.72182541 8.72182541,6.875 11,6.875 C13.2781746,6.875 15.125,8.72182541 15.125,11 C15.125,13.2781746 13.2781746,15.125 11,15.125 L11,15.125 Z M15.46875,7.5625 C14.8992064,7.5625 14.4375,7.10079365 14.4375,6.53125 C14.4375,5.96170635 14.8992064,5.5 15.46875,5.5 C16.0382936,5.5 16.5,5.96170635 16.5,6.53125 C16.5,7.10079365 16.0382936,7.5625 15.46875,7.5625 Z" id="Shape" fill="#FFFFFF" fill-rule="nonzero"></path>
            </g>
        </g>
    </g>
</svg>