<?xml version="1.0" encoding="UTF-8"?>
<svg width="34px" height="34px" viewBox="0 0 34 34" version="1.1" xmlns="http://www.w3.org/2000/svg" xmlns:xlink="http://www.w3.org/1999/xlink">
    <title>linkedin</title>
    <g id="Page-1" stroke="none" stroke-width="1" fill="none" fill-rule="evenodd">
        <g id="1-Home" transform="translate(-232.000000, -4944.000000)">
            <g id="Group-32" transform="translate(0.000000, 4699.000000)">
                <g id="Group-31" transform="translate(148.000000, 219.000000)">
                    <g id="Group-16" transform="translate(0.000000, 26.000000)">
                        <g id="linkedin" transform="translate(84.000000, 0.000000)">
                            <circle id="Oval" stroke="#FFFFFF" opacity="0.3" cx="17" cy="17" r="16.5"></circle>
                            <g id="194920_linkedin_social-media_icon" transform="translate(10.000000, 9.000000)" fill="#FFFFFF" fill-rule="nonzero">
                                <path d="M0,4.52966685 L0,13.7824803 L2.99732688,13.7824803 L2.99732688,4.52966685 L0,4.52966685 Z M1.69571576,0 C0.670349145,0 0,0.691002518 0,1.59823504 C0,2.48667561 0.650536155,3.19757544 1.65680811,3.19757544 L1.67596265,3.19757544 C2.72108245,3.19757544 3.37197776,2.48667561 3.37197776,1.59823504 C3.35252394,0.691002518 2.72108245,0 1.69571576,0 Z M10.5489499,4.52966685 C8.95756655,4.52966685 8.24507734,5.42774903 7.84726142,6.0577699 L7.84726142,4.74718644 L4.84957544,4.74718644 C4.88908172,5.61542265 4.84957544,14 4.84957544,14 L7.84726142,14 L7.84726142,8.83246554 C7.84726142,8.55592945 7.86671531,8.28006887 7.94596721,8.08207807 C8.16259309,7.52962 8.65582257,6.95763301 9.48389744,6.95763301 C10.5689424,6.95763301 11.0026731,7.80609467 11.0026731,9.04949392 L11.0026731,13.9997544 L13.9998803,13.9997544 L14,8.69447384 C14,5.85240975 12.5213291,4.52966685 10.5489499,4.52966685 Z" id="Oval-1"></path>
                            </g>
                        </g>
                    </g>
                </g>
            </g>
        </g>
    </g>
</svg>