<?xml version="1.0" encoding="UTF-8"?>
<svg width="24px" height="24px" viewBox="0 0 24 24" version="1.1" xmlns="http://www.w3.org/2000/svg" xmlns:xlink="http://www.w3.org/1999/xlink">
    <title>location</title>
    <g id="location" stroke="none" stroke-width="1" fill="none" fill-rule="evenodd">
        <g id="511944_location_map_marker_navigation_pin_icon" transform="translate(4.000000, 3.000000)" fill="#FFFFFF" fill-rule="nonzero" stroke="#26252F" stroke-width="0.2">
            <path d="M7.5,0 C3.35166667,0.0303652031 0,3.34755847 0,7.4378334 C0,9.43126795 0.863333333,11.3598687 2.1325,12.7123513 L7.50166667,18 L12.8508333,12.7304062 C14.13,11.3779237 15,9.44193681 15,7.4378334 C14.9991667,3.34837915 11.6475,0.0303652031 7.5,0 Z M11.65,11.5929421 L7.50166667,15.6791137 L3.33583333,11.5765285 C2.29,10.4497333 1.66666667,8.90521133 1.66666667,7.4378334 C1.66666667,4.26918342 4.2825,1.67172753 7.5,1.64218301 C10.7166667,1.67172753 13.3325,4.2700041 13.3333333,7.4378334 C13.3333333,8.91588018 12.7041667,10.4669676 11.65,11.5929421 Z" id="Shape"></path>
            <path d="M7.5,4.04924087 C5.62833333,4.04924087 4.11083333,5.54370127 4.11083333,7.38695117 C4.11083333,9.23020107 5.62833333,10.7246615 7.5,10.7246615 C9.37166667,10.7246615 10.8891667,9.23020107 10.8891667,7.38695117 C10.8891667,5.54288059 9.37166667,4.04924087 7.5,4.04924087 Z M7.5,9.08247846 C6.55,9.08247846 5.7775,8.32170702 5.7775,7.38613049 C5.7775,6.45055396 6.55,5.68978252 7.5,5.68978252 C8.45,5.68978252 9.2225,6.45055396 9.2225,7.38613049 C9.2225,8.32170702 8.45,9.08247846 7.5,9.08247846 Z" id="Shape"></path>
        </g>
    </g>
</svg>