<?xml version="1.0" encoding="UTF-8"?>
<svg width="24px" height="24px" viewBox="0 0 24 24" version="1.1" xmlns="http://www.w3.org/2000/svg" xmlns:xlink="http://www.w3.org/1999/xlink">
    <title>mail</title>
    <g id="mail" stroke="none" stroke-width="1" fill="none" fill-rule="evenodd">
        <g id="622401_mail_packet_email_envelope_letter_icon" transform="translate(4.000000, 6.000000)" fill="#8a8a8a" fill-rule="nonzero">
            <path d="M15,1.40875906 C15,0.630720682 14.3440095,0 13.5347989,0 L1.46520106,0 C0.655990538,0 0,0.630720682 0,1.40875906 L0,10.5912409 C0,11.3692793 0.655990538,12 1.46520106,12 L13.5347989,12 C14.3440095,12 15,11.3692793 15,10.5912409 L15,1.40875906 Z M1.47305145,1.12579957 L13.5462951,1.12579957 C13.70788,1.12579957 13.8379657,1.24970576 13.8379657,1.40508316 L13.8379657,1.4173049 L7.7165819,7.30351386 C7.64191898,7.37530064 7.55506801,7.38602985 7.5097398,7.38602985 C7.46441159,7.38602985 7.37726789,7.37530064 7.30258723,7.30351386 L1.17977528,1.4165032 L1.17977528,1.40508316 C1.17977528,1.24970576 1.31146659,1.12579957 1.47305145,1.12579957 Z M13.5462951,10.8742004 L1.47305145,10.8742004 C1.31146659,10.8742004 1.17977528,10.7455522 1.17977528,10.5901834 L1.17977528,3.01032836 L6.47391484,8.1004435 C6.75065642,8.36651599 7.1186576,8.51303198 7.51001478,8.51303198 C7.90142519,8.5130064 8.26869012,8.36645629 8.54541396,8.10039232 L13.8379657,3.01112154 L13.8379657,10.5901834 C13.8379657,10.7455522 13.70788,10.8742004 13.5462951,10.8742004 Z" id="Shape"></path>
        </g>
    </g>
</svg>