<?xml version="1.0" encoding="UTF-8"?>
<svg width="162px" height="48px" viewBox="0 0 162 48" version="1.1" xmlns="http://www.w3.org/2000/svg" xmlns:xlink="http://www.w3.org/1999/xlink">
    <title>playstore</title>
    <defs>
        <linearGradient x1="61.0476901%" y1="4.9481245%" x2="26.4733779%" y2="71.9074222%" id="linearGradient-1">
            <stop stop-color="#00A0FF" offset="0%"></stop>
            <stop stop-color="#00A1FF" offset="1%"></stop>
            <stop stop-color="#00BEFF" offset="26%"></stop>
            <stop stop-color="#00D2FF" offset="51%"></stop>
            <stop stop-color="#00DFFF" offset="76%"></stop>
            <stop stop-color="#00E3FF" offset="100%"></stop>
        </linearGradient>
        <linearGradient x1="107.684729%" y1="50%" x2="-130.640394%" y2="50%" id="linearGradient-2">
            <stop stop-color="#FFE000" offset="0%"></stop>
            <stop stop-color="#FFBD00" offset="41%"></stop>
            <stop stop-color="#FFA500" offset="78%"></stop>
            <stop stop-color="#FF9C00" offset="100%"></stop>
        </linearGradient>
        <linearGradient x1="86.219293%" y1="30.93504%" x2="-50.1497903%" y2="135.880536%" id="linearGradient-3">
            <stop stop-color="#FF3A44" offset="0%"></stop>
            <stop stop-color="#C31162" offset="100%"></stop>
        </linearGradient>
        <linearGradient x1="-18.7537448%" y1="-11.7546047%" x2="42.1210306%" y2="35.113362%" id="linearGradient-4">
            <stop stop-color="#32A071" offset="0%"></stop>
            <stop stop-color="#2DA771" offset="7%"></stop>
            <stop stop-color="#15CF74" offset="48%"></stop>
            <stop stop-color="#06E775" offset="80%"></stop>
            <stop stop-color="#00F076" offset="100%"></stop>
        </linearGradient>
    </defs>
    <g id="Page-1" stroke="none" stroke-width="1" fill="none" fill-rule="evenodd">
        <g id="playstore" fill-rule="nonzero">
            <g id="App-Store-Badge-US-Black-Copy">
                <path d="M149.099331,0 L12.9079527,0 C12.411518,0 11.92104,0 11.4259184,0.00255599169 C11.0114557,0.00495598389 10.6002961,0.0119279612 10.1818532,0.0177959422 C9.2728019,0.0272780757 8.36588834,0.0981671929 7.46899383,0.229847253 C6.57335908,0.364393969 5.70578076,0.61805288 4.89560183,0.982244808 C4.08641378,1.34951767 3.34703552,1.8267511 2.70428993,2.39663221 C2.05817005,2.96491076 1.51957923,3.62176388 1.10922769,4.34193389 C0.697743601,5.0606705 0.412419206,5.830863 0.263109052,6.62591047 C0.112379367,7.41995377 0.0312703526,8.22315393 0.0205099158,9.02830266 C0.00794674625,9.39622146 0.00662003223,9.76536426 0,10.1333311 L0,37.8703529 C0.00662003223,38.2429517 0.00794674625,38.6039105 0.0205099158,38.9766293 C0.0312736523,39.7817381 0.112382668,40.5848982 0.263109052,41.3789015 C0.412006916,42.1744138 0.697348181,42.9450484 1.10922769,43.6640541 C1.51939291,44.3818952 2.05805946,45.0360891 2.70428993,45.6012078 C3.34459843,46.1736228 4.08445461,46.6511809 4.89560183,47.0156432 C5.7057746,47.3808099 6.57325939,47.6359786 7.46899383,47.7726007 C8.36604081,47.903226 9.27286111,47.9741439 10.1818532,47.98476 C10.6002961,47.99292 11.0114557,47.9976 11.4259184,47.9976 C11.9210264,48 12.4115451,48 12.9079527,48 L149.099331,48 C149.585883,48 150.080287,48 150.566839,47.9976 C150.979339,47.9976 151.402398,47.99292 151.814898,47.98476 C152.722171,47.9747085 153.627284,47.9037861 154.522477,47.7726007 C155.421101,47.6350168 156.291696,47.3799157 157.105779,47.0156432 C157.916195,46.6509699 158.655368,46.1734248 159.295128,45.6012078 C159.939691,45.0338758 160.479508,44.3801605 160.894766,43.6640541 C161.303555,42.9445253 161.58618,42.1739523 161.732897,41.3789015 C161.883865,40.5847892 161.967852,39.7818078 161.984161,38.9766293 C161.98944,38.6039105 161.98944,38.2429517 161.98944,37.8703529 C162,37.4343943 162,37.0008357 162,36.5577972 L162,11.4434748 C162,11.0040242 162,10.5680897 161.98944,10.1333311 C161.98944,9.76536426 161.98944,9.39622146 161.984161,9.02825466 C161.967855,8.22303621 161.883868,7.42001469 161.732897,6.62586247 C161.585771,5.83127497 161.303162,5.06114348 160.894766,4.34188589 C160.059104,2.89838188 158.733987,1.72338088 157.105779,0.982136808 C156.291694,0.618834845 155.421006,0.365243305 154.522477,0.229739253 C153.627439,0.097479023 152.722232,0.0265652315 151.814898,0.0176279427 C151.402398,0.0117719617 150.979339,0.0047399846 150.566839,0.0023999922 C150.080287,0 149.585883,0 149.099331,0 L149.099331,0 Z" id="Background-Gray" fill-opacity="0.271426328" fill="#FFFFFF"></path>
                <path d="M11.32227,46.9500034 C10.9088575,46.9500034 10.5054316,46.9453234 10.095262,46.9371635 C9.24556252,46.9273724 8.39784898,46.8619537 7.55907376,46.7414441 C6.77695818,46.6223183 6.01929842,46.4007226 5.31108562,46.0839662 C4.60936675,45.7698344 3.96934274,45.357936 3.41553205,44.8640502 C2.85370507,44.3759821 2.38595844,43.8099064 2.03082813,43.1882556 C1.67178458,42.5625646 1.42330508,41.8918993 1.29404531,41.1996221 C1.15445598,40.4557624 1.07893237,39.7036029 1.06812572,38.9496294 C1.05952314,38.6965502 1.04826108,37.853913 1.04826108,37.853913 L1.04826108,10.1333311 C1.04826108,10.1333311 1.06025585,9.30364176 1.06819356,9.05988656 C1.07854085,8.30710746 1.15362529,7.55611516 1.29279699,6.81340986 C1.42229535,6.11923621 1.67096721,5.44663694 2.03020396,4.81889634 C2.38402908,4.19767498 2.84917888,3.63117655 3.40762147,3.14136179 C3.96543638,2.6468931 4.60750771,2.23287369 5.31042075,1.91440178 C6.01700587,1.59866313 6.77323375,1.37863057 7.55376838,1.2616759 C8.39529828,1.13995566 9.24595475,1.07414781 10.0985999,1.06480454 L11.3229349,1.05015259 L150.766952,1.05015259 L152.005914,1.06539254 C152.850804,1.07427155 153.693733,1.1394923 154.52753,1.2604999 C155.315966,1.3789216 156.080075,1.60048944 156.794731,1.91791777 C158.20292,2.55973094 159.348737,3.57513992 160.071583,4.82182433 C160.425086,5.44523138 160.669922,6.11234424 160.797782,6.8005219 C160.938611,7.54932112 161.017429,8.30621501 161.033607,9.06516654 C161.037542,9.40500543 161.037542,9.77004425 161.037542,10.1333311 C161.048261,10.5833296 161.048261,11.0116442 161.048261,11.4434748 L161.048261,36.5577972 C161.048261,36.9937558 161.048261,37.4191544 161.037542,37.848033 C161.037542,38.2382717 161.037542,38.5957506 161.03225,38.9636694 C161.016422,39.7090777 160.938918,40.4524616 160.80036,41.1878621 C160.67375,41.8851333 160.426623,42.5610334 160.067648,43.1918556 C159.710007,43.806759 159.244947,44.3679312 158.689606,44.8546902 C158.135297,45.3512302 157.494144,45.7655385 156.790796,46.0816862 C156.07812,46.4008776 155.315135,46.6232928 154.52753,46.7414441 C153.688818,46.8625969 152.841023,46.9280197 151.99126,46.9371635 C151.593831,46.9453234 151.177678,46.9500034 150.773601,46.9500034 L149.302749,46.9524034 L11.32227,46.9500034 Z" id="Background-Black" fill="#000000"></path>
            </g>
            <g id="Group-86" transform="translate(12.000000, 8.000000)">
                <path d="M69.8472491,17.8751023 C67.0320159,17.8883424 64.7593073,20.1775122 64.7681035,22.9910105 C64.776951,25.8045087 67.0639703,28.0793991 69.8792313,28.0750129 C72.6944922,28.0706139 74.9743926,25.7885978 74.9744238,22.9750858 C74.9942036,21.6123387 74.4595829,20.2999461 73.4930127,19.338502 C72.5264424,18.3770578 71.210737,17.8489372 69.8472491,17.8751023 L69.8472491,17.8751023 Z M69.8472491,26.0710757 C68.5783362,26.1597617 67.3841315,25.4642539 66.83581,24.3172059 C66.2874885,23.1701579 66.4964973,21.8047089 67.3628698,20.8739382 C68.2292423,19.9431675 69.5768871,19.6362555 70.7612404,20.0999948 C71.9455937,20.5637341 72.7259342,21.7038691 72.7290335,22.9750858 C72.768109,23.7702895 72.484121,24.547552 71.9415142,25.1304912 C71.3989074,25.7134305 70.6436928,26.0526154 69.8472491,26.0710757 L69.8472491,26.0710757 Z M58.6683271,17.8751023 C55.8515024,17.8817261 53.572765,20.1679911 53.5771746,22.9830669 C53.581597,25.7981427 55.8674959,28.0772562 58.6843276,28.0750551 C61.5011594,28.0728508 63.7834866,25.790165 63.7834944,22.9750858 C63.8032743,21.6123387 63.2686536,20.2999461 62.3020833,19.338502 C61.3355131,18.3770578 60.0198076,17.8489372 58.6563197,17.8751023 L58.6683271,17.8751023 Z M58.6683271,26.0710757 C57.3987519,26.1647631 56.2010653,25.4727232 55.6488796,24.3263973 C55.0966939,23.1800714 55.3024303,21.8128434 56.1675547,20.8795247 C57.0326792,19.9462059 58.3810583,19.6368137 59.5669081,20.0995263 C60.752758,20.5622389 61.5346477,21.7028512 61.5381041,22.9750858 C61.5771796,23.7702895 61.2931917,24.547552 60.7505849,25.1304912 C60.2079781,25.7134305 59.4527634,26.0526154 58.6563197,26.0710757 L58.6683271,26.0710757 Z M45.3520818,19.4470972 L45.3520818,21.6070902 L50.5392937,21.6070902 C50.4579594,22.6244515 50.0347949,23.5844372 49.3385502,24.3310814 C48.2891278,25.3993475 46.836853,25.9746656 45.3400743,25.9150762 C42.1569432,25.9150762 39.5765056,23.3362448 39.5765056,20.1550949 C39.5765056,16.9739451 42.1569432,14.3951137 45.3400743,14.3951137 C46.8023347,14.3712803 48.2143684,14.9279745 49.2665056,15.9431086 L50.7914498,14.4191136 C49.3564648,12.966948 47.3942084,12.1574259 45.3520818,12.1751209 C42.4450347,12.0620561 39.7090599,13.5475225 38.2218917,16.0463768 C36.7347234,18.545231 36.7347234,21.6569592 38.2218917,24.1558135 C39.7090599,26.6546677 42.4450347,28.1401342 45.3520818,28.0270694 C47.4314874,28.1209742 49.449908,27.3114832 50.8875093,25.8070766 C52.1454991,24.425787 52.8171558,22.6100004 52.7606691,20.743093 C52.7645438,20.2882803 52.7243313,19.8341617 52.6405948,19.3870974 L45.3520818,19.4470972 Z M99.7577695,21.1270918 C99.1166681,19.24215 97.3778092,17.9483658 95.3870632,17.8750932 C94.0594774,17.8725083 92.7900292,18.4191896 91.880147,19.3853377 C90.9702648,20.3514858 90.5011124,21.6509178 90.5840892,22.9750858 C90.5546001,24.3302367 91.0777922,25.6391111 92.0334493,26.6009629 C92.9891063,27.5628146 94.2950569,28.0949397 95.6512268,28.0750692 C97.3573133,28.0842599 98.9540439,27.2368065 99.9018587,25.8190765 L98.1607807,24.6190804 C97.6321486,25.4998082 96.6788906,26.0376762 95.6512268,26.0350758 C94.5868774,26.0756178 93.6059299,25.4617175 93.1776952,24.4870809 L100.009926,21.66709 L99.7577695,21.1270918 Z M92.7934572,22.8310862 C92.7442891,22.0812858 92.9991755,21.343265 93.5006551,20.7834022 C94.0021348,20.2235394 94.707995,19.8889618 95.4591078,19.8550959 C96.2508419,19.802958 96.99734,20.2279138 97.3562825,20.9350924 L92.7934572,22.8310862 Z M87.2460223,27.7750702 L89.4914126,27.7750702 L89.4914126,12.7751189 L87.2460223,12.7751189 L87.2460223,27.7750702 Z M83.5717472,19.0150986 L83.4876952,19.0150986 C82.8032259,18.2503133 81.8247341,17.8137585 80.7980297,17.8150994 C78.0725184,17.9471881 75.9306204,20.1940703 75.9306204,22.9210859 C75.9306204,25.6481016 78.0725184,27.8949838 80.7980297,28.0270694 C81.8280623,28.0443778 82.8128965,27.6049933 83.4876952,26.8270733 L83.5597398,26.8270733 L83.5597398,27.5590709 C83.5597398,29.5150645 82.5150929,30.5590611 80.834052,30.5590611 C79.6889066,30.5322741 78.673588,29.8163037 78.264461,28.747067 L76.3072491,29.5630644 C77.0609337,31.3952316 78.8519017,32.5868845 80.834052,32.5751419 C83.4636803,32.5751419 85.637026,31.0270596 85.637026,27.2590718 L85.637026,18.1751014 L83.5717472,18.1751014 L83.5717472,19.0150986 Z M81.0021561,26.0710757 C79.3966271,25.9296679 78.1652511,24.5858346 78.1652511,22.9750858 C78.1652511,21.364337 79.3966271,20.0205036 81.0021561,19.8790958 C81.77798,19.9188847 82.5048697,20.2700187 83.0180241,20.8528885 C83.5311785,21.4357582 83.7871281,22.2009885 83.7278439,22.9750858 C83.7940466,23.7527425 83.5389159,24.5235981 83.021771,25.1084241 C82.5046262,25.6932501 81.7705244,26.0410924 80.9901487,26.0710757 L81.0021561,26.0710757 Z M110.276283,12.7751189 L104.908959,12.7751189 L104.908959,27.7750702 L107.154349,27.7750702 L107.154349,22.0870887 L110.28829,22.0870887 C112.032591,22.2123248 113.700772,21.3533018 114.611123,19.8610635 C115.521474,18.3688251 115.521474,16.4933825 114.611123,15.0011441 C113.700772,13.5089058 112.032591,12.6498828 110.28829,12.7751189 L110.276283,12.7751189 Z M110.276283,19.9750955 L107.142342,19.9750955 L107.142342,14.8631121 L110.324312,14.8631121 C111.746774,14.8631121 112.899907,16.0155274 112.899907,17.4371038 C112.899907,18.8586801 111.746774,20.0110954 110.324312,20.0110954 L110.276283,19.9750955 Z M124.120855,17.8151025 C122.450276,17.7153096 120.879672,18.6156056 120.122379,20.1070951 L122.115613,20.9350924 C122.517149,20.1954966 123.317707,19.7625229 124.156877,19.831096 C124.732667,19.7638897 125.311337,19.9306598 125.762906,20.2939467 C126.214475,20.6572336 126.501087,21.1865815 126.558364,21.7630897 L126.558364,21.9190892 C125.837189,21.5374893 125.032931,21.3396413 124.216914,21.3430911 C122.067584,21.3430911 119.894238,22.5430872 119.894238,24.7150801 C119.93709,25.6507276 120.356813,26.5292696 121.057916,27.150829 C121.759019,27.7723884 122.681882,28.0841083 123.616543,28.0150694 C124.768331,28.0977288 125.873423,27.5455267 126.498327,26.5750741 L126.570372,26.5750741 L126.570372,27.7750702 L128.73171,27.7750702 L128.73171,22.0030889 C128.73171,19.3750975 126.738476,17.8511024 124.180892,17.8511024 L124.120855,17.8151025 Z M123.844684,26.0350758 C123.11223,26.0350758 122.091599,25.663077 122.091599,24.76308 C122.091599,23.5630839 123.364387,23.1670851 124.493086,23.1670851 C125.206378,23.1494955 125.911321,23.3235495 126.534349,23.6710835 C126.379089,25.0143772 125.257387,26.0381245 123.904721,26.0710757 L123.844684,26.0350758 Z M136.608587,18.1751014 L134.038996,24.6790802 L133.966952,24.6790802 L131.301301,18.1751014 L128.899814,18.1751014 L132.89829,27.2710718 L130.616877,32.3230554 L132.958327,32.3230554 L139.106134,18.1751014 L136.608587,18.1751014 Z M116.424089,27.7750702 L118.66948,27.7750702 L118.66948,12.7751189 L116.424089,12.7751189 L116.424089,27.7750702 Z" id="Google-Play" fill="#FFFFFF"></path>
                <path d="M44.9678439,4.06314723 C45.0090937,4.9526216 44.683589,5.8200938 44.0672862,6.46313943 C43.3785995,7.17810097 42.4180456,7.56644681 41.4256506,7.53113596 C39.9035164,7.51923052 38.5368397,6.59659841 37.9575333,5.18983878 C37.378227,3.78307915 37.6991858,2.16634035 38.7720074,1.08715691 C39.4690787,0.375950378 40.4297285,-0.0150209996 41.4256506,0.00716041659 C41.933274,0.00547014033 42.4358792,0.107562074 42.9025651,0.307159442 C43.3370595,0.482303145 43.7238545,0.757825844 44.0312639,1.11115683 L43.3948699,1.74715476 C42.9089852,1.16956838 42.1795792,0.853985503 41.4256506,0.895157531 C40.6678005,0.891442191 39.9411466,1.19646174 39.4132477,1.73988176 C38.8853489,2.28330177 38.601776,3.0182115 38.6279182,3.77514817 C38.6118305,4.91897208 39.2858975,5.96014848 40.3364961,6.41424956 C41.3870947,6.86835063 42.6078937,6.64619361 43.4308922,5.85114142 C43.8003724,5.45098666 44.0134725,4.93134597 44.0312639,4.38714618 L41.4256506,4.38714618 L41.4256506,3.52314899 L44.9198141,3.52314899 C44.9518417,3.70136536 44.9679152,3.8820794 44.9678439,4.06314723 L44.9678439,4.06314723 Z M50.4672491,1.06315698 L47.2252416,1.06315698 L47.2252416,3.34314957 L50.1790706,3.34314957 L50.1790706,4.20714677 L47.2252416,4.20714677 L47.2252416,6.48713936 L50.4672491,6.48713936 L50.4672491,7.37513647 L46.2646468,7.37513647 L46.2646468,0.175159871 L50.4672491,0.175159871 L50.4672491,1.06315698 Z M54.4056877,7.37513647 L53.4811152,7.37513647 L53.4811152,1.06315698 L51.4638662,1.06315698 L51.4638662,0.175159871 L56.4709665,0.175159871 L56.4709665,1.06315698 L54.4056877,1.06315698 L54.4056877,7.37513647 Z M60.0011524,7.37513647 L60.0011524,0.175159871 L60.9257249,0.175159871 L60.9257249,7.37513647 L60.0011524,7.37513647 Z M65.0322677,7.37513647 L64.1076952,7.37513647 L64.1076952,1.06315698 L62.0904461,1.06315698 L62.0904461,0.175159871 L67.0375093,0.175159871 L67.0375093,1.06315698 L65.0322677,1.06315698 L65.0322677,7.37513647 Z M76.415316,6.43913951 C74.953999,7.89140825 72.5933616,7.89140825 71.1320446,6.43913951 C69.7154902,4.94062503 69.7154902,2.59767135 71.1320446,1.09915687 C71.8308754,0.395655183 72.7817651,0 73.7736803,0 C74.7655955,0 75.7164852,0.395655183 76.415316,1.09915687 C77.8379155,2.59526382 77.8379155,4.94303256 76.415316,6.43913951 L76.415316,6.43913951 Z M71.8164684,5.83914146 C72.8987273,6.91621605 74.6486333,6.91621605 75.7308922,5.83914146 C76.7937883,4.66815063 76.7937883,2.88214571 75.7308922,1.71115488 C74.6486333,0.634080295 72.8987273,0.634080295 71.8164684,1.71115488 C70.7535723,2.88214571 70.7535723,4.66815063 71.8164684,5.83914146 L71.8164684,5.83914146 Z M78.7807807,7.37513647 L78.7807807,0.175159871 L79.9094796,0.175159871 L83.4156506,5.77914166 L83.4156506,0.175159871 L84.340223,0.175159871 L84.340223,7.37513647 L83.3796283,7.37513647 L79.7173606,1.50715554 L79.7173606,7.37513647 L78.7807807,7.37513647 Z" id="GET-IT-ON" stroke="#FFFFFF" stroke-width="0.799999997" fill="#FFFFFF"></path>
                <g id="Icon" transform="translate(-0.000000, 0.336231)">
                    <path d="M0.564349442,0.486926342 C0.17298506,0.956254819 -0.0245508217,1.55707677 0.0120074349,2.16692088 L0.0120074349,28.7108346 C-0.0245508217,29.3206787 0.17298506,29.9215007 0.564349442,30.3908292 L0.648401487,30.4748289 L15.5256134,15.6188772 L15.5256134,15.2708783 L0.648401487,0.402926615 L0.564349442,0.486926342 Z" id="Shape" fill="url(#linearGradient-1)"></path>
                    <path d="M20.4486617,20.5748611 L15.5256134,15.6188772 L15.5256134,15.2708783 L20.4486617,10.3028944 L20.5567286,10.3628942 L26.4523792,13.7108834 C28.1334201,14.6588803 28.1334201,16.2188752 26.4523792,17.1788721 L20.5807435,20.5148613 L20.4486617,20.5748611 Z" id="Shape" fill="url(#linearGradient-2)"></path>
                    <path d="M20.5927509,20.5028613 L15.5256134,15.4388777 L0.564349442,30.3908292 C1.27124843,31.011854 2.3203515,31.0420978 3.06189591,30.4628289 L20.6047584,20.5028613" id="Shape" fill="url(#linearGradient-3)"></path>
                    <path d="M20.5927509,10.3748942 L3.04988848,0.414926576 C2.30834407,-0.164342272 1.25924099,-0.13409852 0.552342007,0.486926342 L15.5256134,15.4388777 L20.5927509,10.3748942 Z" id="Shape" fill="url(#linearGradient-4)"></path>
                    <path d="M20.4486617,20.3948616 L3.04988848,30.2948295 C2.33789386,30.8268315 1.36039611,30.8268315 0.648401487,30.2948295 L0.564349442,30.3788292 L0.648401487,30.4628289 C1.35905646,30.9988423 2.3392335,30.9988423 3.04988848,30.4628289 L20.5927509,20.5028613 L20.4486617,20.3948616 Z" id="Shape" fill="#000000" opacity="0.2"></path>
                    <path d="M0.564349442,30.2228297 C0.17298506,29.7535012 -0.0245508217,29.1526793 0.0120074349,28.5428352 L0.0120074349,28.7228346 C-0.0245508217,29.3326787 0.17298506,29.9335006 0.564349442,30.4028291 L0.648401487,30.3188294 L0.564349442,30.2228297 Z M26.4523792,16.9988727 L20.4486617,20.3948616 L20.5567286,20.5028613 L26.4523792,17.1668721 C27.1332849,16.847209 27.5912464,16.1881549 27.6531227,15.4388777 C27.5162733,16.1166811 27.0728105,16.6928239 26.4523792,16.9988727 Z" id="Shape" fill="#000000" opacity="0.12"></path>
                    <path d="M3.04988848,0.58292603 L26.4523792,13.8788828 C27.0728105,14.1849316 27.5162733,14.7610744 27.6531227,15.4388777 C27.5912464,14.6896006 27.1332849,14.0305465 26.4523792,13.7108834 L3.04988848,0.414926576 C1.36884758,-0.533070343 0,0.258927083 0,2.17892084 L0,2.35892026 C0.0360223048,0.426926537 1.38085502,-0.365070889 3.04988848,0.58292603 L3.04988848,0.58292603 Z" id="Shape" fill="#FFFFFF" opacity="0.25"></path>
                </g>
            </g>
        </g>
    </g>
</svg>