<?xml version="1.0" encoding="UTF-8"?>
<svg width="34px" height="34px" viewBox="0 0 34 34" version="1.1" xmlns="http://www.w3.org/2000/svg" xmlns:xlink="http://www.w3.org/1999/xlink">
    <title>twitter</title>
    <g id="Page-1" stroke="none" stroke-width="1" fill="none" fill-rule="evenodd">
        <g id="1-Home" transform="translate(-190.000000, -4944.000000)">
            <g id="Group-32" transform="translate(0.000000, 4699.000000)">
                <g id="Group-31" transform="translate(148.000000, 219.000000)">
                    <g id="Group-16" transform="translate(0.000000, 26.000000)">
                        <g id="twitter" transform="translate(42.000000, 0.000000)">
                            <circle id="Oval" stroke="#FFFFFF" opacity="0.3" cx="17" cy="17" r="16.5"></circle>
                            <g id="5305170_bird_social-media_social-network_tweet_twitter_icon" transform="translate(9.000000, 10.000000)" fill="#FFFFFF">
                                <path d="M5.34616797,14 C11.7612773,14 15.270084,8.61333186 15.270084,3.94199882 C15.270084,3.78901799 15.270084,3.63671021 15.2598906,3.48507545 C15.9424805,2.98464038 16.5317363,2.36507814 17,1.65529558 C16.3634629,1.94116714 15.6881445,2.12860735 14.9967227,2.21145794 C15.724668,1.76981246 16.2698301,1.07463476 16.5301094,0.256224371 C15.8454941,0.667953445 15.0963984,0.958166076 14.3153613,1.11427651 C13.6558809,0.403518049 12.7348262,0 11.7722344,0 C9.85701172,0 8.2810918,1.59724633 8.2810918,3.53827886 C8.2810918,3.8075601 8.31143945,4.07600006 8.3714707,4.33828174 C5.5685293,4.19590122 2.95338477,2.85218712 1.18319336,0.644935653 C0.262669922,2.25099874 0.73896875,4.33235904 2.26302539,5.36378496 C1.70803516,5.34712734 1.16496484,5.19535798 0.68,4.92133184 L0.68,4.96612231 C0.680464844,6.64245023 1.85695117,8.09946974 3.47819336,8.43137689 C2.96474023,8.57328628 2.42588672,8.59401576 1.90333594,8.49201733 C2.35911523,9.92844197 3.67342773,10.9185772 5.16189062,10.946912 C3.92706641,11.9304515 2.40081836,12.4647065 0.830277344,12.4631249 C0.552765625,12.4625865 0.275519531,12.4455587 0,12.4121089 C1.59487891,13.4494238 3.45113281,13.9997981 5.34616797,13.9972406" id="Path"></path>
                            </g>
                        </g>
                    </g>
                </g>
            </g>
        </g>
    </g>
</svg>