<?xml version="1.0" encoding="UTF-8"?>
<svg width="34px" height="34px" viewBox="0 0 34 34" version="1.1" xmlns="http://www.w3.org/2000/svg" xmlns:xlink="http://www.w3.org/1999/xlink">
    <title>youtube</title>
    <g id="Page-1" stroke="none" stroke-width="1" fill="none" fill-rule="evenodd">
        <g id="1-Home" transform="translate(-274.000000, -4944.000000)">
            <g id="Group-32" transform="translate(0.000000, 4699.000000)">
                <g id="Group-31" transform="translate(148.000000, 219.000000)">
                    <g id="Group-16" transform="translate(0.000000, 26.000000)">
                        <g id="youtube" transform="translate(126.000000, 0.000000)">
                            <circle id="Oval" stroke="#FFFFFF" opacity="0.3" cx="17" cy="17" r="16.5"></circle>
                            <g id="5305164_play_video_youtube_youtube-logo_icon" transform="translate(9.000000, 12.000000)" fill="#FFFFFF">
                                <path d="M15.6657493,1.71767578 C15.4817802,1.04153181 14.9396542,0.509118304 14.2512153,0.328404018 C13.0033379,0 8.00001563,0 8.00001563,0 C8.00001563,0 2.9966621,0 1.74878467,0.328404018 C1.06047082,0.509118304 0.518251012,1.04153181 0.334281903,1.71767578 C0,2.94314453 0,5.50009208 0,5.50009208 C0,5.50009208 0,8.05697824 0.334281903,9.28232422 C0.518251012,9.95846819 1.06047082,10.4910352 1.74878467,10.6717188 C2.9966621,11 8.00001563,11 8.00001563,11 C8.00001563,11 13.0033379,11 14.2512153,10.6717188 C14.9396542,10.4910352 15.4817802,9.95846819 15.6657493,9.28232422 C16,8.05697824 16,5.50009208 16,5.50009208 C16,5.50009208 16,2.94314453 15.6657493,1.71767578 Z M6.39991875,7.85726562 L6.39991875,3.14288783 L10.5567706,5.50009208 L6.39991875,7.85726562 Z" id="Shape"></path>
                            </g>
                        </g>
                    </g>
                </g>
            </g>
        </g>
    </g>
</svg>