<?xml version="1.0" encoding="UTF-8"?>
<svg width="12px" height="12px" viewBox="0 0 12 12" version="1.1" xmlns="http://www.w3.org/2000/svg" xmlns:xlink="http://www.w3.org/1999/xlink">
    <title>211679_information_circled_icon</title>
    <g id="Onboard" stroke="none" stroke-width="1" fill="none" fill-rule="evenodd">
        <g id="5-Add-Bank" transform="translate(-549.000000, -447.000000)" fill="#E84B4B" fill-rule="nonzero">
            <g id="Group-16" transform="translate(385.000000, 175.000000)">
                <g id="Group-15" transform="translate(164.000000, 127.000000)">
                    <g id="Group-11" transform="translate(0.000000, 144.000000)">
                        <g id="211679_information_circled_icon" transform="translate(0.000000, 1.000000)">
                            <path d="M11.9994223,5.91964972 C11.9538907,2.60654 9.23270942,-0.04234077 5.91961765,0.000512710643 C2.60652588,0.0433661913 -0.0423405406,2.76724055 0.000512707866,6.08035028 C0.0460442844,9.39346 2.76722556,12.0423408 6.08031733,11.9994873 C9.39340911,11.9539555 12.0449539,9.23275945 11.9994223,5.91964972 Z M5.99996749,2.1405084 C6.47403155,2.1405084 6.85703246,2.52351138 6.85703246,2.99757801 C6.85703246,3.47164464 6.47403155,3.85464763 5.99996749,3.85464763 C5.52590343,3.85464763 5.14290252,3.47164464 5.14290252,2.99757801 C5.14290252,2.52351138 5.52590343,2.1405084 5.99996749,2.1405084 Z M7.17843183,9.72289613 L4.82150316,9.72289613 L4.82150316,9.42827845 L5.41073533,9.42827845 L5.41073533,5.14293039 L4.82150316,5.14293039 L4.82150316,4.82152928 L6.58919966,4.82152928 L6.58919966,9.42827845 L7.17843183,9.42827845 L7.17843183,9.72289613 Z" id="Shape"></path>
                        </g>
                    </g>
                </g>
            </g>
        </g>
    </g>
</svg>