<?xml version="1.0" encoding="UTF-8"?>
<svg width="38px" height="38px" viewBox="0 0 38 38" version="1.1" xmlns="http://www.w3.org/2000/svg" xmlns:xlink="http://www.w3.org/1999/xlink">
    <title>1976052_gallery_image_images_photo_picture_icon</title>
    <g id="Onboard" stroke="none" stroke-width="1" fill="none" fill-rule="evenodd">
        <g id="2-Business-Info-" transform="translate(-571.000000, -172.000000)" fill="#DEDEDE" fill-rule="nonzero">
            <g id="1976052_gallery_image_images_photo_picture_icon" transform="translate(571.000000, 172.000000)">
                <path d="M32.4096386,0 L5.58850788,0 C2.50787766,0 0,2.5060241 0,5.58850788 L0,32.4114921 C0,35.4921223 2.5060241,38 5.58850788,38 L32.4114921,38 C35.4921223,38 38,35.4939759 38,32.4114921 L38,5.58850788 C37.9981464,2.5060241 35.4921223,0 32.4096386,0 Z M35.7627433,32.4096386 C35.7627433,34.257646 34.2594995,35.7627433 32.4096386,35.7627433 L5.58850788,35.7627433 C3.74050046,35.7627433 2.23540315,34.2594995 2.23540315,32.4096386 L2.23540315,28.3670065 L11.2548656,18.3447637 L23.4383689,29.4198332 L30.176089,23.8053753 L35.7645968,28.4615385 L35.7645968,32.4096386 L35.7627433,32.4096386 Z M35.7627433,25.5532901 L30.1742354,20.897127 L23.4995366,26.4578313 L11.0973123,15.1807229 L2.23540315,25.0268767 L2.23540315,5.58850788 C2.23540315,3.74050046 3.7386469,2.23540315 5.58850788,2.23540315 L32.4114921,2.23540315 C34.2594995,2.23540315 35.7645968,3.7386469 35.7645968,5.58850788 L35.7645968,25.5532901 L35.7627433,25.5532901 Z" id="Shape"></path>
                <path d="M26.8229842,16.7636701 C29.9036145,16.7636701 32.4114921,14.257646 32.4114921,11.1751622 C32.4114921,8.09267841 29.905468,5.58665431 26.8229842,5.58665431 C23.742354,5.58665431 21.2344764,8.09267841 21.2344764,11.1751622 C21.2344764,14.257646 23.7405005,16.7636701 26.8229842,16.7636701 Z M26.8229842,7.82391103 C28.6709917,7.82391103 30.176089,9.32715477 30.176089,11.1770158 C30.176089,13.0268767 28.6728452,14.5301205 26.8229842,14.5301205 C24.9731233,14.5301205 23.4698795,13.0268767 23.4698795,11.1770158 C23.4698795,9.32715477 24.9731233,7.82391103 26.8229842,7.82391103 Z" id="Shape"></path>
            </g>
        </g>
    </g>
</svg>