<?xml version="1.0" encoding="UTF-8"?>
<svg width="56px" height="40px" viewBox="0 0 56 40" version="1.1" xmlns="http://www.w3.org/2000/svg" xmlns:xlink="http://www.w3.org/1999/xlink">
    <title>drink</title>
    <g id="drink" stroke="none" stroke-width="1" fill="none" fill-rule="evenodd">
        <g id="465066_lifestyle_straw_alcohol_bar_beverage_icon" transform="translate(16.000000, 5.000000)" fill="#7F7F7F" fill-rule="nonzero">
            <path d="M15.3709437,6.96767913 C15.3765846,6.88862928 15.3935074,6.80957944 15.3935074,6.7305296 C15.3935074,5.34715732 14.2709636,4.22352025 12.8889374,4.22352025 C11.5069111,4.22352025 10.3843674,5.34715732 10.3843674,6.7305296 C10.3843674,6.81522586 10.4012901,6.88862928 10.406931,6.96767913 L15.3709437,6.96767913 L15.3709437,6.96767913 Z" id="Path"></path>
            <path d="M23.8718153,0 L20.210856,0 C19.765223,0 19.3590766,0.26538162 19.178567,0.677570093 L16.1155456,7.72429907 L1.01479351,7.72429907 C0.11224576,7.72429907 -0.339028116,8.81405763 0.298396233,9.45774922 L9.9387344,19.1074766 L9.9387344,27.2496106 L6.05777907,27.2496106 C5.57830058,27.2496106 5.18343594,27.6448598 5.18343594,28.1248053 C5.18343594,28.6047508 5.57830058,29 6.05777907,29 L15.5345305,29 C16.014009,29 16.4088736,28.6047508 16.4088736,28.1248053 C16.4088736,27.6448598 16.014009,27.2496106 15.5345305,27.2496106 L11.6535751,27.2496106 L11.6535751,19.1018302 L21.2995542,9.4521028 C21.9369786,8.81405763 21.4857047,7.71865265 20.5831569,7.71865265 L18.5693473,7.71865265 L20.949817,2.25292056 L23.8718153,2.25292056 C24.4923169,2.25292056 25,1.75038941 25,1.12363707 C25,0.50817757 24.4979578,0 23.8718153,0 Z" id="Path"></path>
        </g>
    </g>
</svg>