<?xml version="1.0" encoding="UTF-8"?>
<svg width="56px" height="40px" viewBox="0 0 56 40" version="1.1" xmlns="http://www.w3.org/2000/svg" xmlns:xlink="http://www.w3.org/1999/xlink">
    <title>food</title>
    <g id="food" stroke="none" stroke-width="1" fill="none" fill-rule="evenodd">
        <g id="753129_food_fruit_healthy_kitchen_vegetable_icon" transform="translate(9.000000, 8.000000)" fill="#7F7F7F" fill-rule="nonzero">
            <path d="M37.0914425,21.2609462 L36.1930732,21.2609462 C35.1035233,21.2609462 35.1454752,20.1978376 35.1454752,20.1978376 C35.1454752,20.1978376 35.1382834,20.2002914 35.1364855,20.2002914 C34.5299814,13.9578253 30.5571397,8.74227437 25.0986027,6.47066943 C25.0830205,6.46269458 25.0722329,6.45471973 25.0566508,6.44735833 C24.1714664,6.0510697 24.1504905,5.16340771 24.1504905,5.16340771 L24.1504905,2.78076835 C24.1504905,1.24591672 22.9356843,0 21.4344068,0 L16.5661925,0 C15.0661136,0 13.8495095,1.24591672 13.8495095,2.78076835 L13.8495095,5.5173683 C13.8249377,5.74679856 13.6924897,6.12775094 13.1135539,6.37865194 C13.0763966,6.39521509 13.0482289,6.41116479 13.0182633,6.42527414 C7.51357916,8.66620658 3.49339179,13.8897324 2.86711037,20.1567364 L2.85991862,20.1542826 C2.85991862,20.1542826 2.77002176,21.2609462 1.73680724,21.2609462 L1.06437877,21.2609462 C0.851023562,21.2658538 0,21.3425351 0,22.2406257 L0,22.9589755 C0.0125855597,23.2669274 0.143235656,24 1.12850519,24 L36.8289436,24 C37.8052235,24 37.9748289,23.3534238 38,23.0295223 L38,22.29829 C38,21.4345526 37.3970918,21.282417 37.0914425,21.2609462 Z M22.1889411,4.42481405 C22.1835473,4.64688291 22.1008422,5.46706541 21.0957954,5.37136723 C21.0406586,5.36584618 21.0041006,5.36768653 20.9669432,5.36952688 C20.3208845,5.28793804 19.6688326,5.233341 19,5.233341 C18.2394726,5.233341 17.495726,5.30879534 16.7621676,5.41492217 C16.7112261,5.41246837 16.6524935,5.41492217 16.5799767,5.42412392 C15.7822919,5.521049 15.6426521,5.00943179 15.6234741,4.74687524 L15.6234741,3.48010122 C15.6234741,2.5010352 16.3977857,1.70723104 17.3548876,1.70723104 L20.458127,1.70723104 C21.4146295,1.70723104 22.1895404,2.5010352 22.1895404,3.48010122 L22.1895404,4.42481405 L22.1889411,4.42481405 Z M29.6174179,21.2474503 L28.2455919,21.2474503 C27.5437971,21.2474503 27.365202,20.8615904 27.3244488,20.5916724 C27.3244488,20.5272602 27.3214522,20.4389234 27.3178564,20.3346369 L27.3178564,20.3346369 L27.3178564,20.3346369 C27.27111,18.9249291 26.9187143,14.0872632 24.3057124,10.2605628 L24.318298,10.2599494 L24.0162445,9.73606319 C23.9838817,9.54343992 23.9952686,9.26309332 24.4567391,9.6563147 C26.7215405,11.6537075 30.0692994,15.4577103 30.2616787,20.6505636 C30.2490931,20.8756997 30.1514052,21.2474503 29.6174179,21.2474503 Z" id="Shape"></path>
        </g>
    </g>
</svg>