<?xml version="1.0" encoding="UTF-8"?>
<svg width="56px" height="40px" viewBox="0 0 56 40" version="1.1" xmlns="http://www.w3.org/2000/svg" xmlns:xlink="http://www.w3.org/1999/xlink">
    <title>shower</title>
    <g id="shower" stroke="none" stroke-width="1" fill="none" fill-rule="evenodd">
        <g id="415891_room-facilities_shower_icon" transform="translate(19.000000, 2.000000)" fill="#7F7F7F" fill-rule="nonzero">
            <path d="M19,12.6249375 L0,12.6249375 C0,9.86358333 2.12662787,7.62489583 4.75006927,7.62489583 L7.12510391,7.62489583 L7.12510391,0 L11.8751732,0 L11.8751732,7.62504167 L14.1314769,7.62504167 L14.1314769,7.62825 C14.1711,7.62722917 14.2103076,7.62504167 14.2502078,7.62504167 C16.8735107,7.62504167 19,9.86358333 19,12.6249375 Z M9.5,14.9999792 C8.84413965,14.9999792 8.31255195,15.5596875 8.31255195,16.2500625 C8.31255195,16.9404375 8.84413965,17.5 9.5,17.5 C10.1558603,17.5 10.687448,16.9404375 10.687448,16.2500625 C10.687448,15.5596875 10.1558603,14.9999792 9.5,14.9999792 Z M9.5,20.0000208 C8.84413965,20.0000208 8.31255195,20.5595833 8.31255195,21.2499583 C8.31255195,21.9403333 8.84413965,22.5000417 9.5,22.5000417 C10.1558603,22.5000417 10.687448,21.9403333 10.687448,21.2499583 C10.687448,20.5595833 10.1558603,20.0000208 9.5,20.0000208 Z M9.5,26.25 C8.84413965,26.25 8.31255195,26.8095625 8.31255195,27.4999375 C8.31255195,28.1903125 8.84413965,28.749875 9.5,28.749875 C10.1558603,28.749875 10.687448,28.1903125 10.687448,27.4999375 C10.687448,26.8095625 10.1558603,26.25 9.5,26.25 Z M9.5,32.4999792 C8.84413965,32.4999792 8.31255195,33.0595417 8.31255195,33.7499167 C8.31255195,34.4402917 8.84413965,35 9.5,35 C10.1558603,35 10.687448,34.4404375 10.687448,33.7500625 C10.687448,33.0596875 10.1558603,32.4999792 9.5,32.4999792 Z M14.0055417,15.0273958 C13.3636741,15.1697292 12.9530341,15.8325417 13.0882516,16.5080417 C13.2234691,17.1836875 13.8531449,17.6160833 14.495151,17.4736042 C15.1367415,17.3312708 15.5473815,16.6684583 15.4123026,15.9928125 C15.2770851,15.3174583 14.6472707,14.8850625 14.0055417,15.0273958 Z M14.9846218,19.9199583 C14.3427542,20.0622917 13.9319756,20.7253958 14.0674702,21.4006042 C14.2025492,22.0763958 14.8323635,22.5086458 15.4742311,22.3664583 C16.1158216,22.2239792 16.5264616,21.5611667 16.3913827,20.8856667 C16.2560266,20.209875 15.6263508,19.777625 14.9846218,19.9199583 Z M16.208368,26.0359167 C15.566639,26.17825 15.1558603,26.8410625 15.2910779,27.5167083 C15.4264339,28.1922083 16.0561097,28.6244583 16.6978387,28.482125 C17.3397063,28.3396458 17.7504849,27.6769792 17.6151288,27.0014792 C17.4800499,26.3259792 16.8502355,25.8937292 16.208368,26.0359167 Z M17.4322527,32.1517292 C16.7903851,32.2940625 16.3796065,32.956875 16.5149626,33.632375 C16.6501801,34.3080208 17.2798559,34.7402708 17.9217235,34.5979375 C18.563591,34.4556042 18.9742311,33.7927917 18.8390136,33.1172917 C18.7039346,32.4415 18.0739817,32.0091042 17.4322527,32.1517292 Z M3.58769742,15.9929583 C3.45247991,16.6686042 3.86325852,17.3314167 4.50498753,17.47375 C5.14671654,17.6162292 5.77653089,17.1838333 5.91188695,16.5081875 C6.04696592,15.8326875 5.63632585,15.1697292 4.99459684,15.0275417 C4.35272929,14.8850625 3.72277639,15.3174583 3.58769742,15.9929583 Z M2.60861735,20.8856667 C2.47339983,21.5611667 2.88417844,22.224125 3.52590745,22.3664583 C4.16763646,22.5086458 4.79745082,22.0763958 4.93266833,21.4006042 C5.06802438,20.7253958 4.65724577,20.0621458 4.01551676,19.9199583 C3.37364921,19.777625 2.74383486,20.209875 2.60861735,20.8856667 Z M1.38487116,27.0014792 C1.24965364,27.6769792 1.66043225,28.3397917 2.30216126,28.482125 C2.94389027,28.6244583 3.57370463,28.1922083 3.70892214,27.5167083 C3.84413965,26.8410625 3.43336104,26.1781042 2.79163203,26.0359167 C2.14976448,25.8937292 1.52008867,26.3259792 1.38487116,27.0014792 Z M0.160986423,33.1172917 C0.0257689111,33.7929375 0.43654752,34.45575 1.07827653,34.5979375 C1.72014408,34.7402708 2.34981989,34.3080208 2.48503741,33.632375 C2.62025492,32.956875 2.20961485,32.2939167 1.5677473,32.1517292 C0.926018288,32.0091042 0.296203935,32.4415 0.160986423,33.1172917 Z" id="Shape"></path>
        </g>
    </g>
</svg>