<?xml version="1.0" encoding="UTF-8"?>
<svg width="56px" height="40px" viewBox="0 0 56 40" version="1.1" xmlns="http://www.w3.org/2000/svg" xmlns:xlink="http://www.w3.org/1999/xlink">
    <title>tv</title>
    <g id="tv" stroke="none" stroke-width="1" fill="none" fill-rule="evenodd">
        <g id="5402432_channel_entertainment_television_tv_media_icon" transform="translate(14.000000, 5.000000)" fill="#7F7F7F" fill-rule="nonzero">
            <path d="M24.65,5.80477185 L17.9945,5.80477185 L21.3295,2.48495482 C21.6973049,2.11722555 21.8409491,1.58124845 21.7063232,1.07892092 C21.5716972,0.576593395 21.179254,0.184230931 20.6768232,0.049632675 C20.1743923,-0.0849655809 19.6383049,0.0586490485 19.2705,0.426378322 L14.5,5.21039413 L9.7295,0.426378322 C9.36169508,0.0586490393 8.82560772,-0.0849655969 8.32317684,0.0496326578 C7.82074596,0.184230912 7.42830277,0.576593381 7.29367683,1.07892092 C7.15905088,1.58124845 7.30269507,2.11722555 7.6705,2.48495482 L11.0055,5.80477185 L4.35,5.80477185 C1.94756134,5.80477185 0,7.75193261 0,10.1538771 L0,24.6508947 C0,27.0528392 1.94756134,29 4.35,29 L24.65,29 C27.0524387,29 29,27.0528392 29,24.6508947 L29,10.1538771 C29,7.75193261 27.0524387,5.80477185 24.65,5.80477185 Z M20.3,20.3017894 C20.3,21.9030858 19.0016258,23.201193 17.4,23.201193 L5.8,23.201193 C4.19837423,23.201193 2.9,21.9030858 2.9,20.3017894 L2.9,11.6035789 C2.9,10.0022825 4.19837423,8.70417537 5.8,8.70417537 L17.4,8.70417537 C19.0016258,8.70417537 20.3,10.0022825 20.3,11.6035789 L20.3,20.3017894 Z M24.65,24.6508947 C23.8491871,24.6508947 23.2,24.0018411 23.2,23.201193 C23.2,22.4005448 23.8491871,21.7514912 24.65,21.7514912 C25.4508129,21.7514912 26.1,22.4005448 26.1,23.201193 C26.1,24.0018411 25.4508129,24.6508947 24.65,24.6508947 Z M24.65,18.8520877 C23.8491871,18.8520877 23.2,18.2030341 23.2,17.4023859 C23.2,16.6017378 23.8491871,15.9526842 24.65,15.9526842 C25.4508129,15.9526842 26.1,16.6017378 26.1,17.4023859 C26.1,18.2030341 25.4508129,18.8520877 24.65,18.8520877 Z M24.65,13.0532806 C23.8491871,13.0532806 23.2,12.4042271 23.2,11.6035789 C23.2,10.8029307 23.8491871,10.1538771 24.65,10.1538771 C25.4508129,10.1538771 26.1,10.8029307 26.1,11.6035789 C26.1,12.4042271 25.4508129,13.0532806 24.65,13.0532806 Z" id="Shape"></path>
        </g>
    </g>
</svg>