<?xml version="1.0" encoding="UTF-8"?>
<svg width="56px" height="40px" viewBox="0 0 56 40" version="1.1" xmlns="http://www.w3.org/2000/svg" xmlns:xlink="http://www.w3.org/1999/xlink">
    <title>wifi</title>
    <g id="wifi" stroke="none" stroke-width="1" fill="none" fill-rule="evenodd">
        <g id="415886_complex-facilities_wifi_icon" transform="translate(14.000000, 8.000000)" fill="#7F7F7F" fill-rule="nonzero">
            <path d="M3.02749178,9.31225263 L0,6.17747368 C3.71225713,2.35970526 8.8244951,0 14.4697311,0 C20.1462631,0 25.2833928,2.3856 29,6.24037895 L25.9792749,9.36846316 C23.0157042,6.35621053 18.9570165,4.49532632 14.4758936,4.49532632 C10.0228043,4.49532632 5.98647078,6.33309474 3.02749178,9.31225263 Z M14.4878562,12.9675789 C16.6982696,12.9675789 18.7027821,13.8735158 20.1794924,15.3444632 L23.1999758,12.2163789 C20.970229,9.90366316 17.8877579,8.47225263 14.4820562,8.47225263 C11.0949629,8.47225263 8.02747511,9.888 5.80002417,12.1786105 L8.82751595,15.3136421 C10.3007221,13.8610105 12.2927887,12.9675789 14.4878562,12.9675789 Z M14.5782399,18.6529263 C13.1524006,18.6529263 11.9963833,19.8498947 11.9963833,21.3264 C11.9963833,22.8029053 13.1522798,24 14.5782399,24 C16.0039583,24 17.1598548,22.8029053 17.1598548,21.3264 C17.1598548,19.8498947 16.0040792,18.6529263 14.5782399,18.6529263 Z" id="Shape"></path>
        </g>
    </g>
</svg>